G04 #@! TF.GenerationSoftware,KiCad,Pcbnew,7.0.10-7.0.10~ubuntu22.04.1*
G04 #@! TF.CreationDate,2024-03-30T20:23:11+11:00*
G04 #@! TF.ProjectId,AtariHDisk4,41746172-6948-4446-9973-6b342e6b6963,rev?*
G04 #@! TF.SameCoordinates,Original*
G04 #@! TF.FileFunction,Legend,Top*
G04 #@! TF.FilePolarity,Positive*
%FSLAX46Y46*%
G04 Gerber Fmt 4.6, Leading zero omitted, Abs format (unit mm)*
G04 Created by KiCad (PCBNEW 7.0.10-7.0.10~ubuntu22.04.1) date 2024-03-30 20:23:11*
%MOMM*%
%LPD*%
G01*
G04 APERTURE LIST*
G04 Aperture macros list*
%AMRoundRect*
0 Rectangle with rounded corners*
0 $1 Rounding radius*
0 $2 $3 $4 $5 $6 $7 $8 $9 X,Y pos of 4 corners*
0 Add a 4 corners polygon primitive as box body*
4,1,4,$2,$3,$4,$5,$6,$7,$8,$9,$2,$3,0*
0 Add four circle primitives for the rounded corners*
1,1,$1+$1,$2,$3*
1,1,$1+$1,$4,$5*
1,1,$1+$1,$6,$7*
1,1,$1+$1,$8,$9*
0 Add four rect primitives between the rounded corners*
20,1,$1+$1,$2,$3,$4,$5,0*
20,1,$1+$1,$4,$5,$6,$7,0*
20,1,$1+$1,$6,$7,$8,$9,0*
20,1,$1+$1,$8,$9,$2,$3,0*%
G04 Aperture macros list end*
%ADD10C,0.150000*%
%ADD11C,0.200000*%
%ADD12C,0.100000*%
%ADD13C,0.120000*%
%ADD14RoundRect,0.250000X0.650000X-1.000000X0.650000X1.000000X-0.650000X1.000000X-0.650000X-1.000000X0*%
%ADD15RoundRect,0.250000X0.650000X-0.325000X0.650000X0.325000X-0.650000X0.325000X-0.650000X-0.325000X0*%
%ADD16R,1.700000X1.700000*%
%ADD17O,1.700000X1.700000*%
%ADD18R,1.600000X1.600000*%
%ADD19C,1.600000*%
%ADD20RoundRect,0.250000X-0.262500X-0.450000X0.262500X-0.450000X0.262500X0.450000X-0.262500X0.450000X0*%
%ADD21RoundRect,0.225000X-0.225000X-0.250000X0.225000X-0.250000X0.225000X0.250000X-0.225000X0.250000X0*%
%ADD22RoundRect,0.225000X0.225000X0.250000X-0.225000X0.250000X-0.225000X-0.250000X0.225000X-0.250000X0*%
%ADD23C,2.750000*%
%ADD24RoundRect,0.375000X0.625000X0.375000X-0.625000X0.375000X-0.625000X-0.375000X0.625000X-0.375000X0*%
%ADD25RoundRect,0.500000X0.500000X1.400000X-0.500000X1.400000X-0.500000X-1.400000X0.500000X-1.400000X0*%
%ADD26RoundRect,0.375000X-0.375000X0.625000X-0.375000X-0.625000X0.375000X-0.625000X0.375000X0.625000X0*%
%ADD27RoundRect,0.500000X-1.400000X0.500000X-1.400000X-0.500000X1.400000X-0.500000X1.400000X0.500000X0*%
%ADD28RoundRect,0.250000X0.325000X0.650000X-0.325000X0.650000X-0.325000X-0.650000X0.325000X-0.650000X0*%
%ADD29R,1.800000X2.000000*%
%ADD30RoundRect,0.225000X-0.250000X0.225000X-0.250000X-0.225000X0.250000X-0.225000X0.250000X0.225000X0*%
%ADD31R,3.500000X3.500000*%
%ADD32RoundRect,0.750000X-1.000000X0.750000X-1.000000X-0.750000X1.000000X-0.750000X1.000000X0.750000X0*%
%ADD33RoundRect,0.875000X-0.875000X0.875000X-0.875000X-0.875000X0.875000X-0.875000X0.875000X0.875000X0*%
%ADD34RoundRect,0.075000X-0.662500X-0.075000X0.662500X-0.075000X0.662500X0.075000X-0.662500X0.075000X0*%
%ADD35RoundRect,0.075000X-0.075000X-0.662500X0.075000X-0.662500X0.075000X0.662500X-0.075000X0.662500X0*%
%ADD36R,1.400000X0.300000*%
%ADD37RoundRect,0.225000X0.250000X-0.225000X0.250000X0.225000X-0.250000X0.225000X-0.250000X-0.225000X0*%
%ADD38R,1.800000X1.800000*%
%ADD39C,1.800000*%
%ADD40RoundRect,0.250000X0.450000X-0.262500X0.450000X0.262500X-0.450000X0.262500X-0.450000X-0.262500X0*%
%ADD41RoundRect,0.150000X0.150000X-0.587500X0.150000X0.587500X-0.150000X0.587500X-0.150000X-0.587500X0*%
%ADD42RoundRect,0.100000X0.100000X-0.637500X0.100000X0.637500X-0.100000X0.637500X-0.100000X-0.637500X0*%
%ADD43C,1.000000*%
%ADD44R,0.700000X1.600000*%
%ADD45R,1.200000X1.800000*%
%ADD46R,1.200000X2.200000*%
%ADD47R,1.600000X1.500000*%
%ADD48RoundRect,0.250000X0.375000X0.625000X-0.375000X0.625000X-0.375000X-0.625000X0.375000X-0.625000X0*%
%ADD49RoundRect,0.250000X0.262500X0.450000X-0.262500X0.450000X-0.262500X-0.450000X0.262500X-0.450000X0*%
%ADD50C,1.100000*%
%ADD51R,1.000000X1.500000*%
%ADD52R,0.700000X1.500000*%
%ADD53R,1.500000X2.800000*%
%ADD54RoundRect,0.100000X-0.100000X0.637500X-0.100000X-0.637500X0.100000X-0.637500X0.100000X0.637500X0*%
%ADD55RoundRect,0.250000X0.600000X-0.600000X0.600000X0.600000X-0.600000X0.600000X-0.600000X-0.600000X0*%
%ADD56C,1.700000*%
G04 APERTURE END LIST*
D10*
X62090493Y-80149819D02*
X62090493Y-80864104D01*
X62090493Y-80864104D02*
X62042874Y-81006961D01*
X62042874Y-81006961D02*
X61947636Y-81102200D01*
X61947636Y-81102200D02*
X61804779Y-81149819D01*
X61804779Y-81149819D02*
X61709541Y-81149819D01*
X62423827Y-80149819D02*
X62995255Y-80149819D01*
X62709541Y-81149819D02*
X62709541Y-80149819D01*
X63280970Y-80864104D02*
X63757160Y-80864104D01*
X63185732Y-81149819D02*
X63519065Y-80149819D01*
X63519065Y-80149819D02*
X63852398Y-81149819D01*
X64709541Y-80197438D02*
X64614303Y-80149819D01*
X64614303Y-80149819D02*
X64471446Y-80149819D01*
X64471446Y-80149819D02*
X64328589Y-80197438D01*
X64328589Y-80197438D02*
X64233351Y-80292676D01*
X64233351Y-80292676D02*
X64185732Y-80387914D01*
X64185732Y-80387914D02*
X64138113Y-80578390D01*
X64138113Y-80578390D02*
X64138113Y-80721247D01*
X64138113Y-80721247D02*
X64185732Y-80911723D01*
X64185732Y-80911723D02*
X64233351Y-81006961D01*
X64233351Y-81006961D02*
X64328589Y-81102200D01*
X64328589Y-81102200D02*
X64471446Y-81149819D01*
X64471446Y-81149819D02*
X64566684Y-81149819D01*
X64566684Y-81149819D02*
X64709541Y-81102200D01*
X64709541Y-81102200D02*
X64757160Y-81054580D01*
X64757160Y-81054580D02*
X64757160Y-80721247D01*
X64757160Y-80721247D02*
X64566684Y-80721247D01*
D11*
X63778900Y-60821673D02*
X63707471Y-61000244D01*
X63707471Y-61000244D02*
X63707471Y-61297863D01*
X63707471Y-61297863D02*
X63778900Y-61416911D01*
X63778900Y-61416911D02*
X63850328Y-61476435D01*
X63850328Y-61476435D02*
X63993185Y-61535958D01*
X63993185Y-61535958D02*
X64136042Y-61535958D01*
X64136042Y-61535958D02*
X64278900Y-61476435D01*
X64278900Y-61476435D02*
X64350328Y-61416911D01*
X64350328Y-61416911D02*
X64421757Y-61297863D01*
X64421757Y-61297863D02*
X64493185Y-61059768D01*
X64493185Y-61059768D02*
X64564614Y-60940720D01*
X64564614Y-60940720D02*
X64636042Y-60881197D01*
X64636042Y-60881197D02*
X64778900Y-60821673D01*
X64778900Y-60821673D02*
X64921757Y-60821673D01*
X64921757Y-60821673D02*
X65064614Y-60881197D01*
X65064614Y-60881197D02*
X65136042Y-60940720D01*
X65136042Y-60940720D02*
X65207471Y-61059768D01*
X65207471Y-61059768D02*
X65207471Y-61357387D01*
X65207471Y-61357387D02*
X65136042Y-61535958D01*
X63707471Y-62071673D02*
X64707471Y-62071673D01*
X64564614Y-62071673D02*
X64636042Y-62131196D01*
X64636042Y-62131196D02*
X64707471Y-62250244D01*
X64707471Y-62250244D02*
X64707471Y-62428815D01*
X64707471Y-62428815D02*
X64636042Y-62547863D01*
X64636042Y-62547863D02*
X64493185Y-62607387D01*
X64493185Y-62607387D02*
X63707471Y-62607387D01*
X64493185Y-62607387D02*
X64636042Y-62666911D01*
X64636042Y-62666911D02*
X64707471Y-62785958D01*
X64707471Y-62785958D02*
X64707471Y-62964530D01*
X64707471Y-62964530D02*
X64636042Y-63083577D01*
X64636042Y-63083577D02*
X64493185Y-63143101D01*
X64493185Y-63143101D02*
X63707471Y-63143101D01*
X63707471Y-63916911D02*
X63778900Y-63797863D01*
X63778900Y-63797863D02*
X63850328Y-63738340D01*
X63850328Y-63738340D02*
X63993185Y-63678816D01*
X63993185Y-63678816D02*
X64421757Y-63678816D01*
X64421757Y-63678816D02*
X64564614Y-63738340D01*
X64564614Y-63738340D02*
X64636042Y-63797863D01*
X64636042Y-63797863D02*
X64707471Y-63916911D01*
X64707471Y-63916911D02*
X64707471Y-64095482D01*
X64707471Y-64095482D02*
X64636042Y-64214530D01*
X64636042Y-64214530D02*
X64564614Y-64274054D01*
X64564614Y-64274054D02*
X64421757Y-64333578D01*
X64421757Y-64333578D02*
X63993185Y-64333578D01*
X63993185Y-64333578D02*
X63850328Y-64274054D01*
X63850328Y-64274054D02*
X63778900Y-64214530D01*
X63778900Y-64214530D02*
X63707471Y-64095482D01*
X63707471Y-64095482D02*
X63707471Y-63916911D01*
X64707471Y-64869292D02*
X63707471Y-64869292D01*
X64564614Y-64869292D02*
X64636042Y-64928815D01*
X64636042Y-64928815D02*
X64707471Y-65047863D01*
X64707471Y-65047863D02*
X64707471Y-65226434D01*
X64707471Y-65226434D02*
X64636042Y-65345482D01*
X64636042Y-65345482D02*
X64493185Y-65405006D01*
X64493185Y-65405006D02*
X63707471Y-65405006D01*
X63778900Y-65940720D02*
X63707471Y-66059767D01*
X63707471Y-66059767D02*
X63707471Y-66297863D01*
X63707471Y-66297863D02*
X63778900Y-66416910D01*
X63778900Y-66416910D02*
X63921757Y-66476434D01*
X63921757Y-66476434D02*
X63993185Y-66476434D01*
X63993185Y-66476434D02*
X64136042Y-66416910D01*
X64136042Y-66416910D02*
X64207471Y-66297863D01*
X64207471Y-66297863D02*
X64207471Y-66119291D01*
X64207471Y-66119291D02*
X64278900Y-66000244D01*
X64278900Y-66000244D02*
X64421757Y-65940720D01*
X64421757Y-65940720D02*
X64493185Y-65940720D01*
X64493185Y-65940720D02*
X64636042Y-66000244D01*
X64636042Y-66000244D02*
X64707471Y-66119291D01*
X64707471Y-66119291D02*
X64707471Y-66297863D01*
X64707471Y-66297863D02*
X64636042Y-66416910D01*
X63707471Y-67190720D02*
X63778900Y-67071672D01*
X63778900Y-67071672D02*
X63850328Y-67012149D01*
X63850328Y-67012149D02*
X63993185Y-66952625D01*
X63993185Y-66952625D02*
X64421757Y-66952625D01*
X64421757Y-66952625D02*
X64564614Y-67012149D01*
X64564614Y-67012149D02*
X64636042Y-67071672D01*
X64636042Y-67071672D02*
X64707471Y-67190720D01*
X64707471Y-67190720D02*
X64707471Y-67369291D01*
X64707471Y-67369291D02*
X64636042Y-67488339D01*
X64636042Y-67488339D02*
X64564614Y-67547863D01*
X64564614Y-67547863D02*
X64421757Y-67607387D01*
X64421757Y-67607387D02*
X63993185Y-67607387D01*
X63993185Y-67607387D02*
X63850328Y-67547863D01*
X63850328Y-67547863D02*
X63778900Y-67488339D01*
X63778900Y-67488339D02*
X63707471Y-67369291D01*
X63707471Y-67369291D02*
X63707471Y-67190720D01*
X64707471Y-68143101D02*
X63707471Y-68143101D01*
X64564614Y-68143101D02*
X64636042Y-68202624D01*
X64636042Y-68202624D02*
X64707471Y-68321672D01*
X64707471Y-68321672D02*
X64707471Y-68500243D01*
X64707471Y-68500243D02*
X64636042Y-68619291D01*
X64636042Y-68619291D02*
X64493185Y-68678815D01*
X64493185Y-68678815D02*
X63707471Y-68678815D01*
X63850328Y-69274053D02*
X63778900Y-69333576D01*
X63778900Y-69333576D02*
X63707471Y-69274053D01*
X63707471Y-69274053D02*
X63778900Y-69214529D01*
X63778900Y-69214529D02*
X63850328Y-69274053D01*
X63850328Y-69274053D02*
X63707471Y-69274053D01*
X63778900Y-70405005D02*
X63707471Y-70285957D01*
X63707471Y-70285957D02*
X63707471Y-70047862D01*
X63707471Y-70047862D02*
X63778900Y-69928814D01*
X63778900Y-69928814D02*
X63850328Y-69869291D01*
X63850328Y-69869291D02*
X63993185Y-69809767D01*
X63993185Y-69809767D02*
X64421757Y-69809767D01*
X64421757Y-69809767D02*
X64564614Y-69869291D01*
X64564614Y-69869291D02*
X64636042Y-69928814D01*
X64636042Y-69928814D02*
X64707471Y-70047862D01*
X64707471Y-70047862D02*
X64707471Y-70285957D01*
X64707471Y-70285957D02*
X64636042Y-70405005D01*
X63707471Y-71119291D02*
X63778900Y-71000243D01*
X63778900Y-71000243D02*
X63850328Y-70940720D01*
X63850328Y-70940720D02*
X63993185Y-70881196D01*
X63993185Y-70881196D02*
X64421757Y-70881196D01*
X64421757Y-70881196D02*
X64564614Y-70940720D01*
X64564614Y-70940720D02*
X64636042Y-71000243D01*
X64636042Y-71000243D02*
X64707471Y-71119291D01*
X64707471Y-71119291D02*
X64707471Y-71297862D01*
X64707471Y-71297862D02*
X64636042Y-71416910D01*
X64636042Y-71416910D02*
X64564614Y-71476434D01*
X64564614Y-71476434D02*
X64421757Y-71535958D01*
X64421757Y-71535958D02*
X63993185Y-71535958D01*
X63993185Y-71535958D02*
X63850328Y-71476434D01*
X63850328Y-71476434D02*
X63778900Y-71416910D01*
X63778900Y-71416910D02*
X63707471Y-71297862D01*
X63707471Y-71297862D02*
X63707471Y-71119291D01*
X63707471Y-72071672D02*
X64707471Y-72071672D01*
X64564614Y-72071672D02*
X64636042Y-72131195D01*
X64636042Y-72131195D02*
X64707471Y-72250243D01*
X64707471Y-72250243D02*
X64707471Y-72428814D01*
X64707471Y-72428814D02*
X64636042Y-72547862D01*
X64636042Y-72547862D02*
X64493185Y-72607386D01*
X64493185Y-72607386D02*
X63707471Y-72607386D01*
X64493185Y-72607386D02*
X64636042Y-72666910D01*
X64636042Y-72666910D02*
X64707471Y-72785957D01*
X64707471Y-72785957D02*
X64707471Y-72964529D01*
X64707471Y-72964529D02*
X64636042Y-73083576D01*
X64636042Y-73083576D02*
X64493185Y-73143100D01*
X64493185Y-73143100D02*
X63707471Y-73143100D01*
X61363900Y-60821673D02*
X61292471Y-61000244D01*
X61292471Y-61000244D02*
X61292471Y-61297863D01*
X61292471Y-61297863D02*
X61363900Y-61416911D01*
X61363900Y-61416911D02*
X61435328Y-61476435D01*
X61435328Y-61476435D02*
X61578185Y-61535958D01*
X61578185Y-61535958D02*
X61721042Y-61535958D01*
X61721042Y-61535958D02*
X61863900Y-61476435D01*
X61863900Y-61476435D02*
X61935328Y-61416911D01*
X61935328Y-61416911D02*
X62006757Y-61297863D01*
X62006757Y-61297863D02*
X62078185Y-61059768D01*
X62078185Y-61059768D02*
X62149614Y-60940720D01*
X62149614Y-60940720D02*
X62221042Y-60881197D01*
X62221042Y-60881197D02*
X62363900Y-60821673D01*
X62363900Y-60821673D02*
X62506757Y-60821673D01*
X62506757Y-60821673D02*
X62649614Y-60881197D01*
X62649614Y-60881197D02*
X62721042Y-60940720D01*
X62721042Y-60940720D02*
X62792471Y-61059768D01*
X62792471Y-61059768D02*
X62792471Y-61357387D01*
X62792471Y-61357387D02*
X62721042Y-61535958D01*
X62792471Y-61893101D02*
X62792471Y-62607387D01*
X61292471Y-62250244D02*
X62792471Y-62250244D01*
X61863900Y-63024054D02*
X61863900Y-63976435D01*
X61292471Y-64571673D02*
X62792471Y-64571673D01*
X62078185Y-64571673D02*
X62078185Y-65285958D01*
X61292471Y-65285958D02*
X62792471Y-65285958D01*
X61292471Y-65881197D02*
X62792471Y-65881197D01*
X62792471Y-65881197D02*
X62792471Y-66178816D01*
X62792471Y-66178816D02*
X62721042Y-66357387D01*
X62721042Y-66357387D02*
X62578185Y-66476435D01*
X62578185Y-66476435D02*
X62435328Y-66535958D01*
X62435328Y-66535958D02*
X62149614Y-66595482D01*
X62149614Y-66595482D02*
X61935328Y-66595482D01*
X61935328Y-66595482D02*
X61649614Y-66535958D01*
X61649614Y-66535958D02*
X61506757Y-66476435D01*
X61506757Y-66476435D02*
X61363900Y-66357387D01*
X61363900Y-66357387D02*
X61292471Y-66178816D01*
X61292471Y-66178816D02*
X61292471Y-65881197D01*
X61292471Y-68083578D02*
X62292471Y-68083578D01*
X62149614Y-68083578D02*
X62221042Y-68143101D01*
X62221042Y-68143101D02*
X62292471Y-68262149D01*
X62292471Y-68262149D02*
X62292471Y-68440720D01*
X62292471Y-68440720D02*
X62221042Y-68559768D01*
X62221042Y-68559768D02*
X62078185Y-68619292D01*
X62078185Y-68619292D02*
X61292471Y-68619292D01*
X62078185Y-68619292D02*
X62221042Y-68678816D01*
X62221042Y-68678816D02*
X62292471Y-68797863D01*
X62292471Y-68797863D02*
X62292471Y-68976435D01*
X62292471Y-68976435D02*
X62221042Y-69095482D01*
X62221042Y-69095482D02*
X62078185Y-69155006D01*
X62078185Y-69155006D02*
X61292471Y-69155006D01*
X61292471Y-69750245D02*
X62792471Y-69750245D01*
X61863900Y-69869292D02*
X61292471Y-70226435D01*
X62292471Y-70226435D02*
X61721042Y-69750245D01*
X61292471Y-71416911D02*
X61292471Y-70702626D01*
X61292471Y-71059769D02*
X62792471Y-71059769D01*
X62792471Y-71059769D02*
X62578185Y-70940721D01*
X62578185Y-70940721D02*
X62435328Y-70821673D01*
X62435328Y-70821673D02*
X62363900Y-70702626D01*
X60234614Y-60821673D02*
X60306042Y-60881197D01*
X60306042Y-60881197D02*
X60377471Y-61000244D01*
X60377471Y-61000244D02*
X60377471Y-61297863D01*
X60377471Y-61297863D02*
X60306042Y-61416911D01*
X60306042Y-61416911D02*
X60234614Y-61476435D01*
X60234614Y-61476435D02*
X60091757Y-61535958D01*
X60091757Y-61535958D02*
X59948900Y-61535958D01*
X59948900Y-61535958D02*
X59734614Y-61476435D01*
X59734614Y-61476435D02*
X58877471Y-60762149D01*
X58877471Y-60762149D02*
X58877471Y-61535958D01*
X60377471Y-62309768D02*
X60377471Y-62428815D01*
X60377471Y-62428815D02*
X60306042Y-62547863D01*
X60306042Y-62547863D02*
X60234614Y-62607387D01*
X60234614Y-62607387D02*
X60091757Y-62666911D01*
X60091757Y-62666911D02*
X59806042Y-62726434D01*
X59806042Y-62726434D02*
X59448900Y-62726434D01*
X59448900Y-62726434D02*
X59163185Y-62666911D01*
X59163185Y-62666911D02*
X59020328Y-62607387D01*
X59020328Y-62607387D02*
X58948900Y-62547863D01*
X58948900Y-62547863D02*
X58877471Y-62428815D01*
X58877471Y-62428815D02*
X58877471Y-62309768D01*
X58877471Y-62309768D02*
X58948900Y-62190720D01*
X58948900Y-62190720D02*
X59020328Y-62131196D01*
X59020328Y-62131196D02*
X59163185Y-62071673D01*
X59163185Y-62071673D02*
X59448900Y-62012149D01*
X59448900Y-62012149D02*
X59806042Y-62012149D01*
X59806042Y-62012149D02*
X60091757Y-62071673D01*
X60091757Y-62071673D02*
X60234614Y-62131196D01*
X60234614Y-62131196D02*
X60306042Y-62190720D01*
X60306042Y-62190720D02*
X60377471Y-62309768D01*
X60234614Y-63202625D02*
X60306042Y-63262149D01*
X60306042Y-63262149D02*
X60377471Y-63381196D01*
X60377471Y-63381196D02*
X60377471Y-63678815D01*
X60377471Y-63678815D02*
X60306042Y-63797863D01*
X60306042Y-63797863D02*
X60234614Y-63857387D01*
X60234614Y-63857387D02*
X60091757Y-63916910D01*
X60091757Y-63916910D02*
X59948900Y-63916910D01*
X59948900Y-63916910D02*
X59734614Y-63857387D01*
X59734614Y-63857387D02*
X58877471Y-63143101D01*
X58877471Y-63143101D02*
X58877471Y-63916910D01*
X59877471Y-64988339D02*
X58877471Y-64988339D01*
X60448900Y-64690720D02*
X59377471Y-64393101D01*
X59377471Y-64393101D02*
X59377471Y-65166910D01*
X59448900Y-65643101D02*
X59448900Y-66595482D01*
X60377471Y-67428815D02*
X60377471Y-67547862D01*
X60377471Y-67547862D02*
X60306042Y-67666910D01*
X60306042Y-67666910D02*
X60234614Y-67726434D01*
X60234614Y-67726434D02*
X60091757Y-67785958D01*
X60091757Y-67785958D02*
X59806042Y-67845481D01*
X59806042Y-67845481D02*
X59448900Y-67845481D01*
X59448900Y-67845481D02*
X59163185Y-67785958D01*
X59163185Y-67785958D02*
X59020328Y-67726434D01*
X59020328Y-67726434D02*
X58948900Y-67666910D01*
X58948900Y-67666910D02*
X58877471Y-67547862D01*
X58877471Y-67547862D02*
X58877471Y-67428815D01*
X58877471Y-67428815D02*
X58948900Y-67309767D01*
X58948900Y-67309767D02*
X59020328Y-67250243D01*
X59020328Y-67250243D02*
X59163185Y-67190720D01*
X59163185Y-67190720D02*
X59448900Y-67131196D01*
X59448900Y-67131196D02*
X59806042Y-67131196D01*
X59806042Y-67131196D02*
X60091757Y-67190720D01*
X60091757Y-67190720D02*
X60234614Y-67250243D01*
X60234614Y-67250243D02*
X60306042Y-67309767D01*
X60306042Y-67309767D02*
X60377471Y-67428815D01*
X60377471Y-68262148D02*
X60377471Y-69035957D01*
X60377471Y-69035957D02*
X59806042Y-68619291D01*
X59806042Y-68619291D02*
X59806042Y-68797862D01*
X59806042Y-68797862D02*
X59734614Y-68916910D01*
X59734614Y-68916910D02*
X59663185Y-68976434D01*
X59663185Y-68976434D02*
X59520328Y-69035957D01*
X59520328Y-69035957D02*
X59163185Y-69035957D01*
X59163185Y-69035957D02*
X59020328Y-68976434D01*
X59020328Y-68976434D02*
X58948900Y-68916910D01*
X58948900Y-68916910D02*
X58877471Y-68797862D01*
X58877471Y-68797862D02*
X58877471Y-68440719D01*
X58877471Y-68440719D02*
X58948900Y-68321672D01*
X58948900Y-68321672D02*
X59020328Y-68262148D01*
D10*
X145411819Y-104549411D02*
X145411819Y-105120839D01*
X145411819Y-104835125D02*
X144411819Y-104835125D01*
X144411819Y-104835125D02*
X144554676Y-104930363D01*
X144554676Y-104930363D02*
X144649914Y-105025601D01*
X144649914Y-105025601D02*
X144697533Y-105120839D01*
X145316580Y-104120839D02*
X145364200Y-104073220D01*
X145364200Y-104073220D02*
X145411819Y-104120839D01*
X145411819Y-104120839D02*
X145364200Y-104168458D01*
X145364200Y-104168458D02*
X145316580Y-104120839D01*
X145316580Y-104120839D02*
X145411819Y-104120839D01*
X144840390Y-103501792D02*
X144792771Y-103597030D01*
X144792771Y-103597030D02*
X144745152Y-103644649D01*
X144745152Y-103644649D02*
X144649914Y-103692268D01*
X144649914Y-103692268D02*
X144602295Y-103692268D01*
X144602295Y-103692268D02*
X144507057Y-103644649D01*
X144507057Y-103644649D02*
X144459438Y-103597030D01*
X144459438Y-103597030D02*
X144411819Y-103501792D01*
X144411819Y-103501792D02*
X144411819Y-103311316D01*
X144411819Y-103311316D02*
X144459438Y-103216078D01*
X144459438Y-103216078D02*
X144507057Y-103168459D01*
X144507057Y-103168459D02*
X144602295Y-103120840D01*
X144602295Y-103120840D02*
X144649914Y-103120840D01*
X144649914Y-103120840D02*
X144745152Y-103168459D01*
X144745152Y-103168459D02*
X144792771Y-103216078D01*
X144792771Y-103216078D02*
X144840390Y-103311316D01*
X144840390Y-103311316D02*
X144840390Y-103501792D01*
X144840390Y-103501792D02*
X144888009Y-103597030D01*
X144888009Y-103597030D02*
X144935628Y-103644649D01*
X144935628Y-103644649D02*
X145030866Y-103692268D01*
X145030866Y-103692268D02*
X145221342Y-103692268D01*
X145221342Y-103692268D02*
X145316580Y-103644649D01*
X145316580Y-103644649D02*
X145364200Y-103597030D01*
X145364200Y-103597030D02*
X145411819Y-103501792D01*
X145411819Y-103501792D02*
X145411819Y-103311316D01*
X145411819Y-103311316D02*
X145364200Y-103216078D01*
X145364200Y-103216078D02*
X145316580Y-103168459D01*
X145316580Y-103168459D02*
X145221342Y-103120840D01*
X145221342Y-103120840D02*
X145030866Y-103120840D01*
X145030866Y-103120840D02*
X144935628Y-103168459D01*
X144935628Y-103168459D02*
X144888009Y-103216078D01*
X144888009Y-103216078D02*
X144840390Y-103311316D01*
X144411819Y-102835125D02*
X145411819Y-102501792D01*
X145411819Y-102501792D02*
X144411819Y-102168459D01*
X59264779Y-105701819D02*
X59264779Y-104701819D01*
X59264779Y-104701819D02*
X59645731Y-104701819D01*
X59645731Y-104701819D02*
X59740969Y-104749438D01*
X59740969Y-104749438D02*
X59788588Y-104797057D01*
X59788588Y-104797057D02*
X59836207Y-104892295D01*
X59836207Y-104892295D02*
X59836207Y-105035152D01*
X59836207Y-105035152D02*
X59788588Y-105130390D01*
X59788588Y-105130390D02*
X59740969Y-105178009D01*
X59740969Y-105178009D02*
X59645731Y-105225628D01*
X59645731Y-105225628D02*
X59264779Y-105225628D01*
X60836207Y-105701819D02*
X60502874Y-105225628D01*
X60264779Y-105701819D02*
X60264779Y-104701819D01*
X60264779Y-104701819D02*
X60645731Y-104701819D01*
X60645731Y-104701819D02*
X60740969Y-104749438D01*
X60740969Y-104749438D02*
X60788588Y-104797057D01*
X60788588Y-104797057D02*
X60836207Y-104892295D01*
X60836207Y-104892295D02*
X60836207Y-105035152D01*
X60836207Y-105035152D02*
X60788588Y-105130390D01*
X60788588Y-105130390D02*
X60740969Y-105178009D01*
X60740969Y-105178009D02*
X60645731Y-105225628D01*
X60645731Y-105225628D02*
X60264779Y-105225628D01*
X61455255Y-104701819D02*
X61645731Y-104701819D01*
X61645731Y-104701819D02*
X61740969Y-104749438D01*
X61740969Y-104749438D02*
X61836207Y-104844676D01*
X61836207Y-104844676D02*
X61883826Y-105035152D01*
X61883826Y-105035152D02*
X61883826Y-105368485D01*
X61883826Y-105368485D02*
X61836207Y-105558961D01*
X61836207Y-105558961D02*
X61740969Y-105654200D01*
X61740969Y-105654200D02*
X61645731Y-105701819D01*
X61645731Y-105701819D02*
X61455255Y-105701819D01*
X61455255Y-105701819D02*
X61360017Y-105654200D01*
X61360017Y-105654200D02*
X61264779Y-105558961D01*
X61264779Y-105558961D02*
X61217160Y-105368485D01*
X61217160Y-105368485D02*
X61217160Y-105035152D01*
X61217160Y-105035152D02*
X61264779Y-104844676D01*
X61264779Y-104844676D02*
X61360017Y-104749438D01*
X61360017Y-104749438D02*
X61455255Y-104701819D01*
X62836207Y-104749438D02*
X62740969Y-104701819D01*
X62740969Y-104701819D02*
X62598112Y-104701819D01*
X62598112Y-104701819D02*
X62455255Y-104749438D01*
X62455255Y-104749438D02*
X62360017Y-104844676D01*
X62360017Y-104844676D02*
X62312398Y-104939914D01*
X62312398Y-104939914D02*
X62264779Y-105130390D01*
X62264779Y-105130390D02*
X62264779Y-105273247D01*
X62264779Y-105273247D02*
X62312398Y-105463723D01*
X62312398Y-105463723D02*
X62360017Y-105558961D01*
X62360017Y-105558961D02*
X62455255Y-105654200D01*
X62455255Y-105654200D02*
X62598112Y-105701819D01*
X62598112Y-105701819D02*
X62693350Y-105701819D01*
X62693350Y-105701819D02*
X62836207Y-105654200D01*
X62836207Y-105654200D02*
X62883826Y-105606580D01*
X62883826Y-105606580D02*
X62883826Y-105273247D01*
X62883826Y-105273247D02*
X62693350Y-105273247D01*
X59264779Y-106788009D02*
X59598112Y-106788009D01*
X59740969Y-107311819D02*
X59264779Y-107311819D01*
X59264779Y-107311819D02*
X59264779Y-106311819D01*
X59264779Y-106311819D02*
X59740969Y-106311819D01*
X60169541Y-107311819D02*
X60169541Y-106311819D01*
X60169541Y-106311819D02*
X60740969Y-107311819D01*
X60740969Y-107311819D02*
X60740969Y-106311819D01*
X61169541Y-107026104D02*
X61645731Y-107026104D01*
X61074303Y-107311819D02*
X61407636Y-106311819D01*
X61407636Y-106311819D02*
X61740969Y-107311819D01*
X62407636Y-106788009D02*
X62550493Y-106835628D01*
X62550493Y-106835628D02*
X62598112Y-106883247D01*
X62598112Y-106883247D02*
X62645731Y-106978485D01*
X62645731Y-106978485D02*
X62645731Y-107121342D01*
X62645731Y-107121342D02*
X62598112Y-107216580D01*
X62598112Y-107216580D02*
X62550493Y-107264200D01*
X62550493Y-107264200D02*
X62455255Y-107311819D01*
X62455255Y-107311819D02*
X62074303Y-107311819D01*
X62074303Y-107311819D02*
X62074303Y-106311819D01*
X62074303Y-106311819D02*
X62407636Y-106311819D01*
X62407636Y-106311819D02*
X62502874Y-106359438D01*
X62502874Y-106359438D02*
X62550493Y-106407057D01*
X62550493Y-106407057D02*
X62598112Y-106502295D01*
X62598112Y-106502295D02*
X62598112Y-106597533D01*
X62598112Y-106597533D02*
X62550493Y-106692771D01*
X62550493Y-106692771D02*
X62502874Y-106740390D01*
X62502874Y-106740390D02*
X62407636Y-106788009D01*
X62407636Y-106788009D02*
X62074303Y-106788009D01*
X63550493Y-107311819D02*
X63074303Y-107311819D01*
X63074303Y-107311819D02*
X63074303Y-106311819D01*
X63883827Y-106788009D02*
X64217160Y-106788009D01*
X64360017Y-107311819D02*
X63883827Y-107311819D01*
X63883827Y-107311819D02*
X63883827Y-106311819D01*
X63883827Y-106311819D02*
X64360017Y-106311819D01*
X59518779Y-114693819D02*
X59518779Y-115503342D01*
X59518779Y-115503342D02*
X59566398Y-115598580D01*
X59566398Y-115598580D02*
X59614017Y-115646200D01*
X59614017Y-115646200D02*
X59709255Y-115693819D01*
X59709255Y-115693819D02*
X59899731Y-115693819D01*
X59899731Y-115693819D02*
X59994969Y-115646200D01*
X59994969Y-115646200D02*
X60042588Y-115598580D01*
X60042588Y-115598580D02*
X60090207Y-115503342D01*
X60090207Y-115503342D02*
X60090207Y-114693819D01*
X60566398Y-115693819D02*
X60566398Y-114693819D01*
X60566398Y-114693819D02*
X60947350Y-114693819D01*
X60947350Y-114693819D02*
X61042588Y-114741438D01*
X61042588Y-114741438D02*
X61090207Y-114789057D01*
X61090207Y-114789057D02*
X61137826Y-114884295D01*
X61137826Y-114884295D02*
X61137826Y-115027152D01*
X61137826Y-115027152D02*
X61090207Y-115122390D01*
X61090207Y-115122390D02*
X61042588Y-115170009D01*
X61042588Y-115170009D02*
X60947350Y-115217628D01*
X60947350Y-115217628D02*
X60566398Y-115217628D01*
X61566398Y-115693819D02*
X61566398Y-114693819D01*
X61566398Y-114693819D02*
X61804493Y-114693819D01*
X61804493Y-114693819D02*
X61947350Y-114741438D01*
X61947350Y-114741438D02*
X62042588Y-114836676D01*
X62042588Y-114836676D02*
X62090207Y-114931914D01*
X62090207Y-114931914D02*
X62137826Y-115122390D01*
X62137826Y-115122390D02*
X62137826Y-115265247D01*
X62137826Y-115265247D02*
X62090207Y-115455723D01*
X62090207Y-115455723D02*
X62042588Y-115550961D01*
X62042588Y-115550961D02*
X61947350Y-115646200D01*
X61947350Y-115646200D02*
X61804493Y-115693819D01*
X61804493Y-115693819D02*
X61566398Y-115693819D01*
X62566398Y-115693819D02*
X62566398Y-114693819D01*
X138258779Y-73148866D02*
X139020684Y-73148866D01*
X138639731Y-73529819D02*
X138639731Y-72767914D01*
X147761438Y-124107411D02*
X147713819Y-124202649D01*
X147713819Y-124202649D02*
X147713819Y-124345506D01*
X147713819Y-124345506D02*
X147761438Y-124488363D01*
X147761438Y-124488363D02*
X147856676Y-124583601D01*
X147856676Y-124583601D02*
X147951914Y-124631220D01*
X147951914Y-124631220D02*
X148142390Y-124678839D01*
X148142390Y-124678839D02*
X148285247Y-124678839D01*
X148285247Y-124678839D02*
X148475723Y-124631220D01*
X148475723Y-124631220D02*
X148570961Y-124583601D01*
X148570961Y-124583601D02*
X148666200Y-124488363D01*
X148666200Y-124488363D02*
X148713819Y-124345506D01*
X148713819Y-124345506D02*
X148713819Y-124250268D01*
X148713819Y-124250268D02*
X148666200Y-124107411D01*
X148666200Y-124107411D02*
X148618580Y-124059792D01*
X148618580Y-124059792D02*
X148285247Y-124059792D01*
X148285247Y-124059792D02*
X148285247Y-124250268D01*
X148713819Y-123631220D02*
X147713819Y-123631220D01*
X147713819Y-123631220D02*
X148713819Y-123059792D01*
X148713819Y-123059792D02*
X147713819Y-123059792D01*
X148713819Y-122583601D02*
X147713819Y-122583601D01*
X147713819Y-122583601D02*
X147713819Y-122345506D01*
X147713819Y-122345506D02*
X147761438Y-122202649D01*
X147761438Y-122202649D02*
X147856676Y-122107411D01*
X147856676Y-122107411D02*
X147951914Y-122059792D01*
X147951914Y-122059792D02*
X148142390Y-122012173D01*
X148142390Y-122012173D02*
X148285247Y-122012173D01*
X148285247Y-122012173D02*
X148475723Y-122059792D01*
X148475723Y-122059792D02*
X148570961Y-122107411D01*
X148570961Y-122107411D02*
X148666200Y-122202649D01*
X148666200Y-122202649D02*
X148713819Y-122345506D01*
X148713819Y-122345506D02*
X148713819Y-122583601D01*
X148713819Y-120250268D02*
X148237628Y-120583601D01*
X148713819Y-120821696D02*
X147713819Y-120821696D01*
X147713819Y-120821696D02*
X147713819Y-120440744D01*
X147713819Y-120440744D02*
X147761438Y-120345506D01*
X147761438Y-120345506D02*
X147809057Y-120297887D01*
X147809057Y-120297887D02*
X147904295Y-120250268D01*
X147904295Y-120250268D02*
X148047152Y-120250268D01*
X148047152Y-120250268D02*
X148142390Y-120297887D01*
X148142390Y-120297887D02*
X148190009Y-120345506D01*
X148190009Y-120345506D02*
X148237628Y-120440744D01*
X148237628Y-120440744D02*
X148237628Y-120821696D01*
X147713819Y-119916934D02*
X148713819Y-119250268D01*
X147713819Y-119250268D02*
X148713819Y-119916934D01*
X147713819Y-118250267D02*
X147713819Y-117678839D01*
X148713819Y-117964553D02*
X147713819Y-117964553D01*
X147713819Y-117440743D02*
X148713819Y-116774077D01*
X147713819Y-116774077D02*
X148713819Y-117440743D01*
X144665819Y-84023030D02*
X144665819Y-84499220D01*
X144665819Y-84499220D02*
X145142009Y-84546839D01*
X145142009Y-84546839D02*
X145094390Y-84499220D01*
X145094390Y-84499220D02*
X145046771Y-84403982D01*
X145046771Y-84403982D02*
X145046771Y-84165887D01*
X145046771Y-84165887D02*
X145094390Y-84070649D01*
X145094390Y-84070649D02*
X145142009Y-84023030D01*
X145142009Y-84023030D02*
X145237247Y-83975411D01*
X145237247Y-83975411D02*
X145475342Y-83975411D01*
X145475342Y-83975411D02*
X145570580Y-84023030D01*
X145570580Y-84023030D02*
X145618200Y-84070649D01*
X145618200Y-84070649D02*
X145665819Y-84165887D01*
X145665819Y-84165887D02*
X145665819Y-84403982D01*
X145665819Y-84403982D02*
X145618200Y-84499220D01*
X145618200Y-84499220D02*
X145570580Y-84546839D01*
X144665819Y-83689696D02*
X145665819Y-83356363D01*
X145665819Y-83356363D02*
X144665819Y-83023030D01*
X149987000Y-122545239D02*
X150034619Y-122402382D01*
X150034619Y-122402382D02*
X150034619Y-122164287D01*
X150034619Y-122164287D02*
X149987000Y-122069049D01*
X149987000Y-122069049D02*
X149939380Y-122021430D01*
X149939380Y-122021430D02*
X149844142Y-121973811D01*
X149844142Y-121973811D02*
X149748904Y-121973811D01*
X149748904Y-121973811D02*
X149653666Y-122021430D01*
X149653666Y-122021430D02*
X149606047Y-122069049D01*
X149606047Y-122069049D02*
X149558428Y-122164287D01*
X149558428Y-122164287D02*
X149510809Y-122354763D01*
X149510809Y-122354763D02*
X149463190Y-122450001D01*
X149463190Y-122450001D02*
X149415571Y-122497620D01*
X149415571Y-122497620D02*
X149320333Y-122545239D01*
X149320333Y-122545239D02*
X149225095Y-122545239D01*
X149225095Y-122545239D02*
X149129857Y-122497620D01*
X149129857Y-122497620D02*
X149082238Y-122450001D01*
X149082238Y-122450001D02*
X149034619Y-122354763D01*
X149034619Y-122354763D02*
X149034619Y-122116668D01*
X149034619Y-122116668D02*
X149082238Y-121973811D01*
X149510809Y-121545239D02*
X149510809Y-121211906D01*
X150034619Y-121069049D02*
X150034619Y-121545239D01*
X150034619Y-121545239D02*
X149034619Y-121545239D01*
X149034619Y-121545239D02*
X149034619Y-121069049D01*
X150034619Y-120069049D02*
X149558428Y-120402382D01*
X150034619Y-120640477D02*
X149034619Y-120640477D01*
X149034619Y-120640477D02*
X149034619Y-120259525D01*
X149034619Y-120259525D02*
X149082238Y-120164287D01*
X149082238Y-120164287D02*
X149129857Y-120116668D01*
X149129857Y-120116668D02*
X149225095Y-120069049D01*
X149225095Y-120069049D02*
X149367952Y-120069049D01*
X149367952Y-120069049D02*
X149463190Y-120116668D01*
X149463190Y-120116668D02*
X149510809Y-120164287D01*
X149510809Y-120164287D02*
X149558428Y-120259525D01*
X149558428Y-120259525D02*
X149558428Y-120640477D01*
X150034619Y-119640477D02*
X149034619Y-119640477D01*
X149748904Y-119211906D02*
X149748904Y-118735716D01*
X150034619Y-119307144D02*
X149034619Y-118973811D01*
X149034619Y-118973811D02*
X150034619Y-118640478D01*
X150034619Y-117830954D02*
X150034619Y-118307144D01*
X150034619Y-118307144D02*
X149034619Y-118307144D01*
X132829541Y-92595819D02*
X133448588Y-92595819D01*
X133448588Y-92595819D02*
X133115255Y-92976771D01*
X133115255Y-92976771D02*
X133258112Y-92976771D01*
X133258112Y-92976771D02*
X133353350Y-93024390D01*
X133353350Y-93024390D02*
X133400969Y-93072009D01*
X133400969Y-93072009D02*
X133448588Y-93167247D01*
X133448588Y-93167247D02*
X133448588Y-93405342D01*
X133448588Y-93405342D02*
X133400969Y-93500580D01*
X133400969Y-93500580D02*
X133353350Y-93548200D01*
X133353350Y-93548200D02*
X133258112Y-93595819D01*
X133258112Y-93595819D02*
X132972398Y-93595819D01*
X132972398Y-93595819D02*
X132877160Y-93548200D01*
X132877160Y-93548200D02*
X132829541Y-93500580D01*
X133877160Y-93500580D02*
X133924779Y-93548200D01*
X133924779Y-93548200D02*
X133877160Y-93595819D01*
X133877160Y-93595819D02*
X133829541Y-93548200D01*
X133829541Y-93548200D02*
X133877160Y-93500580D01*
X133877160Y-93500580D02*
X133877160Y-93595819D01*
X134258112Y-92595819D02*
X134877159Y-92595819D01*
X134877159Y-92595819D02*
X134543826Y-92976771D01*
X134543826Y-92976771D02*
X134686683Y-92976771D01*
X134686683Y-92976771D02*
X134781921Y-93024390D01*
X134781921Y-93024390D02*
X134829540Y-93072009D01*
X134829540Y-93072009D02*
X134877159Y-93167247D01*
X134877159Y-93167247D02*
X134877159Y-93405342D01*
X134877159Y-93405342D02*
X134829540Y-93500580D01*
X134829540Y-93500580D02*
X134781921Y-93548200D01*
X134781921Y-93548200D02*
X134686683Y-93595819D01*
X134686683Y-93595819D02*
X134400969Y-93595819D01*
X134400969Y-93595819D02*
X134305731Y-93548200D01*
X134305731Y-93548200D02*
X134258112Y-93500580D01*
X135162874Y-92595819D02*
X135496207Y-93595819D01*
X135496207Y-93595819D02*
X135829540Y-92595819D01*
X144258819Y-65254094D02*
X143258819Y-65254094D01*
X143258819Y-65254094D02*
X143258819Y-65015999D01*
X143258819Y-65015999D02*
X143306438Y-64873142D01*
X143306438Y-64873142D02*
X143401676Y-64777904D01*
X143401676Y-64777904D02*
X143496914Y-64730285D01*
X143496914Y-64730285D02*
X143687390Y-64682666D01*
X143687390Y-64682666D02*
X143830247Y-64682666D01*
X143830247Y-64682666D02*
X144020723Y-64730285D01*
X144020723Y-64730285D02*
X144115961Y-64777904D01*
X144115961Y-64777904D02*
X144211200Y-64873142D01*
X144211200Y-64873142D02*
X144258819Y-65015999D01*
X144258819Y-65015999D02*
X144258819Y-65254094D01*
X143258819Y-64349332D02*
X143258819Y-63730285D01*
X143258819Y-63730285D02*
X143639771Y-64063618D01*
X143639771Y-64063618D02*
X143639771Y-63920761D01*
X143639771Y-63920761D02*
X143687390Y-63825523D01*
X143687390Y-63825523D02*
X143735009Y-63777904D01*
X143735009Y-63777904D02*
X143830247Y-63730285D01*
X143830247Y-63730285D02*
X144068342Y-63730285D01*
X144068342Y-63730285D02*
X144163580Y-63777904D01*
X144163580Y-63777904D02*
X144211200Y-63825523D01*
X144211200Y-63825523D02*
X144258819Y-63920761D01*
X144258819Y-63920761D02*
X144258819Y-64206475D01*
X144258819Y-64206475D02*
X144211200Y-64301713D01*
X144211200Y-64301713D02*
X144163580Y-64349332D01*
X140719980Y-90816266D02*
X140767600Y-90863885D01*
X140767600Y-90863885D02*
X140815219Y-91006742D01*
X140815219Y-91006742D02*
X140815219Y-91101980D01*
X140815219Y-91101980D02*
X140767600Y-91244837D01*
X140767600Y-91244837D02*
X140672361Y-91340075D01*
X140672361Y-91340075D02*
X140577123Y-91387694D01*
X140577123Y-91387694D02*
X140386647Y-91435313D01*
X140386647Y-91435313D02*
X140243790Y-91435313D01*
X140243790Y-91435313D02*
X140053314Y-91387694D01*
X140053314Y-91387694D02*
X139958076Y-91340075D01*
X139958076Y-91340075D02*
X139862838Y-91244837D01*
X139862838Y-91244837D02*
X139815219Y-91101980D01*
X139815219Y-91101980D02*
X139815219Y-91006742D01*
X139815219Y-91006742D02*
X139862838Y-90863885D01*
X139862838Y-90863885D02*
X139910457Y-90816266D01*
X139815219Y-89911504D02*
X139815219Y-90387694D01*
X139815219Y-90387694D02*
X140291409Y-90435313D01*
X140291409Y-90435313D02*
X140243790Y-90387694D01*
X140243790Y-90387694D02*
X140196171Y-90292456D01*
X140196171Y-90292456D02*
X140196171Y-90054361D01*
X140196171Y-90054361D02*
X140243790Y-89959123D01*
X140243790Y-89959123D02*
X140291409Y-89911504D01*
X140291409Y-89911504D02*
X140386647Y-89863885D01*
X140386647Y-89863885D02*
X140624742Y-89863885D01*
X140624742Y-89863885D02*
X140719980Y-89911504D01*
X140719980Y-89911504D02*
X140767600Y-89959123D01*
X140767600Y-89959123D02*
X140815219Y-90054361D01*
X140815219Y-90054361D02*
X140815219Y-90292456D01*
X140815219Y-90292456D02*
X140767600Y-90387694D01*
X140767600Y-90387694D02*
X140719980Y-90435313D01*
X57620819Y-117986133D02*
X58335104Y-117986133D01*
X58335104Y-117986133D02*
X58477961Y-118033752D01*
X58477961Y-118033752D02*
X58573200Y-118128990D01*
X58573200Y-118128990D02*
X58620819Y-118271847D01*
X58620819Y-118271847D02*
X58620819Y-118367085D01*
X57954152Y-117081371D02*
X58620819Y-117081371D01*
X57573200Y-117319466D02*
X58287485Y-117557561D01*
X58287485Y-117557561D02*
X58287485Y-116938514D01*
X147661333Y-75797580D02*
X147613714Y-75845200D01*
X147613714Y-75845200D02*
X147470857Y-75892819D01*
X147470857Y-75892819D02*
X147375619Y-75892819D01*
X147375619Y-75892819D02*
X147232762Y-75845200D01*
X147232762Y-75845200D02*
X147137524Y-75749961D01*
X147137524Y-75749961D02*
X147089905Y-75654723D01*
X147089905Y-75654723D02*
X147042286Y-75464247D01*
X147042286Y-75464247D02*
X147042286Y-75321390D01*
X147042286Y-75321390D02*
X147089905Y-75130914D01*
X147089905Y-75130914D02*
X147137524Y-75035676D01*
X147137524Y-75035676D02*
X147232762Y-74940438D01*
X147232762Y-74940438D02*
X147375619Y-74892819D01*
X147375619Y-74892819D02*
X147470857Y-74892819D01*
X147470857Y-74892819D02*
X147613714Y-74940438D01*
X147613714Y-74940438D02*
X147661333Y-74988057D01*
X147994667Y-74892819D02*
X148613714Y-74892819D01*
X148613714Y-74892819D02*
X148280381Y-75273771D01*
X148280381Y-75273771D02*
X148423238Y-75273771D01*
X148423238Y-75273771D02*
X148518476Y-75321390D01*
X148518476Y-75321390D02*
X148566095Y-75369009D01*
X148566095Y-75369009D02*
X148613714Y-75464247D01*
X148613714Y-75464247D02*
X148613714Y-75702342D01*
X148613714Y-75702342D02*
X148566095Y-75797580D01*
X148566095Y-75797580D02*
X148518476Y-75845200D01*
X148518476Y-75845200D02*
X148423238Y-75892819D01*
X148423238Y-75892819D02*
X148137524Y-75892819D01*
X148137524Y-75892819D02*
X148042286Y-75845200D01*
X148042286Y-75845200D02*
X147994667Y-75797580D01*
X57578666Y-80226819D02*
X57578666Y-80941104D01*
X57578666Y-80941104D02*
X57531047Y-81083961D01*
X57531047Y-81083961D02*
X57435809Y-81179200D01*
X57435809Y-81179200D02*
X57292952Y-81226819D01*
X57292952Y-81226819D02*
X57197714Y-81226819D01*
X58578666Y-81226819D02*
X58007238Y-81226819D01*
X58292952Y-81226819D02*
X58292952Y-80226819D01*
X58292952Y-80226819D02*
X58197714Y-80369676D01*
X58197714Y-80369676D02*
X58102476Y-80464914D01*
X58102476Y-80464914D02*
X58007238Y-80512533D01*
X73525142Y-89862819D02*
X73191809Y-89386628D01*
X72953714Y-89862819D02*
X72953714Y-88862819D01*
X72953714Y-88862819D02*
X73334666Y-88862819D01*
X73334666Y-88862819D02*
X73429904Y-88910438D01*
X73429904Y-88910438D02*
X73477523Y-88958057D01*
X73477523Y-88958057D02*
X73525142Y-89053295D01*
X73525142Y-89053295D02*
X73525142Y-89196152D01*
X73525142Y-89196152D02*
X73477523Y-89291390D01*
X73477523Y-89291390D02*
X73429904Y-89339009D01*
X73429904Y-89339009D02*
X73334666Y-89386628D01*
X73334666Y-89386628D02*
X72953714Y-89386628D01*
X74477523Y-89862819D02*
X73906095Y-89862819D01*
X74191809Y-89862819D02*
X74191809Y-88862819D01*
X74191809Y-88862819D02*
X74096571Y-89005676D01*
X74096571Y-89005676D02*
X74001333Y-89100914D01*
X74001333Y-89100914D02*
X73906095Y-89148533D01*
X74858476Y-88958057D02*
X74906095Y-88910438D01*
X74906095Y-88910438D02*
X75001333Y-88862819D01*
X75001333Y-88862819D02*
X75239428Y-88862819D01*
X75239428Y-88862819D02*
X75334666Y-88910438D01*
X75334666Y-88910438D02*
X75382285Y-88958057D01*
X75382285Y-88958057D02*
X75429904Y-89053295D01*
X75429904Y-89053295D02*
X75429904Y-89148533D01*
X75429904Y-89148533D02*
X75382285Y-89291390D01*
X75382285Y-89291390D02*
X74810857Y-89862819D01*
X74810857Y-89862819D02*
X75429904Y-89862819D01*
X63365142Y-89862819D02*
X63031809Y-89386628D01*
X62793714Y-89862819D02*
X62793714Y-88862819D01*
X62793714Y-88862819D02*
X63174666Y-88862819D01*
X63174666Y-88862819D02*
X63269904Y-88910438D01*
X63269904Y-88910438D02*
X63317523Y-88958057D01*
X63317523Y-88958057D02*
X63365142Y-89053295D01*
X63365142Y-89053295D02*
X63365142Y-89196152D01*
X63365142Y-89196152D02*
X63317523Y-89291390D01*
X63317523Y-89291390D02*
X63269904Y-89339009D01*
X63269904Y-89339009D02*
X63174666Y-89386628D01*
X63174666Y-89386628D02*
X62793714Y-89386628D01*
X64317523Y-89862819D02*
X63746095Y-89862819D01*
X64031809Y-89862819D02*
X64031809Y-88862819D01*
X64031809Y-88862819D02*
X63936571Y-89005676D01*
X63936571Y-89005676D02*
X63841333Y-89100914D01*
X63841333Y-89100914D02*
X63746095Y-89148533D01*
X64650857Y-88862819D02*
X65269904Y-88862819D01*
X65269904Y-88862819D02*
X64936571Y-89243771D01*
X64936571Y-89243771D02*
X65079428Y-89243771D01*
X65079428Y-89243771D02*
X65174666Y-89291390D01*
X65174666Y-89291390D02*
X65222285Y-89339009D01*
X65222285Y-89339009D02*
X65269904Y-89434247D01*
X65269904Y-89434247D02*
X65269904Y-89672342D01*
X65269904Y-89672342D02*
X65222285Y-89767580D01*
X65222285Y-89767580D02*
X65174666Y-89815200D01*
X65174666Y-89815200D02*
X65079428Y-89862819D01*
X65079428Y-89862819D02*
X64793714Y-89862819D01*
X64793714Y-89862819D02*
X64698476Y-89815200D01*
X64698476Y-89815200D02*
X64650857Y-89767580D01*
X71747142Y-82242819D02*
X71413809Y-81766628D01*
X71175714Y-82242819D02*
X71175714Y-81242819D01*
X71175714Y-81242819D02*
X71556666Y-81242819D01*
X71556666Y-81242819D02*
X71651904Y-81290438D01*
X71651904Y-81290438D02*
X71699523Y-81338057D01*
X71699523Y-81338057D02*
X71747142Y-81433295D01*
X71747142Y-81433295D02*
X71747142Y-81576152D01*
X71747142Y-81576152D02*
X71699523Y-81671390D01*
X71699523Y-81671390D02*
X71651904Y-81719009D01*
X71651904Y-81719009D02*
X71556666Y-81766628D01*
X71556666Y-81766628D02*
X71175714Y-81766628D01*
X72699523Y-82242819D02*
X72128095Y-82242819D01*
X72413809Y-82242819D02*
X72413809Y-81242819D01*
X72413809Y-81242819D02*
X72318571Y-81385676D01*
X72318571Y-81385676D02*
X72223333Y-81480914D01*
X72223333Y-81480914D02*
X72128095Y-81528533D01*
X73651904Y-82242819D02*
X73080476Y-82242819D01*
X73366190Y-82242819D02*
X73366190Y-81242819D01*
X73366190Y-81242819D02*
X73270952Y-81385676D01*
X73270952Y-81385676D02*
X73175714Y-81480914D01*
X73175714Y-81480914D02*
X73080476Y-81528533D01*
X117721142Y-93831580D02*
X117673523Y-93879200D01*
X117673523Y-93879200D02*
X117530666Y-93926819D01*
X117530666Y-93926819D02*
X117435428Y-93926819D01*
X117435428Y-93926819D02*
X117292571Y-93879200D01*
X117292571Y-93879200D02*
X117197333Y-93783961D01*
X117197333Y-93783961D02*
X117149714Y-93688723D01*
X117149714Y-93688723D02*
X117102095Y-93498247D01*
X117102095Y-93498247D02*
X117102095Y-93355390D01*
X117102095Y-93355390D02*
X117149714Y-93164914D01*
X117149714Y-93164914D02*
X117197333Y-93069676D01*
X117197333Y-93069676D02*
X117292571Y-92974438D01*
X117292571Y-92974438D02*
X117435428Y-92926819D01*
X117435428Y-92926819D02*
X117530666Y-92926819D01*
X117530666Y-92926819D02*
X117673523Y-92974438D01*
X117673523Y-92974438D02*
X117721142Y-93022057D01*
X118673523Y-93926819D02*
X118102095Y-93926819D01*
X118387809Y-93926819D02*
X118387809Y-92926819D01*
X118387809Y-92926819D02*
X118292571Y-93069676D01*
X118292571Y-93069676D02*
X118197333Y-93164914D01*
X118197333Y-93164914D02*
X118102095Y-93212533D01*
X119244952Y-93355390D02*
X119149714Y-93307771D01*
X119149714Y-93307771D02*
X119102095Y-93260152D01*
X119102095Y-93260152D02*
X119054476Y-93164914D01*
X119054476Y-93164914D02*
X119054476Y-93117295D01*
X119054476Y-93117295D02*
X119102095Y-93022057D01*
X119102095Y-93022057D02*
X119149714Y-92974438D01*
X119149714Y-92974438D02*
X119244952Y-92926819D01*
X119244952Y-92926819D02*
X119435428Y-92926819D01*
X119435428Y-92926819D02*
X119530666Y-92974438D01*
X119530666Y-92974438D02*
X119578285Y-93022057D01*
X119578285Y-93022057D02*
X119625904Y-93117295D01*
X119625904Y-93117295D02*
X119625904Y-93164914D01*
X119625904Y-93164914D02*
X119578285Y-93260152D01*
X119578285Y-93260152D02*
X119530666Y-93307771D01*
X119530666Y-93307771D02*
X119435428Y-93355390D01*
X119435428Y-93355390D02*
X119244952Y-93355390D01*
X119244952Y-93355390D02*
X119149714Y-93403009D01*
X119149714Y-93403009D02*
X119102095Y-93450628D01*
X119102095Y-93450628D02*
X119054476Y-93545866D01*
X119054476Y-93545866D02*
X119054476Y-93736342D01*
X119054476Y-93736342D02*
X119102095Y-93831580D01*
X119102095Y-93831580D02*
X119149714Y-93879200D01*
X119149714Y-93879200D02*
X119244952Y-93926819D01*
X119244952Y-93926819D02*
X119435428Y-93926819D01*
X119435428Y-93926819D02*
X119530666Y-93879200D01*
X119530666Y-93879200D02*
X119578285Y-93831580D01*
X119578285Y-93831580D02*
X119625904Y-93736342D01*
X119625904Y-93736342D02*
X119625904Y-93545866D01*
X119625904Y-93545866D02*
X119578285Y-93450628D01*
X119578285Y-93450628D02*
X119530666Y-93403009D01*
X119530666Y-93403009D02*
X119435428Y-93355390D01*
X110101142Y-77194580D02*
X110053523Y-77242200D01*
X110053523Y-77242200D02*
X109910666Y-77289819D01*
X109910666Y-77289819D02*
X109815428Y-77289819D01*
X109815428Y-77289819D02*
X109672571Y-77242200D01*
X109672571Y-77242200D02*
X109577333Y-77146961D01*
X109577333Y-77146961D02*
X109529714Y-77051723D01*
X109529714Y-77051723D02*
X109482095Y-76861247D01*
X109482095Y-76861247D02*
X109482095Y-76718390D01*
X109482095Y-76718390D02*
X109529714Y-76527914D01*
X109529714Y-76527914D02*
X109577333Y-76432676D01*
X109577333Y-76432676D02*
X109672571Y-76337438D01*
X109672571Y-76337438D02*
X109815428Y-76289819D01*
X109815428Y-76289819D02*
X109910666Y-76289819D01*
X109910666Y-76289819D02*
X110053523Y-76337438D01*
X110053523Y-76337438D02*
X110101142Y-76385057D01*
X111053523Y-77289819D02*
X110482095Y-77289819D01*
X110767809Y-77289819D02*
X110767809Y-76289819D01*
X110767809Y-76289819D02*
X110672571Y-76432676D01*
X110672571Y-76432676D02*
X110577333Y-76527914D01*
X110577333Y-76527914D02*
X110482095Y-76575533D01*
X111434476Y-76385057D02*
X111482095Y-76337438D01*
X111482095Y-76337438D02*
X111577333Y-76289819D01*
X111577333Y-76289819D02*
X111815428Y-76289819D01*
X111815428Y-76289819D02*
X111910666Y-76337438D01*
X111910666Y-76337438D02*
X111958285Y-76385057D01*
X111958285Y-76385057D02*
X112005904Y-76480295D01*
X112005904Y-76480295D02*
X112005904Y-76575533D01*
X112005904Y-76575533D02*
X111958285Y-76718390D01*
X111958285Y-76718390D02*
X111386857Y-77289819D01*
X111386857Y-77289819D02*
X112005904Y-77289819D01*
X93260342Y-91705580D02*
X93212723Y-91753200D01*
X93212723Y-91753200D02*
X93069866Y-91800819D01*
X93069866Y-91800819D02*
X92974628Y-91800819D01*
X92974628Y-91800819D02*
X92831771Y-91753200D01*
X92831771Y-91753200D02*
X92736533Y-91657961D01*
X92736533Y-91657961D02*
X92688914Y-91562723D01*
X92688914Y-91562723D02*
X92641295Y-91372247D01*
X92641295Y-91372247D02*
X92641295Y-91229390D01*
X92641295Y-91229390D02*
X92688914Y-91038914D01*
X92688914Y-91038914D02*
X92736533Y-90943676D01*
X92736533Y-90943676D02*
X92831771Y-90848438D01*
X92831771Y-90848438D02*
X92974628Y-90800819D01*
X92974628Y-90800819D02*
X93069866Y-90800819D01*
X93069866Y-90800819D02*
X93212723Y-90848438D01*
X93212723Y-90848438D02*
X93260342Y-90896057D01*
X94212723Y-91800819D02*
X93641295Y-91800819D01*
X93927009Y-91800819D02*
X93927009Y-90800819D01*
X93927009Y-90800819D02*
X93831771Y-90943676D01*
X93831771Y-90943676D02*
X93736533Y-91038914D01*
X93736533Y-91038914D02*
X93641295Y-91086533D01*
X94546057Y-90800819D02*
X95212723Y-90800819D01*
X95212723Y-90800819D02*
X94784152Y-91800819D01*
X117721142Y-88751580D02*
X117673523Y-88799200D01*
X117673523Y-88799200D02*
X117530666Y-88846819D01*
X117530666Y-88846819D02*
X117435428Y-88846819D01*
X117435428Y-88846819D02*
X117292571Y-88799200D01*
X117292571Y-88799200D02*
X117197333Y-88703961D01*
X117197333Y-88703961D02*
X117149714Y-88608723D01*
X117149714Y-88608723D02*
X117102095Y-88418247D01*
X117102095Y-88418247D02*
X117102095Y-88275390D01*
X117102095Y-88275390D02*
X117149714Y-88084914D01*
X117149714Y-88084914D02*
X117197333Y-87989676D01*
X117197333Y-87989676D02*
X117292571Y-87894438D01*
X117292571Y-87894438D02*
X117435428Y-87846819D01*
X117435428Y-87846819D02*
X117530666Y-87846819D01*
X117530666Y-87846819D02*
X117673523Y-87894438D01*
X117673523Y-87894438D02*
X117721142Y-87942057D01*
X118673523Y-88846819D02*
X118102095Y-88846819D01*
X118387809Y-88846819D02*
X118387809Y-87846819D01*
X118387809Y-87846819D02*
X118292571Y-87989676D01*
X118292571Y-87989676D02*
X118197333Y-88084914D01*
X118197333Y-88084914D02*
X118102095Y-88132533D01*
X119530666Y-87846819D02*
X119340190Y-87846819D01*
X119340190Y-87846819D02*
X119244952Y-87894438D01*
X119244952Y-87894438D02*
X119197333Y-87942057D01*
X119197333Y-87942057D02*
X119102095Y-88084914D01*
X119102095Y-88084914D02*
X119054476Y-88275390D01*
X119054476Y-88275390D02*
X119054476Y-88656342D01*
X119054476Y-88656342D02*
X119102095Y-88751580D01*
X119102095Y-88751580D02*
X119149714Y-88799200D01*
X119149714Y-88799200D02*
X119244952Y-88846819D01*
X119244952Y-88846819D02*
X119435428Y-88846819D01*
X119435428Y-88846819D02*
X119530666Y-88799200D01*
X119530666Y-88799200D02*
X119578285Y-88751580D01*
X119578285Y-88751580D02*
X119625904Y-88656342D01*
X119625904Y-88656342D02*
X119625904Y-88418247D01*
X119625904Y-88418247D02*
X119578285Y-88323009D01*
X119578285Y-88323009D02*
X119530666Y-88275390D01*
X119530666Y-88275390D02*
X119435428Y-88227771D01*
X119435428Y-88227771D02*
X119244952Y-88227771D01*
X119244952Y-88227771D02*
X119149714Y-88275390D01*
X119149714Y-88275390D02*
X119102095Y-88323009D01*
X119102095Y-88323009D02*
X119054476Y-88418247D01*
X92067142Y-86719580D02*
X92019523Y-86767200D01*
X92019523Y-86767200D02*
X91876666Y-86814819D01*
X91876666Y-86814819D02*
X91781428Y-86814819D01*
X91781428Y-86814819D02*
X91638571Y-86767200D01*
X91638571Y-86767200D02*
X91543333Y-86671961D01*
X91543333Y-86671961D02*
X91495714Y-86576723D01*
X91495714Y-86576723D02*
X91448095Y-86386247D01*
X91448095Y-86386247D02*
X91448095Y-86243390D01*
X91448095Y-86243390D02*
X91495714Y-86052914D01*
X91495714Y-86052914D02*
X91543333Y-85957676D01*
X91543333Y-85957676D02*
X91638571Y-85862438D01*
X91638571Y-85862438D02*
X91781428Y-85814819D01*
X91781428Y-85814819D02*
X91876666Y-85814819D01*
X91876666Y-85814819D02*
X92019523Y-85862438D01*
X92019523Y-85862438D02*
X92067142Y-85910057D01*
X93019523Y-86814819D02*
X92448095Y-86814819D01*
X92733809Y-86814819D02*
X92733809Y-85814819D01*
X92733809Y-85814819D02*
X92638571Y-85957676D01*
X92638571Y-85957676D02*
X92543333Y-86052914D01*
X92543333Y-86052914D02*
X92448095Y-86100533D01*
X93876666Y-86148152D02*
X93876666Y-86814819D01*
X93638571Y-85767200D02*
X93400476Y-86481485D01*
X93400476Y-86481485D02*
X94019523Y-86481485D01*
X144678095Y-107840819D02*
X144678095Y-108650342D01*
X144678095Y-108650342D02*
X144725714Y-108745580D01*
X144725714Y-108745580D02*
X144773333Y-108793200D01*
X144773333Y-108793200D02*
X144868571Y-108840819D01*
X144868571Y-108840819D02*
X145059047Y-108840819D01*
X145059047Y-108840819D02*
X145154285Y-108793200D01*
X145154285Y-108793200D02*
X145201904Y-108745580D01*
X145201904Y-108745580D02*
X145249523Y-108650342D01*
X145249523Y-108650342D02*
X145249523Y-107840819D01*
X145630476Y-107840819D02*
X146297142Y-107840819D01*
X146297142Y-107840819D02*
X145868571Y-108840819D01*
X138066819Y-93573904D02*
X138876342Y-93573904D01*
X138876342Y-93573904D02*
X138971580Y-93526285D01*
X138971580Y-93526285D02*
X139019200Y-93478666D01*
X139019200Y-93478666D02*
X139066819Y-93383428D01*
X139066819Y-93383428D02*
X139066819Y-93192952D01*
X139066819Y-93192952D02*
X139019200Y-93097714D01*
X139019200Y-93097714D02*
X138971580Y-93050095D01*
X138971580Y-93050095D02*
X138876342Y-93002476D01*
X138876342Y-93002476D02*
X138066819Y-93002476D01*
X138495390Y-92383428D02*
X138447771Y-92478666D01*
X138447771Y-92478666D02*
X138400152Y-92526285D01*
X138400152Y-92526285D02*
X138304914Y-92573904D01*
X138304914Y-92573904D02*
X138257295Y-92573904D01*
X138257295Y-92573904D02*
X138162057Y-92526285D01*
X138162057Y-92526285D02*
X138114438Y-92478666D01*
X138114438Y-92478666D02*
X138066819Y-92383428D01*
X138066819Y-92383428D02*
X138066819Y-92192952D01*
X138066819Y-92192952D02*
X138114438Y-92097714D01*
X138114438Y-92097714D02*
X138162057Y-92050095D01*
X138162057Y-92050095D02*
X138257295Y-92002476D01*
X138257295Y-92002476D02*
X138304914Y-92002476D01*
X138304914Y-92002476D02*
X138400152Y-92050095D01*
X138400152Y-92050095D02*
X138447771Y-92097714D01*
X138447771Y-92097714D02*
X138495390Y-92192952D01*
X138495390Y-92192952D02*
X138495390Y-92383428D01*
X138495390Y-92383428D02*
X138543009Y-92478666D01*
X138543009Y-92478666D02*
X138590628Y-92526285D01*
X138590628Y-92526285D02*
X138685866Y-92573904D01*
X138685866Y-92573904D02*
X138876342Y-92573904D01*
X138876342Y-92573904D02*
X138971580Y-92526285D01*
X138971580Y-92526285D02*
X139019200Y-92478666D01*
X139019200Y-92478666D02*
X139066819Y-92383428D01*
X139066819Y-92383428D02*
X139066819Y-92192952D01*
X139066819Y-92192952D02*
X139019200Y-92097714D01*
X139019200Y-92097714D02*
X138971580Y-92050095D01*
X138971580Y-92050095D02*
X138876342Y-92002476D01*
X138876342Y-92002476D02*
X138685866Y-92002476D01*
X138685866Y-92002476D02*
X138590628Y-92050095D01*
X138590628Y-92050095D02*
X138543009Y-92097714D01*
X138543009Y-92097714D02*
X138495390Y-92192952D01*
X141583580Y-100730066D02*
X141631200Y-100777685D01*
X141631200Y-100777685D02*
X141678819Y-100920542D01*
X141678819Y-100920542D02*
X141678819Y-101015780D01*
X141678819Y-101015780D02*
X141631200Y-101158637D01*
X141631200Y-101158637D02*
X141535961Y-101253875D01*
X141535961Y-101253875D02*
X141440723Y-101301494D01*
X141440723Y-101301494D02*
X141250247Y-101349113D01*
X141250247Y-101349113D02*
X141107390Y-101349113D01*
X141107390Y-101349113D02*
X140916914Y-101301494D01*
X140916914Y-101301494D02*
X140821676Y-101253875D01*
X140821676Y-101253875D02*
X140726438Y-101158637D01*
X140726438Y-101158637D02*
X140678819Y-101015780D01*
X140678819Y-101015780D02*
X140678819Y-100920542D01*
X140678819Y-100920542D02*
X140726438Y-100777685D01*
X140726438Y-100777685D02*
X140774057Y-100730066D01*
X141107390Y-100158637D02*
X141059771Y-100253875D01*
X141059771Y-100253875D02*
X141012152Y-100301494D01*
X141012152Y-100301494D02*
X140916914Y-100349113D01*
X140916914Y-100349113D02*
X140869295Y-100349113D01*
X140869295Y-100349113D02*
X140774057Y-100301494D01*
X140774057Y-100301494D02*
X140726438Y-100253875D01*
X140726438Y-100253875D02*
X140678819Y-100158637D01*
X140678819Y-100158637D02*
X140678819Y-99968161D01*
X140678819Y-99968161D02*
X140726438Y-99872923D01*
X140726438Y-99872923D02*
X140774057Y-99825304D01*
X140774057Y-99825304D02*
X140869295Y-99777685D01*
X140869295Y-99777685D02*
X140916914Y-99777685D01*
X140916914Y-99777685D02*
X141012152Y-99825304D01*
X141012152Y-99825304D02*
X141059771Y-99872923D01*
X141059771Y-99872923D02*
X141107390Y-99968161D01*
X141107390Y-99968161D02*
X141107390Y-100158637D01*
X141107390Y-100158637D02*
X141155009Y-100253875D01*
X141155009Y-100253875D02*
X141202628Y-100301494D01*
X141202628Y-100301494D02*
X141297866Y-100349113D01*
X141297866Y-100349113D02*
X141488342Y-100349113D01*
X141488342Y-100349113D02*
X141583580Y-100301494D01*
X141583580Y-100301494D02*
X141631200Y-100253875D01*
X141631200Y-100253875D02*
X141678819Y-100158637D01*
X141678819Y-100158637D02*
X141678819Y-99968161D01*
X141678819Y-99968161D02*
X141631200Y-99872923D01*
X141631200Y-99872923D02*
X141583580Y-99825304D01*
X141583580Y-99825304D02*
X141488342Y-99777685D01*
X141488342Y-99777685D02*
X141297866Y-99777685D01*
X141297866Y-99777685D02*
X141202628Y-99825304D01*
X141202628Y-99825304D02*
X141155009Y-99872923D01*
X141155009Y-99872923D02*
X141107390Y-99968161D01*
X132675333Y-100435580D02*
X132627714Y-100483200D01*
X132627714Y-100483200D02*
X132484857Y-100530819D01*
X132484857Y-100530819D02*
X132389619Y-100530819D01*
X132389619Y-100530819D02*
X132246762Y-100483200D01*
X132246762Y-100483200D02*
X132151524Y-100387961D01*
X132151524Y-100387961D02*
X132103905Y-100292723D01*
X132103905Y-100292723D02*
X132056286Y-100102247D01*
X132056286Y-100102247D02*
X132056286Y-99959390D01*
X132056286Y-99959390D02*
X132103905Y-99768914D01*
X132103905Y-99768914D02*
X132151524Y-99673676D01*
X132151524Y-99673676D02*
X132246762Y-99578438D01*
X132246762Y-99578438D02*
X132389619Y-99530819D01*
X132389619Y-99530819D02*
X132484857Y-99530819D01*
X132484857Y-99530819D02*
X132627714Y-99578438D01*
X132627714Y-99578438D02*
X132675333Y-99626057D01*
X133151524Y-100530819D02*
X133342000Y-100530819D01*
X133342000Y-100530819D02*
X133437238Y-100483200D01*
X133437238Y-100483200D02*
X133484857Y-100435580D01*
X133484857Y-100435580D02*
X133580095Y-100292723D01*
X133580095Y-100292723D02*
X133627714Y-100102247D01*
X133627714Y-100102247D02*
X133627714Y-99721295D01*
X133627714Y-99721295D02*
X133580095Y-99626057D01*
X133580095Y-99626057D02*
X133532476Y-99578438D01*
X133532476Y-99578438D02*
X133437238Y-99530819D01*
X133437238Y-99530819D02*
X133246762Y-99530819D01*
X133246762Y-99530819D02*
X133151524Y-99578438D01*
X133151524Y-99578438D02*
X133103905Y-99626057D01*
X133103905Y-99626057D02*
X133056286Y-99721295D01*
X133056286Y-99721295D02*
X133056286Y-99959390D01*
X133056286Y-99959390D02*
X133103905Y-100054628D01*
X133103905Y-100054628D02*
X133151524Y-100102247D01*
X133151524Y-100102247D02*
X133246762Y-100149866D01*
X133246762Y-100149866D02*
X133437238Y-100149866D01*
X133437238Y-100149866D02*
X133532476Y-100102247D01*
X133532476Y-100102247D02*
X133580095Y-100054628D01*
X133580095Y-100054628D02*
X133627714Y-99959390D01*
X74909419Y-95321304D02*
X75718942Y-95321304D01*
X75718942Y-95321304D02*
X75814180Y-95273685D01*
X75814180Y-95273685D02*
X75861800Y-95226066D01*
X75861800Y-95226066D02*
X75909419Y-95130828D01*
X75909419Y-95130828D02*
X75909419Y-94940352D01*
X75909419Y-94940352D02*
X75861800Y-94845114D01*
X75861800Y-94845114D02*
X75814180Y-94797495D01*
X75814180Y-94797495D02*
X75718942Y-94749876D01*
X75718942Y-94749876D02*
X74909419Y-94749876D01*
X75242752Y-93845114D02*
X75909419Y-93845114D01*
X74861800Y-94083209D02*
X75576085Y-94321304D01*
X75576085Y-94321304D02*
X75576085Y-93702257D01*
X101146780Y-103030157D02*
X101194400Y-103077776D01*
X101194400Y-103077776D02*
X101242019Y-103220633D01*
X101242019Y-103220633D02*
X101242019Y-103315871D01*
X101242019Y-103315871D02*
X101194400Y-103458728D01*
X101194400Y-103458728D02*
X101099161Y-103553966D01*
X101099161Y-103553966D02*
X101003923Y-103601585D01*
X101003923Y-103601585D02*
X100813447Y-103649204D01*
X100813447Y-103649204D02*
X100670590Y-103649204D01*
X100670590Y-103649204D02*
X100480114Y-103601585D01*
X100480114Y-103601585D02*
X100384876Y-103553966D01*
X100384876Y-103553966D02*
X100289638Y-103458728D01*
X100289638Y-103458728D02*
X100242019Y-103315871D01*
X100242019Y-103315871D02*
X100242019Y-103220633D01*
X100242019Y-103220633D02*
X100289638Y-103077776D01*
X100289638Y-103077776D02*
X100337257Y-103030157D01*
X101242019Y-102077776D02*
X101242019Y-102649204D01*
X101242019Y-102363490D02*
X100242019Y-102363490D01*
X100242019Y-102363490D02*
X100384876Y-102458728D01*
X100384876Y-102458728D02*
X100480114Y-102553966D01*
X100480114Y-102553966D02*
X100527733Y-102649204D01*
X100242019Y-101173014D02*
X100242019Y-101649204D01*
X100242019Y-101649204D02*
X100718209Y-101696823D01*
X100718209Y-101696823D02*
X100670590Y-101649204D01*
X100670590Y-101649204D02*
X100622971Y-101553966D01*
X100622971Y-101553966D02*
X100622971Y-101315871D01*
X100622971Y-101315871D02*
X100670590Y-101220633D01*
X100670590Y-101220633D02*
X100718209Y-101173014D01*
X100718209Y-101173014D02*
X100813447Y-101125395D01*
X100813447Y-101125395D02*
X101051542Y-101125395D01*
X101051542Y-101125395D02*
X101146780Y-101173014D01*
X101146780Y-101173014D02*
X101194400Y-101220633D01*
X101194400Y-101220633D02*
X101242019Y-101315871D01*
X101242019Y-101315871D02*
X101242019Y-101553966D01*
X101242019Y-101553966D02*
X101194400Y-101649204D01*
X101194400Y-101649204D02*
X101146780Y-101696823D01*
X131626819Y-62241333D02*
X132341104Y-62241333D01*
X132341104Y-62241333D02*
X132483961Y-62288952D01*
X132483961Y-62288952D02*
X132579200Y-62384190D01*
X132579200Y-62384190D02*
X132626819Y-62527047D01*
X132626819Y-62527047D02*
X132626819Y-62622285D01*
X131626819Y-61288952D02*
X131626819Y-61765142D01*
X131626819Y-61765142D02*
X132103009Y-61812761D01*
X132103009Y-61812761D02*
X132055390Y-61765142D01*
X132055390Y-61765142D02*
X132007771Y-61669904D01*
X132007771Y-61669904D02*
X132007771Y-61431809D01*
X132007771Y-61431809D02*
X132055390Y-61336571D01*
X132055390Y-61336571D02*
X132103009Y-61288952D01*
X132103009Y-61288952D02*
X132198247Y-61241333D01*
X132198247Y-61241333D02*
X132436342Y-61241333D01*
X132436342Y-61241333D02*
X132531580Y-61288952D01*
X132531580Y-61288952D02*
X132579200Y-61336571D01*
X132579200Y-61336571D02*
X132626819Y-61431809D01*
X132626819Y-61431809D02*
X132626819Y-61669904D01*
X132626819Y-61669904D02*
X132579200Y-61765142D01*
X132579200Y-61765142D02*
X132531580Y-61812761D01*
X135958342Y-113592780D02*
X135910723Y-113640400D01*
X135910723Y-113640400D02*
X135767866Y-113688019D01*
X135767866Y-113688019D02*
X135672628Y-113688019D01*
X135672628Y-113688019D02*
X135529771Y-113640400D01*
X135529771Y-113640400D02*
X135434533Y-113545161D01*
X135434533Y-113545161D02*
X135386914Y-113449923D01*
X135386914Y-113449923D02*
X135339295Y-113259447D01*
X135339295Y-113259447D02*
X135339295Y-113116590D01*
X135339295Y-113116590D02*
X135386914Y-112926114D01*
X135386914Y-112926114D02*
X135434533Y-112830876D01*
X135434533Y-112830876D02*
X135529771Y-112735638D01*
X135529771Y-112735638D02*
X135672628Y-112688019D01*
X135672628Y-112688019D02*
X135767866Y-112688019D01*
X135767866Y-112688019D02*
X135910723Y-112735638D01*
X135910723Y-112735638D02*
X135958342Y-112783257D01*
X136339295Y-112783257D02*
X136386914Y-112735638D01*
X136386914Y-112735638D02*
X136482152Y-112688019D01*
X136482152Y-112688019D02*
X136720247Y-112688019D01*
X136720247Y-112688019D02*
X136815485Y-112735638D01*
X136815485Y-112735638D02*
X136863104Y-112783257D01*
X136863104Y-112783257D02*
X136910723Y-112878495D01*
X136910723Y-112878495D02*
X136910723Y-112973733D01*
X136910723Y-112973733D02*
X136863104Y-113116590D01*
X136863104Y-113116590D02*
X136291676Y-113688019D01*
X136291676Y-113688019D02*
X136910723Y-113688019D01*
X137863104Y-113688019D02*
X137291676Y-113688019D01*
X137577390Y-113688019D02*
X137577390Y-112688019D01*
X137577390Y-112688019D02*
X137482152Y-112830876D01*
X137482152Y-112830876D02*
X137386914Y-112926114D01*
X137386914Y-112926114D02*
X137291676Y-112973733D01*
X78591580Y-84716857D02*
X78639200Y-84764476D01*
X78639200Y-84764476D02*
X78686819Y-84907333D01*
X78686819Y-84907333D02*
X78686819Y-85002571D01*
X78686819Y-85002571D02*
X78639200Y-85145428D01*
X78639200Y-85145428D02*
X78543961Y-85240666D01*
X78543961Y-85240666D02*
X78448723Y-85288285D01*
X78448723Y-85288285D02*
X78258247Y-85335904D01*
X78258247Y-85335904D02*
X78115390Y-85335904D01*
X78115390Y-85335904D02*
X77924914Y-85288285D01*
X77924914Y-85288285D02*
X77829676Y-85240666D01*
X77829676Y-85240666D02*
X77734438Y-85145428D01*
X77734438Y-85145428D02*
X77686819Y-85002571D01*
X77686819Y-85002571D02*
X77686819Y-84907333D01*
X77686819Y-84907333D02*
X77734438Y-84764476D01*
X77734438Y-84764476D02*
X77782057Y-84716857D01*
X78686819Y-83764476D02*
X78686819Y-84335904D01*
X78686819Y-84050190D02*
X77686819Y-84050190D01*
X77686819Y-84050190D02*
X77829676Y-84145428D01*
X77829676Y-84145428D02*
X77924914Y-84240666D01*
X77924914Y-84240666D02*
X77972533Y-84335904D01*
X78686819Y-83288285D02*
X78686819Y-83097809D01*
X78686819Y-83097809D02*
X78639200Y-83002571D01*
X78639200Y-83002571D02*
X78591580Y-82954952D01*
X78591580Y-82954952D02*
X78448723Y-82859714D01*
X78448723Y-82859714D02*
X78258247Y-82812095D01*
X78258247Y-82812095D02*
X77877295Y-82812095D01*
X77877295Y-82812095D02*
X77782057Y-82859714D01*
X77782057Y-82859714D02*
X77734438Y-82907333D01*
X77734438Y-82907333D02*
X77686819Y-83002571D01*
X77686819Y-83002571D02*
X77686819Y-83193047D01*
X77686819Y-83193047D02*
X77734438Y-83288285D01*
X77734438Y-83288285D02*
X77782057Y-83335904D01*
X77782057Y-83335904D02*
X77877295Y-83383523D01*
X77877295Y-83383523D02*
X78115390Y-83383523D01*
X78115390Y-83383523D02*
X78210628Y-83335904D01*
X78210628Y-83335904D02*
X78258247Y-83288285D01*
X78258247Y-83288285D02*
X78305866Y-83193047D01*
X78305866Y-83193047D02*
X78305866Y-83002571D01*
X78305866Y-83002571D02*
X78258247Y-82907333D01*
X78258247Y-82907333D02*
X78210628Y-82859714D01*
X78210628Y-82859714D02*
X78115390Y-82812095D01*
X105410095Y-80020819D02*
X105410095Y-80830342D01*
X105410095Y-80830342D02*
X105457714Y-80925580D01*
X105457714Y-80925580D02*
X105505333Y-80973200D01*
X105505333Y-80973200D02*
X105600571Y-81020819D01*
X105600571Y-81020819D02*
X105791047Y-81020819D01*
X105791047Y-81020819D02*
X105886285Y-80973200D01*
X105886285Y-80973200D02*
X105933904Y-80925580D01*
X105933904Y-80925580D02*
X105981523Y-80830342D01*
X105981523Y-80830342D02*
X105981523Y-80020819D01*
X106505333Y-81020819D02*
X106695809Y-81020819D01*
X106695809Y-81020819D02*
X106791047Y-80973200D01*
X106791047Y-80973200D02*
X106838666Y-80925580D01*
X106838666Y-80925580D02*
X106933904Y-80782723D01*
X106933904Y-80782723D02*
X106981523Y-80592247D01*
X106981523Y-80592247D02*
X106981523Y-80211295D01*
X106981523Y-80211295D02*
X106933904Y-80116057D01*
X106933904Y-80116057D02*
X106886285Y-80068438D01*
X106886285Y-80068438D02*
X106791047Y-80020819D01*
X106791047Y-80020819D02*
X106600571Y-80020819D01*
X106600571Y-80020819D02*
X106505333Y-80068438D01*
X106505333Y-80068438D02*
X106457714Y-80116057D01*
X106457714Y-80116057D02*
X106410095Y-80211295D01*
X106410095Y-80211295D02*
X106410095Y-80449390D01*
X106410095Y-80449390D02*
X106457714Y-80544628D01*
X106457714Y-80544628D02*
X106505333Y-80592247D01*
X106505333Y-80592247D02*
X106600571Y-80639866D01*
X106600571Y-80639866D02*
X106791047Y-80639866D01*
X106791047Y-80639866D02*
X106886285Y-80592247D01*
X106886285Y-80592247D02*
X106933904Y-80544628D01*
X106933904Y-80544628D02*
X106981523Y-80449390D01*
X129794095Y-103594819D02*
X129794095Y-104404342D01*
X129794095Y-104404342D02*
X129841714Y-104499580D01*
X129841714Y-104499580D02*
X129889333Y-104547200D01*
X129889333Y-104547200D02*
X129984571Y-104594819D01*
X129984571Y-104594819D02*
X130175047Y-104594819D01*
X130175047Y-104594819D02*
X130270285Y-104547200D01*
X130270285Y-104547200D02*
X130317904Y-104499580D01*
X130317904Y-104499580D02*
X130365523Y-104404342D01*
X130365523Y-104404342D02*
X130365523Y-103594819D01*
X131317904Y-103594819D02*
X130841714Y-103594819D01*
X130841714Y-103594819D02*
X130794095Y-104071009D01*
X130794095Y-104071009D02*
X130841714Y-104023390D01*
X130841714Y-104023390D02*
X130936952Y-103975771D01*
X130936952Y-103975771D02*
X131175047Y-103975771D01*
X131175047Y-103975771D02*
X131270285Y-104023390D01*
X131270285Y-104023390D02*
X131317904Y-104071009D01*
X131317904Y-104071009D02*
X131365523Y-104166247D01*
X131365523Y-104166247D02*
X131365523Y-104404342D01*
X131365523Y-104404342D02*
X131317904Y-104499580D01*
X131317904Y-104499580D02*
X131270285Y-104547200D01*
X131270285Y-104547200D02*
X131175047Y-104594819D01*
X131175047Y-104594819D02*
X130936952Y-104594819D01*
X130936952Y-104594819D02*
X130841714Y-104547200D01*
X130841714Y-104547200D02*
X130794095Y-104499580D01*
X144780095Y-88028819D02*
X144780095Y-88838342D01*
X144780095Y-88838342D02*
X144827714Y-88933580D01*
X144827714Y-88933580D02*
X144875333Y-88981200D01*
X144875333Y-88981200D02*
X144970571Y-89028819D01*
X144970571Y-89028819D02*
X145161047Y-89028819D01*
X145161047Y-89028819D02*
X145256285Y-88981200D01*
X145256285Y-88981200D02*
X145303904Y-88933580D01*
X145303904Y-88933580D02*
X145351523Y-88838342D01*
X145351523Y-88838342D02*
X145351523Y-88028819D01*
X145732476Y-88028819D02*
X146351523Y-88028819D01*
X146351523Y-88028819D02*
X146018190Y-88409771D01*
X146018190Y-88409771D02*
X146161047Y-88409771D01*
X146161047Y-88409771D02*
X146256285Y-88457390D01*
X146256285Y-88457390D02*
X146303904Y-88505009D01*
X146303904Y-88505009D02*
X146351523Y-88600247D01*
X146351523Y-88600247D02*
X146351523Y-88838342D01*
X146351523Y-88838342D02*
X146303904Y-88933580D01*
X146303904Y-88933580D02*
X146256285Y-88981200D01*
X146256285Y-88981200D02*
X146161047Y-89028819D01*
X146161047Y-89028819D02*
X145875333Y-89028819D01*
X145875333Y-89028819D02*
X145780095Y-88981200D01*
X145780095Y-88981200D02*
X145732476Y-88933580D01*
X86211580Y-82430857D02*
X86259200Y-82478476D01*
X86259200Y-82478476D02*
X86306819Y-82621333D01*
X86306819Y-82621333D02*
X86306819Y-82716571D01*
X86306819Y-82716571D02*
X86259200Y-82859428D01*
X86259200Y-82859428D02*
X86163961Y-82954666D01*
X86163961Y-82954666D02*
X86068723Y-83002285D01*
X86068723Y-83002285D02*
X85878247Y-83049904D01*
X85878247Y-83049904D02*
X85735390Y-83049904D01*
X85735390Y-83049904D02*
X85544914Y-83002285D01*
X85544914Y-83002285D02*
X85449676Y-82954666D01*
X85449676Y-82954666D02*
X85354438Y-82859428D01*
X85354438Y-82859428D02*
X85306819Y-82716571D01*
X85306819Y-82716571D02*
X85306819Y-82621333D01*
X85306819Y-82621333D02*
X85354438Y-82478476D01*
X85354438Y-82478476D02*
X85402057Y-82430857D01*
X85402057Y-82049904D02*
X85354438Y-82002285D01*
X85354438Y-82002285D02*
X85306819Y-81907047D01*
X85306819Y-81907047D02*
X85306819Y-81668952D01*
X85306819Y-81668952D02*
X85354438Y-81573714D01*
X85354438Y-81573714D02*
X85402057Y-81526095D01*
X85402057Y-81526095D02*
X85497295Y-81478476D01*
X85497295Y-81478476D02*
X85592533Y-81478476D01*
X85592533Y-81478476D02*
X85735390Y-81526095D01*
X85735390Y-81526095D02*
X86306819Y-82097523D01*
X86306819Y-82097523D02*
X86306819Y-81478476D01*
X85306819Y-80573714D02*
X85306819Y-81049904D01*
X85306819Y-81049904D02*
X85783009Y-81097523D01*
X85783009Y-81097523D02*
X85735390Y-81049904D01*
X85735390Y-81049904D02*
X85687771Y-80954666D01*
X85687771Y-80954666D02*
X85687771Y-80716571D01*
X85687771Y-80716571D02*
X85735390Y-80621333D01*
X85735390Y-80621333D02*
X85783009Y-80573714D01*
X85783009Y-80573714D02*
X85878247Y-80526095D01*
X85878247Y-80526095D02*
X86116342Y-80526095D01*
X86116342Y-80526095D02*
X86211580Y-80573714D01*
X86211580Y-80573714D02*
X86259200Y-80621333D01*
X86259200Y-80621333D02*
X86306819Y-80716571D01*
X86306819Y-80716571D02*
X86306819Y-80954666D01*
X86306819Y-80954666D02*
X86259200Y-81049904D01*
X86259200Y-81049904D02*
X86211580Y-81097523D01*
X123975905Y-120160819D02*
X123975905Y-119160819D01*
X123975905Y-119160819D02*
X124214000Y-119160819D01*
X124214000Y-119160819D02*
X124356857Y-119208438D01*
X124356857Y-119208438D02*
X124452095Y-119303676D01*
X124452095Y-119303676D02*
X124499714Y-119398914D01*
X124499714Y-119398914D02*
X124547333Y-119589390D01*
X124547333Y-119589390D02*
X124547333Y-119732247D01*
X124547333Y-119732247D02*
X124499714Y-119922723D01*
X124499714Y-119922723D02*
X124452095Y-120017961D01*
X124452095Y-120017961D02*
X124356857Y-120113200D01*
X124356857Y-120113200D02*
X124214000Y-120160819D01*
X124214000Y-120160819D02*
X123975905Y-120160819D01*
X125404476Y-119160819D02*
X125214000Y-119160819D01*
X125214000Y-119160819D02*
X125118762Y-119208438D01*
X125118762Y-119208438D02*
X125071143Y-119256057D01*
X125071143Y-119256057D02*
X124975905Y-119398914D01*
X124975905Y-119398914D02*
X124928286Y-119589390D01*
X124928286Y-119589390D02*
X124928286Y-119970342D01*
X124928286Y-119970342D02*
X124975905Y-120065580D01*
X124975905Y-120065580D02*
X125023524Y-120113200D01*
X125023524Y-120113200D02*
X125118762Y-120160819D01*
X125118762Y-120160819D02*
X125309238Y-120160819D01*
X125309238Y-120160819D02*
X125404476Y-120113200D01*
X125404476Y-120113200D02*
X125452095Y-120065580D01*
X125452095Y-120065580D02*
X125499714Y-119970342D01*
X125499714Y-119970342D02*
X125499714Y-119732247D01*
X125499714Y-119732247D02*
X125452095Y-119637009D01*
X125452095Y-119637009D02*
X125404476Y-119589390D01*
X125404476Y-119589390D02*
X125309238Y-119541771D01*
X125309238Y-119541771D02*
X125118762Y-119541771D01*
X125118762Y-119541771D02*
X125023524Y-119589390D01*
X125023524Y-119589390D02*
X124975905Y-119637009D01*
X124975905Y-119637009D02*
X124928286Y-119732247D01*
X135094742Y-124006780D02*
X135047123Y-124054400D01*
X135047123Y-124054400D02*
X134904266Y-124102019D01*
X134904266Y-124102019D02*
X134809028Y-124102019D01*
X134809028Y-124102019D02*
X134666171Y-124054400D01*
X134666171Y-124054400D02*
X134570933Y-123959161D01*
X134570933Y-123959161D02*
X134523314Y-123863923D01*
X134523314Y-123863923D02*
X134475695Y-123673447D01*
X134475695Y-123673447D02*
X134475695Y-123530590D01*
X134475695Y-123530590D02*
X134523314Y-123340114D01*
X134523314Y-123340114D02*
X134570933Y-123244876D01*
X134570933Y-123244876D02*
X134666171Y-123149638D01*
X134666171Y-123149638D02*
X134809028Y-123102019D01*
X134809028Y-123102019D02*
X134904266Y-123102019D01*
X134904266Y-123102019D02*
X135047123Y-123149638D01*
X135047123Y-123149638D02*
X135094742Y-123197257D01*
X135475695Y-123197257D02*
X135523314Y-123149638D01*
X135523314Y-123149638D02*
X135618552Y-123102019D01*
X135618552Y-123102019D02*
X135856647Y-123102019D01*
X135856647Y-123102019D02*
X135951885Y-123149638D01*
X135951885Y-123149638D02*
X135999504Y-123197257D01*
X135999504Y-123197257D02*
X136047123Y-123292495D01*
X136047123Y-123292495D02*
X136047123Y-123387733D01*
X136047123Y-123387733D02*
X135999504Y-123530590D01*
X135999504Y-123530590D02*
X135428076Y-124102019D01*
X135428076Y-124102019D02*
X136047123Y-124102019D01*
X136428076Y-123197257D02*
X136475695Y-123149638D01*
X136475695Y-123149638D02*
X136570933Y-123102019D01*
X136570933Y-123102019D02*
X136809028Y-123102019D01*
X136809028Y-123102019D02*
X136904266Y-123149638D01*
X136904266Y-123149638D02*
X136951885Y-123197257D01*
X136951885Y-123197257D02*
X136999504Y-123292495D01*
X136999504Y-123292495D02*
X136999504Y-123387733D01*
X136999504Y-123387733D02*
X136951885Y-123530590D01*
X136951885Y-123530590D02*
X136380457Y-124102019D01*
X136380457Y-124102019D02*
X136999504Y-124102019D01*
X57830819Y-102441333D02*
X58545104Y-102441333D01*
X58545104Y-102441333D02*
X58687961Y-102488952D01*
X58687961Y-102488952D02*
X58783200Y-102584190D01*
X58783200Y-102584190D02*
X58830819Y-102727047D01*
X58830819Y-102727047D02*
X58830819Y-102822285D01*
X57926057Y-102012761D02*
X57878438Y-101965142D01*
X57878438Y-101965142D02*
X57830819Y-101869904D01*
X57830819Y-101869904D02*
X57830819Y-101631809D01*
X57830819Y-101631809D02*
X57878438Y-101536571D01*
X57878438Y-101536571D02*
X57926057Y-101488952D01*
X57926057Y-101488952D02*
X58021295Y-101441333D01*
X58021295Y-101441333D02*
X58116533Y-101441333D01*
X58116533Y-101441333D02*
X58259390Y-101488952D01*
X58259390Y-101488952D02*
X58830819Y-102060380D01*
X58830819Y-102060380D02*
X58830819Y-101441333D01*
X102373580Y-122861666D02*
X102421200Y-122909285D01*
X102421200Y-122909285D02*
X102468819Y-123052142D01*
X102468819Y-123052142D02*
X102468819Y-123147380D01*
X102468819Y-123147380D02*
X102421200Y-123290237D01*
X102421200Y-123290237D02*
X102325961Y-123385475D01*
X102325961Y-123385475D02*
X102230723Y-123433094D01*
X102230723Y-123433094D02*
X102040247Y-123480713D01*
X102040247Y-123480713D02*
X101897390Y-123480713D01*
X101897390Y-123480713D02*
X101706914Y-123433094D01*
X101706914Y-123433094D02*
X101611676Y-123385475D01*
X101611676Y-123385475D02*
X101516438Y-123290237D01*
X101516438Y-123290237D02*
X101468819Y-123147380D01*
X101468819Y-123147380D02*
X101468819Y-123052142D01*
X101468819Y-123052142D02*
X101516438Y-122909285D01*
X101516438Y-122909285D02*
X101564057Y-122861666D01*
X101468819Y-122004523D02*
X101468819Y-122194999D01*
X101468819Y-122194999D02*
X101516438Y-122290237D01*
X101516438Y-122290237D02*
X101564057Y-122337856D01*
X101564057Y-122337856D02*
X101706914Y-122433094D01*
X101706914Y-122433094D02*
X101897390Y-122480713D01*
X101897390Y-122480713D02*
X102278342Y-122480713D01*
X102278342Y-122480713D02*
X102373580Y-122433094D01*
X102373580Y-122433094D02*
X102421200Y-122385475D01*
X102421200Y-122385475D02*
X102468819Y-122290237D01*
X102468819Y-122290237D02*
X102468819Y-122099761D01*
X102468819Y-122099761D02*
X102421200Y-122004523D01*
X102421200Y-122004523D02*
X102373580Y-121956904D01*
X102373580Y-121956904D02*
X102278342Y-121909285D01*
X102278342Y-121909285D02*
X102040247Y-121909285D01*
X102040247Y-121909285D02*
X101945009Y-121956904D01*
X101945009Y-121956904D02*
X101897390Y-122004523D01*
X101897390Y-122004523D02*
X101849771Y-122099761D01*
X101849771Y-122099761D02*
X101849771Y-122290237D01*
X101849771Y-122290237D02*
X101897390Y-122385475D01*
X101897390Y-122385475D02*
X101945009Y-122433094D01*
X101945009Y-122433094D02*
X102040247Y-122480713D01*
X97790095Y-108928819D02*
X97790095Y-109738342D01*
X97790095Y-109738342D02*
X97837714Y-109833580D01*
X97837714Y-109833580D02*
X97885333Y-109881200D01*
X97885333Y-109881200D02*
X97980571Y-109928819D01*
X97980571Y-109928819D02*
X98171047Y-109928819D01*
X98171047Y-109928819D02*
X98266285Y-109881200D01*
X98266285Y-109881200D02*
X98313904Y-109833580D01*
X98313904Y-109833580D02*
X98361523Y-109738342D01*
X98361523Y-109738342D02*
X98361523Y-108928819D01*
X99266285Y-108928819D02*
X99075809Y-108928819D01*
X99075809Y-108928819D02*
X98980571Y-108976438D01*
X98980571Y-108976438D02*
X98932952Y-109024057D01*
X98932952Y-109024057D02*
X98837714Y-109166914D01*
X98837714Y-109166914D02*
X98790095Y-109357390D01*
X98790095Y-109357390D02*
X98790095Y-109738342D01*
X98790095Y-109738342D02*
X98837714Y-109833580D01*
X98837714Y-109833580D02*
X98885333Y-109881200D01*
X98885333Y-109881200D02*
X98980571Y-109928819D01*
X98980571Y-109928819D02*
X99171047Y-109928819D01*
X99171047Y-109928819D02*
X99266285Y-109881200D01*
X99266285Y-109881200D02*
X99313904Y-109833580D01*
X99313904Y-109833580D02*
X99361523Y-109738342D01*
X99361523Y-109738342D02*
X99361523Y-109500247D01*
X99361523Y-109500247D02*
X99313904Y-109405009D01*
X99313904Y-109405009D02*
X99266285Y-109357390D01*
X99266285Y-109357390D02*
X99171047Y-109309771D01*
X99171047Y-109309771D02*
X98980571Y-109309771D01*
X98980571Y-109309771D02*
X98885333Y-109357390D01*
X98885333Y-109357390D02*
X98837714Y-109405009D01*
X98837714Y-109405009D02*
X98790095Y-109500247D01*
X111130142Y-114245580D02*
X111082523Y-114293200D01*
X111082523Y-114293200D02*
X110939666Y-114340819D01*
X110939666Y-114340819D02*
X110844428Y-114340819D01*
X110844428Y-114340819D02*
X110701571Y-114293200D01*
X110701571Y-114293200D02*
X110606333Y-114197961D01*
X110606333Y-114197961D02*
X110558714Y-114102723D01*
X110558714Y-114102723D02*
X110511095Y-113912247D01*
X110511095Y-113912247D02*
X110511095Y-113769390D01*
X110511095Y-113769390D02*
X110558714Y-113578914D01*
X110558714Y-113578914D02*
X110606333Y-113483676D01*
X110606333Y-113483676D02*
X110701571Y-113388438D01*
X110701571Y-113388438D02*
X110844428Y-113340819D01*
X110844428Y-113340819D02*
X110939666Y-113340819D01*
X110939666Y-113340819D02*
X111082523Y-113388438D01*
X111082523Y-113388438D02*
X111130142Y-113436057D01*
X111511095Y-113436057D02*
X111558714Y-113388438D01*
X111558714Y-113388438D02*
X111653952Y-113340819D01*
X111653952Y-113340819D02*
X111892047Y-113340819D01*
X111892047Y-113340819D02*
X111987285Y-113388438D01*
X111987285Y-113388438D02*
X112034904Y-113436057D01*
X112034904Y-113436057D02*
X112082523Y-113531295D01*
X112082523Y-113531295D02*
X112082523Y-113626533D01*
X112082523Y-113626533D02*
X112034904Y-113769390D01*
X112034904Y-113769390D02*
X111463476Y-114340819D01*
X111463476Y-114340819D02*
X112082523Y-114340819D01*
X112701571Y-113340819D02*
X112796809Y-113340819D01*
X112796809Y-113340819D02*
X112892047Y-113388438D01*
X112892047Y-113388438D02*
X112939666Y-113436057D01*
X112939666Y-113436057D02*
X112987285Y-113531295D01*
X112987285Y-113531295D02*
X113034904Y-113721771D01*
X113034904Y-113721771D02*
X113034904Y-113959866D01*
X113034904Y-113959866D02*
X112987285Y-114150342D01*
X112987285Y-114150342D02*
X112939666Y-114245580D01*
X112939666Y-114245580D02*
X112892047Y-114293200D01*
X112892047Y-114293200D02*
X112796809Y-114340819D01*
X112796809Y-114340819D02*
X112701571Y-114340819D01*
X112701571Y-114340819D02*
X112606333Y-114293200D01*
X112606333Y-114293200D02*
X112558714Y-114245580D01*
X112558714Y-114245580D02*
X112511095Y-114150342D01*
X112511095Y-114150342D02*
X112463476Y-113959866D01*
X112463476Y-113959866D02*
X112463476Y-113721771D01*
X112463476Y-113721771D02*
X112511095Y-113531295D01*
X112511095Y-113531295D02*
X112558714Y-113436057D01*
X112558714Y-113436057D02*
X112606333Y-113388438D01*
X112606333Y-113388438D02*
X112701571Y-113340819D01*
X134154057Y-77819238D02*
X134106438Y-77914476D01*
X134106438Y-77914476D02*
X134011200Y-78009714D01*
X134011200Y-78009714D02*
X133868342Y-78152571D01*
X133868342Y-78152571D02*
X133820723Y-78247809D01*
X133820723Y-78247809D02*
X133820723Y-78343047D01*
X134058819Y-78295428D02*
X134011200Y-78390666D01*
X134011200Y-78390666D02*
X133915961Y-78485904D01*
X133915961Y-78485904D02*
X133725485Y-78533523D01*
X133725485Y-78533523D02*
X133392152Y-78533523D01*
X133392152Y-78533523D02*
X133201676Y-78485904D01*
X133201676Y-78485904D02*
X133106438Y-78390666D01*
X133106438Y-78390666D02*
X133058819Y-78295428D01*
X133058819Y-78295428D02*
X133058819Y-78104952D01*
X133058819Y-78104952D02*
X133106438Y-78009714D01*
X133106438Y-78009714D02*
X133201676Y-77914476D01*
X133201676Y-77914476D02*
X133392152Y-77866857D01*
X133392152Y-77866857D02*
X133725485Y-77866857D01*
X133725485Y-77866857D02*
X133915961Y-77914476D01*
X133915961Y-77914476D02*
X134011200Y-78009714D01*
X134011200Y-78009714D02*
X134058819Y-78104952D01*
X134058819Y-78104952D02*
X134058819Y-78295428D01*
X133392152Y-77009714D02*
X134058819Y-77009714D01*
X133011200Y-77247809D02*
X133725485Y-77485904D01*
X133725485Y-77485904D02*
X133725485Y-76866857D01*
X129074057Y-77897738D02*
X129026438Y-77992976D01*
X129026438Y-77992976D02*
X128931200Y-78088214D01*
X128931200Y-78088214D02*
X128788342Y-78231071D01*
X128788342Y-78231071D02*
X128740723Y-78326309D01*
X128740723Y-78326309D02*
X128740723Y-78421547D01*
X128978819Y-78373928D02*
X128931200Y-78469166D01*
X128931200Y-78469166D02*
X128835961Y-78564404D01*
X128835961Y-78564404D02*
X128645485Y-78612023D01*
X128645485Y-78612023D02*
X128312152Y-78612023D01*
X128312152Y-78612023D02*
X128121676Y-78564404D01*
X128121676Y-78564404D02*
X128026438Y-78469166D01*
X128026438Y-78469166D02*
X127978819Y-78373928D01*
X127978819Y-78373928D02*
X127978819Y-78183452D01*
X127978819Y-78183452D02*
X128026438Y-78088214D01*
X128026438Y-78088214D02*
X128121676Y-77992976D01*
X128121676Y-77992976D02*
X128312152Y-77945357D01*
X128312152Y-77945357D02*
X128645485Y-77945357D01*
X128645485Y-77945357D02*
X128835961Y-77992976D01*
X128835961Y-77992976D02*
X128931200Y-78088214D01*
X128931200Y-78088214D02*
X128978819Y-78183452D01*
X128978819Y-78183452D02*
X128978819Y-78373928D01*
X127978819Y-77612023D02*
X127978819Y-76992976D01*
X127978819Y-76992976D02*
X128359771Y-77326309D01*
X128359771Y-77326309D02*
X128359771Y-77183452D01*
X128359771Y-77183452D02*
X128407390Y-77088214D01*
X128407390Y-77088214D02*
X128455009Y-77040595D01*
X128455009Y-77040595D02*
X128550247Y-76992976D01*
X128550247Y-76992976D02*
X128788342Y-76992976D01*
X128788342Y-76992976D02*
X128883580Y-77040595D01*
X128883580Y-77040595D02*
X128931200Y-77088214D01*
X128931200Y-77088214D02*
X128978819Y-77183452D01*
X128978819Y-77183452D02*
X128978819Y-77469166D01*
X128978819Y-77469166D02*
X128931200Y-77564404D01*
X128931200Y-77564404D02*
X128883580Y-77612023D01*
X133850619Y-119125904D02*
X134660142Y-119125904D01*
X134660142Y-119125904D02*
X134755380Y-119078285D01*
X134755380Y-119078285D02*
X134803000Y-119030666D01*
X134803000Y-119030666D02*
X134850619Y-118935428D01*
X134850619Y-118935428D02*
X134850619Y-118744952D01*
X134850619Y-118744952D02*
X134803000Y-118649714D01*
X134803000Y-118649714D02*
X134755380Y-118602095D01*
X134755380Y-118602095D02*
X134660142Y-118554476D01*
X134660142Y-118554476D02*
X133850619Y-118554476D01*
X133945857Y-118125904D02*
X133898238Y-118078285D01*
X133898238Y-118078285D02*
X133850619Y-117983047D01*
X133850619Y-117983047D02*
X133850619Y-117744952D01*
X133850619Y-117744952D02*
X133898238Y-117649714D01*
X133898238Y-117649714D02*
X133945857Y-117602095D01*
X133945857Y-117602095D02*
X134041095Y-117554476D01*
X134041095Y-117554476D02*
X134136333Y-117554476D01*
X134136333Y-117554476D02*
X134279190Y-117602095D01*
X134279190Y-117602095D02*
X134850619Y-118173523D01*
X134850619Y-118173523D02*
X134850619Y-117554476D01*
X139761628Y-107446190D02*
X140237819Y-107446190D01*
X139237819Y-107779523D02*
X139761628Y-107446190D01*
X139761628Y-107446190D02*
X139237819Y-107112857D01*
X140237819Y-106255714D02*
X140237819Y-106827142D01*
X140237819Y-106541428D02*
X139237819Y-106541428D01*
X139237819Y-106541428D02*
X139380676Y-106636666D01*
X139380676Y-106636666D02*
X139475914Y-106731904D01*
X139475914Y-106731904D02*
X139523533Y-106827142D01*
D12*
X68786476Y-61687419D02*
X68786476Y-62401704D01*
X68786476Y-62401704D02*
X68738857Y-62544561D01*
X68738857Y-62544561D02*
X68643619Y-62639800D01*
X68643619Y-62639800D02*
X68500762Y-62687419D01*
X68500762Y-62687419D02*
X68405524Y-62687419D01*
X69786476Y-62687419D02*
X69215048Y-62687419D01*
X69500762Y-62687419D02*
X69500762Y-61687419D01*
X69500762Y-61687419D02*
X69405524Y-61830276D01*
X69405524Y-61830276D02*
X69310286Y-61925514D01*
X69310286Y-61925514D02*
X69215048Y-61973133D01*
X70643619Y-62020752D02*
X70643619Y-62687419D01*
X70405524Y-61639800D02*
X70167429Y-62354085D01*
X70167429Y-62354085D02*
X70786476Y-62354085D01*
D10*
X84586580Y-74302857D02*
X84634200Y-74350476D01*
X84634200Y-74350476D02*
X84681819Y-74493333D01*
X84681819Y-74493333D02*
X84681819Y-74588571D01*
X84681819Y-74588571D02*
X84634200Y-74731428D01*
X84634200Y-74731428D02*
X84538961Y-74826666D01*
X84538961Y-74826666D02*
X84443723Y-74874285D01*
X84443723Y-74874285D02*
X84253247Y-74921904D01*
X84253247Y-74921904D02*
X84110390Y-74921904D01*
X84110390Y-74921904D02*
X83919914Y-74874285D01*
X83919914Y-74874285D02*
X83824676Y-74826666D01*
X83824676Y-74826666D02*
X83729438Y-74731428D01*
X83729438Y-74731428D02*
X83681819Y-74588571D01*
X83681819Y-74588571D02*
X83681819Y-74493333D01*
X83681819Y-74493333D02*
X83729438Y-74350476D01*
X83729438Y-74350476D02*
X83777057Y-74302857D01*
X83777057Y-73921904D02*
X83729438Y-73874285D01*
X83729438Y-73874285D02*
X83681819Y-73779047D01*
X83681819Y-73779047D02*
X83681819Y-73540952D01*
X83681819Y-73540952D02*
X83729438Y-73445714D01*
X83729438Y-73445714D02*
X83777057Y-73398095D01*
X83777057Y-73398095D02*
X83872295Y-73350476D01*
X83872295Y-73350476D02*
X83967533Y-73350476D01*
X83967533Y-73350476D02*
X84110390Y-73398095D01*
X84110390Y-73398095D02*
X84681819Y-73969523D01*
X84681819Y-73969523D02*
X84681819Y-73350476D01*
X83681819Y-72493333D02*
X83681819Y-72683809D01*
X83681819Y-72683809D02*
X83729438Y-72779047D01*
X83729438Y-72779047D02*
X83777057Y-72826666D01*
X83777057Y-72826666D02*
X83919914Y-72921904D01*
X83919914Y-72921904D02*
X84110390Y-72969523D01*
X84110390Y-72969523D02*
X84491342Y-72969523D01*
X84491342Y-72969523D02*
X84586580Y-72921904D01*
X84586580Y-72921904D02*
X84634200Y-72874285D01*
X84634200Y-72874285D02*
X84681819Y-72779047D01*
X84681819Y-72779047D02*
X84681819Y-72588571D01*
X84681819Y-72588571D02*
X84634200Y-72493333D01*
X84634200Y-72493333D02*
X84586580Y-72445714D01*
X84586580Y-72445714D02*
X84491342Y-72398095D01*
X84491342Y-72398095D02*
X84253247Y-72398095D01*
X84253247Y-72398095D02*
X84158009Y-72445714D01*
X84158009Y-72445714D02*
X84110390Y-72493333D01*
X84110390Y-72493333D02*
X84062771Y-72588571D01*
X84062771Y-72588571D02*
X84062771Y-72779047D01*
X84062771Y-72779047D02*
X84110390Y-72874285D01*
X84110390Y-72874285D02*
X84158009Y-72921904D01*
X84158009Y-72921904D02*
X84253247Y-72969523D01*
X134135905Y-75892819D02*
X134135905Y-74892819D01*
X134135905Y-74892819D02*
X134374000Y-74892819D01*
X134374000Y-74892819D02*
X134516857Y-74940438D01*
X134516857Y-74940438D02*
X134612095Y-75035676D01*
X134612095Y-75035676D02*
X134659714Y-75130914D01*
X134659714Y-75130914D02*
X134707333Y-75321390D01*
X134707333Y-75321390D02*
X134707333Y-75464247D01*
X134707333Y-75464247D02*
X134659714Y-75654723D01*
X134659714Y-75654723D02*
X134612095Y-75749961D01*
X134612095Y-75749961D02*
X134516857Y-75845200D01*
X134516857Y-75845200D02*
X134374000Y-75892819D01*
X134374000Y-75892819D02*
X134135905Y-75892819D01*
X135088286Y-74988057D02*
X135135905Y-74940438D01*
X135135905Y-74940438D02*
X135231143Y-74892819D01*
X135231143Y-74892819D02*
X135469238Y-74892819D01*
X135469238Y-74892819D02*
X135564476Y-74940438D01*
X135564476Y-74940438D02*
X135612095Y-74988057D01*
X135612095Y-74988057D02*
X135659714Y-75083295D01*
X135659714Y-75083295D02*
X135659714Y-75178533D01*
X135659714Y-75178533D02*
X135612095Y-75321390D01*
X135612095Y-75321390D02*
X135040667Y-75892819D01*
X135040667Y-75892819D02*
X135659714Y-75892819D01*
X129373333Y-71574819D02*
X129040000Y-71098628D01*
X128801905Y-71574819D02*
X128801905Y-70574819D01*
X128801905Y-70574819D02*
X129182857Y-70574819D01*
X129182857Y-70574819D02*
X129278095Y-70622438D01*
X129278095Y-70622438D02*
X129325714Y-70670057D01*
X129325714Y-70670057D02*
X129373333Y-70765295D01*
X129373333Y-70765295D02*
X129373333Y-70908152D01*
X129373333Y-70908152D02*
X129325714Y-71003390D01*
X129325714Y-71003390D02*
X129278095Y-71051009D01*
X129278095Y-71051009D02*
X129182857Y-71098628D01*
X129182857Y-71098628D02*
X128801905Y-71098628D01*
X129754286Y-70670057D02*
X129801905Y-70622438D01*
X129801905Y-70622438D02*
X129897143Y-70574819D01*
X129897143Y-70574819D02*
X130135238Y-70574819D01*
X130135238Y-70574819D02*
X130230476Y-70622438D01*
X130230476Y-70622438D02*
X130278095Y-70670057D01*
X130278095Y-70670057D02*
X130325714Y-70765295D01*
X130325714Y-70765295D02*
X130325714Y-70860533D01*
X130325714Y-70860533D02*
X130278095Y-71003390D01*
X130278095Y-71003390D02*
X129706667Y-71574819D01*
X129706667Y-71574819D02*
X130325714Y-71574819D01*
X122451905Y-75130819D02*
X122451905Y-74130819D01*
X122451905Y-74130819D02*
X122690000Y-74130819D01*
X122690000Y-74130819D02*
X122832857Y-74178438D01*
X122832857Y-74178438D02*
X122928095Y-74273676D01*
X122928095Y-74273676D02*
X122975714Y-74368914D01*
X122975714Y-74368914D02*
X123023333Y-74559390D01*
X123023333Y-74559390D02*
X123023333Y-74702247D01*
X123023333Y-74702247D02*
X122975714Y-74892723D01*
X122975714Y-74892723D02*
X122928095Y-74987961D01*
X122928095Y-74987961D02*
X122832857Y-75083200D01*
X122832857Y-75083200D02*
X122690000Y-75130819D01*
X122690000Y-75130819D02*
X122451905Y-75130819D01*
X123975714Y-75130819D02*
X123404286Y-75130819D01*
X123690000Y-75130819D02*
X123690000Y-74130819D01*
X123690000Y-74130819D02*
X123594762Y-74273676D01*
X123594762Y-74273676D02*
X123499524Y-74368914D01*
X123499524Y-74368914D02*
X123404286Y-74416533D01*
X82923142Y-98911580D02*
X82875523Y-98959200D01*
X82875523Y-98959200D02*
X82732666Y-99006819D01*
X82732666Y-99006819D02*
X82637428Y-99006819D01*
X82637428Y-99006819D02*
X82494571Y-98959200D01*
X82494571Y-98959200D02*
X82399333Y-98863961D01*
X82399333Y-98863961D02*
X82351714Y-98768723D01*
X82351714Y-98768723D02*
X82304095Y-98578247D01*
X82304095Y-98578247D02*
X82304095Y-98435390D01*
X82304095Y-98435390D02*
X82351714Y-98244914D01*
X82351714Y-98244914D02*
X82399333Y-98149676D01*
X82399333Y-98149676D02*
X82494571Y-98054438D01*
X82494571Y-98054438D02*
X82637428Y-98006819D01*
X82637428Y-98006819D02*
X82732666Y-98006819D01*
X82732666Y-98006819D02*
X82875523Y-98054438D01*
X82875523Y-98054438D02*
X82923142Y-98102057D01*
X83304095Y-98102057D02*
X83351714Y-98054438D01*
X83351714Y-98054438D02*
X83446952Y-98006819D01*
X83446952Y-98006819D02*
X83685047Y-98006819D01*
X83685047Y-98006819D02*
X83780285Y-98054438D01*
X83780285Y-98054438D02*
X83827904Y-98102057D01*
X83827904Y-98102057D02*
X83875523Y-98197295D01*
X83875523Y-98197295D02*
X83875523Y-98292533D01*
X83875523Y-98292533D02*
X83827904Y-98435390D01*
X83827904Y-98435390D02*
X83256476Y-99006819D01*
X83256476Y-99006819D02*
X83875523Y-99006819D01*
X84732666Y-98340152D02*
X84732666Y-99006819D01*
X84494571Y-97959200D02*
X84256476Y-98673485D01*
X84256476Y-98673485D02*
X84875523Y-98673485D01*
X129817905Y-120160819D02*
X129817905Y-119160819D01*
X129817905Y-119160819D02*
X130056000Y-119160819D01*
X130056000Y-119160819D02*
X130198857Y-119208438D01*
X130198857Y-119208438D02*
X130294095Y-119303676D01*
X130294095Y-119303676D02*
X130341714Y-119398914D01*
X130341714Y-119398914D02*
X130389333Y-119589390D01*
X130389333Y-119589390D02*
X130389333Y-119732247D01*
X130389333Y-119732247D02*
X130341714Y-119922723D01*
X130341714Y-119922723D02*
X130294095Y-120017961D01*
X130294095Y-120017961D02*
X130198857Y-120113200D01*
X130198857Y-120113200D02*
X130056000Y-120160819D01*
X130056000Y-120160819D02*
X129817905Y-120160819D01*
X131294095Y-119160819D02*
X130817905Y-119160819D01*
X130817905Y-119160819D02*
X130770286Y-119637009D01*
X130770286Y-119637009D02*
X130817905Y-119589390D01*
X130817905Y-119589390D02*
X130913143Y-119541771D01*
X130913143Y-119541771D02*
X131151238Y-119541771D01*
X131151238Y-119541771D02*
X131246476Y-119589390D01*
X131246476Y-119589390D02*
X131294095Y-119637009D01*
X131294095Y-119637009D02*
X131341714Y-119732247D01*
X131341714Y-119732247D02*
X131341714Y-119970342D01*
X131341714Y-119970342D02*
X131294095Y-120065580D01*
X131294095Y-120065580D02*
X131246476Y-120113200D01*
X131246476Y-120113200D02*
X131151238Y-120160819D01*
X131151238Y-120160819D02*
X130913143Y-120160819D01*
X130913143Y-120160819D02*
X130817905Y-120113200D01*
X130817905Y-120113200D02*
X130770286Y-120065580D01*
X125341142Y-84146819D02*
X125007809Y-83670628D01*
X124769714Y-84146819D02*
X124769714Y-83146819D01*
X124769714Y-83146819D02*
X125150666Y-83146819D01*
X125150666Y-83146819D02*
X125245904Y-83194438D01*
X125245904Y-83194438D02*
X125293523Y-83242057D01*
X125293523Y-83242057D02*
X125341142Y-83337295D01*
X125341142Y-83337295D02*
X125341142Y-83480152D01*
X125341142Y-83480152D02*
X125293523Y-83575390D01*
X125293523Y-83575390D02*
X125245904Y-83623009D01*
X125245904Y-83623009D02*
X125150666Y-83670628D01*
X125150666Y-83670628D02*
X124769714Y-83670628D01*
X125722095Y-83242057D02*
X125769714Y-83194438D01*
X125769714Y-83194438D02*
X125864952Y-83146819D01*
X125864952Y-83146819D02*
X126103047Y-83146819D01*
X126103047Y-83146819D02*
X126198285Y-83194438D01*
X126198285Y-83194438D02*
X126245904Y-83242057D01*
X126245904Y-83242057D02*
X126293523Y-83337295D01*
X126293523Y-83337295D02*
X126293523Y-83432533D01*
X126293523Y-83432533D02*
X126245904Y-83575390D01*
X126245904Y-83575390D02*
X125674476Y-84146819D01*
X125674476Y-84146819D02*
X126293523Y-84146819D01*
X127198285Y-83146819D02*
X126722095Y-83146819D01*
X126722095Y-83146819D02*
X126674476Y-83623009D01*
X126674476Y-83623009D02*
X126722095Y-83575390D01*
X126722095Y-83575390D02*
X126817333Y-83527771D01*
X126817333Y-83527771D02*
X127055428Y-83527771D01*
X127055428Y-83527771D02*
X127150666Y-83575390D01*
X127150666Y-83575390D02*
X127198285Y-83623009D01*
X127198285Y-83623009D02*
X127245904Y-83718247D01*
X127245904Y-83718247D02*
X127245904Y-83956342D01*
X127245904Y-83956342D02*
X127198285Y-84051580D01*
X127198285Y-84051580D02*
X127150666Y-84099200D01*
X127150666Y-84099200D02*
X127055428Y-84146819D01*
X127055428Y-84146819D02*
X126817333Y-84146819D01*
X126817333Y-84146819D02*
X126722095Y-84099200D01*
X126722095Y-84099200D02*
X126674476Y-84051580D01*
X130421142Y-84146819D02*
X130087809Y-83670628D01*
X129849714Y-84146819D02*
X129849714Y-83146819D01*
X129849714Y-83146819D02*
X130230666Y-83146819D01*
X130230666Y-83146819D02*
X130325904Y-83194438D01*
X130325904Y-83194438D02*
X130373523Y-83242057D01*
X130373523Y-83242057D02*
X130421142Y-83337295D01*
X130421142Y-83337295D02*
X130421142Y-83480152D01*
X130421142Y-83480152D02*
X130373523Y-83575390D01*
X130373523Y-83575390D02*
X130325904Y-83623009D01*
X130325904Y-83623009D02*
X130230666Y-83670628D01*
X130230666Y-83670628D02*
X129849714Y-83670628D01*
X130802095Y-83242057D02*
X130849714Y-83194438D01*
X130849714Y-83194438D02*
X130944952Y-83146819D01*
X130944952Y-83146819D02*
X131183047Y-83146819D01*
X131183047Y-83146819D02*
X131278285Y-83194438D01*
X131278285Y-83194438D02*
X131325904Y-83242057D01*
X131325904Y-83242057D02*
X131373523Y-83337295D01*
X131373523Y-83337295D02*
X131373523Y-83432533D01*
X131373523Y-83432533D02*
X131325904Y-83575390D01*
X131325904Y-83575390D02*
X130754476Y-84146819D01*
X130754476Y-84146819D02*
X131373523Y-84146819D01*
X132230666Y-83146819D02*
X132040190Y-83146819D01*
X132040190Y-83146819D02*
X131944952Y-83194438D01*
X131944952Y-83194438D02*
X131897333Y-83242057D01*
X131897333Y-83242057D02*
X131802095Y-83384914D01*
X131802095Y-83384914D02*
X131754476Y-83575390D01*
X131754476Y-83575390D02*
X131754476Y-83956342D01*
X131754476Y-83956342D02*
X131802095Y-84051580D01*
X131802095Y-84051580D02*
X131849714Y-84099200D01*
X131849714Y-84099200D02*
X131944952Y-84146819D01*
X131944952Y-84146819D02*
X132135428Y-84146819D01*
X132135428Y-84146819D02*
X132230666Y-84099200D01*
X132230666Y-84099200D02*
X132278285Y-84051580D01*
X132278285Y-84051580D02*
X132325904Y-83956342D01*
X132325904Y-83956342D02*
X132325904Y-83718247D01*
X132325904Y-83718247D02*
X132278285Y-83623009D01*
X132278285Y-83623009D02*
X132230666Y-83575390D01*
X132230666Y-83575390D02*
X132135428Y-83527771D01*
X132135428Y-83527771D02*
X131944952Y-83527771D01*
X131944952Y-83527771D02*
X131849714Y-83575390D01*
X131849714Y-83575390D02*
X131802095Y-83623009D01*
X131802095Y-83623009D02*
X131754476Y-83718247D01*
X99504833Y-73226819D02*
X99171500Y-72750628D01*
X98933405Y-73226819D02*
X98933405Y-72226819D01*
X98933405Y-72226819D02*
X99314357Y-72226819D01*
X99314357Y-72226819D02*
X99409595Y-72274438D01*
X99409595Y-72274438D02*
X99457214Y-72322057D01*
X99457214Y-72322057D02*
X99504833Y-72417295D01*
X99504833Y-72417295D02*
X99504833Y-72560152D01*
X99504833Y-72560152D02*
X99457214Y-72655390D01*
X99457214Y-72655390D02*
X99409595Y-72703009D01*
X99409595Y-72703009D02*
X99314357Y-72750628D01*
X99314357Y-72750628D02*
X98933405Y-72750628D01*
X99838167Y-72226819D02*
X100457214Y-72226819D01*
X100457214Y-72226819D02*
X100123881Y-72607771D01*
X100123881Y-72607771D02*
X100266738Y-72607771D01*
X100266738Y-72607771D02*
X100361976Y-72655390D01*
X100361976Y-72655390D02*
X100409595Y-72703009D01*
X100409595Y-72703009D02*
X100457214Y-72798247D01*
X100457214Y-72798247D02*
X100457214Y-73036342D01*
X100457214Y-73036342D02*
X100409595Y-73131580D01*
X100409595Y-73131580D02*
X100361976Y-73179200D01*
X100361976Y-73179200D02*
X100266738Y-73226819D01*
X100266738Y-73226819D02*
X99981024Y-73226819D01*
X99981024Y-73226819D02*
X99885786Y-73179200D01*
X99885786Y-73179200D02*
X99838167Y-73131580D01*
X123041580Y-82176857D02*
X123089200Y-82224476D01*
X123089200Y-82224476D02*
X123136819Y-82367333D01*
X123136819Y-82367333D02*
X123136819Y-82462571D01*
X123136819Y-82462571D02*
X123089200Y-82605428D01*
X123089200Y-82605428D02*
X122993961Y-82700666D01*
X122993961Y-82700666D02*
X122898723Y-82748285D01*
X122898723Y-82748285D02*
X122708247Y-82795904D01*
X122708247Y-82795904D02*
X122565390Y-82795904D01*
X122565390Y-82795904D02*
X122374914Y-82748285D01*
X122374914Y-82748285D02*
X122279676Y-82700666D01*
X122279676Y-82700666D02*
X122184438Y-82605428D01*
X122184438Y-82605428D02*
X122136819Y-82462571D01*
X122136819Y-82462571D02*
X122136819Y-82367333D01*
X122136819Y-82367333D02*
X122184438Y-82224476D01*
X122184438Y-82224476D02*
X122232057Y-82176857D01*
X122232057Y-81795904D02*
X122184438Y-81748285D01*
X122184438Y-81748285D02*
X122136819Y-81653047D01*
X122136819Y-81653047D02*
X122136819Y-81414952D01*
X122136819Y-81414952D02*
X122184438Y-81319714D01*
X122184438Y-81319714D02*
X122232057Y-81272095D01*
X122232057Y-81272095D02*
X122327295Y-81224476D01*
X122327295Y-81224476D02*
X122422533Y-81224476D01*
X122422533Y-81224476D02*
X122565390Y-81272095D01*
X122565390Y-81272095D02*
X123136819Y-81843523D01*
X123136819Y-81843523D02*
X123136819Y-81224476D01*
X122136819Y-80891142D02*
X122136819Y-80224476D01*
X122136819Y-80224476D02*
X123136819Y-80653047D01*
X141380380Y-126880857D02*
X141428000Y-126928476D01*
X141428000Y-126928476D02*
X141475619Y-127071333D01*
X141475619Y-127071333D02*
X141475619Y-127166571D01*
X141475619Y-127166571D02*
X141428000Y-127309428D01*
X141428000Y-127309428D02*
X141332761Y-127404666D01*
X141332761Y-127404666D02*
X141237523Y-127452285D01*
X141237523Y-127452285D02*
X141047047Y-127499904D01*
X141047047Y-127499904D02*
X140904190Y-127499904D01*
X140904190Y-127499904D02*
X140713714Y-127452285D01*
X140713714Y-127452285D02*
X140618476Y-127404666D01*
X140618476Y-127404666D02*
X140523238Y-127309428D01*
X140523238Y-127309428D02*
X140475619Y-127166571D01*
X140475619Y-127166571D02*
X140475619Y-127071333D01*
X140475619Y-127071333D02*
X140523238Y-126928476D01*
X140523238Y-126928476D02*
X140570857Y-126880857D01*
X141475619Y-125928476D02*
X141475619Y-126499904D01*
X141475619Y-126214190D02*
X140475619Y-126214190D01*
X140475619Y-126214190D02*
X140618476Y-126309428D01*
X140618476Y-126309428D02*
X140713714Y-126404666D01*
X140713714Y-126404666D02*
X140761333Y-126499904D01*
X140475619Y-125309428D02*
X140475619Y-125214190D01*
X140475619Y-125214190D02*
X140523238Y-125118952D01*
X140523238Y-125118952D02*
X140570857Y-125071333D01*
X140570857Y-125071333D02*
X140666095Y-125023714D01*
X140666095Y-125023714D02*
X140856571Y-124976095D01*
X140856571Y-124976095D02*
X141094666Y-124976095D01*
X141094666Y-124976095D02*
X141285142Y-125023714D01*
X141285142Y-125023714D02*
X141380380Y-125071333D01*
X141380380Y-125071333D02*
X141428000Y-125118952D01*
X141428000Y-125118952D02*
X141475619Y-125214190D01*
X141475619Y-125214190D02*
X141475619Y-125309428D01*
X141475619Y-125309428D02*
X141428000Y-125404666D01*
X141428000Y-125404666D02*
X141380380Y-125452285D01*
X141380380Y-125452285D02*
X141285142Y-125499904D01*
X141285142Y-125499904D02*
X141094666Y-125547523D01*
X141094666Y-125547523D02*
X140856571Y-125547523D01*
X140856571Y-125547523D02*
X140666095Y-125499904D01*
X140666095Y-125499904D02*
X140570857Y-125452285D01*
X140570857Y-125452285D02*
X140523238Y-125404666D01*
X140523238Y-125404666D02*
X140475619Y-125309428D01*
X94069819Y-107716333D02*
X94784104Y-107716333D01*
X94784104Y-107716333D02*
X94926961Y-107763952D01*
X94926961Y-107763952D02*
X95022200Y-107859190D01*
X95022200Y-107859190D02*
X95069819Y-108002047D01*
X95069819Y-108002047D02*
X95069819Y-108097285D01*
X94069819Y-107335380D02*
X94069819Y-106716333D01*
X94069819Y-106716333D02*
X94450771Y-107049666D01*
X94450771Y-107049666D02*
X94450771Y-106906809D01*
X94450771Y-106906809D02*
X94498390Y-106811571D01*
X94498390Y-106811571D02*
X94546009Y-106763952D01*
X94546009Y-106763952D02*
X94641247Y-106716333D01*
X94641247Y-106716333D02*
X94879342Y-106716333D01*
X94879342Y-106716333D02*
X94974580Y-106763952D01*
X94974580Y-106763952D02*
X95022200Y-106811571D01*
X95022200Y-106811571D02*
X95069819Y-106906809D01*
X95069819Y-106906809D02*
X95069819Y-107192523D01*
X95069819Y-107192523D02*
X95022200Y-107287761D01*
X95022200Y-107287761D02*
X94974580Y-107335380D01*
X113246819Y-76453904D02*
X114056342Y-76453904D01*
X114056342Y-76453904D02*
X114151580Y-76406285D01*
X114151580Y-76406285D02*
X114199200Y-76358666D01*
X114199200Y-76358666D02*
X114246819Y-76263428D01*
X114246819Y-76263428D02*
X114246819Y-76072952D01*
X114246819Y-76072952D02*
X114199200Y-75977714D01*
X114199200Y-75977714D02*
X114151580Y-75930095D01*
X114151580Y-75930095D02*
X114056342Y-75882476D01*
X114056342Y-75882476D02*
X113246819Y-75882476D01*
X114246819Y-74882476D02*
X114246819Y-75453904D01*
X114246819Y-75168190D02*
X113246819Y-75168190D01*
X113246819Y-75168190D02*
X113389676Y-75263428D01*
X113389676Y-75263428D02*
X113484914Y-75358666D01*
X113484914Y-75358666D02*
X113532533Y-75453904D01*
X105109180Y-105944666D02*
X105156800Y-105992285D01*
X105156800Y-105992285D02*
X105204419Y-106135142D01*
X105204419Y-106135142D02*
X105204419Y-106230380D01*
X105204419Y-106230380D02*
X105156800Y-106373237D01*
X105156800Y-106373237D02*
X105061561Y-106468475D01*
X105061561Y-106468475D02*
X104966323Y-106516094D01*
X104966323Y-106516094D02*
X104775847Y-106563713D01*
X104775847Y-106563713D02*
X104632990Y-106563713D01*
X104632990Y-106563713D02*
X104442514Y-106516094D01*
X104442514Y-106516094D02*
X104347276Y-106468475D01*
X104347276Y-106468475D02*
X104252038Y-106373237D01*
X104252038Y-106373237D02*
X104204419Y-106230380D01*
X104204419Y-106230380D02*
X104204419Y-106135142D01*
X104204419Y-106135142D02*
X104252038Y-105992285D01*
X104252038Y-105992285D02*
X104299657Y-105944666D01*
X104537752Y-105087523D02*
X105204419Y-105087523D01*
X104156800Y-105325618D02*
X104871085Y-105563713D01*
X104871085Y-105563713D02*
X104871085Y-104944666D01*
X102989142Y-77067580D02*
X102941523Y-77115200D01*
X102941523Y-77115200D02*
X102798666Y-77162819D01*
X102798666Y-77162819D02*
X102703428Y-77162819D01*
X102703428Y-77162819D02*
X102560571Y-77115200D01*
X102560571Y-77115200D02*
X102465333Y-77019961D01*
X102465333Y-77019961D02*
X102417714Y-76924723D01*
X102417714Y-76924723D02*
X102370095Y-76734247D01*
X102370095Y-76734247D02*
X102370095Y-76591390D01*
X102370095Y-76591390D02*
X102417714Y-76400914D01*
X102417714Y-76400914D02*
X102465333Y-76305676D01*
X102465333Y-76305676D02*
X102560571Y-76210438D01*
X102560571Y-76210438D02*
X102703428Y-76162819D01*
X102703428Y-76162819D02*
X102798666Y-76162819D01*
X102798666Y-76162819D02*
X102941523Y-76210438D01*
X102941523Y-76210438D02*
X102989142Y-76258057D01*
X103941523Y-77162819D02*
X103370095Y-77162819D01*
X103655809Y-77162819D02*
X103655809Y-76162819D01*
X103655809Y-76162819D02*
X103560571Y-76305676D01*
X103560571Y-76305676D02*
X103465333Y-76400914D01*
X103465333Y-76400914D02*
X103370095Y-76448533D01*
X104893904Y-77162819D02*
X104322476Y-77162819D01*
X104608190Y-77162819D02*
X104608190Y-76162819D01*
X104608190Y-76162819D02*
X104512952Y-76305676D01*
X104512952Y-76305676D02*
X104417714Y-76400914D01*
X104417714Y-76400914D02*
X104322476Y-76448533D01*
X130421142Y-111865580D02*
X130373523Y-111913200D01*
X130373523Y-111913200D02*
X130230666Y-111960819D01*
X130230666Y-111960819D02*
X130135428Y-111960819D01*
X130135428Y-111960819D02*
X129992571Y-111913200D01*
X129992571Y-111913200D02*
X129897333Y-111817961D01*
X129897333Y-111817961D02*
X129849714Y-111722723D01*
X129849714Y-111722723D02*
X129802095Y-111532247D01*
X129802095Y-111532247D02*
X129802095Y-111389390D01*
X129802095Y-111389390D02*
X129849714Y-111198914D01*
X129849714Y-111198914D02*
X129897333Y-111103676D01*
X129897333Y-111103676D02*
X129992571Y-111008438D01*
X129992571Y-111008438D02*
X130135428Y-110960819D01*
X130135428Y-110960819D02*
X130230666Y-110960819D01*
X130230666Y-110960819D02*
X130373523Y-111008438D01*
X130373523Y-111008438D02*
X130421142Y-111056057D01*
X130802095Y-111056057D02*
X130849714Y-111008438D01*
X130849714Y-111008438D02*
X130944952Y-110960819D01*
X130944952Y-110960819D02*
X131183047Y-110960819D01*
X131183047Y-110960819D02*
X131278285Y-111008438D01*
X131278285Y-111008438D02*
X131325904Y-111056057D01*
X131325904Y-111056057D02*
X131373523Y-111151295D01*
X131373523Y-111151295D02*
X131373523Y-111246533D01*
X131373523Y-111246533D02*
X131325904Y-111389390D01*
X131325904Y-111389390D02*
X130754476Y-111960819D01*
X130754476Y-111960819D02*
X131373523Y-111960819D01*
X131944952Y-111389390D02*
X131849714Y-111341771D01*
X131849714Y-111341771D02*
X131802095Y-111294152D01*
X131802095Y-111294152D02*
X131754476Y-111198914D01*
X131754476Y-111198914D02*
X131754476Y-111151295D01*
X131754476Y-111151295D02*
X131802095Y-111056057D01*
X131802095Y-111056057D02*
X131849714Y-111008438D01*
X131849714Y-111008438D02*
X131944952Y-110960819D01*
X131944952Y-110960819D02*
X132135428Y-110960819D01*
X132135428Y-110960819D02*
X132230666Y-111008438D01*
X132230666Y-111008438D02*
X132278285Y-111056057D01*
X132278285Y-111056057D02*
X132325904Y-111151295D01*
X132325904Y-111151295D02*
X132325904Y-111198914D01*
X132325904Y-111198914D02*
X132278285Y-111294152D01*
X132278285Y-111294152D02*
X132230666Y-111341771D01*
X132230666Y-111341771D02*
X132135428Y-111389390D01*
X132135428Y-111389390D02*
X131944952Y-111389390D01*
X131944952Y-111389390D02*
X131849714Y-111437009D01*
X131849714Y-111437009D02*
X131802095Y-111484628D01*
X131802095Y-111484628D02*
X131754476Y-111579866D01*
X131754476Y-111579866D02*
X131754476Y-111770342D01*
X131754476Y-111770342D02*
X131802095Y-111865580D01*
X131802095Y-111865580D02*
X131849714Y-111913200D01*
X131849714Y-111913200D02*
X131944952Y-111960819D01*
X131944952Y-111960819D02*
X132135428Y-111960819D01*
X132135428Y-111960819D02*
X132230666Y-111913200D01*
X132230666Y-111913200D02*
X132278285Y-111865580D01*
X132278285Y-111865580D02*
X132325904Y-111770342D01*
X132325904Y-111770342D02*
X132325904Y-111579866D01*
X132325904Y-111579866D02*
X132278285Y-111484628D01*
X132278285Y-111484628D02*
X132230666Y-111437009D01*
X132230666Y-111437009D02*
X132135428Y-111389390D01*
X111415980Y-103017857D02*
X111463600Y-103065476D01*
X111463600Y-103065476D02*
X111511219Y-103208333D01*
X111511219Y-103208333D02*
X111511219Y-103303571D01*
X111511219Y-103303571D02*
X111463600Y-103446428D01*
X111463600Y-103446428D02*
X111368361Y-103541666D01*
X111368361Y-103541666D02*
X111273123Y-103589285D01*
X111273123Y-103589285D02*
X111082647Y-103636904D01*
X111082647Y-103636904D02*
X110939790Y-103636904D01*
X110939790Y-103636904D02*
X110749314Y-103589285D01*
X110749314Y-103589285D02*
X110654076Y-103541666D01*
X110654076Y-103541666D02*
X110558838Y-103446428D01*
X110558838Y-103446428D02*
X110511219Y-103303571D01*
X110511219Y-103303571D02*
X110511219Y-103208333D01*
X110511219Y-103208333D02*
X110558838Y-103065476D01*
X110558838Y-103065476D02*
X110606457Y-103017857D01*
X111511219Y-102065476D02*
X111511219Y-102636904D01*
X111511219Y-102351190D02*
X110511219Y-102351190D01*
X110511219Y-102351190D02*
X110654076Y-102446428D01*
X110654076Y-102446428D02*
X110749314Y-102541666D01*
X110749314Y-102541666D02*
X110796933Y-102636904D01*
X110511219Y-101732142D02*
X110511219Y-101113095D01*
X110511219Y-101113095D02*
X110892171Y-101446428D01*
X110892171Y-101446428D02*
X110892171Y-101303571D01*
X110892171Y-101303571D02*
X110939790Y-101208333D01*
X110939790Y-101208333D02*
X110987409Y-101160714D01*
X110987409Y-101160714D02*
X111082647Y-101113095D01*
X111082647Y-101113095D02*
X111320742Y-101113095D01*
X111320742Y-101113095D02*
X111415980Y-101160714D01*
X111415980Y-101160714D02*
X111463600Y-101208333D01*
X111463600Y-101208333D02*
X111511219Y-101303571D01*
X111511219Y-101303571D02*
X111511219Y-101589285D01*
X111511219Y-101589285D02*
X111463600Y-101684523D01*
X111463600Y-101684523D02*
X111415980Y-101732142D01*
X122120819Y-127134857D02*
X121644628Y-127468190D01*
X122120819Y-127706285D02*
X121120819Y-127706285D01*
X121120819Y-127706285D02*
X121120819Y-127325333D01*
X121120819Y-127325333D02*
X121168438Y-127230095D01*
X121168438Y-127230095D02*
X121216057Y-127182476D01*
X121216057Y-127182476D02*
X121311295Y-127134857D01*
X121311295Y-127134857D02*
X121454152Y-127134857D01*
X121454152Y-127134857D02*
X121549390Y-127182476D01*
X121549390Y-127182476D02*
X121597009Y-127230095D01*
X121597009Y-127230095D02*
X121644628Y-127325333D01*
X121644628Y-127325333D02*
X121644628Y-127706285D01*
X122120819Y-126182476D02*
X122120819Y-126753904D01*
X122120819Y-126468190D02*
X121120819Y-126468190D01*
X121120819Y-126468190D02*
X121263676Y-126563428D01*
X121263676Y-126563428D02*
X121358914Y-126658666D01*
X121358914Y-126658666D02*
X121406533Y-126753904D01*
X121549390Y-125611047D02*
X121501771Y-125706285D01*
X121501771Y-125706285D02*
X121454152Y-125753904D01*
X121454152Y-125753904D02*
X121358914Y-125801523D01*
X121358914Y-125801523D02*
X121311295Y-125801523D01*
X121311295Y-125801523D02*
X121216057Y-125753904D01*
X121216057Y-125753904D02*
X121168438Y-125706285D01*
X121168438Y-125706285D02*
X121120819Y-125611047D01*
X121120819Y-125611047D02*
X121120819Y-125420571D01*
X121120819Y-125420571D02*
X121168438Y-125325333D01*
X121168438Y-125325333D02*
X121216057Y-125277714D01*
X121216057Y-125277714D02*
X121311295Y-125230095D01*
X121311295Y-125230095D02*
X121358914Y-125230095D01*
X121358914Y-125230095D02*
X121454152Y-125277714D01*
X121454152Y-125277714D02*
X121501771Y-125325333D01*
X121501771Y-125325333D02*
X121549390Y-125420571D01*
X121549390Y-125420571D02*
X121549390Y-125611047D01*
X121549390Y-125611047D02*
X121597009Y-125706285D01*
X121597009Y-125706285D02*
X121644628Y-125753904D01*
X121644628Y-125753904D02*
X121739866Y-125801523D01*
X121739866Y-125801523D02*
X121930342Y-125801523D01*
X121930342Y-125801523D02*
X122025580Y-125753904D01*
X122025580Y-125753904D02*
X122073200Y-125706285D01*
X122073200Y-125706285D02*
X122120819Y-125611047D01*
X122120819Y-125611047D02*
X122120819Y-125420571D01*
X122120819Y-125420571D02*
X122073200Y-125325333D01*
X122073200Y-125325333D02*
X122025580Y-125277714D01*
X122025580Y-125277714D02*
X121930342Y-125230095D01*
X121930342Y-125230095D02*
X121739866Y-125230095D01*
X121739866Y-125230095D02*
X121644628Y-125277714D01*
X121644628Y-125277714D02*
X121597009Y-125325333D01*
X121597009Y-125325333D02*
X121549390Y-125420571D01*
X144192666Y-125184819D02*
X144192666Y-125899104D01*
X144192666Y-125899104D02*
X144145047Y-126041961D01*
X144145047Y-126041961D02*
X144049809Y-126137200D01*
X144049809Y-126137200D02*
X143906952Y-126184819D01*
X143906952Y-126184819D02*
X143811714Y-126184819D01*
X145097428Y-125184819D02*
X144906952Y-125184819D01*
X144906952Y-125184819D02*
X144811714Y-125232438D01*
X144811714Y-125232438D02*
X144764095Y-125280057D01*
X144764095Y-125280057D02*
X144668857Y-125422914D01*
X144668857Y-125422914D02*
X144621238Y-125613390D01*
X144621238Y-125613390D02*
X144621238Y-125994342D01*
X144621238Y-125994342D02*
X144668857Y-126089580D01*
X144668857Y-126089580D02*
X144716476Y-126137200D01*
X144716476Y-126137200D02*
X144811714Y-126184819D01*
X144811714Y-126184819D02*
X145002190Y-126184819D01*
X145002190Y-126184819D02*
X145097428Y-126137200D01*
X145097428Y-126137200D02*
X145145047Y-126089580D01*
X145145047Y-126089580D02*
X145192666Y-125994342D01*
X145192666Y-125994342D02*
X145192666Y-125756247D01*
X145192666Y-125756247D02*
X145145047Y-125661009D01*
X145145047Y-125661009D02*
X145097428Y-125613390D01*
X145097428Y-125613390D02*
X145002190Y-125565771D01*
X145002190Y-125565771D02*
X144811714Y-125565771D01*
X144811714Y-125565771D02*
X144716476Y-125613390D01*
X144716476Y-125613390D02*
X144668857Y-125661009D01*
X144668857Y-125661009D02*
X144621238Y-125756247D01*
X139297580Y-110624857D02*
X139345200Y-110672476D01*
X139345200Y-110672476D02*
X139392819Y-110815333D01*
X139392819Y-110815333D02*
X139392819Y-110910571D01*
X139392819Y-110910571D02*
X139345200Y-111053428D01*
X139345200Y-111053428D02*
X139249961Y-111148666D01*
X139249961Y-111148666D02*
X139154723Y-111196285D01*
X139154723Y-111196285D02*
X138964247Y-111243904D01*
X138964247Y-111243904D02*
X138821390Y-111243904D01*
X138821390Y-111243904D02*
X138630914Y-111196285D01*
X138630914Y-111196285D02*
X138535676Y-111148666D01*
X138535676Y-111148666D02*
X138440438Y-111053428D01*
X138440438Y-111053428D02*
X138392819Y-110910571D01*
X138392819Y-110910571D02*
X138392819Y-110815333D01*
X138392819Y-110815333D02*
X138440438Y-110672476D01*
X138440438Y-110672476D02*
X138488057Y-110624857D01*
X138488057Y-110243904D02*
X138440438Y-110196285D01*
X138440438Y-110196285D02*
X138392819Y-110101047D01*
X138392819Y-110101047D02*
X138392819Y-109862952D01*
X138392819Y-109862952D02*
X138440438Y-109767714D01*
X138440438Y-109767714D02*
X138488057Y-109720095D01*
X138488057Y-109720095D02*
X138583295Y-109672476D01*
X138583295Y-109672476D02*
X138678533Y-109672476D01*
X138678533Y-109672476D02*
X138821390Y-109720095D01*
X138821390Y-109720095D02*
X139392819Y-110291523D01*
X139392819Y-110291523D02*
X139392819Y-109672476D01*
X139392819Y-109196285D02*
X139392819Y-109005809D01*
X139392819Y-109005809D02*
X139345200Y-108910571D01*
X139345200Y-108910571D02*
X139297580Y-108862952D01*
X139297580Y-108862952D02*
X139154723Y-108767714D01*
X139154723Y-108767714D02*
X138964247Y-108720095D01*
X138964247Y-108720095D02*
X138583295Y-108720095D01*
X138583295Y-108720095D02*
X138488057Y-108767714D01*
X138488057Y-108767714D02*
X138440438Y-108815333D01*
X138440438Y-108815333D02*
X138392819Y-108910571D01*
X138392819Y-108910571D02*
X138392819Y-109101047D01*
X138392819Y-109101047D02*
X138440438Y-109196285D01*
X138440438Y-109196285D02*
X138488057Y-109243904D01*
X138488057Y-109243904D02*
X138583295Y-109291523D01*
X138583295Y-109291523D02*
X138821390Y-109291523D01*
X138821390Y-109291523D02*
X138916628Y-109243904D01*
X138916628Y-109243904D02*
X138964247Y-109196285D01*
X138964247Y-109196285D02*
X139011866Y-109101047D01*
X139011866Y-109101047D02*
X139011866Y-108910571D01*
X139011866Y-108910571D02*
X138964247Y-108815333D01*
X138964247Y-108815333D02*
X138916628Y-108767714D01*
X138916628Y-108767714D02*
X138821390Y-108720095D01*
X136009142Y-102721580D02*
X135961523Y-102769200D01*
X135961523Y-102769200D02*
X135818666Y-102816819D01*
X135818666Y-102816819D02*
X135723428Y-102816819D01*
X135723428Y-102816819D02*
X135580571Y-102769200D01*
X135580571Y-102769200D02*
X135485333Y-102673961D01*
X135485333Y-102673961D02*
X135437714Y-102578723D01*
X135437714Y-102578723D02*
X135390095Y-102388247D01*
X135390095Y-102388247D02*
X135390095Y-102245390D01*
X135390095Y-102245390D02*
X135437714Y-102054914D01*
X135437714Y-102054914D02*
X135485333Y-101959676D01*
X135485333Y-101959676D02*
X135580571Y-101864438D01*
X135580571Y-101864438D02*
X135723428Y-101816819D01*
X135723428Y-101816819D02*
X135818666Y-101816819D01*
X135818666Y-101816819D02*
X135961523Y-101864438D01*
X135961523Y-101864438D02*
X136009142Y-101912057D01*
X136342476Y-101816819D02*
X136961523Y-101816819D01*
X136961523Y-101816819D02*
X136628190Y-102197771D01*
X136628190Y-102197771D02*
X136771047Y-102197771D01*
X136771047Y-102197771D02*
X136866285Y-102245390D01*
X136866285Y-102245390D02*
X136913904Y-102293009D01*
X136913904Y-102293009D02*
X136961523Y-102388247D01*
X136961523Y-102388247D02*
X136961523Y-102626342D01*
X136961523Y-102626342D02*
X136913904Y-102721580D01*
X136913904Y-102721580D02*
X136866285Y-102769200D01*
X136866285Y-102769200D02*
X136771047Y-102816819D01*
X136771047Y-102816819D02*
X136485333Y-102816819D01*
X136485333Y-102816819D02*
X136390095Y-102769200D01*
X136390095Y-102769200D02*
X136342476Y-102721580D01*
X137580571Y-101816819D02*
X137675809Y-101816819D01*
X137675809Y-101816819D02*
X137771047Y-101864438D01*
X137771047Y-101864438D02*
X137818666Y-101912057D01*
X137818666Y-101912057D02*
X137866285Y-102007295D01*
X137866285Y-102007295D02*
X137913904Y-102197771D01*
X137913904Y-102197771D02*
X137913904Y-102435866D01*
X137913904Y-102435866D02*
X137866285Y-102626342D01*
X137866285Y-102626342D02*
X137818666Y-102721580D01*
X137818666Y-102721580D02*
X137771047Y-102769200D01*
X137771047Y-102769200D02*
X137675809Y-102816819D01*
X137675809Y-102816819D02*
X137580571Y-102816819D01*
X137580571Y-102816819D02*
X137485333Y-102769200D01*
X137485333Y-102769200D02*
X137437714Y-102721580D01*
X137437714Y-102721580D02*
X137390095Y-102626342D01*
X137390095Y-102626342D02*
X137342476Y-102435866D01*
X137342476Y-102435866D02*
X137342476Y-102197771D01*
X137342476Y-102197771D02*
X137390095Y-102007295D01*
X137390095Y-102007295D02*
X137437714Y-101912057D01*
X137437714Y-101912057D02*
X137485333Y-101864438D01*
X137485333Y-101864438D02*
X137580571Y-101816819D01*
X133557180Y-126912666D02*
X133604800Y-126960285D01*
X133604800Y-126960285D02*
X133652419Y-127103142D01*
X133652419Y-127103142D02*
X133652419Y-127198380D01*
X133652419Y-127198380D02*
X133604800Y-127341237D01*
X133604800Y-127341237D02*
X133509561Y-127436475D01*
X133509561Y-127436475D02*
X133414323Y-127484094D01*
X133414323Y-127484094D02*
X133223847Y-127531713D01*
X133223847Y-127531713D02*
X133080990Y-127531713D01*
X133080990Y-127531713D02*
X132890514Y-127484094D01*
X132890514Y-127484094D02*
X132795276Y-127436475D01*
X132795276Y-127436475D02*
X132700038Y-127341237D01*
X132700038Y-127341237D02*
X132652419Y-127198380D01*
X132652419Y-127198380D02*
X132652419Y-127103142D01*
X132652419Y-127103142D02*
X132700038Y-126960285D01*
X132700038Y-126960285D02*
X132747657Y-126912666D01*
X132747657Y-126531713D02*
X132700038Y-126484094D01*
X132700038Y-126484094D02*
X132652419Y-126388856D01*
X132652419Y-126388856D02*
X132652419Y-126150761D01*
X132652419Y-126150761D02*
X132700038Y-126055523D01*
X132700038Y-126055523D02*
X132747657Y-126007904D01*
X132747657Y-126007904D02*
X132842895Y-125960285D01*
X132842895Y-125960285D02*
X132938133Y-125960285D01*
X132938133Y-125960285D02*
X133080990Y-126007904D01*
X133080990Y-126007904D02*
X133652419Y-126579332D01*
X133652419Y-126579332D02*
X133652419Y-125960285D01*
X128470819Y-127134857D02*
X127994628Y-127468190D01*
X128470819Y-127706285D02*
X127470819Y-127706285D01*
X127470819Y-127706285D02*
X127470819Y-127325333D01*
X127470819Y-127325333D02*
X127518438Y-127230095D01*
X127518438Y-127230095D02*
X127566057Y-127182476D01*
X127566057Y-127182476D02*
X127661295Y-127134857D01*
X127661295Y-127134857D02*
X127804152Y-127134857D01*
X127804152Y-127134857D02*
X127899390Y-127182476D01*
X127899390Y-127182476D02*
X127947009Y-127230095D01*
X127947009Y-127230095D02*
X127994628Y-127325333D01*
X127994628Y-127325333D02*
X127994628Y-127706285D01*
X128470819Y-126182476D02*
X128470819Y-126753904D01*
X128470819Y-126468190D02*
X127470819Y-126468190D01*
X127470819Y-126468190D02*
X127613676Y-126563428D01*
X127613676Y-126563428D02*
X127708914Y-126658666D01*
X127708914Y-126658666D02*
X127756533Y-126753904D01*
X127470819Y-125849142D02*
X127470819Y-125182476D01*
X127470819Y-125182476D02*
X128470819Y-125611047D01*
X122882819Y-72810666D02*
X122406628Y-73143999D01*
X122882819Y-73382094D02*
X121882819Y-73382094D01*
X121882819Y-73382094D02*
X121882819Y-73001142D01*
X121882819Y-73001142D02*
X121930438Y-72905904D01*
X121930438Y-72905904D02*
X121978057Y-72858285D01*
X121978057Y-72858285D02*
X122073295Y-72810666D01*
X122073295Y-72810666D02*
X122216152Y-72810666D01*
X122216152Y-72810666D02*
X122311390Y-72858285D01*
X122311390Y-72858285D02*
X122359009Y-72905904D01*
X122359009Y-72905904D02*
X122406628Y-73001142D01*
X122406628Y-73001142D02*
X122406628Y-73382094D01*
X122882819Y-71858285D02*
X122882819Y-72429713D01*
X122882819Y-72143999D02*
X121882819Y-72143999D01*
X121882819Y-72143999D02*
X122025676Y-72239237D01*
X122025676Y-72239237D02*
X122120914Y-72334475D01*
X122120914Y-72334475D02*
X122168533Y-72429713D01*
X64367580Y-92876666D02*
X64415200Y-92924285D01*
X64415200Y-92924285D02*
X64462819Y-93067142D01*
X64462819Y-93067142D02*
X64462819Y-93162380D01*
X64462819Y-93162380D02*
X64415200Y-93305237D01*
X64415200Y-93305237D02*
X64319961Y-93400475D01*
X64319961Y-93400475D02*
X64224723Y-93448094D01*
X64224723Y-93448094D02*
X64034247Y-93495713D01*
X64034247Y-93495713D02*
X63891390Y-93495713D01*
X63891390Y-93495713D02*
X63700914Y-93448094D01*
X63700914Y-93448094D02*
X63605676Y-93400475D01*
X63605676Y-93400475D02*
X63510438Y-93305237D01*
X63510438Y-93305237D02*
X63462819Y-93162380D01*
X63462819Y-93162380D02*
X63462819Y-93067142D01*
X63462819Y-93067142D02*
X63510438Y-92924285D01*
X63510438Y-92924285D02*
X63558057Y-92876666D01*
X64462819Y-91924285D02*
X64462819Y-92495713D01*
X64462819Y-92209999D02*
X63462819Y-92209999D01*
X63462819Y-92209999D02*
X63605676Y-92305237D01*
X63605676Y-92305237D02*
X63700914Y-92400475D01*
X63700914Y-92400475D02*
X63748533Y-92495713D01*
X95720819Y-77184094D02*
X96530342Y-77184094D01*
X96530342Y-77184094D02*
X96625580Y-77136475D01*
X96625580Y-77136475D02*
X96673200Y-77088856D01*
X96673200Y-77088856D02*
X96720819Y-76993618D01*
X96720819Y-76993618D02*
X96720819Y-76803142D01*
X96720819Y-76803142D02*
X96673200Y-76707904D01*
X96673200Y-76707904D02*
X96625580Y-76660285D01*
X96625580Y-76660285D02*
X96530342Y-76612666D01*
X96530342Y-76612666D02*
X95720819Y-76612666D01*
X96720819Y-75612666D02*
X96720819Y-76184094D01*
X96720819Y-75898380D02*
X95720819Y-75898380D01*
X95720819Y-75898380D02*
X95863676Y-75993618D01*
X95863676Y-75993618D02*
X95958914Y-76088856D01*
X95958914Y-76088856D02*
X96006533Y-76184094D01*
X96720819Y-74660285D02*
X96720819Y-75231713D01*
X96720819Y-74945999D02*
X95720819Y-74945999D01*
X95720819Y-74945999D02*
X95863676Y-75041237D01*
X95863676Y-75041237D02*
X95958914Y-75136475D01*
X95958914Y-75136475D02*
X96006533Y-75231713D01*
X138060133Y-123955980D02*
X138012514Y-124003600D01*
X138012514Y-124003600D02*
X137869657Y-124051219D01*
X137869657Y-124051219D02*
X137774419Y-124051219D01*
X137774419Y-124051219D02*
X137631562Y-124003600D01*
X137631562Y-124003600D02*
X137536324Y-123908361D01*
X137536324Y-123908361D02*
X137488705Y-123813123D01*
X137488705Y-123813123D02*
X137441086Y-123622647D01*
X137441086Y-123622647D02*
X137441086Y-123479790D01*
X137441086Y-123479790D02*
X137488705Y-123289314D01*
X137488705Y-123289314D02*
X137536324Y-123194076D01*
X137536324Y-123194076D02*
X137631562Y-123098838D01*
X137631562Y-123098838D02*
X137774419Y-123051219D01*
X137774419Y-123051219D02*
X137869657Y-123051219D01*
X137869657Y-123051219D02*
X138012514Y-123098838D01*
X138012514Y-123098838D02*
X138060133Y-123146457D01*
X138393467Y-123051219D02*
X139060133Y-123051219D01*
X139060133Y-123051219D02*
X138631562Y-124051219D01*
X95462819Y-64698523D02*
X96177104Y-64698523D01*
X96177104Y-64698523D02*
X96319961Y-64746142D01*
X96319961Y-64746142D02*
X96415200Y-64841380D01*
X96415200Y-64841380D02*
X96462819Y-64984237D01*
X96462819Y-64984237D02*
X96462819Y-65079475D01*
X96462819Y-63698523D02*
X96462819Y-64269951D01*
X96462819Y-63984237D02*
X95462819Y-63984237D01*
X95462819Y-63984237D02*
X95605676Y-64079475D01*
X95605676Y-64079475D02*
X95700914Y-64174713D01*
X95700914Y-64174713D02*
X95748533Y-64269951D01*
X95462819Y-63079475D02*
X95462819Y-62984237D01*
X95462819Y-62984237D02*
X95510438Y-62888999D01*
X95510438Y-62888999D02*
X95558057Y-62841380D01*
X95558057Y-62841380D02*
X95653295Y-62793761D01*
X95653295Y-62793761D02*
X95843771Y-62746142D01*
X95843771Y-62746142D02*
X96081866Y-62746142D01*
X96081866Y-62746142D02*
X96272342Y-62793761D01*
X96272342Y-62793761D02*
X96367580Y-62841380D01*
X96367580Y-62841380D02*
X96415200Y-62888999D01*
X96415200Y-62888999D02*
X96462819Y-62984237D01*
X96462819Y-62984237D02*
X96462819Y-63079475D01*
X96462819Y-63079475D02*
X96415200Y-63174713D01*
X96415200Y-63174713D02*
X96367580Y-63222332D01*
X96367580Y-63222332D02*
X96272342Y-63269951D01*
X96272342Y-63269951D02*
X96081866Y-63317570D01*
X96081866Y-63317570D02*
X95843771Y-63317570D01*
X95843771Y-63317570D02*
X95653295Y-63269951D01*
X95653295Y-63269951D02*
X95558057Y-63222332D01*
X95558057Y-63222332D02*
X95510438Y-63174713D01*
X95510438Y-63174713D02*
X95462819Y-63079475D01*
D13*
X147954000Y-68026000D02*
X147954000Y-62516000D01*
X144654000Y-68026000D02*
X147954000Y-68026000D01*
X144654000Y-68026000D02*
X144654000Y-62516000D01*
X141330000Y-91389252D02*
X141330000Y-89966748D01*
X143150000Y-91389252D02*
X143150000Y-89966748D01*
X64576000Y-124520000D02*
X63246000Y-124520000D01*
X64576000Y-123190000D02*
X64576000Y-124520000D01*
X64576000Y-121920000D02*
X64576000Y-116780000D01*
X64576000Y-121920000D02*
X61976000Y-121920000D01*
X64576000Y-116780000D02*
X59376000Y-116780000D01*
X61976000Y-124520000D02*
X59376000Y-124520000D01*
X61976000Y-121920000D02*
X61976000Y-124520000D01*
X59376000Y-124520000D02*
X59376000Y-116780000D01*
X144245225Y-70153000D02*
X144745225Y-70153000D01*
X144495225Y-69903000D02*
X144495225Y-70403000D01*
X147050000Y-69048000D02*
X147050000Y-70588000D01*
X147050000Y-72668000D02*
X147050000Y-74208000D01*
X147090000Y-69048000D02*
X147090000Y-70588000D01*
X147090000Y-72668000D02*
X147090000Y-74208000D01*
X147130000Y-69049000D02*
X147130000Y-70588000D01*
X147130000Y-72668000D02*
X147130000Y-74207000D01*
X147170000Y-69050000D02*
X147170000Y-70588000D01*
X147170000Y-72668000D02*
X147170000Y-74206000D01*
X147210000Y-69052000D02*
X147210000Y-70588000D01*
X147210000Y-72668000D02*
X147210000Y-74204000D01*
X147250000Y-69055000D02*
X147250000Y-70588000D01*
X147250000Y-72668000D02*
X147250000Y-74201000D01*
X147290000Y-69059000D02*
X147290000Y-70588000D01*
X147290000Y-72668000D02*
X147290000Y-74197000D01*
X147330000Y-69063000D02*
X147330000Y-70588000D01*
X147330000Y-72668000D02*
X147330000Y-74193000D01*
X147370000Y-69067000D02*
X147370000Y-70588000D01*
X147370000Y-72668000D02*
X147370000Y-74189000D01*
X147410000Y-69072000D02*
X147410000Y-70588000D01*
X147410000Y-72668000D02*
X147410000Y-74184000D01*
X147450000Y-69078000D02*
X147450000Y-70588000D01*
X147450000Y-72668000D02*
X147450000Y-74178000D01*
X147490000Y-69085000D02*
X147490000Y-70588000D01*
X147490000Y-72668000D02*
X147490000Y-74171000D01*
X147530000Y-69092000D02*
X147530000Y-70588000D01*
X147530000Y-72668000D02*
X147530000Y-74164000D01*
X147570000Y-69100000D02*
X147570000Y-70588000D01*
X147570000Y-72668000D02*
X147570000Y-74156000D01*
X147610000Y-69108000D02*
X147610000Y-70588000D01*
X147610000Y-72668000D02*
X147610000Y-74148000D01*
X147650000Y-69117000D02*
X147650000Y-70588000D01*
X147650000Y-72668000D02*
X147650000Y-74139000D01*
X147690000Y-69127000D02*
X147690000Y-70588000D01*
X147690000Y-72668000D02*
X147690000Y-74129000D01*
X147730000Y-69137000D02*
X147730000Y-70588000D01*
X147730000Y-72668000D02*
X147730000Y-74119000D01*
X147771000Y-69148000D02*
X147771000Y-70588000D01*
X147771000Y-72668000D02*
X147771000Y-74108000D01*
X147811000Y-69160000D02*
X147811000Y-70588000D01*
X147811000Y-72668000D02*
X147811000Y-74096000D01*
X147851000Y-69173000D02*
X147851000Y-70588000D01*
X147851000Y-72668000D02*
X147851000Y-74083000D01*
X147891000Y-69186000D02*
X147891000Y-70588000D01*
X147891000Y-72668000D02*
X147891000Y-74070000D01*
X147931000Y-69200000D02*
X147931000Y-70588000D01*
X147931000Y-72668000D02*
X147931000Y-74056000D01*
X147971000Y-69214000D02*
X147971000Y-70588000D01*
X147971000Y-72668000D02*
X147971000Y-74042000D01*
X148011000Y-69230000D02*
X148011000Y-70588000D01*
X148011000Y-72668000D02*
X148011000Y-74026000D01*
X148051000Y-69246000D02*
X148051000Y-70588000D01*
X148051000Y-72668000D02*
X148051000Y-74010000D01*
X148091000Y-69263000D02*
X148091000Y-70588000D01*
X148091000Y-72668000D02*
X148091000Y-73993000D01*
X148131000Y-69280000D02*
X148131000Y-70588000D01*
X148131000Y-72668000D02*
X148131000Y-73976000D01*
X148171000Y-69299000D02*
X148171000Y-70588000D01*
X148171000Y-72668000D02*
X148171000Y-73957000D01*
X148211000Y-69318000D02*
X148211000Y-70588000D01*
X148211000Y-72668000D02*
X148211000Y-73938000D01*
X148251000Y-69338000D02*
X148251000Y-70588000D01*
X148251000Y-72668000D02*
X148251000Y-73918000D01*
X148291000Y-69360000D02*
X148291000Y-70588000D01*
X148291000Y-72668000D02*
X148291000Y-73896000D01*
X148331000Y-69381000D02*
X148331000Y-70588000D01*
X148331000Y-72668000D02*
X148331000Y-73875000D01*
X148371000Y-69404000D02*
X148371000Y-70588000D01*
X148371000Y-72668000D02*
X148371000Y-73852000D01*
X148411000Y-69428000D02*
X148411000Y-70588000D01*
X148411000Y-72668000D02*
X148411000Y-73828000D01*
X148451000Y-69453000D02*
X148451000Y-70588000D01*
X148451000Y-72668000D02*
X148451000Y-73803000D01*
X148491000Y-69479000D02*
X148491000Y-70588000D01*
X148491000Y-72668000D02*
X148491000Y-73777000D01*
X148531000Y-69506000D02*
X148531000Y-70588000D01*
X148531000Y-72668000D02*
X148531000Y-73750000D01*
X148571000Y-69533000D02*
X148571000Y-70588000D01*
X148571000Y-72668000D02*
X148571000Y-73723000D01*
X148611000Y-69563000D02*
X148611000Y-70588000D01*
X148611000Y-72668000D02*
X148611000Y-73693000D01*
X148651000Y-69593000D02*
X148651000Y-70588000D01*
X148651000Y-72668000D02*
X148651000Y-73663000D01*
X148691000Y-69624000D02*
X148691000Y-70588000D01*
X148691000Y-72668000D02*
X148691000Y-73632000D01*
X148731000Y-69657000D02*
X148731000Y-70588000D01*
X148731000Y-72668000D02*
X148731000Y-73599000D01*
X148771000Y-69691000D02*
X148771000Y-70588000D01*
X148771000Y-72668000D02*
X148771000Y-73565000D01*
X148811000Y-69727000D02*
X148811000Y-70588000D01*
X148811000Y-72668000D02*
X148811000Y-73529000D01*
X148851000Y-69764000D02*
X148851000Y-70588000D01*
X148851000Y-72668000D02*
X148851000Y-73492000D01*
X148891000Y-69802000D02*
X148891000Y-70588000D01*
X148891000Y-72668000D02*
X148891000Y-73454000D01*
X148931000Y-69843000D02*
X148931000Y-70588000D01*
X148931000Y-72668000D02*
X148931000Y-73413000D01*
X148971000Y-69885000D02*
X148971000Y-70588000D01*
X148971000Y-72668000D02*
X148971000Y-73371000D01*
X149011000Y-69929000D02*
X149011000Y-70588000D01*
X149011000Y-72668000D02*
X149011000Y-73327000D01*
X149051000Y-69975000D02*
X149051000Y-70588000D01*
X149051000Y-72668000D02*
X149051000Y-73281000D01*
X149091000Y-70023000D02*
X149091000Y-73233000D01*
X149131000Y-70074000D02*
X149131000Y-73182000D01*
X149171000Y-70128000D02*
X149171000Y-73128000D01*
X149211000Y-70185000D02*
X149211000Y-73071000D01*
X149251000Y-70245000D02*
X149251000Y-73011000D01*
X149291000Y-70309000D02*
X149291000Y-72947000D01*
X149331000Y-70377000D02*
X149331000Y-72879000D01*
X149371000Y-70450000D02*
X149371000Y-72806000D01*
X149411000Y-70530000D02*
X149411000Y-72726000D01*
X149451000Y-70617000D02*
X149451000Y-72639000D01*
X149491000Y-70713000D02*
X149491000Y-72543000D01*
X149531000Y-70823000D02*
X149531000Y-72433000D01*
X149571000Y-70951000D02*
X149571000Y-72305000D01*
X149611000Y-71110000D02*
X149611000Y-72146000D01*
X149651000Y-71344000D02*
X149651000Y-71912000D01*
X149670000Y-71628000D02*
G75*
G03*
X144430000Y-71628000I-2620000J0D01*
G01*
X144430000Y-71628000D02*
G75*
G03*
X149670000Y-71628000I2620000J0D01*
G01*
X57344000Y-87436000D02*
X57344000Y-86106000D01*
X58674000Y-87436000D02*
X57344000Y-87436000D01*
X59944000Y-87436000D02*
X70164000Y-87436000D01*
X59944000Y-87436000D02*
X59944000Y-84836000D01*
X70164000Y-87436000D02*
X70164000Y-82236000D01*
X57344000Y-84836000D02*
X57344000Y-82236000D01*
X59944000Y-84836000D02*
X57344000Y-84836000D01*
X57344000Y-82236000D02*
X70164000Y-82236000D01*
X70789436Y-88673000D02*
X71243564Y-88673000D01*
X70789436Y-90143000D02*
X71243564Y-90143000D01*
X66979436Y-88673000D02*
X67433564Y-88673000D01*
X66979436Y-90143000D02*
X67433564Y-90143000D01*
X68860936Y-79783000D02*
X69315064Y-79783000D01*
X68860936Y-81253000D02*
X69315064Y-81253000D01*
X118223420Y-91438000D02*
X118504580Y-91438000D01*
X118223420Y-92458000D02*
X118504580Y-92458000D01*
X109499980Y-78742000D02*
X109218820Y-78742000D01*
X109499980Y-77722000D02*
X109218820Y-77722000D01*
X94107580Y-90426000D02*
X93826420Y-90426000D01*
X94107580Y-89406000D02*
X93826420Y-89406000D01*
X118223420Y-89406000D02*
X118504580Y-89406000D01*
X118223420Y-90426000D02*
X118504580Y-90426000D01*
X94107580Y-88444800D02*
X93826420Y-88444800D01*
X94107580Y-87424800D02*
X93826420Y-87424800D01*
D12*
X144994000Y-110998000D02*
X144994000Y-110998000D01*
X144962068Y-111396295D02*
X144962068Y-111396295D01*
X144867088Y-111784416D02*
X144867088Y-111784416D01*
X144711487Y-112152447D02*
X144711487Y-112152447D01*
X144499239Y-112490988D02*
X144499239Y-112490988D01*
X144235766Y-112791390D02*
X144235766Y-112791390D01*
X143927799Y-113045978D02*
X143927799Y-113045978D01*
X143583206Y-113248251D02*
X143583206Y-113248251D01*
X143210788Y-113393039D02*
X143210788Y-113393039D01*
X142820059Y-113476645D02*
X142820059Y-113476645D01*
X142421001Y-113496934D02*
X142421001Y-113496934D01*
X142023807Y-113453385D02*
X142023807Y-113453385D01*
X141638625Y-113347113D02*
X141638625Y-113347113D01*
X141275294Y-113180832D02*
X141275294Y-113180832D01*
X140943095Y-112958789D02*
X140943095Y-112958789D01*
X140650515Y-112686657D02*
X140650515Y-112686657D01*
X140405028Y-112371388D02*
X140405028Y-112371388D01*
X140212904Y-112021035D02*
X140212904Y-112021035D01*
X140079051Y-111644548D02*
X140079051Y-111644548D01*
X140006890Y-111251544D02*
X140006890Y-111251544D01*
X139998263Y-110852064D02*
X139998263Y-110852064D01*
X140053390Y-110456312D02*
X140053390Y-110456312D01*
X140170864Y-110074397D02*
X140170864Y-110074397D01*
X140347683Y-109716076D02*
X140347683Y-109716076D01*
X140579331Y-109390503D02*
X140579331Y-109390503D01*
X140859890Y-109105993D02*
X140859890Y-109105993D01*
X141182194Y-108869816D02*
X141182194Y-108869816D01*
X141538007Y-108688004D02*
X141538007Y-108688004D01*
X141918242Y-108565202D02*
X141918242Y-108565202D01*
X142313185Y-108504547D02*
X142313185Y-108504547D01*
X142712747Y-108507588D02*
X142712747Y-108507588D01*
X143106721Y-108574248D02*
X143106721Y-108574248D01*
X143485043Y-108702823D02*
X143485043Y-108702823D01*
X143838048Y-108890030D02*
X143838048Y-108890030D01*
X144156718Y-109131086D02*
X144156718Y-109131086D01*
X144432914Y-109419833D02*
X144432914Y-109419833D01*
X144659580Y-109748895D02*
X144659580Y-109748895D01*
X144830924Y-110109866D02*
X144830924Y-110109866D01*
X144942571Y-110493524D02*
X144942571Y-110493524D01*
X144991669Y-110890070D02*
X144991669Y-110890070D01*
X144994000Y-76962000D02*
X144994000Y-76962000D01*
X144962068Y-77360295D02*
X144962068Y-77360295D01*
X144867088Y-77748416D02*
X144867088Y-77748416D01*
X144711487Y-78116447D02*
X144711487Y-78116447D01*
X144499239Y-78454988D02*
X144499239Y-78454988D01*
X144235766Y-78755390D02*
X144235766Y-78755390D01*
X143927799Y-79009978D02*
X143927799Y-79009978D01*
X143583206Y-79212251D02*
X143583206Y-79212251D01*
X143210788Y-79357039D02*
X143210788Y-79357039D01*
X142820059Y-79440645D02*
X142820059Y-79440645D01*
X142421001Y-79460934D02*
X142421001Y-79460934D01*
X142023807Y-79417385D02*
X142023807Y-79417385D01*
X141638625Y-79311113D02*
X141638625Y-79311113D01*
X141275294Y-79144832D02*
X141275294Y-79144832D01*
X140943095Y-78922789D02*
X140943095Y-78922789D01*
X140650515Y-78650657D02*
X140650515Y-78650657D01*
X140405028Y-78335388D02*
X140405028Y-78335388D01*
X140212904Y-77985035D02*
X140212904Y-77985035D01*
X140079051Y-77608548D02*
X140079051Y-77608548D01*
X140006890Y-77215544D02*
X140006890Y-77215544D01*
X139998263Y-76816064D02*
X139998263Y-76816064D01*
X140053390Y-76420312D02*
X140053390Y-76420312D01*
X140170864Y-76038397D02*
X140170864Y-76038397D01*
X140347683Y-75680076D02*
X140347683Y-75680076D01*
X140579331Y-75354503D02*
X140579331Y-75354503D01*
X140859890Y-75069993D02*
X140859890Y-75069993D01*
X141182194Y-74833816D02*
X141182194Y-74833816D01*
X141538007Y-74652004D02*
X141538007Y-74652004D01*
X141918242Y-74529202D02*
X141918242Y-74529202D01*
X142313185Y-74468547D02*
X142313185Y-74468547D01*
X142712747Y-74471588D02*
X142712747Y-74471588D01*
X143106721Y-74538248D02*
X143106721Y-74538248D01*
X143485043Y-74666823D02*
X143485043Y-74666823D01*
X143838048Y-74854030D02*
X143838048Y-74854030D01*
X144156718Y-75095086D02*
X144156718Y-75095086D01*
X144432914Y-75383833D02*
X144432914Y-75383833D01*
X144659580Y-75712895D02*
X144659580Y-75712895D01*
X144830924Y-76073866D02*
X144830924Y-76073866D01*
X144942571Y-76457524D02*
X144942571Y-76457524D01*
X144991669Y-76854070D02*
X144991669Y-76854070D01*
D13*
X147290000Y-107296000D02*
X143530000Y-107296000D01*
X147290000Y-100476000D02*
X143530000Y-100476000D01*
X143530000Y-107296000D02*
X143530000Y-106036000D01*
X143530000Y-100476000D02*
X143530000Y-101736000D01*
X148810000Y-107526000D02*
X148330000Y-107526000D01*
X148570000Y-107196000D01*
X148810000Y-107526000D01*
G36*
X148810000Y-107526000D02*
G01*
X148330000Y-107526000D01*
X148570000Y-107196000D01*
X148810000Y-107526000D01*
G37*
X137522000Y-90962000D02*
X137522000Y-94722000D01*
X130702000Y-90962000D02*
X130702000Y-94722000D01*
X137522000Y-94722000D02*
X136262000Y-94722000D01*
X130702000Y-94722000D02*
X131962000Y-94722000D01*
X137752000Y-89922000D02*
X137422000Y-89682000D01*
X137752000Y-89442000D01*
X137752000Y-89922000D01*
G36*
X137752000Y-89922000D02*
G01*
X137422000Y-89682000D01*
X137752000Y-89442000D01*
X137752000Y-89922000D01*
G37*
X140314000Y-97944252D02*
X140314000Y-96521748D01*
X142134000Y-97944252D02*
X142134000Y-96521748D01*
X137109252Y-99970000D02*
X135686748Y-99970000D01*
X137109252Y-98150000D02*
X135686748Y-98150000D01*
D10*
X74582200Y-97110800D02*
X74582200Y-92110800D01*
X72382200Y-97110800D02*
X69482200Y-97110800D01*
X72382200Y-92110800D02*
X69482200Y-92110800D01*
X67302200Y-97110800D02*
X67302200Y-92110800D01*
X67259200Y-95821800D02*
G75*
G03*
X67259200Y-97091800I0J-635000D01*
G01*
D13*
X102872000Y-102234420D02*
X102872000Y-102515580D01*
X101852000Y-102234420D02*
X101852000Y-102515580D01*
D12*
X67016000Y-76962000D02*
X67016000Y-76962000D01*
X66984068Y-77360295D02*
X66984068Y-77360295D01*
X66889088Y-77748416D02*
X66889088Y-77748416D01*
X66733487Y-78116447D02*
X66733487Y-78116447D01*
X66521239Y-78454988D02*
X66521239Y-78454988D01*
X66257766Y-78755390D02*
X66257766Y-78755390D01*
X65949799Y-79009978D02*
X65949799Y-79009978D01*
X65605206Y-79212251D02*
X65605206Y-79212251D01*
X65232788Y-79357039D02*
X65232788Y-79357039D01*
X64842059Y-79440645D02*
X64842059Y-79440645D01*
X64443001Y-79460934D02*
X64443001Y-79460934D01*
X64045807Y-79417385D02*
X64045807Y-79417385D01*
X63660625Y-79311113D02*
X63660625Y-79311113D01*
X63297294Y-79144832D02*
X63297294Y-79144832D01*
X62965095Y-78922789D02*
X62965095Y-78922789D01*
X62672515Y-78650657D02*
X62672515Y-78650657D01*
X62427028Y-78335388D02*
X62427028Y-78335388D01*
X62234904Y-77985035D02*
X62234904Y-77985035D01*
X62101051Y-77608548D02*
X62101051Y-77608548D01*
X62028890Y-77215544D02*
X62028890Y-77215544D01*
X62020263Y-76816064D02*
X62020263Y-76816064D01*
X62075390Y-76420312D02*
X62075390Y-76420312D01*
X62192864Y-76038397D02*
X62192864Y-76038397D01*
X62369683Y-75680076D02*
X62369683Y-75680076D01*
X62601331Y-75354503D02*
X62601331Y-75354503D01*
X62881890Y-75069993D02*
X62881890Y-75069993D01*
X63204194Y-74833816D02*
X63204194Y-74833816D01*
X63560007Y-74652004D02*
X63560007Y-74652004D01*
X63940242Y-74529202D02*
X63940242Y-74529202D01*
X64335185Y-74468547D02*
X64335185Y-74468547D01*
X64734747Y-74471588D02*
X64734747Y-74471588D01*
X65128721Y-74538248D02*
X65128721Y-74538248D01*
X65507043Y-74666823D02*
X65507043Y-74666823D01*
X65860048Y-74854030D02*
X65860048Y-74854030D01*
X66178718Y-75095086D02*
X66178718Y-75095086D01*
X66454914Y-75383833D02*
X66454914Y-75383833D01*
X66681580Y-75712895D02*
X66681580Y-75712895D01*
X66852924Y-76073866D02*
X66852924Y-76073866D01*
X66964571Y-76457524D02*
X66964571Y-76457524D01*
X67013669Y-76854070D02*
X67013669Y-76854070D01*
X67016000Y-110998000D02*
X67016000Y-110998000D01*
X66984068Y-111396295D02*
X66984068Y-111396295D01*
X66889088Y-111784416D02*
X66889088Y-111784416D01*
X66733487Y-112152447D02*
X66733487Y-112152447D01*
X66521239Y-112490988D02*
X66521239Y-112490988D01*
X66257766Y-112791390D02*
X66257766Y-112791390D01*
X65949799Y-113045978D02*
X65949799Y-113045978D01*
X65605206Y-113248251D02*
X65605206Y-113248251D01*
X65232788Y-113393039D02*
X65232788Y-113393039D01*
X64842059Y-113476645D02*
X64842059Y-113476645D01*
X64443001Y-113496934D02*
X64443001Y-113496934D01*
X64045807Y-113453385D02*
X64045807Y-113453385D01*
X63660625Y-113347113D02*
X63660625Y-113347113D01*
X63297294Y-113180832D02*
X63297294Y-113180832D01*
X62965095Y-112958789D02*
X62965095Y-112958789D01*
X62672515Y-112686657D02*
X62672515Y-112686657D01*
X62427028Y-112371388D02*
X62427028Y-112371388D01*
X62234904Y-112021035D02*
X62234904Y-112021035D01*
X62101051Y-111644548D02*
X62101051Y-111644548D01*
X62028890Y-111251544D02*
X62028890Y-111251544D01*
X62020263Y-110852064D02*
X62020263Y-110852064D01*
X62075390Y-110456312D02*
X62075390Y-110456312D01*
X62192864Y-110074397D02*
X62192864Y-110074397D01*
X62369683Y-109716076D02*
X62369683Y-109716076D01*
X62601331Y-109390503D02*
X62601331Y-109390503D01*
X62881890Y-109105993D02*
X62881890Y-109105993D01*
X63204194Y-108869816D02*
X63204194Y-108869816D01*
X63560007Y-108688004D02*
X63560007Y-108688004D01*
X63940242Y-108565202D02*
X63940242Y-108565202D01*
X64335185Y-108504547D02*
X64335185Y-108504547D01*
X64734747Y-108507588D02*
X64734747Y-108507588D01*
X65128721Y-108574248D02*
X65128721Y-108574248D01*
X65507043Y-108702823D02*
X65507043Y-108702823D01*
X65860048Y-108890030D02*
X65860048Y-108890030D01*
X66178718Y-109131086D02*
X66178718Y-109131086D01*
X66454914Y-109419833D02*
X66454914Y-109419833D01*
X66681580Y-109748895D02*
X66681580Y-109748895D01*
X66852924Y-110109866D02*
X66852924Y-110109866D01*
X66964571Y-110493524D02*
X66964571Y-110493524D01*
X67013669Y-110890070D02*
X67013669Y-110890070D01*
D13*
X142522000Y-56558000D02*
X142522000Y-71258000D01*
X133322000Y-56558000D02*
X142522000Y-56558000D01*
X133322000Y-65358000D02*
X133322000Y-56558000D01*
X142722000Y-70408000D02*
X142722000Y-71458000D01*
X142522000Y-71258000D02*
X139922000Y-71258000D01*
X136022000Y-71258000D02*
X133322000Y-71258000D01*
X133322000Y-71258000D02*
X133322000Y-69358000D01*
X141672000Y-71458000D02*
X142722000Y-71458000D01*
X136498420Y-111250000D02*
X136779580Y-111250000D01*
X136498420Y-112270000D02*
X136779580Y-112270000D01*
X77218000Y-82663420D02*
X77218000Y-82944580D01*
X76198000Y-82663420D02*
X76198000Y-82944580D01*
X99062000Y-82806000D02*
X99062000Y-83506000D01*
X99062000Y-97026000D02*
X99062000Y-96326000D01*
X99762000Y-82806000D02*
X99062000Y-82806000D01*
X99762000Y-97026000D02*
X99062000Y-97026000D01*
X112582000Y-82806000D02*
X113282000Y-82806000D01*
X112582000Y-97026000D02*
X113282000Y-97026000D01*
X113282000Y-82806000D02*
X113282000Y-83506000D01*
X113282000Y-97026000D02*
X113282000Y-96326000D01*
X98472000Y-83506000D02*
X98132000Y-83036000D01*
X98812000Y-83036000D01*
X98472000Y-83506000D01*
G36*
X98472000Y-83506000D02*
G01*
X98132000Y-83036000D01*
X98812000Y-83036000D01*
X98472000Y-83506000D01*
G37*
D10*
X133161000Y-108593000D02*
X133161000Y-108368000D01*
X133161000Y-108593000D02*
X129811000Y-108593000D01*
X133161000Y-105468000D02*
X133161000Y-105243000D01*
X133161000Y-105243000D02*
X129811000Y-105243000D01*
X129811000Y-108593000D02*
X129811000Y-108368000D01*
X129811000Y-105243000D02*
X129811000Y-105468000D01*
D13*
X134013500Y-108698000D02*
X133533500Y-108698000D01*
X133773500Y-108368000D01*
X134013500Y-108698000D01*
G36*
X134013500Y-108698000D02*
G01*
X133533500Y-108698000D01*
X133773500Y-108368000D01*
X134013500Y-108698000D01*
G37*
X147392000Y-87484000D02*
X143632000Y-87484000D01*
X147392000Y-80664000D02*
X143632000Y-80664000D01*
X143632000Y-87484000D02*
X143632000Y-86224000D01*
X143632000Y-80664000D02*
X143632000Y-81924000D01*
X148912000Y-87714000D02*
X148432000Y-87714000D01*
X148672000Y-87384000D01*
X148912000Y-87714000D01*
G36*
X148912000Y-87714000D02*
G01*
X148432000Y-87714000D01*
X148672000Y-87384000D01*
X148912000Y-87714000D01*
G37*
X85241000Y-78812080D02*
X85241000Y-78530920D01*
X86261000Y-78812080D02*
X86261000Y-78530920D01*
X123154000Y-122876000D02*
X123154000Y-126736000D01*
X123154000Y-122876000D02*
X126274000Y-122876000D01*
X123444000Y-122746000D02*
X123444000Y-122746000D01*
X123444000Y-122746000D02*
X123444000Y-122876000D01*
X123444000Y-122876000D02*
X123444000Y-122746000D01*
X123444000Y-122876000D02*
X123444000Y-122876000D01*
X125984000Y-122746000D02*
X125984000Y-122746000D01*
X125984000Y-122746000D02*
X125984000Y-122876000D01*
X125984000Y-122876000D02*
X125984000Y-122746000D01*
X125984000Y-122876000D02*
X125984000Y-122876000D01*
X126274000Y-122876000D02*
X126274000Y-126736000D01*
X126274000Y-122876000D02*
X126674000Y-122876000D01*
X126274000Y-123996000D02*
X126274000Y-122876000D01*
X126674000Y-122876000D02*
X126674000Y-123996000D01*
X126674000Y-123996000D02*
X126274000Y-123996000D01*
X123154000Y-126736000D02*
G75*
G03*
X126274000Y-126736000I1560000J0D01*
G01*
X136806400Y-125831020D02*
X136806400Y-126112180D01*
X135786400Y-125831020D02*
X135786400Y-126112180D01*
X59376000Y-103438000D02*
X59376000Y-102108000D01*
X60706000Y-103438000D02*
X59376000Y-103438000D01*
X61976000Y-103438000D02*
X64576000Y-103438000D01*
X61976000Y-103438000D02*
X61976000Y-100778000D01*
X64576000Y-103438000D02*
X64576000Y-100778000D01*
X61976000Y-100778000D02*
X64576000Y-100778000D01*
X101094000Y-122554420D02*
X101094000Y-122835580D01*
X100074000Y-122554420D02*
X100074000Y-122835580D01*
X99260000Y-110436000D02*
X99260000Y-110886000D01*
X99260000Y-117656000D02*
X99260000Y-117206000D01*
X99710000Y-110436000D02*
X99260000Y-110436000D01*
X99710000Y-117656000D02*
X99260000Y-117656000D01*
X106030000Y-110436000D02*
X106480000Y-110436000D01*
X106030000Y-117656000D02*
X106480000Y-117656000D01*
X106480000Y-110436000D02*
X106480000Y-110886000D01*
X106480000Y-117656000D02*
X106480000Y-117206000D01*
X98670000Y-110886000D02*
X98330000Y-110416000D01*
X99010000Y-110416000D01*
X98670000Y-110886000D01*
G36*
X98670000Y-110886000D02*
G01*
X98330000Y-110416000D01*
X99010000Y-110416000D01*
X98670000Y-110886000D01*
G37*
X111632420Y-114806000D02*
X111913580Y-114806000D01*
X111632420Y-115826000D02*
X111913580Y-115826000D01*
X91213000Y-68195564D02*
X91213000Y-67741436D01*
X92683000Y-68195564D02*
X92683000Y-67741436D01*
X129504000Y-78740000D02*
X129504000Y-79390000D01*
X129504000Y-78740000D02*
X129504000Y-78090000D01*
X132624000Y-78740000D02*
X132624000Y-79390000D01*
X132624000Y-78740000D02*
X132624000Y-78090000D01*
X129554000Y-79902500D02*
X129224000Y-80142500D01*
X129224000Y-79662500D01*
X129554000Y-79902500D01*
G36*
X129554000Y-79902500D02*
G01*
X129224000Y-80142500D01*
X129224000Y-79662500D01*
X129554000Y-79902500D01*
G37*
X124424000Y-78740000D02*
X124424000Y-79390000D01*
X124424000Y-78740000D02*
X124424000Y-78090000D01*
X127544000Y-78740000D02*
X127544000Y-79390000D01*
X127544000Y-78740000D02*
X127544000Y-78090000D01*
X124474000Y-79902500D02*
X124144000Y-80142500D01*
X124144000Y-79662500D01*
X124474000Y-79902500D01*
G36*
X124474000Y-79902500D02*
G01*
X124144000Y-80142500D01*
X124144000Y-79662500D01*
X124474000Y-79902500D01*
G37*
X135110800Y-118364000D02*
X135110800Y-120564000D01*
X135110800Y-118364000D02*
X135110800Y-116164000D01*
X140580800Y-118364000D02*
X140580800Y-120564000D01*
X140580800Y-118364000D02*
X140580800Y-116164000D01*
X135810800Y-122554000D02*
X135330800Y-122554000D01*
X135570800Y-122224000D01*
X135810800Y-122554000D01*
G36*
X135810800Y-122554000D02*
G01*
X135330800Y-122554000D01*
X135570800Y-122224000D01*
X135810800Y-122554000D01*
G37*
X90959000Y-64385564D02*
X90959000Y-63931436D01*
X92429000Y-64385564D02*
X92429000Y-63931436D01*
X137083000Y-108670000D02*
G75*
G03*
X137083000Y-105270000I0J1700000D01*
G01*
X137083000Y-105270000D02*
G75*
G03*
X137083000Y-108670000I0J-1700000D01*
G01*
D12*
X83146000Y-75834000D02*
X83146000Y-69230000D01*
X83146000Y-66436000D02*
X83146000Y-63896000D01*
X83146000Y-63896000D02*
X74168000Y-63896000D01*
X74168000Y-63896000D02*
X72390000Y-63474000D01*
X73152000Y-77974000D02*
X70104000Y-77974000D01*
X68296000Y-76374000D02*
X68296000Y-69174000D01*
X68072000Y-63474000D02*
X72390000Y-63474000D01*
X68072000Y-63474000D02*
X68072000Y-66436000D01*
D13*
X86261000Y-73704920D02*
X86261000Y-73986080D01*
X85241000Y-73704920D02*
X85241000Y-73986080D01*
X86895000Y-64385564D02*
X86895000Y-63931436D01*
X88365000Y-64385564D02*
X88365000Y-63931436D01*
X87149000Y-68195564D02*
X87149000Y-67741436D01*
X88619000Y-68195564D02*
X88619000Y-67741436D01*
X92991000Y-64385564D02*
X92991000Y-63931436D01*
X94461000Y-64385564D02*
X94461000Y-63931436D01*
X133857000Y-76573000D02*
X133857000Y-74303000D01*
X133857000Y-74303000D02*
X129972000Y-74303000D01*
X129972000Y-76573000D02*
X133857000Y-76573000D01*
X129259064Y-73633000D02*
X128804936Y-73633000D01*
X129259064Y-72163000D02*
X128804936Y-72163000D01*
X128777000Y-76573000D02*
X128777000Y-74303000D01*
X128777000Y-74303000D02*
X124892000Y-74303000D01*
X124892000Y-76573000D02*
X128777000Y-76573000D01*
X81914420Y-99566000D02*
X82195580Y-99566000D01*
X81914420Y-100586000D02*
X82195580Y-100586000D01*
X128996000Y-122876000D02*
X128996000Y-126736000D01*
X128996000Y-122876000D02*
X132116000Y-122876000D01*
X129286000Y-122746000D02*
X129286000Y-122746000D01*
X129286000Y-122746000D02*
X129286000Y-122876000D01*
X129286000Y-122876000D02*
X129286000Y-122746000D01*
X129286000Y-122876000D02*
X129286000Y-122876000D01*
X131826000Y-122746000D02*
X131826000Y-122746000D01*
X131826000Y-122746000D02*
X131826000Y-122876000D01*
X131826000Y-122876000D02*
X131826000Y-122746000D01*
X131826000Y-122876000D02*
X131826000Y-122876000D01*
X132116000Y-122876000D02*
X132116000Y-126736000D01*
X132116000Y-122876000D02*
X132516000Y-122876000D01*
X132116000Y-123996000D02*
X132116000Y-122876000D01*
X132516000Y-122876000D02*
X132516000Y-123996000D01*
X132516000Y-123996000D02*
X132116000Y-123996000D01*
X128996000Y-126736000D02*
G75*
G03*
X132116000Y-126736000I1560000J0D01*
G01*
X89181000Y-68195564D02*
X89181000Y-67741436D01*
X90651000Y-68195564D02*
X90651000Y-67741436D01*
X126211064Y-82777000D02*
X125756936Y-82777000D01*
X126211064Y-81307000D02*
X125756936Y-81307000D01*
X131291064Y-82777000D02*
X130836936Y-82777000D01*
X131291064Y-81307000D02*
X130836936Y-81307000D01*
X99444436Y-73687000D02*
X99898564Y-73687000D01*
X99444436Y-75157000D02*
X99898564Y-75157000D01*
X122426000Y-77864580D02*
X122426000Y-77583420D01*
X123446000Y-77864580D02*
X123446000Y-77583420D01*
X140006800Y-125831020D02*
X140006800Y-126112180D01*
X138986800Y-125831020D02*
X138986800Y-126112180D01*
D10*
X68072000Y-124401000D02*
X68072000Y-106113000D01*
X68072000Y-127576000D02*
X68072000Y-128719000D01*
X68072000Y-128719000D02*
X95250000Y-128719000D01*
X71288000Y-110634000D02*
X71288000Y-115934000D01*
X71288000Y-110634000D02*
X93288000Y-110634000D01*
X71288000Y-115934000D02*
X93288000Y-115934000D01*
X93218000Y-105986000D02*
X93218000Y-108272000D01*
X93218000Y-108272000D02*
X95250000Y-111193000D01*
X93288000Y-110634000D02*
X93288000Y-115934000D01*
X95250000Y-124401000D02*
X95250000Y-111193000D01*
X95250000Y-128719000D02*
X95250000Y-127576000D01*
D13*
X121495000Y-77216000D02*
X121495000Y-75016000D01*
X121495000Y-77216000D02*
X121495000Y-79416000D01*
X114725000Y-77216000D02*
X114725000Y-75016000D01*
X114725000Y-77216000D02*
X114725000Y-79416000D01*
X121035000Y-73356000D02*
X120795000Y-73026000D01*
X121275000Y-73026000D01*
X121035000Y-73356000D01*
G36*
X121035000Y-73356000D02*
G01*
X120795000Y-73026000D01*
X121275000Y-73026000D01*
X121035000Y-73356000D01*
G37*
X102614000Y-105550580D02*
X102614000Y-105269420D01*
X103634000Y-105550580D02*
X103634000Y-105269420D01*
X102502580Y-78742000D02*
X102221420Y-78742000D01*
X102502580Y-77722000D02*
X102221420Y-77722000D01*
X129615420Y-109442000D02*
X129896580Y-109442000D01*
X129615420Y-110462000D02*
X129896580Y-110462000D01*
X93245000Y-68195564D02*
X93245000Y-67741436D01*
X94715000Y-68195564D02*
X94715000Y-67741436D01*
X110136400Y-102234420D02*
X110136400Y-102515580D01*
X109116400Y-102234420D02*
X109116400Y-102515580D01*
X124336436Y-125860500D02*
X124790564Y-125860500D01*
X124336436Y-127330500D02*
X124790564Y-127330500D01*
X142205400Y-116500600D02*
X143535400Y-116500600D01*
X142205400Y-117830600D02*
X142205400Y-116500600D01*
X142205400Y-119100600D02*
X142205400Y-124240600D01*
X142205400Y-119100600D02*
X144805400Y-119100600D01*
X142205400Y-124240600D02*
X147405400Y-124240600D01*
X144805400Y-116500600D02*
X147405400Y-116500600D01*
X144805400Y-119100600D02*
X144805400Y-116500600D01*
X147405400Y-116500600D02*
X147405400Y-124240600D01*
X136728580Y-110462000D02*
X136447420Y-110462000D01*
X136728580Y-109442000D02*
X136447420Y-109442000D01*
X136702580Y-104366000D02*
X136421420Y-104366000D01*
X136702580Y-103346000D02*
X136421420Y-103346000D01*
X135206200Y-125831620D02*
X135206200Y-126112780D01*
X134186200Y-125831620D02*
X134186200Y-126112780D01*
X130328936Y-125860500D02*
X130783064Y-125860500D01*
X130328936Y-127330500D02*
X130783064Y-127330500D01*
X125195064Y-73633000D02*
X124740936Y-73633000D01*
X125195064Y-72163000D02*
X124740936Y-72163000D01*
X66042000Y-92836420D02*
X66042000Y-93117580D01*
X65022000Y-92836420D02*
X65022000Y-93117580D01*
X87050000Y-76385500D02*
X87050000Y-78585500D01*
X87050000Y-76385500D02*
X87050000Y-74185500D01*
X95120000Y-76385500D02*
X95120000Y-78585500D01*
X95120000Y-76385500D02*
X95120000Y-74185500D01*
X87750000Y-80575500D02*
X87270000Y-80575500D01*
X87510000Y-80245500D01*
X87750000Y-80575500D01*
G36*
X87750000Y-80575500D02*
G01*
X87270000Y-80575500D01*
X87510000Y-80245500D01*
X87750000Y-80575500D01*
G37*
X138406600Y-125831620D02*
X138406600Y-126112780D01*
X137386600Y-125831620D02*
X137386600Y-126112780D01*
X88927000Y-64385564D02*
X88927000Y-63931436D01*
X90397000Y-64385564D02*
X90397000Y-63931436D01*
X101608000Y-72454000D02*
X102608000Y-72454000D01*
X102608000Y-72454000D02*
X102108000Y-71454000D01*
X102108000Y-71454000D02*
X101608000Y-72454000D01*
X96898000Y-65834000D02*
X96898000Y-56714000D01*
X111488000Y-65834000D02*
X111488000Y-56714000D01*
X115588000Y-65834000D02*
X115588000Y-56714000D01*
X130178000Y-65834000D02*
X96898000Y-65834000D01*
X96898000Y-56714000D02*
X130178000Y-56714000D01*
X130178000Y-56714000D02*
X130178000Y-65834000D01*
%LPC*%
D14*
X146304000Y-66516000D03*
X146304000Y-62516000D03*
D15*
X142240000Y-92153000D03*
X142240000Y-89203000D03*
D16*
X63246000Y-123190000D03*
D17*
X60706000Y-123190000D03*
X63246000Y-120650000D03*
X60706000Y-120650000D03*
X63246000Y-118110000D03*
X60706000Y-118110000D03*
D18*
X146050000Y-71628000D03*
D19*
X148050000Y-71628000D03*
D16*
X58674000Y-86106000D03*
D17*
X58674000Y-83566000D03*
X61214000Y-86106000D03*
X61214000Y-83566000D03*
X63754000Y-86106000D03*
X63754000Y-83566000D03*
X66294000Y-86106000D03*
X66294000Y-83566000D03*
X68834000Y-86106000D03*
X68834000Y-83566000D03*
D20*
X70104000Y-89408000D03*
X71929000Y-89408000D03*
X66294000Y-89408000D03*
X68119000Y-89408000D03*
X68175500Y-80518000D03*
X70000500Y-80518000D03*
D21*
X117589000Y-91948000D03*
X119139000Y-91948000D03*
D22*
X110134400Y-78232000D03*
X108584400Y-78232000D03*
X94742000Y-89916000D03*
X93192000Y-89916000D03*
D21*
X117589000Y-89916000D03*
X119139000Y-89916000D03*
D22*
X94742000Y-87934800D03*
X93192000Y-87934800D03*
D23*
X142494000Y-110998000D03*
X142494000Y-76962000D03*
D24*
X148590000Y-106186000D03*
X148590000Y-103886000D03*
D25*
X142290000Y-103886000D03*
D24*
X148590000Y-101586000D03*
D26*
X136412000Y-89662000D03*
X134112000Y-89662000D03*
D27*
X134112000Y-95962000D03*
D26*
X131812000Y-89662000D03*
D15*
X141224000Y-98708000D03*
X141224000Y-95758000D03*
D28*
X137873000Y-99060000D03*
X134923000Y-99060000D03*
D29*
X68402200Y-96710800D03*
X73482200Y-96710800D03*
X73482200Y-92510800D03*
X68402200Y-92510800D03*
D30*
X102362000Y-101600000D03*
X102362000Y-103150000D03*
D23*
X64516000Y-76962000D03*
X64516000Y-110998000D03*
D31*
X137922000Y-70358000D03*
D32*
X137922000Y-64358000D03*
D33*
X133222000Y-67358000D03*
D21*
X135864000Y-111760000D03*
X137414000Y-111760000D03*
D30*
X76708000Y-82029000D03*
X76708000Y-83579000D03*
D34*
X98509500Y-83916000D03*
X98509500Y-84416000D03*
X98509500Y-84916000D03*
X98509500Y-85416000D03*
X98509500Y-85916000D03*
X98509500Y-86416000D03*
X98509500Y-86916000D03*
X98509500Y-87416000D03*
X98509500Y-87916000D03*
X98509500Y-88416000D03*
X98509500Y-88916000D03*
X98509500Y-89416000D03*
X98509500Y-89916000D03*
X98509500Y-90416000D03*
X98509500Y-90916000D03*
X98509500Y-91416000D03*
X98509500Y-91916000D03*
X98509500Y-92416000D03*
X98509500Y-92916000D03*
X98509500Y-93416000D03*
X98509500Y-93916000D03*
X98509500Y-94416000D03*
X98509500Y-94916000D03*
X98509500Y-95416000D03*
X98509500Y-95916000D03*
D35*
X100172000Y-97578500D03*
X100672000Y-97578500D03*
X101172000Y-97578500D03*
X101672000Y-97578500D03*
X102172000Y-97578500D03*
X102672000Y-97578500D03*
X103172000Y-97578500D03*
X103672000Y-97578500D03*
X104172000Y-97578500D03*
X104672000Y-97578500D03*
X105172000Y-97578500D03*
X105672000Y-97578500D03*
X106172000Y-97578500D03*
X106672000Y-97578500D03*
X107172000Y-97578500D03*
X107672000Y-97578500D03*
X108172000Y-97578500D03*
X108672000Y-97578500D03*
X109172000Y-97578500D03*
X109672000Y-97578500D03*
X110172000Y-97578500D03*
X110672000Y-97578500D03*
X111172000Y-97578500D03*
X111672000Y-97578500D03*
X112172000Y-97578500D03*
D34*
X113834500Y-95916000D03*
X113834500Y-95416000D03*
X113834500Y-94916000D03*
X113834500Y-94416000D03*
X113834500Y-93916000D03*
X113834500Y-93416000D03*
X113834500Y-92916000D03*
X113834500Y-92416000D03*
X113834500Y-91916000D03*
X113834500Y-91416000D03*
X113834500Y-90916000D03*
X113834500Y-90416000D03*
X113834500Y-89916000D03*
X113834500Y-89416000D03*
X113834500Y-88916000D03*
X113834500Y-88416000D03*
X113834500Y-87916000D03*
X113834500Y-87416000D03*
X113834500Y-86916000D03*
X113834500Y-86416000D03*
X113834500Y-85916000D03*
X113834500Y-85416000D03*
X113834500Y-84916000D03*
X113834500Y-84416000D03*
X113834500Y-83916000D03*
D35*
X112172000Y-82253500D03*
X111672000Y-82253500D03*
X111172000Y-82253500D03*
X110672000Y-82253500D03*
X110172000Y-82253500D03*
X109672000Y-82253500D03*
X109172000Y-82253500D03*
X108672000Y-82253500D03*
X108172000Y-82253500D03*
X107672000Y-82253500D03*
X107172000Y-82253500D03*
X106672000Y-82253500D03*
X106172000Y-82253500D03*
X105672000Y-82253500D03*
X105172000Y-82253500D03*
X104672000Y-82253500D03*
X104172000Y-82253500D03*
X103672000Y-82253500D03*
X103172000Y-82253500D03*
X102672000Y-82253500D03*
X102172000Y-82253500D03*
X101672000Y-82253500D03*
X101172000Y-82253500D03*
X100672000Y-82253500D03*
X100172000Y-82253500D03*
D36*
X133686000Y-107918000D03*
X133686000Y-107418000D03*
X133686000Y-106918000D03*
X133686000Y-106418000D03*
X133686000Y-105918000D03*
X129286000Y-105918000D03*
X129286000Y-106418000D03*
X129286000Y-106918000D03*
X129286000Y-107418000D03*
X129286000Y-107918000D03*
D24*
X148692000Y-86374000D03*
X148692000Y-84074000D03*
D25*
X142392000Y-84074000D03*
D24*
X148692000Y-81774000D03*
D37*
X85751000Y-79446500D03*
X85751000Y-77896500D03*
D38*
X123444000Y-121666000D03*
D39*
X125984000Y-121666000D03*
D30*
X136296400Y-125196600D03*
X136296400Y-126746600D03*
D16*
X60706000Y-102108000D03*
D17*
X63246000Y-102108000D03*
D30*
X100584000Y-121920000D03*
X100584000Y-123470000D03*
D34*
X98707500Y-111296000D03*
X98707500Y-111796000D03*
X98707500Y-112296000D03*
X98707500Y-112796000D03*
X98707500Y-113296000D03*
X98707500Y-113796000D03*
X98707500Y-114296000D03*
X98707500Y-114796000D03*
X98707500Y-115296000D03*
X98707500Y-115796000D03*
X98707500Y-116296000D03*
X98707500Y-116796000D03*
D35*
X100120000Y-118208500D03*
X100620000Y-118208500D03*
X101120000Y-118208500D03*
X101620000Y-118208500D03*
X102120000Y-118208500D03*
X102620000Y-118208500D03*
X103120000Y-118208500D03*
X103620000Y-118208500D03*
X104120000Y-118208500D03*
X104620000Y-118208500D03*
X105120000Y-118208500D03*
X105620000Y-118208500D03*
D34*
X107032500Y-116796000D03*
X107032500Y-116296000D03*
X107032500Y-115796000D03*
X107032500Y-115296000D03*
X107032500Y-114796000D03*
X107032500Y-114296000D03*
X107032500Y-113796000D03*
X107032500Y-113296000D03*
X107032500Y-112796000D03*
X107032500Y-112296000D03*
X107032500Y-111796000D03*
X107032500Y-111296000D03*
D35*
X105620000Y-109883500D03*
X105120000Y-109883500D03*
X104620000Y-109883500D03*
X104120000Y-109883500D03*
X103620000Y-109883500D03*
X103120000Y-109883500D03*
X102620000Y-109883500D03*
X102120000Y-109883500D03*
X101620000Y-109883500D03*
X101120000Y-109883500D03*
X100620000Y-109883500D03*
X100120000Y-109883500D03*
D21*
X110998000Y-115316000D03*
X112548000Y-115316000D03*
D40*
X91948000Y-68881000D03*
X91948000Y-67056000D03*
D41*
X130114000Y-79677500D03*
X132014000Y-79677500D03*
X131064000Y-77802500D03*
X125034000Y-79677500D03*
X126934000Y-79677500D03*
X125984000Y-77802500D03*
D42*
X135570800Y-121226500D03*
X136220800Y-121226500D03*
X136870800Y-121226500D03*
X137520800Y-121226500D03*
X138170800Y-121226500D03*
X138820800Y-121226500D03*
X139470800Y-121226500D03*
X140120800Y-121226500D03*
X140120800Y-115501500D03*
X139470800Y-115501500D03*
X138820800Y-115501500D03*
X138170800Y-115501500D03*
X137520800Y-115501500D03*
X136870800Y-115501500D03*
X136220800Y-115501500D03*
X135570800Y-115501500D03*
D40*
X91694000Y-65071000D03*
X91694000Y-63246000D03*
D43*
X137083000Y-106020000D03*
X137083000Y-107920000D03*
X80896000Y-67374000D03*
X72896000Y-67374000D03*
D44*
X73746000Y-78374000D03*
X74846000Y-78374000D03*
X75946000Y-78374000D03*
X77046000Y-78374000D03*
X78146000Y-78374000D03*
X79246000Y-78374000D03*
X80346000Y-78374000D03*
X81446000Y-78374000D03*
X82546000Y-78374000D03*
D45*
X83746000Y-77074000D03*
D46*
X83746000Y-67774000D03*
D47*
X69096000Y-77324000D03*
D46*
X68246000Y-67774000D03*
D30*
X85751000Y-73070500D03*
X85751000Y-74620500D03*
D40*
X87630000Y-65071000D03*
X87630000Y-63246000D03*
X87884000Y-68881000D03*
X87884000Y-67056000D03*
X93726000Y-65071000D03*
X93726000Y-63246000D03*
D48*
X132972000Y-75438000D03*
X130172000Y-75438000D03*
D49*
X129944500Y-72898000D03*
X128119500Y-72898000D03*
D48*
X127892000Y-75438000D03*
X125092000Y-75438000D03*
D21*
X81280000Y-100076000D03*
X82830000Y-100076000D03*
D38*
X129286000Y-121666000D03*
D39*
X131826000Y-121666000D03*
D40*
X89916000Y-68881000D03*
X89916000Y-67056000D03*
D49*
X126896500Y-82042000D03*
X125071500Y-82042000D03*
X131976500Y-82042000D03*
X130151500Y-82042000D03*
D20*
X98759000Y-74422000D03*
X100584000Y-74422000D03*
D37*
X122936000Y-78499000D03*
X122936000Y-76949000D03*
D30*
X139496800Y-125196600D03*
X139496800Y-126746600D03*
D50*
X70288000Y-105484000D03*
D19*
X91288000Y-105484000D03*
D51*
X88663000Y-102684000D03*
X86163000Y-102684000D03*
X83663000Y-102684000D03*
X81163000Y-102684000D03*
X78663000Y-102684000D03*
X76163000Y-102684000D03*
X73738000Y-102684000D03*
X72038000Y-102684000D03*
X91163000Y-102684000D03*
D52*
X70738000Y-102684000D03*
X69538000Y-102684000D03*
D53*
X68138000Y-104484000D03*
X93238000Y-104484000D03*
X68138000Y-125984000D03*
X95438000Y-125984000D03*
D54*
X121035000Y-74353500D03*
X120385000Y-74353500D03*
X119735000Y-74353500D03*
X119085000Y-74353500D03*
X118435000Y-74353500D03*
X117785000Y-74353500D03*
X117135000Y-74353500D03*
X116485000Y-74353500D03*
X115835000Y-74353500D03*
X115185000Y-74353500D03*
X115185000Y-80078500D03*
X115835000Y-80078500D03*
X116485000Y-80078500D03*
X117135000Y-80078500D03*
X117785000Y-80078500D03*
X118435000Y-80078500D03*
X119085000Y-80078500D03*
X119735000Y-80078500D03*
X120385000Y-80078500D03*
X121035000Y-80078500D03*
D37*
X103124000Y-106185000D03*
X103124000Y-104635000D03*
D22*
X103137000Y-78232000D03*
X101587000Y-78232000D03*
D21*
X128981000Y-109952000D03*
X130531000Y-109952000D03*
D40*
X93980000Y-68881000D03*
X93980000Y-67056000D03*
D30*
X109626400Y-101600000D03*
X109626400Y-103150000D03*
D20*
X123651000Y-126595500D03*
X125476000Y-126595500D03*
D16*
X143535400Y-117830600D03*
D17*
X146075400Y-117830600D03*
X143535400Y-120370600D03*
X146075400Y-120370600D03*
X143535400Y-122910600D03*
X146075400Y-122910600D03*
D22*
X137363000Y-109952000D03*
X135813000Y-109952000D03*
X137337000Y-103856000D03*
X135787000Y-103856000D03*
D30*
X134696200Y-125197200D03*
X134696200Y-126747200D03*
D20*
X129643500Y-126595500D03*
X131468500Y-126595500D03*
D49*
X125880500Y-72898000D03*
X124055500Y-72898000D03*
D30*
X65532000Y-92202000D03*
X65532000Y-93752000D03*
D42*
X87510000Y-79248000D03*
X88160000Y-79248000D03*
X88810000Y-79248000D03*
X89460000Y-79248000D03*
X90110000Y-79248000D03*
X90760000Y-79248000D03*
X91410000Y-79248000D03*
X92060000Y-79248000D03*
X92710000Y-79248000D03*
X93360000Y-79248000D03*
X94010000Y-79248000D03*
X94660000Y-79248000D03*
X94660000Y-73523000D03*
X94010000Y-73523000D03*
X93360000Y-73523000D03*
X92710000Y-73523000D03*
X92060000Y-73523000D03*
X91410000Y-73523000D03*
X90760000Y-73523000D03*
X90110000Y-73523000D03*
X89460000Y-73523000D03*
X88810000Y-73523000D03*
X88160000Y-73523000D03*
X87510000Y-73523000D03*
D30*
X137896600Y-125197200D03*
X137896600Y-126747200D03*
D40*
X89662000Y-65071000D03*
X89662000Y-63246000D03*
D55*
X102108000Y-70104000D03*
D56*
X104648000Y-70104000D03*
X107188000Y-70104000D03*
X109728000Y-70104000D03*
X112268000Y-70104000D03*
X114808000Y-70104000D03*
X117348000Y-70104000D03*
X119888000Y-70104000D03*
X122428000Y-70104000D03*
X124968000Y-70104000D03*
X102108000Y-67564000D03*
X104648000Y-67564000D03*
X107188000Y-67564000D03*
X109728000Y-67564000D03*
X112268000Y-67564000D03*
X114808000Y-67564000D03*
X117348000Y-67564000D03*
X119888000Y-67564000D03*
X122428000Y-67564000D03*
X124968000Y-67564000D03*
%LPD*%
M02*
