G04 #@! TF.GenerationSoftware,KiCad,Pcbnew,7.0.10-7.0.10~ubuntu22.04.1*
G04 #@! TF.CreationDate,2024-05-15T19:40:14+10:00*
G04 #@! TF.ProjectId,AtariHDisk4,41746172-6948-4446-9973-6b342e6b6963,rev?*
G04 #@! TF.SameCoordinates,Original*
G04 #@! TF.FileFunction,Legend,Top*
G04 #@! TF.FilePolarity,Positive*
%FSLAX46Y46*%
G04 Gerber Fmt 4.6, Leading zero omitted, Abs format (unit mm)*
G04 Created by KiCad (PCBNEW 7.0.10-7.0.10~ubuntu22.04.1) date 2024-05-15 19:40:14*
%MOMM*%
%LPD*%
G01*
G04 APERTURE LIST*
G04 Aperture macros list*
%AMRoundRect*
0 Rectangle with rounded corners*
0 $1 Rounding radius*
0 $2 $3 $4 $5 $6 $7 $8 $9 X,Y pos of 4 corners*
0 Add a 4 corners polygon primitive as box body*
4,1,4,$2,$3,$4,$5,$6,$7,$8,$9,$2,$3,0*
0 Add four circle primitives for the rounded corners*
1,1,$1+$1,$2,$3*
1,1,$1+$1,$4,$5*
1,1,$1+$1,$6,$7*
1,1,$1+$1,$8,$9*
0 Add four rect primitives between the rounded corners*
20,1,$1+$1,$2,$3,$4,$5,0*
20,1,$1+$1,$4,$5,$6,$7,0*
20,1,$1+$1,$6,$7,$8,$9,0*
20,1,$1+$1,$8,$9,$2,$3,0*%
%AMFreePoly0*
4,1,19,0.500000,-0.750000,0.000000,-0.750000,0.000000,-0.744911,-0.071157,-0.744911,-0.207708,-0.704816,-0.327430,-0.627875,-0.420627,-0.520320,-0.479746,-0.390866,-0.500000,-0.250000,-0.500000,0.250000,-0.479746,0.390866,-0.420627,0.520320,-0.327430,0.627875,-0.207708,0.704816,-0.071157,0.744911,0.000000,0.744911,0.000000,0.750000,0.500000,0.750000,0.500000,-0.750000,0.500000,-0.750000,
$1*%
%AMFreePoly1*
4,1,19,0.000000,0.744911,0.071157,0.744911,0.207708,0.704816,0.327430,0.627875,0.420627,0.520320,0.479746,0.390866,0.500000,0.250000,0.500000,-0.250000,0.479746,-0.390866,0.420627,-0.520320,0.327430,-0.627875,0.207708,-0.704816,0.071157,-0.744911,0.000000,-0.744911,0.000000,-0.750000,-0.500000,-0.750000,-0.500000,0.750000,0.000000,0.750000,0.000000,0.744911,0.000000,0.744911,
$1*%
G04 Aperture macros list end*
%ADD10C,0.150000*%
%ADD11C,0.200000*%
%ADD12C,0.120000*%
%ADD13C,0.100000*%
%ADD14RoundRect,0.250000X0.650000X-0.325000X0.650000X0.325000X-0.650000X0.325000X-0.650000X-0.325000X0*%
%ADD15R,1.600000X1.600000*%
%ADD16C,1.600000*%
%ADD17R,1.700000X1.700000*%
%ADD18O,1.700000X1.700000*%
%ADD19RoundRect,0.250000X-0.262500X-0.450000X0.262500X-0.450000X0.262500X0.450000X-0.262500X0.450000X0*%
%ADD20RoundRect,0.225000X0.250000X-0.225000X0.250000X0.225000X-0.250000X0.225000X-0.250000X-0.225000X0*%
%ADD21RoundRect,0.225000X-0.225000X-0.250000X0.225000X-0.250000X0.225000X0.250000X-0.225000X0.250000X0*%
%ADD22RoundRect,0.225000X-0.250000X0.225000X-0.250000X-0.225000X0.250000X-0.225000X0.250000X0.225000X0*%
%ADD23C,2.750000*%
%ADD24RoundRect,0.375000X0.625000X0.375000X-0.625000X0.375000X-0.625000X-0.375000X0.625000X-0.375000X0*%
%ADD25RoundRect,0.500000X0.500000X1.400000X-0.500000X1.400000X-0.500000X-1.400000X0.500000X-1.400000X0*%
%ADD26RoundRect,0.375000X-0.375000X0.625000X-0.375000X-0.625000X0.375000X-0.625000X0.375000X0.625000X0*%
%ADD27RoundRect,0.500000X-1.400000X0.500000X-1.400000X-0.500000X1.400000X-0.500000X1.400000X0.500000X0*%
%ADD28RoundRect,0.250000X0.325000X0.650000X-0.325000X0.650000X-0.325000X-0.650000X0.325000X-0.650000X0*%
%ADD29R,2.000000X1.800000*%
%ADD30R,3.500000X3.500000*%
%ADD31RoundRect,0.750000X-1.000000X0.750000X-1.000000X-0.750000X1.000000X-0.750000X1.000000X0.750000X0*%
%ADD32RoundRect,0.875000X-0.875000X0.875000X-0.875000X-0.875000X0.875000X-0.875000X0.875000X0.875000X0*%
%ADD33RoundRect,0.075000X-0.662500X-0.075000X0.662500X-0.075000X0.662500X0.075000X-0.662500X0.075000X0*%
%ADD34RoundRect,0.075000X-0.075000X-0.662500X0.075000X-0.662500X0.075000X0.662500X-0.075000X0.662500X0*%
%ADD35R,1.400000X0.300000*%
%ADD36R,1.800000X1.800000*%
%ADD37C,1.800000*%
%ADD38RoundRect,0.250000X0.450000X-0.262500X0.450000X0.262500X-0.450000X0.262500X-0.450000X-0.262500X0*%
%ADD39RoundRect,0.150000X0.150000X-0.587500X0.150000X0.587500X-0.150000X0.587500X-0.150000X-0.587500X0*%
%ADD40RoundRect,0.100000X0.100000X-0.637500X0.100000X0.637500X-0.100000X0.637500X-0.100000X-0.637500X0*%
%ADD41RoundRect,0.075000X0.662500X0.075000X-0.662500X0.075000X-0.662500X-0.075000X0.662500X-0.075000X0*%
%ADD42RoundRect,0.075000X0.075000X0.662500X-0.075000X0.662500X-0.075000X-0.662500X0.075000X-0.662500X0*%
%ADD43R,1.900000X1.100000*%
%ADD44C,1.000000*%
%ADD45R,0.700000X1.600000*%
%ADD46R,1.200000X1.800000*%
%ADD47R,1.200000X2.200000*%
%ADD48R,1.600000X1.500000*%
%ADD49RoundRect,0.250000X0.375000X0.625000X-0.375000X0.625000X-0.375000X-0.625000X0.375000X-0.625000X0*%
%ADD50RoundRect,0.250000X0.262500X0.450000X-0.262500X0.450000X-0.262500X-0.450000X0.262500X-0.450000X0*%
%ADD51RoundRect,0.225000X0.225000X0.250000X-0.225000X0.250000X-0.225000X-0.250000X0.225000X-0.250000X0*%
%ADD52C,1.100000*%
%ADD53R,1.000000X1.500000*%
%ADD54R,0.700000X1.500000*%
%ADD55R,1.500000X2.800000*%
%ADD56RoundRect,0.100000X-0.100000X0.637500X-0.100000X-0.637500X0.100000X-0.637500X0.100000X0.637500X0*%
%ADD57RoundRect,0.250000X0.650000X-1.000000X0.650000X1.000000X-0.650000X1.000000X-0.650000X-1.000000X0*%
%ADD58FreePoly0,90.000000*%
%ADD59FreePoly1,90.000000*%
%ADD60RoundRect,0.250000X0.600000X-0.600000X0.600000X0.600000X-0.600000X0.600000X-0.600000X-0.600000X0*%
%ADD61C,1.700000*%
G04 APERTURE END LIST*
D10*
X62090493Y-80149819D02*
X62090493Y-80864104D01*
X62090493Y-80864104D02*
X62042874Y-81006961D01*
X62042874Y-81006961D02*
X61947636Y-81102200D01*
X61947636Y-81102200D02*
X61804779Y-81149819D01*
X61804779Y-81149819D02*
X61709541Y-81149819D01*
X62423827Y-80149819D02*
X62995255Y-80149819D01*
X62709541Y-81149819D02*
X62709541Y-80149819D01*
X63280970Y-80864104D02*
X63757160Y-80864104D01*
X63185732Y-81149819D02*
X63519065Y-80149819D01*
X63519065Y-80149819D02*
X63852398Y-81149819D01*
X64709541Y-80197438D02*
X64614303Y-80149819D01*
X64614303Y-80149819D02*
X64471446Y-80149819D01*
X64471446Y-80149819D02*
X64328589Y-80197438D01*
X64328589Y-80197438D02*
X64233351Y-80292676D01*
X64233351Y-80292676D02*
X64185732Y-80387914D01*
X64185732Y-80387914D02*
X64138113Y-80578390D01*
X64138113Y-80578390D02*
X64138113Y-80721247D01*
X64138113Y-80721247D02*
X64185732Y-80911723D01*
X64185732Y-80911723D02*
X64233351Y-81006961D01*
X64233351Y-81006961D02*
X64328589Y-81102200D01*
X64328589Y-81102200D02*
X64471446Y-81149819D01*
X64471446Y-81149819D02*
X64566684Y-81149819D01*
X64566684Y-81149819D02*
X64709541Y-81102200D01*
X64709541Y-81102200D02*
X64757160Y-81054580D01*
X64757160Y-81054580D02*
X64757160Y-80721247D01*
X64757160Y-80721247D02*
X64566684Y-80721247D01*
X89141541Y-74983819D02*
X89808207Y-74983819D01*
X89808207Y-74983819D02*
X89379636Y-75983819D01*
X90617731Y-75317152D02*
X90617731Y-75983819D01*
X90379636Y-74936200D02*
X90141541Y-75650485D01*
X90141541Y-75650485D02*
X90760588Y-75650485D01*
X91617731Y-75983819D02*
X91141541Y-75983819D01*
X91141541Y-75983819D02*
X91141541Y-74983819D01*
X91808208Y-74983819D02*
X92141541Y-75983819D01*
X92141541Y-75983819D02*
X92474874Y-74983819D01*
X93379636Y-75888580D02*
X93332017Y-75936200D01*
X93332017Y-75936200D02*
X93189160Y-75983819D01*
X93189160Y-75983819D02*
X93093922Y-75983819D01*
X93093922Y-75983819D02*
X92951065Y-75936200D01*
X92951065Y-75936200D02*
X92855827Y-75840961D01*
X92855827Y-75840961D02*
X92808208Y-75745723D01*
X92808208Y-75745723D02*
X92760589Y-75555247D01*
X92760589Y-75555247D02*
X92760589Y-75412390D01*
X92760589Y-75412390D02*
X92808208Y-75221914D01*
X92808208Y-75221914D02*
X92855827Y-75126676D01*
X92855827Y-75126676D02*
X92951065Y-75031438D01*
X92951065Y-75031438D02*
X93093922Y-74983819D01*
X93093922Y-74983819D02*
X93189160Y-74983819D01*
X93189160Y-74983819D02*
X93332017Y-75031438D01*
X93332017Y-75031438D02*
X93379636Y-75079057D01*
X89379636Y-77022390D02*
X89284398Y-76974771D01*
X89284398Y-76974771D02*
X89236779Y-76927152D01*
X89236779Y-76927152D02*
X89189160Y-76831914D01*
X89189160Y-76831914D02*
X89189160Y-76784295D01*
X89189160Y-76784295D02*
X89236779Y-76689057D01*
X89236779Y-76689057D02*
X89284398Y-76641438D01*
X89284398Y-76641438D02*
X89379636Y-76593819D01*
X89379636Y-76593819D02*
X89570112Y-76593819D01*
X89570112Y-76593819D02*
X89665350Y-76641438D01*
X89665350Y-76641438D02*
X89712969Y-76689057D01*
X89712969Y-76689057D02*
X89760588Y-76784295D01*
X89760588Y-76784295D02*
X89760588Y-76831914D01*
X89760588Y-76831914D02*
X89712969Y-76927152D01*
X89712969Y-76927152D02*
X89665350Y-76974771D01*
X89665350Y-76974771D02*
X89570112Y-77022390D01*
X89570112Y-77022390D02*
X89379636Y-77022390D01*
X89379636Y-77022390D02*
X89284398Y-77070009D01*
X89284398Y-77070009D02*
X89236779Y-77117628D01*
X89236779Y-77117628D02*
X89189160Y-77212866D01*
X89189160Y-77212866D02*
X89189160Y-77403342D01*
X89189160Y-77403342D02*
X89236779Y-77498580D01*
X89236779Y-77498580D02*
X89284398Y-77546200D01*
X89284398Y-77546200D02*
X89379636Y-77593819D01*
X89379636Y-77593819D02*
X89570112Y-77593819D01*
X89570112Y-77593819D02*
X89665350Y-77546200D01*
X89665350Y-77546200D02*
X89712969Y-77498580D01*
X89712969Y-77498580D02*
X89760588Y-77403342D01*
X89760588Y-77403342D02*
X89760588Y-77212866D01*
X89760588Y-77212866D02*
X89712969Y-77117628D01*
X89712969Y-77117628D02*
X89665350Y-77070009D01*
X89665350Y-77070009D02*
X89570112Y-77022390D01*
X90046303Y-76593819D02*
X90617731Y-76593819D01*
X90332017Y-77593819D02*
X90332017Y-76593819D01*
X90903446Y-76689057D02*
X90951065Y-76641438D01*
X90951065Y-76641438D02*
X91046303Y-76593819D01*
X91046303Y-76593819D02*
X91284398Y-76593819D01*
X91284398Y-76593819D02*
X91379636Y-76641438D01*
X91379636Y-76641438D02*
X91427255Y-76689057D01*
X91427255Y-76689057D02*
X91474874Y-76784295D01*
X91474874Y-76784295D02*
X91474874Y-76879533D01*
X91474874Y-76879533D02*
X91427255Y-77022390D01*
X91427255Y-77022390D02*
X90855827Y-77593819D01*
X90855827Y-77593819D02*
X91474874Y-77593819D01*
X92332017Y-76927152D02*
X92332017Y-77593819D01*
X92093922Y-76546200D02*
X91855827Y-77260485D01*
X91855827Y-77260485D02*
X92474874Y-77260485D01*
X93332017Y-76593819D02*
X92855827Y-76593819D01*
X92855827Y-76593819D02*
X92808208Y-77070009D01*
X92808208Y-77070009D02*
X92855827Y-77022390D01*
X92855827Y-77022390D02*
X92951065Y-76974771D01*
X92951065Y-76974771D02*
X93189160Y-76974771D01*
X93189160Y-76974771D02*
X93284398Y-77022390D01*
X93284398Y-77022390D02*
X93332017Y-77070009D01*
X93332017Y-77070009D02*
X93379636Y-77165247D01*
X93379636Y-77165247D02*
X93379636Y-77403342D01*
X93379636Y-77403342D02*
X93332017Y-77498580D01*
X93332017Y-77498580D02*
X93284398Y-77546200D01*
X93284398Y-77546200D02*
X93189160Y-77593819D01*
X93189160Y-77593819D02*
X92951065Y-77593819D01*
X92951065Y-77593819D02*
X92855827Y-77546200D01*
X92855827Y-77546200D02*
X92808208Y-77498580D01*
D11*
X63778900Y-60821673D02*
X63707471Y-61000244D01*
X63707471Y-61000244D02*
X63707471Y-61297863D01*
X63707471Y-61297863D02*
X63778900Y-61416911D01*
X63778900Y-61416911D02*
X63850328Y-61476435D01*
X63850328Y-61476435D02*
X63993185Y-61535958D01*
X63993185Y-61535958D02*
X64136042Y-61535958D01*
X64136042Y-61535958D02*
X64278900Y-61476435D01*
X64278900Y-61476435D02*
X64350328Y-61416911D01*
X64350328Y-61416911D02*
X64421757Y-61297863D01*
X64421757Y-61297863D02*
X64493185Y-61059768D01*
X64493185Y-61059768D02*
X64564614Y-60940720D01*
X64564614Y-60940720D02*
X64636042Y-60881197D01*
X64636042Y-60881197D02*
X64778900Y-60821673D01*
X64778900Y-60821673D02*
X64921757Y-60821673D01*
X64921757Y-60821673D02*
X65064614Y-60881197D01*
X65064614Y-60881197D02*
X65136042Y-60940720D01*
X65136042Y-60940720D02*
X65207471Y-61059768D01*
X65207471Y-61059768D02*
X65207471Y-61357387D01*
X65207471Y-61357387D02*
X65136042Y-61535958D01*
X63707471Y-62071673D02*
X64707471Y-62071673D01*
X64564614Y-62071673D02*
X64636042Y-62131196D01*
X64636042Y-62131196D02*
X64707471Y-62250244D01*
X64707471Y-62250244D02*
X64707471Y-62428815D01*
X64707471Y-62428815D02*
X64636042Y-62547863D01*
X64636042Y-62547863D02*
X64493185Y-62607387D01*
X64493185Y-62607387D02*
X63707471Y-62607387D01*
X64493185Y-62607387D02*
X64636042Y-62666911D01*
X64636042Y-62666911D02*
X64707471Y-62785958D01*
X64707471Y-62785958D02*
X64707471Y-62964530D01*
X64707471Y-62964530D02*
X64636042Y-63083577D01*
X64636042Y-63083577D02*
X64493185Y-63143101D01*
X64493185Y-63143101D02*
X63707471Y-63143101D01*
X63707471Y-63916911D02*
X63778900Y-63797863D01*
X63778900Y-63797863D02*
X63850328Y-63738340D01*
X63850328Y-63738340D02*
X63993185Y-63678816D01*
X63993185Y-63678816D02*
X64421757Y-63678816D01*
X64421757Y-63678816D02*
X64564614Y-63738340D01*
X64564614Y-63738340D02*
X64636042Y-63797863D01*
X64636042Y-63797863D02*
X64707471Y-63916911D01*
X64707471Y-63916911D02*
X64707471Y-64095482D01*
X64707471Y-64095482D02*
X64636042Y-64214530D01*
X64636042Y-64214530D02*
X64564614Y-64274054D01*
X64564614Y-64274054D02*
X64421757Y-64333578D01*
X64421757Y-64333578D02*
X63993185Y-64333578D01*
X63993185Y-64333578D02*
X63850328Y-64274054D01*
X63850328Y-64274054D02*
X63778900Y-64214530D01*
X63778900Y-64214530D02*
X63707471Y-64095482D01*
X63707471Y-64095482D02*
X63707471Y-63916911D01*
X64707471Y-64869292D02*
X63707471Y-64869292D01*
X64564614Y-64869292D02*
X64636042Y-64928815D01*
X64636042Y-64928815D02*
X64707471Y-65047863D01*
X64707471Y-65047863D02*
X64707471Y-65226434D01*
X64707471Y-65226434D02*
X64636042Y-65345482D01*
X64636042Y-65345482D02*
X64493185Y-65405006D01*
X64493185Y-65405006D02*
X63707471Y-65405006D01*
X63778900Y-65940720D02*
X63707471Y-66059767D01*
X63707471Y-66059767D02*
X63707471Y-66297863D01*
X63707471Y-66297863D02*
X63778900Y-66416910D01*
X63778900Y-66416910D02*
X63921757Y-66476434D01*
X63921757Y-66476434D02*
X63993185Y-66476434D01*
X63993185Y-66476434D02*
X64136042Y-66416910D01*
X64136042Y-66416910D02*
X64207471Y-66297863D01*
X64207471Y-66297863D02*
X64207471Y-66119291D01*
X64207471Y-66119291D02*
X64278900Y-66000244D01*
X64278900Y-66000244D02*
X64421757Y-65940720D01*
X64421757Y-65940720D02*
X64493185Y-65940720D01*
X64493185Y-65940720D02*
X64636042Y-66000244D01*
X64636042Y-66000244D02*
X64707471Y-66119291D01*
X64707471Y-66119291D02*
X64707471Y-66297863D01*
X64707471Y-66297863D02*
X64636042Y-66416910D01*
X63707471Y-67190720D02*
X63778900Y-67071672D01*
X63778900Y-67071672D02*
X63850328Y-67012149D01*
X63850328Y-67012149D02*
X63993185Y-66952625D01*
X63993185Y-66952625D02*
X64421757Y-66952625D01*
X64421757Y-66952625D02*
X64564614Y-67012149D01*
X64564614Y-67012149D02*
X64636042Y-67071672D01*
X64636042Y-67071672D02*
X64707471Y-67190720D01*
X64707471Y-67190720D02*
X64707471Y-67369291D01*
X64707471Y-67369291D02*
X64636042Y-67488339D01*
X64636042Y-67488339D02*
X64564614Y-67547863D01*
X64564614Y-67547863D02*
X64421757Y-67607387D01*
X64421757Y-67607387D02*
X63993185Y-67607387D01*
X63993185Y-67607387D02*
X63850328Y-67547863D01*
X63850328Y-67547863D02*
X63778900Y-67488339D01*
X63778900Y-67488339D02*
X63707471Y-67369291D01*
X63707471Y-67369291D02*
X63707471Y-67190720D01*
X64707471Y-68143101D02*
X63707471Y-68143101D01*
X64564614Y-68143101D02*
X64636042Y-68202624D01*
X64636042Y-68202624D02*
X64707471Y-68321672D01*
X64707471Y-68321672D02*
X64707471Y-68500243D01*
X64707471Y-68500243D02*
X64636042Y-68619291D01*
X64636042Y-68619291D02*
X64493185Y-68678815D01*
X64493185Y-68678815D02*
X63707471Y-68678815D01*
X63850328Y-69274053D02*
X63778900Y-69333576D01*
X63778900Y-69333576D02*
X63707471Y-69274053D01*
X63707471Y-69274053D02*
X63778900Y-69214529D01*
X63778900Y-69214529D02*
X63850328Y-69274053D01*
X63850328Y-69274053D02*
X63707471Y-69274053D01*
X63778900Y-70405005D02*
X63707471Y-70285957D01*
X63707471Y-70285957D02*
X63707471Y-70047862D01*
X63707471Y-70047862D02*
X63778900Y-69928814D01*
X63778900Y-69928814D02*
X63850328Y-69869291D01*
X63850328Y-69869291D02*
X63993185Y-69809767D01*
X63993185Y-69809767D02*
X64421757Y-69809767D01*
X64421757Y-69809767D02*
X64564614Y-69869291D01*
X64564614Y-69869291D02*
X64636042Y-69928814D01*
X64636042Y-69928814D02*
X64707471Y-70047862D01*
X64707471Y-70047862D02*
X64707471Y-70285957D01*
X64707471Y-70285957D02*
X64636042Y-70405005D01*
X63707471Y-71119291D02*
X63778900Y-71000243D01*
X63778900Y-71000243D02*
X63850328Y-70940720D01*
X63850328Y-70940720D02*
X63993185Y-70881196D01*
X63993185Y-70881196D02*
X64421757Y-70881196D01*
X64421757Y-70881196D02*
X64564614Y-70940720D01*
X64564614Y-70940720D02*
X64636042Y-71000243D01*
X64636042Y-71000243D02*
X64707471Y-71119291D01*
X64707471Y-71119291D02*
X64707471Y-71297862D01*
X64707471Y-71297862D02*
X64636042Y-71416910D01*
X64636042Y-71416910D02*
X64564614Y-71476434D01*
X64564614Y-71476434D02*
X64421757Y-71535958D01*
X64421757Y-71535958D02*
X63993185Y-71535958D01*
X63993185Y-71535958D02*
X63850328Y-71476434D01*
X63850328Y-71476434D02*
X63778900Y-71416910D01*
X63778900Y-71416910D02*
X63707471Y-71297862D01*
X63707471Y-71297862D02*
X63707471Y-71119291D01*
X63707471Y-72071672D02*
X64707471Y-72071672D01*
X64564614Y-72071672D02*
X64636042Y-72131195D01*
X64636042Y-72131195D02*
X64707471Y-72250243D01*
X64707471Y-72250243D02*
X64707471Y-72428814D01*
X64707471Y-72428814D02*
X64636042Y-72547862D01*
X64636042Y-72547862D02*
X64493185Y-72607386D01*
X64493185Y-72607386D02*
X63707471Y-72607386D01*
X64493185Y-72607386D02*
X64636042Y-72666910D01*
X64636042Y-72666910D02*
X64707471Y-72785957D01*
X64707471Y-72785957D02*
X64707471Y-72964529D01*
X64707471Y-72964529D02*
X64636042Y-73083576D01*
X64636042Y-73083576D02*
X64493185Y-73143100D01*
X64493185Y-73143100D02*
X63707471Y-73143100D01*
X61363900Y-60821673D02*
X61292471Y-61000244D01*
X61292471Y-61000244D02*
X61292471Y-61297863D01*
X61292471Y-61297863D02*
X61363900Y-61416911D01*
X61363900Y-61416911D02*
X61435328Y-61476435D01*
X61435328Y-61476435D02*
X61578185Y-61535958D01*
X61578185Y-61535958D02*
X61721042Y-61535958D01*
X61721042Y-61535958D02*
X61863900Y-61476435D01*
X61863900Y-61476435D02*
X61935328Y-61416911D01*
X61935328Y-61416911D02*
X62006757Y-61297863D01*
X62006757Y-61297863D02*
X62078185Y-61059768D01*
X62078185Y-61059768D02*
X62149614Y-60940720D01*
X62149614Y-60940720D02*
X62221042Y-60881197D01*
X62221042Y-60881197D02*
X62363900Y-60821673D01*
X62363900Y-60821673D02*
X62506757Y-60821673D01*
X62506757Y-60821673D02*
X62649614Y-60881197D01*
X62649614Y-60881197D02*
X62721042Y-60940720D01*
X62721042Y-60940720D02*
X62792471Y-61059768D01*
X62792471Y-61059768D02*
X62792471Y-61357387D01*
X62792471Y-61357387D02*
X62721042Y-61535958D01*
X62792471Y-61893101D02*
X62792471Y-62607387D01*
X61292471Y-62250244D02*
X62792471Y-62250244D01*
X61863900Y-63024054D02*
X61863900Y-63976435D01*
X61292471Y-64571673D02*
X62792471Y-64571673D01*
X62078185Y-64571673D02*
X62078185Y-65285958D01*
X61292471Y-65285958D02*
X62792471Y-65285958D01*
X61292471Y-65881197D02*
X62792471Y-65881197D01*
X62792471Y-65881197D02*
X62792471Y-66178816D01*
X62792471Y-66178816D02*
X62721042Y-66357387D01*
X62721042Y-66357387D02*
X62578185Y-66476435D01*
X62578185Y-66476435D02*
X62435328Y-66535958D01*
X62435328Y-66535958D02*
X62149614Y-66595482D01*
X62149614Y-66595482D02*
X61935328Y-66595482D01*
X61935328Y-66595482D02*
X61649614Y-66535958D01*
X61649614Y-66535958D02*
X61506757Y-66476435D01*
X61506757Y-66476435D02*
X61363900Y-66357387D01*
X61363900Y-66357387D02*
X61292471Y-66178816D01*
X61292471Y-66178816D02*
X61292471Y-65881197D01*
X61292471Y-68738339D02*
X61292471Y-68024054D01*
X61292471Y-68381197D02*
X62792471Y-68381197D01*
X62792471Y-68381197D02*
X62578185Y-68262149D01*
X62578185Y-68262149D02*
X62435328Y-68143101D01*
X62435328Y-68143101D02*
X62363900Y-68024054D01*
X61435328Y-69274054D02*
X61363900Y-69333577D01*
X61363900Y-69333577D02*
X61292471Y-69274054D01*
X61292471Y-69274054D02*
X61363900Y-69214530D01*
X61363900Y-69214530D02*
X61435328Y-69274054D01*
X61435328Y-69274054D02*
X61292471Y-69274054D01*
X61292471Y-70524053D02*
X61292471Y-69809768D01*
X61292471Y-70166911D02*
X62792471Y-70166911D01*
X62792471Y-70166911D02*
X62578185Y-70047863D01*
X62578185Y-70047863D02*
X62435328Y-69928815D01*
X62435328Y-69928815D02*
X62363900Y-69809768D01*
X60234614Y-60821673D02*
X60306042Y-60881197D01*
X60306042Y-60881197D02*
X60377471Y-61000244D01*
X60377471Y-61000244D02*
X60377471Y-61297863D01*
X60377471Y-61297863D02*
X60306042Y-61416911D01*
X60306042Y-61416911D02*
X60234614Y-61476435D01*
X60234614Y-61476435D02*
X60091757Y-61535958D01*
X60091757Y-61535958D02*
X59948900Y-61535958D01*
X59948900Y-61535958D02*
X59734614Y-61476435D01*
X59734614Y-61476435D02*
X58877471Y-60762149D01*
X58877471Y-60762149D02*
X58877471Y-61535958D01*
X60377471Y-62309768D02*
X60377471Y-62428815D01*
X60377471Y-62428815D02*
X60306042Y-62547863D01*
X60306042Y-62547863D02*
X60234614Y-62607387D01*
X60234614Y-62607387D02*
X60091757Y-62666911D01*
X60091757Y-62666911D02*
X59806042Y-62726434D01*
X59806042Y-62726434D02*
X59448900Y-62726434D01*
X59448900Y-62726434D02*
X59163185Y-62666911D01*
X59163185Y-62666911D02*
X59020328Y-62607387D01*
X59020328Y-62607387D02*
X58948900Y-62547863D01*
X58948900Y-62547863D02*
X58877471Y-62428815D01*
X58877471Y-62428815D02*
X58877471Y-62309768D01*
X58877471Y-62309768D02*
X58948900Y-62190720D01*
X58948900Y-62190720D02*
X59020328Y-62131196D01*
X59020328Y-62131196D02*
X59163185Y-62071673D01*
X59163185Y-62071673D02*
X59448900Y-62012149D01*
X59448900Y-62012149D02*
X59806042Y-62012149D01*
X59806042Y-62012149D02*
X60091757Y-62071673D01*
X60091757Y-62071673D02*
X60234614Y-62131196D01*
X60234614Y-62131196D02*
X60306042Y-62190720D01*
X60306042Y-62190720D02*
X60377471Y-62309768D01*
X60234614Y-63202625D02*
X60306042Y-63262149D01*
X60306042Y-63262149D02*
X60377471Y-63381196D01*
X60377471Y-63381196D02*
X60377471Y-63678815D01*
X60377471Y-63678815D02*
X60306042Y-63797863D01*
X60306042Y-63797863D02*
X60234614Y-63857387D01*
X60234614Y-63857387D02*
X60091757Y-63916910D01*
X60091757Y-63916910D02*
X59948900Y-63916910D01*
X59948900Y-63916910D02*
X59734614Y-63857387D01*
X59734614Y-63857387D02*
X58877471Y-63143101D01*
X58877471Y-63143101D02*
X58877471Y-63916910D01*
X59877471Y-64988339D02*
X58877471Y-64988339D01*
X60448900Y-64690720D02*
X59377471Y-64393101D01*
X59377471Y-64393101D02*
X59377471Y-65166910D01*
X59448900Y-65643101D02*
X59448900Y-66595482D01*
X60377471Y-67428815D02*
X60377471Y-67547862D01*
X60377471Y-67547862D02*
X60306042Y-67666910D01*
X60306042Y-67666910D02*
X60234614Y-67726434D01*
X60234614Y-67726434D02*
X60091757Y-67785958D01*
X60091757Y-67785958D02*
X59806042Y-67845481D01*
X59806042Y-67845481D02*
X59448900Y-67845481D01*
X59448900Y-67845481D02*
X59163185Y-67785958D01*
X59163185Y-67785958D02*
X59020328Y-67726434D01*
X59020328Y-67726434D02*
X58948900Y-67666910D01*
X58948900Y-67666910D02*
X58877471Y-67547862D01*
X58877471Y-67547862D02*
X58877471Y-67428815D01*
X58877471Y-67428815D02*
X58948900Y-67309767D01*
X58948900Y-67309767D02*
X59020328Y-67250243D01*
X59020328Y-67250243D02*
X59163185Y-67190720D01*
X59163185Y-67190720D02*
X59448900Y-67131196D01*
X59448900Y-67131196D02*
X59806042Y-67131196D01*
X59806042Y-67131196D02*
X60091757Y-67190720D01*
X60091757Y-67190720D02*
X60234614Y-67250243D01*
X60234614Y-67250243D02*
X60306042Y-67309767D01*
X60306042Y-67309767D02*
X60377471Y-67428815D01*
X59877471Y-68916910D02*
X58877471Y-68916910D01*
X60448900Y-68619291D02*
X59377471Y-68321672D01*
X59377471Y-68321672D02*
X59377471Y-69095481D01*
D10*
X120408458Y-78432180D02*
X119741792Y-78432180D01*
X119741792Y-78432180D02*
X120170363Y-77432180D01*
X118932268Y-78098847D02*
X118932268Y-77432180D01*
X119170363Y-78479800D02*
X119408458Y-77765514D01*
X119408458Y-77765514D02*
X118789411Y-77765514D01*
X117932268Y-77432180D02*
X118408458Y-77432180D01*
X118408458Y-77432180D02*
X118408458Y-78432180D01*
X117741791Y-78432180D02*
X117408458Y-77432180D01*
X117408458Y-77432180D02*
X117075125Y-78432180D01*
X116170363Y-77527419D02*
X116217982Y-77479800D01*
X116217982Y-77479800D02*
X116360839Y-77432180D01*
X116360839Y-77432180D02*
X116456077Y-77432180D01*
X116456077Y-77432180D02*
X116598934Y-77479800D01*
X116598934Y-77479800D02*
X116694172Y-77575038D01*
X116694172Y-77575038D02*
X116741791Y-77670276D01*
X116741791Y-77670276D02*
X116789410Y-77860752D01*
X116789410Y-77860752D02*
X116789410Y-78003609D01*
X116789410Y-78003609D02*
X116741791Y-78194085D01*
X116741791Y-78194085D02*
X116694172Y-78289323D01*
X116694172Y-78289323D02*
X116598934Y-78384561D01*
X116598934Y-78384561D02*
X116456077Y-78432180D01*
X116456077Y-78432180D02*
X116360839Y-78432180D01*
X116360839Y-78432180D02*
X116217982Y-78384561D01*
X116217982Y-78384561D02*
X116170363Y-78336942D01*
X120360839Y-76726942D02*
X120313220Y-76774561D01*
X120313220Y-76774561D02*
X120217982Y-76822180D01*
X120217982Y-76822180D02*
X119979887Y-76822180D01*
X119979887Y-76822180D02*
X119884649Y-76774561D01*
X119884649Y-76774561D02*
X119837030Y-76726942D01*
X119837030Y-76726942D02*
X119789411Y-76631704D01*
X119789411Y-76631704D02*
X119789411Y-76536466D01*
X119789411Y-76536466D02*
X119837030Y-76393609D01*
X119837030Y-76393609D02*
X120408458Y-75822180D01*
X120408458Y-75822180D02*
X119789411Y-75822180D01*
X118932268Y-76488847D02*
X118932268Y-75822180D01*
X119170363Y-76869800D02*
X119408458Y-76155514D01*
X119408458Y-76155514D02*
X118789411Y-76155514D01*
X117932268Y-76822180D02*
X118408458Y-76822180D01*
X118408458Y-76822180D02*
X118456077Y-76345990D01*
X118456077Y-76345990D02*
X118408458Y-76393609D01*
X118408458Y-76393609D02*
X118313220Y-76441228D01*
X118313220Y-76441228D02*
X118075125Y-76441228D01*
X118075125Y-76441228D02*
X117979887Y-76393609D01*
X117979887Y-76393609D02*
X117932268Y-76345990D01*
X117932268Y-76345990D02*
X117884649Y-76250752D01*
X117884649Y-76250752D02*
X117884649Y-76012657D01*
X117884649Y-76012657D02*
X117932268Y-75917419D01*
X117932268Y-75917419D02*
X117979887Y-75869800D01*
X117979887Y-75869800D02*
X118075125Y-75822180D01*
X118075125Y-75822180D02*
X118313220Y-75822180D01*
X118313220Y-75822180D02*
X118408458Y-75869800D01*
X118408458Y-75869800D02*
X118456077Y-75917419D01*
D12*
X104663423Y-126531379D02*
X104663423Y-125531379D01*
X104663423Y-125531379D02*
X104930089Y-126245664D01*
X104930089Y-126245664D02*
X105196756Y-125531379D01*
X105196756Y-125531379D02*
X105196756Y-126531379D01*
X106034852Y-126436140D02*
X105996756Y-126483760D01*
X105996756Y-126483760D02*
X105882471Y-126531379D01*
X105882471Y-126531379D02*
X105806280Y-126531379D01*
X105806280Y-126531379D02*
X105691994Y-126483760D01*
X105691994Y-126483760D02*
X105615804Y-126388521D01*
X105615804Y-126388521D02*
X105577709Y-126293283D01*
X105577709Y-126293283D02*
X105539613Y-126102807D01*
X105539613Y-126102807D02*
X105539613Y-125959950D01*
X105539613Y-125959950D02*
X105577709Y-125769474D01*
X105577709Y-125769474D02*
X105615804Y-125674236D01*
X105615804Y-125674236D02*
X105691994Y-125578998D01*
X105691994Y-125578998D02*
X105806280Y-125531379D01*
X105806280Y-125531379D02*
X105882471Y-125531379D01*
X105882471Y-125531379D02*
X105996756Y-125578998D01*
X105996756Y-125578998D02*
X106034852Y-125626617D01*
X106377709Y-126531379D02*
X106377709Y-125531379D01*
X106377709Y-125531379D02*
X106682471Y-125531379D01*
X106682471Y-125531379D02*
X106758661Y-125578998D01*
X106758661Y-125578998D02*
X106796756Y-125626617D01*
X106796756Y-125626617D02*
X106834852Y-125721855D01*
X106834852Y-125721855D02*
X106834852Y-125864712D01*
X106834852Y-125864712D02*
X106796756Y-125959950D01*
X106796756Y-125959950D02*
X106758661Y-126007569D01*
X106758661Y-126007569D02*
X106682471Y-126055188D01*
X106682471Y-126055188D02*
X106377709Y-126055188D01*
X104587232Y-127141379D02*
X105120566Y-127141379D01*
X105120566Y-127141379D02*
X104777708Y-128141379D01*
X105463423Y-128141379D02*
X105615804Y-128141379D01*
X105615804Y-128141379D02*
X105691994Y-128093760D01*
X105691994Y-128093760D02*
X105730090Y-128046140D01*
X105730090Y-128046140D02*
X105806280Y-127903283D01*
X105806280Y-127903283D02*
X105844375Y-127712807D01*
X105844375Y-127712807D02*
X105844375Y-127331855D01*
X105844375Y-127331855D02*
X105806280Y-127236617D01*
X105806280Y-127236617D02*
X105768185Y-127188998D01*
X105768185Y-127188998D02*
X105691994Y-127141379D01*
X105691994Y-127141379D02*
X105539613Y-127141379D01*
X105539613Y-127141379D02*
X105463423Y-127188998D01*
X105463423Y-127188998D02*
X105425328Y-127236617D01*
X105425328Y-127236617D02*
X105387232Y-127331855D01*
X105387232Y-127331855D02*
X105387232Y-127569950D01*
X105387232Y-127569950D02*
X105425328Y-127665188D01*
X105425328Y-127665188D02*
X105463423Y-127712807D01*
X105463423Y-127712807D02*
X105539613Y-127760426D01*
X105539613Y-127760426D02*
X105691994Y-127760426D01*
X105691994Y-127760426D02*
X105768185Y-127712807D01*
X105768185Y-127712807D02*
X105806280Y-127665188D01*
X105806280Y-127665188D02*
X105844375Y-127569950D01*
X106568185Y-127141379D02*
X106187233Y-127141379D01*
X106187233Y-127141379D02*
X106149137Y-127617569D01*
X106149137Y-127617569D02*
X106187233Y-127569950D01*
X106187233Y-127569950D02*
X106263423Y-127522331D01*
X106263423Y-127522331D02*
X106453899Y-127522331D01*
X106453899Y-127522331D02*
X106530090Y-127569950D01*
X106530090Y-127569950D02*
X106568185Y-127617569D01*
X106568185Y-127617569D02*
X106606280Y-127712807D01*
X106606280Y-127712807D02*
X106606280Y-127950902D01*
X106606280Y-127950902D02*
X106568185Y-128046140D01*
X106568185Y-128046140D02*
X106530090Y-128093760D01*
X106530090Y-128093760D02*
X106453899Y-128141379D01*
X106453899Y-128141379D02*
X106263423Y-128141379D01*
X106263423Y-128141379D02*
X106187233Y-128093760D01*
X106187233Y-128093760D02*
X106149137Y-128046140D01*
X107368185Y-128141379D02*
X106911042Y-128141379D01*
X107139614Y-128141379D02*
X107139614Y-127141379D01*
X107139614Y-127141379D02*
X107063423Y-127284236D01*
X107063423Y-127284236D02*
X106987233Y-127379474D01*
X106987233Y-127379474D02*
X106911042Y-127427093D01*
X107863424Y-127141379D02*
X107939614Y-127141379D01*
X107939614Y-127141379D02*
X108015805Y-127188998D01*
X108015805Y-127188998D02*
X108053900Y-127236617D01*
X108053900Y-127236617D02*
X108091995Y-127331855D01*
X108091995Y-127331855D02*
X108130090Y-127522331D01*
X108130090Y-127522331D02*
X108130090Y-127760426D01*
X108130090Y-127760426D02*
X108091995Y-127950902D01*
X108091995Y-127950902D02*
X108053900Y-128046140D01*
X108053900Y-128046140D02*
X108015805Y-128093760D01*
X108015805Y-128093760D02*
X107939614Y-128141379D01*
X107939614Y-128141379D02*
X107863424Y-128141379D01*
X107863424Y-128141379D02*
X107787233Y-128093760D01*
X107787233Y-128093760D02*
X107749138Y-128046140D01*
X107749138Y-128046140D02*
X107711043Y-127950902D01*
X107711043Y-127950902D02*
X107672947Y-127760426D01*
X107672947Y-127760426D02*
X107672947Y-127522331D01*
X107672947Y-127522331D02*
X107711043Y-127331855D01*
X107711043Y-127331855D02*
X107749138Y-127236617D01*
X107749138Y-127236617D02*
X107787233Y-127188998D01*
X107787233Y-127188998D02*
X107863424Y-127141379D01*
D10*
X135029411Y-92586180D02*
X135600839Y-92586180D01*
X135315125Y-92586180D02*
X135315125Y-93586180D01*
X135315125Y-93586180D02*
X135410363Y-93443323D01*
X135410363Y-93443323D02*
X135505601Y-93348085D01*
X135505601Y-93348085D02*
X135600839Y-93300466D01*
X134600839Y-92681419D02*
X134553220Y-92633800D01*
X134553220Y-92633800D02*
X134600839Y-92586180D01*
X134600839Y-92586180D02*
X134648458Y-92633800D01*
X134648458Y-92633800D02*
X134600839Y-92681419D01*
X134600839Y-92681419D02*
X134600839Y-92586180D01*
X133981792Y-93157609D02*
X134077030Y-93205228D01*
X134077030Y-93205228D02*
X134124649Y-93252847D01*
X134124649Y-93252847D02*
X134172268Y-93348085D01*
X134172268Y-93348085D02*
X134172268Y-93395704D01*
X134172268Y-93395704D02*
X134124649Y-93490942D01*
X134124649Y-93490942D02*
X134077030Y-93538561D01*
X134077030Y-93538561D02*
X133981792Y-93586180D01*
X133981792Y-93586180D02*
X133791316Y-93586180D01*
X133791316Y-93586180D02*
X133696078Y-93538561D01*
X133696078Y-93538561D02*
X133648459Y-93490942D01*
X133648459Y-93490942D02*
X133600840Y-93395704D01*
X133600840Y-93395704D02*
X133600840Y-93348085D01*
X133600840Y-93348085D02*
X133648459Y-93252847D01*
X133648459Y-93252847D02*
X133696078Y-93205228D01*
X133696078Y-93205228D02*
X133791316Y-93157609D01*
X133791316Y-93157609D02*
X133981792Y-93157609D01*
X133981792Y-93157609D02*
X134077030Y-93109990D01*
X134077030Y-93109990D02*
X134124649Y-93062371D01*
X134124649Y-93062371D02*
X134172268Y-92967133D01*
X134172268Y-92967133D02*
X134172268Y-92776657D01*
X134172268Y-92776657D02*
X134124649Y-92681419D01*
X134124649Y-92681419D02*
X134077030Y-92633800D01*
X134077030Y-92633800D02*
X133981792Y-92586180D01*
X133981792Y-92586180D02*
X133791316Y-92586180D01*
X133791316Y-92586180D02*
X133696078Y-92633800D01*
X133696078Y-92633800D02*
X133648459Y-92681419D01*
X133648459Y-92681419D02*
X133600840Y-92776657D01*
X133600840Y-92776657D02*
X133600840Y-92967133D01*
X133600840Y-92967133D02*
X133648459Y-93062371D01*
X133648459Y-93062371D02*
X133696078Y-93109990D01*
X133696078Y-93109990D02*
X133791316Y-93157609D01*
X133315125Y-93586180D02*
X132981792Y-92586180D01*
X132981792Y-92586180D02*
X132648459Y-93586180D01*
X59264779Y-105701819D02*
X59264779Y-104701819D01*
X59264779Y-104701819D02*
X59645731Y-104701819D01*
X59645731Y-104701819D02*
X59740969Y-104749438D01*
X59740969Y-104749438D02*
X59788588Y-104797057D01*
X59788588Y-104797057D02*
X59836207Y-104892295D01*
X59836207Y-104892295D02*
X59836207Y-105035152D01*
X59836207Y-105035152D02*
X59788588Y-105130390D01*
X59788588Y-105130390D02*
X59740969Y-105178009D01*
X59740969Y-105178009D02*
X59645731Y-105225628D01*
X59645731Y-105225628D02*
X59264779Y-105225628D01*
X60836207Y-105701819D02*
X60502874Y-105225628D01*
X60264779Y-105701819D02*
X60264779Y-104701819D01*
X60264779Y-104701819D02*
X60645731Y-104701819D01*
X60645731Y-104701819D02*
X60740969Y-104749438D01*
X60740969Y-104749438D02*
X60788588Y-104797057D01*
X60788588Y-104797057D02*
X60836207Y-104892295D01*
X60836207Y-104892295D02*
X60836207Y-105035152D01*
X60836207Y-105035152D02*
X60788588Y-105130390D01*
X60788588Y-105130390D02*
X60740969Y-105178009D01*
X60740969Y-105178009D02*
X60645731Y-105225628D01*
X60645731Y-105225628D02*
X60264779Y-105225628D01*
X61455255Y-104701819D02*
X61645731Y-104701819D01*
X61645731Y-104701819D02*
X61740969Y-104749438D01*
X61740969Y-104749438D02*
X61836207Y-104844676D01*
X61836207Y-104844676D02*
X61883826Y-105035152D01*
X61883826Y-105035152D02*
X61883826Y-105368485D01*
X61883826Y-105368485D02*
X61836207Y-105558961D01*
X61836207Y-105558961D02*
X61740969Y-105654200D01*
X61740969Y-105654200D02*
X61645731Y-105701819D01*
X61645731Y-105701819D02*
X61455255Y-105701819D01*
X61455255Y-105701819D02*
X61360017Y-105654200D01*
X61360017Y-105654200D02*
X61264779Y-105558961D01*
X61264779Y-105558961D02*
X61217160Y-105368485D01*
X61217160Y-105368485D02*
X61217160Y-105035152D01*
X61217160Y-105035152D02*
X61264779Y-104844676D01*
X61264779Y-104844676D02*
X61360017Y-104749438D01*
X61360017Y-104749438D02*
X61455255Y-104701819D01*
X62836207Y-104749438D02*
X62740969Y-104701819D01*
X62740969Y-104701819D02*
X62598112Y-104701819D01*
X62598112Y-104701819D02*
X62455255Y-104749438D01*
X62455255Y-104749438D02*
X62360017Y-104844676D01*
X62360017Y-104844676D02*
X62312398Y-104939914D01*
X62312398Y-104939914D02*
X62264779Y-105130390D01*
X62264779Y-105130390D02*
X62264779Y-105273247D01*
X62264779Y-105273247D02*
X62312398Y-105463723D01*
X62312398Y-105463723D02*
X62360017Y-105558961D01*
X62360017Y-105558961D02*
X62455255Y-105654200D01*
X62455255Y-105654200D02*
X62598112Y-105701819D01*
X62598112Y-105701819D02*
X62693350Y-105701819D01*
X62693350Y-105701819D02*
X62836207Y-105654200D01*
X62836207Y-105654200D02*
X62883826Y-105606580D01*
X62883826Y-105606580D02*
X62883826Y-105273247D01*
X62883826Y-105273247D02*
X62693350Y-105273247D01*
X59264779Y-106788009D02*
X59598112Y-106788009D01*
X59740969Y-107311819D02*
X59264779Y-107311819D01*
X59264779Y-107311819D02*
X59264779Y-106311819D01*
X59264779Y-106311819D02*
X59740969Y-106311819D01*
X60169541Y-107311819D02*
X60169541Y-106311819D01*
X60169541Y-106311819D02*
X60740969Y-107311819D01*
X60740969Y-107311819D02*
X60740969Y-106311819D01*
X61169541Y-107026104D02*
X61645731Y-107026104D01*
X61074303Y-107311819D02*
X61407636Y-106311819D01*
X61407636Y-106311819D02*
X61740969Y-107311819D01*
X62407636Y-106788009D02*
X62550493Y-106835628D01*
X62550493Y-106835628D02*
X62598112Y-106883247D01*
X62598112Y-106883247D02*
X62645731Y-106978485D01*
X62645731Y-106978485D02*
X62645731Y-107121342D01*
X62645731Y-107121342D02*
X62598112Y-107216580D01*
X62598112Y-107216580D02*
X62550493Y-107264200D01*
X62550493Y-107264200D02*
X62455255Y-107311819D01*
X62455255Y-107311819D02*
X62074303Y-107311819D01*
X62074303Y-107311819D02*
X62074303Y-106311819D01*
X62074303Y-106311819D02*
X62407636Y-106311819D01*
X62407636Y-106311819D02*
X62502874Y-106359438D01*
X62502874Y-106359438D02*
X62550493Y-106407057D01*
X62550493Y-106407057D02*
X62598112Y-106502295D01*
X62598112Y-106502295D02*
X62598112Y-106597533D01*
X62598112Y-106597533D02*
X62550493Y-106692771D01*
X62550493Y-106692771D02*
X62502874Y-106740390D01*
X62502874Y-106740390D02*
X62407636Y-106788009D01*
X62407636Y-106788009D02*
X62074303Y-106788009D01*
X63550493Y-107311819D02*
X63074303Y-107311819D01*
X63074303Y-107311819D02*
X63074303Y-106311819D01*
X63883827Y-106788009D02*
X64217160Y-106788009D01*
X64360017Y-107311819D02*
X63883827Y-107311819D01*
X63883827Y-107311819D02*
X63883827Y-106311819D01*
X63883827Y-106311819D02*
X64360017Y-106311819D01*
X57140200Y-122392839D02*
X57187819Y-122249982D01*
X57187819Y-122249982D02*
X57187819Y-122011887D01*
X57187819Y-122011887D02*
X57140200Y-121916649D01*
X57140200Y-121916649D02*
X57092580Y-121869030D01*
X57092580Y-121869030D02*
X56997342Y-121821411D01*
X56997342Y-121821411D02*
X56902104Y-121821411D01*
X56902104Y-121821411D02*
X56806866Y-121869030D01*
X56806866Y-121869030D02*
X56759247Y-121916649D01*
X56759247Y-121916649D02*
X56711628Y-122011887D01*
X56711628Y-122011887D02*
X56664009Y-122202363D01*
X56664009Y-122202363D02*
X56616390Y-122297601D01*
X56616390Y-122297601D02*
X56568771Y-122345220D01*
X56568771Y-122345220D02*
X56473533Y-122392839D01*
X56473533Y-122392839D02*
X56378295Y-122392839D01*
X56378295Y-122392839D02*
X56283057Y-122345220D01*
X56283057Y-122345220D02*
X56235438Y-122297601D01*
X56235438Y-122297601D02*
X56187819Y-122202363D01*
X56187819Y-122202363D02*
X56187819Y-121964268D01*
X56187819Y-121964268D02*
X56235438Y-121821411D01*
X56187819Y-121535696D02*
X56187819Y-120964268D01*
X57187819Y-121249982D02*
X56187819Y-121249982D01*
X56806866Y-120630934D02*
X56806866Y-119869030D01*
X57187819Y-118916649D02*
X57187819Y-119392839D01*
X57187819Y-119392839D02*
X56187819Y-119392839D01*
X57187819Y-118583315D02*
X56187819Y-118583315D01*
X57187819Y-118107125D02*
X56187819Y-118107125D01*
X56187819Y-118107125D02*
X57187819Y-117535697D01*
X57187819Y-117535697D02*
X56187819Y-117535697D01*
X57187819Y-117059506D02*
X56187819Y-117059506D01*
X57187819Y-116488078D02*
X56616390Y-116916649D01*
X56187819Y-116488078D02*
X56759247Y-117059506D01*
X58702580Y-121773792D02*
X58750200Y-121821411D01*
X58750200Y-121821411D02*
X58797819Y-121964268D01*
X58797819Y-121964268D02*
X58797819Y-122059506D01*
X58797819Y-122059506D02*
X58750200Y-122202363D01*
X58750200Y-122202363D02*
X58654961Y-122297601D01*
X58654961Y-122297601D02*
X58559723Y-122345220D01*
X58559723Y-122345220D02*
X58369247Y-122392839D01*
X58369247Y-122392839D02*
X58226390Y-122392839D01*
X58226390Y-122392839D02*
X58035914Y-122345220D01*
X58035914Y-122345220D02*
X57940676Y-122297601D01*
X57940676Y-122297601D02*
X57845438Y-122202363D01*
X57845438Y-122202363D02*
X57797819Y-122059506D01*
X57797819Y-122059506D02*
X57797819Y-121964268D01*
X57797819Y-121964268D02*
X57845438Y-121821411D01*
X57845438Y-121821411D02*
X57893057Y-121773792D01*
X58797819Y-120869030D02*
X58797819Y-121345220D01*
X58797819Y-121345220D02*
X57797819Y-121345220D01*
X57797819Y-120345220D02*
X57797819Y-120154744D01*
X57797819Y-120154744D02*
X57845438Y-120059506D01*
X57845438Y-120059506D02*
X57940676Y-119964268D01*
X57940676Y-119964268D02*
X58131152Y-119916649D01*
X58131152Y-119916649D02*
X58464485Y-119916649D01*
X58464485Y-119916649D02*
X58654961Y-119964268D01*
X58654961Y-119964268D02*
X58750200Y-120059506D01*
X58750200Y-120059506D02*
X58797819Y-120154744D01*
X58797819Y-120154744D02*
X58797819Y-120345220D01*
X58797819Y-120345220D02*
X58750200Y-120440458D01*
X58750200Y-120440458D02*
X58654961Y-120535696D01*
X58654961Y-120535696D02*
X58464485Y-120583315D01*
X58464485Y-120583315D02*
X58131152Y-120583315D01*
X58131152Y-120583315D02*
X57940676Y-120535696D01*
X57940676Y-120535696D02*
X57845438Y-120440458D01*
X57845438Y-120440458D02*
X57797819Y-120345220D01*
X58797819Y-119488077D02*
X57797819Y-119488077D01*
X57797819Y-119488077D02*
X58797819Y-118916649D01*
X58797819Y-118916649D02*
X57797819Y-118916649D01*
X58274009Y-118440458D02*
X58274009Y-118107125D01*
X58797819Y-117964268D02*
X58797819Y-118440458D01*
X58797819Y-118440458D02*
X57797819Y-118440458D01*
X57797819Y-118440458D02*
X57797819Y-117964268D01*
X138258779Y-73148866D02*
X139020684Y-73148866D01*
X138639731Y-73529819D02*
X138639731Y-72767914D01*
X148269438Y-124107411D02*
X148221819Y-124202649D01*
X148221819Y-124202649D02*
X148221819Y-124345506D01*
X148221819Y-124345506D02*
X148269438Y-124488363D01*
X148269438Y-124488363D02*
X148364676Y-124583601D01*
X148364676Y-124583601D02*
X148459914Y-124631220D01*
X148459914Y-124631220D02*
X148650390Y-124678839D01*
X148650390Y-124678839D02*
X148793247Y-124678839D01*
X148793247Y-124678839D02*
X148983723Y-124631220D01*
X148983723Y-124631220D02*
X149078961Y-124583601D01*
X149078961Y-124583601D02*
X149174200Y-124488363D01*
X149174200Y-124488363D02*
X149221819Y-124345506D01*
X149221819Y-124345506D02*
X149221819Y-124250268D01*
X149221819Y-124250268D02*
X149174200Y-124107411D01*
X149174200Y-124107411D02*
X149126580Y-124059792D01*
X149126580Y-124059792D02*
X148793247Y-124059792D01*
X148793247Y-124059792D02*
X148793247Y-124250268D01*
X149221819Y-123631220D02*
X148221819Y-123631220D01*
X148221819Y-123631220D02*
X149221819Y-123059792D01*
X149221819Y-123059792D02*
X148221819Y-123059792D01*
X149221819Y-122583601D02*
X148221819Y-122583601D01*
X148221819Y-122583601D02*
X148221819Y-122345506D01*
X148221819Y-122345506D02*
X148269438Y-122202649D01*
X148269438Y-122202649D02*
X148364676Y-122107411D01*
X148364676Y-122107411D02*
X148459914Y-122059792D01*
X148459914Y-122059792D02*
X148650390Y-122012173D01*
X148650390Y-122012173D02*
X148793247Y-122012173D01*
X148793247Y-122012173D02*
X148983723Y-122059792D01*
X148983723Y-122059792D02*
X149078961Y-122107411D01*
X149078961Y-122107411D02*
X149174200Y-122202649D01*
X149174200Y-122202649D02*
X149221819Y-122345506D01*
X149221819Y-122345506D02*
X149221819Y-122583601D01*
X149221819Y-120250268D02*
X148745628Y-120583601D01*
X149221819Y-120821696D02*
X148221819Y-120821696D01*
X148221819Y-120821696D02*
X148221819Y-120440744D01*
X148221819Y-120440744D02*
X148269438Y-120345506D01*
X148269438Y-120345506D02*
X148317057Y-120297887D01*
X148317057Y-120297887D02*
X148412295Y-120250268D01*
X148412295Y-120250268D02*
X148555152Y-120250268D01*
X148555152Y-120250268D02*
X148650390Y-120297887D01*
X148650390Y-120297887D02*
X148698009Y-120345506D01*
X148698009Y-120345506D02*
X148745628Y-120440744D01*
X148745628Y-120440744D02*
X148745628Y-120821696D01*
X148221819Y-119916934D02*
X149221819Y-119250268D01*
X148221819Y-119250268D02*
X149221819Y-119916934D01*
X148221819Y-118250267D02*
X148221819Y-117678839D01*
X149221819Y-117964553D02*
X148221819Y-117964553D01*
X148221819Y-117440743D02*
X149221819Y-116774077D01*
X148221819Y-116774077D02*
X149221819Y-117440743D01*
X136226779Y-117893819D02*
X136226779Y-116893819D01*
X136226779Y-116893819D02*
X136560112Y-117608104D01*
X136560112Y-117608104D02*
X136893445Y-116893819D01*
X136893445Y-116893819D02*
X136893445Y-117893819D01*
X137322017Y-117608104D02*
X137798207Y-117608104D01*
X137226779Y-117893819D02*
X137560112Y-116893819D01*
X137560112Y-116893819D02*
X137893445Y-117893819D01*
X138131541Y-116893819D02*
X138798207Y-117893819D01*
X138798207Y-116893819D02*
X138131541Y-117893819D01*
X136131541Y-118503819D02*
X136750588Y-118503819D01*
X136750588Y-118503819D02*
X136417255Y-118884771D01*
X136417255Y-118884771D02*
X136560112Y-118884771D01*
X136560112Y-118884771D02*
X136655350Y-118932390D01*
X136655350Y-118932390D02*
X136702969Y-118980009D01*
X136702969Y-118980009D02*
X136750588Y-119075247D01*
X136750588Y-119075247D02*
X136750588Y-119313342D01*
X136750588Y-119313342D02*
X136702969Y-119408580D01*
X136702969Y-119408580D02*
X136655350Y-119456200D01*
X136655350Y-119456200D02*
X136560112Y-119503819D01*
X136560112Y-119503819D02*
X136274398Y-119503819D01*
X136274398Y-119503819D02*
X136179160Y-119456200D01*
X136179160Y-119456200D02*
X136131541Y-119408580D01*
X137131541Y-118599057D02*
X137179160Y-118551438D01*
X137179160Y-118551438D02*
X137274398Y-118503819D01*
X137274398Y-118503819D02*
X137512493Y-118503819D01*
X137512493Y-118503819D02*
X137607731Y-118551438D01*
X137607731Y-118551438D02*
X137655350Y-118599057D01*
X137655350Y-118599057D02*
X137702969Y-118694295D01*
X137702969Y-118694295D02*
X137702969Y-118789533D01*
X137702969Y-118789533D02*
X137655350Y-118932390D01*
X137655350Y-118932390D02*
X137083922Y-119503819D01*
X137083922Y-119503819D02*
X137702969Y-119503819D01*
X138036303Y-118503819D02*
X138655350Y-118503819D01*
X138655350Y-118503819D02*
X138322017Y-118884771D01*
X138322017Y-118884771D02*
X138464874Y-118884771D01*
X138464874Y-118884771D02*
X138560112Y-118932390D01*
X138560112Y-118932390D02*
X138607731Y-118980009D01*
X138607731Y-118980009D02*
X138655350Y-119075247D01*
X138655350Y-119075247D02*
X138655350Y-119313342D01*
X138655350Y-119313342D02*
X138607731Y-119408580D01*
X138607731Y-119408580D02*
X138560112Y-119456200D01*
X138560112Y-119456200D02*
X138464874Y-119503819D01*
X138464874Y-119503819D02*
X138179160Y-119503819D01*
X138179160Y-119503819D02*
X138083922Y-119456200D01*
X138083922Y-119456200D02*
X138036303Y-119408580D01*
X139036303Y-118599057D02*
X139083922Y-118551438D01*
X139083922Y-118551438D02*
X139179160Y-118503819D01*
X139179160Y-118503819D02*
X139417255Y-118503819D01*
X139417255Y-118503819D02*
X139512493Y-118551438D01*
X139512493Y-118551438D02*
X139560112Y-118599057D01*
X139560112Y-118599057D02*
X139607731Y-118694295D01*
X139607731Y-118694295D02*
X139607731Y-118789533D01*
X139607731Y-118789533D02*
X139560112Y-118932390D01*
X139560112Y-118932390D02*
X138988684Y-119503819D01*
X138988684Y-119503819D02*
X139607731Y-119503819D01*
X125066588Y-123631438D02*
X124971350Y-123583819D01*
X124971350Y-123583819D02*
X124828493Y-123583819D01*
X124828493Y-123583819D02*
X124685636Y-123631438D01*
X124685636Y-123631438D02*
X124590398Y-123726676D01*
X124590398Y-123726676D02*
X124542779Y-123821914D01*
X124542779Y-123821914D02*
X124495160Y-124012390D01*
X124495160Y-124012390D02*
X124495160Y-124155247D01*
X124495160Y-124155247D02*
X124542779Y-124345723D01*
X124542779Y-124345723D02*
X124590398Y-124440961D01*
X124590398Y-124440961D02*
X124685636Y-124536200D01*
X124685636Y-124536200D02*
X124828493Y-124583819D01*
X124828493Y-124583819D02*
X124923731Y-124583819D01*
X124923731Y-124583819D02*
X125066588Y-124536200D01*
X125066588Y-124536200D02*
X125114207Y-124488580D01*
X125114207Y-124488580D02*
X125114207Y-124155247D01*
X125114207Y-124155247D02*
X124923731Y-124155247D01*
X101968180Y-85394969D02*
X101968180Y-84918779D01*
X101968180Y-84918779D02*
X101491990Y-84871160D01*
X101491990Y-84871160D02*
X101539609Y-84918779D01*
X101539609Y-84918779D02*
X101587228Y-85014017D01*
X101587228Y-85014017D02*
X101587228Y-85252112D01*
X101587228Y-85252112D02*
X101539609Y-85347350D01*
X101539609Y-85347350D02*
X101491990Y-85394969D01*
X101491990Y-85394969D02*
X101396752Y-85442588D01*
X101396752Y-85442588D02*
X101158657Y-85442588D01*
X101158657Y-85442588D02*
X101063419Y-85394969D01*
X101063419Y-85394969D02*
X101015800Y-85347350D01*
X101015800Y-85347350D02*
X100968180Y-85252112D01*
X100968180Y-85252112D02*
X100968180Y-85014017D01*
X100968180Y-85014017D02*
X101015800Y-84918779D01*
X101015800Y-84918779D02*
X101063419Y-84871160D01*
X100968180Y-85871160D02*
X101968180Y-85871160D01*
X101968180Y-85871160D02*
X101253895Y-86204493D01*
X101253895Y-86204493D02*
X101968180Y-86537826D01*
X101968180Y-86537826D02*
X100968180Y-86537826D01*
X101539609Y-87156874D02*
X101587228Y-87061636D01*
X101587228Y-87061636D02*
X101634847Y-87014017D01*
X101634847Y-87014017D02*
X101730085Y-86966398D01*
X101730085Y-86966398D02*
X101777704Y-86966398D01*
X101777704Y-86966398D02*
X101872942Y-87014017D01*
X101872942Y-87014017D02*
X101920561Y-87061636D01*
X101920561Y-87061636D02*
X101968180Y-87156874D01*
X101968180Y-87156874D02*
X101968180Y-87347350D01*
X101968180Y-87347350D02*
X101920561Y-87442588D01*
X101920561Y-87442588D02*
X101872942Y-87490207D01*
X101872942Y-87490207D02*
X101777704Y-87537826D01*
X101777704Y-87537826D02*
X101730085Y-87537826D01*
X101730085Y-87537826D02*
X101634847Y-87490207D01*
X101634847Y-87490207D02*
X101587228Y-87442588D01*
X101587228Y-87442588D02*
X101539609Y-87347350D01*
X101539609Y-87347350D02*
X101539609Y-87156874D01*
X101539609Y-87156874D02*
X101491990Y-87061636D01*
X101491990Y-87061636D02*
X101444371Y-87014017D01*
X101444371Y-87014017D02*
X101349133Y-86966398D01*
X101349133Y-86966398D02*
X101158657Y-86966398D01*
X101158657Y-86966398D02*
X101063419Y-87014017D01*
X101063419Y-87014017D02*
X101015800Y-87061636D01*
X101015800Y-87061636D02*
X100968180Y-87156874D01*
X100968180Y-87156874D02*
X100968180Y-87347350D01*
X100968180Y-87347350D02*
X101015800Y-87442588D01*
X101015800Y-87442588D02*
X101063419Y-87490207D01*
X101063419Y-87490207D02*
X101158657Y-87537826D01*
X101158657Y-87537826D02*
X101349133Y-87537826D01*
X101349133Y-87537826D02*
X101444371Y-87490207D01*
X101444371Y-87490207D02*
X101491990Y-87442588D01*
X101491990Y-87442588D02*
X101539609Y-87347350D01*
X101968180Y-88156874D02*
X101968180Y-88252112D01*
X101968180Y-88252112D02*
X101920561Y-88347350D01*
X101920561Y-88347350D02*
X101872942Y-88394969D01*
X101872942Y-88394969D02*
X101777704Y-88442588D01*
X101777704Y-88442588D02*
X101587228Y-88490207D01*
X101587228Y-88490207D02*
X101349133Y-88490207D01*
X101349133Y-88490207D02*
X101158657Y-88442588D01*
X101158657Y-88442588D02*
X101063419Y-88394969D01*
X101063419Y-88394969D02*
X101015800Y-88347350D01*
X101015800Y-88347350D02*
X100968180Y-88252112D01*
X100968180Y-88252112D02*
X100968180Y-88156874D01*
X100968180Y-88156874D02*
X101015800Y-88061636D01*
X101015800Y-88061636D02*
X101063419Y-88014017D01*
X101063419Y-88014017D02*
X101158657Y-87966398D01*
X101158657Y-87966398D02*
X101349133Y-87918779D01*
X101349133Y-87918779D02*
X101587228Y-87918779D01*
X101587228Y-87918779D02*
X101777704Y-87966398D01*
X101777704Y-87966398D02*
X101872942Y-88014017D01*
X101872942Y-88014017D02*
X101920561Y-88061636D01*
X101920561Y-88061636D02*
X101968180Y-88156874D01*
X101968180Y-88823541D02*
X101968180Y-89490207D01*
X101968180Y-89490207D02*
X100968180Y-88823541D01*
X100968180Y-88823541D02*
X100968180Y-89490207D01*
X144665819Y-84023030D02*
X144665819Y-84499220D01*
X144665819Y-84499220D02*
X145142009Y-84546839D01*
X145142009Y-84546839D02*
X145094390Y-84499220D01*
X145094390Y-84499220D02*
X145046771Y-84403982D01*
X145046771Y-84403982D02*
X145046771Y-84165887D01*
X145046771Y-84165887D02*
X145094390Y-84070649D01*
X145094390Y-84070649D02*
X145142009Y-84023030D01*
X145142009Y-84023030D02*
X145237247Y-83975411D01*
X145237247Y-83975411D02*
X145475342Y-83975411D01*
X145475342Y-83975411D02*
X145570580Y-84023030D01*
X145570580Y-84023030D02*
X145618200Y-84070649D01*
X145618200Y-84070649D02*
X145665819Y-84165887D01*
X145665819Y-84165887D02*
X145665819Y-84403982D01*
X145665819Y-84403982D02*
X145618200Y-84499220D01*
X145618200Y-84499220D02*
X145570580Y-84546839D01*
X144665819Y-83689696D02*
X145665819Y-83356363D01*
X145665819Y-83356363D02*
X144665819Y-83023030D01*
X130956207Y-124583819D02*
X130622874Y-124107628D01*
X130384779Y-124583819D02*
X130384779Y-123583819D01*
X130384779Y-123583819D02*
X130765731Y-123583819D01*
X130765731Y-123583819D02*
X130860969Y-123631438D01*
X130860969Y-123631438D02*
X130908588Y-123679057D01*
X130908588Y-123679057D02*
X130956207Y-123774295D01*
X130956207Y-123774295D02*
X130956207Y-123917152D01*
X130956207Y-123917152D02*
X130908588Y-124012390D01*
X130908588Y-124012390D02*
X130860969Y-124060009D01*
X130860969Y-124060009D02*
X130765731Y-124107628D01*
X130765731Y-124107628D02*
X130384779Y-124107628D01*
X104892200Y-114772839D02*
X104939819Y-114629982D01*
X104939819Y-114629982D02*
X104939819Y-114391887D01*
X104939819Y-114391887D02*
X104892200Y-114296649D01*
X104892200Y-114296649D02*
X104844580Y-114249030D01*
X104844580Y-114249030D02*
X104749342Y-114201411D01*
X104749342Y-114201411D02*
X104654104Y-114201411D01*
X104654104Y-114201411D02*
X104558866Y-114249030D01*
X104558866Y-114249030D02*
X104511247Y-114296649D01*
X104511247Y-114296649D02*
X104463628Y-114391887D01*
X104463628Y-114391887D02*
X104416009Y-114582363D01*
X104416009Y-114582363D02*
X104368390Y-114677601D01*
X104368390Y-114677601D02*
X104320771Y-114725220D01*
X104320771Y-114725220D02*
X104225533Y-114772839D01*
X104225533Y-114772839D02*
X104130295Y-114772839D01*
X104130295Y-114772839D02*
X104035057Y-114725220D01*
X104035057Y-114725220D02*
X103987438Y-114677601D01*
X103987438Y-114677601D02*
X103939819Y-114582363D01*
X103939819Y-114582363D02*
X103939819Y-114344268D01*
X103939819Y-114344268D02*
X103987438Y-114201411D01*
X103939819Y-113915696D02*
X103939819Y-113344268D01*
X104939819Y-113629982D02*
X103939819Y-113629982D01*
X104939819Y-113010934D02*
X103939819Y-113010934D01*
X103939819Y-113010934D02*
X104654104Y-112677601D01*
X104654104Y-112677601D02*
X103939819Y-112344268D01*
X103939819Y-112344268D02*
X104939819Y-112344268D01*
X103939819Y-111963315D02*
X103939819Y-111344268D01*
X103939819Y-111344268D02*
X104320771Y-111677601D01*
X104320771Y-111677601D02*
X104320771Y-111534744D01*
X104320771Y-111534744D02*
X104368390Y-111439506D01*
X104368390Y-111439506D02*
X104416009Y-111391887D01*
X104416009Y-111391887D02*
X104511247Y-111344268D01*
X104511247Y-111344268D02*
X104749342Y-111344268D01*
X104749342Y-111344268D02*
X104844580Y-111391887D01*
X104844580Y-111391887D02*
X104892200Y-111439506D01*
X104892200Y-111439506D02*
X104939819Y-111534744D01*
X104939819Y-111534744D02*
X104939819Y-111820458D01*
X104939819Y-111820458D02*
X104892200Y-111915696D01*
X104892200Y-111915696D02*
X104844580Y-111963315D01*
X104035057Y-110963315D02*
X103987438Y-110915696D01*
X103987438Y-110915696D02*
X103939819Y-110820458D01*
X103939819Y-110820458D02*
X103939819Y-110582363D01*
X103939819Y-110582363D02*
X103987438Y-110487125D01*
X103987438Y-110487125D02*
X104035057Y-110439506D01*
X104035057Y-110439506D02*
X104130295Y-110391887D01*
X104130295Y-110391887D02*
X104225533Y-110391887D01*
X104225533Y-110391887D02*
X104368390Y-110439506D01*
X104368390Y-110439506D02*
X104939819Y-111010934D01*
X104939819Y-111010934D02*
X104939819Y-110391887D01*
X106454580Y-114153792D02*
X106502200Y-114201411D01*
X106502200Y-114201411D02*
X106549819Y-114344268D01*
X106549819Y-114344268D02*
X106549819Y-114439506D01*
X106549819Y-114439506D02*
X106502200Y-114582363D01*
X106502200Y-114582363D02*
X106406961Y-114677601D01*
X106406961Y-114677601D02*
X106311723Y-114725220D01*
X106311723Y-114725220D02*
X106121247Y-114772839D01*
X106121247Y-114772839D02*
X105978390Y-114772839D01*
X105978390Y-114772839D02*
X105787914Y-114725220D01*
X105787914Y-114725220D02*
X105692676Y-114677601D01*
X105692676Y-114677601D02*
X105597438Y-114582363D01*
X105597438Y-114582363D02*
X105549819Y-114439506D01*
X105549819Y-114439506D02*
X105549819Y-114344268D01*
X105549819Y-114344268D02*
X105597438Y-114201411D01*
X105597438Y-114201411D02*
X105645057Y-114153792D01*
X105549819Y-113534744D02*
X105549819Y-113439506D01*
X105549819Y-113439506D02*
X105597438Y-113344268D01*
X105597438Y-113344268D02*
X105645057Y-113296649D01*
X105645057Y-113296649D02*
X105740295Y-113249030D01*
X105740295Y-113249030D02*
X105930771Y-113201411D01*
X105930771Y-113201411D02*
X106168866Y-113201411D01*
X106168866Y-113201411D02*
X106359342Y-113249030D01*
X106359342Y-113249030D02*
X106454580Y-113296649D01*
X106454580Y-113296649D02*
X106502200Y-113344268D01*
X106502200Y-113344268D02*
X106549819Y-113439506D01*
X106549819Y-113439506D02*
X106549819Y-113534744D01*
X106549819Y-113534744D02*
X106502200Y-113629982D01*
X106502200Y-113629982D02*
X106454580Y-113677601D01*
X106454580Y-113677601D02*
X106359342Y-113725220D01*
X106359342Y-113725220D02*
X106168866Y-113772839D01*
X106168866Y-113772839D02*
X105930771Y-113772839D01*
X105930771Y-113772839D02*
X105740295Y-113725220D01*
X105740295Y-113725220D02*
X105645057Y-113677601D01*
X105645057Y-113677601D02*
X105597438Y-113629982D01*
X105597438Y-113629982D02*
X105549819Y-113534744D01*
X105549819Y-112868077D02*
X105549819Y-112249030D01*
X105549819Y-112249030D02*
X105930771Y-112582363D01*
X105930771Y-112582363D02*
X105930771Y-112439506D01*
X105930771Y-112439506D02*
X105978390Y-112344268D01*
X105978390Y-112344268D02*
X106026009Y-112296649D01*
X106026009Y-112296649D02*
X106121247Y-112249030D01*
X106121247Y-112249030D02*
X106359342Y-112249030D01*
X106359342Y-112249030D02*
X106454580Y-112296649D01*
X106454580Y-112296649D02*
X106502200Y-112344268D01*
X106502200Y-112344268D02*
X106549819Y-112439506D01*
X106549819Y-112439506D02*
X106549819Y-112725220D01*
X106549819Y-112725220D02*
X106502200Y-112820458D01*
X106502200Y-112820458D02*
X106454580Y-112868077D01*
X106549819Y-111296649D02*
X106549819Y-111868077D01*
X106549819Y-111582363D02*
X105549819Y-111582363D01*
X105549819Y-111582363D02*
X105692676Y-111677601D01*
X105692676Y-111677601D02*
X105787914Y-111772839D01*
X105787914Y-111772839D02*
X105835533Y-111868077D01*
X150698200Y-122545239D02*
X150745819Y-122402382D01*
X150745819Y-122402382D02*
X150745819Y-122164287D01*
X150745819Y-122164287D02*
X150698200Y-122069049D01*
X150698200Y-122069049D02*
X150650580Y-122021430D01*
X150650580Y-122021430D02*
X150555342Y-121973811D01*
X150555342Y-121973811D02*
X150460104Y-121973811D01*
X150460104Y-121973811D02*
X150364866Y-122021430D01*
X150364866Y-122021430D02*
X150317247Y-122069049D01*
X150317247Y-122069049D02*
X150269628Y-122164287D01*
X150269628Y-122164287D02*
X150222009Y-122354763D01*
X150222009Y-122354763D02*
X150174390Y-122450001D01*
X150174390Y-122450001D02*
X150126771Y-122497620D01*
X150126771Y-122497620D02*
X150031533Y-122545239D01*
X150031533Y-122545239D02*
X149936295Y-122545239D01*
X149936295Y-122545239D02*
X149841057Y-122497620D01*
X149841057Y-122497620D02*
X149793438Y-122450001D01*
X149793438Y-122450001D02*
X149745819Y-122354763D01*
X149745819Y-122354763D02*
X149745819Y-122116668D01*
X149745819Y-122116668D02*
X149793438Y-121973811D01*
X150222009Y-121545239D02*
X150222009Y-121211906D01*
X150745819Y-121069049D02*
X150745819Y-121545239D01*
X150745819Y-121545239D02*
X149745819Y-121545239D01*
X149745819Y-121545239D02*
X149745819Y-121069049D01*
X150745819Y-120069049D02*
X150269628Y-120402382D01*
X150745819Y-120640477D02*
X149745819Y-120640477D01*
X149745819Y-120640477D02*
X149745819Y-120259525D01*
X149745819Y-120259525D02*
X149793438Y-120164287D01*
X149793438Y-120164287D02*
X149841057Y-120116668D01*
X149841057Y-120116668D02*
X149936295Y-120069049D01*
X149936295Y-120069049D02*
X150079152Y-120069049D01*
X150079152Y-120069049D02*
X150174390Y-120116668D01*
X150174390Y-120116668D02*
X150222009Y-120164287D01*
X150222009Y-120164287D02*
X150269628Y-120259525D01*
X150269628Y-120259525D02*
X150269628Y-120640477D01*
X150745819Y-119640477D02*
X149745819Y-119640477D01*
X150460104Y-119211906D02*
X150460104Y-118735716D01*
X150745819Y-119307144D02*
X149745819Y-118973811D01*
X149745819Y-118973811D02*
X150745819Y-118640478D01*
X150745819Y-117830954D02*
X150745819Y-118307144D01*
X150745819Y-118307144D02*
X149745819Y-118307144D01*
X144665819Y-105168458D02*
X144665819Y-104549411D01*
X144665819Y-104549411D02*
X145046771Y-104882744D01*
X145046771Y-104882744D02*
X145046771Y-104739887D01*
X145046771Y-104739887D02*
X145094390Y-104644649D01*
X145094390Y-104644649D02*
X145142009Y-104597030D01*
X145142009Y-104597030D02*
X145237247Y-104549411D01*
X145237247Y-104549411D02*
X145475342Y-104549411D01*
X145475342Y-104549411D02*
X145570580Y-104597030D01*
X145570580Y-104597030D02*
X145618200Y-104644649D01*
X145618200Y-104644649D02*
X145665819Y-104739887D01*
X145665819Y-104739887D02*
X145665819Y-105025601D01*
X145665819Y-105025601D02*
X145618200Y-105120839D01*
X145618200Y-105120839D02*
X145570580Y-105168458D01*
X145570580Y-104120839D02*
X145618200Y-104073220D01*
X145618200Y-104073220D02*
X145665819Y-104120839D01*
X145665819Y-104120839D02*
X145618200Y-104168458D01*
X145618200Y-104168458D02*
X145570580Y-104120839D01*
X145570580Y-104120839D02*
X145665819Y-104120839D01*
X144665819Y-103739887D02*
X144665819Y-103120840D01*
X144665819Y-103120840D02*
X145046771Y-103454173D01*
X145046771Y-103454173D02*
X145046771Y-103311316D01*
X145046771Y-103311316D02*
X145094390Y-103216078D01*
X145094390Y-103216078D02*
X145142009Y-103168459D01*
X145142009Y-103168459D02*
X145237247Y-103120840D01*
X145237247Y-103120840D02*
X145475342Y-103120840D01*
X145475342Y-103120840D02*
X145570580Y-103168459D01*
X145570580Y-103168459D02*
X145618200Y-103216078D01*
X145618200Y-103216078D02*
X145665819Y-103311316D01*
X145665819Y-103311316D02*
X145665819Y-103597030D01*
X145665819Y-103597030D02*
X145618200Y-103692268D01*
X145618200Y-103692268D02*
X145570580Y-103739887D01*
X144665819Y-102835125D02*
X145665819Y-102501792D01*
X145665819Y-102501792D02*
X144665819Y-102168459D01*
X140719980Y-90816266D02*
X140767600Y-90863885D01*
X140767600Y-90863885D02*
X140815219Y-91006742D01*
X140815219Y-91006742D02*
X140815219Y-91101980D01*
X140815219Y-91101980D02*
X140767600Y-91244837D01*
X140767600Y-91244837D02*
X140672361Y-91340075D01*
X140672361Y-91340075D02*
X140577123Y-91387694D01*
X140577123Y-91387694D02*
X140386647Y-91435313D01*
X140386647Y-91435313D02*
X140243790Y-91435313D01*
X140243790Y-91435313D02*
X140053314Y-91387694D01*
X140053314Y-91387694D02*
X139958076Y-91340075D01*
X139958076Y-91340075D02*
X139862838Y-91244837D01*
X139862838Y-91244837D02*
X139815219Y-91101980D01*
X139815219Y-91101980D02*
X139815219Y-91006742D01*
X139815219Y-91006742D02*
X139862838Y-90863885D01*
X139862838Y-90863885D02*
X139910457Y-90816266D01*
X139815219Y-89911504D02*
X139815219Y-90387694D01*
X139815219Y-90387694D02*
X140291409Y-90435313D01*
X140291409Y-90435313D02*
X140243790Y-90387694D01*
X140243790Y-90387694D02*
X140196171Y-90292456D01*
X140196171Y-90292456D02*
X140196171Y-90054361D01*
X140196171Y-90054361D02*
X140243790Y-89959123D01*
X140243790Y-89959123D02*
X140291409Y-89911504D01*
X140291409Y-89911504D02*
X140386647Y-89863885D01*
X140386647Y-89863885D02*
X140624742Y-89863885D01*
X140624742Y-89863885D02*
X140719980Y-89911504D01*
X140719980Y-89911504D02*
X140767600Y-89959123D01*
X140767600Y-89959123D02*
X140815219Y-90054361D01*
X140815219Y-90054361D02*
X140815219Y-90292456D01*
X140815219Y-90292456D02*
X140767600Y-90387694D01*
X140767600Y-90387694D02*
X140719980Y-90435313D01*
X147661333Y-75797580D02*
X147613714Y-75845200D01*
X147613714Y-75845200D02*
X147470857Y-75892819D01*
X147470857Y-75892819D02*
X147375619Y-75892819D01*
X147375619Y-75892819D02*
X147232762Y-75845200D01*
X147232762Y-75845200D02*
X147137524Y-75749961D01*
X147137524Y-75749961D02*
X147089905Y-75654723D01*
X147089905Y-75654723D02*
X147042286Y-75464247D01*
X147042286Y-75464247D02*
X147042286Y-75321390D01*
X147042286Y-75321390D02*
X147089905Y-75130914D01*
X147089905Y-75130914D02*
X147137524Y-75035676D01*
X147137524Y-75035676D02*
X147232762Y-74940438D01*
X147232762Y-74940438D02*
X147375619Y-74892819D01*
X147375619Y-74892819D02*
X147470857Y-74892819D01*
X147470857Y-74892819D02*
X147613714Y-74940438D01*
X147613714Y-74940438D02*
X147661333Y-74988057D01*
X147994667Y-74892819D02*
X148613714Y-74892819D01*
X148613714Y-74892819D02*
X148280381Y-75273771D01*
X148280381Y-75273771D02*
X148423238Y-75273771D01*
X148423238Y-75273771D02*
X148518476Y-75321390D01*
X148518476Y-75321390D02*
X148566095Y-75369009D01*
X148566095Y-75369009D02*
X148613714Y-75464247D01*
X148613714Y-75464247D02*
X148613714Y-75702342D01*
X148613714Y-75702342D02*
X148566095Y-75797580D01*
X148566095Y-75797580D02*
X148518476Y-75845200D01*
X148518476Y-75845200D02*
X148423238Y-75892819D01*
X148423238Y-75892819D02*
X148137524Y-75892819D01*
X148137524Y-75892819D02*
X148042286Y-75845200D01*
X148042286Y-75845200D02*
X147994667Y-75797580D01*
X57578666Y-80226819D02*
X57578666Y-80941104D01*
X57578666Y-80941104D02*
X57531047Y-81083961D01*
X57531047Y-81083961D02*
X57435809Y-81179200D01*
X57435809Y-81179200D02*
X57292952Y-81226819D01*
X57292952Y-81226819D02*
X57197714Y-81226819D01*
X58578666Y-81226819D02*
X58007238Y-81226819D01*
X58292952Y-81226819D02*
X58292952Y-80226819D01*
X58292952Y-80226819D02*
X58197714Y-80369676D01*
X58197714Y-80369676D02*
X58102476Y-80464914D01*
X58102476Y-80464914D02*
X58007238Y-80512533D01*
X73525142Y-89862819D02*
X73191809Y-89386628D01*
X72953714Y-89862819D02*
X72953714Y-88862819D01*
X72953714Y-88862819D02*
X73334666Y-88862819D01*
X73334666Y-88862819D02*
X73429904Y-88910438D01*
X73429904Y-88910438D02*
X73477523Y-88958057D01*
X73477523Y-88958057D02*
X73525142Y-89053295D01*
X73525142Y-89053295D02*
X73525142Y-89196152D01*
X73525142Y-89196152D02*
X73477523Y-89291390D01*
X73477523Y-89291390D02*
X73429904Y-89339009D01*
X73429904Y-89339009D02*
X73334666Y-89386628D01*
X73334666Y-89386628D02*
X72953714Y-89386628D01*
X74477523Y-89862819D02*
X73906095Y-89862819D01*
X74191809Y-89862819D02*
X74191809Y-88862819D01*
X74191809Y-88862819D02*
X74096571Y-89005676D01*
X74096571Y-89005676D02*
X74001333Y-89100914D01*
X74001333Y-89100914D02*
X73906095Y-89148533D01*
X74858476Y-88958057D02*
X74906095Y-88910438D01*
X74906095Y-88910438D02*
X75001333Y-88862819D01*
X75001333Y-88862819D02*
X75239428Y-88862819D01*
X75239428Y-88862819D02*
X75334666Y-88910438D01*
X75334666Y-88910438D02*
X75382285Y-88958057D01*
X75382285Y-88958057D02*
X75429904Y-89053295D01*
X75429904Y-89053295D02*
X75429904Y-89148533D01*
X75429904Y-89148533D02*
X75382285Y-89291390D01*
X75382285Y-89291390D02*
X74810857Y-89862819D01*
X74810857Y-89862819D02*
X75429904Y-89862819D01*
X63365142Y-89862819D02*
X63031809Y-89386628D01*
X62793714Y-89862819D02*
X62793714Y-88862819D01*
X62793714Y-88862819D02*
X63174666Y-88862819D01*
X63174666Y-88862819D02*
X63269904Y-88910438D01*
X63269904Y-88910438D02*
X63317523Y-88958057D01*
X63317523Y-88958057D02*
X63365142Y-89053295D01*
X63365142Y-89053295D02*
X63365142Y-89196152D01*
X63365142Y-89196152D02*
X63317523Y-89291390D01*
X63317523Y-89291390D02*
X63269904Y-89339009D01*
X63269904Y-89339009D02*
X63174666Y-89386628D01*
X63174666Y-89386628D02*
X62793714Y-89386628D01*
X64317523Y-89862819D02*
X63746095Y-89862819D01*
X64031809Y-89862819D02*
X64031809Y-88862819D01*
X64031809Y-88862819D02*
X63936571Y-89005676D01*
X63936571Y-89005676D02*
X63841333Y-89100914D01*
X63841333Y-89100914D02*
X63746095Y-89148533D01*
X64650857Y-88862819D02*
X65269904Y-88862819D01*
X65269904Y-88862819D02*
X64936571Y-89243771D01*
X64936571Y-89243771D02*
X65079428Y-89243771D01*
X65079428Y-89243771D02*
X65174666Y-89291390D01*
X65174666Y-89291390D02*
X65222285Y-89339009D01*
X65222285Y-89339009D02*
X65269904Y-89434247D01*
X65269904Y-89434247D02*
X65269904Y-89672342D01*
X65269904Y-89672342D02*
X65222285Y-89767580D01*
X65222285Y-89767580D02*
X65174666Y-89815200D01*
X65174666Y-89815200D02*
X65079428Y-89862819D01*
X65079428Y-89862819D02*
X64793714Y-89862819D01*
X64793714Y-89862819D02*
X64698476Y-89815200D01*
X64698476Y-89815200D02*
X64650857Y-89767580D01*
X67683142Y-79448819D02*
X67349809Y-78972628D01*
X67111714Y-79448819D02*
X67111714Y-78448819D01*
X67111714Y-78448819D02*
X67492666Y-78448819D01*
X67492666Y-78448819D02*
X67587904Y-78496438D01*
X67587904Y-78496438D02*
X67635523Y-78544057D01*
X67635523Y-78544057D02*
X67683142Y-78639295D01*
X67683142Y-78639295D02*
X67683142Y-78782152D01*
X67683142Y-78782152D02*
X67635523Y-78877390D01*
X67635523Y-78877390D02*
X67587904Y-78925009D01*
X67587904Y-78925009D02*
X67492666Y-78972628D01*
X67492666Y-78972628D02*
X67111714Y-78972628D01*
X68635523Y-79448819D02*
X68064095Y-79448819D01*
X68349809Y-79448819D02*
X68349809Y-78448819D01*
X68349809Y-78448819D02*
X68254571Y-78591676D01*
X68254571Y-78591676D02*
X68159333Y-78686914D01*
X68159333Y-78686914D02*
X68064095Y-78734533D01*
X69587904Y-79448819D02*
X69016476Y-79448819D01*
X69302190Y-79448819D02*
X69302190Y-78448819D01*
X69302190Y-78448819D02*
X69206952Y-78591676D01*
X69206952Y-78591676D02*
X69111714Y-78686914D01*
X69111714Y-78686914D02*
X69016476Y-78734533D01*
X119231580Y-93085857D02*
X119279200Y-93133476D01*
X119279200Y-93133476D02*
X119326819Y-93276333D01*
X119326819Y-93276333D02*
X119326819Y-93371571D01*
X119326819Y-93371571D02*
X119279200Y-93514428D01*
X119279200Y-93514428D02*
X119183961Y-93609666D01*
X119183961Y-93609666D02*
X119088723Y-93657285D01*
X119088723Y-93657285D02*
X118898247Y-93704904D01*
X118898247Y-93704904D02*
X118755390Y-93704904D01*
X118755390Y-93704904D02*
X118564914Y-93657285D01*
X118564914Y-93657285D02*
X118469676Y-93609666D01*
X118469676Y-93609666D02*
X118374438Y-93514428D01*
X118374438Y-93514428D02*
X118326819Y-93371571D01*
X118326819Y-93371571D02*
X118326819Y-93276333D01*
X118326819Y-93276333D02*
X118374438Y-93133476D01*
X118374438Y-93133476D02*
X118422057Y-93085857D01*
X119326819Y-92133476D02*
X119326819Y-92704904D01*
X119326819Y-92419190D02*
X118326819Y-92419190D01*
X118326819Y-92419190D02*
X118469676Y-92514428D01*
X118469676Y-92514428D02*
X118564914Y-92609666D01*
X118564914Y-92609666D02*
X118612533Y-92704904D01*
X118755390Y-91562047D02*
X118707771Y-91657285D01*
X118707771Y-91657285D02*
X118660152Y-91704904D01*
X118660152Y-91704904D02*
X118564914Y-91752523D01*
X118564914Y-91752523D02*
X118517295Y-91752523D01*
X118517295Y-91752523D02*
X118422057Y-91704904D01*
X118422057Y-91704904D02*
X118374438Y-91657285D01*
X118374438Y-91657285D02*
X118326819Y-91562047D01*
X118326819Y-91562047D02*
X118326819Y-91371571D01*
X118326819Y-91371571D02*
X118374438Y-91276333D01*
X118374438Y-91276333D02*
X118422057Y-91228714D01*
X118422057Y-91228714D02*
X118517295Y-91181095D01*
X118517295Y-91181095D02*
X118564914Y-91181095D01*
X118564914Y-91181095D02*
X118660152Y-91228714D01*
X118660152Y-91228714D02*
X118707771Y-91276333D01*
X118707771Y-91276333D02*
X118755390Y-91371571D01*
X118755390Y-91371571D02*
X118755390Y-91562047D01*
X118755390Y-91562047D02*
X118803009Y-91657285D01*
X118803009Y-91657285D02*
X118850628Y-91704904D01*
X118850628Y-91704904D02*
X118945866Y-91752523D01*
X118945866Y-91752523D02*
X119136342Y-91752523D01*
X119136342Y-91752523D02*
X119231580Y-91704904D01*
X119231580Y-91704904D02*
X119279200Y-91657285D01*
X119279200Y-91657285D02*
X119326819Y-91562047D01*
X119326819Y-91562047D02*
X119326819Y-91371571D01*
X119326819Y-91371571D02*
X119279200Y-91276333D01*
X119279200Y-91276333D02*
X119231580Y-91228714D01*
X119231580Y-91228714D02*
X119136342Y-91181095D01*
X119136342Y-91181095D02*
X118945866Y-91181095D01*
X118945866Y-91181095D02*
X118850628Y-91228714D01*
X118850628Y-91228714D02*
X118803009Y-91276333D01*
X118803009Y-91276333D02*
X118755390Y-91371571D01*
X108221542Y-79988580D02*
X108173923Y-80036200D01*
X108173923Y-80036200D02*
X108031066Y-80083819D01*
X108031066Y-80083819D02*
X107935828Y-80083819D01*
X107935828Y-80083819D02*
X107792971Y-80036200D01*
X107792971Y-80036200D02*
X107697733Y-79940961D01*
X107697733Y-79940961D02*
X107650114Y-79845723D01*
X107650114Y-79845723D02*
X107602495Y-79655247D01*
X107602495Y-79655247D02*
X107602495Y-79512390D01*
X107602495Y-79512390D02*
X107650114Y-79321914D01*
X107650114Y-79321914D02*
X107697733Y-79226676D01*
X107697733Y-79226676D02*
X107792971Y-79131438D01*
X107792971Y-79131438D02*
X107935828Y-79083819D01*
X107935828Y-79083819D02*
X108031066Y-79083819D01*
X108031066Y-79083819D02*
X108173923Y-79131438D01*
X108173923Y-79131438D02*
X108221542Y-79179057D01*
X109173923Y-80083819D02*
X108602495Y-80083819D01*
X108888209Y-80083819D02*
X108888209Y-79083819D01*
X108888209Y-79083819D02*
X108792971Y-79226676D01*
X108792971Y-79226676D02*
X108697733Y-79321914D01*
X108697733Y-79321914D02*
X108602495Y-79369533D01*
X109554876Y-79179057D02*
X109602495Y-79131438D01*
X109602495Y-79131438D02*
X109697733Y-79083819D01*
X109697733Y-79083819D02*
X109935828Y-79083819D01*
X109935828Y-79083819D02*
X110031066Y-79131438D01*
X110031066Y-79131438D02*
X110078685Y-79179057D01*
X110078685Y-79179057D02*
X110126304Y-79274295D01*
X110126304Y-79274295D02*
X110126304Y-79369533D01*
X110126304Y-79369533D02*
X110078685Y-79512390D01*
X110078685Y-79512390D02*
X109507257Y-80083819D01*
X109507257Y-80083819D02*
X110126304Y-80083819D01*
X93591142Y-93323580D02*
X93543523Y-93371200D01*
X93543523Y-93371200D02*
X93400666Y-93418819D01*
X93400666Y-93418819D02*
X93305428Y-93418819D01*
X93305428Y-93418819D02*
X93162571Y-93371200D01*
X93162571Y-93371200D02*
X93067333Y-93275961D01*
X93067333Y-93275961D02*
X93019714Y-93180723D01*
X93019714Y-93180723D02*
X92972095Y-92990247D01*
X92972095Y-92990247D02*
X92972095Y-92847390D01*
X92972095Y-92847390D02*
X93019714Y-92656914D01*
X93019714Y-92656914D02*
X93067333Y-92561676D01*
X93067333Y-92561676D02*
X93162571Y-92466438D01*
X93162571Y-92466438D02*
X93305428Y-92418819D01*
X93305428Y-92418819D02*
X93400666Y-92418819D01*
X93400666Y-92418819D02*
X93543523Y-92466438D01*
X93543523Y-92466438D02*
X93591142Y-92514057D01*
X94543523Y-93418819D02*
X93972095Y-93418819D01*
X94257809Y-93418819D02*
X94257809Y-92418819D01*
X94257809Y-92418819D02*
X94162571Y-92561676D01*
X94162571Y-92561676D02*
X94067333Y-92656914D01*
X94067333Y-92656914D02*
X93972095Y-92704533D01*
X94876857Y-92418819D02*
X95543523Y-92418819D01*
X95543523Y-92418819D02*
X95114952Y-93418819D01*
X119231580Y-89783857D02*
X119279200Y-89831476D01*
X119279200Y-89831476D02*
X119326819Y-89974333D01*
X119326819Y-89974333D02*
X119326819Y-90069571D01*
X119326819Y-90069571D02*
X119279200Y-90212428D01*
X119279200Y-90212428D02*
X119183961Y-90307666D01*
X119183961Y-90307666D02*
X119088723Y-90355285D01*
X119088723Y-90355285D02*
X118898247Y-90402904D01*
X118898247Y-90402904D02*
X118755390Y-90402904D01*
X118755390Y-90402904D02*
X118564914Y-90355285D01*
X118564914Y-90355285D02*
X118469676Y-90307666D01*
X118469676Y-90307666D02*
X118374438Y-90212428D01*
X118374438Y-90212428D02*
X118326819Y-90069571D01*
X118326819Y-90069571D02*
X118326819Y-89974333D01*
X118326819Y-89974333D02*
X118374438Y-89831476D01*
X118374438Y-89831476D02*
X118422057Y-89783857D01*
X119326819Y-88831476D02*
X119326819Y-89402904D01*
X119326819Y-89117190D02*
X118326819Y-89117190D01*
X118326819Y-89117190D02*
X118469676Y-89212428D01*
X118469676Y-89212428D02*
X118564914Y-89307666D01*
X118564914Y-89307666D02*
X118612533Y-89402904D01*
X118326819Y-87974333D02*
X118326819Y-88164809D01*
X118326819Y-88164809D02*
X118374438Y-88260047D01*
X118374438Y-88260047D02*
X118422057Y-88307666D01*
X118422057Y-88307666D02*
X118564914Y-88402904D01*
X118564914Y-88402904D02*
X118755390Y-88450523D01*
X118755390Y-88450523D02*
X119136342Y-88450523D01*
X119136342Y-88450523D02*
X119231580Y-88402904D01*
X119231580Y-88402904D02*
X119279200Y-88355285D01*
X119279200Y-88355285D02*
X119326819Y-88260047D01*
X119326819Y-88260047D02*
X119326819Y-88069571D01*
X119326819Y-88069571D02*
X119279200Y-87974333D01*
X119279200Y-87974333D02*
X119231580Y-87926714D01*
X119231580Y-87926714D02*
X119136342Y-87879095D01*
X119136342Y-87879095D02*
X118898247Y-87879095D01*
X118898247Y-87879095D02*
X118803009Y-87926714D01*
X118803009Y-87926714D02*
X118755390Y-87974333D01*
X118755390Y-87974333D02*
X118707771Y-88069571D01*
X118707771Y-88069571D02*
X118707771Y-88260047D01*
X118707771Y-88260047D02*
X118755390Y-88355285D01*
X118755390Y-88355285D02*
X118803009Y-88402904D01*
X118803009Y-88402904D02*
X118898247Y-88450523D01*
X93577580Y-87764857D02*
X93625200Y-87812476D01*
X93625200Y-87812476D02*
X93672819Y-87955333D01*
X93672819Y-87955333D02*
X93672819Y-88050571D01*
X93672819Y-88050571D02*
X93625200Y-88193428D01*
X93625200Y-88193428D02*
X93529961Y-88288666D01*
X93529961Y-88288666D02*
X93434723Y-88336285D01*
X93434723Y-88336285D02*
X93244247Y-88383904D01*
X93244247Y-88383904D02*
X93101390Y-88383904D01*
X93101390Y-88383904D02*
X92910914Y-88336285D01*
X92910914Y-88336285D02*
X92815676Y-88288666D01*
X92815676Y-88288666D02*
X92720438Y-88193428D01*
X92720438Y-88193428D02*
X92672819Y-88050571D01*
X92672819Y-88050571D02*
X92672819Y-87955333D01*
X92672819Y-87955333D02*
X92720438Y-87812476D01*
X92720438Y-87812476D02*
X92768057Y-87764857D01*
X93672819Y-86812476D02*
X93672819Y-87383904D01*
X93672819Y-87098190D02*
X92672819Y-87098190D01*
X92672819Y-87098190D02*
X92815676Y-87193428D01*
X92815676Y-87193428D02*
X92910914Y-87288666D01*
X92910914Y-87288666D02*
X92958533Y-87383904D01*
X93006152Y-85955333D02*
X93672819Y-85955333D01*
X92625200Y-86193428D02*
X93339485Y-86431523D01*
X93339485Y-86431523D02*
X93339485Y-85812476D01*
X144678095Y-107840819D02*
X144678095Y-108650342D01*
X144678095Y-108650342D02*
X144725714Y-108745580D01*
X144725714Y-108745580D02*
X144773333Y-108793200D01*
X144773333Y-108793200D02*
X144868571Y-108840819D01*
X144868571Y-108840819D02*
X145059047Y-108840819D01*
X145059047Y-108840819D02*
X145154285Y-108793200D01*
X145154285Y-108793200D02*
X145201904Y-108745580D01*
X145201904Y-108745580D02*
X145249523Y-108650342D01*
X145249523Y-108650342D02*
X145249523Y-107840819D01*
X145630476Y-107840819D02*
X146297142Y-107840819D01*
X146297142Y-107840819D02*
X145868571Y-108840819D01*
X138066819Y-93573904D02*
X138876342Y-93573904D01*
X138876342Y-93573904D02*
X138971580Y-93526285D01*
X138971580Y-93526285D02*
X139019200Y-93478666D01*
X139019200Y-93478666D02*
X139066819Y-93383428D01*
X139066819Y-93383428D02*
X139066819Y-93192952D01*
X139066819Y-93192952D02*
X139019200Y-93097714D01*
X139019200Y-93097714D02*
X138971580Y-93050095D01*
X138971580Y-93050095D02*
X138876342Y-93002476D01*
X138876342Y-93002476D02*
X138066819Y-93002476D01*
X138495390Y-92383428D02*
X138447771Y-92478666D01*
X138447771Y-92478666D02*
X138400152Y-92526285D01*
X138400152Y-92526285D02*
X138304914Y-92573904D01*
X138304914Y-92573904D02*
X138257295Y-92573904D01*
X138257295Y-92573904D02*
X138162057Y-92526285D01*
X138162057Y-92526285D02*
X138114438Y-92478666D01*
X138114438Y-92478666D02*
X138066819Y-92383428D01*
X138066819Y-92383428D02*
X138066819Y-92192952D01*
X138066819Y-92192952D02*
X138114438Y-92097714D01*
X138114438Y-92097714D02*
X138162057Y-92050095D01*
X138162057Y-92050095D02*
X138257295Y-92002476D01*
X138257295Y-92002476D02*
X138304914Y-92002476D01*
X138304914Y-92002476D02*
X138400152Y-92050095D01*
X138400152Y-92050095D02*
X138447771Y-92097714D01*
X138447771Y-92097714D02*
X138495390Y-92192952D01*
X138495390Y-92192952D02*
X138495390Y-92383428D01*
X138495390Y-92383428D02*
X138543009Y-92478666D01*
X138543009Y-92478666D02*
X138590628Y-92526285D01*
X138590628Y-92526285D02*
X138685866Y-92573904D01*
X138685866Y-92573904D02*
X138876342Y-92573904D01*
X138876342Y-92573904D02*
X138971580Y-92526285D01*
X138971580Y-92526285D02*
X139019200Y-92478666D01*
X139019200Y-92478666D02*
X139066819Y-92383428D01*
X139066819Y-92383428D02*
X139066819Y-92192952D01*
X139066819Y-92192952D02*
X139019200Y-92097714D01*
X139019200Y-92097714D02*
X138971580Y-92050095D01*
X138971580Y-92050095D02*
X138876342Y-92002476D01*
X138876342Y-92002476D02*
X138685866Y-92002476D01*
X138685866Y-92002476D02*
X138590628Y-92050095D01*
X138590628Y-92050095D02*
X138543009Y-92097714D01*
X138543009Y-92097714D02*
X138495390Y-92192952D01*
X141583580Y-100730066D02*
X141631200Y-100777685D01*
X141631200Y-100777685D02*
X141678819Y-100920542D01*
X141678819Y-100920542D02*
X141678819Y-101015780D01*
X141678819Y-101015780D02*
X141631200Y-101158637D01*
X141631200Y-101158637D02*
X141535961Y-101253875D01*
X141535961Y-101253875D02*
X141440723Y-101301494D01*
X141440723Y-101301494D02*
X141250247Y-101349113D01*
X141250247Y-101349113D02*
X141107390Y-101349113D01*
X141107390Y-101349113D02*
X140916914Y-101301494D01*
X140916914Y-101301494D02*
X140821676Y-101253875D01*
X140821676Y-101253875D02*
X140726438Y-101158637D01*
X140726438Y-101158637D02*
X140678819Y-101015780D01*
X140678819Y-101015780D02*
X140678819Y-100920542D01*
X140678819Y-100920542D02*
X140726438Y-100777685D01*
X140726438Y-100777685D02*
X140774057Y-100730066D01*
X141107390Y-100158637D02*
X141059771Y-100253875D01*
X141059771Y-100253875D02*
X141012152Y-100301494D01*
X141012152Y-100301494D02*
X140916914Y-100349113D01*
X140916914Y-100349113D02*
X140869295Y-100349113D01*
X140869295Y-100349113D02*
X140774057Y-100301494D01*
X140774057Y-100301494D02*
X140726438Y-100253875D01*
X140726438Y-100253875D02*
X140678819Y-100158637D01*
X140678819Y-100158637D02*
X140678819Y-99968161D01*
X140678819Y-99968161D02*
X140726438Y-99872923D01*
X140726438Y-99872923D02*
X140774057Y-99825304D01*
X140774057Y-99825304D02*
X140869295Y-99777685D01*
X140869295Y-99777685D02*
X140916914Y-99777685D01*
X140916914Y-99777685D02*
X141012152Y-99825304D01*
X141012152Y-99825304D02*
X141059771Y-99872923D01*
X141059771Y-99872923D02*
X141107390Y-99968161D01*
X141107390Y-99968161D02*
X141107390Y-100158637D01*
X141107390Y-100158637D02*
X141155009Y-100253875D01*
X141155009Y-100253875D02*
X141202628Y-100301494D01*
X141202628Y-100301494D02*
X141297866Y-100349113D01*
X141297866Y-100349113D02*
X141488342Y-100349113D01*
X141488342Y-100349113D02*
X141583580Y-100301494D01*
X141583580Y-100301494D02*
X141631200Y-100253875D01*
X141631200Y-100253875D02*
X141678819Y-100158637D01*
X141678819Y-100158637D02*
X141678819Y-99968161D01*
X141678819Y-99968161D02*
X141631200Y-99872923D01*
X141631200Y-99872923D02*
X141583580Y-99825304D01*
X141583580Y-99825304D02*
X141488342Y-99777685D01*
X141488342Y-99777685D02*
X141297866Y-99777685D01*
X141297866Y-99777685D02*
X141202628Y-99825304D01*
X141202628Y-99825304D02*
X141155009Y-99872923D01*
X141155009Y-99872923D02*
X141107390Y-99968161D01*
X132675333Y-100435580D02*
X132627714Y-100483200D01*
X132627714Y-100483200D02*
X132484857Y-100530819D01*
X132484857Y-100530819D02*
X132389619Y-100530819D01*
X132389619Y-100530819D02*
X132246762Y-100483200D01*
X132246762Y-100483200D02*
X132151524Y-100387961D01*
X132151524Y-100387961D02*
X132103905Y-100292723D01*
X132103905Y-100292723D02*
X132056286Y-100102247D01*
X132056286Y-100102247D02*
X132056286Y-99959390D01*
X132056286Y-99959390D02*
X132103905Y-99768914D01*
X132103905Y-99768914D02*
X132151524Y-99673676D01*
X132151524Y-99673676D02*
X132246762Y-99578438D01*
X132246762Y-99578438D02*
X132389619Y-99530819D01*
X132389619Y-99530819D02*
X132484857Y-99530819D01*
X132484857Y-99530819D02*
X132627714Y-99578438D01*
X132627714Y-99578438D02*
X132675333Y-99626057D01*
X133151524Y-100530819D02*
X133342000Y-100530819D01*
X133342000Y-100530819D02*
X133437238Y-100483200D01*
X133437238Y-100483200D02*
X133484857Y-100435580D01*
X133484857Y-100435580D02*
X133580095Y-100292723D01*
X133580095Y-100292723D02*
X133627714Y-100102247D01*
X133627714Y-100102247D02*
X133627714Y-99721295D01*
X133627714Y-99721295D02*
X133580095Y-99626057D01*
X133580095Y-99626057D02*
X133532476Y-99578438D01*
X133532476Y-99578438D02*
X133437238Y-99530819D01*
X133437238Y-99530819D02*
X133246762Y-99530819D01*
X133246762Y-99530819D02*
X133151524Y-99578438D01*
X133151524Y-99578438D02*
X133103905Y-99626057D01*
X133103905Y-99626057D02*
X133056286Y-99721295D01*
X133056286Y-99721295D02*
X133056286Y-99959390D01*
X133056286Y-99959390D02*
X133103905Y-100054628D01*
X133103905Y-100054628D02*
X133151524Y-100102247D01*
X133151524Y-100102247D02*
X133246762Y-100149866D01*
X133246762Y-100149866D02*
X133437238Y-100149866D01*
X133437238Y-100149866D02*
X133532476Y-100102247D01*
X133532476Y-100102247D02*
X133580095Y-100054628D01*
X133580095Y-100054628D02*
X133627714Y-99959390D01*
X88257495Y-95661219D02*
X88257495Y-96470742D01*
X88257495Y-96470742D02*
X88305114Y-96565980D01*
X88305114Y-96565980D02*
X88352733Y-96613600D01*
X88352733Y-96613600D02*
X88447971Y-96661219D01*
X88447971Y-96661219D02*
X88638447Y-96661219D01*
X88638447Y-96661219D02*
X88733685Y-96613600D01*
X88733685Y-96613600D02*
X88781304Y-96565980D01*
X88781304Y-96565980D02*
X88828923Y-96470742D01*
X88828923Y-96470742D02*
X88828923Y-95661219D01*
X89733685Y-95994552D02*
X89733685Y-96661219D01*
X89495590Y-95613600D02*
X89257495Y-96327885D01*
X89257495Y-96327885D02*
X89876542Y-96327885D01*
X101731442Y-103026380D02*
X101683823Y-103074000D01*
X101683823Y-103074000D02*
X101540966Y-103121619D01*
X101540966Y-103121619D02*
X101445728Y-103121619D01*
X101445728Y-103121619D02*
X101302871Y-103074000D01*
X101302871Y-103074000D02*
X101207633Y-102978761D01*
X101207633Y-102978761D02*
X101160014Y-102883523D01*
X101160014Y-102883523D02*
X101112395Y-102693047D01*
X101112395Y-102693047D02*
X101112395Y-102550190D01*
X101112395Y-102550190D02*
X101160014Y-102359714D01*
X101160014Y-102359714D02*
X101207633Y-102264476D01*
X101207633Y-102264476D02*
X101302871Y-102169238D01*
X101302871Y-102169238D02*
X101445728Y-102121619D01*
X101445728Y-102121619D02*
X101540966Y-102121619D01*
X101540966Y-102121619D02*
X101683823Y-102169238D01*
X101683823Y-102169238D02*
X101731442Y-102216857D01*
X102683823Y-103121619D02*
X102112395Y-103121619D01*
X102398109Y-103121619D02*
X102398109Y-102121619D01*
X102398109Y-102121619D02*
X102302871Y-102264476D01*
X102302871Y-102264476D02*
X102207633Y-102359714D01*
X102207633Y-102359714D02*
X102112395Y-102407333D01*
X103588585Y-102121619D02*
X103112395Y-102121619D01*
X103112395Y-102121619D02*
X103064776Y-102597809D01*
X103064776Y-102597809D02*
X103112395Y-102550190D01*
X103112395Y-102550190D02*
X103207633Y-102502571D01*
X103207633Y-102502571D02*
X103445728Y-102502571D01*
X103445728Y-102502571D02*
X103540966Y-102550190D01*
X103540966Y-102550190D02*
X103588585Y-102597809D01*
X103588585Y-102597809D02*
X103636204Y-102693047D01*
X103636204Y-102693047D02*
X103636204Y-102931142D01*
X103636204Y-102931142D02*
X103588585Y-103026380D01*
X103588585Y-103026380D02*
X103540966Y-103074000D01*
X103540966Y-103074000D02*
X103445728Y-103121619D01*
X103445728Y-103121619D02*
X103207633Y-103121619D01*
X103207633Y-103121619D02*
X103112395Y-103074000D01*
X103112395Y-103074000D02*
X103064776Y-103026380D01*
X131626819Y-62241333D02*
X132341104Y-62241333D01*
X132341104Y-62241333D02*
X132483961Y-62288952D01*
X132483961Y-62288952D02*
X132579200Y-62384190D01*
X132579200Y-62384190D02*
X132626819Y-62527047D01*
X132626819Y-62527047D02*
X132626819Y-62622285D01*
X131626819Y-61288952D02*
X131626819Y-61765142D01*
X131626819Y-61765142D02*
X132103009Y-61812761D01*
X132103009Y-61812761D02*
X132055390Y-61765142D01*
X132055390Y-61765142D02*
X132007771Y-61669904D01*
X132007771Y-61669904D02*
X132007771Y-61431809D01*
X132007771Y-61431809D02*
X132055390Y-61336571D01*
X132055390Y-61336571D02*
X132103009Y-61288952D01*
X132103009Y-61288952D02*
X132198247Y-61241333D01*
X132198247Y-61241333D02*
X132436342Y-61241333D01*
X132436342Y-61241333D02*
X132531580Y-61288952D01*
X132531580Y-61288952D02*
X132579200Y-61336571D01*
X132579200Y-61336571D02*
X132626819Y-61431809D01*
X132626819Y-61431809D02*
X132626819Y-61669904D01*
X132626819Y-61669904D02*
X132579200Y-61765142D01*
X132579200Y-61765142D02*
X132531580Y-61812761D01*
X136009142Y-110595580D02*
X135961523Y-110643200D01*
X135961523Y-110643200D02*
X135818666Y-110690819D01*
X135818666Y-110690819D02*
X135723428Y-110690819D01*
X135723428Y-110690819D02*
X135580571Y-110643200D01*
X135580571Y-110643200D02*
X135485333Y-110547961D01*
X135485333Y-110547961D02*
X135437714Y-110452723D01*
X135437714Y-110452723D02*
X135390095Y-110262247D01*
X135390095Y-110262247D02*
X135390095Y-110119390D01*
X135390095Y-110119390D02*
X135437714Y-109928914D01*
X135437714Y-109928914D02*
X135485333Y-109833676D01*
X135485333Y-109833676D02*
X135580571Y-109738438D01*
X135580571Y-109738438D02*
X135723428Y-109690819D01*
X135723428Y-109690819D02*
X135818666Y-109690819D01*
X135818666Y-109690819D02*
X135961523Y-109738438D01*
X135961523Y-109738438D02*
X136009142Y-109786057D01*
X136390095Y-109786057D02*
X136437714Y-109738438D01*
X136437714Y-109738438D02*
X136532952Y-109690819D01*
X136532952Y-109690819D02*
X136771047Y-109690819D01*
X136771047Y-109690819D02*
X136866285Y-109738438D01*
X136866285Y-109738438D02*
X136913904Y-109786057D01*
X136913904Y-109786057D02*
X136961523Y-109881295D01*
X136961523Y-109881295D02*
X136961523Y-109976533D01*
X136961523Y-109976533D02*
X136913904Y-110119390D01*
X136913904Y-110119390D02*
X136342476Y-110690819D01*
X136342476Y-110690819D02*
X136961523Y-110690819D01*
X137913904Y-110690819D02*
X137342476Y-110690819D01*
X137628190Y-110690819D02*
X137628190Y-109690819D01*
X137628190Y-109690819D02*
X137532952Y-109833676D01*
X137532952Y-109833676D02*
X137437714Y-109928914D01*
X137437714Y-109928914D02*
X137342476Y-109976533D01*
X77589142Y-83163580D02*
X77541523Y-83211200D01*
X77541523Y-83211200D02*
X77398666Y-83258819D01*
X77398666Y-83258819D02*
X77303428Y-83258819D01*
X77303428Y-83258819D02*
X77160571Y-83211200D01*
X77160571Y-83211200D02*
X77065333Y-83115961D01*
X77065333Y-83115961D02*
X77017714Y-83020723D01*
X77017714Y-83020723D02*
X76970095Y-82830247D01*
X76970095Y-82830247D02*
X76970095Y-82687390D01*
X76970095Y-82687390D02*
X77017714Y-82496914D01*
X77017714Y-82496914D02*
X77065333Y-82401676D01*
X77065333Y-82401676D02*
X77160571Y-82306438D01*
X77160571Y-82306438D02*
X77303428Y-82258819D01*
X77303428Y-82258819D02*
X77398666Y-82258819D01*
X77398666Y-82258819D02*
X77541523Y-82306438D01*
X77541523Y-82306438D02*
X77589142Y-82354057D01*
X78541523Y-83258819D02*
X77970095Y-83258819D01*
X78255809Y-83258819D02*
X78255809Y-82258819D01*
X78255809Y-82258819D02*
X78160571Y-82401676D01*
X78160571Y-82401676D02*
X78065333Y-82496914D01*
X78065333Y-82496914D02*
X77970095Y-82544533D01*
X79017714Y-83258819D02*
X79208190Y-83258819D01*
X79208190Y-83258819D02*
X79303428Y-83211200D01*
X79303428Y-83211200D02*
X79351047Y-83163580D01*
X79351047Y-83163580D02*
X79446285Y-83020723D01*
X79446285Y-83020723D02*
X79493904Y-82830247D01*
X79493904Y-82830247D02*
X79493904Y-82449295D01*
X79493904Y-82449295D02*
X79446285Y-82354057D01*
X79446285Y-82354057D02*
X79398666Y-82306438D01*
X79398666Y-82306438D02*
X79303428Y-82258819D01*
X79303428Y-82258819D02*
X79112952Y-82258819D01*
X79112952Y-82258819D02*
X79017714Y-82306438D01*
X79017714Y-82306438D02*
X78970095Y-82354057D01*
X78970095Y-82354057D02*
X78922476Y-82449295D01*
X78922476Y-82449295D02*
X78922476Y-82687390D01*
X78922476Y-82687390D02*
X78970095Y-82782628D01*
X78970095Y-82782628D02*
X79017714Y-82830247D01*
X79017714Y-82830247D02*
X79112952Y-82877866D01*
X79112952Y-82877866D02*
X79303428Y-82877866D01*
X79303428Y-82877866D02*
X79398666Y-82830247D01*
X79398666Y-82830247D02*
X79446285Y-82782628D01*
X79446285Y-82782628D02*
X79493904Y-82687390D01*
X105410095Y-80020819D02*
X105410095Y-80830342D01*
X105410095Y-80830342D02*
X105457714Y-80925580D01*
X105457714Y-80925580D02*
X105505333Y-80973200D01*
X105505333Y-80973200D02*
X105600571Y-81020819D01*
X105600571Y-81020819D02*
X105791047Y-81020819D01*
X105791047Y-81020819D02*
X105886285Y-80973200D01*
X105886285Y-80973200D02*
X105933904Y-80925580D01*
X105933904Y-80925580D02*
X105981523Y-80830342D01*
X105981523Y-80830342D02*
X105981523Y-80020819D01*
X106505333Y-81020819D02*
X106695809Y-81020819D01*
X106695809Y-81020819D02*
X106791047Y-80973200D01*
X106791047Y-80973200D02*
X106838666Y-80925580D01*
X106838666Y-80925580D02*
X106933904Y-80782723D01*
X106933904Y-80782723D02*
X106981523Y-80592247D01*
X106981523Y-80592247D02*
X106981523Y-80211295D01*
X106981523Y-80211295D02*
X106933904Y-80116057D01*
X106933904Y-80116057D02*
X106886285Y-80068438D01*
X106886285Y-80068438D02*
X106791047Y-80020819D01*
X106791047Y-80020819D02*
X106600571Y-80020819D01*
X106600571Y-80020819D02*
X106505333Y-80068438D01*
X106505333Y-80068438D02*
X106457714Y-80116057D01*
X106457714Y-80116057D02*
X106410095Y-80211295D01*
X106410095Y-80211295D02*
X106410095Y-80449390D01*
X106410095Y-80449390D02*
X106457714Y-80544628D01*
X106457714Y-80544628D02*
X106505333Y-80592247D01*
X106505333Y-80592247D02*
X106600571Y-80639866D01*
X106600571Y-80639866D02*
X106791047Y-80639866D01*
X106791047Y-80639866D02*
X106886285Y-80592247D01*
X106886285Y-80592247D02*
X106933904Y-80544628D01*
X106933904Y-80544628D02*
X106981523Y-80449390D01*
X101905095Y-120134819D02*
X101905095Y-120944342D01*
X101905095Y-120944342D02*
X101952714Y-121039580D01*
X101952714Y-121039580D02*
X102000333Y-121087200D01*
X102000333Y-121087200D02*
X102095571Y-121134819D01*
X102095571Y-121134819D02*
X102286047Y-121134819D01*
X102286047Y-121134819D02*
X102381285Y-121087200D01*
X102381285Y-121087200D02*
X102428904Y-121039580D01*
X102428904Y-121039580D02*
X102476523Y-120944342D01*
X102476523Y-120944342D02*
X102476523Y-120134819D01*
X103428904Y-120134819D02*
X102952714Y-120134819D01*
X102952714Y-120134819D02*
X102905095Y-120611009D01*
X102905095Y-120611009D02*
X102952714Y-120563390D01*
X102952714Y-120563390D02*
X103047952Y-120515771D01*
X103047952Y-120515771D02*
X103286047Y-120515771D01*
X103286047Y-120515771D02*
X103381285Y-120563390D01*
X103381285Y-120563390D02*
X103428904Y-120611009D01*
X103428904Y-120611009D02*
X103476523Y-120706247D01*
X103476523Y-120706247D02*
X103476523Y-120944342D01*
X103476523Y-120944342D02*
X103428904Y-121039580D01*
X103428904Y-121039580D02*
X103381285Y-121087200D01*
X103381285Y-121087200D02*
X103286047Y-121134819D01*
X103286047Y-121134819D02*
X103047952Y-121134819D01*
X103047952Y-121134819D02*
X102952714Y-121087200D01*
X102952714Y-121087200D02*
X102905095Y-121039580D01*
X144780095Y-88028819D02*
X144780095Y-88838342D01*
X144780095Y-88838342D02*
X144827714Y-88933580D01*
X144827714Y-88933580D02*
X144875333Y-88981200D01*
X144875333Y-88981200D02*
X144970571Y-89028819D01*
X144970571Y-89028819D02*
X145161047Y-89028819D01*
X145161047Y-89028819D02*
X145256285Y-88981200D01*
X145256285Y-88981200D02*
X145303904Y-88933580D01*
X145303904Y-88933580D02*
X145351523Y-88838342D01*
X145351523Y-88838342D02*
X145351523Y-88028819D01*
X145732476Y-88028819D02*
X146351523Y-88028819D01*
X146351523Y-88028819D02*
X146018190Y-88409771D01*
X146018190Y-88409771D02*
X146161047Y-88409771D01*
X146161047Y-88409771D02*
X146256285Y-88457390D01*
X146256285Y-88457390D02*
X146303904Y-88505009D01*
X146303904Y-88505009D02*
X146351523Y-88600247D01*
X146351523Y-88600247D02*
X146351523Y-88838342D01*
X146351523Y-88838342D02*
X146303904Y-88933580D01*
X146303904Y-88933580D02*
X146256285Y-88981200D01*
X146256285Y-88981200D02*
X146161047Y-89028819D01*
X146161047Y-89028819D02*
X145875333Y-89028819D01*
X145875333Y-89028819D02*
X145780095Y-88981200D01*
X145780095Y-88981200D02*
X145732476Y-88933580D01*
X83870642Y-83010580D02*
X83823023Y-83058200D01*
X83823023Y-83058200D02*
X83680166Y-83105819D01*
X83680166Y-83105819D02*
X83584928Y-83105819D01*
X83584928Y-83105819D02*
X83442071Y-83058200D01*
X83442071Y-83058200D02*
X83346833Y-82962961D01*
X83346833Y-82962961D02*
X83299214Y-82867723D01*
X83299214Y-82867723D02*
X83251595Y-82677247D01*
X83251595Y-82677247D02*
X83251595Y-82534390D01*
X83251595Y-82534390D02*
X83299214Y-82343914D01*
X83299214Y-82343914D02*
X83346833Y-82248676D01*
X83346833Y-82248676D02*
X83442071Y-82153438D01*
X83442071Y-82153438D02*
X83584928Y-82105819D01*
X83584928Y-82105819D02*
X83680166Y-82105819D01*
X83680166Y-82105819D02*
X83823023Y-82153438D01*
X83823023Y-82153438D02*
X83870642Y-82201057D01*
X84251595Y-82201057D02*
X84299214Y-82153438D01*
X84299214Y-82153438D02*
X84394452Y-82105819D01*
X84394452Y-82105819D02*
X84632547Y-82105819D01*
X84632547Y-82105819D02*
X84727785Y-82153438D01*
X84727785Y-82153438D02*
X84775404Y-82201057D01*
X84775404Y-82201057D02*
X84823023Y-82296295D01*
X84823023Y-82296295D02*
X84823023Y-82391533D01*
X84823023Y-82391533D02*
X84775404Y-82534390D01*
X84775404Y-82534390D02*
X84203976Y-83105819D01*
X84203976Y-83105819D02*
X84823023Y-83105819D01*
X85727785Y-82105819D02*
X85251595Y-82105819D01*
X85251595Y-82105819D02*
X85203976Y-82582009D01*
X85203976Y-82582009D02*
X85251595Y-82534390D01*
X85251595Y-82534390D02*
X85346833Y-82486771D01*
X85346833Y-82486771D02*
X85584928Y-82486771D01*
X85584928Y-82486771D02*
X85680166Y-82534390D01*
X85680166Y-82534390D02*
X85727785Y-82582009D01*
X85727785Y-82582009D02*
X85775404Y-82677247D01*
X85775404Y-82677247D02*
X85775404Y-82915342D01*
X85775404Y-82915342D02*
X85727785Y-83010580D01*
X85727785Y-83010580D02*
X85680166Y-83058200D01*
X85680166Y-83058200D02*
X85584928Y-83105819D01*
X85584928Y-83105819D02*
X85346833Y-83105819D01*
X85346833Y-83105819D02*
X85251595Y-83058200D01*
X85251595Y-83058200D02*
X85203976Y-83010580D01*
X123975905Y-120160819D02*
X123975905Y-119160819D01*
X123975905Y-119160819D02*
X124214000Y-119160819D01*
X124214000Y-119160819D02*
X124356857Y-119208438D01*
X124356857Y-119208438D02*
X124452095Y-119303676D01*
X124452095Y-119303676D02*
X124499714Y-119398914D01*
X124499714Y-119398914D02*
X124547333Y-119589390D01*
X124547333Y-119589390D02*
X124547333Y-119732247D01*
X124547333Y-119732247D02*
X124499714Y-119922723D01*
X124499714Y-119922723D02*
X124452095Y-120017961D01*
X124452095Y-120017961D02*
X124356857Y-120113200D01*
X124356857Y-120113200D02*
X124214000Y-120160819D01*
X124214000Y-120160819D02*
X123975905Y-120160819D01*
X125404476Y-119160819D02*
X125214000Y-119160819D01*
X125214000Y-119160819D02*
X125118762Y-119208438D01*
X125118762Y-119208438D02*
X125071143Y-119256057D01*
X125071143Y-119256057D02*
X124975905Y-119398914D01*
X124975905Y-119398914D02*
X124928286Y-119589390D01*
X124928286Y-119589390D02*
X124928286Y-119970342D01*
X124928286Y-119970342D02*
X124975905Y-120065580D01*
X124975905Y-120065580D02*
X125023524Y-120113200D01*
X125023524Y-120113200D02*
X125118762Y-120160819D01*
X125118762Y-120160819D02*
X125309238Y-120160819D01*
X125309238Y-120160819D02*
X125404476Y-120113200D01*
X125404476Y-120113200D02*
X125452095Y-120065580D01*
X125452095Y-120065580D02*
X125499714Y-119970342D01*
X125499714Y-119970342D02*
X125499714Y-119732247D01*
X125499714Y-119732247D02*
X125452095Y-119637009D01*
X125452095Y-119637009D02*
X125404476Y-119589390D01*
X125404476Y-119589390D02*
X125309238Y-119541771D01*
X125309238Y-119541771D02*
X125118762Y-119541771D01*
X125118762Y-119541771D02*
X125023524Y-119589390D01*
X125023524Y-119589390D02*
X124975905Y-119637009D01*
X124975905Y-119637009D02*
X124928286Y-119732247D01*
X135094742Y-124006780D02*
X135047123Y-124054400D01*
X135047123Y-124054400D02*
X134904266Y-124102019D01*
X134904266Y-124102019D02*
X134809028Y-124102019D01*
X134809028Y-124102019D02*
X134666171Y-124054400D01*
X134666171Y-124054400D02*
X134570933Y-123959161D01*
X134570933Y-123959161D02*
X134523314Y-123863923D01*
X134523314Y-123863923D02*
X134475695Y-123673447D01*
X134475695Y-123673447D02*
X134475695Y-123530590D01*
X134475695Y-123530590D02*
X134523314Y-123340114D01*
X134523314Y-123340114D02*
X134570933Y-123244876D01*
X134570933Y-123244876D02*
X134666171Y-123149638D01*
X134666171Y-123149638D02*
X134809028Y-123102019D01*
X134809028Y-123102019D02*
X134904266Y-123102019D01*
X134904266Y-123102019D02*
X135047123Y-123149638D01*
X135047123Y-123149638D02*
X135094742Y-123197257D01*
X135475695Y-123197257D02*
X135523314Y-123149638D01*
X135523314Y-123149638D02*
X135618552Y-123102019D01*
X135618552Y-123102019D02*
X135856647Y-123102019D01*
X135856647Y-123102019D02*
X135951885Y-123149638D01*
X135951885Y-123149638D02*
X135999504Y-123197257D01*
X135999504Y-123197257D02*
X136047123Y-123292495D01*
X136047123Y-123292495D02*
X136047123Y-123387733D01*
X136047123Y-123387733D02*
X135999504Y-123530590D01*
X135999504Y-123530590D02*
X135428076Y-124102019D01*
X135428076Y-124102019D02*
X136047123Y-124102019D01*
X136428076Y-123197257D02*
X136475695Y-123149638D01*
X136475695Y-123149638D02*
X136570933Y-123102019D01*
X136570933Y-123102019D02*
X136809028Y-123102019D01*
X136809028Y-123102019D02*
X136904266Y-123149638D01*
X136904266Y-123149638D02*
X136951885Y-123197257D01*
X136951885Y-123197257D02*
X136999504Y-123292495D01*
X136999504Y-123292495D02*
X136999504Y-123387733D01*
X136999504Y-123387733D02*
X136951885Y-123530590D01*
X136951885Y-123530590D02*
X136380457Y-124102019D01*
X136380457Y-124102019D02*
X136999504Y-124102019D01*
X57830819Y-102441333D02*
X58545104Y-102441333D01*
X58545104Y-102441333D02*
X58687961Y-102488952D01*
X58687961Y-102488952D02*
X58783200Y-102584190D01*
X58783200Y-102584190D02*
X58830819Y-102727047D01*
X58830819Y-102727047D02*
X58830819Y-102822285D01*
X57926057Y-102012761D02*
X57878438Y-101965142D01*
X57878438Y-101965142D02*
X57830819Y-101869904D01*
X57830819Y-101869904D02*
X57830819Y-101631809D01*
X57830819Y-101631809D02*
X57878438Y-101536571D01*
X57878438Y-101536571D02*
X57926057Y-101488952D01*
X57926057Y-101488952D02*
X58021295Y-101441333D01*
X58021295Y-101441333D02*
X58116533Y-101441333D01*
X58116533Y-101441333D02*
X58259390Y-101488952D01*
X58259390Y-101488952D02*
X58830819Y-102060380D01*
X58830819Y-102060380D02*
X58830819Y-101441333D01*
X81412142Y-99005580D02*
X81364523Y-99053200D01*
X81364523Y-99053200D02*
X81221666Y-99100819D01*
X81221666Y-99100819D02*
X81126428Y-99100819D01*
X81126428Y-99100819D02*
X80983571Y-99053200D01*
X80983571Y-99053200D02*
X80888333Y-98957961D01*
X80888333Y-98957961D02*
X80840714Y-98862723D01*
X80840714Y-98862723D02*
X80793095Y-98672247D01*
X80793095Y-98672247D02*
X80793095Y-98529390D01*
X80793095Y-98529390D02*
X80840714Y-98338914D01*
X80840714Y-98338914D02*
X80888333Y-98243676D01*
X80888333Y-98243676D02*
X80983571Y-98148438D01*
X80983571Y-98148438D02*
X81126428Y-98100819D01*
X81126428Y-98100819D02*
X81221666Y-98100819D01*
X81221666Y-98100819D02*
X81364523Y-98148438D01*
X81364523Y-98148438D02*
X81412142Y-98196057D01*
X81793095Y-98196057D02*
X81840714Y-98148438D01*
X81840714Y-98148438D02*
X81935952Y-98100819D01*
X81935952Y-98100819D02*
X82174047Y-98100819D01*
X82174047Y-98100819D02*
X82269285Y-98148438D01*
X82269285Y-98148438D02*
X82316904Y-98196057D01*
X82316904Y-98196057D02*
X82364523Y-98291295D01*
X82364523Y-98291295D02*
X82364523Y-98386533D01*
X82364523Y-98386533D02*
X82316904Y-98529390D01*
X82316904Y-98529390D02*
X81745476Y-99100819D01*
X81745476Y-99100819D02*
X82364523Y-99100819D01*
X82983571Y-98100819D02*
X83078809Y-98100819D01*
X83078809Y-98100819D02*
X83174047Y-98148438D01*
X83174047Y-98148438D02*
X83221666Y-98196057D01*
X83221666Y-98196057D02*
X83269285Y-98291295D01*
X83269285Y-98291295D02*
X83316904Y-98481771D01*
X83316904Y-98481771D02*
X83316904Y-98719866D01*
X83316904Y-98719866D02*
X83269285Y-98910342D01*
X83269285Y-98910342D02*
X83221666Y-99005580D01*
X83221666Y-99005580D02*
X83174047Y-99053200D01*
X83174047Y-99053200D02*
X83078809Y-99100819D01*
X83078809Y-99100819D02*
X82983571Y-99100819D01*
X82983571Y-99100819D02*
X82888333Y-99053200D01*
X82888333Y-99053200D02*
X82840714Y-99005580D01*
X82840714Y-99005580D02*
X82793095Y-98910342D01*
X82793095Y-98910342D02*
X82745476Y-98719866D01*
X82745476Y-98719866D02*
X82745476Y-98481771D01*
X82745476Y-98481771D02*
X82793095Y-98291295D01*
X82793095Y-98291295D02*
X82840714Y-98196057D01*
X82840714Y-98196057D02*
X82888333Y-98148438D01*
X82888333Y-98148438D02*
X82983571Y-98100819D01*
X134154057Y-77819238D02*
X134106438Y-77914476D01*
X134106438Y-77914476D02*
X134011200Y-78009714D01*
X134011200Y-78009714D02*
X133868342Y-78152571D01*
X133868342Y-78152571D02*
X133820723Y-78247809D01*
X133820723Y-78247809D02*
X133820723Y-78343047D01*
X134058819Y-78295428D02*
X134011200Y-78390666D01*
X134011200Y-78390666D02*
X133915961Y-78485904D01*
X133915961Y-78485904D02*
X133725485Y-78533523D01*
X133725485Y-78533523D02*
X133392152Y-78533523D01*
X133392152Y-78533523D02*
X133201676Y-78485904D01*
X133201676Y-78485904D02*
X133106438Y-78390666D01*
X133106438Y-78390666D02*
X133058819Y-78295428D01*
X133058819Y-78295428D02*
X133058819Y-78104952D01*
X133058819Y-78104952D02*
X133106438Y-78009714D01*
X133106438Y-78009714D02*
X133201676Y-77914476D01*
X133201676Y-77914476D02*
X133392152Y-77866857D01*
X133392152Y-77866857D02*
X133725485Y-77866857D01*
X133725485Y-77866857D02*
X133915961Y-77914476D01*
X133915961Y-77914476D02*
X134011200Y-78009714D01*
X134011200Y-78009714D02*
X134058819Y-78104952D01*
X134058819Y-78104952D02*
X134058819Y-78295428D01*
X133392152Y-77009714D02*
X134058819Y-77009714D01*
X133011200Y-77247809D02*
X133725485Y-77485904D01*
X133725485Y-77485904D02*
X133725485Y-76866857D01*
X129074057Y-77897738D02*
X129026438Y-77992976D01*
X129026438Y-77992976D02*
X128931200Y-78088214D01*
X128931200Y-78088214D02*
X128788342Y-78231071D01*
X128788342Y-78231071D02*
X128740723Y-78326309D01*
X128740723Y-78326309D02*
X128740723Y-78421547D01*
X128978819Y-78373928D02*
X128931200Y-78469166D01*
X128931200Y-78469166D02*
X128835961Y-78564404D01*
X128835961Y-78564404D02*
X128645485Y-78612023D01*
X128645485Y-78612023D02*
X128312152Y-78612023D01*
X128312152Y-78612023D02*
X128121676Y-78564404D01*
X128121676Y-78564404D02*
X128026438Y-78469166D01*
X128026438Y-78469166D02*
X127978819Y-78373928D01*
X127978819Y-78373928D02*
X127978819Y-78183452D01*
X127978819Y-78183452D02*
X128026438Y-78088214D01*
X128026438Y-78088214D02*
X128121676Y-77992976D01*
X128121676Y-77992976D02*
X128312152Y-77945357D01*
X128312152Y-77945357D02*
X128645485Y-77945357D01*
X128645485Y-77945357D02*
X128835961Y-77992976D01*
X128835961Y-77992976D02*
X128931200Y-78088214D01*
X128931200Y-78088214D02*
X128978819Y-78183452D01*
X128978819Y-78183452D02*
X128978819Y-78373928D01*
X127978819Y-77612023D02*
X127978819Y-76992976D01*
X127978819Y-76992976D02*
X128359771Y-77326309D01*
X128359771Y-77326309D02*
X128359771Y-77183452D01*
X128359771Y-77183452D02*
X128407390Y-77088214D01*
X128407390Y-77088214D02*
X128455009Y-77040595D01*
X128455009Y-77040595D02*
X128550247Y-76992976D01*
X128550247Y-76992976D02*
X128788342Y-76992976D01*
X128788342Y-76992976D02*
X128883580Y-77040595D01*
X128883580Y-77040595D02*
X128931200Y-77088214D01*
X128931200Y-77088214D02*
X128978819Y-77183452D01*
X128978819Y-77183452D02*
X128978819Y-77469166D01*
X128978819Y-77469166D02*
X128931200Y-77564404D01*
X128931200Y-77564404D02*
X128883580Y-77612023D01*
X133850619Y-119125904D02*
X134660142Y-119125904D01*
X134660142Y-119125904D02*
X134755380Y-119078285D01*
X134755380Y-119078285D02*
X134803000Y-119030666D01*
X134803000Y-119030666D02*
X134850619Y-118935428D01*
X134850619Y-118935428D02*
X134850619Y-118744952D01*
X134850619Y-118744952D02*
X134803000Y-118649714D01*
X134803000Y-118649714D02*
X134755380Y-118602095D01*
X134755380Y-118602095D02*
X134660142Y-118554476D01*
X134660142Y-118554476D02*
X133850619Y-118554476D01*
X133945857Y-118125904D02*
X133898238Y-118078285D01*
X133898238Y-118078285D02*
X133850619Y-117983047D01*
X133850619Y-117983047D02*
X133850619Y-117744952D01*
X133850619Y-117744952D02*
X133898238Y-117649714D01*
X133898238Y-117649714D02*
X133945857Y-117602095D01*
X133945857Y-117602095D02*
X134041095Y-117554476D01*
X134041095Y-117554476D02*
X134136333Y-117554476D01*
X134136333Y-117554476D02*
X134279190Y-117602095D01*
X134279190Y-117602095D02*
X134850619Y-118173523D01*
X134850619Y-118173523D02*
X134850619Y-117554476D01*
X99822095Y-116857319D02*
X99822095Y-117666842D01*
X99822095Y-117666842D02*
X99869714Y-117762080D01*
X99869714Y-117762080D02*
X99917333Y-117809700D01*
X99917333Y-117809700D02*
X100012571Y-117857319D01*
X100012571Y-117857319D02*
X100203047Y-117857319D01*
X100203047Y-117857319D02*
X100298285Y-117809700D01*
X100298285Y-117809700D02*
X100345904Y-117762080D01*
X100345904Y-117762080D02*
X100393523Y-117666842D01*
X100393523Y-117666842D02*
X100393523Y-116857319D01*
X101298285Y-116857319D02*
X101107809Y-116857319D01*
X101107809Y-116857319D02*
X101012571Y-116904938D01*
X101012571Y-116904938D02*
X100964952Y-116952557D01*
X100964952Y-116952557D02*
X100869714Y-117095414D01*
X100869714Y-117095414D02*
X100822095Y-117285890D01*
X100822095Y-117285890D02*
X100822095Y-117666842D01*
X100822095Y-117666842D02*
X100869714Y-117762080D01*
X100869714Y-117762080D02*
X100917333Y-117809700D01*
X100917333Y-117809700D02*
X101012571Y-117857319D01*
X101012571Y-117857319D02*
X101203047Y-117857319D01*
X101203047Y-117857319D02*
X101298285Y-117809700D01*
X101298285Y-117809700D02*
X101345904Y-117762080D01*
X101345904Y-117762080D02*
X101393523Y-117666842D01*
X101393523Y-117666842D02*
X101393523Y-117428747D01*
X101393523Y-117428747D02*
X101345904Y-117333509D01*
X101345904Y-117333509D02*
X101298285Y-117285890D01*
X101298285Y-117285890D02*
X101203047Y-117238271D01*
X101203047Y-117238271D02*
X101012571Y-117238271D01*
X101012571Y-117238271D02*
X100917333Y-117285890D01*
X100917333Y-117285890D02*
X100869714Y-117333509D01*
X100869714Y-117333509D02*
X100822095Y-117428747D01*
X108489809Y-121390628D02*
X108489809Y-121866819D01*
X108156476Y-120866819D02*
X108489809Y-121390628D01*
X108489809Y-121390628D02*
X108823142Y-120866819D01*
X109680285Y-121866819D02*
X109108857Y-121866819D01*
X109394571Y-121866819D02*
X109394571Y-120866819D01*
X109394571Y-120866819D02*
X109299333Y-121009676D01*
X109299333Y-121009676D02*
X109204095Y-121104914D01*
X109204095Y-121104914D02*
X109108857Y-121152533D01*
D13*
X68786476Y-61687419D02*
X68786476Y-62401704D01*
X68786476Y-62401704D02*
X68738857Y-62544561D01*
X68738857Y-62544561D02*
X68643619Y-62639800D01*
X68643619Y-62639800D02*
X68500762Y-62687419D01*
X68500762Y-62687419D02*
X68405524Y-62687419D01*
X69786476Y-62687419D02*
X69215048Y-62687419D01*
X69500762Y-62687419D02*
X69500762Y-61687419D01*
X69500762Y-61687419D02*
X69405524Y-61830276D01*
X69405524Y-61830276D02*
X69310286Y-61925514D01*
X69310286Y-61925514D02*
X69215048Y-61973133D01*
X70643619Y-62020752D02*
X70643619Y-62687419D01*
X70405524Y-61639800D02*
X70167429Y-62354085D01*
X70167429Y-62354085D02*
X70786476Y-62354085D01*
D10*
X86719580Y-72697357D02*
X86767200Y-72744976D01*
X86767200Y-72744976D02*
X86814819Y-72887833D01*
X86814819Y-72887833D02*
X86814819Y-72983071D01*
X86814819Y-72983071D02*
X86767200Y-73125928D01*
X86767200Y-73125928D02*
X86671961Y-73221166D01*
X86671961Y-73221166D02*
X86576723Y-73268785D01*
X86576723Y-73268785D02*
X86386247Y-73316404D01*
X86386247Y-73316404D02*
X86243390Y-73316404D01*
X86243390Y-73316404D02*
X86052914Y-73268785D01*
X86052914Y-73268785D02*
X85957676Y-73221166D01*
X85957676Y-73221166D02*
X85862438Y-73125928D01*
X85862438Y-73125928D02*
X85814819Y-72983071D01*
X85814819Y-72983071D02*
X85814819Y-72887833D01*
X85814819Y-72887833D02*
X85862438Y-72744976D01*
X85862438Y-72744976D02*
X85910057Y-72697357D01*
X85910057Y-72316404D02*
X85862438Y-72268785D01*
X85862438Y-72268785D02*
X85814819Y-72173547D01*
X85814819Y-72173547D02*
X85814819Y-71935452D01*
X85814819Y-71935452D02*
X85862438Y-71840214D01*
X85862438Y-71840214D02*
X85910057Y-71792595D01*
X85910057Y-71792595D02*
X86005295Y-71744976D01*
X86005295Y-71744976D02*
X86100533Y-71744976D01*
X86100533Y-71744976D02*
X86243390Y-71792595D01*
X86243390Y-71792595D02*
X86814819Y-72364023D01*
X86814819Y-72364023D02*
X86814819Y-71744976D01*
X85814819Y-70887833D02*
X85814819Y-71078309D01*
X85814819Y-71078309D02*
X85862438Y-71173547D01*
X85862438Y-71173547D02*
X85910057Y-71221166D01*
X85910057Y-71221166D02*
X86052914Y-71316404D01*
X86052914Y-71316404D02*
X86243390Y-71364023D01*
X86243390Y-71364023D02*
X86624342Y-71364023D01*
X86624342Y-71364023D02*
X86719580Y-71316404D01*
X86719580Y-71316404D02*
X86767200Y-71268785D01*
X86767200Y-71268785D02*
X86814819Y-71173547D01*
X86814819Y-71173547D02*
X86814819Y-70983071D01*
X86814819Y-70983071D02*
X86767200Y-70887833D01*
X86767200Y-70887833D02*
X86719580Y-70840214D01*
X86719580Y-70840214D02*
X86624342Y-70792595D01*
X86624342Y-70792595D02*
X86386247Y-70792595D01*
X86386247Y-70792595D02*
X86291009Y-70840214D01*
X86291009Y-70840214D02*
X86243390Y-70887833D01*
X86243390Y-70887833D02*
X86195771Y-70983071D01*
X86195771Y-70983071D02*
X86195771Y-71173547D01*
X86195771Y-71173547D02*
X86243390Y-71268785D01*
X86243390Y-71268785D02*
X86291009Y-71316404D01*
X86291009Y-71316404D02*
X86386247Y-71364023D01*
X134135905Y-75892819D02*
X134135905Y-74892819D01*
X134135905Y-74892819D02*
X134374000Y-74892819D01*
X134374000Y-74892819D02*
X134516857Y-74940438D01*
X134516857Y-74940438D02*
X134612095Y-75035676D01*
X134612095Y-75035676D02*
X134659714Y-75130914D01*
X134659714Y-75130914D02*
X134707333Y-75321390D01*
X134707333Y-75321390D02*
X134707333Y-75464247D01*
X134707333Y-75464247D02*
X134659714Y-75654723D01*
X134659714Y-75654723D02*
X134612095Y-75749961D01*
X134612095Y-75749961D02*
X134516857Y-75845200D01*
X134516857Y-75845200D02*
X134374000Y-75892819D01*
X134374000Y-75892819D02*
X134135905Y-75892819D01*
X135088286Y-74988057D02*
X135135905Y-74940438D01*
X135135905Y-74940438D02*
X135231143Y-74892819D01*
X135231143Y-74892819D02*
X135469238Y-74892819D01*
X135469238Y-74892819D02*
X135564476Y-74940438D01*
X135564476Y-74940438D02*
X135612095Y-74988057D01*
X135612095Y-74988057D02*
X135659714Y-75083295D01*
X135659714Y-75083295D02*
X135659714Y-75178533D01*
X135659714Y-75178533D02*
X135612095Y-75321390D01*
X135612095Y-75321390D02*
X135040667Y-75892819D01*
X135040667Y-75892819D02*
X135659714Y-75892819D01*
X129373333Y-71574819D02*
X129040000Y-71098628D01*
X128801905Y-71574819D02*
X128801905Y-70574819D01*
X128801905Y-70574819D02*
X129182857Y-70574819D01*
X129182857Y-70574819D02*
X129278095Y-70622438D01*
X129278095Y-70622438D02*
X129325714Y-70670057D01*
X129325714Y-70670057D02*
X129373333Y-70765295D01*
X129373333Y-70765295D02*
X129373333Y-70908152D01*
X129373333Y-70908152D02*
X129325714Y-71003390D01*
X129325714Y-71003390D02*
X129278095Y-71051009D01*
X129278095Y-71051009D02*
X129182857Y-71098628D01*
X129182857Y-71098628D02*
X128801905Y-71098628D01*
X129754286Y-70670057D02*
X129801905Y-70622438D01*
X129801905Y-70622438D02*
X129897143Y-70574819D01*
X129897143Y-70574819D02*
X130135238Y-70574819D01*
X130135238Y-70574819D02*
X130230476Y-70622438D01*
X130230476Y-70622438D02*
X130278095Y-70670057D01*
X130278095Y-70670057D02*
X130325714Y-70765295D01*
X130325714Y-70765295D02*
X130325714Y-70860533D01*
X130325714Y-70860533D02*
X130278095Y-71003390D01*
X130278095Y-71003390D02*
X129706667Y-71574819D01*
X129706667Y-71574819D02*
X130325714Y-71574819D01*
X122451905Y-75130819D02*
X122451905Y-74130819D01*
X122451905Y-74130819D02*
X122690000Y-74130819D01*
X122690000Y-74130819D02*
X122832857Y-74178438D01*
X122832857Y-74178438D02*
X122928095Y-74273676D01*
X122928095Y-74273676D02*
X122975714Y-74368914D01*
X122975714Y-74368914D02*
X123023333Y-74559390D01*
X123023333Y-74559390D02*
X123023333Y-74702247D01*
X123023333Y-74702247D02*
X122975714Y-74892723D01*
X122975714Y-74892723D02*
X122928095Y-74987961D01*
X122928095Y-74987961D02*
X122832857Y-75083200D01*
X122832857Y-75083200D02*
X122690000Y-75130819D01*
X122690000Y-75130819D02*
X122451905Y-75130819D01*
X123975714Y-75130819D02*
X123404286Y-75130819D01*
X123690000Y-75130819D02*
X123690000Y-74130819D01*
X123690000Y-74130819D02*
X123594762Y-74273676D01*
X123594762Y-74273676D02*
X123499524Y-74368914D01*
X123499524Y-74368914D02*
X123404286Y-74416533D01*
X89349342Y-85017780D02*
X89301723Y-85065400D01*
X89301723Y-85065400D02*
X89158866Y-85113019D01*
X89158866Y-85113019D02*
X89063628Y-85113019D01*
X89063628Y-85113019D02*
X88920771Y-85065400D01*
X88920771Y-85065400D02*
X88825533Y-84970161D01*
X88825533Y-84970161D02*
X88777914Y-84874923D01*
X88777914Y-84874923D02*
X88730295Y-84684447D01*
X88730295Y-84684447D02*
X88730295Y-84541590D01*
X88730295Y-84541590D02*
X88777914Y-84351114D01*
X88777914Y-84351114D02*
X88825533Y-84255876D01*
X88825533Y-84255876D02*
X88920771Y-84160638D01*
X88920771Y-84160638D02*
X89063628Y-84113019D01*
X89063628Y-84113019D02*
X89158866Y-84113019D01*
X89158866Y-84113019D02*
X89301723Y-84160638D01*
X89301723Y-84160638D02*
X89349342Y-84208257D01*
X89730295Y-84208257D02*
X89777914Y-84160638D01*
X89777914Y-84160638D02*
X89873152Y-84113019D01*
X89873152Y-84113019D02*
X90111247Y-84113019D01*
X90111247Y-84113019D02*
X90206485Y-84160638D01*
X90206485Y-84160638D02*
X90254104Y-84208257D01*
X90254104Y-84208257D02*
X90301723Y-84303495D01*
X90301723Y-84303495D02*
X90301723Y-84398733D01*
X90301723Y-84398733D02*
X90254104Y-84541590D01*
X90254104Y-84541590D02*
X89682676Y-85113019D01*
X89682676Y-85113019D02*
X90301723Y-85113019D01*
X91158866Y-84446352D02*
X91158866Y-85113019D01*
X90920771Y-84065400D02*
X90682676Y-84779685D01*
X90682676Y-84779685D02*
X91301723Y-84779685D01*
X129817905Y-120160819D02*
X129817905Y-119160819D01*
X129817905Y-119160819D02*
X130056000Y-119160819D01*
X130056000Y-119160819D02*
X130198857Y-119208438D01*
X130198857Y-119208438D02*
X130294095Y-119303676D01*
X130294095Y-119303676D02*
X130341714Y-119398914D01*
X130341714Y-119398914D02*
X130389333Y-119589390D01*
X130389333Y-119589390D02*
X130389333Y-119732247D01*
X130389333Y-119732247D02*
X130341714Y-119922723D01*
X130341714Y-119922723D02*
X130294095Y-120017961D01*
X130294095Y-120017961D02*
X130198857Y-120113200D01*
X130198857Y-120113200D02*
X130056000Y-120160819D01*
X130056000Y-120160819D02*
X129817905Y-120160819D01*
X131294095Y-119160819D02*
X130817905Y-119160819D01*
X130817905Y-119160819D02*
X130770286Y-119637009D01*
X130770286Y-119637009D02*
X130817905Y-119589390D01*
X130817905Y-119589390D02*
X130913143Y-119541771D01*
X130913143Y-119541771D02*
X131151238Y-119541771D01*
X131151238Y-119541771D02*
X131246476Y-119589390D01*
X131246476Y-119589390D02*
X131294095Y-119637009D01*
X131294095Y-119637009D02*
X131341714Y-119732247D01*
X131341714Y-119732247D02*
X131341714Y-119970342D01*
X131341714Y-119970342D02*
X131294095Y-120065580D01*
X131294095Y-120065580D02*
X131246476Y-120113200D01*
X131246476Y-120113200D02*
X131151238Y-120160819D01*
X131151238Y-120160819D02*
X130913143Y-120160819D01*
X130913143Y-120160819D02*
X130817905Y-120113200D01*
X130817905Y-120113200D02*
X130770286Y-120065580D01*
X125341142Y-84146819D02*
X125007809Y-83670628D01*
X124769714Y-84146819D02*
X124769714Y-83146819D01*
X124769714Y-83146819D02*
X125150666Y-83146819D01*
X125150666Y-83146819D02*
X125245904Y-83194438D01*
X125245904Y-83194438D02*
X125293523Y-83242057D01*
X125293523Y-83242057D02*
X125341142Y-83337295D01*
X125341142Y-83337295D02*
X125341142Y-83480152D01*
X125341142Y-83480152D02*
X125293523Y-83575390D01*
X125293523Y-83575390D02*
X125245904Y-83623009D01*
X125245904Y-83623009D02*
X125150666Y-83670628D01*
X125150666Y-83670628D02*
X124769714Y-83670628D01*
X125722095Y-83242057D02*
X125769714Y-83194438D01*
X125769714Y-83194438D02*
X125864952Y-83146819D01*
X125864952Y-83146819D02*
X126103047Y-83146819D01*
X126103047Y-83146819D02*
X126198285Y-83194438D01*
X126198285Y-83194438D02*
X126245904Y-83242057D01*
X126245904Y-83242057D02*
X126293523Y-83337295D01*
X126293523Y-83337295D02*
X126293523Y-83432533D01*
X126293523Y-83432533D02*
X126245904Y-83575390D01*
X126245904Y-83575390D02*
X125674476Y-84146819D01*
X125674476Y-84146819D02*
X126293523Y-84146819D01*
X127198285Y-83146819D02*
X126722095Y-83146819D01*
X126722095Y-83146819D02*
X126674476Y-83623009D01*
X126674476Y-83623009D02*
X126722095Y-83575390D01*
X126722095Y-83575390D02*
X126817333Y-83527771D01*
X126817333Y-83527771D02*
X127055428Y-83527771D01*
X127055428Y-83527771D02*
X127150666Y-83575390D01*
X127150666Y-83575390D02*
X127198285Y-83623009D01*
X127198285Y-83623009D02*
X127245904Y-83718247D01*
X127245904Y-83718247D02*
X127245904Y-83956342D01*
X127245904Y-83956342D02*
X127198285Y-84051580D01*
X127198285Y-84051580D02*
X127150666Y-84099200D01*
X127150666Y-84099200D02*
X127055428Y-84146819D01*
X127055428Y-84146819D02*
X126817333Y-84146819D01*
X126817333Y-84146819D02*
X126722095Y-84099200D01*
X126722095Y-84099200D02*
X126674476Y-84051580D01*
X130421142Y-84146819D02*
X130087809Y-83670628D01*
X129849714Y-84146819D02*
X129849714Y-83146819D01*
X129849714Y-83146819D02*
X130230666Y-83146819D01*
X130230666Y-83146819D02*
X130325904Y-83194438D01*
X130325904Y-83194438D02*
X130373523Y-83242057D01*
X130373523Y-83242057D02*
X130421142Y-83337295D01*
X130421142Y-83337295D02*
X130421142Y-83480152D01*
X130421142Y-83480152D02*
X130373523Y-83575390D01*
X130373523Y-83575390D02*
X130325904Y-83623009D01*
X130325904Y-83623009D02*
X130230666Y-83670628D01*
X130230666Y-83670628D02*
X129849714Y-83670628D01*
X130802095Y-83242057D02*
X130849714Y-83194438D01*
X130849714Y-83194438D02*
X130944952Y-83146819D01*
X130944952Y-83146819D02*
X131183047Y-83146819D01*
X131183047Y-83146819D02*
X131278285Y-83194438D01*
X131278285Y-83194438D02*
X131325904Y-83242057D01*
X131325904Y-83242057D02*
X131373523Y-83337295D01*
X131373523Y-83337295D02*
X131373523Y-83432533D01*
X131373523Y-83432533D02*
X131325904Y-83575390D01*
X131325904Y-83575390D02*
X130754476Y-84146819D01*
X130754476Y-84146819D02*
X131373523Y-84146819D01*
X132230666Y-83146819D02*
X132040190Y-83146819D01*
X132040190Y-83146819D02*
X131944952Y-83194438D01*
X131944952Y-83194438D02*
X131897333Y-83242057D01*
X131897333Y-83242057D02*
X131802095Y-83384914D01*
X131802095Y-83384914D02*
X131754476Y-83575390D01*
X131754476Y-83575390D02*
X131754476Y-83956342D01*
X131754476Y-83956342D02*
X131802095Y-84051580D01*
X131802095Y-84051580D02*
X131849714Y-84099200D01*
X131849714Y-84099200D02*
X131944952Y-84146819D01*
X131944952Y-84146819D02*
X132135428Y-84146819D01*
X132135428Y-84146819D02*
X132230666Y-84099200D01*
X132230666Y-84099200D02*
X132278285Y-84051580D01*
X132278285Y-84051580D02*
X132325904Y-83956342D01*
X132325904Y-83956342D02*
X132325904Y-83718247D01*
X132325904Y-83718247D02*
X132278285Y-83623009D01*
X132278285Y-83623009D02*
X132230666Y-83575390D01*
X132230666Y-83575390D02*
X132135428Y-83527771D01*
X132135428Y-83527771D02*
X131944952Y-83527771D01*
X131944952Y-83527771D02*
X131849714Y-83575390D01*
X131849714Y-83575390D02*
X131802095Y-83623009D01*
X131802095Y-83623009D02*
X131754476Y-83718247D01*
X99504833Y-73226819D02*
X99171500Y-72750628D01*
X98933405Y-73226819D02*
X98933405Y-72226819D01*
X98933405Y-72226819D02*
X99314357Y-72226819D01*
X99314357Y-72226819D02*
X99409595Y-72274438D01*
X99409595Y-72274438D02*
X99457214Y-72322057D01*
X99457214Y-72322057D02*
X99504833Y-72417295D01*
X99504833Y-72417295D02*
X99504833Y-72560152D01*
X99504833Y-72560152D02*
X99457214Y-72655390D01*
X99457214Y-72655390D02*
X99409595Y-72703009D01*
X99409595Y-72703009D02*
X99314357Y-72750628D01*
X99314357Y-72750628D02*
X98933405Y-72750628D01*
X99838167Y-72226819D02*
X100457214Y-72226819D01*
X100457214Y-72226819D02*
X100123881Y-72607771D01*
X100123881Y-72607771D02*
X100266738Y-72607771D01*
X100266738Y-72607771D02*
X100361976Y-72655390D01*
X100361976Y-72655390D02*
X100409595Y-72703009D01*
X100409595Y-72703009D02*
X100457214Y-72798247D01*
X100457214Y-72798247D02*
X100457214Y-73036342D01*
X100457214Y-73036342D02*
X100409595Y-73131580D01*
X100409595Y-73131580D02*
X100361976Y-73179200D01*
X100361976Y-73179200D02*
X100266738Y-73226819D01*
X100266738Y-73226819D02*
X99981024Y-73226819D01*
X99981024Y-73226819D02*
X99885786Y-73179200D01*
X99885786Y-73179200D02*
X99838167Y-73131580D01*
X120007142Y-85195580D02*
X119959523Y-85243200D01*
X119959523Y-85243200D02*
X119816666Y-85290819D01*
X119816666Y-85290819D02*
X119721428Y-85290819D01*
X119721428Y-85290819D02*
X119578571Y-85243200D01*
X119578571Y-85243200D02*
X119483333Y-85147961D01*
X119483333Y-85147961D02*
X119435714Y-85052723D01*
X119435714Y-85052723D02*
X119388095Y-84862247D01*
X119388095Y-84862247D02*
X119388095Y-84719390D01*
X119388095Y-84719390D02*
X119435714Y-84528914D01*
X119435714Y-84528914D02*
X119483333Y-84433676D01*
X119483333Y-84433676D02*
X119578571Y-84338438D01*
X119578571Y-84338438D02*
X119721428Y-84290819D01*
X119721428Y-84290819D02*
X119816666Y-84290819D01*
X119816666Y-84290819D02*
X119959523Y-84338438D01*
X119959523Y-84338438D02*
X120007142Y-84386057D01*
X120388095Y-84386057D02*
X120435714Y-84338438D01*
X120435714Y-84338438D02*
X120530952Y-84290819D01*
X120530952Y-84290819D02*
X120769047Y-84290819D01*
X120769047Y-84290819D02*
X120864285Y-84338438D01*
X120864285Y-84338438D02*
X120911904Y-84386057D01*
X120911904Y-84386057D02*
X120959523Y-84481295D01*
X120959523Y-84481295D02*
X120959523Y-84576533D01*
X120959523Y-84576533D02*
X120911904Y-84719390D01*
X120911904Y-84719390D02*
X120340476Y-85290819D01*
X120340476Y-85290819D02*
X120959523Y-85290819D01*
X121292857Y-84290819D02*
X121959523Y-84290819D01*
X121959523Y-84290819D02*
X121530952Y-85290819D01*
X141380380Y-126880857D02*
X141428000Y-126928476D01*
X141428000Y-126928476D02*
X141475619Y-127071333D01*
X141475619Y-127071333D02*
X141475619Y-127166571D01*
X141475619Y-127166571D02*
X141428000Y-127309428D01*
X141428000Y-127309428D02*
X141332761Y-127404666D01*
X141332761Y-127404666D02*
X141237523Y-127452285D01*
X141237523Y-127452285D02*
X141047047Y-127499904D01*
X141047047Y-127499904D02*
X140904190Y-127499904D01*
X140904190Y-127499904D02*
X140713714Y-127452285D01*
X140713714Y-127452285D02*
X140618476Y-127404666D01*
X140618476Y-127404666D02*
X140523238Y-127309428D01*
X140523238Y-127309428D02*
X140475619Y-127166571D01*
X140475619Y-127166571D02*
X140475619Y-127071333D01*
X140475619Y-127071333D02*
X140523238Y-126928476D01*
X140523238Y-126928476D02*
X140570857Y-126880857D01*
X141475619Y-125928476D02*
X141475619Y-126499904D01*
X141475619Y-126214190D02*
X140475619Y-126214190D01*
X140475619Y-126214190D02*
X140618476Y-126309428D01*
X140618476Y-126309428D02*
X140713714Y-126404666D01*
X140713714Y-126404666D02*
X140761333Y-126499904D01*
X140475619Y-125309428D02*
X140475619Y-125214190D01*
X140475619Y-125214190D02*
X140523238Y-125118952D01*
X140523238Y-125118952D02*
X140570857Y-125071333D01*
X140570857Y-125071333D02*
X140666095Y-125023714D01*
X140666095Y-125023714D02*
X140856571Y-124976095D01*
X140856571Y-124976095D02*
X141094666Y-124976095D01*
X141094666Y-124976095D02*
X141285142Y-125023714D01*
X141285142Y-125023714D02*
X141380380Y-125071333D01*
X141380380Y-125071333D02*
X141428000Y-125118952D01*
X141428000Y-125118952D02*
X141475619Y-125214190D01*
X141475619Y-125214190D02*
X141475619Y-125309428D01*
X141475619Y-125309428D02*
X141428000Y-125404666D01*
X141428000Y-125404666D02*
X141380380Y-125452285D01*
X141380380Y-125452285D02*
X141285142Y-125499904D01*
X141285142Y-125499904D02*
X141094666Y-125547523D01*
X141094666Y-125547523D02*
X140856571Y-125547523D01*
X140856571Y-125547523D02*
X140666095Y-125499904D01*
X140666095Y-125499904D02*
X140570857Y-125452285D01*
X140570857Y-125452285D02*
X140523238Y-125404666D01*
X140523238Y-125404666D02*
X140475619Y-125309428D01*
X94069819Y-107716333D02*
X94784104Y-107716333D01*
X94784104Y-107716333D02*
X94926961Y-107763952D01*
X94926961Y-107763952D02*
X95022200Y-107859190D01*
X95022200Y-107859190D02*
X95069819Y-108002047D01*
X95069819Y-108002047D02*
X95069819Y-108097285D01*
X94069819Y-107335380D02*
X94069819Y-106716333D01*
X94069819Y-106716333D02*
X94450771Y-107049666D01*
X94450771Y-107049666D02*
X94450771Y-106906809D01*
X94450771Y-106906809D02*
X94498390Y-106811571D01*
X94498390Y-106811571D02*
X94546009Y-106763952D01*
X94546009Y-106763952D02*
X94641247Y-106716333D01*
X94641247Y-106716333D02*
X94879342Y-106716333D01*
X94879342Y-106716333D02*
X94974580Y-106763952D01*
X94974580Y-106763952D02*
X95022200Y-106811571D01*
X95022200Y-106811571D02*
X95069819Y-106906809D01*
X95069819Y-106906809D02*
X95069819Y-107192523D01*
X95069819Y-107192523D02*
X95022200Y-107287761D01*
X95022200Y-107287761D02*
X94974580Y-107335380D01*
X113246819Y-76453904D02*
X114056342Y-76453904D01*
X114056342Y-76453904D02*
X114151580Y-76406285D01*
X114151580Y-76406285D02*
X114199200Y-76358666D01*
X114199200Y-76358666D02*
X114246819Y-76263428D01*
X114246819Y-76263428D02*
X114246819Y-76072952D01*
X114246819Y-76072952D02*
X114199200Y-75977714D01*
X114199200Y-75977714D02*
X114151580Y-75930095D01*
X114151580Y-75930095D02*
X114056342Y-75882476D01*
X114056342Y-75882476D02*
X113246819Y-75882476D01*
X114246819Y-74882476D02*
X114246819Y-75453904D01*
X114246819Y-75168190D02*
X113246819Y-75168190D01*
X113246819Y-75168190D02*
X113389676Y-75263428D01*
X113389676Y-75263428D02*
X113484914Y-75358666D01*
X113484914Y-75358666D02*
X113532533Y-75453904D01*
X114507180Y-114072666D02*
X114554800Y-114120285D01*
X114554800Y-114120285D02*
X114602419Y-114263142D01*
X114602419Y-114263142D02*
X114602419Y-114358380D01*
X114602419Y-114358380D02*
X114554800Y-114501237D01*
X114554800Y-114501237D02*
X114459561Y-114596475D01*
X114459561Y-114596475D02*
X114364323Y-114644094D01*
X114364323Y-114644094D02*
X114173847Y-114691713D01*
X114173847Y-114691713D02*
X114030990Y-114691713D01*
X114030990Y-114691713D02*
X113840514Y-114644094D01*
X113840514Y-114644094D02*
X113745276Y-114596475D01*
X113745276Y-114596475D02*
X113650038Y-114501237D01*
X113650038Y-114501237D02*
X113602419Y-114358380D01*
X113602419Y-114358380D02*
X113602419Y-114263142D01*
X113602419Y-114263142D02*
X113650038Y-114120285D01*
X113650038Y-114120285D02*
X113697657Y-114072666D01*
X113935752Y-113215523D02*
X114602419Y-113215523D01*
X113554800Y-113453618D02*
X114269085Y-113691713D01*
X114269085Y-113691713D02*
X114269085Y-113072666D01*
X101986142Y-80115580D02*
X101938523Y-80163200D01*
X101938523Y-80163200D02*
X101795666Y-80210819D01*
X101795666Y-80210819D02*
X101700428Y-80210819D01*
X101700428Y-80210819D02*
X101557571Y-80163200D01*
X101557571Y-80163200D02*
X101462333Y-80067961D01*
X101462333Y-80067961D02*
X101414714Y-79972723D01*
X101414714Y-79972723D02*
X101367095Y-79782247D01*
X101367095Y-79782247D02*
X101367095Y-79639390D01*
X101367095Y-79639390D02*
X101414714Y-79448914D01*
X101414714Y-79448914D02*
X101462333Y-79353676D01*
X101462333Y-79353676D02*
X101557571Y-79258438D01*
X101557571Y-79258438D02*
X101700428Y-79210819D01*
X101700428Y-79210819D02*
X101795666Y-79210819D01*
X101795666Y-79210819D02*
X101938523Y-79258438D01*
X101938523Y-79258438D02*
X101986142Y-79306057D01*
X102938523Y-80210819D02*
X102367095Y-80210819D01*
X102652809Y-80210819D02*
X102652809Y-79210819D01*
X102652809Y-79210819D02*
X102557571Y-79353676D01*
X102557571Y-79353676D02*
X102462333Y-79448914D01*
X102462333Y-79448914D02*
X102367095Y-79496533D01*
X103890904Y-80210819D02*
X103319476Y-80210819D01*
X103605190Y-80210819D02*
X103605190Y-79210819D01*
X103605190Y-79210819D02*
X103509952Y-79353676D01*
X103509952Y-79353676D02*
X103414714Y-79448914D01*
X103414714Y-79448914D02*
X103319476Y-79496533D01*
X98163142Y-126597580D02*
X98115523Y-126645200D01*
X98115523Y-126645200D02*
X97972666Y-126692819D01*
X97972666Y-126692819D02*
X97877428Y-126692819D01*
X97877428Y-126692819D02*
X97734571Y-126645200D01*
X97734571Y-126645200D02*
X97639333Y-126549961D01*
X97639333Y-126549961D02*
X97591714Y-126454723D01*
X97591714Y-126454723D02*
X97544095Y-126264247D01*
X97544095Y-126264247D02*
X97544095Y-126121390D01*
X97544095Y-126121390D02*
X97591714Y-125930914D01*
X97591714Y-125930914D02*
X97639333Y-125835676D01*
X97639333Y-125835676D02*
X97734571Y-125740438D01*
X97734571Y-125740438D02*
X97877428Y-125692819D01*
X97877428Y-125692819D02*
X97972666Y-125692819D01*
X97972666Y-125692819D02*
X98115523Y-125740438D01*
X98115523Y-125740438D02*
X98163142Y-125788057D01*
X98544095Y-125788057D02*
X98591714Y-125740438D01*
X98591714Y-125740438D02*
X98686952Y-125692819D01*
X98686952Y-125692819D02*
X98925047Y-125692819D01*
X98925047Y-125692819D02*
X99020285Y-125740438D01*
X99020285Y-125740438D02*
X99067904Y-125788057D01*
X99067904Y-125788057D02*
X99115523Y-125883295D01*
X99115523Y-125883295D02*
X99115523Y-125978533D01*
X99115523Y-125978533D02*
X99067904Y-126121390D01*
X99067904Y-126121390D02*
X98496476Y-126692819D01*
X98496476Y-126692819D02*
X99115523Y-126692819D01*
X99686952Y-126121390D02*
X99591714Y-126073771D01*
X99591714Y-126073771D02*
X99544095Y-126026152D01*
X99544095Y-126026152D02*
X99496476Y-125930914D01*
X99496476Y-125930914D02*
X99496476Y-125883295D01*
X99496476Y-125883295D02*
X99544095Y-125788057D01*
X99544095Y-125788057D02*
X99591714Y-125740438D01*
X99591714Y-125740438D02*
X99686952Y-125692819D01*
X99686952Y-125692819D02*
X99877428Y-125692819D01*
X99877428Y-125692819D02*
X99972666Y-125740438D01*
X99972666Y-125740438D02*
X100020285Y-125788057D01*
X100020285Y-125788057D02*
X100067904Y-125883295D01*
X100067904Y-125883295D02*
X100067904Y-125930914D01*
X100067904Y-125930914D02*
X100020285Y-126026152D01*
X100020285Y-126026152D02*
X99972666Y-126073771D01*
X99972666Y-126073771D02*
X99877428Y-126121390D01*
X99877428Y-126121390D02*
X99686952Y-126121390D01*
X99686952Y-126121390D02*
X99591714Y-126169009D01*
X99591714Y-126169009D02*
X99544095Y-126216628D01*
X99544095Y-126216628D02*
X99496476Y-126311866D01*
X99496476Y-126311866D02*
X99496476Y-126502342D01*
X99496476Y-126502342D02*
X99544095Y-126597580D01*
X99544095Y-126597580D02*
X99591714Y-126645200D01*
X99591714Y-126645200D02*
X99686952Y-126692819D01*
X99686952Y-126692819D02*
X99877428Y-126692819D01*
X99877428Y-126692819D02*
X99972666Y-126645200D01*
X99972666Y-126645200D02*
X100020285Y-126597580D01*
X100020285Y-126597580D02*
X100067904Y-126502342D01*
X100067904Y-126502342D02*
X100067904Y-126311866D01*
X100067904Y-126311866D02*
X100020285Y-126216628D01*
X100020285Y-126216628D02*
X99972666Y-126169009D01*
X99972666Y-126169009D02*
X99877428Y-126121390D01*
X109352142Y-100021580D02*
X109304523Y-100069200D01*
X109304523Y-100069200D02*
X109161666Y-100116819D01*
X109161666Y-100116819D02*
X109066428Y-100116819D01*
X109066428Y-100116819D02*
X108923571Y-100069200D01*
X108923571Y-100069200D02*
X108828333Y-99973961D01*
X108828333Y-99973961D02*
X108780714Y-99878723D01*
X108780714Y-99878723D02*
X108733095Y-99688247D01*
X108733095Y-99688247D02*
X108733095Y-99545390D01*
X108733095Y-99545390D02*
X108780714Y-99354914D01*
X108780714Y-99354914D02*
X108828333Y-99259676D01*
X108828333Y-99259676D02*
X108923571Y-99164438D01*
X108923571Y-99164438D02*
X109066428Y-99116819D01*
X109066428Y-99116819D02*
X109161666Y-99116819D01*
X109161666Y-99116819D02*
X109304523Y-99164438D01*
X109304523Y-99164438D02*
X109352142Y-99212057D01*
X110304523Y-100116819D02*
X109733095Y-100116819D01*
X110018809Y-100116819D02*
X110018809Y-99116819D01*
X110018809Y-99116819D02*
X109923571Y-99259676D01*
X109923571Y-99259676D02*
X109828333Y-99354914D01*
X109828333Y-99354914D02*
X109733095Y-99402533D01*
X110637857Y-99116819D02*
X111256904Y-99116819D01*
X111256904Y-99116819D02*
X110923571Y-99497771D01*
X110923571Y-99497771D02*
X111066428Y-99497771D01*
X111066428Y-99497771D02*
X111161666Y-99545390D01*
X111161666Y-99545390D02*
X111209285Y-99593009D01*
X111209285Y-99593009D02*
X111256904Y-99688247D01*
X111256904Y-99688247D02*
X111256904Y-99926342D01*
X111256904Y-99926342D02*
X111209285Y-100021580D01*
X111209285Y-100021580D02*
X111161666Y-100069200D01*
X111161666Y-100069200D02*
X111066428Y-100116819D01*
X111066428Y-100116819D02*
X110780714Y-100116819D01*
X110780714Y-100116819D02*
X110685476Y-100069200D01*
X110685476Y-100069200D02*
X110637857Y-100021580D01*
X122120819Y-127134857D02*
X121644628Y-127468190D01*
X122120819Y-127706285D02*
X121120819Y-127706285D01*
X121120819Y-127706285D02*
X121120819Y-127325333D01*
X121120819Y-127325333D02*
X121168438Y-127230095D01*
X121168438Y-127230095D02*
X121216057Y-127182476D01*
X121216057Y-127182476D02*
X121311295Y-127134857D01*
X121311295Y-127134857D02*
X121454152Y-127134857D01*
X121454152Y-127134857D02*
X121549390Y-127182476D01*
X121549390Y-127182476D02*
X121597009Y-127230095D01*
X121597009Y-127230095D02*
X121644628Y-127325333D01*
X121644628Y-127325333D02*
X121644628Y-127706285D01*
X122120819Y-126182476D02*
X122120819Y-126753904D01*
X122120819Y-126468190D02*
X121120819Y-126468190D01*
X121120819Y-126468190D02*
X121263676Y-126563428D01*
X121263676Y-126563428D02*
X121358914Y-126658666D01*
X121358914Y-126658666D02*
X121406533Y-126753904D01*
X121549390Y-125611047D02*
X121501771Y-125706285D01*
X121501771Y-125706285D02*
X121454152Y-125753904D01*
X121454152Y-125753904D02*
X121358914Y-125801523D01*
X121358914Y-125801523D02*
X121311295Y-125801523D01*
X121311295Y-125801523D02*
X121216057Y-125753904D01*
X121216057Y-125753904D02*
X121168438Y-125706285D01*
X121168438Y-125706285D02*
X121120819Y-125611047D01*
X121120819Y-125611047D02*
X121120819Y-125420571D01*
X121120819Y-125420571D02*
X121168438Y-125325333D01*
X121168438Y-125325333D02*
X121216057Y-125277714D01*
X121216057Y-125277714D02*
X121311295Y-125230095D01*
X121311295Y-125230095D02*
X121358914Y-125230095D01*
X121358914Y-125230095D02*
X121454152Y-125277714D01*
X121454152Y-125277714D02*
X121501771Y-125325333D01*
X121501771Y-125325333D02*
X121549390Y-125420571D01*
X121549390Y-125420571D02*
X121549390Y-125611047D01*
X121549390Y-125611047D02*
X121597009Y-125706285D01*
X121597009Y-125706285D02*
X121644628Y-125753904D01*
X121644628Y-125753904D02*
X121739866Y-125801523D01*
X121739866Y-125801523D02*
X121930342Y-125801523D01*
X121930342Y-125801523D02*
X122025580Y-125753904D01*
X122025580Y-125753904D02*
X122073200Y-125706285D01*
X122073200Y-125706285D02*
X122120819Y-125611047D01*
X122120819Y-125611047D02*
X122120819Y-125420571D01*
X122120819Y-125420571D02*
X122073200Y-125325333D01*
X122073200Y-125325333D02*
X122025580Y-125277714D01*
X122025580Y-125277714D02*
X121930342Y-125230095D01*
X121930342Y-125230095D02*
X121739866Y-125230095D01*
X121739866Y-125230095D02*
X121644628Y-125277714D01*
X121644628Y-125277714D02*
X121597009Y-125325333D01*
X121597009Y-125325333D02*
X121549390Y-125420571D01*
X144192666Y-125184819D02*
X144192666Y-125899104D01*
X144192666Y-125899104D02*
X144145047Y-126041961D01*
X144145047Y-126041961D02*
X144049809Y-126137200D01*
X144049809Y-126137200D02*
X143906952Y-126184819D01*
X143906952Y-126184819D02*
X143811714Y-126184819D01*
X145097428Y-125184819D02*
X144906952Y-125184819D01*
X144906952Y-125184819D02*
X144811714Y-125232438D01*
X144811714Y-125232438D02*
X144764095Y-125280057D01*
X144764095Y-125280057D02*
X144668857Y-125422914D01*
X144668857Y-125422914D02*
X144621238Y-125613390D01*
X144621238Y-125613390D02*
X144621238Y-125994342D01*
X144621238Y-125994342D02*
X144668857Y-126089580D01*
X144668857Y-126089580D02*
X144716476Y-126137200D01*
X144716476Y-126137200D02*
X144811714Y-126184819D01*
X144811714Y-126184819D02*
X145002190Y-126184819D01*
X145002190Y-126184819D02*
X145097428Y-126137200D01*
X145097428Y-126137200D02*
X145145047Y-126089580D01*
X145145047Y-126089580D02*
X145192666Y-125994342D01*
X145192666Y-125994342D02*
X145192666Y-125756247D01*
X145192666Y-125756247D02*
X145145047Y-125661009D01*
X145145047Y-125661009D02*
X145097428Y-125613390D01*
X145097428Y-125613390D02*
X145002190Y-125565771D01*
X145002190Y-125565771D02*
X144811714Y-125565771D01*
X144811714Y-125565771D02*
X144716476Y-125613390D01*
X144716476Y-125613390D02*
X144668857Y-125661009D01*
X144668857Y-125661009D02*
X144621238Y-125756247D01*
X113135580Y-126372857D02*
X113183200Y-126420476D01*
X113183200Y-126420476D02*
X113230819Y-126563333D01*
X113230819Y-126563333D02*
X113230819Y-126658571D01*
X113230819Y-126658571D02*
X113183200Y-126801428D01*
X113183200Y-126801428D02*
X113087961Y-126896666D01*
X113087961Y-126896666D02*
X112992723Y-126944285D01*
X112992723Y-126944285D02*
X112802247Y-126991904D01*
X112802247Y-126991904D02*
X112659390Y-126991904D01*
X112659390Y-126991904D02*
X112468914Y-126944285D01*
X112468914Y-126944285D02*
X112373676Y-126896666D01*
X112373676Y-126896666D02*
X112278438Y-126801428D01*
X112278438Y-126801428D02*
X112230819Y-126658571D01*
X112230819Y-126658571D02*
X112230819Y-126563333D01*
X112230819Y-126563333D02*
X112278438Y-126420476D01*
X112278438Y-126420476D02*
X112326057Y-126372857D01*
X112326057Y-125991904D02*
X112278438Y-125944285D01*
X112278438Y-125944285D02*
X112230819Y-125849047D01*
X112230819Y-125849047D02*
X112230819Y-125610952D01*
X112230819Y-125610952D02*
X112278438Y-125515714D01*
X112278438Y-125515714D02*
X112326057Y-125468095D01*
X112326057Y-125468095D02*
X112421295Y-125420476D01*
X112421295Y-125420476D02*
X112516533Y-125420476D01*
X112516533Y-125420476D02*
X112659390Y-125468095D01*
X112659390Y-125468095D02*
X113230819Y-126039523D01*
X113230819Y-126039523D02*
X113230819Y-125420476D01*
X113230819Y-124944285D02*
X113230819Y-124753809D01*
X113230819Y-124753809D02*
X113183200Y-124658571D01*
X113183200Y-124658571D02*
X113135580Y-124610952D01*
X113135580Y-124610952D02*
X112992723Y-124515714D01*
X112992723Y-124515714D02*
X112802247Y-124468095D01*
X112802247Y-124468095D02*
X112421295Y-124468095D01*
X112421295Y-124468095D02*
X112326057Y-124515714D01*
X112326057Y-124515714D02*
X112278438Y-124563333D01*
X112278438Y-124563333D02*
X112230819Y-124658571D01*
X112230819Y-124658571D02*
X112230819Y-124849047D01*
X112230819Y-124849047D02*
X112278438Y-124944285D01*
X112278438Y-124944285D02*
X112326057Y-124991904D01*
X112326057Y-124991904D02*
X112421295Y-125039523D01*
X112421295Y-125039523D02*
X112659390Y-125039523D01*
X112659390Y-125039523D02*
X112754628Y-124991904D01*
X112754628Y-124991904D02*
X112802247Y-124944285D01*
X112802247Y-124944285D02*
X112849866Y-124849047D01*
X112849866Y-124849047D02*
X112849866Y-124658571D01*
X112849866Y-124658571D02*
X112802247Y-124563333D01*
X112802247Y-124563333D02*
X112754628Y-124515714D01*
X112754628Y-124515714D02*
X112659390Y-124468095D01*
X113135580Y-123324857D02*
X113183200Y-123372476D01*
X113183200Y-123372476D02*
X113230819Y-123515333D01*
X113230819Y-123515333D02*
X113230819Y-123610571D01*
X113230819Y-123610571D02*
X113183200Y-123753428D01*
X113183200Y-123753428D02*
X113087961Y-123848666D01*
X113087961Y-123848666D02*
X112992723Y-123896285D01*
X112992723Y-123896285D02*
X112802247Y-123943904D01*
X112802247Y-123943904D02*
X112659390Y-123943904D01*
X112659390Y-123943904D02*
X112468914Y-123896285D01*
X112468914Y-123896285D02*
X112373676Y-123848666D01*
X112373676Y-123848666D02*
X112278438Y-123753428D01*
X112278438Y-123753428D02*
X112230819Y-123610571D01*
X112230819Y-123610571D02*
X112230819Y-123515333D01*
X112230819Y-123515333D02*
X112278438Y-123372476D01*
X112278438Y-123372476D02*
X112326057Y-123324857D01*
X112230819Y-122991523D02*
X112230819Y-122372476D01*
X112230819Y-122372476D02*
X112611771Y-122705809D01*
X112611771Y-122705809D02*
X112611771Y-122562952D01*
X112611771Y-122562952D02*
X112659390Y-122467714D01*
X112659390Y-122467714D02*
X112707009Y-122420095D01*
X112707009Y-122420095D02*
X112802247Y-122372476D01*
X112802247Y-122372476D02*
X113040342Y-122372476D01*
X113040342Y-122372476D02*
X113135580Y-122420095D01*
X113135580Y-122420095D02*
X113183200Y-122467714D01*
X113183200Y-122467714D02*
X113230819Y-122562952D01*
X113230819Y-122562952D02*
X113230819Y-122848666D01*
X113230819Y-122848666D02*
X113183200Y-122943904D01*
X113183200Y-122943904D02*
X113135580Y-122991523D01*
X112230819Y-121753428D02*
X112230819Y-121658190D01*
X112230819Y-121658190D02*
X112278438Y-121562952D01*
X112278438Y-121562952D02*
X112326057Y-121515333D01*
X112326057Y-121515333D02*
X112421295Y-121467714D01*
X112421295Y-121467714D02*
X112611771Y-121420095D01*
X112611771Y-121420095D02*
X112849866Y-121420095D01*
X112849866Y-121420095D02*
X113040342Y-121467714D01*
X113040342Y-121467714D02*
X113135580Y-121515333D01*
X113135580Y-121515333D02*
X113183200Y-121562952D01*
X113183200Y-121562952D02*
X113230819Y-121658190D01*
X113230819Y-121658190D02*
X113230819Y-121753428D01*
X113230819Y-121753428D02*
X113183200Y-121848666D01*
X113183200Y-121848666D02*
X113135580Y-121896285D01*
X113135580Y-121896285D02*
X113040342Y-121943904D01*
X113040342Y-121943904D02*
X112849866Y-121991523D01*
X112849866Y-121991523D02*
X112611771Y-121991523D01*
X112611771Y-121991523D02*
X112421295Y-121943904D01*
X112421295Y-121943904D02*
X112326057Y-121896285D01*
X112326057Y-121896285D02*
X112278438Y-121848666D01*
X112278438Y-121848666D02*
X112230819Y-121753428D01*
X133557180Y-126912666D02*
X133604800Y-126960285D01*
X133604800Y-126960285D02*
X133652419Y-127103142D01*
X133652419Y-127103142D02*
X133652419Y-127198380D01*
X133652419Y-127198380D02*
X133604800Y-127341237D01*
X133604800Y-127341237D02*
X133509561Y-127436475D01*
X133509561Y-127436475D02*
X133414323Y-127484094D01*
X133414323Y-127484094D02*
X133223847Y-127531713D01*
X133223847Y-127531713D02*
X133080990Y-127531713D01*
X133080990Y-127531713D02*
X132890514Y-127484094D01*
X132890514Y-127484094D02*
X132795276Y-127436475D01*
X132795276Y-127436475D02*
X132700038Y-127341237D01*
X132700038Y-127341237D02*
X132652419Y-127198380D01*
X132652419Y-127198380D02*
X132652419Y-127103142D01*
X132652419Y-127103142D02*
X132700038Y-126960285D01*
X132700038Y-126960285D02*
X132747657Y-126912666D01*
X132747657Y-126531713D02*
X132700038Y-126484094D01*
X132700038Y-126484094D02*
X132652419Y-126388856D01*
X132652419Y-126388856D02*
X132652419Y-126150761D01*
X132652419Y-126150761D02*
X132700038Y-126055523D01*
X132700038Y-126055523D02*
X132747657Y-126007904D01*
X132747657Y-126007904D02*
X132842895Y-125960285D01*
X132842895Y-125960285D02*
X132938133Y-125960285D01*
X132938133Y-125960285D02*
X133080990Y-126007904D01*
X133080990Y-126007904D02*
X133652419Y-126579332D01*
X133652419Y-126579332D02*
X133652419Y-125960285D01*
X128470819Y-127134857D02*
X127994628Y-127468190D01*
X128470819Y-127706285D02*
X127470819Y-127706285D01*
X127470819Y-127706285D02*
X127470819Y-127325333D01*
X127470819Y-127325333D02*
X127518438Y-127230095D01*
X127518438Y-127230095D02*
X127566057Y-127182476D01*
X127566057Y-127182476D02*
X127661295Y-127134857D01*
X127661295Y-127134857D02*
X127804152Y-127134857D01*
X127804152Y-127134857D02*
X127899390Y-127182476D01*
X127899390Y-127182476D02*
X127947009Y-127230095D01*
X127947009Y-127230095D02*
X127994628Y-127325333D01*
X127994628Y-127325333D02*
X127994628Y-127706285D01*
X128470819Y-126182476D02*
X128470819Y-126753904D01*
X128470819Y-126468190D02*
X127470819Y-126468190D01*
X127470819Y-126468190D02*
X127613676Y-126563428D01*
X127613676Y-126563428D02*
X127708914Y-126658666D01*
X127708914Y-126658666D02*
X127756533Y-126753904D01*
X127470819Y-125849142D02*
X127470819Y-125182476D01*
X127470819Y-125182476D02*
X128470819Y-125611047D01*
X144258819Y-65254094D02*
X143258819Y-65254094D01*
X143258819Y-65254094D02*
X143258819Y-65015999D01*
X143258819Y-65015999D02*
X143306438Y-64873142D01*
X143306438Y-64873142D02*
X143401676Y-64777904D01*
X143401676Y-64777904D02*
X143496914Y-64730285D01*
X143496914Y-64730285D02*
X143687390Y-64682666D01*
X143687390Y-64682666D02*
X143830247Y-64682666D01*
X143830247Y-64682666D02*
X144020723Y-64730285D01*
X144020723Y-64730285D02*
X144115961Y-64777904D01*
X144115961Y-64777904D02*
X144211200Y-64873142D01*
X144211200Y-64873142D02*
X144258819Y-65015999D01*
X144258819Y-65015999D02*
X144258819Y-65254094D01*
X143258819Y-64349332D02*
X143258819Y-63730285D01*
X143258819Y-63730285D02*
X143639771Y-64063618D01*
X143639771Y-64063618D02*
X143639771Y-63920761D01*
X143639771Y-63920761D02*
X143687390Y-63825523D01*
X143687390Y-63825523D02*
X143735009Y-63777904D01*
X143735009Y-63777904D02*
X143830247Y-63730285D01*
X143830247Y-63730285D02*
X144068342Y-63730285D01*
X144068342Y-63730285D02*
X144163580Y-63777904D01*
X144163580Y-63777904D02*
X144211200Y-63825523D01*
X144211200Y-63825523D02*
X144258819Y-63920761D01*
X144258819Y-63920761D02*
X144258819Y-64206475D01*
X144258819Y-64206475D02*
X144211200Y-64301713D01*
X144211200Y-64301713D02*
X144163580Y-64349332D01*
X61647666Y-127255819D02*
X61647666Y-127970104D01*
X61647666Y-127970104D02*
X61600047Y-128112961D01*
X61600047Y-128112961D02*
X61504809Y-128208200D01*
X61504809Y-128208200D02*
X61361952Y-128255819D01*
X61361952Y-128255819D02*
X61266714Y-128255819D01*
X62028619Y-127255819D02*
X62695285Y-127255819D01*
X62695285Y-127255819D02*
X62266714Y-128255819D01*
X122882819Y-72810666D02*
X122406628Y-73143999D01*
X122882819Y-73382094D02*
X121882819Y-73382094D01*
X121882819Y-73382094D02*
X121882819Y-73001142D01*
X121882819Y-73001142D02*
X121930438Y-72905904D01*
X121930438Y-72905904D02*
X121978057Y-72858285D01*
X121978057Y-72858285D02*
X122073295Y-72810666D01*
X122073295Y-72810666D02*
X122216152Y-72810666D01*
X122216152Y-72810666D02*
X122311390Y-72858285D01*
X122311390Y-72858285D02*
X122359009Y-72905904D01*
X122359009Y-72905904D02*
X122406628Y-73001142D01*
X122406628Y-73001142D02*
X122406628Y-73382094D01*
X122882819Y-71858285D02*
X122882819Y-72429713D01*
X122882819Y-72143999D02*
X121882819Y-72143999D01*
X121882819Y-72143999D02*
X122025676Y-72239237D01*
X122025676Y-72239237D02*
X122120914Y-72334475D01*
X122120914Y-72334475D02*
X122168533Y-72429713D01*
X95720819Y-77184094D02*
X96530342Y-77184094D01*
X96530342Y-77184094D02*
X96625580Y-77136475D01*
X96625580Y-77136475D02*
X96673200Y-77088856D01*
X96673200Y-77088856D02*
X96720819Y-76993618D01*
X96720819Y-76993618D02*
X96720819Y-76803142D01*
X96720819Y-76803142D02*
X96673200Y-76707904D01*
X96673200Y-76707904D02*
X96625580Y-76660285D01*
X96625580Y-76660285D02*
X96530342Y-76612666D01*
X96530342Y-76612666D02*
X95720819Y-76612666D01*
X96720819Y-75612666D02*
X96720819Y-76184094D01*
X96720819Y-75898380D02*
X95720819Y-75898380D01*
X95720819Y-75898380D02*
X95863676Y-75993618D01*
X95863676Y-75993618D02*
X95958914Y-76088856D01*
X95958914Y-76088856D02*
X96006533Y-76184094D01*
X96720819Y-74660285D02*
X96720819Y-75231713D01*
X96720819Y-74945999D02*
X95720819Y-74945999D01*
X95720819Y-74945999D02*
X95863676Y-75041237D01*
X95863676Y-75041237D02*
X95958914Y-75136475D01*
X95958914Y-75136475D02*
X96006533Y-75231713D01*
X138060133Y-123955980D02*
X138012514Y-124003600D01*
X138012514Y-124003600D02*
X137869657Y-124051219D01*
X137869657Y-124051219D02*
X137774419Y-124051219D01*
X137774419Y-124051219D02*
X137631562Y-124003600D01*
X137631562Y-124003600D02*
X137536324Y-123908361D01*
X137536324Y-123908361D02*
X137488705Y-123813123D01*
X137488705Y-123813123D02*
X137441086Y-123622647D01*
X137441086Y-123622647D02*
X137441086Y-123479790D01*
X137441086Y-123479790D02*
X137488705Y-123289314D01*
X137488705Y-123289314D02*
X137536324Y-123194076D01*
X137536324Y-123194076D02*
X137631562Y-123098838D01*
X137631562Y-123098838D02*
X137774419Y-123051219D01*
X137774419Y-123051219D02*
X137869657Y-123051219D01*
X137869657Y-123051219D02*
X138012514Y-123098838D01*
X138012514Y-123098838D02*
X138060133Y-123146457D01*
X138393467Y-123051219D02*
X139060133Y-123051219D01*
X139060133Y-123051219D02*
X138631562Y-124051219D01*
X93400666Y-97752819D02*
X93400666Y-98467104D01*
X93400666Y-98467104D02*
X93353047Y-98609961D01*
X93353047Y-98609961D02*
X93257809Y-98705200D01*
X93257809Y-98705200D02*
X93114952Y-98752819D01*
X93114952Y-98752819D02*
X93019714Y-98752819D01*
X93876857Y-98752819D02*
X93876857Y-97752819D01*
X93876857Y-97752819D02*
X94257809Y-97752819D01*
X94257809Y-97752819D02*
X94353047Y-97800438D01*
X94353047Y-97800438D02*
X94400666Y-97848057D01*
X94400666Y-97848057D02*
X94448285Y-97943295D01*
X94448285Y-97943295D02*
X94448285Y-98086152D01*
X94448285Y-98086152D02*
X94400666Y-98181390D01*
X94400666Y-98181390D02*
X94353047Y-98229009D01*
X94353047Y-98229009D02*
X94257809Y-98276628D01*
X94257809Y-98276628D02*
X93876857Y-98276628D01*
X95400666Y-98752819D02*
X94829238Y-98752819D01*
X95114952Y-98752819D02*
X95114952Y-97752819D01*
X95114952Y-97752819D02*
X95019714Y-97895676D01*
X95019714Y-97895676D02*
X94924476Y-97990914D01*
X94924476Y-97990914D02*
X94829238Y-98038533D01*
X95462819Y-64698523D02*
X96177104Y-64698523D01*
X96177104Y-64698523D02*
X96319961Y-64746142D01*
X96319961Y-64746142D02*
X96415200Y-64841380D01*
X96415200Y-64841380D02*
X96462819Y-64984237D01*
X96462819Y-64984237D02*
X96462819Y-65079475D01*
X96462819Y-63698523D02*
X96462819Y-64269951D01*
X96462819Y-63984237D02*
X95462819Y-63984237D01*
X95462819Y-63984237D02*
X95605676Y-64079475D01*
X95605676Y-64079475D02*
X95700914Y-64174713D01*
X95700914Y-64174713D02*
X95748533Y-64269951D01*
X95462819Y-63079475D02*
X95462819Y-62984237D01*
X95462819Y-62984237D02*
X95510438Y-62888999D01*
X95510438Y-62888999D02*
X95558057Y-62841380D01*
X95558057Y-62841380D02*
X95653295Y-62793761D01*
X95653295Y-62793761D02*
X95843771Y-62746142D01*
X95843771Y-62746142D02*
X96081866Y-62746142D01*
X96081866Y-62746142D02*
X96272342Y-62793761D01*
X96272342Y-62793761D02*
X96367580Y-62841380D01*
X96367580Y-62841380D02*
X96415200Y-62888999D01*
X96415200Y-62888999D02*
X96462819Y-62984237D01*
X96462819Y-62984237D02*
X96462819Y-63079475D01*
X96462819Y-63079475D02*
X96415200Y-63174713D01*
X96415200Y-63174713D02*
X96367580Y-63222332D01*
X96367580Y-63222332D02*
X96272342Y-63269951D01*
X96272342Y-63269951D02*
X96081866Y-63317570D01*
X96081866Y-63317570D02*
X95843771Y-63317570D01*
X95843771Y-63317570D02*
X95653295Y-63269951D01*
X95653295Y-63269951D02*
X95558057Y-63222332D01*
X95558057Y-63222332D02*
X95510438Y-63174713D01*
X95510438Y-63174713D02*
X95462819Y-63079475D01*
D12*
X141330000Y-91389252D02*
X141330000Y-89966748D01*
X143150000Y-91389252D02*
X143150000Y-89966748D01*
X144245225Y-70153000D02*
X144745225Y-70153000D01*
X144495225Y-69903000D02*
X144495225Y-70403000D01*
X147050000Y-69048000D02*
X147050000Y-70588000D01*
X147050000Y-72668000D02*
X147050000Y-74208000D01*
X147090000Y-69048000D02*
X147090000Y-70588000D01*
X147090000Y-72668000D02*
X147090000Y-74208000D01*
X147130000Y-69049000D02*
X147130000Y-70588000D01*
X147130000Y-72668000D02*
X147130000Y-74207000D01*
X147170000Y-69050000D02*
X147170000Y-70588000D01*
X147170000Y-72668000D02*
X147170000Y-74206000D01*
X147210000Y-69052000D02*
X147210000Y-70588000D01*
X147210000Y-72668000D02*
X147210000Y-74204000D01*
X147250000Y-69055000D02*
X147250000Y-70588000D01*
X147250000Y-72668000D02*
X147250000Y-74201000D01*
X147290000Y-69059000D02*
X147290000Y-70588000D01*
X147290000Y-72668000D02*
X147290000Y-74197000D01*
X147330000Y-69063000D02*
X147330000Y-70588000D01*
X147330000Y-72668000D02*
X147330000Y-74193000D01*
X147370000Y-69067000D02*
X147370000Y-70588000D01*
X147370000Y-72668000D02*
X147370000Y-74189000D01*
X147410000Y-69072000D02*
X147410000Y-70588000D01*
X147410000Y-72668000D02*
X147410000Y-74184000D01*
X147450000Y-69078000D02*
X147450000Y-70588000D01*
X147450000Y-72668000D02*
X147450000Y-74178000D01*
X147490000Y-69085000D02*
X147490000Y-70588000D01*
X147490000Y-72668000D02*
X147490000Y-74171000D01*
X147530000Y-69092000D02*
X147530000Y-70588000D01*
X147530000Y-72668000D02*
X147530000Y-74164000D01*
X147570000Y-69100000D02*
X147570000Y-70588000D01*
X147570000Y-72668000D02*
X147570000Y-74156000D01*
X147610000Y-69108000D02*
X147610000Y-70588000D01*
X147610000Y-72668000D02*
X147610000Y-74148000D01*
X147650000Y-69117000D02*
X147650000Y-70588000D01*
X147650000Y-72668000D02*
X147650000Y-74139000D01*
X147690000Y-69127000D02*
X147690000Y-70588000D01*
X147690000Y-72668000D02*
X147690000Y-74129000D01*
X147730000Y-69137000D02*
X147730000Y-70588000D01*
X147730000Y-72668000D02*
X147730000Y-74119000D01*
X147771000Y-69148000D02*
X147771000Y-70588000D01*
X147771000Y-72668000D02*
X147771000Y-74108000D01*
X147811000Y-69160000D02*
X147811000Y-70588000D01*
X147811000Y-72668000D02*
X147811000Y-74096000D01*
X147851000Y-69173000D02*
X147851000Y-70588000D01*
X147851000Y-72668000D02*
X147851000Y-74083000D01*
X147891000Y-69186000D02*
X147891000Y-70588000D01*
X147891000Y-72668000D02*
X147891000Y-74070000D01*
X147931000Y-69200000D02*
X147931000Y-70588000D01*
X147931000Y-72668000D02*
X147931000Y-74056000D01*
X147971000Y-69214000D02*
X147971000Y-70588000D01*
X147971000Y-72668000D02*
X147971000Y-74042000D01*
X148011000Y-69230000D02*
X148011000Y-70588000D01*
X148011000Y-72668000D02*
X148011000Y-74026000D01*
X148051000Y-69246000D02*
X148051000Y-70588000D01*
X148051000Y-72668000D02*
X148051000Y-74010000D01*
X148091000Y-69263000D02*
X148091000Y-70588000D01*
X148091000Y-72668000D02*
X148091000Y-73993000D01*
X148131000Y-69280000D02*
X148131000Y-70588000D01*
X148131000Y-72668000D02*
X148131000Y-73976000D01*
X148171000Y-69299000D02*
X148171000Y-70588000D01*
X148171000Y-72668000D02*
X148171000Y-73957000D01*
X148211000Y-69318000D02*
X148211000Y-70588000D01*
X148211000Y-72668000D02*
X148211000Y-73938000D01*
X148251000Y-69338000D02*
X148251000Y-70588000D01*
X148251000Y-72668000D02*
X148251000Y-73918000D01*
X148291000Y-69360000D02*
X148291000Y-70588000D01*
X148291000Y-72668000D02*
X148291000Y-73896000D01*
X148331000Y-69381000D02*
X148331000Y-70588000D01*
X148331000Y-72668000D02*
X148331000Y-73875000D01*
X148371000Y-69404000D02*
X148371000Y-70588000D01*
X148371000Y-72668000D02*
X148371000Y-73852000D01*
X148411000Y-69428000D02*
X148411000Y-70588000D01*
X148411000Y-72668000D02*
X148411000Y-73828000D01*
X148451000Y-69453000D02*
X148451000Y-70588000D01*
X148451000Y-72668000D02*
X148451000Y-73803000D01*
X148491000Y-69479000D02*
X148491000Y-70588000D01*
X148491000Y-72668000D02*
X148491000Y-73777000D01*
X148531000Y-69506000D02*
X148531000Y-70588000D01*
X148531000Y-72668000D02*
X148531000Y-73750000D01*
X148571000Y-69533000D02*
X148571000Y-70588000D01*
X148571000Y-72668000D02*
X148571000Y-73723000D01*
X148611000Y-69563000D02*
X148611000Y-70588000D01*
X148611000Y-72668000D02*
X148611000Y-73693000D01*
X148651000Y-69593000D02*
X148651000Y-70588000D01*
X148651000Y-72668000D02*
X148651000Y-73663000D01*
X148691000Y-69624000D02*
X148691000Y-70588000D01*
X148691000Y-72668000D02*
X148691000Y-73632000D01*
X148731000Y-69657000D02*
X148731000Y-70588000D01*
X148731000Y-72668000D02*
X148731000Y-73599000D01*
X148771000Y-69691000D02*
X148771000Y-70588000D01*
X148771000Y-72668000D02*
X148771000Y-73565000D01*
X148811000Y-69727000D02*
X148811000Y-70588000D01*
X148811000Y-72668000D02*
X148811000Y-73529000D01*
X148851000Y-69764000D02*
X148851000Y-70588000D01*
X148851000Y-72668000D02*
X148851000Y-73492000D01*
X148891000Y-69802000D02*
X148891000Y-70588000D01*
X148891000Y-72668000D02*
X148891000Y-73454000D01*
X148931000Y-69843000D02*
X148931000Y-70588000D01*
X148931000Y-72668000D02*
X148931000Y-73413000D01*
X148971000Y-69885000D02*
X148971000Y-70588000D01*
X148971000Y-72668000D02*
X148971000Y-73371000D01*
X149011000Y-69929000D02*
X149011000Y-70588000D01*
X149011000Y-72668000D02*
X149011000Y-73327000D01*
X149051000Y-69975000D02*
X149051000Y-70588000D01*
X149051000Y-72668000D02*
X149051000Y-73281000D01*
X149091000Y-70023000D02*
X149091000Y-73233000D01*
X149131000Y-70074000D02*
X149131000Y-73182000D01*
X149171000Y-70128000D02*
X149171000Y-73128000D01*
X149211000Y-70185000D02*
X149211000Y-73071000D01*
X149251000Y-70245000D02*
X149251000Y-73011000D01*
X149291000Y-70309000D02*
X149291000Y-72947000D01*
X149331000Y-70377000D02*
X149331000Y-72879000D01*
X149371000Y-70450000D02*
X149371000Y-72806000D01*
X149411000Y-70530000D02*
X149411000Y-72726000D01*
X149451000Y-70617000D02*
X149451000Y-72639000D01*
X149491000Y-70713000D02*
X149491000Y-72543000D01*
X149531000Y-70823000D02*
X149531000Y-72433000D01*
X149571000Y-70951000D02*
X149571000Y-72305000D01*
X149611000Y-71110000D02*
X149611000Y-72146000D01*
X149651000Y-71344000D02*
X149651000Y-71912000D01*
X149670000Y-71628000D02*
G75*
G03*
X144430000Y-71628000I-2620000J0D01*
G01*
X144430000Y-71628000D02*
G75*
G03*
X149670000Y-71628000I2620000J0D01*
G01*
X57344000Y-87436000D02*
X57344000Y-86106000D01*
X58674000Y-87436000D02*
X57344000Y-87436000D01*
X59944000Y-87436000D02*
X70164000Y-87436000D01*
X59944000Y-87436000D02*
X59944000Y-84836000D01*
X70164000Y-87436000D02*
X70164000Y-82236000D01*
X57344000Y-84836000D02*
X57344000Y-82236000D01*
X59944000Y-84836000D02*
X57344000Y-84836000D01*
X57344000Y-82236000D02*
X70164000Y-82236000D01*
X70789436Y-88673000D02*
X71243564Y-88673000D01*
X70789436Y-90143000D02*
X71243564Y-90143000D01*
X66979436Y-88673000D02*
X67433564Y-88673000D01*
X66979436Y-90143000D02*
X67433564Y-90143000D01*
X67844936Y-80037000D02*
X68299064Y-80037000D01*
X67844936Y-81507000D02*
X68299064Y-81507000D01*
X116838000Y-92583580D02*
X116838000Y-92302420D01*
X117858000Y-92583580D02*
X117858000Y-92302420D01*
X110108420Y-77722000D02*
X110389580Y-77722000D01*
X110108420Y-78742000D02*
X110389580Y-78742000D01*
X95252000Y-90550420D02*
X95252000Y-90831580D01*
X94232000Y-90550420D02*
X94232000Y-90831580D01*
X116838000Y-89281580D02*
X116838000Y-89000420D01*
X117858000Y-89281580D02*
X117858000Y-89000420D01*
X94232000Y-87249580D02*
X94232000Y-86968420D01*
X95252000Y-87249580D02*
X95252000Y-86968420D01*
D13*
X144994000Y-110998000D02*
X144994000Y-110998000D01*
X144962068Y-111396295D02*
X144962068Y-111396295D01*
X144867088Y-111784416D02*
X144867088Y-111784416D01*
X144711487Y-112152447D02*
X144711487Y-112152447D01*
X144499239Y-112490988D02*
X144499239Y-112490988D01*
X144235766Y-112791390D02*
X144235766Y-112791390D01*
X143927799Y-113045978D02*
X143927799Y-113045978D01*
X143583206Y-113248251D02*
X143583206Y-113248251D01*
X143210788Y-113393039D02*
X143210788Y-113393039D01*
X142820059Y-113476645D02*
X142820059Y-113476645D01*
X142421001Y-113496934D02*
X142421001Y-113496934D01*
X142023807Y-113453385D02*
X142023807Y-113453385D01*
X141638625Y-113347113D02*
X141638625Y-113347113D01*
X141275294Y-113180832D02*
X141275294Y-113180832D01*
X140943095Y-112958789D02*
X140943095Y-112958789D01*
X140650515Y-112686657D02*
X140650515Y-112686657D01*
X140405028Y-112371388D02*
X140405028Y-112371388D01*
X140212904Y-112021035D02*
X140212904Y-112021035D01*
X140079051Y-111644548D02*
X140079051Y-111644548D01*
X140006890Y-111251544D02*
X140006890Y-111251544D01*
X139998263Y-110852064D02*
X139998263Y-110852064D01*
X140053390Y-110456312D02*
X140053390Y-110456312D01*
X140170864Y-110074397D02*
X140170864Y-110074397D01*
X140347683Y-109716076D02*
X140347683Y-109716076D01*
X140579331Y-109390503D02*
X140579331Y-109390503D01*
X140859890Y-109105993D02*
X140859890Y-109105993D01*
X141182194Y-108869816D02*
X141182194Y-108869816D01*
X141538007Y-108688004D02*
X141538007Y-108688004D01*
X141918242Y-108565202D02*
X141918242Y-108565202D01*
X142313185Y-108504547D02*
X142313185Y-108504547D01*
X142712747Y-108507588D02*
X142712747Y-108507588D01*
X143106721Y-108574248D02*
X143106721Y-108574248D01*
X143485043Y-108702823D02*
X143485043Y-108702823D01*
X143838048Y-108890030D02*
X143838048Y-108890030D01*
X144156718Y-109131086D02*
X144156718Y-109131086D01*
X144432914Y-109419833D02*
X144432914Y-109419833D01*
X144659580Y-109748895D02*
X144659580Y-109748895D01*
X144830924Y-110109866D02*
X144830924Y-110109866D01*
X144942571Y-110493524D02*
X144942571Y-110493524D01*
X144991669Y-110890070D02*
X144991669Y-110890070D01*
X144994000Y-76962000D02*
X144994000Y-76962000D01*
X144962068Y-77360295D02*
X144962068Y-77360295D01*
X144867088Y-77748416D02*
X144867088Y-77748416D01*
X144711487Y-78116447D02*
X144711487Y-78116447D01*
X144499239Y-78454988D02*
X144499239Y-78454988D01*
X144235766Y-78755390D02*
X144235766Y-78755390D01*
X143927799Y-79009978D02*
X143927799Y-79009978D01*
X143583206Y-79212251D02*
X143583206Y-79212251D01*
X143210788Y-79357039D02*
X143210788Y-79357039D01*
X142820059Y-79440645D02*
X142820059Y-79440645D01*
X142421001Y-79460934D02*
X142421001Y-79460934D01*
X142023807Y-79417385D02*
X142023807Y-79417385D01*
X141638625Y-79311113D02*
X141638625Y-79311113D01*
X141275294Y-79144832D02*
X141275294Y-79144832D01*
X140943095Y-78922789D02*
X140943095Y-78922789D01*
X140650515Y-78650657D02*
X140650515Y-78650657D01*
X140405028Y-78335388D02*
X140405028Y-78335388D01*
X140212904Y-77985035D02*
X140212904Y-77985035D01*
X140079051Y-77608548D02*
X140079051Y-77608548D01*
X140006890Y-77215544D02*
X140006890Y-77215544D01*
X139998263Y-76816064D02*
X139998263Y-76816064D01*
X140053390Y-76420312D02*
X140053390Y-76420312D01*
X140170864Y-76038397D02*
X140170864Y-76038397D01*
X140347683Y-75680076D02*
X140347683Y-75680076D01*
X140579331Y-75354503D02*
X140579331Y-75354503D01*
X140859890Y-75069993D02*
X140859890Y-75069993D01*
X141182194Y-74833816D02*
X141182194Y-74833816D01*
X141538007Y-74652004D02*
X141538007Y-74652004D01*
X141918242Y-74529202D02*
X141918242Y-74529202D01*
X142313185Y-74468547D02*
X142313185Y-74468547D01*
X142712747Y-74471588D02*
X142712747Y-74471588D01*
X143106721Y-74538248D02*
X143106721Y-74538248D01*
X143485043Y-74666823D02*
X143485043Y-74666823D01*
X143838048Y-74854030D02*
X143838048Y-74854030D01*
X144156718Y-75095086D02*
X144156718Y-75095086D01*
X144432914Y-75383833D02*
X144432914Y-75383833D01*
X144659580Y-75712895D02*
X144659580Y-75712895D01*
X144830924Y-76073866D02*
X144830924Y-76073866D01*
X144942571Y-76457524D02*
X144942571Y-76457524D01*
X144991669Y-76854070D02*
X144991669Y-76854070D01*
D12*
X147290000Y-107296000D02*
X143530000Y-107296000D01*
X147290000Y-100476000D02*
X143530000Y-100476000D01*
X143530000Y-107296000D02*
X143530000Y-106036000D01*
X143530000Y-100476000D02*
X143530000Y-101736000D01*
X148810000Y-107526000D02*
X148330000Y-107526000D01*
X148570000Y-107196000D01*
X148810000Y-107526000D01*
G36*
X148810000Y-107526000D02*
G01*
X148330000Y-107526000D01*
X148570000Y-107196000D01*
X148810000Y-107526000D01*
G37*
X137522000Y-90962000D02*
X137522000Y-94722000D01*
X130702000Y-90962000D02*
X130702000Y-94722000D01*
X137522000Y-94722000D02*
X136262000Y-94722000D01*
X130702000Y-94722000D02*
X131962000Y-94722000D01*
X137752000Y-89922000D02*
X137422000Y-89682000D01*
X137752000Y-89442000D01*
X137752000Y-89922000D01*
G36*
X137752000Y-89922000D02*
G01*
X137422000Y-89682000D01*
X137752000Y-89442000D01*
X137752000Y-89922000D01*
G37*
X140314000Y-97944252D02*
X140314000Y-96521748D01*
X142134000Y-97944252D02*
X142134000Y-96521748D01*
X137109252Y-99970000D02*
X135686748Y-99970000D01*
X137109252Y-98150000D02*
X135686748Y-98150000D01*
D10*
X86468000Y-95334000D02*
X91468000Y-95334000D01*
X86468000Y-93134000D02*
X86468000Y-90234000D01*
X91468000Y-93134000D02*
X91468000Y-90234000D01*
X86468000Y-88054000D02*
X91468000Y-88054000D01*
X87757000Y-88011000D02*
G75*
G03*
X86487000Y-88011000I-635000J0D01*
G01*
D12*
X102221420Y-100582000D02*
X102502580Y-100582000D01*
X102221420Y-101602000D02*
X102502580Y-101602000D01*
D13*
X67016000Y-76962000D02*
X67016000Y-76962000D01*
X66984068Y-77360295D02*
X66984068Y-77360295D01*
X66889088Y-77748416D02*
X66889088Y-77748416D01*
X66733487Y-78116447D02*
X66733487Y-78116447D01*
X66521239Y-78454988D02*
X66521239Y-78454988D01*
X66257766Y-78755390D02*
X66257766Y-78755390D01*
X65949799Y-79009978D02*
X65949799Y-79009978D01*
X65605206Y-79212251D02*
X65605206Y-79212251D01*
X65232788Y-79357039D02*
X65232788Y-79357039D01*
X64842059Y-79440645D02*
X64842059Y-79440645D01*
X64443001Y-79460934D02*
X64443001Y-79460934D01*
X64045807Y-79417385D02*
X64045807Y-79417385D01*
X63660625Y-79311113D02*
X63660625Y-79311113D01*
X63297294Y-79144832D02*
X63297294Y-79144832D01*
X62965095Y-78922789D02*
X62965095Y-78922789D01*
X62672515Y-78650657D02*
X62672515Y-78650657D01*
X62427028Y-78335388D02*
X62427028Y-78335388D01*
X62234904Y-77985035D02*
X62234904Y-77985035D01*
X62101051Y-77608548D02*
X62101051Y-77608548D01*
X62028890Y-77215544D02*
X62028890Y-77215544D01*
X62020263Y-76816064D02*
X62020263Y-76816064D01*
X62075390Y-76420312D02*
X62075390Y-76420312D01*
X62192864Y-76038397D02*
X62192864Y-76038397D01*
X62369683Y-75680076D02*
X62369683Y-75680076D01*
X62601331Y-75354503D02*
X62601331Y-75354503D01*
X62881890Y-75069993D02*
X62881890Y-75069993D01*
X63204194Y-74833816D02*
X63204194Y-74833816D01*
X63560007Y-74652004D02*
X63560007Y-74652004D01*
X63940242Y-74529202D02*
X63940242Y-74529202D01*
X64335185Y-74468547D02*
X64335185Y-74468547D01*
X64734747Y-74471588D02*
X64734747Y-74471588D01*
X65128721Y-74538248D02*
X65128721Y-74538248D01*
X65507043Y-74666823D02*
X65507043Y-74666823D01*
X65860048Y-74854030D02*
X65860048Y-74854030D01*
X66178718Y-75095086D02*
X66178718Y-75095086D01*
X66454914Y-75383833D02*
X66454914Y-75383833D01*
X66681580Y-75712895D02*
X66681580Y-75712895D01*
X66852924Y-76073866D02*
X66852924Y-76073866D01*
X66964571Y-76457524D02*
X66964571Y-76457524D01*
X67013669Y-76854070D02*
X67013669Y-76854070D01*
X67016000Y-110998000D02*
X67016000Y-110998000D01*
X66984068Y-111396295D02*
X66984068Y-111396295D01*
X66889088Y-111784416D02*
X66889088Y-111784416D01*
X66733487Y-112152447D02*
X66733487Y-112152447D01*
X66521239Y-112490988D02*
X66521239Y-112490988D01*
X66257766Y-112791390D02*
X66257766Y-112791390D01*
X65949799Y-113045978D02*
X65949799Y-113045978D01*
X65605206Y-113248251D02*
X65605206Y-113248251D01*
X65232788Y-113393039D02*
X65232788Y-113393039D01*
X64842059Y-113476645D02*
X64842059Y-113476645D01*
X64443001Y-113496934D02*
X64443001Y-113496934D01*
X64045807Y-113453385D02*
X64045807Y-113453385D01*
X63660625Y-113347113D02*
X63660625Y-113347113D01*
X63297294Y-113180832D02*
X63297294Y-113180832D01*
X62965095Y-112958789D02*
X62965095Y-112958789D01*
X62672515Y-112686657D02*
X62672515Y-112686657D01*
X62427028Y-112371388D02*
X62427028Y-112371388D01*
X62234904Y-112021035D02*
X62234904Y-112021035D01*
X62101051Y-111644548D02*
X62101051Y-111644548D01*
X62028890Y-111251544D02*
X62028890Y-111251544D01*
X62020263Y-110852064D02*
X62020263Y-110852064D01*
X62075390Y-110456312D02*
X62075390Y-110456312D01*
X62192864Y-110074397D02*
X62192864Y-110074397D01*
X62369683Y-109716076D02*
X62369683Y-109716076D01*
X62601331Y-109390503D02*
X62601331Y-109390503D01*
X62881890Y-109105993D02*
X62881890Y-109105993D01*
X63204194Y-108869816D02*
X63204194Y-108869816D01*
X63560007Y-108688004D02*
X63560007Y-108688004D01*
X63940242Y-108565202D02*
X63940242Y-108565202D01*
X64335185Y-108504547D02*
X64335185Y-108504547D01*
X64734747Y-108507588D02*
X64734747Y-108507588D01*
X65128721Y-108574248D02*
X65128721Y-108574248D01*
X65507043Y-108702823D02*
X65507043Y-108702823D01*
X65860048Y-108890030D02*
X65860048Y-108890030D01*
X66178718Y-109131086D02*
X66178718Y-109131086D01*
X66454914Y-109419833D02*
X66454914Y-109419833D01*
X66681580Y-109748895D02*
X66681580Y-109748895D01*
X66852924Y-110109866D02*
X66852924Y-110109866D01*
X66964571Y-110493524D02*
X66964571Y-110493524D01*
X67013669Y-110890070D02*
X67013669Y-110890070D01*
D12*
X142522000Y-56558000D02*
X142522000Y-71258000D01*
X133322000Y-56558000D02*
X142522000Y-56558000D01*
X133322000Y-65358000D02*
X133322000Y-56558000D01*
X142722000Y-70408000D02*
X142722000Y-71458000D01*
X142522000Y-71258000D02*
X139922000Y-71258000D01*
X136022000Y-71258000D02*
X133322000Y-71258000D01*
X133322000Y-71258000D02*
X133322000Y-69358000D01*
X141672000Y-71458000D02*
X142722000Y-71458000D01*
X136498420Y-111250000D02*
X136779580Y-111250000D01*
X136498420Y-112270000D02*
X136779580Y-112270000D01*
X78104420Y-80770000D02*
X78385580Y-80770000D01*
X78104420Y-81790000D02*
X78385580Y-81790000D01*
X99062000Y-82806000D02*
X99062000Y-83506000D01*
X99062000Y-97026000D02*
X99062000Y-96326000D01*
X99762000Y-82806000D02*
X99062000Y-82806000D01*
X99762000Y-97026000D02*
X99062000Y-97026000D01*
X112582000Y-82806000D02*
X113282000Y-82806000D01*
X112582000Y-97026000D02*
X113282000Y-97026000D01*
X113282000Y-82806000D02*
X113282000Y-83506000D01*
X113282000Y-97026000D02*
X113282000Y-96326000D01*
X98472000Y-83506000D02*
X98132000Y-83036000D01*
X98812000Y-83036000D01*
X98472000Y-83506000D01*
G36*
X98472000Y-83506000D02*
G01*
X98132000Y-83036000D01*
X98812000Y-83036000D01*
X98472000Y-83506000D01*
G37*
D10*
X105272000Y-125133000D02*
X105272000Y-124908000D01*
X105272000Y-125133000D02*
X101922000Y-125133000D01*
X105272000Y-122008000D02*
X105272000Y-121783000D01*
X105272000Y-121783000D02*
X101922000Y-121783000D01*
X101922000Y-125133000D02*
X101922000Y-124908000D01*
X101922000Y-121783000D02*
X101922000Y-122008000D01*
D12*
X106124500Y-125238000D02*
X105644500Y-125238000D01*
X105884500Y-124908000D01*
X106124500Y-125238000D01*
G36*
X106124500Y-125238000D02*
G01*
X105644500Y-125238000D01*
X105884500Y-124908000D01*
X106124500Y-125238000D01*
G37*
X147392000Y-87484000D02*
X143632000Y-87484000D01*
X147392000Y-80664000D02*
X143632000Y-80664000D01*
X143632000Y-87484000D02*
X143632000Y-86224000D01*
X143632000Y-80664000D02*
X143632000Y-81924000D01*
X148912000Y-87714000D02*
X148432000Y-87714000D01*
X148672000Y-87384000D01*
X148912000Y-87714000D01*
G36*
X148912000Y-87714000D02*
G01*
X148432000Y-87714000D01*
X148672000Y-87384000D01*
X148912000Y-87714000D01*
G37*
X87489420Y-82040000D02*
X87770580Y-82040000D01*
X87489420Y-83060000D02*
X87770580Y-83060000D01*
X123154000Y-122876000D02*
X123154000Y-126736000D01*
X123154000Y-122876000D02*
X126274000Y-122876000D01*
X123444000Y-122746000D02*
X123444000Y-122746000D01*
X123444000Y-122746000D02*
X123444000Y-122876000D01*
X123444000Y-122876000D02*
X123444000Y-122746000D01*
X123444000Y-122876000D02*
X123444000Y-122876000D01*
X125984000Y-122746000D02*
X125984000Y-122746000D01*
X125984000Y-122746000D02*
X125984000Y-122876000D01*
X125984000Y-122876000D02*
X125984000Y-122746000D01*
X125984000Y-122876000D02*
X125984000Y-122876000D01*
X126274000Y-122876000D02*
X126274000Y-126736000D01*
X126274000Y-122876000D02*
X126674000Y-122876000D01*
X126274000Y-123996000D02*
X126274000Y-122876000D01*
X126674000Y-122876000D02*
X126674000Y-123996000D01*
X126674000Y-123996000D02*
X126274000Y-123996000D01*
X123154000Y-126736000D02*
G75*
G03*
X126274000Y-126736000I1560000J0D01*
G01*
X136806400Y-125831020D02*
X136806400Y-126112180D01*
X135786400Y-125831020D02*
X135786400Y-126112180D01*
X59376000Y-103438000D02*
X59376000Y-102108000D01*
X60706000Y-103438000D02*
X59376000Y-103438000D01*
X61976000Y-103438000D02*
X64576000Y-103438000D01*
X61976000Y-103438000D02*
X61976000Y-100778000D01*
X64576000Y-103438000D02*
X64576000Y-100778000D01*
X61976000Y-100778000D02*
X64576000Y-100778000D01*
X81914420Y-99566000D02*
X82195580Y-99566000D01*
X81914420Y-100586000D02*
X82195580Y-100586000D01*
X91213000Y-68195564D02*
X91213000Y-67741436D01*
X92683000Y-68195564D02*
X92683000Y-67741436D01*
X129504000Y-78740000D02*
X129504000Y-79390000D01*
X129504000Y-78740000D02*
X129504000Y-78090000D01*
X132624000Y-78740000D02*
X132624000Y-79390000D01*
X132624000Y-78740000D02*
X132624000Y-78090000D01*
X129554000Y-79902500D02*
X129224000Y-80142500D01*
X129224000Y-79662500D01*
X129554000Y-79902500D01*
G36*
X129554000Y-79902500D02*
G01*
X129224000Y-80142500D01*
X129224000Y-79662500D01*
X129554000Y-79902500D01*
G37*
X124424000Y-78740000D02*
X124424000Y-79390000D01*
X124424000Y-78740000D02*
X124424000Y-78090000D01*
X127544000Y-78740000D02*
X127544000Y-79390000D01*
X127544000Y-78740000D02*
X127544000Y-78090000D01*
X124474000Y-79902500D02*
X124144000Y-80142500D01*
X124144000Y-79662500D01*
X124474000Y-79902500D01*
G36*
X124474000Y-79902500D02*
G01*
X124144000Y-80142500D01*
X124144000Y-79662500D01*
X124474000Y-79902500D01*
G37*
X135110800Y-118364000D02*
X135110800Y-120564000D01*
X135110800Y-118364000D02*
X135110800Y-116164000D01*
X140580800Y-118364000D02*
X140580800Y-120564000D01*
X140580800Y-118364000D02*
X140580800Y-116164000D01*
X135810800Y-122554000D02*
X135330800Y-122554000D01*
X135570800Y-122224000D01*
X135810800Y-122554000D01*
G36*
X135810800Y-122554000D02*
G01*
X135330800Y-122554000D01*
X135570800Y-122224000D01*
X135810800Y-122554000D01*
G37*
X90959000Y-64385564D02*
X90959000Y-63931436D01*
X92429000Y-64385564D02*
X92429000Y-63931436D01*
X108735000Y-116342000D02*
X108735000Y-115892000D01*
X108735000Y-109122000D02*
X108735000Y-109572000D01*
X108285000Y-116342000D02*
X108735000Y-116342000D01*
X108285000Y-109122000D02*
X108735000Y-109122000D01*
X101965000Y-116342000D02*
X101515000Y-116342000D01*
X101965000Y-109122000D02*
X101515000Y-109122000D01*
X101515000Y-116342000D02*
X101515000Y-115892000D01*
X101515000Y-109122000D02*
X101515000Y-109572000D01*
X109665000Y-116362000D02*
X108985000Y-116362000D01*
X109325000Y-115892000D01*
X109665000Y-116362000D01*
G36*
X109665000Y-116362000D02*
G01*
X108985000Y-116362000D01*
X109325000Y-115892000D01*
X109665000Y-116362000D01*
G37*
X107950000Y-124881000D02*
X107950000Y-123531000D01*
X109982000Y-124881000D02*
X109982000Y-123531000D01*
D13*
X83146000Y-75834000D02*
X83146000Y-69230000D01*
X83146000Y-66436000D02*
X83146000Y-63896000D01*
X83146000Y-63896000D02*
X74168000Y-63896000D01*
X74168000Y-63896000D02*
X72390000Y-63474000D01*
X73152000Y-77974000D02*
X70104000Y-77974000D01*
X68296000Y-76374000D02*
X68296000Y-69174000D01*
X68072000Y-63474000D02*
X72390000Y-63474000D01*
X68072000Y-63474000D02*
X68072000Y-66436000D01*
D12*
X84326000Y-72009580D02*
X84326000Y-71728420D01*
X85346000Y-72009580D02*
X85346000Y-71728420D01*
X86895000Y-64385564D02*
X86895000Y-63931436D01*
X88365000Y-64385564D02*
X88365000Y-63931436D01*
X87149000Y-68195564D02*
X87149000Y-67741436D01*
X88619000Y-68195564D02*
X88619000Y-67741436D01*
X92991000Y-64385564D02*
X92991000Y-63931436D01*
X94461000Y-64385564D02*
X94461000Y-63931436D01*
X133857000Y-76573000D02*
X133857000Y-74303000D01*
X133857000Y-74303000D02*
X129972000Y-74303000D01*
X129972000Y-76573000D02*
X133857000Y-76573000D01*
X129259064Y-73633000D02*
X128804936Y-73633000D01*
X129259064Y-72163000D02*
X128804936Y-72163000D01*
X128777000Y-76573000D02*
X128777000Y-74303000D01*
X128777000Y-74303000D02*
X124892000Y-74303000D01*
X124892000Y-76573000D02*
X128777000Y-76573000D01*
X90310580Y-86616000D02*
X90029420Y-86616000D01*
X90310580Y-85596000D02*
X90029420Y-85596000D01*
X128996000Y-122876000D02*
X128996000Y-126736000D01*
X128996000Y-122876000D02*
X132116000Y-122876000D01*
X129286000Y-122746000D02*
X129286000Y-122746000D01*
X129286000Y-122746000D02*
X129286000Y-122876000D01*
X129286000Y-122876000D02*
X129286000Y-122746000D01*
X129286000Y-122876000D02*
X129286000Y-122876000D01*
X131826000Y-122746000D02*
X131826000Y-122746000D01*
X131826000Y-122746000D02*
X131826000Y-122876000D01*
X131826000Y-122876000D02*
X131826000Y-122746000D01*
X131826000Y-122876000D02*
X131826000Y-122876000D01*
X132116000Y-122876000D02*
X132116000Y-126736000D01*
X132116000Y-122876000D02*
X132516000Y-122876000D01*
X132116000Y-123996000D02*
X132116000Y-122876000D01*
X132516000Y-122876000D02*
X132516000Y-123996000D01*
X132516000Y-123996000D02*
X132116000Y-123996000D01*
X128996000Y-126736000D02*
G75*
G03*
X132116000Y-126736000I1560000J0D01*
G01*
X89181000Y-68195564D02*
X89181000Y-67741436D01*
X90651000Y-68195564D02*
X90651000Y-67741436D01*
X126211064Y-82777000D02*
X125756936Y-82777000D01*
X126211064Y-81307000D02*
X125756936Y-81307000D01*
X131291064Y-82777000D02*
X130836936Y-82777000D01*
X131291064Y-81307000D02*
X130836936Y-81307000D01*
X99444436Y-73687000D02*
X99898564Y-73687000D01*
X99444436Y-75157000D02*
X99898564Y-75157000D01*
X120777580Y-83822000D02*
X120496420Y-83822000D01*
X120777580Y-82802000D02*
X120496420Y-82802000D01*
X140006800Y-125831020D02*
X140006800Y-126112180D01*
X138986800Y-125831020D02*
X138986800Y-126112180D01*
D10*
X68072000Y-124401000D02*
X68072000Y-106113000D01*
X68072000Y-127576000D02*
X68072000Y-128719000D01*
X68072000Y-128719000D02*
X95250000Y-128719000D01*
X71288000Y-110634000D02*
X71288000Y-115934000D01*
X71288000Y-110634000D02*
X93288000Y-110634000D01*
X71288000Y-115934000D02*
X93288000Y-115934000D01*
X93218000Y-105986000D02*
X93218000Y-108272000D01*
X93218000Y-108272000D02*
X95250000Y-111193000D01*
X93288000Y-110634000D02*
X93288000Y-115934000D01*
X95250000Y-124401000D02*
X95250000Y-111193000D01*
X95250000Y-128719000D02*
X95250000Y-127576000D01*
D12*
X121495000Y-77216000D02*
X121495000Y-75016000D01*
X121495000Y-77216000D02*
X121495000Y-79416000D01*
X114725000Y-77216000D02*
X114725000Y-75016000D01*
X114725000Y-77216000D02*
X114725000Y-79416000D01*
X121035000Y-73356000D02*
X120795000Y-73026000D01*
X121275000Y-73026000D01*
X121035000Y-73356000D01*
G36*
X121035000Y-73356000D02*
G01*
X120795000Y-73026000D01*
X121275000Y-73026000D01*
X121035000Y-73356000D01*
G37*
X112012000Y-113678580D02*
X112012000Y-113397420D01*
X113032000Y-113678580D02*
X113032000Y-113397420D01*
X103758420Y-77722000D02*
X104039580Y-77722000D01*
X103758420Y-78742000D02*
X104039580Y-78742000D01*
X101726420Y-125982000D02*
X102007580Y-125982000D01*
X101726420Y-127002000D02*
X102007580Y-127002000D01*
X93245000Y-68195564D02*
X93245000Y-67741436D01*
X94715000Y-68195564D02*
X94715000Y-67741436D01*
X109854420Y-100582000D02*
X110135580Y-100582000D01*
X109854420Y-101602000D02*
X110135580Y-101602000D01*
X124336436Y-125860500D02*
X124790564Y-125860500D01*
X124336436Y-127330500D02*
X124790564Y-127330500D01*
X142205400Y-116500600D02*
X143535400Y-116500600D01*
X142205400Y-117830600D02*
X142205400Y-116500600D01*
X142205400Y-119100600D02*
X142205400Y-124240600D01*
X142205400Y-119100600D02*
X144805400Y-119100600D01*
X142205400Y-124240600D02*
X147405400Y-124240600D01*
X144805400Y-116500600D02*
X147405400Y-116500600D01*
X144805400Y-119100600D02*
X144805400Y-116500600D01*
X147405400Y-116500600D02*
X147405400Y-124240600D01*
X111762000Y-125602420D02*
X111762000Y-125883580D01*
X110742000Y-125602420D02*
X110742000Y-125883580D01*
X110742000Y-122809580D02*
X110742000Y-122528420D01*
X111762000Y-122809580D02*
X111762000Y-122528420D01*
X135206200Y-125831620D02*
X135206200Y-126112780D01*
X134186200Y-125831620D02*
X134186200Y-126112780D01*
X130328936Y-125860500D02*
X130783064Y-125860500D01*
X130328936Y-127330500D02*
X130783064Y-127330500D01*
X144654000Y-68026000D02*
X147954000Y-68026000D01*
X144654000Y-68026000D02*
X144654000Y-62516000D01*
X147954000Y-68026000D02*
X147954000Y-62516000D01*
X64581000Y-126801000D02*
X63251000Y-126801000D01*
X64581000Y-125471000D02*
X64581000Y-126801000D01*
X64581000Y-124201000D02*
X64581000Y-113981000D01*
X64581000Y-124201000D02*
X61981000Y-124201000D01*
X64581000Y-113981000D02*
X59381000Y-113981000D01*
X61981000Y-126801000D02*
X59381000Y-126801000D01*
X61981000Y-124201000D02*
X61981000Y-126801000D01*
X59381000Y-126801000D02*
X59381000Y-113981000D01*
X125195064Y-73633000D02*
X124740936Y-73633000D01*
X125195064Y-72163000D02*
X124740936Y-72163000D01*
X87050000Y-76385500D02*
X87050000Y-78585500D01*
X87050000Y-76385500D02*
X87050000Y-74185500D01*
X95120000Y-76385500D02*
X95120000Y-78585500D01*
X95120000Y-76385500D02*
X95120000Y-74185500D01*
X87750000Y-80575500D02*
X87270000Y-80575500D01*
X87510000Y-80245500D01*
X87750000Y-80575500D01*
G36*
X87750000Y-80575500D02*
G01*
X87270000Y-80575500D01*
X87510000Y-80245500D01*
X87750000Y-80575500D01*
G37*
X138406600Y-125831620D02*
X138406600Y-126112780D01*
X137386600Y-125831620D02*
X137386600Y-126112780D01*
X88927000Y-64385564D02*
X88927000Y-63931436D01*
X90397000Y-64385564D02*
X90397000Y-63931436D01*
X94534000Y-97300000D02*
X93934000Y-97300000D01*
X93234000Y-96600000D02*
X93234000Y-95200000D01*
X95234000Y-95200000D02*
X95234000Y-96600000D01*
X93934000Y-94500000D02*
X94534000Y-94500000D01*
X93234000Y-96600000D02*
G75*
G03*
X93934000Y-97300000I699999J-1D01*
G01*
X94534000Y-97300000D02*
G75*
G03*
X95234000Y-96600000I1J699999D01*
G01*
X93934000Y-94500000D02*
G75*
G03*
X93234000Y-95200000I0J-700000D01*
G01*
X95234000Y-95200000D02*
G75*
G03*
X94534000Y-94500000I-700000J0D01*
G01*
X101608000Y-72454000D02*
X102608000Y-72454000D01*
X102608000Y-72454000D02*
X102108000Y-71454000D01*
X102108000Y-71454000D02*
X101608000Y-72454000D01*
X96898000Y-65834000D02*
X96898000Y-56714000D01*
X111488000Y-65834000D02*
X111488000Y-56714000D01*
X115588000Y-65834000D02*
X115588000Y-56714000D01*
X130178000Y-65834000D02*
X96898000Y-65834000D01*
X96898000Y-56714000D02*
X130178000Y-56714000D01*
X130178000Y-56714000D02*
X130178000Y-65834000D01*
%LPC*%
D14*
X142240000Y-92153000D03*
X142240000Y-89203000D03*
D15*
X146050000Y-71628000D03*
D16*
X148050000Y-71628000D03*
D17*
X58674000Y-86106000D03*
D18*
X58674000Y-83566000D03*
X61214000Y-86106000D03*
X61214000Y-83566000D03*
X63754000Y-86106000D03*
X63754000Y-83566000D03*
X66294000Y-86106000D03*
X66294000Y-83566000D03*
X68834000Y-86106000D03*
X68834000Y-83566000D03*
D19*
X70104000Y-89408000D03*
X71929000Y-89408000D03*
X66294000Y-89408000D03*
X68119000Y-89408000D03*
X67159500Y-80772000D03*
X68984500Y-80772000D03*
D20*
X117348000Y-93218000D03*
X117348000Y-91668000D03*
D21*
X109474000Y-78232000D03*
X111024000Y-78232000D03*
D22*
X94742000Y-89916000D03*
X94742000Y-91466000D03*
D20*
X117348000Y-89916000D03*
X117348000Y-88366000D03*
X94742000Y-87884000D03*
X94742000Y-86334000D03*
D23*
X142494000Y-110998000D03*
X142494000Y-76962000D03*
D24*
X148590000Y-106186000D03*
X148590000Y-103886000D03*
D25*
X142290000Y-103886000D03*
D24*
X148590000Y-101586000D03*
D26*
X136412000Y-89662000D03*
X134112000Y-89662000D03*
D27*
X134112000Y-95962000D03*
D26*
X131812000Y-89662000D03*
D14*
X141224000Y-98708000D03*
X141224000Y-95758000D03*
D28*
X137873000Y-99060000D03*
X134923000Y-99060000D03*
D29*
X86868000Y-89154000D03*
X86868000Y-94234000D03*
X91068000Y-94234000D03*
X91068000Y-89154000D03*
D21*
X101587000Y-101092000D03*
X103137000Y-101092000D03*
D23*
X64516000Y-76962000D03*
X64516000Y-110998000D03*
D30*
X137922000Y-70358000D03*
D31*
X137922000Y-64358000D03*
D32*
X133222000Y-67358000D03*
D21*
X135864000Y-111760000D03*
X137414000Y-111760000D03*
X77470000Y-81280000D03*
X79020000Y-81280000D03*
D33*
X98509500Y-83916000D03*
X98509500Y-84416000D03*
X98509500Y-84916000D03*
X98509500Y-85416000D03*
X98509500Y-85916000D03*
X98509500Y-86416000D03*
X98509500Y-86916000D03*
X98509500Y-87416000D03*
X98509500Y-87916000D03*
X98509500Y-88416000D03*
X98509500Y-88916000D03*
X98509500Y-89416000D03*
X98509500Y-89916000D03*
X98509500Y-90416000D03*
X98509500Y-90916000D03*
X98509500Y-91416000D03*
X98509500Y-91916000D03*
X98509500Y-92416000D03*
X98509500Y-92916000D03*
X98509500Y-93416000D03*
X98509500Y-93916000D03*
X98509500Y-94416000D03*
X98509500Y-94916000D03*
X98509500Y-95416000D03*
X98509500Y-95916000D03*
D34*
X100172000Y-97578500D03*
X100672000Y-97578500D03*
X101172000Y-97578500D03*
X101672000Y-97578500D03*
X102172000Y-97578500D03*
X102672000Y-97578500D03*
X103172000Y-97578500D03*
X103672000Y-97578500D03*
X104172000Y-97578500D03*
X104672000Y-97578500D03*
X105172000Y-97578500D03*
X105672000Y-97578500D03*
X106172000Y-97578500D03*
X106672000Y-97578500D03*
X107172000Y-97578500D03*
X107672000Y-97578500D03*
X108172000Y-97578500D03*
X108672000Y-97578500D03*
X109172000Y-97578500D03*
X109672000Y-97578500D03*
X110172000Y-97578500D03*
X110672000Y-97578500D03*
X111172000Y-97578500D03*
X111672000Y-97578500D03*
X112172000Y-97578500D03*
D33*
X113834500Y-95916000D03*
X113834500Y-95416000D03*
X113834500Y-94916000D03*
X113834500Y-94416000D03*
X113834500Y-93916000D03*
X113834500Y-93416000D03*
X113834500Y-92916000D03*
X113834500Y-92416000D03*
X113834500Y-91916000D03*
X113834500Y-91416000D03*
X113834500Y-90916000D03*
X113834500Y-90416000D03*
X113834500Y-89916000D03*
X113834500Y-89416000D03*
X113834500Y-88916000D03*
X113834500Y-88416000D03*
X113834500Y-87916000D03*
X113834500Y-87416000D03*
X113834500Y-86916000D03*
X113834500Y-86416000D03*
X113834500Y-85916000D03*
X113834500Y-85416000D03*
X113834500Y-84916000D03*
X113834500Y-84416000D03*
X113834500Y-83916000D03*
D34*
X112172000Y-82253500D03*
X111672000Y-82253500D03*
X111172000Y-82253500D03*
X110672000Y-82253500D03*
X110172000Y-82253500D03*
X109672000Y-82253500D03*
X109172000Y-82253500D03*
X108672000Y-82253500D03*
X108172000Y-82253500D03*
X107672000Y-82253500D03*
X107172000Y-82253500D03*
X106672000Y-82253500D03*
X106172000Y-82253500D03*
X105672000Y-82253500D03*
X105172000Y-82253500D03*
X104672000Y-82253500D03*
X104172000Y-82253500D03*
X103672000Y-82253500D03*
X103172000Y-82253500D03*
X102672000Y-82253500D03*
X102172000Y-82253500D03*
X101672000Y-82253500D03*
X101172000Y-82253500D03*
X100672000Y-82253500D03*
X100172000Y-82253500D03*
D35*
X105797000Y-124458000D03*
X105797000Y-123958000D03*
X105797000Y-123458000D03*
X105797000Y-122958000D03*
X105797000Y-122458000D03*
X101397000Y-122458000D03*
X101397000Y-122958000D03*
X101397000Y-123458000D03*
X101397000Y-123958000D03*
X101397000Y-124458000D03*
D24*
X148692000Y-86374000D03*
X148692000Y-84074000D03*
D25*
X142392000Y-84074000D03*
D24*
X148692000Y-81774000D03*
D21*
X86855000Y-82550000D03*
X88405000Y-82550000D03*
D36*
X123444000Y-121666000D03*
D37*
X125984000Y-121666000D03*
D22*
X136296400Y-125196600D03*
X136296400Y-126746600D03*
D17*
X60706000Y-102108000D03*
D18*
X63246000Y-102108000D03*
D21*
X81280000Y-100076000D03*
X82830000Y-100076000D03*
D38*
X91948000Y-68881000D03*
X91948000Y-67056000D03*
D39*
X130114000Y-79677500D03*
X132014000Y-79677500D03*
X131064000Y-77802500D03*
X125034000Y-79677500D03*
X126934000Y-79677500D03*
X125984000Y-77802500D03*
D40*
X135570800Y-121226500D03*
X136220800Y-121226500D03*
X136870800Y-121226500D03*
X137520800Y-121226500D03*
X138170800Y-121226500D03*
X138820800Y-121226500D03*
X139470800Y-121226500D03*
X140120800Y-121226500D03*
X140120800Y-115501500D03*
X139470800Y-115501500D03*
X138820800Y-115501500D03*
X138170800Y-115501500D03*
X137520800Y-115501500D03*
X136870800Y-115501500D03*
X136220800Y-115501500D03*
X135570800Y-115501500D03*
D38*
X91694000Y-65071000D03*
X91694000Y-63246000D03*
D41*
X109287500Y-115482000D03*
X109287500Y-114982000D03*
X109287500Y-114482000D03*
X109287500Y-113982000D03*
X109287500Y-113482000D03*
X109287500Y-112982000D03*
X109287500Y-112482000D03*
X109287500Y-111982000D03*
X109287500Y-111482000D03*
X109287500Y-110982000D03*
X109287500Y-110482000D03*
X109287500Y-109982000D03*
D42*
X107875000Y-108569500D03*
X107375000Y-108569500D03*
X106875000Y-108569500D03*
X106375000Y-108569500D03*
X105875000Y-108569500D03*
X105375000Y-108569500D03*
X104875000Y-108569500D03*
X104375000Y-108569500D03*
X103875000Y-108569500D03*
X103375000Y-108569500D03*
X102875000Y-108569500D03*
X102375000Y-108569500D03*
D41*
X100962500Y-109982000D03*
X100962500Y-110482000D03*
X100962500Y-110982000D03*
X100962500Y-111482000D03*
X100962500Y-111982000D03*
X100962500Y-112482000D03*
X100962500Y-112982000D03*
X100962500Y-113482000D03*
X100962500Y-113982000D03*
X100962500Y-114482000D03*
X100962500Y-114982000D03*
X100962500Y-115482000D03*
D42*
X102375000Y-116894500D03*
X102875000Y-116894500D03*
X103375000Y-116894500D03*
X103875000Y-116894500D03*
X104375000Y-116894500D03*
X104875000Y-116894500D03*
X105375000Y-116894500D03*
X105875000Y-116894500D03*
X106375000Y-116894500D03*
X106875000Y-116894500D03*
X107375000Y-116894500D03*
X107875000Y-116894500D03*
D43*
X108966000Y-122956000D03*
X108966000Y-125456000D03*
D44*
X80896000Y-67374000D03*
X72896000Y-67374000D03*
D45*
X73746000Y-78374000D03*
X74846000Y-78374000D03*
X75946000Y-78374000D03*
X77046000Y-78374000D03*
X78146000Y-78374000D03*
X79246000Y-78374000D03*
X80346000Y-78374000D03*
X81446000Y-78374000D03*
X82546000Y-78374000D03*
D46*
X83746000Y-77074000D03*
D47*
X83746000Y-67774000D03*
D48*
X69096000Y-77324000D03*
D47*
X68246000Y-67774000D03*
D20*
X84836000Y-72644000D03*
X84836000Y-71094000D03*
D38*
X87630000Y-65071000D03*
X87630000Y-63246000D03*
X87884000Y-68881000D03*
X87884000Y-67056000D03*
X93726000Y-65071000D03*
X93726000Y-63246000D03*
D49*
X132972000Y-75438000D03*
X130172000Y-75438000D03*
D50*
X129944500Y-72898000D03*
X128119500Y-72898000D03*
D49*
X127892000Y-75438000D03*
X125092000Y-75438000D03*
D51*
X90945000Y-86106000D03*
X89395000Y-86106000D03*
D36*
X129286000Y-121666000D03*
D37*
X131826000Y-121666000D03*
D38*
X89916000Y-68881000D03*
X89916000Y-67056000D03*
D50*
X126896500Y-82042000D03*
X125071500Y-82042000D03*
X131976500Y-82042000D03*
X130151500Y-82042000D03*
D19*
X98759000Y-74422000D03*
X100584000Y-74422000D03*
D51*
X121412000Y-83312000D03*
X119862000Y-83312000D03*
D22*
X139496800Y-125196600D03*
X139496800Y-126746600D03*
D52*
X70288000Y-105484000D03*
D16*
X91288000Y-105484000D03*
D53*
X88663000Y-102684000D03*
X86163000Y-102684000D03*
X83663000Y-102684000D03*
X81163000Y-102684000D03*
X78663000Y-102684000D03*
X76163000Y-102684000D03*
X73738000Y-102684000D03*
X72038000Y-102684000D03*
X91163000Y-102684000D03*
D54*
X70738000Y-102684000D03*
X69538000Y-102684000D03*
D55*
X68138000Y-104484000D03*
X93238000Y-104484000D03*
X68138000Y-125984000D03*
X95438000Y-125984000D03*
D56*
X121035000Y-74353500D03*
X120385000Y-74353500D03*
X119735000Y-74353500D03*
X119085000Y-74353500D03*
X118435000Y-74353500D03*
X117785000Y-74353500D03*
X117135000Y-74353500D03*
X116485000Y-74353500D03*
X115835000Y-74353500D03*
X115185000Y-74353500D03*
X115185000Y-80078500D03*
X115835000Y-80078500D03*
X116485000Y-80078500D03*
X117135000Y-80078500D03*
X117785000Y-80078500D03*
X118435000Y-80078500D03*
X119085000Y-80078500D03*
X119735000Y-80078500D03*
X120385000Y-80078500D03*
X121035000Y-80078500D03*
D20*
X112522000Y-114313000D03*
X112522000Y-112763000D03*
D21*
X103124000Y-78232000D03*
X104674000Y-78232000D03*
X101092000Y-126492000D03*
X102642000Y-126492000D03*
D38*
X93980000Y-68881000D03*
X93980000Y-67056000D03*
D21*
X109220000Y-101092000D03*
X110770000Y-101092000D03*
D19*
X123651000Y-126595500D03*
X125476000Y-126595500D03*
D17*
X143535400Y-117830600D03*
D18*
X146075400Y-117830600D03*
X143535400Y-120370600D03*
X146075400Y-120370600D03*
X143535400Y-122910600D03*
X146075400Y-122910600D03*
D22*
X111252000Y-124968000D03*
X111252000Y-126518000D03*
D20*
X111252000Y-123444000D03*
X111252000Y-121894000D03*
D22*
X134696200Y-125197200D03*
X134696200Y-126747200D03*
D19*
X129643500Y-126595500D03*
X131468500Y-126595500D03*
D57*
X146304000Y-66516000D03*
X146304000Y-62516000D03*
D17*
X63251000Y-125471000D03*
D18*
X60711000Y-125471000D03*
X63251000Y-122931000D03*
X60711000Y-122931000D03*
X63251000Y-120391000D03*
X60711000Y-120391000D03*
X63251000Y-117851000D03*
X60711000Y-117851000D03*
X63251000Y-115311000D03*
X60711000Y-115311000D03*
D50*
X125880500Y-72898000D03*
X124055500Y-72898000D03*
D40*
X87510000Y-79248000D03*
X88160000Y-79248000D03*
X88810000Y-79248000D03*
X89460000Y-79248000D03*
X90110000Y-79248000D03*
X90760000Y-79248000D03*
X91410000Y-79248000D03*
X92060000Y-79248000D03*
X92710000Y-79248000D03*
X93360000Y-79248000D03*
X94010000Y-79248000D03*
X94660000Y-79248000D03*
X94660000Y-73523000D03*
X94010000Y-73523000D03*
X93360000Y-73523000D03*
X92710000Y-73523000D03*
X92060000Y-73523000D03*
X91410000Y-73523000D03*
X90760000Y-73523000D03*
X90110000Y-73523000D03*
X89460000Y-73523000D03*
X88810000Y-73523000D03*
X88160000Y-73523000D03*
X87510000Y-73523000D03*
D22*
X137896600Y-125197200D03*
X137896600Y-126747200D03*
D38*
X89662000Y-65071000D03*
X89662000Y-63246000D03*
D58*
X94234000Y-96550000D03*
D59*
X94234000Y-95250000D03*
D60*
X102108000Y-70104000D03*
D61*
X104648000Y-70104000D03*
X107188000Y-70104000D03*
X109728000Y-70104000D03*
X112268000Y-70104000D03*
X114808000Y-70104000D03*
X117348000Y-70104000D03*
X119888000Y-70104000D03*
X122428000Y-70104000D03*
X124968000Y-70104000D03*
X102108000Y-67564000D03*
X104648000Y-67564000D03*
X107188000Y-67564000D03*
X109728000Y-67564000D03*
X112268000Y-67564000D03*
X114808000Y-67564000D03*
X117348000Y-67564000D03*
X119888000Y-67564000D03*
X122428000Y-67564000D03*
X124968000Y-67564000D03*
%LPD*%
M02*
