G04 #@! TF.GenerationSoftware,KiCad,Pcbnew,8.0.7-8.0.7-0~ubuntu24.04.1*
G04 #@! TF.CreationDate,2024-12-17T21:42:42+11:00*
G04 #@! TF.ProjectId,AtariHDisk4,41746172-6948-4446-9973-6b342e6b6963,rev?*
G04 #@! TF.SameCoordinates,Original*
G04 #@! TF.FileFunction,Copper,L1,Top*
G04 #@! TF.FilePolarity,Positive*
%FSLAX46Y46*%
G04 Gerber Fmt 4.6, Leading zero omitted, Abs format (unit mm)*
G04 Created by KiCad (PCBNEW 8.0.7-8.0.7-0~ubuntu24.04.1) date 2024-12-17 21:42:42*
%MOMM*%
%LPD*%
G01*
G04 APERTURE LIST*
G04 Aperture macros list*
%AMRoundRect*
0 Rectangle with rounded corners*
0 $1 Rounding radius*
0 $2 $3 $4 $5 $6 $7 $8 $9 X,Y pos of 4 corners*
0 Add a 4 corners polygon primitive as box body*
4,1,4,$2,$3,$4,$5,$6,$7,$8,$9,$2,$3,0*
0 Add four circle primitives for the rounded corners*
1,1,$1+$1,$2,$3*
1,1,$1+$1,$4,$5*
1,1,$1+$1,$6,$7*
1,1,$1+$1,$8,$9*
0 Add four rect primitives between the rounded corners*
20,1,$1+$1,$2,$3,$4,$5,0*
20,1,$1+$1,$4,$5,$6,$7,0*
20,1,$1+$1,$6,$7,$8,$9,0*
20,1,$1+$1,$8,$9,$2,$3,0*%
%AMFreePoly0*
4,1,19,0.500000,-0.750000,0.000000,-0.750000,0.000000,-0.744911,-0.071157,-0.744911,-0.207708,-0.704816,-0.327430,-0.627875,-0.420627,-0.520320,-0.479746,-0.390866,-0.500000,-0.250000,-0.500000,0.250000,-0.479746,0.390866,-0.420627,0.520320,-0.327430,0.627875,-0.207708,0.704816,-0.071157,0.744911,0.000000,0.744911,0.000000,0.750000,0.500000,0.750000,0.500000,-0.750000,0.500000,-0.750000,
$1*%
%AMFreePoly1*
4,1,19,0.000000,0.744911,0.071157,0.744911,0.207708,0.704816,0.327430,0.627875,0.420627,0.520320,0.479746,0.390866,0.500000,0.250000,0.500000,-0.250000,0.479746,-0.390866,0.420627,-0.520320,0.327430,-0.627875,0.207708,-0.704816,0.071157,-0.744911,0.000000,-0.744911,0.000000,-0.750000,-0.500000,-0.750000,-0.500000,0.750000,0.000000,0.750000,0.000000,0.744911,0.000000,0.744911,
$1*%
G04 Aperture macros list end*
G04 #@! TA.AperFunction,SMDPad,CuDef*
%ADD10RoundRect,0.250000X0.650000X-0.325000X0.650000X0.325000X-0.650000X0.325000X-0.650000X-0.325000X0*%
G04 #@! TD*
G04 #@! TA.AperFunction,ComponentPad*
%ADD11R,1.600000X1.600000*%
G04 #@! TD*
G04 #@! TA.AperFunction,ComponentPad*
%ADD12C,1.600000*%
G04 #@! TD*
G04 #@! TA.AperFunction,ComponentPad*
%ADD13R,1.700000X1.700000*%
G04 #@! TD*
G04 #@! TA.AperFunction,ComponentPad*
%ADD14O,1.700000X1.700000*%
G04 #@! TD*
G04 #@! TA.AperFunction,SMDPad,CuDef*
%ADD15RoundRect,0.250000X-0.262500X-0.450000X0.262500X-0.450000X0.262500X0.450000X-0.262500X0.450000X0*%
G04 #@! TD*
G04 #@! TA.AperFunction,SMDPad,CuDef*
%ADD16RoundRect,0.225000X0.250000X-0.225000X0.250000X0.225000X-0.250000X0.225000X-0.250000X-0.225000X0*%
G04 #@! TD*
G04 #@! TA.AperFunction,SMDPad,CuDef*
%ADD17RoundRect,0.225000X-0.225000X-0.250000X0.225000X-0.250000X0.225000X0.250000X-0.225000X0.250000X0*%
G04 #@! TD*
G04 #@! TA.AperFunction,SMDPad,CuDef*
%ADD18RoundRect,0.225000X-0.250000X0.225000X-0.250000X-0.225000X0.250000X-0.225000X0.250000X0.225000X0*%
G04 #@! TD*
G04 #@! TA.AperFunction,SMDPad,CuDef*
%ADD19RoundRect,0.375000X0.625000X0.375000X-0.625000X0.375000X-0.625000X-0.375000X0.625000X-0.375000X0*%
G04 #@! TD*
G04 #@! TA.AperFunction,SMDPad,CuDef*
%ADD20RoundRect,0.500000X0.500000X1.400000X-0.500000X1.400000X-0.500000X-1.400000X0.500000X-1.400000X0*%
G04 #@! TD*
G04 #@! TA.AperFunction,SMDPad,CuDef*
%ADD21RoundRect,0.375000X-0.375000X0.625000X-0.375000X-0.625000X0.375000X-0.625000X0.375000X0.625000X0*%
G04 #@! TD*
G04 #@! TA.AperFunction,SMDPad,CuDef*
%ADD22RoundRect,0.500000X-1.400000X0.500000X-1.400000X-0.500000X1.400000X-0.500000X1.400000X0.500000X0*%
G04 #@! TD*
G04 #@! TA.AperFunction,SMDPad,CuDef*
%ADD23RoundRect,0.250000X-0.650000X0.325000X-0.650000X-0.325000X0.650000X-0.325000X0.650000X0.325000X0*%
G04 #@! TD*
G04 #@! TA.AperFunction,SMDPad,CuDef*
%ADD24R,2.000000X1.800000*%
G04 #@! TD*
G04 #@! TA.AperFunction,ComponentPad*
%ADD25R,3.500000X3.500000*%
G04 #@! TD*
G04 #@! TA.AperFunction,ComponentPad*
%ADD26RoundRect,0.750000X-1.000000X0.750000X-1.000000X-0.750000X1.000000X-0.750000X1.000000X0.750000X0*%
G04 #@! TD*
G04 #@! TA.AperFunction,ComponentPad*
%ADD27RoundRect,0.875000X-0.875000X0.875000X-0.875000X-0.875000X0.875000X-0.875000X0.875000X0.875000X0*%
G04 #@! TD*
G04 #@! TA.AperFunction,SMDPad,CuDef*
%ADD28RoundRect,0.075000X-0.662500X-0.075000X0.662500X-0.075000X0.662500X0.075000X-0.662500X0.075000X0*%
G04 #@! TD*
G04 #@! TA.AperFunction,SMDPad,CuDef*
%ADD29RoundRect,0.075000X-0.075000X-0.662500X0.075000X-0.662500X0.075000X0.662500X-0.075000X0.662500X0*%
G04 #@! TD*
G04 #@! TA.AperFunction,SMDPad,CuDef*
%ADD30RoundRect,0.087500X0.725000X0.087500X-0.725000X0.087500X-0.725000X-0.087500X0.725000X-0.087500X0*%
G04 #@! TD*
G04 #@! TA.AperFunction,ComponentPad*
%ADD31R,1.800000X1.800000*%
G04 #@! TD*
G04 #@! TA.AperFunction,ComponentPad*
%ADD32C,1.800000*%
G04 #@! TD*
G04 #@! TA.AperFunction,SMDPad,CuDef*
%ADD33RoundRect,0.250000X-0.325000X-0.650000X0.325000X-0.650000X0.325000X0.650000X-0.325000X0.650000X0*%
G04 #@! TD*
G04 #@! TA.AperFunction,SMDPad,CuDef*
%ADD34RoundRect,0.250000X0.450000X-0.262500X0.450000X0.262500X-0.450000X0.262500X-0.450000X-0.262500X0*%
G04 #@! TD*
G04 #@! TA.AperFunction,SMDPad,CuDef*
%ADD35RoundRect,0.150000X0.150000X-0.587500X0.150000X0.587500X-0.150000X0.587500X-0.150000X-0.587500X0*%
G04 #@! TD*
G04 #@! TA.AperFunction,SMDPad,CuDef*
%ADD36RoundRect,0.100000X0.100000X-0.637500X0.100000X0.637500X-0.100000X0.637500X-0.100000X-0.637500X0*%
G04 #@! TD*
G04 #@! TA.AperFunction,SMDPad,CuDef*
%ADD37RoundRect,0.075000X0.662500X0.075000X-0.662500X0.075000X-0.662500X-0.075000X0.662500X-0.075000X0*%
G04 #@! TD*
G04 #@! TA.AperFunction,SMDPad,CuDef*
%ADD38RoundRect,0.075000X0.075000X0.662500X-0.075000X0.662500X-0.075000X-0.662500X0.075000X-0.662500X0*%
G04 #@! TD*
G04 #@! TA.AperFunction,SMDPad,CuDef*
%ADD39R,1.900000X1.100000*%
G04 #@! TD*
G04 #@! TA.AperFunction,SMDPad,CuDef*
%ADD40R,0.700000X1.600000*%
G04 #@! TD*
G04 #@! TA.AperFunction,SMDPad,CuDef*
%ADD41R,1.200000X1.800000*%
G04 #@! TD*
G04 #@! TA.AperFunction,SMDPad,CuDef*
%ADD42R,1.200000X2.200000*%
G04 #@! TD*
G04 #@! TA.AperFunction,SMDPad,CuDef*
%ADD43R,1.600000X1.500000*%
G04 #@! TD*
G04 #@! TA.AperFunction,SMDPad,CuDef*
%ADD44RoundRect,0.250000X0.375000X0.625000X-0.375000X0.625000X-0.375000X-0.625000X0.375000X-0.625000X0*%
G04 #@! TD*
G04 #@! TA.AperFunction,SMDPad,CuDef*
%ADD45RoundRect,0.250000X0.262500X0.450000X-0.262500X0.450000X-0.262500X-0.450000X0.262500X-0.450000X0*%
G04 #@! TD*
G04 #@! TA.AperFunction,SMDPad,CuDef*
%ADD46RoundRect,0.225000X0.225000X0.250000X-0.225000X0.250000X-0.225000X-0.250000X0.225000X-0.250000X0*%
G04 #@! TD*
G04 #@! TA.AperFunction,SMDPad,CuDef*
%ADD47R,1.000000X1.500000*%
G04 #@! TD*
G04 #@! TA.AperFunction,SMDPad,CuDef*
%ADD48R,0.700000X1.500000*%
G04 #@! TD*
G04 #@! TA.AperFunction,ConnectorPad*
%ADD49R,1.500000X2.800000*%
G04 #@! TD*
G04 #@! TA.AperFunction,SMDPad,CuDef*
%ADD50RoundRect,0.100000X-0.100000X0.637500X-0.100000X-0.637500X0.100000X-0.637500X0.100000X0.637500X0*%
G04 #@! TD*
G04 #@! TA.AperFunction,SMDPad,CuDef*
%ADD51RoundRect,0.250000X-0.450000X0.262500X-0.450000X-0.262500X0.450000X-0.262500X0.450000X0.262500X0*%
G04 #@! TD*
G04 #@! TA.AperFunction,SMDPad,CuDef*
%ADD52RoundRect,0.250000X0.650000X-1.000000X0.650000X1.000000X-0.650000X1.000000X-0.650000X-1.000000X0*%
G04 #@! TD*
G04 #@! TA.AperFunction,SMDPad,CuDef*
%ADD53FreePoly0,90.000000*%
G04 #@! TD*
G04 #@! TA.AperFunction,SMDPad,CuDef*
%ADD54FreePoly1,90.000000*%
G04 #@! TD*
G04 #@! TA.AperFunction,ComponentPad*
%ADD55RoundRect,0.250000X0.600000X-0.600000X0.600000X0.600000X-0.600000X0.600000X-0.600000X-0.600000X0*%
G04 #@! TD*
G04 #@! TA.AperFunction,ComponentPad*
%ADD56C,1.700000*%
G04 #@! TD*
G04 #@! TA.AperFunction,ViaPad*
%ADD57C,0.800000*%
G04 #@! TD*
G04 #@! TA.AperFunction,Conductor*
%ADD58C,0.300000*%
G04 #@! TD*
G04 #@! TA.AperFunction,Conductor*
%ADD59C,0.800000*%
G04 #@! TD*
G04 #@! TA.AperFunction,Conductor*
%ADD60C,0.250000*%
G04 #@! TD*
G04 #@! TA.AperFunction,Conductor*
%ADD61C,0.200000*%
G04 #@! TD*
G04 APERTURE END LIST*
D10*
X142240000Y-92153000D03*
X142240000Y-89203000D03*
D11*
X146050000Y-71900000D03*
D12*
X148550000Y-71900000D03*
D13*
X58674000Y-86106000D03*
D14*
X58674000Y-83566000D03*
X61214000Y-86106000D03*
X61214000Y-83566000D03*
X63754000Y-86106000D03*
X63754000Y-83566000D03*
X66294000Y-86106000D03*
X66294000Y-83566000D03*
X68834000Y-86106000D03*
X68834000Y-83566000D03*
D15*
X70104000Y-89408000D03*
X71929000Y-89408000D03*
X66294000Y-89408000D03*
X68119000Y-89408000D03*
X67159500Y-80772000D03*
X68984500Y-80772000D03*
D16*
X117348000Y-93218000D03*
X117348000Y-91668000D03*
D17*
X109474000Y-78232000D03*
X111024000Y-78232000D03*
D18*
X94742000Y-89916000D03*
X94742000Y-91466000D03*
D16*
X117348000Y-89916000D03*
X117348000Y-88366000D03*
X94742000Y-87884000D03*
X94742000Y-86334000D03*
D19*
X148590000Y-106186000D03*
X148590000Y-103886000D03*
D20*
X142290000Y-103886000D03*
D19*
X148590000Y-101586000D03*
D21*
X136300000Y-88550000D03*
X134000000Y-88550000D03*
D22*
X134000000Y-94850000D03*
D21*
X131700000Y-88550000D03*
D10*
X141400000Y-98708000D03*
X141400000Y-95758000D03*
D23*
X137400000Y-97350000D03*
X137400000Y-100300000D03*
D24*
X86868000Y-89154000D03*
X86868000Y-94234000D03*
X91068000Y-94234000D03*
X91068000Y-89154000D03*
D17*
X101587000Y-101092000D03*
X103137000Y-101092000D03*
D25*
X137922000Y-70358000D03*
D26*
X137922000Y-64358000D03*
D27*
X133222000Y-67358000D03*
D17*
X135864000Y-111760000D03*
X137414000Y-111760000D03*
D28*
X98509500Y-83916000D03*
X98509500Y-84416000D03*
X98509500Y-84916000D03*
X98509500Y-85416000D03*
X98509500Y-85916000D03*
X98509500Y-86416000D03*
X98509500Y-86916000D03*
X98509500Y-87416000D03*
X98509500Y-87916000D03*
X98509500Y-88416000D03*
X98509500Y-88916000D03*
X98509500Y-89416000D03*
X98509500Y-89916000D03*
X98509500Y-90416000D03*
X98509500Y-90916000D03*
X98509500Y-91416000D03*
X98509500Y-91916000D03*
X98509500Y-92416000D03*
X98509500Y-92916000D03*
X98509500Y-93416000D03*
X98509500Y-93916000D03*
X98509500Y-94416000D03*
X98509500Y-94916000D03*
X98509500Y-95416000D03*
X98509500Y-95916000D03*
D29*
X100172000Y-97578500D03*
X100672000Y-97578500D03*
X101172000Y-97578500D03*
X101672000Y-97578500D03*
X102172000Y-97578500D03*
X102672000Y-97578500D03*
X103172000Y-97578500D03*
X103672000Y-97578500D03*
X104172000Y-97578500D03*
X104672000Y-97578500D03*
X105172000Y-97578500D03*
X105672000Y-97578500D03*
X106172000Y-97578500D03*
X106672000Y-97578500D03*
X107172000Y-97578500D03*
X107672000Y-97578500D03*
X108172000Y-97578500D03*
X108672000Y-97578500D03*
X109172000Y-97578500D03*
X109672000Y-97578500D03*
X110172000Y-97578500D03*
X110672000Y-97578500D03*
X111172000Y-97578500D03*
X111672000Y-97578500D03*
X112172000Y-97578500D03*
D28*
X113834500Y-95916000D03*
X113834500Y-95416000D03*
X113834500Y-94916000D03*
X113834500Y-94416000D03*
X113834500Y-93916000D03*
X113834500Y-93416000D03*
X113834500Y-92916000D03*
X113834500Y-92416000D03*
X113834500Y-91916000D03*
X113834500Y-91416000D03*
X113834500Y-90916000D03*
X113834500Y-90416000D03*
X113834500Y-89916000D03*
X113834500Y-89416000D03*
X113834500Y-88916000D03*
X113834500Y-88416000D03*
X113834500Y-87916000D03*
X113834500Y-87416000D03*
X113834500Y-86916000D03*
X113834500Y-86416000D03*
X113834500Y-85916000D03*
X113834500Y-85416000D03*
X113834500Y-84916000D03*
X113834500Y-84416000D03*
X113834500Y-83916000D03*
D29*
X112172000Y-82253500D03*
X111672000Y-82253500D03*
X111172000Y-82253500D03*
X110672000Y-82253500D03*
X110172000Y-82253500D03*
X109672000Y-82253500D03*
X109172000Y-82253500D03*
X108672000Y-82253500D03*
X108172000Y-82253500D03*
X107672000Y-82253500D03*
X107172000Y-82253500D03*
X106672000Y-82253500D03*
X106172000Y-82253500D03*
X105672000Y-82253500D03*
X105172000Y-82253500D03*
X104672000Y-82253500D03*
X104172000Y-82253500D03*
X103672000Y-82253500D03*
X103172000Y-82253500D03*
X102672000Y-82253500D03*
X102172000Y-82253500D03*
X101672000Y-82253500D03*
X101172000Y-82253500D03*
X100672000Y-82253500D03*
X100172000Y-82253500D03*
D30*
X105709500Y-124458000D03*
X105709500Y-123958000D03*
X105709500Y-123458000D03*
X105709500Y-122958000D03*
X105709500Y-122458000D03*
X101484500Y-122458000D03*
X101484500Y-122958000D03*
X101484500Y-123458000D03*
X101484500Y-123958000D03*
X101484500Y-124458000D03*
D19*
X148692000Y-86374000D03*
X148692000Y-84074000D03*
D20*
X142392000Y-84074000D03*
D19*
X148692000Y-81774000D03*
D17*
X86855000Y-82550000D03*
X88405000Y-82550000D03*
D31*
X123444000Y-121666000D03*
D32*
X125984000Y-121666000D03*
D33*
X127225000Y-97600000D03*
X130175000Y-97600000D03*
D18*
X136296400Y-125196600D03*
X136296400Y-126746600D03*
D13*
X60706000Y-102108000D03*
D14*
X63246000Y-102108000D03*
D17*
X77450000Y-81300000D03*
X79000000Y-81300000D03*
X82725000Y-100500000D03*
X84275000Y-100500000D03*
D34*
X91948000Y-68881000D03*
X91948000Y-67056000D03*
D35*
X132050000Y-79737500D03*
X133950000Y-79737500D03*
X133000000Y-77862500D03*
X125350000Y-79677500D03*
X127250000Y-79677500D03*
X126300000Y-77802500D03*
D36*
X135570800Y-121226500D03*
X136220800Y-121226500D03*
X136870800Y-121226500D03*
X137520800Y-121226500D03*
X138170800Y-121226500D03*
X138820800Y-121226500D03*
X139470800Y-121226500D03*
X140120800Y-121226500D03*
X140120800Y-115501500D03*
X139470800Y-115501500D03*
X138820800Y-115501500D03*
X138170800Y-115501500D03*
X137520800Y-115501500D03*
X136870800Y-115501500D03*
X136220800Y-115501500D03*
X135570800Y-115501500D03*
D11*
X73800000Y-94200000D03*
D12*
X71300000Y-94200000D03*
D34*
X91694000Y-65071000D03*
X91694000Y-63246000D03*
D37*
X109287500Y-115482000D03*
X109287500Y-114982000D03*
X109287500Y-114482000D03*
X109287500Y-113982000D03*
X109287500Y-113482000D03*
X109287500Y-112982000D03*
X109287500Y-112482000D03*
X109287500Y-111982000D03*
X109287500Y-111482000D03*
X109287500Y-110982000D03*
X109287500Y-110482000D03*
X109287500Y-109982000D03*
D38*
X107875000Y-108569500D03*
X107375000Y-108569500D03*
X106875000Y-108569500D03*
X106375000Y-108569500D03*
X105875000Y-108569500D03*
X105375000Y-108569500D03*
X104875000Y-108569500D03*
X104375000Y-108569500D03*
X103875000Y-108569500D03*
X103375000Y-108569500D03*
X102875000Y-108569500D03*
X102375000Y-108569500D03*
D37*
X100962500Y-109982000D03*
X100962500Y-110482000D03*
X100962500Y-110982000D03*
X100962500Y-111482000D03*
X100962500Y-111982000D03*
X100962500Y-112482000D03*
X100962500Y-112982000D03*
X100962500Y-113482000D03*
X100962500Y-113982000D03*
X100962500Y-114482000D03*
X100962500Y-114982000D03*
X100962500Y-115482000D03*
D38*
X102375000Y-116894500D03*
X102875000Y-116894500D03*
X103375000Y-116894500D03*
X103875000Y-116894500D03*
X104375000Y-116894500D03*
X104875000Y-116894500D03*
X105375000Y-116894500D03*
X105875000Y-116894500D03*
X106375000Y-116894500D03*
X106875000Y-116894500D03*
X107375000Y-116894500D03*
X107875000Y-116894500D03*
D39*
X108966000Y-122956000D03*
X108966000Y-125456000D03*
D40*
X73746000Y-78374000D03*
X74846000Y-78374000D03*
X75946000Y-78374000D03*
X77046000Y-78374000D03*
X78146000Y-78374000D03*
X79246000Y-78374000D03*
X80346000Y-78374000D03*
X81446000Y-78374000D03*
X82546000Y-78374000D03*
D41*
X83746000Y-77074000D03*
D42*
X83746000Y-67774000D03*
D43*
X69096000Y-77324000D03*
D42*
X68246000Y-67774000D03*
D21*
X127800000Y-88550000D03*
X125500000Y-88550000D03*
D22*
X125500000Y-94850000D03*
D21*
X123200000Y-88550000D03*
D16*
X84836000Y-72644000D03*
X84836000Y-71094000D03*
D34*
X87630000Y-65071000D03*
X87630000Y-63246000D03*
X87884000Y-68881000D03*
X87884000Y-67056000D03*
X93726000Y-65071000D03*
X93726000Y-63246000D03*
D44*
X132972000Y-75438000D03*
X130172000Y-75438000D03*
D45*
X129944500Y-72898000D03*
X128119500Y-72898000D03*
X125100000Y-97600000D03*
X123275000Y-97600000D03*
D44*
X127892000Y-75438000D03*
X125092000Y-75438000D03*
D46*
X90945000Y-86106000D03*
X89395000Y-86106000D03*
D31*
X129286000Y-121666000D03*
D32*
X131826000Y-121666000D03*
D45*
X79312500Y-83200000D03*
X77487500Y-83200000D03*
D34*
X89916000Y-68881000D03*
X89916000Y-67056000D03*
X123500000Y-79912500D03*
X123500000Y-78087500D03*
X130200000Y-80000000D03*
X130200000Y-78175000D03*
D15*
X98759000Y-74422000D03*
X100584000Y-74422000D03*
D46*
X121412000Y-83312000D03*
X119862000Y-83312000D03*
D18*
X139496800Y-125196600D03*
X139496800Y-126746600D03*
D47*
X88663000Y-102684000D03*
X86163000Y-102684000D03*
X83663000Y-102684000D03*
X81163000Y-102684000D03*
X78663000Y-102684000D03*
X76163000Y-102684000D03*
X73738000Y-102684000D03*
X72038000Y-102684000D03*
X91163000Y-102684000D03*
D48*
X70738000Y-102684000D03*
X69538000Y-102684000D03*
D49*
X68138000Y-104484000D03*
X93238000Y-104484000D03*
X68138000Y-125984000D03*
X95438000Y-125984000D03*
D50*
X121035000Y-74353500D03*
X120385000Y-74353500D03*
X119735000Y-74353500D03*
X119085000Y-74353500D03*
X118435000Y-74353500D03*
X117785000Y-74353500D03*
X117135000Y-74353500D03*
X116485000Y-74353500D03*
X115835000Y-74353500D03*
X115185000Y-74353500D03*
X115185000Y-80078500D03*
X115835000Y-80078500D03*
X116485000Y-80078500D03*
X117135000Y-80078500D03*
X117785000Y-80078500D03*
X118435000Y-80078500D03*
X119085000Y-80078500D03*
X119735000Y-80078500D03*
X120385000Y-80078500D03*
X121035000Y-80078500D03*
D16*
X112522000Y-114313000D03*
X112522000Y-112763000D03*
D17*
X103124000Y-78232000D03*
X104674000Y-78232000D03*
X101092000Y-126492000D03*
X102642000Y-126492000D03*
D34*
X93980000Y-68881000D03*
X93980000Y-67056000D03*
D17*
X109220000Y-101092000D03*
X110770000Y-101092000D03*
D51*
X80700000Y-98575000D03*
X80700000Y-100400000D03*
D15*
X123651000Y-126595500D03*
X125476000Y-126595500D03*
D13*
X143535400Y-117830600D03*
D14*
X146075400Y-117830600D03*
X143535400Y-120370600D03*
X146075400Y-120370600D03*
X143535400Y-122910600D03*
X146075400Y-122910600D03*
D18*
X111252000Y-124968000D03*
X111252000Y-126518000D03*
D16*
X111252000Y-123444000D03*
X111252000Y-121894000D03*
D18*
X134696200Y-125197200D03*
X134696200Y-126747200D03*
D15*
X129643500Y-126595500D03*
X131468500Y-126595500D03*
D52*
X146304000Y-66516000D03*
X146304000Y-62516000D03*
D13*
X63251000Y-125471000D03*
D14*
X60711000Y-125471000D03*
X63251000Y-122931000D03*
X60711000Y-122931000D03*
X63251000Y-120391000D03*
X60711000Y-120391000D03*
X63251000Y-117851000D03*
X60711000Y-117851000D03*
X63251000Y-115311000D03*
X60711000Y-115311000D03*
D45*
X125880500Y-72898000D03*
X124055500Y-72898000D03*
D36*
X87510000Y-79248000D03*
X88160000Y-79248000D03*
X88810000Y-79248000D03*
X89460000Y-79248000D03*
X90110000Y-79248000D03*
X90760000Y-79248000D03*
X91410000Y-79248000D03*
X92060000Y-79248000D03*
X92710000Y-79248000D03*
X93360000Y-79248000D03*
X94010000Y-79248000D03*
X94660000Y-79248000D03*
X94660000Y-73523000D03*
X94010000Y-73523000D03*
X93360000Y-73523000D03*
X92710000Y-73523000D03*
X92060000Y-73523000D03*
X91410000Y-73523000D03*
X90760000Y-73523000D03*
X90110000Y-73523000D03*
X89460000Y-73523000D03*
X88810000Y-73523000D03*
X88160000Y-73523000D03*
X87510000Y-73523000D03*
D18*
X137896600Y-125197200D03*
X137896600Y-126747200D03*
D34*
X89662000Y-65071000D03*
X89662000Y-63246000D03*
D53*
X94234000Y-96550000D03*
D54*
X94234000Y-95250000D03*
D55*
X102108000Y-70104000D03*
D56*
X104648000Y-70104000D03*
X107188000Y-70104000D03*
X109728000Y-70104000D03*
X112268000Y-70104000D03*
X114808000Y-70104000D03*
X117348000Y-70104000D03*
X119888000Y-70104000D03*
X122428000Y-70104000D03*
X124968000Y-70104000D03*
X102108000Y-67564000D03*
X104648000Y-67564000D03*
X107188000Y-67564000D03*
X109728000Y-67564000D03*
X112268000Y-67564000D03*
X114808000Y-67564000D03*
X117348000Y-67564000D03*
X119888000Y-67564000D03*
X122428000Y-67564000D03*
X124968000Y-67564000D03*
D57*
X94996000Y-71882000D03*
X141200000Y-94100000D03*
X140208000Y-89154000D03*
X110998000Y-80010000D03*
X93472000Y-91466000D03*
X132080000Y-60452000D03*
X68072000Y-103378000D03*
X143002000Y-97282000D03*
X79248000Y-80010000D03*
X68072000Y-127000000D03*
X150622000Y-99060000D03*
X114046000Y-126500000D03*
X88392000Y-83820000D03*
X104140000Y-79756000D03*
X133350000Y-70358000D03*
X119888000Y-81788000D03*
X95504000Y-127000000D03*
X93218000Y-104394000D03*
X136296400Y-127965200D03*
X107188000Y-125222000D03*
X114046000Y-124200000D03*
X114085200Y-72998400D03*
X148590000Y-108204000D03*
X146558000Y-86360000D03*
X93218000Y-105410000D03*
X103937000Y-126522000D03*
X110490000Y-99568000D03*
X149098000Y-60452000D03*
X135500000Y-100300000D03*
X96266000Y-88900000D03*
X147066000Y-79502000D03*
X150876000Y-106172000D03*
X134500000Y-84300000D03*
X140970000Y-107188000D03*
X138684000Y-112522000D03*
X136300000Y-90600000D03*
X68072000Y-105410000D03*
X68072000Y-124968000D03*
X93218000Y-103378000D03*
X115570000Y-91694000D03*
X87625631Y-71322369D03*
X104140000Y-124206000D03*
X129600000Y-88600000D03*
X83820000Y-67818000D03*
X150876000Y-86360000D03*
X139446000Y-128016000D03*
X89395000Y-87363000D03*
X83820000Y-76962000D03*
X96266000Y-86360000D03*
X96520000Y-83743001D03*
X114046000Y-120142000D03*
X128000000Y-77600000D03*
X115570000Y-88392000D03*
X111122500Y-112831997D03*
X68072000Y-104394000D03*
X77200000Y-101100000D03*
X123400000Y-85900000D03*
X139700000Y-117094000D03*
X146304000Y-106172000D03*
X137160000Y-73406000D03*
X137668000Y-82296000D03*
X134700000Y-77700000D03*
X69088000Y-77216000D03*
X150622000Y-75438000D03*
X107239000Y-121950000D03*
X148590000Y-88392000D03*
X122100000Y-92100000D03*
X103087505Y-99592587D03*
X95504000Y-125984000D03*
X85600000Y-100500000D03*
X96012000Y-80010000D03*
X95504000Y-124968000D03*
X127800000Y-86600000D03*
X140120800Y-122834400D03*
X68072000Y-125984000D03*
X131600000Y-97600000D03*
X68072000Y-67818000D03*
X142240000Y-87376000D03*
X135000000Y-86600000D03*
X138684000Y-87630000D03*
X86106000Y-72644000D03*
X138684000Y-90424000D03*
X95758000Y-69088000D03*
X135382000Y-113284000D03*
X96266000Y-87884000D03*
X109220000Y-99568000D03*
X90932000Y-87376000D03*
X121158000Y-81788000D03*
X99822000Y-125100000D03*
X68149000Y-88138000D03*
X115570000Y-92964000D03*
X139700000Y-99822000D03*
X102870000Y-79756000D03*
X87376000Y-81026000D03*
X109474000Y-80010000D03*
X111122500Y-113792000D03*
X102108000Y-99568000D03*
X96266000Y-90460000D03*
X115570000Y-89916000D03*
X139400000Y-97000000D03*
X99060000Y-116332000D03*
X99060000Y-115316000D03*
X112268000Y-118112000D03*
X112268000Y-116332000D03*
X111303630Y-116332000D03*
X111303630Y-118112000D03*
X70866000Y-101092000D03*
X91900000Y-101200000D03*
X102600000Y-118700000D03*
X99900000Y-121600000D03*
X96520000Y-95758000D03*
X96520000Y-96774000D03*
X96520000Y-93726000D03*
X96520000Y-94742000D03*
X111760000Y-109982000D03*
X112289000Y-79735000D03*
X112014000Y-100584000D03*
X107239000Y-123190000D03*
X69596000Y-101092000D03*
X92500000Y-102200000D03*
X82100000Y-94200000D03*
X80000000Y-94200000D03*
X119700000Y-97600000D03*
X98800000Y-123800000D03*
X101550000Y-118650000D03*
X98800000Y-122800000D03*
X99900000Y-109000000D03*
X98800000Y-124800000D03*
X109000000Y-117400000D03*
X99900000Y-107800000D03*
D58*
X128119500Y-71477500D02*
X128119500Y-72898000D01*
X122428000Y-67564000D02*
X122936000Y-67564000D01*
X122936000Y-67564000D02*
X124206000Y-68834000D01*
X124206000Y-68834000D02*
X125476000Y-68834000D01*
X125476000Y-68834000D02*
X128119500Y-71477500D01*
D59*
X146050000Y-75946000D02*
X148692000Y-78588000D01*
X146050000Y-66770000D02*
X146050000Y-71900000D01*
X148692000Y-78588000D02*
X148692000Y-81774000D01*
X146050000Y-71900000D02*
X146050000Y-75946000D01*
X146304000Y-66516000D02*
X146050000Y-66770000D01*
D58*
X125092000Y-75438000D02*
X125350000Y-75696000D01*
X125090000Y-79677500D02*
X123500000Y-78087500D01*
X125350000Y-79677500D02*
X125090000Y-79677500D01*
X125350000Y-75696000D02*
X125350000Y-79677500D01*
X124055500Y-72898000D02*
X124055500Y-71778500D01*
X124055500Y-71778500D02*
X124968000Y-70866000D01*
X124968000Y-70866000D02*
X124968000Y-70104000D01*
X131762500Y-79737500D02*
X132050000Y-79737500D01*
X130172000Y-78147000D02*
X131762500Y-79737500D01*
X130172000Y-75438000D02*
X130172000Y-78147000D01*
D60*
X98552000Y-67056000D02*
X93980000Y-67056000D01*
X101600000Y-70104000D02*
X98552000Y-67056000D01*
X102108000Y-70104000D02*
X101600000Y-70104000D01*
X103378000Y-68834000D02*
X101211000Y-68834000D01*
X104648000Y-70104000D02*
X103378000Y-68834000D01*
X95623000Y-63246000D02*
X93726000Y-63246000D01*
X101211000Y-68834000D02*
X95623000Y-63246000D01*
X105918000Y-67056000D02*
X101310500Y-62448500D01*
X105918000Y-68326000D02*
X105918000Y-67056000D01*
X92679000Y-62515000D02*
X92679000Y-66071000D01*
X107188000Y-70104000D02*
X107188000Y-69596000D01*
X92745500Y-62448500D02*
X92679000Y-62515000D01*
X107188000Y-69596000D02*
X105918000Y-68326000D01*
X92679000Y-66071000D02*
X91948000Y-66802000D01*
X91948000Y-66802000D02*
X91948000Y-67056000D01*
X101310500Y-62448500D02*
X92745500Y-62448500D01*
D58*
X79020000Y-81280000D02*
X79246000Y-81054000D01*
X115596000Y-88366000D02*
X117348000Y-88366000D01*
X136296400Y-126746600D02*
X136296400Y-127965200D01*
X115596000Y-91668000D02*
X117348000Y-91668000D01*
X114693600Y-72998400D02*
X114085200Y-72998400D01*
X94742000Y-86334000D02*
X96240000Y-86334000D01*
D60*
X112453003Y-112831997D02*
X112522000Y-112763000D01*
D58*
X103087505Y-99592587D02*
X103172000Y-99508092D01*
X88405000Y-83807000D02*
X88392000Y-83820000D01*
X110672000Y-80336000D02*
X110672000Y-82253500D01*
X115570000Y-88392000D02*
X115046000Y-88916000D01*
X140120800Y-122834400D02*
X140120800Y-121226500D01*
X115185000Y-74353500D02*
X115185000Y-73489800D01*
X116574400Y-72847200D02*
X115761600Y-72847200D01*
D60*
X94996000Y-71882000D02*
X94996000Y-72009000D01*
D58*
X88810000Y-72471382D02*
X88810000Y-73523000D01*
X96266000Y-88900000D02*
X96250000Y-88916000D01*
X114844800Y-72847200D02*
X114693600Y-72998400D01*
X128000000Y-77600000D02*
X127250000Y-78350000D01*
X116485000Y-74353500D02*
X116485000Y-72936600D01*
X87397262Y-71094000D02*
X87625631Y-71322369D01*
X119888000Y-81788000D02*
X120385000Y-81291000D01*
X115835000Y-72920600D02*
X115761600Y-72847200D01*
X117135000Y-73407800D02*
X116574400Y-72847200D01*
X119888000Y-81788000D02*
X119888000Y-83286000D01*
X110998000Y-80010000D02*
X110672000Y-80336000D01*
D60*
X94010000Y-79248000D02*
X94010000Y-80294000D01*
D58*
X103087505Y-101042505D02*
X103137000Y-101092000D01*
D60*
X139470800Y-115501500D02*
X139470800Y-116864800D01*
X107239000Y-121950000D02*
X106731000Y-122458000D01*
D58*
X87660987Y-71322369D02*
X88810000Y-72471382D01*
X89395000Y-87363000D02*
X89395000Y-86106000D01*
X79246000Y-80008000D02*
X79246000Y-78374000D01*
X103087505Y-99592587D02*
X103087505Y-101042505D01*
D60*
X94234000Y-80518000D02*
X94996000Y-80518000D01*
X102642000Y-126492000D02*
X103907000Y-126492000D01*
D58*
X98509500Y-88416000D02*
X96750000Y-88416000D01*
X84836000Y-71094000D02*
X87397262Y-71094000D01*
X110770000Y-99848000D02*
X110490000Y-99568000D01*
X83663000Y-101637000D02*
X83663000Y-102684000D01*
X136220800Y-115501500D02*
X136220800Y-113715200D01*
D60*
X103907000Y-126492000D02*
X103937000Y-126522000D01*
X94660000Y-80182000D02*
X94996000Y-80518000D01*
D58*
X96520000Y-83743001D02*
X96692999Y-83916000D01*
X120385000Y-81291000D02*
X120385000Y-80078500D01*
D60*
X95504000Y-80518000D02*
X96012000Y-80010000D01*
X77200000Y-101100000D02*
X76163000Y-102137000D01*
D58*
X134700000Y-77700000D02*
X133950000Y-78450000D01*
X139496800Y-126746600D02*
X139496800Y-127965200D01*
X115185000Y-73489800D02*
X114693600Y-72998400D01*
D60*
X94996000Y-72009000D02*
X94660000Y-72345000D01*
D58*
X110490000Y-99568000D02*
X110172000Y-99250000D01*
D60*
X111122500Y-112831997D02*
X112453003Y-112831997D01*
D58*
X79248000Y-80010000D02*
X79246000Y-80008000D01*
X136220800Y-113715200D02*
X137414000Y-112522000D01*
X133950000Y-78450000D02*
X133950000Y-79737500D01*
X127250000Y-78350000D02*
X127250000Y-79677500D01*
X110172000Y-99250000D02*
X110172000Y-97578500D01*
X115835000Y-74353500D02*
X115835000Y-72920600D01*
X137414000Y-111760000D02*
X137922000Y-111760000D01*
D60*
X139470800Y-116864800D02*
X139700000Y-117094000D01*
X111122500Y-112831997D02*
X110772503Y-112482000D01*
D58*
X119888000Y-83286000D02*
X119862000Y-83312000D01*
D60*
X110772503Y-112482000D02*
X109287500Y-112482000D01*
D58*
X87625631Y-71322369D02*
X87660987Y-71322369D01*
X111024000Y-79984000D02*
X110998000Y-80010000D01*
X103672000Y-80224000D02*
X103672000Y-82253500D01*
D60*
X94996000Y-80518000D02*
X95504000Y-80518000D01*
D58*
X89395000Y-87363000D02*
X89154000Y-87604000D01*
X89154000Y-91948000D02*
X86868000Y-94234000D01*
X115570000Y-88392000D02*
X115596000Y-88366000D01*
X96692999Y-83916000D02*
X98509500Y-83916000D01*
X104140000Y-79756000D02*
X103672000Y-80224000D01*
X96240000Y-86334000D02*
X96266000Y-86360000D01*
X96750000Y-88416000D02*
X96266000Y-88900000D01*
D60*
X94660000Y-72345000D02*
X94660000Y-73523000D01*
X94010000Y-80294000D02*
X94234000Y-80518000D01*
D58*
X79246000Y-81054000D02*
X79246000Y-80012000D01*
X115046000Y-88916000D02*
X113834500Y-88916000D01*
X79246000Y-80012000D02*
X79248000Y-80010000D01*
D60*
X106731000Y-122458000D02*
X105797000Y-122458000D01*
D58*
X111024000Y-78232000D02*
X111024000Y-79984000D01*
X84275000Y-100500000D02*
X84275000Y-101025000D01*
X104140000Y-79756000D02*
X104674000Y-79222000D01*
X89154000Y-87604000D02*
X89154000Y-91948000D01*
X103172000Y-99508092D02*
X103172000Y-97578500D01*
X84275000Y-101025000D02*
X83663000Y-101637000D01*
X84275000Y-100500000D02*
X85600000Y-100500000D01*
X117135000Y-74353500D02*
X117135000Y-73407800D01*
X139496800Y-127965200D02*
X139446000Y-128016000D01*
X68984500Y-83415500D02*
X68834000Y-83566000D01*
X116485000Y-72936600D02*
X116574400Y-72847200D01*
X115570000Y-91694000D02*
X115596000Y-91668000D01*
X68984500Y-80772000D02*
X68984500Y-83415500D01*
X93472000Y-91466000D02*
X94742000Y-91466000D01*
X115761600Y-72847200D02*
X114844800Y-72847200D01*
X96250000Y-88916000D02*
X98509500Y-88916000D01*
X88405000Y-82550000D02*
X88405000Y-83807000D01*
X115292000Y-91416000D02*
X113834500Y-91416000D01*
D60*
X94660000Y-79248000D02*
X94660000Y-80182000D01*
D58*
X137922000Y-111760000D02*
X138684000Y-112522000D01*
D60*
X76163000Y-102137000D02*
X76163000Y-102684000D01*
D58*
X110770000Y-101092000D02*
X110770000Y-99848000D01*
X115570000Y-91694000D02*
X115292000Y-91416000D01*
X104674000Y-79222000D02*
X104674000Y-78232000D01*
X137414000Y-112522000D02*
X137414000Y-111760000D01*
X97028000Y-71882000D02*
X98759000Y-73613000D01*
D59*
X123200000Y-88100000D02*
X125800000Y-85500000D01*
D58*
X98759000Y-73613000D02*
X98759000Y-74422000D01*
X95758000Y-69088000D02*
X97028000Y-70358000D01*
X88160000Y-72471920D02*
X88160000Y-73523000D01*
X87021000Y-72067500D02*
X87755580Y-72067500D01*
X87755580Y-72067500D02*
X88160000Y-72471920D01*
D59*
X143461000Y-92153000D02*
X143764000Y-92456000D01*
X123200000Y-88550000D02*
X123200000Y-88100000D01*
X144780000Y-84074000D02*
X144780000Y-90834000D01*
X143764000Y-92456000D02*
X143764000Y-96012000D01*
X125800000Y-85500000D02*
X133400000Y-85500000D01*
X140413000Y-92153000D02*
X138684000Y-90424000D01*
X143764000Y-96012000D02*
X148590000Y-100838000D01*
X144780000Y-90834000D02*
X143461000Y-92153000D01*
D58*
X86106000Y-72644000D02*
X86682500Y-72067500D01*
X87021000Y-72067500D02*
X87510000Y-72556500D01*
D59*
X131700000Y-87200000D02*
X131700000Y-88550000D01*
X133400000Y-85500000D02*
X136554000Y-85500000D01*
D58*
X87510000Y-72556500D02*
X87510000Y-73523000D01*
D59*
X136554000Y-85500000D02*
X138684000Y-87630000D01*
D58*
X97028000Y-70358000D02*
X97028000Y-71882000D01*
D59*
X148692000Y-84074000D02*
X142392000Y-84074000D01*
X142392000Y-84074000D02*
X144780000Y-84074000D01*
X142240000Y-92153000D02*
X143461000Y-92153000D01*
X142240000Y-92153000D02*
X140413000Y-92153000D01*
X131700000Y-87200000D02*
X133400000Y-85500000D01*
X138684000Y-90424000D02*
X138684000Y-87630000D01*
D58*
X86682500Y-72067500D02*
X87021000Y-72067500D01*
X84836000Y-72644000D02*
X86106000Y-72644000D01*
D59*
X148590000Y-100838000D02*
X148590000Y-101586000D01*
D58*
X121412000Y-81788000D02*
X121158000Y-81788000D01*
X135864000Y-111760000D02*
X135864000Y-112802000D01*
X102870000Y-79756000D02*
X103137000Y-79489000D01*
X71929000Y-87423000D02*
X71929000Y-89408000D01*
X57404000Y-87156000D02*
X57624000Y-87376000D01*
X96298000Y-87916000D02*
X98509500Y-87916000D01*
X103137000Y-79489000D02*
X103137000Y-78232000D01*
X68149000Y-88138000D02*
X67564000Y-87553000D01*
X103172000Y-80058000D02*
X103172000Y-82253500D01*
D60*
X110812500Y-113482000D02*
X109287500Y-113482000D01*
D58*
X102672000Y-97578500D02*
X102672000Y-99004000D01*
X121920000Y-81280000D02*
X121412000Y-81788000D01*
D60*
X110244000Y-112982000D02*
X110744000Y-113482000D01*
D58*
X69342000Y-84836000D02*
X71929000Y-87423000D01*
X101587000Y-100089000D02*
X101587000Y-101092000D01*
X102870000Y-79756000D02*
X103172000Y-80058000D01*
X121035000Y-75569000D02*
X121920000Y-76454000D01*
D60*
X94774000Y-87916000D02*
X94742000Y-87884000D01*
X99822000Y-125100000D02*
X99822000Y-125222000D01*
D58*
X57404000Y-82999756D02*
X57404000Y-87156000D01*
X102108000Y-99568000D02*
X101587000Y-100089000D01*
X135570800Y-114085200D02*
X135570800Y-115501500D01*
X61804488Y-87376000D02*
X62484000Y-86696488D01*
X68149000Y-88138000D02*
X68149000Y-89378000D01*
X121158000Y-81788000D02*
X121035000Y-81665000D01*
X66860244Y-84836000D02*
X67564000Y-85539756D01*
X121035000Y-74353500D02*
X121035000Y-75569000D01*
D59*
X141400000Y-98708000D02*
X140814000Y-98708000D01*
D58*
X68267756Y-84836000D02*
X69342000Y-84836000D01*
D60*
X111643500Y-114313000D02*
X112522000Y-114313000D01*
D58*
X102672000Y-99004000D02*
X102108000Y-99568000D01*
X57624000Y-87376000D02*
X61804488Y-87376000D01*
D59*
X148590000Y-103886000D02*
X142290000Y-103886000D01*
D60*
X100464000Y-124458000D02*
X101397000Y-124458000D01*
D58*
X67564000Y-85539756D02*
X68267756Y-84836000D01*
X135864000Y-112802000D02*
X135382000Y-113284000D01*
X121158000Y-81788000D02*
X121412000Y-82042000D01*
X68149000Y-89378000D02*
X68119000Y-89408000D01*
X67564000Y-87553000D02*
X67564000Y-85539756D01*
X59944000Y-82296000D02*
X58107756Y-82296000D01*
X114618552Y-91916000D02*
X113834500Y-91916000D01*
X115570000Y-92867448D02*
X114618552Y-91916000D01*
X115824000Y-93218000D02*
X117348000Y-93218000D01*
X109672000Y-97578500D02*
X109672000Y-98362552D01*
X87376000Y-81026000D02*
X87330500Y-81026000D01*
X87376000Y-81026000D02*
X86855000Y-81547000D01*
D60*
X99822000Y-125100000D02*
X100464000Y-124458000D01*
D59*
X142290000Y-99598000D02*
X141400000Y-98708000D01*
D58*
X121035000Y-81665000D02*
X121035000Y-80078500D01*
X90945000Y-87363000D02*
X90945000Y-86106000D01*
D59*
X142290000Y-103886000D02*
X142290000Y-99598000D01*
D58*
X90932000Y-87376000D02*
X91068000Y-87512000D01*
X90932000Y-87376000D02*
X90945000Y-87363000D01*
X96266000Y-87884000D02*
X96298000Y-87916000D01*
X62484000Y-86696488D02*
X62484000Y-85539756D01*
X109220000Y-98814552D02*
X109220000Y-101193600D01*
D60*
X111122500Y-113792000D02*
X110812500Y-113482000D01*
D58*
X62484000Y-85539756D02*
X63187756Y-84836000D01*
X115570000Y-92964000D02*
X115570000Y-92867448D01*
D59*
X140814000Y-98708000D02*
X139700000Y-99822000D01*
D58*
X109474000Y-80010000D02*
X110172000Y-80708000D01*
X94742000Y-87884000D02*
X96266000Y-87884000D01*
X63187756Y-84836000D02*
X66860244Y-84836000D01*
D60*
X99822000Y-125222000D02*
X101092000Y-126492000D01*
D58*
X109474000Y-78232000D02*
X109474000Y-80010000D01*
X135382000Y-113284000D02*
X135382000Y-113896400D01*
X87510000Y-80892000D02*
X87376000Y-81026000D01*
X110172000Y-80708000D02*
X110172000Y-82253500D01*
X58107756Y-82296000D02*
X57404000Y-82999756D01*
X91068000Y-87512000D02*
X91068000Y-89154000D01*
X135382000Y-113896400D02*
X135570800Y-114085200D01*
X121920000Y-76454000D02*
X121920000Y-81280000D01*
X115570000Y-92964000D02*
X115824000Y-93218000D01*
X61214000Y-83566000D02*
X59944000Y-82296000D01*
X109672000Y-98362552D02*
X109220000Y-98814552D01*
X87510000Y-79248000D02*
X87510000Y-80892000D01*
D60*
X111122500Y-113792000D02*
X111643500Y-114313000D01*
D58*
X121412000Y-82042000D02*
X121412000Y-83312000D01*
X86855000Y-81547000D02*
X86855000Y-82550000D01*
D60*
X109287500Y-112982000D02*
X110244000Y-112982000D01*
X103440500Y-62038500D02*
X92393500Y-62038500D01*
X108458000Y-67056000D02*
X103440500Y-62038500D01*
X109728000Y-70104000D02*
X108458000Y-68834000D01*
X91694000Y-62738000D02*
X91694000Y-63246000D01*
X92393500Y-62038500D02*
X91694000Y-62738000D01*
X108458000Y-68834000D02*
X108458000Y-67056000D01*
X112268000Y-69596000D02*
X110998000Y-68326000D01*
X110998000Y-68326000D02*
X110998000Y-67056000D01*
X112268000Y-70104000D02*
X112268000Y-69596000D01*
X105570499Y-61628499D02*
X91787500Y-61628500D01*
X110998000Y-67056000D02*
X105570499Y-61628499D01*
X89916000Y-66802000D02*
X89916000Y-67056000D01*
X90647000Y-62769000D02*
X90647000Y-66071000D01*
X91787500Y-61628500D02*
X90647000Y-62769000D01*
X90647000Y-66071000D02*
X89916000Y-66802000D01*
X114808000Y-70104000D02*
X113538000Y-68834000D01*
X113538000Y-67056000D02*
X107700499Y-61218499D01*
X107700499Y-61218499D02*
X91177001Y-61218499D01*
X91177001Y-61218499D02*
X89662000Y-62733500D01*
X89662000Y-62733500D02*
X89662000Y-63246000D01*
X113538000Y-68834000D02*
X113538000Y-67056000D01*
X116078000Y-67056000D02*
X109830499Y-60808499D01*
X88646000Y-62785968D02*
X88646000Y-66040000D01*
X117348000Y-70104000D02*
X117348000Y-69596000D01*
X88646000Y-66040000D02*
X87884000Y-66802000D01*
X116078000Y-68326000D02*
X116078000Y-67056000D01*
X90623469Y-60808499D02*
X88646000Y-62785968D01*
X117348000Y-69596000D02*
X116078000Y-68326000D01*
X109830499Y-60808499D02*
X90623469Y-60808499D01*
X87884000Y-66802000D02*
X87884000Y-67056000D01*
X119888000Y-70104000D02*
X119888000Y-69596000D01*
X119888000Y-69596000D02*
X118618000Y-68326000D01*
X89965002Y-60398498D02*
X87630000Y-62733500D01*
X118618000Y-67056000D02*
X111960499Y-60398499D01*
X118618000Y-68326000D02*
X118618000Y-67056000D01*
X87630000Y-62733500D02*
X87630000Y-63246000D01*
X111960499Y-60398499D02*
X89965002Y-60398498D01*
D58*
X122428000Y-70104000D02*
X122428000Y-70358000D01*
X122428000Y-70358000D02*
X119735000Y-73051000D01*
X119735000Y-73051000D02*
X119735000Y-74353500D01*
X104648000Y-68379591D02*
X104648000Y-67564000D01*
X102362000Y-74422000D02*
X105918000Y-70866000D01*
X100584000Y-74422000D02*
X102362000Y-74422000D01*
X117785000Y-73407262D02*
X116561738Y-72184000D01*
X117785000Y-74353500D02*
X117785000Y-73407262D01*
X105918000Y-70670244D02*
X105918000Y-69649591D01*
X105918000Y-69649591D02*
X104648000Y-68379591D01*
X116561738Y-72184000D02*
X107236000Y-72184000D01*
X107236000Y-72184000D02*
X105918000Y-70866000D01*
X105918000Y-70866000D02*
X105918000Y-70670244D01*
X110998000Y-69596000D02*
X110998000Y-70866000D01*
X116752276Y-71724000D02*
X118435000Y-73406724D01*
X118435000Y-73406724D02*
X118435000Y-74353500D01*
X109728000Y-68326000D02*
X110998000Y-69596000D01*
X109728000Y-67564000D02*
X109728000Y-68326000D01*
X110998000Y-70866000D02*
X111856000Y-71724000D01*
X111856000Y-71724000D02*
X116752276Y-71724000D01*
X116942814Y-71264000D02*
X119085000Y-73406186D01*
X116544756Y-71264000D02*
X116942814Y-71264000D01*
X114808000Y-68326000D02*
X116078000Y-69596000D01*
X116078000Y-69596000D02*
X116078000Y-70797244D01*
X114808000Y-67564000D02*
X114808000Y-68326000D01*
X116078000Y-70797244D02*
X116544756Y-71264000D01*
X119085000Y-73406186D02*
X119085000Y-74353500D01*
X121158000Y-68834000D02*
X122925000Y-68834000D01*
X123687000Y-69596000D02*
X123687000Y-70623000D01*
X122925000Y-68834000D02*
X123687000Y-69596000D01*
X123687000Y-70623000D02*
X122936000Y-71374000D01*
X119888000Y-67564000D02*
X121158000Y-68834000D01*
X122936000Y-71374000D02*
X122174000Y-71374000D01*
X122174000Y-71374000D02*
X120385000Y-73163000D01*
X120385000Y-73163000D02*
X120385000Y-74353500D01*
D60*
X94010000Y-68911000D02*
X94010000Y-73523000D01*
X93980000Y-68881000D02*
X94010000Y-68911000D01*
X92933000Y-66626968D02*
X92933000Y-69677000D01*
X92933000Y-69677000D02*
X93360000Y-70104000D01*
X93360000Y-70104000D02*
X93360000Y-73523000D01*
X93726000Y-65833968D02*
X92933000Y-66626968D01*
X93726000Y-65071000D02*
X93726000Y-65833968D01*
X91948000Y-68881000D02*
X91948000Y-69596000D01*
X91948000Y-69596000D02*
X92710000Y-70358000D01*
X92710000Y-70358000D02*
X92710000Y-73523000D01*
D59*
X135150000Y-97350000D02*
X139050000Y-97350000D01*
D58*
X95722000Y-89916000D02*
X94742000Y-89916000D01*
D59*
X134000000Y-94850000D02*
X134000000Y-96200000D01*
X139050000Y-97350000D02*
X139400000Y-97000000D01*
X134000000Y-96200000D02*
X135150000Y-97350000D01*
D58*
X98509500Y-89916000D02*
X96810000Y-89916000D01*
D59*
X134000000Y-88550000D02*
X134000000Y-94850000D01*
D58*
X96266000Y-90460000D02*
X95722000Y-89916000D01*
X115570000Y-89916000D02*
X117348000Y-89916000D01*
X115570000Y-89916000D02*
X113834500Y-89916000D01*
X96810000Y-89916000D02*
X96266000Y-90460000D01*
D60*
X92060000Y-70724000D02*
X92060000Y-73523000D01*
X91694000Y-65833968D02*
X90901000Y-66626968D01*
X91694000Y-65071000D02*
X91694000Y-65833968D01*
X90901000Y-66626968D02*
X90901000Y-69565000D01*
X90901000Y-69565000D02*
X92060000Y-70724000D01*
X89916000Y-68881000D02*
X89916000Y-69596000D01*
X89916000Y-69596000D02*
X91410000Y-71090000D01*
X91410000Y-71090000D02*
X91410000Y-73523000D01*
X89662000Y-65833968D02*
X88900000Y-66595968D01*
X90760000Y-71456000D02*
X90760000Y-73523000D01*
X88900000Y-66595968D02*
X88900000Y-69596000D01*
X88900000Y-69596000D02*
X90760000Y-71456000D01*
X89662000Y-65071000D02*
X89662000Y-65833968D01*
X90110000Y-71822000D02*
X90110000Y-73523000D01*
X87884000Y-68881000D02*
X87884000Y-69596000D01*
X87884000Y-69596000D02*
X90110000Y-71822000D01*
X86899000Y-65802000D02*
X87630000Y-65071000D01*
X89460000Y-72188000D02*
X86899000Y-69627000D01*
X89460000Y-73523000D02*
X89460000Y-72188000D01*
X86899000Y-69627000D02*
X86899000Y-65802000D01*
X80900000Y-89000000D02*
X74846000Y-82946000D01*
X97750000Y-111609656D02*
X97750000Y-104464344D01*
X92091656Y-98806000D02*
X84406000Y-98806000D01*
X84406000Y-98806000D02*
X80900000Y-95300000D01*
X97750000Y-104464344D02*
X92091656Y-98806000D01*
X80900000Y-95300000D02*
X80900000Y-89000000D01*
X100962500Y-112982000D02*
X99122344Y-112982000D01*
X99122344Y-112982000D02*
X97750000Y-111609656D01*
X74846000Y-82946000D02*
X74846000Y-78374000D01*
X94234000Y-93726000D02*
X94234000Y-95250000D01*
X91068000Y-94234000D02*
X92084000Y-95250000D01*
X97544000Y-90416000D02*
X94234000Y-93726000D01*
X92084000Y-95250000D02*
X94234000Y-95250000D01*
X98509500Y-90416000D02*
X97544000Y-90416000D01*
X99060000Y-116332000D02*
X99910000Y-115482000D01*
X99910000Y-115482000D02*
X100962500Y-115482000D01*
X99060000Y-115316000D02*
X99394000Y-114982000D01*
X99394000Y-114982000D02*
X100962500Y-114982000D01*
D58*
X134696200Y-123672600D02*
X134696200Y-125197200D01*
X135570800Y-121226500D02*
X135570800Y-122798000D01*
X135570800Y-122798000D02*
X134696200Y-123672600D01*
X136746838Y-125984000D02*
X135459400Y-125984000D01*
X137081400Y-125649438D02*
X136746838Y-125984000D01*
X136870800Y-121226500D02*
X136870800Y-124533162D01*
X136870800Y-124533162D02*
X137081400Y-124743762D01*
X137081400Y-124743762D02*
X137081400Y-125649438D01*
X135459400Y-125984000D02*
X134696200Y-126747200D01*
X137520800Y-123540400D02*
X137515600Y-123545600D01*
X137520800Y-121226500D02*
X137520800Y-123540400D01*
X137896600Y-124434600D02*
X137896600Y-125197200D01*
X137515600Y-123545600D02*
X137515600Y-124053600D01*
X137515600Y-124053600D02*
X137896600Y-124434600D01*
X138681600Y-124569062D02*
X138681600Y-125962200D01*
X138681600Y-125962200D02*
X137896600Y-126747200D01*
X138170800Y-121226500D02*
X138170800Y-124058262D01*
X138170800Y-124058262D02*
X138681600Y-124569062D01*
X139496800Y-124733724D02*
X139496800Y-125196600D01*
X138820800Y-121226500D02*
X138820800Y-124057724D01*
X138820800Y-124057724D02*
X139496800Y-124733724D01*
X136220800Y-121226500D02*
X136220800Y-125121000D01*
X136220800Y-125121000D02*
X136296400Y-125196600D01*
D60*
X127254000Y-119888000D02*
X127762000Y-120396000D01*
X112270000Y-118110000D02*
X120650000Y-118110000D01*
X120650000Y-118110000D02*
X122428000Y-119888000D01*
X111172000Y-114982000D02*
X109287500Y-114982000D01*
X127762000Y-122936000D02*
X129643500Y-124817500D01*
X112268000Y-116332000D02*
X112268000Y-116078000D01*
X122428000Y-119888000D02*
X127254000Y-119888000D01*
X127762000Y-120396000D02*
X127762000Y-122936000D01*
X129643500Y-124817500D02*
X129643500Y-126595500D01*
X112268000Y-118112000D02*
X112270000Y-118110000D01*
X112268000Y-116078000D02*
X111172000Y-114982000D01*
D58*
X131826000Y-121666000D02*
X131468500Y-122023500D01*
X131468500Y-122023500D02*
X131468500Y-126595500D01*
X125476000Y-122174000D02*
X125476000Y-126595500D01*
X125984000Y-121666000D02*
X125476000Y-122174000D01*
D60*
X112551737Y-118797000D02*
X112730737Y-118618000D01*
X121920000Y-122936000D02*
X123651000Y-124667000D01*
X123651000Y-124667000D02*
X123651000Y-126595500D01*
X111583000Y-118395737D02*
X111984263Y-118797000D01*
X111303630Y-118112000D02*
X111583000Y-118391370D01*
X110656000Y-115482000D02*
X109287500Y-115482000D01*
X111984263Y-118797000D02*
X112551737Y-118797000D01*
X111303630Y-116129630D02*
X110656000Y-115482000D01*
X111303630Y-116332000D02*
X111303630Y-116129630D01*
X121920000Y-120142000D02*
X121920000Y-122936000D01*
X112730737Y-118618000D02*
X120396000Y-118618000D01*
X120396000Y-118618000D02*
X121920000Y-120142000D01*
X111583000Y-118391370D02*
X111583000Y-118395737D01*
X107061000Y-118872000D02*
X109428000Y-118872000D01*
X138097000Y-117427000D02*
X138820800Y-116703200D01*
X106375000Y-116894500D02*
X106375000Y-118186000D01*
X106375000Y-118186000D02*
X107061000Y-118872000D01*
X110873000Y-117427000D02*
X138097000Y-117427000D01*
X109428000Y-118872000D02*
X110873000Y-117427000D01*
X138820800Y-116703200D02*
X138820800Y-115501500D01*
X137766000Y-113948000D02*
X140328086Y-113948000D01*
X137520800Y-115501500D02*
X137520800Y-114193200D01*
X141068000Y-114687914D02*
X141068000Y-120443200D01*
X147320000Y-120904000D02*
X146558000Y-121666000D01*
X140328086Y-113948000D02*
X141068000Y-114687914D01*
X147320000Y-119075200D02*
X147320000Y-120904000D01*
X146558000Y-121666000D02*
X144780000Y-121666000D01*
X144780000Y-121666000D02*
X143535400Y-122910600D01*
X146075400Y-117830600D02*
X147320000Y-119075200D01*
X141068000Y-120443200D02*
X143535400Y-122910600D01*
X137520800Y-114193200D02*
X137766000Y-113948000D01*
X110683000Y-117017000D02*
X109336000Y-118364000D01*
X138170800Y-116773372D02*
X137927172Y-117017000D01*
X137927172Y-117017000D02*
X110683000Y-117017000D01*
X107259828Y-118364000D02*
X106875000Y-117979172D01*
X106875000Y-117979172D02*
X106875000Y-116894500D01*
X138170800Y-115501500D02*
X138170800Y-116773372D01*
X109336000Y-118364000D02*
X107259828Y-118364000D01*
X98160000Y-104294516D02*
X98159999Y-111439827D01*
X82546000Y-80014000D02*
X83200000Y-80668000D01*
X98159999Y-111439827D02*
X99202172Y-112482000D01*
X83200000Y-80668000D02*
X83200000Y-96400000D01*
X92163484Y-98298000D02*
X98160000Y-104294516D01*
X82546000Y-78374000D02*
X82546000Y-80014000D01*
X85098000Y-98298000D02*
X92163484Y-98298000D01*
X99202172Y-112482000D02*
X100962500Y-112482000D01*
X83200000Y-96400000D02*
X85098000Y-98298000D01*
X98962688Y-113982000D02*
X100962500Y-113982000D01*
X70866000Y-101092000D02*
X70738000Y-101220000D01*
X70738000Y-101220000D02*
X70738000Y-102684000D01*
X96929999Y-111949311D02*
X98962688Y-113982000D01*
X96930000Y-104804000D02*
X96929999Y-111949311D01*
X93326000Y-101200000D02*
X96930000Y-104804000D01*
X91900000Y-101200000D02*
X93326000Y-101200000D01*
D61*
X103858000Y-122958000D02*
X105797000Y-122958000D01*
X99900000Y-121600000D02*
X102500000Y-121600000D01*
X103875000Y-116894500D02*
X103875000Y-117631999D01*
X103875000Y-117631999D02*
X102806999Y-118700000D01*
X102806999Y-118700000D02*
X102600000Y-118700000D01*
X102500000Y-121600000D02*
X103858000Y-122958000D01*
D60*
X75511000Y-76708000D02*
X73406000Y-76708000D01*
X79073000Y-100973000D02*
X79900000Y-101800000D01*
X75946000Y-77143000D02*
X75511000Y-76708000D01*
X84523500Y-104000000D02*
X85839500Y-102684000D01*
X80300000Y-104000000D02*
X84523500Y-104000000D01*
X72644000Y-77470000D02*
X72644000Y-81944000D01*
X102300000Y-115500000D02*
X105229196Y-115500000D01*
X79900000Y-103600000D02*
X80300000Y-104000000D01*
X79900000Y-101800000D02*
X79900000Y-103600000D01*
X98900000Y-118900000D02*
X96294000Y-118900000D01*
X96294000Y-118900000D02*
X95504000Y-118110000D01*
X105229196Y-115500000D02*
X105875000Y-116145804D01*
X85839500Y-102684000D02*
X86163000Y-102684000D01*
X73406000Y-76708000D02*
X72644000Y-77470000D01*
X75946000Y-78374000D02*
X75946000Y-77143000D01*
X79073000Y-88373000D02*
X79073000Y-100973000D01*
X72644000Y-81944000D02*
X79073000Y-88373000D01*
X90159000Y-106680000D02*
X86163000Y-102684000D01*
X95504000Y-108966000D02*
X93218000Y-106680000D01*
X93218000Y-106680000D02*
X90159000Y-106680000D01*
X105875000Y-116145804D02*
X105875000Y-116894500D01*
X95504000Y-118110000D02*
X95504000Y-108966000D01*
X102300000Y-115500000D02*
X98900000Y-118900000D01*
X79600000Y-104800000D02*
X78663000Y-103863000D01*
X104875000Y-116894500D02*
X104875000Y-118692263D01*
X76962000Y-75946000D02*
X78146000Y-77130000D01*
X71882000Y-77216000D02*
X73152000Y-75946000D01*
X103867263Y-119700000D02*
X95824000Y-119700000D01*
X78232000Y-88732000D02*
X71882000Y-82382000D01*
X94742000Y-118618000D02*
X94742000Y-109474000D01*
X78663000Y-102684000D02*
X78232000Y-102253000D01*
X92612000Y-107344000D02*
X89564000Y-107344000D01*
X78663000Y-103863000D02*
X78663000Y-102684000D01*
X89564000Y-107344000D02*
X87020000Y-104800000D01*
X87020000Y-104800000D02*
X79600000Y-104800000D01*
X78232000Y-102253000D02*
X78232000Y-88732000D01*
X78146000Y-77130000D02*
X78146000Y-78374000D01*
X73152000Y-75946000D02*
X76962000Y-75946000D01*
X95824000Y-119700000D02*
X94742000Y-118618000D01*
X71882000Y-82382000D02*
X71882000Y-77216000D01*
X104875000Y-118692263D02*
X103867263Y-119700000D01*
X94742000Y-109474000D02*
X92612000Y-107344000D01*
X105375000Y-116894500D02*
X105375000Y-119161000D01*
X71120000Y-82820000D02*
X71120000Y-76708000D01*
X78486000Y-75184000D02*
X80346000Y-77044000D01*
X77216000Y-88916000D02*
X71120000Y-82820000D01*
X105375000Y-119161000D02*
X103936737Y-120599263D01*
X71120000Y-76708000D02*
X72644000Y-75184000D01*
X77216000Y-97984000D02*
X77216000Y-88916000D01*
X73738000Y-101462000D02*
X77216000Y-97984000D01*
X86472672Y-105600000D02*
X75374000Y-105600000D01*
X72644000Y-75184000D02*
X78486000Y-75184000D01*
X80346000Y-77044000D02*
X80346000Y-78374000D01*
X93980000Y-119126000D02*
X93980000Y-109873222D01*
X88822672Y-107950000D02*
X86472672Y-105600000D01*
X103936737Y-120599263D02*
X95453263Y-120599263D01*
X93980000Y-109873222D02*
X92056778Y-107950000D01*
X73738000Y-103964000D02*
X73738000Y-102684000D01*
X92056778Y-107950000D02*
X88822672Y-107950000D01*
X75374000Y-105600000D02*
X73738000Y-103964000D01*
X73738000Y-102684000D02*
X73738000Y-101462000D01*
X95453263Y-120599263D02*
X93980000Y-119126000D01*
D58*
X62484000Y-82872756D02*
X64584756Y-80772000D01*
X62484000Y-84074000D02*
X62484000Y-82872756D01*
X64584756Y-80772000D02*
X67159500Y-80772000D01*
D60*
X96520000Y-95758000D02*
X96862000Y-95416000D01*
X96862000Y-95416000D02*
X98509500Y-95416000D01*
D58*
X58674000Y-86106000D02*
X59944000Y-84836000D01*
X61722000Y-84836000D02*
X62484000Y-84074000D01*
X59944000Y-84836000D02*
X61722000Y-84836000D01*
D60*
X97378000Y-95916000D02*
X98509500Y-95916000D01*
X96520000Y-96774000D02*
X97378000Y-95916000D01*
X97210000Y-94416000D02*
X98509500Y-94416000D01*
D61*
X66294000Y-88646000D02*
X63754000Y-86106000D01*
X66294000Y-89408000D02*
X66294000Y-88646000D01*
D60*
X96520000Y-93726000D02*
X97210000Y-94416000D01*
X63754000Y-85598000D02*
X63754000Y-86106000D01*
X96520000Y-94742000D02*
X96694000Y-94916000D01*
D61*
X70104000Y-89408000D02*
X70104000Y-87376000D01*
D60*
X96694000Y-94916000D02*
X98509500Y-94916000D01*
D61*
X70104000Y-87376000D02*
X68834000Y-86106000D01*
D60*
X129200000Y-81000000D02*
X125900000Y-81000000D01*
X130200000Y-80000000D02*
X129200000Y-81000000D01*
X121484000Y-85416000D02*
X113834500Y-85416000D01*
X125900000Y-81000000D02*
X121484000Y-85416000D01*
X123500000Y-82700000D02*
X121284000Y-84916000D01*
X121284000Y-84916000D02*
X113834500Y-84916000D01*
X123500000Y-79912500D02*
X123500000Y-82700000D01*
X116244000Y-84416000D02*
X113834500Y-84416000D01*
X119735000Y-80078500D02*
X119735000Y-80925000D01*
X119735000Y-80925000D02*
X116244000Y-84416000D01*
X114104000Y-82100000D02*
X117361828Y-82100000D01*
X117361828Y-82100000D02*
X118435000Y-81026828D01*
X112522000Y-80830000D02*
X112834000Y-80830000D01*
X118435000Y-81026828D02*
X118435000Y-80078500D01*
X112172000Y-82253500D02*
X112172000Y-81180000D01*
X112834000Y-80830000D02*
X114104000Y-82100000D01*
X112172000Y-81180000D02*
X112522000Y-80830000D01*
X111672000Y-82253500D02*
X111672000Y-80967184D01*
X113003827Y-80419999D02*
X114273828Y-81690000D01*
X112219184Y-80420000D02*
X113003827Y-80419999D01*
X117192000Y-81690000D02*
X117785000Y-81097000D01*
X114273828Y-81690000D02*
X117192000Y-81690000D01*
X117785000Y-81097000D02*
X117785000Y-80078500D01*
X111672000Y-80967184D02*
X112219184Y-80420000D01*
X114443656Y-81280000D02*
X116840000Y-81280000D01*
X112014000Y-100584000D02*
X112014000Y-109728000D01*
X112289000Y-79735000D02*
X111172000Y-80852000D01*
X112014000Y-109728000D02*
X111760000Y-109982000D01*
X111172000Y-80852000D02*
X111172000Y-82253500D01*
X110760000Y-110982000D02*
X109287500Y-110982000D01*
X116840000Y-81280000D02*
X117135000Y-80985000D01*
X117135000Y-80985000D02*
X117135000Y-80078500D01*
X111760000Y-109982000D02*
X110760000Y-110982000D01*
X112289000Y-79735000D02*
X112898656Y-79735000D01*
X112898656Y-79735000D02*
X114443656Y-81280000D01*
X119085000Y-80078500D02*
X119085000Y-80956656D01*
X119085000Y-80956656D02*
X116125656Y-83916000D01*
X116125656Y-83916000D02*
X113834500Y-83916000D01*
X93239259Y-84838001D02*
X97282000Y-84838001D01*
X88810000Y-79248000D02*
X88810000Y-80408742D01*
X97282000Y-84838001D02*
X97359999Y-84916000D01*
X97359999Y-84916000D02*
X98509500Y-84916000D01*
X88810000Y-80408742D02*
X93239259Y-84838001D01*
X98497499Y-84428001D02*
X98509500Y-84416000D01*
X93409087Y-84428001D02*
X98497499Y-84428001D01*
X89460000Y-79248000D02*
X89460000Y-80478914D01*
X89460000Y-80478914D02*
X93409087Y-84428001D01*
X100172000Y-81376000D02*
X100076000Y-81280000D01*
X90110000Y-80549086D02*
X90110000Y-79248000D01*
X97099827Y-83058001D02*
X92618915Y-83058001D01*
X100076000Y-81280000D02*
X98877828Y-81280000D01*
X92618915Y-83058001D02*
X90110000Y-80549086D01*
X100172000Y-82253500D02*
X100172000Y-81376000D01*
X98877828Y-81280000D02*
X97099827Y-83058001D01*
X98708000Y-80870000D02*
X96930000Y-82648000D01*
X100672000Y-81296172D02*
X100245828Y-80870000D01*
X90760000Y-80619258D02*
X90760000Y-79248000D01*
X96930000Y-82648000D02*
X92788742Y-82648000D01*
X100672000Y-82253500D02*
X100672000Y-81296172D01*
X92788742Y-82648000D02*
X90760000Y-80619258D01*
X100245828Y-80870000D02*
X98708000Y-80870000D01*
X101172000Y-82253500D02*
X101172000Y-81216344D01*
X91410000Y-80689430D02*
X91410000Y-79248000D01*
X98518914Y-80460000D02*
X96740914Y-82238000D01*
X100415656Y-80460000D02*
X98518914Y-80460000D01*
X101172000Y-81216344D02*
X100415656Y-80460000D01*
X92958570Y-82238000D02*
X91410000Y-80689430D01*
X96740914Y-82238000D02*
X92958570Y-82238000D01*
X100585484Y-80050000D02*
X101672000Y-81136516D01*
X93128399Y-81828001D02*
X96571085Y-81828001D01*
X98349086Y-80050000D02*
X100585484Y-80050000D01*
X92060000Y-79248000D02*
X92060000Y-80759602D01*
X92060000Y-80759602D02*
X93128399Y-81828001D01*
X96571085Y-81828001D02*
X98349086Y-80050000D01*
X101672000Y-81136516D02*
X101672000Y-82253500D01*
X102172000Y-81056688D02*
X100755311Y-79639999D01*
X100755311Y-79639999D02*
X98179259Y-79639999D01*
X93298227Y-81418001D02*
X92710000Y-80829774D01*
X102172000Y-82253500D02*
X102172000Y-81056688D01*
X96401257Y-81418001D02*
X93298227Y-81418001D01*
X98179259Y-79639999D02*
X96401257Y-81418001D01*
X92710000Y-80829774D02*
X92710000Y-79248000D01*
X98009431Y-79229999D02*
X100925139Y-79229999D01*
X93360000Y-79248000D02*
X93360000Y-80677957D01*
X100925139Y-79229999D02*
X102672000Y-80976860D01*
X93360000Y-80677957D02*
X93690043Y-81008000D01*
X102672000Y-80976860D02*
X102672000Y-82253500D01*
X96231430Y-81008000D02*
X98009431Y-79229999D01*
X93690043Y-81008000D02*
X96231430Y-81008000D01*
X97112172Y-85248001D02*
X93069431Y-85248001D01*
X93069431Y-85248001D02*
X88160000Y-80338570D01*
X88160000Y-80338570D02*
X88160000Y-79248000D01*
X97280171Y-85416000D02*
X97112172Y-85248001D01*
X98509500Y-85416000D02*
X97280171Y-85416000D01*
X108966000Y-124458000D02*
X108966000Y-125456000D01*
X108456000Y-124458000D02*
X110742000Y-124458000D01*
X110742000Y-124458000D02*
X111252000Y-124968000D01*
X105797000Y-124458000D02*
X108456000Y-124458000D01*
X108452000Y-123958000D02*
X110738000Y-123958000D01*
X110738000Y-123958000D02*
X111252000Y-123444000D01*
X108966000Y-123958000D02*
X108966000Y-122956000D01*
X105797000Y-123958000D02*
X108452000Y-123958000D01*
X107239000Y-123190000D02*
X106971000Y-123458000D01*
X106971000Y-123458000D02*
X105797000Y-123458000D01*
X97339999Y-111779483D02*
X97340000Y-104634172D01*
X88663000Y-100059000D02*
X88663000Y-102684000D01*
X89408000Y-99314000D02*
X88663000Y-100059000D01*
X100962500Y-113482000D02*
X99042516Y-113482000D01*
X97340000Y-104634172D02*
X92019828Y-99314000D01*
X99042516Y-113482000D02*
X97339999Y-111779483D01*
X92019828Y-99314000D02*
X89408000Y-99314000D01*
X141478000Y-114518086D02*
X141478000Y-118313200D01*
X143535400Y-120370600D02*
X146075400Y-120370600D01*
X136870800Y-115501500D02*
X136870800Y-114263372D01*
X141478000Y-118313200D02*
X143535400Y-120370600D01*
X140497914Y-113538000D02*
X141478000Y-114518086D01*
X137596172Y-113538000D02*
X140497914Y-113538000D01*
X136870800Y-114263372D02*
X137596172Y-113538000D01*
X92500000Y-102200000D02*
X93674000Y-102200000D01*
X96519999Y-112119139D02*
X98882860Y-114482000D01*
X69596000Y-101092000D02*
X69538000Y-101150000D01*
X98882860Y-114482000D02*
X100962500Y-114482000D01*
X69538000Y-101150000D02*
X69538000Y-102684000D01*
X93674000Y-102200000D02*
X96520000Y-105046000D01*
X96520000Y-105046000D02*
X96519999Y-112119139D01*
X110998000Y-106454887D02*
X110998000Y-109854328D01*
X108172000Y-97578500D02*
X108172000Y-103628887D01*
X108172000Y-103628887D02*
X110998000Y-106454887D01*
X110370328Y-110482000D02*
X109287500Y-110482000D01*
X110998000Y-109854328D02*
X110370328Y-110482000D01*
X110490000Y-109782500D02*
X110290500Y-109982000D01*
X107672000Y-103737602D02*
X110490000Y-106555602D01*
X110490000Y-106555602D02*
X110490000Y-109782500D01*
X107672000Y-97578500D02*
X107672000Y-103737602D01*
X110290500Y-109982000D02*
X109287500Y-109982000D01*
X107172000Y-97578500D02*
X107172000Y-103817430D01*
X107875000Y-104520430D02*
X107875000Y-108569500D01*
X107172000Y-103817430D02*
X107875000Y-104520430D01*
X107375000Y-104600258D02*
X106672000Y-103897258D01*
X106672000Y-103897258D02*
X106672000Y-97578500D01*
X107375000Y-108569500D02*
X107375000Y-104600258D01*
X106172000Y-103977086D02*
X106875000Y-104680086D01*
X106875000Y-104680086D02*
X106875000Y-108569500D01*
X106172000Y-97578500D02*
X106172000Y-103977086D01*
X106375000Y-108569500D02*
X106375000Y-104759914D01*
X105672000Y-104056914D02*
X105672000Y-97578500D01*
X106375000Y-104759914D02*
X105672000Y-104056914D01*
X105172000Y-104156000D02*
X105875000Y-104859000D01*
X105875000Y-104859000D02*
X105875000Y-108569500D01*
X105172000Y-97578500D02*
X105172000Y-104156000D01*
X105375000Y-108569500D02*
X105375000Y-104938828D01*
X105375000Y-104938828D02*
X104672000Y-104235828D01*
X104672000Y-104235828D02*
X104672000Y-97578500D01*
X102875000Y-106138484D02*
X99353998Y-102617482D01*
X102875000Y-108569500D02*
X102875000Y-106138484D01*
X99353998Y-102617482D02*
X99354000Y-99566516D01*
X100172000Y-98748516D02*
X100172000Y-97578500D01*
X99354000Y-99566516D02*
X100172000Y-98748516D01*
X113109000Y-100130435D02*
X113109000Y-110228828D01*
X111355828Y-111982000D02*
X109287500Y-111982000D01*
X112172000Y-99193435D02*
X113109000Y-100130435D01*
X113109000Y-110228828D02*
X111355828Y-111982000D01*
X112172000Y-97578500D02*
X112172000Y-99193435D01*
X111276000Y-111482000D02*
X109287500Y-111482000D01*
X112699000Y-110059000D02*
X111276000Y-111482000D01*
X111672000Y-99273263D02*
X112699000Y-100300263D01*
X112699000Y-100300263D02*
X112699000Y-110059000D01*
X111672000Y-97578500D02*
X111672000Y-99273263D01*
X103875000Y-108569500D02*
X103875000Y-105978828D01*
X100174000Y-99906172D02*
X101172000Y-98908172D01*
X101172000Y-98908172D02*
X101172000Y-97578500D01*
X103875000Y-105978828D02*
X100174000Y-102277828D01*
X100174000Y-102277828D02*
X100174000Y-99906172D01*
X100584000Y-102108000D02*
X100584000Y-100076000D01*
X100584000Y-100076000D02*
X101672000Y-98988000D01*
X101672000Y-98988000D02*
X101672000Y-97578500D01*
X104375000Y-105899000D02*
X100584000Y-102108000D01*
X104375000Y-108569500D02*
X104375000Y-105899000D01*
X103375000Y-106058656D02*
X99763999Y-102447655D01*
X99764000Y-99736344D02*
X100672000Y-98828344D01*
X100672000Y-98828344D02*
X100672000Y-97578500D01*
X99763999Y-102447655D02*
X99764000Y-99736344D01*
X103375000Y-108569500D02*
X103375000Y-106058656D01*
D58*
X127892000Y-76210500D02*
X126300000Y-77802500D01*
X127892000Y-74909500D02*
X127892000Y-75438000D01*
X127892000Y-75438000D02*
X127892000Y-76210500D01*
X125880500Y-72898000D02*
X127892000Y-74909500D01*
X130432000Y-72898000D02*
X129944500Y-72898000D01*
X132972000Y-75438000D02*
X130432000Y-72898000D01*
X132972000Y-77834500D02*
X133000000Y-77862500D01*
X132972000Y-75438000D02*
X132972000Y-77834500D01*
D59*
X139824000Y-70358000D02*
X143510000Y-66672000D01*
X143510000Y-66672000D02*
X143510000Y-63500000D01*
X143510000Y-63500000D02*
X144494000Y-62516000D01*
X144494000Y-62516000D02*
X146304000Y-62516000D01*
X137922000Y-70358000D02*
X139824000Y-70358000D01*
D60*
X104172000Y-104315656D02*
X104172000Y-97578500D01*
X104875000Y-108569500D02*
X104875000Y-105018656D01*
X104875000Y-105018656D02*
X104172000Y-104315656D01*
X94234000Y-98753430D02*
X99000000Y-103519430D01*
X94234000Y-96550000D02*
X94234000Y-98753430D01*
X99000000Y-111100000D02*
X99882000Y-111982000D01*
X99882000Y-111982000D02*
X100962500Y-111982000D01*
X99000000Y-103519430D02*
X99000000Y-111100000D01*
D58*
X77046000Y-80856000D02*
X77046000Y-78374000D01*
X77450000Y-83162500D02*
X77450000Y-81300000D01*
X77470000Y-81280000D02*
X77046000Y-80856000D01*
X77487500Y-83200000D02*
X77450000Y-83162500D01*
D59*
X125500000Y-88550000D02*
X125500000Y-94850000D01*
X127225000Y-96575000D02*
X127225000Y-97600000D01*
X125500000Y-94850000D02*
X127225000Y-96575000D01*
X125100000Y-97600000D02*
X127225000Y-97600000D01*
D58*
X82100000Y-85987500D02*
X82100000Y-94200000D01*
X80000000Y-97875000D02*
X80000000Y-94200000D01*
X79312500Y-83200000D02*
X82100000Y-85987500D01*
X80700000Y-98575000D02*
X80000000Y-97875000D01*
D59*
X119700000Y-97600000D02*
X123275000Y-97600000D01*
D58*
X82625000Y-100400000D02*
X82725000Y-100500000D01*
X80700000Y-100400000D02*
X82625000Y-100400000D01*
X82725000Y-101122000D02*
X81163000Y-102684000D01*
X82425000Y-100800000D02*
X82725000Y-100500000D01*
X82725000Y-100500000D02*
X82725000Y-101122000D01*
D61*
X99642000Y-122958000D02*
X101397000Y-122958000D01*
X101550000Y-118650000D02*
X102375000Y-117825000D01*
X98800000Y-123800000D02*
X99642000Y-122958000D01*
X102375000Y-117825000D02*
X102375000Y-116894500D01*
X98800000Y-122800000D02*
X99142000Y-122458000D01*
X100225001Y-111482000D02*
X99900000Y-111156999D01*
X99142000Y-122458000D02*
X101397000Y-122458000D01*
X99900000Y-111156999D02*
X99900000Y-109000000D01*
X100962500Y-111482000D02*
X100225001Y-111482000D01*
X98800000Y-124800000D02*
X100142000Y-123458000D01*
X107875000Y-116894500D02*
X108494500Y-116894500D01*
X108494500Y-116894500D02*
X109000000Y-117400000D01*
X100142000Y-123458000D02*
X101397000Y-123458000D01*
X100962500Y-109982000D02*
X100962500Y-108862500D01*
X100962500Y-108862500D02*
X99900000Y-107800000D01*
G04 #@! TA.AperFunction,Conductor*
G36*
X149843039Y-59719685D02*
G01*
X149888794Y-59772489D01*
X149900000Y-59824000D01*
X149900000Y-61000000D01*
X151576000Y-61000000D01*
X151643039Y-61019685D01*
X151688794Y-61072489D01*
X151700000Y-61124000D01*
X151700000Y-89776000D01*
X151680315Y-89843039D01*
X151627511Y-89888794D01*
X151576000Y-89900000D01*
X145454500Y-89900000D01*
X145387461Y-89880315D01*
X145341706Y-89827511D01*
X145330500Y-89776000D01*
X145330500Y-86825096D01*
X147192000Y-86825096D01*
X147194897Y-86867824D01*
X147240831Y-87052523D01*
X147325390Y-87223022D01*
X147325392Y-87223025D01*
X147444632Y-87371366D01*
X147444633Y-87371367D01*
X147592974Y-87490607D01*
X147592977Y-87490609D01*
X147763476Y-87575168D01*
X147948175Y-87621102D01*
X147990903Y-87624000D01*
X148442000Y-87624000D01*
X148942000Y-87624000D01*
X149393097Y-87624000D01*
X149435824Y-87621102D01*
X149620523Y-87575168D01*
X149791022Y-87490609D01*
X149791025Y-87490607D01*
X149939366Y-87371367D01*
X149939367Y-87371366D01*
X150058607Y-87223025D01*
X150058609Y-87223022D01*
X150143168Y-87052523D01*
X150189102Y-86867824D01*
X150192000Y-86825096D01*
X150192000Y-86624000D01*
X148942000Y-86624000D01*
X148942000Y-87624000D01*
X148442000Y-87624000D01*
X148442000Y-86624000D01*
X147192000Y-86624000D01*
X147192000Y-86825096D01*
X145330500Y-86825096D01*
X145330500Y-84748500D01*
X145350185Y-84681461D01*
X145402989Y-84635706D01*
X145454500Y-84624500D01*
X147486929Y-84624500D01*
X147553968Y-84644185D01*
X147599723Y-84696989D01*
X147602284Y-84703011D01*
X147604635Y-84708975D01*
X147691921Y-84824078D01*
X147807025Y-84911364D01*
X147836286Y-84922903D01*
X147891431Y-84965808D01*
X147914625Y-85031715D01*
X147898505Y-85099700D01*
X147848189Y-85148177D01*
X147820726Y-85158592D01*
X147763483Y-85172828D01*
X147763476Y-85172831D01*
X147592977Y-85257390D01*
X147592974Y-85257392D01*
X147444633Y-85376632D01*
X147444632Y-85376633D01*
X147325392Y-85524974D01*
X147325390Y-85524977D01*
X147240831Y-85695476D01*
X147194897Y-85880175D01*
X147192000Y-85922903D01*
X147192000Y-86124000D01*
X150192000Y-86124000D01*
X150192000Y-85922903D01*
X150189102Y-85880175D01*
X150143168Y-85695476D01*
X150058609Y-85524977D01*
X150058607Y-85524974D01*
X149939367Y-85376633D01*
X149939366Y-85376632D01*
X149791025Y-85257392D01*
X149791022Y-85257390D01*
X149620523Y-85172831D01*
X149620516Y-85172828D01*
X149563273Y-85158592D01*
X149502966Y-85123309D01*
X149471309Y-85061023D01*
X149478351Y-84991509D01*
X149521857Y-84936838D01*
X149547706Y-84922906D01*
X149576975Y-84911364D01*
X149692078Y-84824078D01*
X149779364Y-84708975D01*
X149832359Y-84574590D01*
X149842500Y-84490144D01*
X149842500Y-83657856D01*
X149832359Y-83573410D01*
X149779364Y-83439025D01*
X149779363Y-83439024D01*
X149779363Y-83439023D01*
X149692078Y-83323921D01*
X149576976Y-83236636D01*
X149442588Y-83183640D01*
X149399242Y-83178435D01*
X149358144Y-83173500D01*
X148025856Y-83173500D01*
X147987841Y-83178065D01*
X147941411Y-83183640D01*
X147807023Y-83236636D01*
X147691921Y-83323921D01*
X147604635Y-83439024D01*
X147602284Y-83444989D01*
X147559378Y-83500133D01*
X147493471Y-83523327D01*
X147486929Y-83523500D01*
X143666500Y-83523500D01*
X143599461Y-83503815D01*
X143553706Y-83451011D01*
X143542500Y-83399500D01*
X143542500Y-82608313D01*
X143542499Y-82608298D01*
X143539598Y-82571432D01*
X143539597Y-82571426D01*
X143493745Y-82413606D01*
X143493744Y-82413603D01*
X143493744Y-82413602D01*
X143410081Y-82272135D01*
X143410079Y-82272133D01*
X143410076Y-82272129D01*
X143293870Y-82155923D01*
X143293862Y-82155917D01*
X143152396Y-82072255D01*
X143152393Y-82072254D01*
X142994573Y-82026402D01*
X142994567Y-82026401D01*
X142957701Y-82023500D01*
X142957694Y-82023500D01*
X141826306Y-82023500D01*
X141826298Y-82023500D01*
X141789432Y-82026401D01*
X141789426Y-82026402D01*
X141631606Y-82072254D01*
X141631603Y-82072255D01*
X141490137Y-82155917D01*
X141490129Y-82155923D01*
X141373923Y-82272129D01*
X141373917Y-82272137D01*
X141290255Y-82413603D01*
X141290254Y-82413606D01*
X141244402Y-82571426D01*
X141244401Y-82571432D01*
X141241500Y-82608298D01*
X141241500Y-85539701D01*
X141244401Y-85576567D01*
X141244402Y-85576573D01*
X141290254Y-85734393D01*
X141290255Y-85734396D01*
X141373917Y-85875862D01*
X141373923Y-85875870D01*
X141490129Y-85992076D01*
X141490133Y-85992079D01*
X141490135Y-85992081D01*
X141631602Y-86075744D01*
X141669722Y-86086819D01*
X141789426Y-86121597D01*
X141789429Y-86121597D01*
X141789431Y-86121598D01*
X141826306Y-86124500D01*
X141826314Y-86124500D01*
X142957686Y-86124500D01*
X142957694Y-86124500D01*
X142994569Y-86121598D01*
X142994571Y-86121597D01*
X142994573Y-86121597D01*
X143036191Y-86109505D01*
X143152398Y-86075744D01*
X143293865Y-85992081D01*
X143410081Y-85875865D01*
X143493744Y-85734398D01*
X143539598Y-85576569D01*
X143542500Y-85539694D01*
X143542500Y-84748500D01*
X143562185Y-84681461D01*
X143614989Y-84635706D01*
X143666500Y-84624500D01*
X144105500Y-84624500D01*
X144172539Y-84644185D01*
X144218294Y-84696989D01*
X144229500Y-84748500D01*
X144229500Y-90554613D01*
X144209815Y-90621652D01*
X144193181Y-90642294D01*
X143319614Y-91515860D01*
X143258291Y-91549345D01*
X143188599Y-91544361D01*
X143144250Y-91515858D01*
X143128346Y-91499953D01*
X143128344Y-91499952D01*
X143128342Y-91499950D01*
X143051517Y-91460805D01*
X143015301Y-91442352D01*
X142921524Y-91427500D01*
X141558482Y-91427500D01*
X141477519Y-91440323D01*
X141464696Y-91442354D01*
X141351658Y-91499950D01*
X141351657Y-91499951D01*
X141351656Y-91499951D01*
X141318542Y-91533066D01*
X141285425Y-91566182D01*
X141224105Y-91599666D01*
X141197746Y-91602500D01*
X140692387Y-91602500D01*
X140625348Y-91582815D01*
X140604706Y-91566181D01*
X139270819Y-90232294D01*
X139237334Y-90170971D01*
X139234500Y-90144613D01*
X139234500Y-89577986D01*
X140840001Y-89577986D01*
X140850494Y-89680697D01*
X140905641Y-89847119D01*
X140905643Y-89847124D01*
X140997684Y-89996345D01*
X141121654Y-90120315D01*
X141270875Y-90212356D01*
X141270880Y-90212358D01*
X141437302Y-90267505D01*
X141437309Y-90267506D01*
X141540019Y-90277999D01*
X141989999Y-90277999D01*
X142490000Y-90277999D01*
X142939972Y-90277999D01*
X142939986Y-90277998D01*
X143042697Y-90267505D01*
X143209119Y-90212358D01*
X143209124Y-90212356D01*
X143358345Y-90120315D01*
X143482315Y-89996345D01*
X143574356Y-89847124D01*
X143574358Y-89847119D01*
X143629505Y-89680697D01*
X143629506Y-89680690D01*
X143639999Y-89577986D01*
X143640000Y-89577973D01*
X143640000Y-89453000D01*
X142490000Y-89453000D01*
X142490000Y-90277999D01*
X141989999Y-90277999D01*
X141990000Y-90277998D01*
X141990000Y-89453000D01*
X140840001Y-89453000D01*
X140840001Y-89577986D01*
X139234500Y-89577986D01*
X139234500Y-88828013D01*
X140840000Y-88828013D01*
X140840000Y-88953000D01*
X141990000Y-88953000D01*
X142490000Y-88953000D01*
X143639999Y-88953000D01*
X143639999Y-88828028D01*
X143639998Y-88828013D01*
X143629505Y-88725302D01*
X143574358Y-88558880D01*
X143574356Y-88558875D01*
X143482315Y-88409654D01*
X143358345Y-88285684D01*
X143209124Y-88193643D01*
X143209119Y-88193641D01*
X143042697Y-88138494D01*
X143042690Y-88138493D01*
X142939986Y-88128000D01*
X142490000Y-88128000D01*
X142490000Y-88953000D01*
X141990000Y-88953000D01*
X141990000Y-88128000D01*
X141540028Y-88128000D01*
X141540012Y-88128001D01*
X141437302Y-88138494D01*
X141270880Y-88193641D01*
X141270875Y-88193643D01*
X141121654Y-88285684D01*
X140997684Y-88409654D01*
X140905643Y-88558875D01*
X140905641Y-88558880D01*
X140850494Y-88725302D01*
X140850493Y-88725309D01*
X140840000Y-88828013D01*
X139234500Y-88828013D01*
X139234500Y-87674206D01*
X139235561Y-87658020D01*
X139239250Y-87630000D01*
X139239250Y-87629998D01*
X139235561Y-87601978D01*
X139234500Y-87585793D01*
X139234500Y-87557524D01*
X139232320Y-87549391D01*
X139227181Y-87530212D01*
X139224019Y-87514317D01*
X139220330Y-87486291D01*
X139209511Y-87460172D01*
X139204299Y-87444818D01*
X139196984Y-87417515D01*
X139192438Y-87409641D01*
X139182851Y-87393035D01*
X139175677Y-87378488D01*
X139172695Y-87371289D01*
X139164861Y-87352375D01*
X139147654Y-87329950D01*
X139138643Y-87316464D01*
X139131405Y-87303928D01*
X139124510Y-87291985D01*
X139104520Y-87271995D01*
X139093825Y-87259800D01*
X139076619Y-87237377D01*
X139054198Y-87220173D01*
X139042003Y-87209478D01*
X136892016Y-85059491D01*
X136892015Y-85059490D01*
X136766485Y-84987016D01*
X136766480Y-84987014D01*
X136719776Y-84974499D01*
X136719776Y-84974500D01*
X136673125Y-84962000D01*
X136626475Y-84949500D01*
X133472475Y-84949500D01*
X125727525Y-84949500D01*
X125634229Y-84974499D01*
X125587514Y-84987016D01*
X125461986Y-85059489D01*
X125461983Y-85059491D01*
X123158294Y-87363181D01*
X123096971Y-87396666D01*
X123070613Y-87399500D01*
X122783856Y-87399500D01*
X122745841Y-87404065D01*
X122699411Y-87409640D01*
X122565023Y-87462636D01*
X122449921Y-87549921D01*
X122362636Y-87665023D01*
X122309640Y-87799411D01*
X122304065Y-87845841D01*
X122299500Y-87883856D01*
X122299500Y-89216144D01*
X122304825Y-89260494D01*
X122309640Y-89300588D01*
X122362636Y-89434976D01*
X122449921Y-89550078D01*
X122565023Y-89637363D01*
X122565024Y-89637363D01*
X122565025Y-89637364D01*
X122699410Y-89690359D01*
X122783856Y-89700500D01*
X122783862Y-89700500D01*
X123616138Y-89700500D01*
X123616144Y-89700500D01*
X123700590Y-89690359D01*
X123834975Y-89637364D01*
X123950078Y-89550078D01*
X124037364Y-89434975D01*
X124090359Y-89300590D01*
X124100500Y-89216144D01*
X124100500Y-88029387D01*
X124120185Y-87962348D01*
X124136819Y-87941706D01*
X124256819Y-87821706D01*
X124403284Y-87675240D01*
X124464605Y-87641757D01*
X124534296Y-87646741D01*
X124590230Y-87688612D01*
X124614647Y-87754077D01*
X124611183Y-87793307D01*
X124609641Y-87799406D01*
X124605584Y-87833188D01*
X124599500Y-87883856D01*
X124599500Y-89216144D01*
X124604825Y-89260494D01*
X124609640Y-89300588D01*
X124662636Y-89434976D01*
X124749921Y-89550078D01*
X124865021Y-89637361D01*
X124865025Y-89637364D01*
X124870988Y-89639715D01*
X124926131Y-89682617D01*
X124949327Y-89748524D01*
X124949500Y-89755070D01*
X124949500Y-93575500D01*
X124929815Y-93642539D01*
X124877011Y-93688294D01*
X124825500Y-93699500D01*
X124034298Y-93699500D01*
X123997432Y-93702401D01*
X123997426Y-93702402D01*
X123839606Y-93748254D01*
X123839603Y-93748255D01*
X123698137Y-93831917D01*
X123698129Y-93831923D01*
X123581923Y-93948129D01*
X123581917Y-93948137D01*
X123498255Y-94089603D01*
X123498254Y-94089606D01*
X123452402Y-94247426D01*
X123452401Y-94247432D01*
X123449500Y-94284298D01*
X123449500Y-95415701D01*
X123452401Y-95452567D01*
X123452402Y-95452573D01*
X123498254Y-95610393D01*
X123498255Y-95610396D01*
X123581917Y-95751862D01*
X123581923Y-95751870D01*
X123698129Y-95868076D01*
X123698133Y-95868079D01*
X123698135Y-95868081D01*
X123839602Y-95951744D01*
X123862481Y-95958391D01*
X123997426Y-95997597D01*
X123997429Y-95997597D01*
X123997431Y-95997598D01*
X124034306Y-96000500D01*
X125820613Y-96000500D01*
X125887652Y-96020185D01*
X125908294Y-96036819D01*
X126512020Y-96640545D01*
X126545505Y-96701868D01*
X126540521Y-96771560D01*
X126534824Y-96784520D01*
X126514353Y-96824695D01*
X126514352Y-96824698D01*
X126499500Y-96918475D01*
X126499500Y-96925500D01*
X126479815Y-96992539D01*
X126427011Y-97038294D01*
X126375500Y-97049500D01*
X125836772Y-97049500D01*
X125769733Y-97029815D01*
X125726288Y-96981796D01*
X125694027Y-96918482D01*
X125690550Y-96911658D01*
X125690547Y-96911655D01*
X125690545Y-96911652D01*
X125600847Y-96821954D01*
X125600844Y-96821952D01*
X125600842Y-96821950D01*
X125493700Y-96767358D01*
X125487801Y-96764352D01*
X125394024Y-96749500D01*
X124805982Y-96749500D01*
X124725019Y-96762323D01*
X124712196Y-96764354D01*
X124599158Y-96821950D01*
X124599157Y-96821951D01*
X124599152Y-96821954D01*
X124509454Y-96911652D01*
X124509451Y-96911657D01*
X124509450Y-96911658D01*
X124505973Y-96918482D01*
X124451852Y-97024698D01*
X124437000Y-97118475D01*
X124437000Y-98081517D01*
X124447792Y-98149657D01*
X124451854Y-98175304D01*
X124509450Y-98288342D01*
X124509452Y-98288344D01*
X124509454Y-98288347D01*
X124599152Y-98378045D01*
X124599154Y-98378046D01*
X124599158Y-98378050D01*
X124701019Y-98429951D01*
X124712198Y-98435647D01*
X124805975Y-98450499D01*
X124805981Y-98450500D01*
X125394018Y-98450499D01*
X125487804Y-98435646D01*
X125600842Y-98378050D01*
X125690550Y-98288342D01*
X125726287Y-98218203D01*
X125774261Y-98167409D01*
X125836771Y-98150500D01*
X126375501Y-98150500D01*
X126442540Y-98170185D01*
X126488295Y-98222989D01*
X126499501Y-98274500D01*
X126499501Y-98281518D01*
X126514354Y-98375304D01*
X126571950Y-98488342D01*
X126571952Y-98488344D01*
X126571954Y-98488347D01*
X126661652Y-98578045D01*
X126661654Y-98578046D01*
X126661658Y-98578050D01*
X126774694Y-98635645D01*
X126774698Y-98635647D01*
X126868475Y-98650499D01*
X126868481Y-98650500D01*
X127581518Y-98650499D01*
X127675304Y-98635646D01*
X127788342Y-98578050D01*
X127878050Y-98488342D01*
X127935646Y-98375304D01*
X127935646Y-98375302D01*
X127935647Y-98375301D01*
X127947575Y-98299986D01*
X129100001Y-98299986D01*
X129110494Y-98402697D01*
X129165641Y-98569119D01*
X129165643Y-98569123D01*
X129257684Y-98718345D01*
X129381654Y-98842315D01*
X129530875Y-98934356D01*
X129530880Y-98934358D01*
X129697302Y-98989505D01*
X129697309Y-98989506D01*
X129800019Y-98999999D01*
X129924999Y-98999999D01*
X130425000Y-98999999D01*
X130549972Y-98999999D01*
X130549986Y-98999998D01*
X130652697Y-98989505D01*
X130819119Y-98934358D01*
X130819124Y-98934356D01*
X130968345Y-98842315D01*
X131092315Y-98718345D01*
X131184357Y-98569123D01*
X131184358Y-98569119D01*
X131239505Y-98402697D01*
X131239506Y-98402690D01*
X131249999Y-98299986D01*
X131250000Y-98299973D01*
X131250000Y-97850000D01*
X130425000Y-97850000D01*
X130425000Y-98999999D01*
X129924999Y-98999999D01*
X129925000Y-98999998D01*
X129925000Y-97850000D01*
X129100001Y-97850000D01*
X129100001Y-98299986D01*
X127947575Y-98299986D01*
X127947577Y-98299973D01*
X127950500Y-98281519D01*
X127950499Y-96918482D01*
X127947574Y-96900013D01*
X129100000Y-96900013D01*
X129100000Y-97350000D01*
X129925000Y-97350000D01*
X130425000Y-97350000D01*
X131249999Y-97350000D01*
X131249999Y-96900028D01*
X131249998Y-96900013D01*
X131239505Y-96797302D01*
X131184357Y-96630877D01*
X131184356Y-96630875D01*
X131092315Y-96481654D01*
X130968345Y-96357684D01*
X130819124Y-96265643D01*
X130819119Y-96265641D01*
X130652697Y-96210494D01*
X130652690Y-96210493D01*
X130549986Y-96200000D01*
X130425000Y-96200000D01*
X130425000Y-97350000D01*
X129925000Y-97350000D01*
X129925000Y-96200000D01*
X129800027Y-96200000D01*
X129800012Y-96200001D01*
X129697302Y-96210494D01*
X129530880Y-96265641D01*
X129530875Y-96265643D01*
X129381654Y-96357684D01*
X129257684Y-96481654D01*
X129165643Y-96630875D01*
X129165643Y-96630877D01*
X129110494Y-96797302D01*
X129110493Y-96797309D01*
X129100000Y-96900013D01*
X127947574Y-96900013D01*
X127935646Y-96824696D01*
X127878050Y-96711658D01*
X127878046Y-96711654D01*
X127878045Y-96711652D01*
X127811819Y-96645426D01*
X127778334Y-96584103D01*
X127775500Y-96557745D01*
X127775500Y-96502527D01*
X127775500Y-96502525D01*
X127737984Y-96362515D01*
X127730768Y-96350016D01*
X127729893Y-96348500D01*
X127665512Y-96236988D01*
X127665508Y-96236983D01*
X127386916Y-95958391D01*
X127353431Y-95897068D01*
X127358415Y-95827376D01*
X127386914Y-95783031D01*
X127418081Y-95751865D01*
X127501744Y-95610398D01*
X127547598Y-95452569D01*
X127550500Y-95415694D01*
X127550500Y-94284306D01*
X127550499Y-94284298D01*
X131949500Y-94284298D01*
X131949500Y-95415701D01*
X131952401Y-95452567D01*
X131952402Y-95452573D01*
X131998254Y-95610393D01*
X131998255Y-95610396D01*
X132081917Y-95751862D01*
X132081923Y-95751870D01*
X132198129Y-95868076D01*
X132198133Y-95868079D01*
X132198135Y-95868081D01*
X132339602Y-95951744D01*
X132362481Y-95958391D01*
X132497426Y-95997597D01*
X132497429Y-95997597D01*
X132497431Y-95997598D01*
X132534306Y-96000500D01*
X133325500Y-96000500D01*
X133392539Y-96020185D01*
X133438294Y-96072989D01*
X133449500Y-96124500D01*
X133449500Y-96272475D01*
X133487016Y-96412485D01*
X133559490Y-96538015D01*
X134811986Y-97790510D01*
X134828950Y-97800304D01*
X134937515Y-97862984D01*
X135077525Y-97900500D01*
X135077526Y-97900500D01*
X135222474Y-97900500D01*
X136357746Y-97900500D01*
X136424785Y-97920185D01*
X136445422Y-97936814D01*
X136511658Y-98003050D01*
X136613517Y-98054950D01*
X136624698Y-98060647D01*
X136718475Y-98075499D01*
X136718481Y-98075500D01*
X138081518Y-98075499D01*
X138175304Y-98060646D01*
X138288342Y-98003050D01*
X138354574Y-97936817D01*
X138415895Y-97903334D01*
X138442254Y-97900500D01*
X139122472Y-97900500D01*
X139122474Y-97900500D01*
X139122475Y-97900500D01*
X139262485Y-97862984D01*
X139388015Y-97790510D01*
X139758008Y-97420515D01*
X139770187Y-97409834D01*
X139792621Y-97392621D01*
X139809825Y-97370198D01*
X139820511Y-97358012D01*
X139840510Y-97338015D01*
X139854648Y-97313526D01*
X139863650Y-97300053D01*
X139880861Y-97277625D01*
X139891679Y-97251506D01*
X139898848Y-97236968D01*
X139912984Y-97212485D01*
X139920299Y-97185179D01*
X139925510Y-97169827D01*
X139936330Y-97143709D01*
X139940019Y-97115684D01*
X139943183Y-97099779D01*
X139946603Y-97087016D01*
X139950500Y-97072474D01*
X139950500Y-97044206D01*
X139951561Y-97028020D01*
X139951999Y-97024697D01*
X139955250Y-97000000D01*
X139952853Y-96981796D01*
X139951561Y-96971978D01*
X139950500Y-96955793D01*
X139950500Y-96927528D01*
X139950500Y-96927526D01*
X139943182Y-96900217D01*
X139940019Y-96884312D01*
X139936330Y-96856291D01*
X139925512Y-96830174D01*
X139920299Y-96814818D01*
X139912984Y-96787515D01*
X139898848Y-96763031D01*
X139891678Y-96748491D01*
X139880861Y-96722375D01*
X139863654Y-96699950D01*
X139854643Y-96686464D01*
X139848206Y-96675315D01*
X139840510Y-96661985D01*
X139820516Y-96641991D01*
X139809825Y-96629800D01*
X139803801Y-96621950D01*
X139792621Y-96607379D01*
X139770195Y-96590171D01*
X139758009Y-96579484D01*
X139738015Y-96559490D01*
X139738014Y-96559489D01*
X139713535Y-96545356D01*
X139700052Y-96536347D01*
X139677629Y-96519142D01*
X139677628Y-96519141D01*
X139677625Y-96519139D01*
X139651509Y-96508321D01*
X139636977Y-96501156D01*
X139612485Y-96487016D01*
X139612482Y-96487015D01*
X139612480Y-96487014D01*
X139585173Y-96479697D01*
X139569819Y-96474485D01*
X139543709Y-96463670D01*
X139515676Y-96459978D01*
X139499785Y-96456817D01*
X139472474Y-96449500D01*
X139444206Y-96449500D01*
X139428020Y-96448439D01*
X139400001Y-96444750D01*
X139399999Y-96444750D01*
X139371980Y-96448439D01*
X139355794Y-96449500D01*
X139327520Y-96449500D01*
X139300216Y-96456816D01*
X139284318Y-96459978D01*
X139256295Y-96463668D01*
X139256294Y-96463668D01*
X139230168Y-96474489D01*
X139214820Y-96479699D01*
X139207525Y-96481654D01*
X139187515Y-96487016D01*
X139187514Y-96487016D01*
X139187512Y-96487017D01*
X139163028Y-96501151D01*
X139148493Y-96508319D01*
X139122376Y-96519138D01*
X139122375Y-96519138D01*
X139099945Y-96536348D01*
X139086472Y-96545350D01*
X139061986Y-96559488D01*
X139041990Y-96579484D01*
X139029802Y-96590172D01*
X139007378Y-96607379D01*
X138990172Y-96629801D01*
X138979482Y-96641991D01*
X138858294Y-96763181D01*
X138796971Y-96796666D01*
X138770612Y-96799500D01*
X138442254Y-96799500D01*
X138375215Y-96779815D01*
X138354577Y-96763185D01*
X138288342Y-96696950D01*
X138219714Y-96661982D01*
X138175301Y-96639352D01*
X138081524Y-96624500D01*
X136718482Y-96624500D01*
X136644308Y-96636248D01*
X136624696Y-96639354D01*
X136511658Y-96696950D01*
X136511657Y-96696951D01*
X136511656Y-96696951D01*
X136486234Y-96722374D01*
X136445425Y-96763182D01*
X136384105Y-96796666D01*
X136357746Y-96799500D01*
X135429386Y-96799500D01*
X135362347Y-96779815D01*
X135341705Y-96763181D01*
X134790706Y-96212181D01*
X134757221Y-96150858D01*
X134758499Y-96132986D01*
X140000001Y-96132986D01*
X140010494Y-96235697D01*
X140065641Y-96402119D01*
X140065643Y-96402124D01*
X140157684Y-96551345D01*
X140281654Y-96675315D01*
X140430875Y-96767356D01*
X140430880Y-96767358D01*
X140597302Y-96822505D01*
X140597309Y-96822506D01*
X140700019Y-96832999D01*
X141149999Y-96832999D01*
X141650000Y-96832999D01*
X142099972Y-96832999D01*
X142099986Y-96832998D01*
X142202697Y-96822505D01*
X142369119Y-96767358D01*
X142369124Y-96767356D01*
X142518345Y-96675315D01*
X142642315Y-96551345D01*
X142734356Y-96402124D01*
X142734358Y-96402119D01*
X142789505Y-96235697D01*
X142789506Y-96235690D01*
X142799999Y-96132986D01*
X142800000Y-96132973D01*
X142800000Y-96008000D01*
X141650000Y-96008000D01*
X141650000Y-96832999D01*
X141149999Y-96832999D01*
X141150000Y-96832998D01*
X141150000Y-96008000D01*
X140000001Y-96008000D01*
X140000001Y-96132986D01*
X134758499Y-96132986D01*
X134762205Y-96081166D01*
X134804077Y-96025233D01*
X134869541Y-96000816D01*
X134878387Y-96000500D01*
X135465686Y-96000500D01*
X135465694Y-96000500D01*
X135502569Y-95997598D01*
X135502571Y-95997597D01*
X135502573Y-95997597D01*
X135544191Y-95985505D01*
X135660398Y-95951744D01*
X135801865Y-95868081D01*
X135918081Y-95751865D01*
X136001744Y-95610398D01*
X136047598Y-95452569D01*
X136050500Y-95415694D01*
X136050500Y-95383013D01*
X140000000Y-95383013D01*
X140000000Y-95508000D01*
X141150000Y-95508000D01*
X141650000Y-95508000D01*
X142799999Y-95508000D01*
X142799999Y-95383028D01*
X142799998Y-95383013D01*
X142789505Y-95280302D01*
X142734358Y-95113880D01*
X142734356Y-95113875D01*
X142642315Y-94964654D01*
X142518345Y-94840684D01*
X142369124Y-94748643D01*
X142369119Y-94748641D01*
X142202697Y-94693494D01*
X142202690Y-94693493D01*
X142099986Y-94683000D01*
X141650000Y-94683000D01*
X141650000Y-95508000D01*
X141150000Y-95508000D01*
X141150000Y-94683000D01*
X140700028Y-94683000D01*
X140700012Y-94683001D01*
X140597302Y-94693494D01*
X140430880Y-94748641D01*
X140430875Y-94748643D01*
X140281654Y-94840684D01*
X140157684Y-94964654D01*
X140065643Y-95113875D01*
X140065641Y-95113880D01*
X140010494Y-95280302D01*
X140010493Y-95280309D01*
X140000000Y-95383013D01*
X136050500Y-95383013D01*
X136050500Y-94284306D01*
X136047598Y-94247431D01*
X136001744Y-94089602D01*
X135918081Y-93948135D01*
X135918079Y-93948133D01*
X135918076Y-93948129D01*
X135801870Y-93831923D01*
X135801862Y-93831917D01*
X135660396Y-93748255D01*
X135660393Y-93748254D01*
X135502573Y-93702402D01*
X135502567Y-93702401D01*
X135465701Y-93699500D01*
X135465694Y-93699500D01*
X134674500Y-93699500D01*
X134607461Y-93679815D01*
X134561706Y-93627011D01*
X134550500Y-93575500D01*
X134550500Y-89755070D01*
X134570185Y-89688031D01*
X134622989Y-89642276D01*
X134628973Y-89639730D01*
X134634975Y-89637364D01*
X134750078Y-89550078D01*
X134837364Y-89434975D01*
X134848904Y-89405711D01*
X134891807Y-89350569D01*
X134957714Y-89327374D01*
X135025699Y-89343493D01*
X135074177Y-89393809D01*
X135084592Y-89421273D01*
X135098828Y-89478516D01*
X135098831Y-89478523D01*
X135183390Y-89649022D01*
X135183392Y-89649025D01*
X135302632Y-89797366D01*
X135302633Y-89797367D01*
X135450974Y-89916607D01*
X135450977Y-89916609D01*
X135621476Y-90001168D01*
X135806175Y-90047102D01*
X135848903Y-90050000D01*
X136050000Y-90050000D01*
X136550000Y-90050000D01*
X136751097Y-90050000D01*
X136793824Y-90047102D01*
X136978523Y-90001168D01*
X137149022Y-89916609D01*
X137149025Y-89916607D01*
X137297366Y-89797367D01*
X137297367Y-89797366D01*
X137416607Y-89649025D01*
X137416609Y-89649022D01*
X137501168Y-89478523D01*
X137547102Y-89293824D01*
X137550000Y-89251096D01*
X137550000Y-88800000D01*
X136550000Y-88800000D01*
X136550000Y-90050000D01*
X136050000Y-90050000D01*
X136050000Y-87050000D01*
X135848903Y-87050000D01*
X135806175Y-87052897D01*
X135621476Y-87098831D01*
X135450977Y-87183390D01*
X135450974Y-87183392D01*
X135302633Y-87302632D01*
X135302632Y-87302633D01*
X135183392Y-87450974D01*
X135183390Y-87450977D01*
X135098831Y-87621476D01*
X135098828Y-87621483D01*
X135084592Y-87678726D01*
X135049309Y-87739033D01*
X134987023Y-87770690D01*
X134917509Y-87763648D01*
X134862838Y-87720142D01*
X134848903Y-87694286D01*
X134846665Y-87688612D01*
X134837364Y-87665025D01*
X134783443Y-87593920D01*
X134750078Y-87549921D01*
X134634976Y-87462636D01*
X134500588Y-87409640D01*
X134457242Y-87404435D01*
X134416144Y-87399500D01*
X133583856Y-87399500D01*
X133545841Y-87404065D01*
X133499411Y-87409640D01*
X133365023Y-87462636D01*
X133249921Y-87549921D01*
X133162636Y-87665023D01*
X133109640Y-87799411D01*
X133104065Y-87845841D01*
X133099500Y-87883856D01*
X133099500Y-89216144D01*
X133104825Y-89260494D01*
X133109640Y-89300588D01*
X133162636Y-89434976D01*
X133249921Y-89550078D01*
X133365021Y-89637361D01*
X133365025Y-89637364D01*
X133370988Y-89639715D01*
X133426131Y-89682617D01*
X133449327Y-89748524D01*
X133449500Y-89755070D01*
X133449500Y-93575500D01*
X133429815Y-93642539D01*
X133377011Y-93688294D01*
X133325500Y-93699500D01*
X132534298Y-93699500D01*
X132497432Y-93702401D01*
X132497426Y-93702402D01*
X132339606Y-93748254D01*
X132339603Y-93748255D01*
X132198137Y-93831917D01*
X132198129Y-93831923D01*
X132081923Y-93948129D01*
X132081917Y-93948137D01*
X131998255Y-94089603D01*
X131998254Y-94089606D01*
X131952402Y-94247426D01*
X131952401Y-94247432D01*
X131949500Y-94284298D01*
X127550499Y-94284298D01*
X127547598Y-94247431D01*
X127501744Y-94089602D01*
X127418081Y-93948135D01*
X127418079Y-93948133D01*
X127418076Y-93948129D01*
X127301870Y-93831923D01*
X127301862Y-93831917D01*
X127160396Y-93748255D01*
X127160393Y-93748254D01*
X127002573Y-93702402D01*
X127002567Y-93702401D01*
X126965701Y-93699500D01*
X126965694Y-93699500D01*
X126174500Y-93699500D01*
X126107461Y-93679815D01*
X126061706Y-93627011D01*
X126050500Y-93575500D01*
X126050500Y-89755070D01*
X126070185Y-89688031D01*
X126122989Y-89642276D01*
X126128973Y-89639730D01*
X126134975Y-89637364D01*
X126250078Y-89550078D01*
X126337364Y-89434975D01*
X126348904Y-89405711D01*
X126391807Y-89350569D01*
X126457714Y-89327374D01*
X126525699Y-89343493D01*
X126574177Y-89393809D01*
X126584592Y-89421273D01*
X126598828Y-89478516D01*
X126598831Y-89478523D01*
X126683390Y-89649022D01*
X126683392Y-89649025D01*
X126802632Y-89797366D01*
X126802633Y-89797367D01*
X126950974Y-89916607D01*
X126950977Y-89916609D01*
X127121476Y-90001168D01*
X127306175Y-90047102D01*
X127348903Y-90050000D01*
X127550000Y-90050000D01*
X128050000Y-90050000D01*
X128251097Y-90050000D01*
X128293824Y-90047102D01*
X128478523Y-90001168D01*
X128649022Y-89916609D01*
X128649025Y-89916607D01*
X128797366Y-89797367D01*
X128797367Y-89797366D01*
X128916607Y-89649025D01*
X128916609Y-89649022D01*
X129001168Y-89478523D01*
X129047102Y-89293824D01*
X129050000Y-89251096D01*
X129050000Y-88800000D01*
X128050000Y-88800000D01*
X128050000Y-90050000D01*
X127550000Y-90050000D01*
X127550000Y-88300000D01*
X128050000Y-88300000D01*
X129050000Y-88300000D01*
X129050000Y-87848903D01*
X129047102Y-87806175D01*
X129001168Y-87621476D01*
X128916609Y-87450977D01*
X128916607Y-87450974D01*
X128797367Y-87302633D01*
X128797366Y-87302632D01*
X128649025Y-87183392D01*
X128649022Y-87183390D01*
X128478523Y-87098831D01*
X128293824Y-87052897D01*
X128251097Y-87050000D01*
X128050000Y-87050000D01*
X128050000Y-88300000D01*
X127550000Y-88300000D01*
X127550000Y-87050000D01*
X127348903Y-87050000D01*
X127306175Y-87052897D01*
X127121476Y-87098831D01*
X126950977Y-87183390D01*
X126950974Y-87183392D01*
X126802633Y-87302632D01*
X126802632Y-87302633D01*
X126683392Y-87450974D01*
X126683390Y-87450977D01*
X126598831Y-87621476D01*
X126598828Y-87621483D01*
X126584592Y-87678726D01*
X126549309Y-87739033D01*
X126487023Y-87770690D01*
X126417509Y-87763648D01*
X126362838Y-87720142D01*
X126348903Y-87694286D01*
X126346665Y-87688612D01*
X126337364Y-87665025D01*
X126283443Y-87593920D01*
X126250078Y-87549921D01*
X126134976Y-87462636D01*
X126000588Y-87409640D01*
X125957242Y-87404435D01*
X125916144Y-87399500D01*
X125083856Y-87399500D01*
X125033188Y-87405584D01*
X124999406Y-87409641D01*
X124993307Y-87411183D01*
X124923488Y-87408525D01*
X124866189Y-87368542D01*
X124839603Y-87303928D01*
X124852170Y-87235198D01*
X124875239Y-87203285D01*
X125991706Y-86086819D01*
X126053029Y-86053334D01*
X126079387Y-86050500D01*
X131771613Y-86050500D01*
X131838652Y-86070185D01*
X131884407Y-86122989D01*
X131894351Y-86192147D01*
X131865326Y-86255703D01*
X131859294Y-86262181D01*
X131259491Y-86861983D01*
X131259489Y-86861986D01*
X131187016Y-86987514D01*
X131187016Y-86987515D01*
X131149500Y-87127525D01*
X131149500Y-87127527D01*
X131149500Y-87344928D01*
X131129815Y-87411967D01*
X131077011Y-87457722D01*
X131070996Y-87460280D01*
X131065028Y-87462633D01*
X131065026Y-87462634D01*
X130949921Y-87549921D01*
X130862636Y-87665023D01*
X130809640Y-87799411D01*
X130804065Y-87845841D01*
X130799500Y-87883856D01*
X130799500Y-89216144D01*
X130804825Y-89260494D01*
X130809640Y-89300588D01*
X130862636Y-89434976D01*
X130949921Y-89550078D01*
X131065023Y-89637363D01*
X131065024Y-89637363D01*
X131065025Y-89637364D01*
X131199410Y-89690359D01*
X131283856Y-89700500D01*
X131283862Y-89700500D01*
X132116138Y-89700500D01*
X132116144Y-89700500D01*
X132200590Y-89690359D01*
X132334975Y-89637364D01*
X132450078Y-89550078D01*
X132537364Y-89434975D01*
X132590359Y-89300590D01*
X132600500Y-89216144D01*
X132600500Y-87883856D01*
X132590359Y-87799410D01*
X132537364Y-87665025D01*
X132537363Y-87665024D01*
X132537363Y-87665023D01*
X132450077Y-87549920D01*
X132380560Y-87497203D01*
X132339037Y-87441010D01*
X132334486Y-87371289D01*
X132367803Y-87310721D01*
X133591706Y-86086819D01*
X133653029Y-86053334D01*
X133679387Y-86050500D01*
X136274613Y-86050500D01*
X136341652Y-86070185D01*
X136362294Y-86086819D01*
X137228904Y-86953429D01*
X137262389Y-87014752D01*
X137257405Y-87084444D01*
X137215533Y-87140377D01*
X137150069Y-87164794D01*
X137086129Y-87152198D01*
X136978523Y-87098831D01*
X136793824Y-87052897D01*
X136751097Y-87050000D01*
X136550000Y-87050000D01*
X136550000Y-88300000D01*
X137550000Y-88300000D01*
X137550000Y-87848903D01*
X137547102Y-87806175D01*
X137501168Y-87621476D01*
X137447801Y-87513870D01*
X137435649Y-87445066D01*
X137462626Y-87380614D01*
X137520165Y-87340978D01*
X137589999Y-87338742D01*
X137646570Y-87371095D01*
X138097181Y-87821706D01*
X138130666Y-87883029D01*
X138133500Y-87909387D01*
X138133500Y-90379793D01*
X138132439Y-90395978D01*
X138128750Y-90423998D01*
X138128750Y-90424000D01*
X138132439Y-90452020D01*
X138133500Y-90468206D01*
X138133500Y-90496474D01*
X138140817Y-90523785D01*
X138143978Y-90539676D01*
X138147670Y-90567709D01*
X138150921Y-90575557D01*
X138158485Y-90593819D01*
X138163697Y-90609173D01*
X138171014Y-90636480D01*
X138171015Y-90636482D01*
X138171016Y-90636485D01*
X138185156Y-90660977D01*
X138192321Y-90675509D01*
X138203139Y-90701625D01*
X138203141Y-90701628D01*
X138203142Y-90701629D01*
X138220347Y-90724052D01*
X138229356Y-90737535D01*
X138243490Y-90762015D01*
X138263485Y-90782010D01*
X138274175Y-90794200D01*
X138291378Y-90816620D01*
X138313800Y-90833825D01*
X138325995Y-90844520D01*
X140074985Y-92593510D01*
X140200515Y-92665984D01*
X140340525Y-92703500D01*
X141197746Y-92703500D01*
X141264785Y-92723185D01*
X141285422Y-92739814D01*
X141351658Y-92806050D01*
X141446793Y-92854524D01*
X141464698Y-92863647D01*
X141558475Y-92878499D01*
X141558481Y-92878500D01*
X142921518Y-92878499D01*
X143015304Y-92863646D01*
X143033207Y-92854523D01*
X143101874Y-92841628D01*
X143166614Y-92867904D01*
X143206872Y-92925010D01*
X143213500Y-92965009D01*
X143213500Y-95939526D01*
X143213500Y-96084474D01*
X143251016Y-96224485D01*
X143323490Y-96350015D01*
X144263681Y-97290206D01*
X144297166Y-97351528D01*
X144300000Y-97377886D01*
X144300000Y-98000000D01*
X144922113Y-98000000D01*
X144989152Y-98019685D01*
X145009794Y-98036319D01*
X147614185Y-100640709D01*
X147647670Y-100702032D01*
X147642686Y-100771724D01*
X147601434Y-100827190D01*
X147589923Y-100835919D01*
X147589922Y-100835920D01*
X147502636Y-100951023D01*
X147449640Y-101085411D01*
X147444065Y-101131841D01*
X147439500Y-101169856D01*
X147439500Y-102002144D01*
X147444825Y-102046494D01*
X147449640Y-102086588D01*
X147502636Y-102220976D01*
X147589921Y-102336078D01*
X147705023Y-102423363D01*
X147705024Y-102423363D01*
X147705025Y-102423364D01*
X147839410Y-102476359D01*
X147923856Y-102486500D01*
X147923862Y-102486500D01*
X149256138Y-102486500D01*
X149256144Y-102486500D01*
X149340590Y-102476359D01*
X149474975Y-102423364D01*
X149590078Y-102336078D01*
X149677364Y-102220975D01*
X149730359Y-102086590D01*
X149740500Y-102002144D01*
X149740500Y-101169856D01*
X149730359Y-101085410D01*
X149677364Y-100951025D01*
X149677363Y-100951024D01*
X149677363Y-100951023D01*
X149590078Y-100835921D01*
X149474976Y-100748636D01*
X149340588Y-100695640D01*
X149297242Y-100690435D01*
X149256144Y-100685500D01*
X149256138Y-100685500D01*
X149209208Y-100685500D01*
X149142169Y-100665815D01*
X149101821Y-100623500D01*
X149059385Y-100550000D01*
X149030509Y-100499985D01*
X148928015Y-100397491D01*
X147913208Y-99382684D01*
X146742206Y-98211681D01*
X146708721Y-98150358D01*
X146713705Y-98080666D01*
X146755577Y-98024733D01*
X146821041Y-98000316D01*
X146829887Y-98000000D01*
X151576000Y-98000000D01*
X151643039Y-98019685D01*
X151688794Y-98072489D01*
X151700000Y-98124000D01*
X151700000Y-109476000D01*
X151680315Y-109543039D01*
X151627511Y-109588794D01*
X151576000Y-109600000D01*
X143360511Y-109600000D01*
X143304216Y-109586485D01*
X143117975Y-109491589D01*
X143117972Y-109491588D01*
X142874640Y-109412526D01*
X142748284Y-109392513D01*
X142621930Y-109372500D01*
X142366070Y-109372500D01*
X142281833Y-109385842D01*
X142113359Y-109412526D01*
X141870027Y-109491588D01*
X141870024Y-109491589D01*
X141683784Y-109586485D01*
X141627489Y-109600000D01*
X141151362Y-109600000D01*
X141084323Y-109580315D01*
X141063681Y-109563681D01*
X139436319Y-107936319D01*
X139402834Y-107874996D01*
X139400000Y-107848638D01*
X139400000Y-106637096D01*
X147090000Y-106637096D01*
X147092897Y-106679824D01*
X147138831Y-106864523D01*
X147223390Y-107035022D01*
X147223392Y-107035025D01*
X147342632Y-107183366D01*
X147342633Y-107183367D01*
X147490974Y-107302607D01*
X147490977Y-107302609D01*
X147661476Y-107387168D01*
X147846175Y-107433102D01*
X147888903Y-107436000D01*
X148340000Y-107436000D01*
X148840000Y-107436000D01*
X149291097Y-107436000D01*
X149333824Y-107433102D01*
X149518523Y-107387168D01*
X149689022Y-107302609D01*
X149689025Y-107302607D01*
X149837366Y-107183367D01*
X149837367Y-107183366D01*
X149956607Y-107035025D01*
X149956609Y-107035022D01*
X150041168Y-106864523D01*
X150087102Y-106679824D01*
X150090000Y-106637096D01*
X150090000Y-106436000D01*
X148840000Y-106436000D01*
X148840000Y-107436000D01*
X148340000Y-107436000D01*
X148340000Y-106436000D01*
X147090000Y-106436000D01*
X147090000Y-106637096D01*
X139400000Y-106637096D01*
X139400000Y-104600001D01*
X139400000Y-104600000D01*
X136900000Y-102108000D01*
X124351315Y-102100032D01*
X124284288Y-102080305D01*
X124263713Y-102063713D01*
X122874986Y-100674986D01*
X136000001Y-100674986D01*
X136010494Y-100777697D01*
X136065641Y-100944119D01*
X136065643Y-100944124D01*
X136157684Y-101093345D01*
X136281654Y-101217315D01*
X136430875Y-101309356D01*
X136430880Y-101309358D01*
X136597302Y-101364505D01*
X136597309Y-101364506D01*
X136700019Y-101374999D01*
X137149999Y-101374999D01*
X137650000Y-101374999D01*
X138099972Y-101374999D01*
X138099986Y-101374998D01*
X138202697Y-101364505D01*
X138369119Y-101309358D01*
X138369124Y-101309356D01*
X138518345Y-101217315D01*
X138642315Y-101093345D01*
X138734356Y-100944124D01*
X138734358Y-100944119D01*
X138789505Y-100777697D01*
X138789506Y-100777690D01*
X138799999Y-100674986D01*
X138800000Y-100674973D01*
X138800000Y-100550000D01*
X137650000Y-100550000D01*
X137650000Y-101374999D01*
X137149999Y-101374999D01*
X137150000Y-101374998D01*
X137150000Y-100550000D01*
X136000001Y-100550000D01*
X136000001Y-100674986D01*
X122874986Y-100674986D01*
X122125013Y-99925013D01*
X136000000Y-99925013D01*
X136000000Y-100050000D01*
X137150000Y-100050000D01*
X137650000Y-100050000D01*
X138799999Y-100050000D01*
X138799999Y-99925028D01*
X138799998Y-99925013D01*
X138789505Y-99822302D01*
X138789404Y-99821998D01*
X139144750Y-99821998D01*
X139144750Y-99822000D01*
X139148439Y-99850020D01*
X139149500Y-99866206D01*
X139149500Y-99894474D01*
X139156817Y-99921785D01*
X139159979Y-99937678D01*
X139163670Y-99965708D01*
X139174485Y-99991819D01*
X139179697Y-100007173D01*
X139187014Y-100034480D01*
X139187015Y-100034482D01*
X139187016Y-100034485D01*
X139201156Y-100058977D01*
X139208321Y-100073509D01*
X139219139Y-100099625D01*
X139219141Y-100099628D01*
X139219142Y-100099629D01*
X139236347Y-100122052D01*
X139245356Y-100135535D01*
X139259490Y-100160015D01*
X139279485Y-100180010D01*
X139290171Y-100192195D01*
X139307379Y-100214621D01*
X139329794Y-100231821D01*
X139329800Y-100231825D01*
X139341995Y-100242520D01*
X139361985Y-100262510D01*
X139386464Y-100276643D01*
X139399951Y-100285654D01*
X139422375Y-100302861D01*
X139448491Y-100313678D01*
X139463031Y-100320848D01*
X139487515Y-100334984D01*
X139514818Y-100342299D01*
X139530174Y-100347512D01*
X139530179Y-100347514D01*
X139556291Y-100358330D01*
X139584313Y-100362019D01*
X139600217Y-100365182D01*
X139627526Y-100372500D01*
X139655794Y-100372500D01*
X139671980Y-100373561D01*
X139699999Y-100377250D01*
X139700000Y-100377250D01*
X139700001Y-100377250D01*
X139728020Y-100373561D01*
X139744206Y-100372500D01*
X139772473Y-100372500D01*
X139772474Y-100372500D01*
X139799785Y-100365181D01*
X139815684Y-100362019D01*
X139843709Y-100358330D01*
X139869827Y-100347510D01*
X139885179Y-100342299D01*
X139912485Y-100334984D01*
X139936968Y-100320848D01*
X139951506Y-100313679D01*
X139977625Y-100302861D01*
X140000053Y-100285650D01*
X140013526Y-100276648D01*
X140038015Y-100262510D01*
X140058012Y-100242511D01*
X140070198Y-100231825D01*
X140092621Y-100214621D01*
X140109834Y-100192187D01*
X140120515Y-100180008D01*
X140830706Y-99469818D01*
X140892029Y-99436333D01*
X140918387Y-99433499D01*
X141295612Y-99433499D01*
X141362651Y-99453184D01*
X141383293Y-99469818D01*
X141703181Y-99789706D01*
X141736666Y-99851029D01*
X141739500Y-99877387D01*
X141739500Y-101730172D01*
X141719815Y-101797211D01*
X141667011Y-101842966D01*
X141650096Y-101849248D01*
X141529604Y-101884254D01*
X141529603Y-101884255D01*
X141388137Y-101967917D01*
X141388129Y-101967923D01*
X141271923Y-102084129D01*
X141271917Y-102084137D01*
X141188255Y-102225603D01*
X141188254Y-102225606D01*
X141142402Y-102383426D01*
X141142401Y-102383432D01*
X141139500Y-102420298D01*
X141139500Y-105351701D01*
X141142401Y-105388567D01*
X141142402Y-105388573D01*
X141188254Y-105546393D01*
X141188255Y-105546396D01*
X141271917Y-105687862D01*
X141271923Y-105687870D01*
X141388129Y-105804076D01*
X141388133Y-105804079D01*
X141388135Y-105804081D01*
X141529602Y-105887744D01*
X141571224Y-105899836D01*
X141687426Y-105933597D01*
X141687429Y-105933597D01*
X141687431Y-105933598D01*
X141724306Y-105936500D01*
X141724314Y-105936500D01*
X142855686Y-105936500D01*
X142855694Y-105936500D01*
X142892569Y-105933598D01*
X142892571Y-105933597D01*
X142892573Y-105933597D01*
X142934191Y-105921505D01*
X143050398Y-105887744D01*
X143191865Y-105804081D01*
X143308081Y-105687865D01*
X143391744Y-105546398D01*
X143437598Y-105388569D01*
X143440500Y-105351694D01*
X143440500Y-104560500D01*
X143460185Y-104493461D01*
X143512989Y-104447706D01*
X143564500Y-104436500D01*
X147384929Y-104436500D01*
X147451968Y-104456185D01*
X147497723Y-104508989D01*
X147500284Y-104515011D01*
X147502635Y-104520975D01*
X147589921Y-104636078D01*
X147705025Y-104723364D01*
X147734286Y-104734903D01*
X147789431Y-104777808D01*
X147812625Y-104843715D01*
X147796505Y-104911700D01*
X147746189Y-104960177D01*
X147718726Y-104970592D01*
X147661483Y-104984828D01*
X147661476Y-104984831D01*
X147490977Y-105069390D01*
X147490974Y-105069392D01*
X147342633Y-105188632D01*
X147342632Y-105188633D01*
X147223392Y-105336974D01*
X147223390Y-105336977D01*
X147138831Y-105507476D01*
X147092897Y-105692175D01*
X147090000Y-105734903D01*
X147090000Y-105936000D01*
X150090000Y-105936000D01*
X150090000Y-105734903D01*
X150087102Y-105692175D01*
X150041168Y-105507476D01*
X149956609Y-105336977D01*
X149956607Y-105336974D01*
X149837367Y-105188633D01*
X149837366Y-105188632D01*
X149689025Y-105069392D01*
X149689022Y-105069390D01*
X149518523Y-104984831D01*
X149518516Y-104984828D01*
X149461273Y-104970592D01*
X149400966Y-104935309D01*
X149369309Y-104873023D01*
X149376351Y-104803509D01*
X149419857Y-104748838D01*
X149445706Y-104734906D01*
X149474975Y-104723364D01*
X149590078Y-104636078D01*
X149677364Y-104520975D01*
X149730359Y-104386590D01*
X149740500Y-104302144D01*
X149740500Y-103469856D01*
X149730359Y-103385410D01*
X149677364Y-103251025D01*
X149677363Y-103251024D01*
X149677363Y-103251023D01*
X149590078Y-103135921D01*
X149474976Y-103048636D01*
X149340588Y-102995640D01*
X149297242Y-102990435D01*
X149256144Y-102985500D01*
X147923856Y-102985500D01*
X147885841Y-102990065D01*
X147839411Y-102995640D01*
X147705023Y-103048636D01*
X147589921Y-103135921D01*
X147502635Y-103251024D01*
X147500284Y-103256989D01*
X147457378Y-103312133D01*
X147391471Y-103335327D01*
X147384929Y-103335500D01*
X143564500Y-103335500D01*
X143497461Y-103315815D01*
X143451706Y-103263011D01*
X143440500Y-103211500D01*
X143440500Y-102420313D01*
X143440499Y-102420298D01*
X143437598Y-102383432D01*
X143437597Y-102383426D01*
X143391745Y-102225606D01*
X143391744Y-102225603D01*
X143391744Y-102225602D01*
X143308081Y-102084135D01*
X143308079Y-102084133D01*
X143308076Y-102084129D01*
X143191870Y-101967923D01*
X143191862Y-101967917D01*
X143050396Y-101884255D01*
X143050395Y-101884254D01*
X142929904Y-101849248D01*
X142871019Y-101811641D01*
X142841813Y-101748169D01*
X142840500Y-101730172D01*
X142840500Y-99525527D01*
X142840500Y-99525525D01*
X142802984Y-99385515D01*
X142730510Y-99259985D01*
X142486818Y-99016293D01*
X142453333Y-98954970D01*
X142450499Y-98928612D01*
X142450499Y-98351482D01*
X142450498Y-98351474D01*
X142435646Y-98257696D01*
X142378050Y-98144658D01*
X142378046Y-98144654D01*
X142378045Y-98144652D01*
X142288347Y-98054954D01*
X142288344Y-98054952D01*
X142288342Y-98054950D01*
X142211517Y-98015805D01*
X142175301Y-97997352D01*
X142081524Y-97982500D01*
X140718482Y-97982500D01*
X140637519Y-97995323D01*
X140624696Y-97997354D01*
X140511658Y-98054950D01*
X140511657Y-98054951D01*
X140511652Y-98054954D01*
X140421954Y-98144652D01*
X140421951Y-98144657D01*
X140421950Y-98144658D01*
X140413264Y-98161706D01*
X140364352Y-98257698D01*
X140349500Y-98351474D01*
X140349459Y-98351998D01*
X140349387Y-98352185D01*
X140348737Y-98356293D01*
X140347874Y-98356156D01*
X140324575Y-98417287D01*
X140313522Y-98429951D01*
X139341996Y-99401477D01*
X139329807Y-99412168D01*
X139307378Y-99429380D01*
X139290172Y-99451802D01*
X139279484Y-99463990D01*
X139259488Y-99483986D01*
X139245350Y-99508472D01*
X139236348Y-99521945D01*
X139219138Y-99544375D01*
X139219138Y-99544376D01*
X139208319Y-99570493D01*
X139201151Y-99585028D01*
X139187017Y-99609512D01*
X139179699Y-99636820D01*
X139174489Y-99652168D01*
X139163668Y-99678294D01*
X139163668Y-99678295D01*
X139159978Y-99706318D01*
X139156816Y-99722216D01*
X139149500Y-99749520D01*
X139149500Y-99777793D01*
X139148439Y-99793978D01*
X139144750Y-99821998D01*
X138789404Y-99821998D01*
X138734358Y-99655880D01*
X138734356Y-99655875D01*
X138642315Y-99506654D01*
X138518345Y-99382684D01*
X138369124Y-99290643D01*
X138369119Y-99290641D01*
X138202697Y-99235494D01*
X138202690Y-99235493D01*
X138099986Y-99225000D01*
X137650000Y-99225000D01*
X137650000Y-100050000D01*
X137150000Y-100050000D01*
X137150000Y-99225000D01*
X136700028Y-99225000D01*
X136700012Y-99225001D01*
X136597302Y-99235494D01*
X136430880Y-99290641D01*
X136430875Y-99290643D01*
X136281654Y-99382684D01*
X136157684Y-99506654D01*
X136065643Y-99655875D01*
X136065641Y-99655880D01*
X136010494Y-99822302D01*
X136010493Y-99822309D01*
X136000000Y-99925013D01*
X122125013Y-99925013D01*
X120836319Y-98636319D01*
X120802834Y-98574996D01*
X120800000Y-98548638D01*
X120800000Y-98274500D01*
X120819685Y-98207461D01*
X120872489Y-98161706D01*
X120924000Y-98150500D01*
X122538228Y-98150500D01*
X122605267Y-98170185D01*
X122648712Y-98218204D01*
X122684449Y-98288340D01*
X122684454Y-98288347D01*
X122774152Y-98378045D01*
X122774154Y-98378046D01*
X122774158Y-98378050D01*
X122876019Y-98429951D01*
X122887198Y-98435647D01*
X122980975Y-98450499D01*
X122980981Y-98450500D01*
X123569018Y-98450499D01*
X123662804Y-98435646D01*
X123775842Y-98378050D01*
X123865550Y-98288342D01*
X123923146Y-98175304D01*
X123923146Y-98175302D01*
X123923147Y-98175301D01*
X123937999Y-98081524D01*
X123938000Y-98081519D01*
X123937999Y-97118482D01*
X123923146Y-97024696D01*
X123865550Y-96911658D01*
X123865546Y-96911654D01*
X123865545Y-96911652D01*
X123775847Y-96821954D01*
X123775844Y-96821952D01*
X123775842Y-96821950D01*
X123668700Y-96767358D01*
X123662801Y-96764352D01*
X123569024Y-96749500D01*
X122980982Y-96749500D01*
X122900019Y-96762323D01*
X122887196Y-96764354D01*
X122774158Y-96821950D01*
X122774157Y-96821951D01*
X122774152Y-96821954D01*
X122684454Y-96911652D01*
X122684451Y-96911657D01*
X122684450Y-96911658D01*
X122648712Y-96981796D01*
X122600739Y-97032591D01*
X122538229Y-97049500D01*
X120924000Y-97049500D01*
X120856961Y-97029815D01*
X120811206Y-96977011D01*
X120800000Y-96925500D01*
X120800000Y-87551362D01*
X120819685Y-87484323D01*
X120836319Y-87463681D01*
X125963681Y-82336319D01*
X126025004Y-82302834D01*
X126051362Y-82300000D01*
X134100000Y-82300000D01*
X135400000Y-81000000D01*
X135400000Y-76834070D01*
X140868500Y-76834070D01*
X140868500Y-77089930D01*
X140886727Y-77205009D01*
X140908526Y-77342640D01*
X140987588Y-77585972D01*
X140987589Y-77585975D01*
X141103750Y-77813950D01*
X141254132Y-78020935D01*
X141254136Y-78020940D01*
X141435059Y-78201863D01*
X141435064Y-78201867D01*
X141615607Y-78333038D01*
X141642053Y-78352252D01*
X141791080Y-78428185D01*
X141870024Y-78468410D01*
X141870027Y-78468411D01*
X141991693Y-78507942D01*
X142113361Y-78547474D01*
X142366070Y-78587500D01*
X142366071Y-78587500D01*
X142621929Y-78587500D01*
X142621930Y-78587500D01*
X142874639Y-78547474D01*
X143117975Y-78468410D01*
X143345947Y-78352252D01*
X143552942Y-78201862D01*
X143733862Y-78020942D01*
X143884252Y-77813947D01*
X144000410Y-77585975D01*
X144000906Y-77584450D01*
X144029336Y-77496950D01*
X144079474Y-77342639D01*
X144119500Y-77089930D01*
X144119500Y-76834070D01*
X144079474Y-76581361D01*
X144000410Y-76338025D01*
X144000410Y-76338024D01*
X143908929Y-76158485D01*
X143884252Y-76110053D01*
X143817716Y-76018474D01*
X143733867Y-75903064D01*
X143733863Y-75903059D01*
X143552940Y-75722136D01*
X143552935Y-75722132D01*
X143345950Y-75571750D01*
X143345949Y-75571749D01*
X143345947Y-75571748D01*
X143272910Y-75534533D01*
X143117975Y-75455589D01*
X143117972Y-75455588D01*
X142874640Y-75376526D01*
X142748284Y-75356513D01*
X142621930Y-75336500D01*
X142366070Y-75336500D01*
X142281833Y-75349842D01*
X142113359Y-75376526D01*
X141870027Y-75455588D01*
X141870024Y-75455589D01*
X141642049Y-75571750D01*
X141435064Y-75722132D01*
X141435059Y-75722136D01*
X141254136Y-75903059D01*
X141254132Y-75903064D01*
X141103750Y-76110049D01*
X140987589Y-76338024D01*
X140987588Y-76338027D01*
X140908526Y-76581359D01*
X140908526Y-76581361D01*
X140868500Y-76834070D01*
X135400000Y-76834070D01*
X135400000Y-75100000D01*
X133014822Y-72714822D01*
X145099499Y-72714822D01*
X145108231Y-72758717D01*
X145108232Y-72758721D01*
X145108233Y-72758722D01*
X145141496Y-72808504D01*
X145191278Y-72841767D01*
X145191281Y-72841767D01*
X145191282Y-72841768D01*
X145235177Y-72850500D01*
X145235180Y-72850500D01*
X145375500Y-72850500D01*
X145442539Y-72870185D01*
X145488294Y-72922989D01*
X145499500Y-72974500D01*
X145499500Y-76018474D01*
X145519873Y-76094511D01*
X145537014Y-76158480D01*
X145537016Y-76158485D01*
X145609489Y-76284013D01*
X145609491Y-76284016D01*
X148105181Y-78779706D01*
X148138666Y-78841029D01*
X148141500Y-78867387D01*
X148141500Y-80749778D01*
X148121815Y-80816817D01*
X148069011Y-80862572D01*
X148029459Y-80872426D01*
X148029535Y-80873059D01*
X148025862Y-80873500D01*
X148025856Y-80873500D01*
X147987408Y-80878117D01*
X147941411Y-80883640D01*
X147807023Y-80936636D01*
X147691921Y-81023921D01*
X147604636Y-81139023D01*
X147551640Y-81273411D01*
X147546099Y-81319562D01*
X147541500Y-81357856D01*
X147541500Y-82190144D01*
X147546825Y-82234494D01*
X147551640Y-82274588D01*
X147604636Y-82408976D01*
X147691921Y-82524078D01*
X147807023Y-82611363D01*
X147807024Y-82611363D01*
X147807025Y-82611364D01*
X147941410Y-82664359D01*
X148025856Y-82674500D01*
X148025862Y-82674500D01*
X149358138Y-82674500D01*
X149358144Y-82674500D01*
X149442590Y-82664359D01*
X149576975Y-82611364D01*
X149692078Y-82524078D01*
X149779364Y-82408975D01*
X149832359Y-82274590D01*
X149842500Y-82190144D01*
X149842500Y-81357856D01*
X149832359Y-81273410D01*
X149779364Y-81139025D01*
X149779363Y-81139024D01*
X149779363Y-81139023D01*
X149692078Y-81023921D01*
X149576976Y-80936636D01*
X149442588Y-80883640D01*
X149399822Y-80878505D01*
X149358144Y-80873500D01*
X149358138Y-80873500D01*
X149354465Y-80873059D01*
X149354598Y-80871945D01*
X149293331Y-80849889D01*
X149250822Y-80794439D01*
X149242500Y-80749778D01*
X149242500Y-78515527D01*
X149242500Y-78515525D01*
X149204984Y-78375515D01*
X149191553Y-78352252D01*
X149132510Y-78249985D01*
X146636819Y-75754294D01*
X146603334Y-75692971D01*
X146600500Y-75666613D01*
X146600500Y-72974500D01*
X146620185Y-72907461D01*
X146672989Y-72861706D01*
X146724500Y-72850500D01*
X146864822Y-72850500D01*
X146908717Y-72841768D01*
X146908717Y-72841767D01*
X146908722Y-72841767D01*
X146958504Y-72808504D01*
X146991767Y-72758722D01*
X147000500Y-72714820D01*
X147000500Y-71945030D01*
X147013735Y-71899956D01*
X147012564Y-71897728D01*
X147235529Y-71897728D01*
X147243477Y-71910095D01*
X147248028Y-71934223D01*
X147264858Y-72126599D01*
X147264860Y-72126610D01*
X147323730Y-72346317D01*
X147323735Y-72346331D01*
X147419863Y-72552478D01*
X147470974Y-72625472D01*
X148150000Y-71946446D01*
X148150000Y-71952661D01*
X148177259Y-72054394D01*
X148229920Y-72145606D01*
X148304394Y-72220080D01*
X148395606Y-72272741D01*
X148497339Y-72300000D01*
X148503553Y-72300000D01*
X147824526Y-72979025D01*
X147897513Y-73030132D01*
X147897521Y-73030136D01*
X148103668Y-73126264D01*
X148103682Y-73126269D01*
X148323389Y-73185139D01*
X148323400Y-73185141D01*
X148549998Y-73204966D01*
X148550002Y-73204966D01*
X148776599Y-73185141D01*
X148776610Y-73185139D01*
X148996317Y-73126269D01*
X148996331Y-73126264D01*
X149202478Y-73030136D01*
X149275471Y-72979024D01*
X148596447Y-72300000D01*
X148602661Y-72300000D01*
X148704394Y-72272741D01*
X148795606Y-72220080D01*
X148870080Y-72145606D01*
X148922741Y-72054394D01*
X148950000Y-71952661D01*
X148950000Y-71946447D01*
X149629024Y-72625471D01*
X149680136Y-72552478D01*
X149776264Y-72346331D01*
X149776269Y-72346317D01*
X149835139Y-72126610D01*
X149835141Y-72126599D01*
X149854966Y-71900002D01*
X149854966Y-71899997D01*
X149835141Y-71673400D01*
X149835139Y-71673389D01*
X149776269Y-71453682D01*
X149776264Y-71453668D01*
X149680136Y-71247521D01*
X149680132Y-71247513D01*
X149629025Y-71174526D01*
X148950000Y-71853551D01*
X148950000Y-71847339D01*
X148922741Y-71745606D01*
X148870080Y-71654394D01*
X148795606Y-71579920D01*
X148704394Y-71527259D01*
X148602661Y-71500000D01*
X148596445Y-71500000D01*
X149275472Y-70820974D01*
X149202478Y-70769863D01*
X148996331Y-70673735D01*
X148996317Y-70673730D01*
X148776610Y-70614860D01*
X148776599Y-70614858D01*
X148550002Y-70595034D01*
X148549998Y-70595034D01*
X148323400Y-70614858D01*
X148323389Y-70614860D01*
X148103682Y-70673730D01*
X148103673Y-70673734D01*
X147897516Y-70769866D01*
X147897512Y-70769868D01*
X147824526Y-70820973D01*
X147824526Y-70820974D01*
X148503553Y-71500000D01*
X148497339Y-71500000D01*
X148395606Y-71527259D01*
X148304394Y-71579920D01*
X148229920Y-71654394D01*
X148177259Y-71745606D01*
X148150000Y-71847339D01*
X148150000Y-71853552D01*
X147470974Y-71174526D01*
X147470973Y-71174526D01*
X147419868Y-71247512D01*
X147419866Y-71247516D01*
X147323734Y-71453673D01*
X147323730Y-71453682D01*
X147264860Y-71673389D01*
X147264858Y-71673400D01*
X147248028Y-71865776D01*
X147235529Y-71897728D01*
X147012564Y-71897728D01*
X147002931Y-71879401D01*
X147000500Y-71854969D01*
X147000500Y-71085177D01*
X146991768Y-71041282D01*
X146991767Y-71041281D01*
X146991767Y-71041278D01*
X146958504Y-70991496D01*
X146952479Y-70987470D01*
X146908724Y-70958234D01*
X146908717Y-70958231D01*
X146864822Y-70949500D01*
X146864820Y-70949500D01*
X146724500Y-70949500D01*
X146657461Y-70929815D01*
X146611706Y-70877011D01*
X146600500Y-70825500D01*
X146600500Y-68040499D01*
X146620185Y-67973460D01*
X146672989Y-67927705D01*
X146724500Y-67916499D01*
X146985517Y-67916499D01*
X146985518Y-67916499D01*
X147079304Y-67901646D01*
X147192342Y-67844050D01*
X147282050Y-67754342D01*
X147339646Y-67641304D01*
X147339646Y-67641302D01*
X147339647Y-67641301D01*
X147354499Y-67547524D01*
X147354500Y-67547519D01*
X147354499Y-65484482D01*
X147339646Y-65390696D01*
X147282050Y-65277658D01*
X147282046Y-65277654D01*
X147282045Y-65277652D01*
X147192347Y-65187954D01*
X147192344Y-65187952D01*
X147192342Y-65187950D01*
X147115517Y-65148805D01*
X147079301Y-65130352D01*
X146985524Y-65115500D01*
X145622482Y-65115500D01*
X145541519Y-65128323D01*
X145528696Y-65130354D01*
X145415658Y-65187950D01*
X145415657Y-65187951D01*
X145415652Y-65187954D01*
X145325954Y-65277652D01*
X145325951Y-65277657D01*
X145268352Y-65390698D01*
X145253500Y-65484475D01*
X145253500Y-67547517D01*
X145256111Y-67564000D01*
X145268354Y-67641304D01*
X145325950Y-67754342D01*
X145415658Y-67844050D01*
X145415660Y-67844051D01*
X145431793Y-67852271D01*
X145482590Y-67900245D01*
X145499500Y-67962757D01*
X145499500Y-70825500D01*
X145479815Y-70892539D01*
X145427011Y-70938294D01*
X145375500Y-70949500D01*
X145235178Y-70949500D01*
X145191282Y-70958231D01*
X145191275Y-70958234D01*
X145141496Y-70991495D01*
X145141495Y-70991496D01*
X145108234Y-71041275D01*
X145108231Y-71041282D01*
X145099500Y-71085177D01*
X145099500Y-71085180D01*
X145099500Y-72714820D01*
X145099500Y-72714822D01*
X145099499Y-72714822D01*
X133014822Y-72714822D01*
X132422822Y-72122822D01*
X136021499Y-72122822D01*
X136030231Y-72166717D01*
X136030234Y-72166724D01*
X136063495Y-72216503D01*
X136063496Y-72216504D01*
X136113278Y-72249767D01*
X136113281Y-72249767D01*
X136113282Y-72249768D01*
X136157177Y-72258500D01*
X136157180Y-72258500D01*
X139686822Y-72258500D01*
X139730717Y-72249768D01*
X139730717Y-72249767D01*
X139730722Y-72249767D01*
X139780504Y-72216504D01*
X139813767Y-72166722D01*
X139813768Y-72166717D01*
X139822500Y-72122822D01*
X139822500Y-71023469D01*
X139842185Y-70956430D01*
X139894989Y-70910675D01*
X139914395Y-70903698D01*
X140036485Y-70870984D01*
X140065036Y-70854500D01*
X140162015Y-70798510D01*
X143950510Y-67010015D01*
X144022984Y-66884485D01*
X144060500Y-66744475D01*
X144060500Y-63779387D01*
X144080185Y-63712348D01*
X144096819Y-63691706D01*
X144685706Y-63102819D01*
X144747029Y-63069334D01*
X144773387Y-63066500D01*
X145129501Y-63066500D01*
X145196540Y-63086185D01*
X145242295Y-63138989D01*
X145253501Y-63190500D01*
X145253501Y-63547518D01*
X145268354Y-63641304D01*
X145325950Y-63754342D01*
X145325952Y-63754344D01*
X145325954Y-63754347D01*
X145415652Y-63844045D01*
X145415654Y-63844046D01*
X145415658Y-63844050D01*
X145509912Y-63892075D01*
X145528698Y-63901647D01*
X145622475Y-63916499D01*
X145622481Y-63916500D01*
X146985518Y-63916499D01*
X147079304Y-63901646D01*
X147192342Y-63844050D01*
X147282050Y-63754342D01*
X147339646Y-63641304D01*
X147339646Y-63641302D01*
X147339647Y-63641301D01*
X147354499Y-63547524D01*
X147354500Y-63547519D01*
X147354499Y-61484482D01*
X147339646Y-61390696D01*
X147282050Y-61277658D01*
X147282046Y-61277654D01*
X147282045Y-61277652D01*
X147192347Y-61187954D01*
X147192344Y-61187952D01*
X147192342Y-61187950D01*
X147115517Y-61148805D01*
X147079301Y-61130352D01*
X146985524Y-61115500D01*
X145622482Y-61115500D01*
X145541519Y-61128323D01*
X145528696Y-61130354D01*
X145415658Y-61187950D01*
X145415657Y-61187951D01*
X145415652Y-61187954D01*
X145325954Y-61277652D01*
X145325951Y-61277657D01*
X145268352Y-61390698D01*
X145253500Y-61484475D01*
X145253500Y-61841500D01*
X145233815Y-61908539D01*
X145181011Y-61954294D01*
X145129500Y-61965500D01*
X144421525Y-61965500D01*
X144316517Y-61993637D01*
X144281514Y-62003016D01*
X144155986Y-62075489D01*
X144155983Y-62075491D01*
X143069491Y-63161983D01*
X143069489Y-63161986D01*
X142997016Y-63287514D01*
X142997016Y-63287515D01*
X142959500Y-63427525D01*
X142959500Y-63427527D01*
X142959500Y-66392613D01*
X142939815Y-66459652D01*
X142923181Y-66480294D01*
X140034181Y-69369294D01*
X139972858Y-69402779D01*
X139903166Y-69397795D01*
X139847233Y-69355923D01*
X139822816Y-69290459D01*
X139822500Y-69281613D01*
X139822500Y-68593177D01*
X139813768Y-68549282D01*
X139813767Y-68549281D01*
X139813767Y-68549278D01*
X139780504Y-68499496D01*
X139770504Y-68492814D01*
X139730724Y-68466234D01*
X139730717Y-68466231D01*
X139686822Y-68457500D01*
X139686820Y-68457500D01*
X136157180Y-68457500D01*
X136157178Y-68457500D01*
X136113282Y-68466231D01*
X136113275Y-68466234D01*
X136063496Y-68499495D01*
X136063495Y-68499496D01*
X136030234Y-68549275D01*
X136030231Y-68549282D01*
X136021500Y-68593177D01*
X136021500Y-68593180D01*
X136021500Y-72122820D01*
X136021500Y-72122822D01*
X136021499Y-72122822D01*
X132422822Y-72122822D01*
X129636319Y-69336319D01*
X129602834Y-69274996D01*
X129600000Y-69248638D01*
X129600000Y-66432623D01*
X131321500Y-66432623D01*
X131321500Y-68283376D01*
X131336337Y-68434031D01*
X131394978Y-68627345D01*
X131490198Y-68805488D01*
X131490203Y-68805495D01*
X131618352Y-68961647D01*
X131687642Y-69018511D01*
X131774506Y-69089798D01*
X131774509Y-69089799D01*
X131774511Y-69089801D01*
X131952654Y-69185021D01*
X131952656Y-69185021D01*
X131952659Y-69185023D01*
X132145967Y-69243662D01*
X132296620Y-69258500D01*
X132296623Y-69258500D01*
X134147377Y-69258500D01*
X134147380Y-69258500D01*
X134298033Y-69243662D01*
X134491341Y-69185023D01*
X134669494Y-69089798D01*
X134825647Y-68961647D01*
X134953798Y-68805494D01*
X135049023Y-68627341D01*
X135107662Y-68434033D01*
X135122500Y-68283380D01*
X135122500Y-66432620D01*
X135107662Y-66281967D01*
X135049023Y-66088659D01*
X135049021Y-66088656D01*
X135049021Y-66088654D01*
X134953801Y-65910511D01*
X134953799Y-65910509D01*
X134953798Y-65910506D01*
X134914824Y-65863016D01*
X134825647Y-65754352D01*
X134669495Y-65626203D01*
X134669488Y-65626198D01*
X134491345Y-65530978D01*
X134298031Y-65472337D01*
X134187900Y-65461490D01*
X134147380Y-65457500D01*
X132296620Y-65457500D01*
X132259433Y-65461162D01*
X132145968Y-65472337D01*
X131952654Y-65530978D01*
X131774511Y-65626198D01*
X131774504Y-65626203D01*
X131618352Y-65754352D01*
X131490203Y-65910504D01*
X131490198Y-65910511D01*
X131394978Y-66088654D01*
X131336337Y-66281968D01*
X131321500Y-66432623D01*
X129600000Y-66432623D01*
X129600000Y-63543803D01*
X135672000Y-63543803D01*
X135672000Y-64108000D01*
X136488988Y-64108000D01*
X136456075Y-64165007D01*
X136422000Y-64292174D01*
X136422000Y-64423826D01*
X136456075Y-64550993D01*
X136488988Y-64608000D01*
X135672001Y-64608000D01*
X135672001Y-65172197D01*
X135682400Y-65304332D01*
X135737377Y-65522519D01*
X135830428Y-65727374D01*
X135830431Y-65727380D01*
X135958559Y-65912323D01*
X135958569Y-65912335D01*
X136117664Y-66071430D01*
X136117676Y-66071440D01*
X136302619Y-66199568D01*
X136302625Y-66199571D01*
X136507480Y-66292622D01*
X136725667Y-66347599D01*
X136857810Y-66357999D01*
X137671999Y-66357999D01*
X137672000Y-66357998D01*
X137672000Y-64858000D01*
X138172000Y-64858000D01*
X138172000Y-66357999D01*
X138986182Y-66357999D01*
X138986197Y-66357998D01*
X139118332Y-66347599D01*
X139336519Y-66292622D01*
X139541374Y-66199571D01*
X139541380Y-66199568D01*
X139726323Y-66071440D01*
X139726335Y-66071430D01*
X139885430Y-65912335D01*
X139885440Y-65912323D01*
X140013568Y-65727380D01*
X140013571Y-65727374D01*
X140106622Y-65522519D01*
X140161599Y-65304332D01*
X140171999Y-65172196D01*
X140172000Y-65172184D01*
X140172000Y-64608000D01*
X139355012Y-64608000D01*
X139387925Y-64550993D01*
X139422000Y-64423826D01*
X139422000Y-64292174D01*
X139387925Y-64165007D01*
X139355012Y-64108000D01*
X140171999Y-64108000D01*
X140171999Y-63543817D01*
X140171998Y-63543802D01*
X140161599Y-63411667D01*
X140106622Y-63193480D01*
X140013571Y-62988625D01*
X140013568Y-62988619D01*
X139885440Y-62803676D01*
X139885430Y-62803664D01*
X139726335Y-62644569D01*
X139726323Y-62644559D01*
X139541380Y-62516431D01*
X139541374Y-62516428D01*
X139336519Y-62423377D01*
X139118332Y-62368400D01*
X138986196Y-62358000D01*
X138172000Y-62358000D01*
X138172000Y-63858000D01*
X137672000Y-63858000D01*
X137672000Y-62358000D01*
X136857817Y-62358000D01*
X136857802Y-62358001D01*
X136725667Y-62368400D01*
X136507480Y-62423377D01*
X136302625Y-62516428D01*
X136302619Y-62516431D01*
X136117676Y-62644559D01*
X136117664Y-62644569D01*
X135958569Y-62803664D01*
X135958559Y-62803676D01*
X135830431Y-62988619D01*
X135830428Y-62988625D01*
X135737377Y-63193480D01*
X135682400Y-63411667D01*
X135672000Y-63543803D01*
X129600000Y-63543803D01*
X129600000Y-59824000D01*
X129619685Y-59756961D01*
X129672489Y-59711206D01*
X129724000Y-59700000D01*
X149776000Y-59700000D01*
X149843039Y-59719685D01*
G37*
G04 #@! TD.AperFunction*
G04 #@! TA.AperFunction,Conductor*
G36*
X106977079Y-119135438D02*
G01*
X107006200Y-119147500D01*
X107006202Y-119147500D01*
X109482799Y-119147500D01*
X109482800Y-119147500D01*
X109511917Y-119135438D01*
X109559371Y-119126000D01*
X114248638Y-119126000D01*
X114315677Y-119145685D01*
X114336319Y-119162319D01*
X115025681Y-119851681D01*
X115059166Y-119913004D01*
X115062000Y-119939362D01*
X115062000Y-127456638D01*
X115042315Y-127523677D01*
X115025681Y-127544319D01*
X114336319Y-128233681D01*
X114274996Y-128267166D01*
X114248638Y-128270000D01*
X104191362Y-128270000D01*
X104124323Y-128250315D01*
X104103681Y-128233681D01*
X103160319Y-127290319D01*
X103126834Y-127228996D01*
X103124000Y-127202638D01*
X103124000Y-126791322D01*
X110277001Y-126791322D01*
X110287144Y-126890607D01*
X110340452Y-127051481D01*
X110340457Y-127051492D01*
X110429424Y-127195728D01*
X110429427Y-127195732D01*
X110549267Y-127315572D01*
X110549271Y-127315575D01*
X110693507Y-127404542D01*
X110693518Y-127404547D01*
X110854393Y-127457855D01*
X110953683Y-127467999D01*
X111502000Y-127467999D01*
X111550308Y-127467999D01*
X111550322Y-127467998D01*
X111649607Y-127457855D01*
X111810481Y-127404547D01*
X111810492Y-127404542D01*
X111954728Y-127315575D01*
X111954732Y-127315572D01*
X112074572Y-127195732D01*
X112074575Y-127195728D01*
X112163542Y-127051492D01*
X112163547Y-127051481D01*
X112216855Y-126890606D01*
X112226999Y-126791322D01*
X112227000Y-126791309D01*
X112227000Y-126768000D01*
X111502000Y-126768000D01*
X111502000Y-127467999D01*
X110953683Y-127467999D01*
X111001999Y-127467998D01*
X111002000Y-127467998D01*
X111002000Y-126768000D01*
X110277001Y-126768000D01*
X110277001Y-126791322D01*
X103124000Y-126791322D01*
X103124000Y-122877623D01*
X103143685Y-122810584D01*
X103196489Y-122764829D01*
X103265647Y-122754885D01*
X103329203Y-122783910D01*
X103335681Y-122789942D01*
X103716103Y-123170364D01*
X103808172Y-123208500D01*
X103907828Y-123208500D01*
X104623334Y-123208500D01*
X104690373Y-123228185D01*
X104736128Y-123280989D01*
X104746122Y-123340966D01*
X104746500Y-123340966D01*
X104746500Y-123343234D01*
X104746737Y-123344657D01*
X104746500Y-123347054D01*
X104746500Y-123347058D01*
X104746500Y-123568942D01*
X104746500Y-123568944D01*
X104746499Y-123568944D01*
X104760307Y-123638359D01*
X104760310Y-123638365D01*
X104760809Y-123639112D01*
X104761395Y-123640986D01*
X104764982Y-123649644D01*
X104764206Y-123649965D01*
X104781685Y-123705791D01*
X104763198Y-123773170D01*
X104760809Y-123776888D01*
X104760310Y-123777634D01*
X104760307Y-123777640D01*
X104746500Y-123847055D01*
X104746500Y-123847058D01*
X104746500Y-124068942D01*
X104746500Y-124068944D01*
X104746499Y-124068944D01*
X104760307Y-124138359D01*
X104760310Y-124138365D01*
X104760809Y-124139112D01*
X104761395Y-124140986D01*
X104764982Y-124149644D01*
X104764206Y-124149965D01*
X104781685Y-124205791D01*
X104763198Y-124273170D01*
X104760809Y-124276888D01*
X104760310Y-124277634D01*
X104760307Y-124277640D01*
X104746500Y-124347055D01*
X104746500Y-124347058D01*
X104746500Y-124568942D01*
X104746500Y-124568944D01*
X104746499Y-124568944D01*
X104760307Y-124638359D01*
X104760308Y-124638362D01*
X104760309Y-124638363D01*
X104812911Y-124717089D01*
X104891637Y-124769691D01*
X104891640Y-124769692D01*
X104961055Y-124783500D01*
X104961058Y-124783500D01*
X106457944Y-124783500D01*
X106492652Y-124776595D01*
X106527363Y-124769691D01*
X106550254Y-124754395D01*
X106616932Y-124733520D01*
X106619143Y-124733500D01*
X107745770Y-124733500D01*
X107812809Y-124753185D01*
X107858564Y-124805989D01*
X107868508Y-124875147D01*
X107867387Y-124881693D01*
X107865500Y-124891180D01*
X107865500Y-126020820D01*
X107865500Y-126020822D01*
X107865499Y-126020822D01*
X107874231Y-126064717D01*
X107874232Y-126064721D01*
X107874233Y-126064722D01*
X107907496Y-126114504D01*
X107957278Y-126147767D01*
X107957281Y-126147767D01*
X107957282Y-126147768D01*
X108001177Y-126156500D01*
X108001180Y-126156500D01*
X109930822Y-126156500D01*
X109974717Y-126147768D01*
X109974717Y-126147767D01*
X109974722Y-126147767D01*
X110024504Y-126114504D01*
X110057767Y-126064722D01*
X110057767Y-126064719D01*
X110061110Y-126059717D01*
X110062956Y-126058173D01*
X110061699Y-126053273D01*
X110064009Y-126033343D01*
X110066500Y-126020820D01*
X110066500Y-124891178D01*
X110064613Y-124881693D01*
X110070840Y-124812101D01*
X110113702Y-124756923D01*
X110179591Y-124733678D01*
X110186230Y-124733500D01*
X110502500Y-124733500D01*
X110569539Y-124753185D01*
X110615294Y-124805989D01*
X110626500Y-124857500D01*
X110626500Y-125228636D01*
X110637134Y-125301625D01*
X110637134Y-125301626D01*
X110637135Y-125301628D01*
X110692172Y-125414210D01*
X110716159Y-125438197D01*
X110749644Y-125499520D01*
X110744660Y-125569212D01*
X110702788Y-125625145D01*
X110693575Y-125631416D01*
X110549271Y-125720424D01*
X110549267Y-125720427D01*
X110429427Y-125840267D01*
X110429424Y-125840271D01*
X110340457Y-125984507D01*
X110340452Y-125984518D01*
X110303332Y-126096540D01*
X110285944Y-126121653D01*
X110287571Y-126141209D01*
X110277000Y-126244675D01*
X110277000Y-126268000D01*
X112226999Y-126268000D01*
X112226999Y-126244692D01*
X112226998Y-126244677D01*
X112216855Y-126145392D01*
X112163547Y-125984518D01*
X112163542Y-125984507D01*
X112074575Y-125840271D01*
X112074572Y-125840267D01*
X111954732Y-125720427D01*
X111954728Y-125720424D01*
X111810424Y-125631416D01*
X111763699Y-125579468D01*
X111752478Y-125510506D01*
X111780321Y-125446424D01*
X111787830Y-125438206D01*
X111811826Y-125414211D01*
X111866866Y-125301625D01*
X111877500Y-125228636D01*
X111877500Y-124707364D01*
X111866866Y-124634375D01*
X111834878Y-124568942D01*
X111811827Y-124521789D01*
X111723210Y-124433172D01*
X111610628Y-124378135D01*
X111610626Y-124378134D01*
X111610625Y-124378134D01*
X111537636Y-124367500D01*
X111537630Y-124367500D01*
X111092477Y-124367500D01*
X111025438Y-124347815D01*
X111004796Y-124331181D01*
X110967296Y-124293681D01*
X110933811Y-124232358D01*
X110938795Y-124162666D01*
X110967297Y-124118318D01*
X111004798Y-124080818D01*
X111066122Y-124047333D01*
X111092478Y-124044500D01*
X111537630Y-124044500D01*
X111537636Y-124044500D01*
X111610625Y-124033866D01*
X111668118Y-124005759D01*
X111723210Y-123978827D01*
X111811827Y-123890210D01*
X111838759Y-123835118D01*
X111866866Y-123777625D01*
X111877500Y-123704636D01*
X111877500Y-123183364D01*
X111866866Y-123110375D01*
X111846611Y-123068942D01*
X111811827Y-122997789D01*
X111787840Y-122973802D01*
X111754355Y-122912479D01*
X111759339Y-122842787D01*
X111801211Y-122786854D01*
X111810424Y-122780582D01*
X111954733Y-122691571D01*
X112074572Y-122571732D01*
X112074575Y-122571728D01*
X112163542Y-122427492D01*
X112163547Y-122427481D01*
X112216855Y-122266606D01*
X112226999Y-122167322D01*
X112227000Y-122167309D01*
X112227000Y-122144000D01*
X110277001Y-122144000D01*
X110277001Y-122167325D01*
X110287571Y-122270791D01*
X110284768Y-122285864D01*
X110295501Y-122296987D01*
X110303332Y-122315459D01*
X110340452Y-122427481D01*
X110340457Y-122427492D01*
X110429424Y-122571728D01*
X110429427Y-122571732D01*
X110549266Y-122691571D01*
X110693575Y-122780582D01*
X110740299Y-122832530D01*
X110751522Y-122901493D01*
X110723678Y-122965575D01*
X110716161Y-122973801D01*
X110692172Y-122997790D01*
X110637135Y-123110371D01*
X110637134Y-123110373D01*
X110637134Y-123110375D01*
X110626500Y-123183364D01*
X110626500Y-123183369D01*
X110626500Y-123558500D01*
X110606815Y-123625539D01*
X110554011Y-123671294D01*
X110502500Y-123682500D01*
X110185434Y-123682500D01*
X110118395Y-123662815D01*
X110072640Y-123610011D01*
X110062696Y-123540853D01*
X110063813Y-123534325D01*
X110066500Y-123520820D01*
X110066500Y-122391180D01*
X110066500Y-122391177D01*
X110064009Y-122378655D01*
X110065927Y-122357212D01*
X110061111Y-122352283D01*
X110024503Y-122297495D01*
X109974724Y-122264234D01*
X109974717Y-122264231D01*
X109930822Y-122255500D01*
X109930820Y-122255500D01*
X108001180Y-122255500D01*
X108001178Y-122255500D01*
X107957282Y-122264231D01*
X107957275Y-122264234D01*
X107907496Y-122297495D01*
X107907495Y-122297496D01*
X107874234Y-122347275D01*
X107874231Y-122347282D01*
X107865500Y-122391177D01*
X107865500Y-122736884D01*
X107845815Y-122803923D01*
X107793011Y-122849678D01*
X107723853Y-122859622D01*
X107660297Y-122830597D01*
X107643125Y-122812371D01*
X107636642Y-122803923D01*
X107631621Y-122797379D01*
X107516625Y-122709139D01*
X107516624Y-122709138D01*
X107516622Y-122709137D01*
X107382712Y-122653671D01*
X107382710Y-122653670D01*
X107382709Y-122653670D01*
X107290453Y-122641524D01*
X107239001Y-122634750D01*
X107238998Y-122634750D01*
X107105767Y-122652290D01*
X107036732Y-122641524D01*
X107025416Y-122633000D01*
X106469110Y-122633000D01*
X106458932Y-122632500D01*
X106457942Y-122632500D01*
X104961058Y-122632500D01*
X104960068Y-122632500D01*
X104949890Y-122633000D01*
X104403450Y-122633000D01*
X104375158Y-122665260D01*
X104316156Y-122702683D01*
X104281931Y-122707500D01*
X104013123Y-122707500D01*
X103946084Y-122687815D01*
X103925442Y-122671181D01*
X103537260Y-122282999D01*
X104403448Y-122282999D01*
X104403449Y-122283000D01*
X105534500Y-122283000D01*
X105884500Y-122283000D01*
X107015549Y-122283000D01*
X107015550Y-122282998D01*
X107006881Y-122217140D01*
X107006877Y-122217128D01*
X106947683Y-122074219D01*
X106947680Y-122074213D01*
X106853510Y-121951490D01*
X106853509Y-121951489D01*
X106730786Y-121857319D01*
X106730780Y-121857316D01*
X106587871Y-121798122D01*
X106587866Y-121798120D01*
X106473012Y-121783000D01*
X105884500Y-121783000D01*
X105884500Y-122283000D01*
X105534500Y-122283000D01*
X105534500Y-121783000D01*
X104945986Y-121783000D01*
X104831140Y-121798118D01*
X104831128Y-121798122D01*
X104688219Y-121857316D01*
X104688213Y-121857319D01*
X104565490Y-121951489D01*
X104565489Y-121951490D01*
X104471319Y-122074213D01*
X104471316Y-122074219D01*
X104412121Y-122217131D01*
X104403448Y-122282999D01*
X103537260Y-122282999D01*
X103363811Y-122109550D01*
X103330326Y-122048227D01*
X103335310Y-121978535D01*
X103363809Y-121934190D01*
X103677322Y-121620677D01*
X110277000Y-121620677D01*
X110277000Y-121644000D01*
X111002000Y-121644000D01*
X111502000Y-121644000D01*
X112226999Y-121644000D01*
X112226999Y-121620692D01*
X112226998Y-121620677D01*
X112216855Y-121521392D01*
X112163547Y-121360518D01*
X112163542Y-121360507D01*
X112074575Y-121216271D01*
X112074572Y-121216267D01*
X111954732Y-121096427D01*
X111954728Y-121096424D01*
X111810492Y-121007457D01*
X111810481Y-121007452D01*
X111649606Y-120954144D01*
X111550322Y-120944000D01*
X111502000Y-120944000D01*
X111502000Y-121644000D01*
X111002000Y-121644000D01*
X111002000Y-120944000D01*
X111001999Y-120943999D01*
X110953693Y-120944000D01*
X110953675Y-120944001D01*
X110854392Y-120954144D01*
X110693518Y-121007452D01*
X110693507Y-121007457D01*
X110549271Y-121096424D01*
X110549267Y-121096427D01*
X110429427Y-121216267D01*
X110429424Y-121216271D01*
X110340457Y-121360507D01*
X110340452Y-121360518D01*
X110287144Y-121521393D01*
X110277000Y-121620677D01*
X103677322Y-121620677D01*
X106135681Y-119162319D01*
X106197004Y-119128834D01*
X106223362Y-119126000D01*
X106929630Y-119126000D01*
X106977079Y-119135438D01*
G37*
G04 #@! TD.AperFunction*
M02*
