G04 #@! TF.GenerationSoftware,KiCad,Pcbnew,7.0.10-7.0.10~ubuntu22.04.1*
G04 #@! TF.CreationDate,2024-03-30T20:23:10+11:00*
G04 #@! TF.ProjectId,AtariHDisk4,41746172-6948-4446-9973-6b342e6b6963,rev?*
G04 #@! TF.SameCoordinates,Original*
G04 #@! TF.FileFunction,Copper,L2,Inr*
G04 #@! TF.FilePolarity,Positive*
%FSLAX46Y46*%
G04 Gerber Fmt 4.6, Leading zero omitted, Abs format (unit mm)*
G04 Created by KiCad (PCBNEW 7.0.10-7.0.10~ubuntu22.04.1) date 2024-03-30 20:23:10*
%MOMM*%
%LPD*%
G01*
G04 APERTURE LIST*
G04 Aperture macros list*
%AMRoundRect*
0 Rectangle with rounded corners*
0 $1 Rounding radius*
0 $2 $3 $4 $5 $6 $7 $8 $9 X,Y pos of 4 corners*
0 Add a 4 corners polygon primitive as box body*
4,1,4,$2,$3,$4,$5,$6,$7,$8,$9,$2,$3,0*
0 Add four circle primitives for the rounded corners*
1,1,$1+$1,$2,$3*
1,1,$1+$1,$4,$5*
1,1,$1+$1,$6,$7*
1,1,$1+$1,$8,$9*
0 Add four rect primitives between the rounded corners*
20,1,$1+$1,$2,$3,$4,$5,0*
20,1,$1+$1,$4,$5,$6,$7,0*
20,1,$1+$1,$6,$7,$8,$9,0*
20,1,$1+$1,$8,$9,$2,$3,0*%
G04 Aperture macros list end*
G04 #@! TA.AperFunction,ComponentPad*
%ADD10R,1.700000X1.700000*%
G04 #@! TD*
G04 #@! TA.AperFunction,ComponentPad*
%ADD11O,1.700000X1.700000*%
G04 #@! TD*
G04 #@! TA.AperFunction,ComponentPad*
%ADD12R,1.600000X1.600000*%
G04 #@! TD*
G04 #@! TA.AperFunction,ComponentPad*
%ADD13C,1.600000*%
G04 #@! TD*
G04 #@! TA.AperFunction,ComponentPad*
%ADD14R,3.500000X3.500000*%
G04 #@! TD*
G04 #@! TA.AperFunction,ComponentPad*
%ADD15RoundRect,0.750000X-1.000000X0.750000X-1.000000X-0.750000X1.000000X-0.750000X1.000000X0.750000X0*%
G04 #@! TD*
G04 #@! TA.AperFunction,ComponentPad*
%ADD16RoundRect,0.875000X-0.875000X0.875000X-0.875000X-0.875000X0.875000X-0.875000X0.875000X0.875000X0*%
G04 #@! TD*
G04 #@! TA.AperFunction,ComponentPad*
%ADD17R,1.800000X1.800000*%
G04 #@! TD*
G04 #@! TA.AperFunction,ComponentPad*
%ADD18C,1.800000*%
G04 #@! TD*
G04 #@! TA.AperFunction,ComponentPad*
%ADD19C,1.000000*%
G04 #@! TD*
G04 #@! TA.AperFunction,ComponentPad*
%ADD20RoundRect,0.250000X0.600000X-0.600000X0.600000X0.600000X-0.600000X0.600000X-0.600000X-0.600000X0*%
G04 #@! TD*
G04 #@! TA.AperFunction,ComponentPad*
%ADD21C,1.700000*%
G04 #@! TD*
G04 #@! TA.AperFunction,ViaPad*
%ADD22C,0.800000*%
G04 #@! TD*
G04 APERTURE END LIST*
D10*
X63246000Y-123190000D03*
D11*
X60706000Y-123190000D03*
X63246000Y-120650000D03*
X60706000Y-120650000D03*
X63246000Y-118110000D03*
X60706000Y-118110000D03*
D12*
X146050000Y-71628000D03*
D13*
X148050000Y-71628000D03*
D10*
X58674000Y-86106000D03*
D11*
X58674000Y-83566000D03*
X61214000Y-86106000D03*
X61214000Y-83566000D03*
X63754000Y-86106000D03*
X63754000Y-83566000D03*
X66294000Y-86106000D03*
X66294000Y-83566000D03*
X68834000Y-86106000D03*
X68834000Y-83566000D03*
D14*
X137922000Y-70358000D03*
D15*
X137922000Y-64358000D03*
D16*
X133222000Y-67358000D03*
D17*
X123444000Y-121666000D03*
D18*
X125984000Y-121666000D03*
D10*
X60706000Y-102108000D03*
D11*
X63246000Y-102108000D03*
D19*
X137083000Y-106020000D03*
X137083000Y-107920000D03*
D17*
X129286000Y-121666000D03*
D18*
X131826000Y-121666000D03*
D10*
X143535400Y-117830600D03*
D11*
X146075400Y-117830600D03*
X143535400Y-120370600D03*
X146075400Y-120370600D03*
X143535400Y-122910600D03*
X146075400Y-122910600D03*
D20*
X102108000Y-70104000D03*
D21*
X104648000Y-70104000D03*
X107188000Y-70104000D03*
X109728000Y-70104000D03*
X112268000Y-70104000D03*
X114808000Y-70104000D03*
X117348000Y-70104000D03*
X119888000Y-70104000D03*
X122428000Y-70104000D03*
X124968000Y-70104000D03*
X102108000Y-67564000D03*
X104648000Y-67564000D03*
X107188000Y-67564000D03*
X109728000Y-67564000D03*
X112268000Y-67564000D03*
X114808000Y-67564000D03*
X117348000Y-67564000D03*
X119888000Y-67564000D03*
X122428000Y-67564000D03*
X124968000Y-67564000D03*
D22*
X94996000Y-71882000D03*
X141224000Y-93980000D03*
X140208000Y-89154000D03*
X110998000Y-80010000D03*
X91948000Y-89916000D03*
X132080000Y-60452000D03*
X68072000Y-103378000D03*
X143002000Y-97282000D03*
X68072000Y-127000000D03*
X150622000Y-99060000D03*
X103886000Y-80772000D03*
X113792000Y-115316000D03*
X132334000Y-70612000D03*
X120396000Y-81534000D03*
X95504000Y-127000000D03*
X102398770Y-107720513D03*
X93218000Y-104394000D03*
X79248000Y-76708000D03*
X136296400Y-127965200D03*
X85751000Y-76131500D03*
X114085200Y-72998400D03*
X148590000Y-108204000D03*
X73406000Y-98552000D03*
X122936000Y-75946000D03*
X146558000Y-86360000D03*
X93218000Y-105410000D03*
X71374000Y-80518000D03*
X131826000Y-109982000D03*
X110490000Y-99060000D03*
X108712000Y-76962000D03*
X149098000Y-60452000D03*
X139192000Y-95758000D03*
X100584000Y-124714000D03*
X120396000Y-89916000D03*
X147066000Y-79502000D03*
X130048000Y-91186000D03*
X150876000Y-106172000D03*
X130810000Y-86868000D03*
X140970000Y-107188000D03*
X76708000Y-84836000D03*
X138684000Y-112522000D03*
X136398000Y-91694000D03*
X68072000Y-105410000D03*
X68072000Y-124968000D03*
X93218000Y-103378000D03*
X115316000Y-91186000D03*
X87625631Y-71322369D03*
X83820000Y-67818000D03*
X150876000Y-86360000D03*
X139446000Y-128016000D03*
X65532000Y-95250000D03*
X103378000Y-103124000D03*
X83820000Y-76962000D03*
X91948000Y-87884000D03*
X110744000Y-103124000D03*
X96520000Y-83743001D03*
X136398000Y-100838000D03*
X108712000Y-114554000D03*
X128270000Y-80010000D03*
X115316000Y-88646000D03*
X97028000Y-114046000D03*
X68072000Y-104394000D03*
X76200000Y-100838000D03*
X139700000Y-117094000D03*
X101600000Y-76962000D03*
X146304000Y-106172000D03*
X133096000Y-109220000D03*
X134620000Y-103886000D03*
X137160000Y-73406000D03*
X137668000Y-82296000D03*
X136652000Y-80010000D03*
X69088000Y-77216000D03*
X150622000Y-75438000D03*
X96774000Y-89154000D03*
X135128000Y-105410000D03*
X148590000Y-88392000D03*
X103378000Y-99568000D03*
X95504000Y-125984000D03*
X84074000Y-100076000D03*
X96012000Y-80010000D03*
X95504000Y-124968000D03*
X140120800Y-122834400D03*
X68072000Y-125984000D03*
X134874000Y-100838000D03*
X68072000Y-67818000D03*
X120396000Y-91948000D03*
X142240000Y-87376000D03*
X136398000Y-87630000D03*
X134620000Y-109728000D03*
X138684000Y-87630000D03*
X84582000Y-70866000D03*
X95504000Y-70358000D03*
X81280000Y-98552000D03*
X94742000Y-86614000D03*
X110744000Y-101600000D03*
X122912000Y-79754260D03*
X110998000Y-116276000D03*
X134620000Y-111760000D03*
X77978000Y-82042000D03*
X129032000Y-111760000D03*
X68149000Y-88138000D03*
X102108000Y-121920000D03*
X139700000Y-99822000D03*
X104394000Y-78232000D03*
X84328000Y-80264000D03*
X101092000Y-105918000D03*
X111252000Y-78232000D03*
X117602000Y-93218000D03*
X103378000Y-101600000D03*
X95504000Y-88900000D03*
X118110000Y-88646000D03*
X137922000Y-97282000D03*
X81026000Y-80518000D03*
X74930000Y-80518000D03*
X75438000Y-92456000D03*
X82296000Y-92456000D03*
X104471000Y-106172000D03*
X116586000Y-88646000D03*
X101600000Y-107188000D03*
X96017092Y-112575631D03*
X70866000Y-101092000D03*
X80010000Y-80518000D03*
X85340696Y-100333304D03*
X96774000Y-109728000D03*
X118618000Y-112776000D03*
X75946000Y-80518000D03*
X119448721Y-114418540D03*
X78740000Y-101092000D03*
X96018906Y-111608707D03*
X79502000Y-100076000D03*
X96091000Y-110650039D03*
X119380000Y-113461000D03*
X96520000Y-95758000D03*
X96520000Y-96774000D03*
X96520000Y-93726000D03*
X96520000Y-94742000D03*
X135128000Y-106426000D03*
X69596000Y-101092000D03*
X96012000Y-113538000D03*
X114566283Y-106184283D03*
X110490000Y-112268000D03*
X110490000Y-111252000D03*
X114143736Y-105213730D03*
X113384000Y-104626868D03*
X108712000Y-110998000D03*
X109474000Y-110236000D03*
X112699000Y-105374655D03*
X112014000Y-104648000D03*
X108712000Y-109474000D03*
X111252000Y-105410000D03*
X107950000Y-108712000D03*
X114300000Y-107188000D03*
X111506000Y-112268000D03*
X114046000Y-108204000D03*
X112268000Y-113030000D03*
X74930000Y-98552000D03*
X96012000Y-114554000D03*
X96911000Y-108458000D03*
X103071747Y-120104492D03*
G04 #@! TA.AperFunction,Conductor*
G36*
X149803039Y-59709685D02*
G01*
X149848794Y-59762489D01*
X149860000Y-59814000D01*
X149860000Y-60960000D01*
X151514000Y-60960000D01*
X151581039Y-60979685D01*
X151626794Y-61032489D01*
X151638000Y-61084000D01*
X151638000Y-89792000D01*
X151618315Y-89859039D01*
X151565511Y-89904794D01*
X151514000Y-89916000D01*
X144272000Y-89916000D01*
X144272000Y-98044000D01*
X151514000Y-98044000D01*
X151581039Y-98063685D01*
X151626794Y-98116489D01*
X151638000Y-98168000D01*
X151638000Y-126876000D01*
X151618315Y-126943039D01*
X151565511Y-126988794D01*
X151514000Y-127000000D01*
X149860000Y-127000000D01*
X149860000Y-128146000D01*
X149840315Y-128213039D01*
X149787511Y-128258794D01*
X149736000Y-128270000D01*
X57274000Y-128270000D01*
X57206961Y-128250315D01*
X57161206Y-128197511D01*
X57150000Y-128146000D01*
X57150000Y-127000000D01*
X55496000Y-127000000D01*
X55428961Y-126980315D01*
X55383206Y-126927511D01*
X55372000Y-126876000D01*
X55372000Y-123190000D01*
X59690611Y-123190000D01*
X59710121Y-123388095D01*
X59767903Y-123578574D01*
X59861731Y-123754114D01*
X59861735Y-123754121D01*
X59988011Y-123907988D01*
X60141878Y-124034264D01*
X60141885Y-124034268D01*
X60269770Y-124102624D01*
X60317427Y-124128097D01*
X60507907Y-124185879D01*
X60706000Y-124205389D01*
X60904093Y-124185879D01*
X61094573Y-124128097D01*
X61229816Y-124055808D01*
X62235499Y-124055808D01*
X62244812Y-124102623D01*
X62244813Y-124102624D01*
X62280286Y-124155714D01*
X62325432Y-124185879D01*
X62333376Y-124191187D01*
X62380191Y-124200500D01*
X62380194Y-124200500D01*
X64111808Y-124200500D01*
X64143018Y-124194291D01*
X64158624Y-124191187D01*
X64211714Y-124155714D01*
X64247187Y-124102624D01*
X64256500Y-124055806D01*
X64256500Y-122613844D01*
X122044000Y-122613844D01*
X122050401Y-122673372D01*
X122050403Y-122673379D01*
X122100645Y-122808086D01*
X122100649Y-122808093D01*
X122186809Y-122923187D01*
X122186812Y-122923190D01*
X122301906Y-123009350D01*
X122301913Y-123009354D01*
X122436620Y-123059596D01*
X122436627Y-123059598D01*
X122496155Y-123065999D01*
X122496172Y-123066000D01*
X123194000Y-123066000D01*
X123194000Y-122040189D01*
X123246547Y-122076016D01*
X123376173Y-122116000D01*
X123477724Y-122116000D01*
X123578138Y-122100865D01*
X123694000Y-122045068D01*
X123694000Y-123066000D01*
X124391828Y-123066000D01*
X124391844Y-123065999D01*
X124451372Y-123059598D01*
X124451379Y-123059596D01*
X124586086Y-123009354D01*
X124586093Y-123009350D01*
X124701187Y-122923190D01*
X124701190Y-122923187D01*
X124787350Y-122808093D01*
X124787354Y-122808086D01*
X124837596Y-122673379D01*
X124837598Y-122673372D01*
X124843999Y-122613844D01*
X124844000Y-122613827D01*
X124844000Y-122277943D01*
X124863685Y-122210904D01*
X124916489Y-122165149D01*
X124985647Y-122155205D01*
X125049203Y-122184230D01*
X125077359Y-122219491D01*
X125097958Y-122258031D01*
X125097960Y-122258034D01*
X125230484Y-122419515D01*
X125391965Y-122552039D01*
X125391972Y-122552043D01*
X125576193Y-122650511D01*
X125576194Y-122650511D01*
X125576201Y-122650515D01*
X125776106Y-122711155D01*
X125776105Y-122711155D01*
X125789802Y-122712504D01*
X125984000Y-122731631D01*
X126191894Y-122711155D01*
X126391799Y-122650515D01*
X126460406Y-122613844D01*
X127886000Y-122613844D01*
X127892401Y-122673372D01*
X127892403Y-122673379D01*
X127942645Y-122808086D01*
X127942649Y-122808093D01*
X128028809Y-122923187D01*
X128028812Y-122923190D01*
X128143906Y-123009350D01*
X128143913Y-123009354D01*
X128278620Y-123059596D01*
X128278627Y-123059598D01*
X128338155Y-123065999D01*
X128338172Y-123066000D01*
X129036000Y-123066000D01*
X129036000Y-122040189D01*
X129088547Y-122076016D01*
X129218173Y-122116000D01*
X129319724Y-122116000D01*
X129420138Y-122100865D01*
X129536000Y-122045068D01*
X129536000Y-123066000D01*
X130233828Y-123066000D01*
X130233844Y-123065999D01*
X130293372Y-123059598D01*
X130293379Y-123059596D01*
X130428086Y-123009354D01*
X130428093Y-123009350D01*
X130543187Y-122923190D01*
X130543190Y-122923187D01*
X130552613Y-122910600D01*
X142520011Y-122910600D01*
X142539521Y-123108695D01*
X142597303Y-123299174D01*
X142691131Y-123474714D01*
X142691135Y-123474721D01*
X142817411Y-123628588D01*
X142971278Y-123754864D01*
X142971285Y-123754868D01*
X143021451Y-123781682D01*
X143146827Y-123848697D01*
X143337307Y-123906479D01*
X143535400Y-123925989D01*
X143733493Y-123906479D01*
X143923973Y-123848697D01*
X144099520Y-123754865D01*
X144253388Y-123628588D01*
X144379665Y-123474720D01*
X144473497Y-123299173D01*
X144511201Y-123174878D01*
X144549498Y-123116442D01*
X144613310Y-123087986D01*
X144682377Y-123098546D01*
X144734771Y-123144770D01*
X144749636Y-123178782D01*
X144801967Y-123374086D01*
X144801970Y-123374092D01*
X144901799Y-123588178D01*
X145037294Y-123781682D01*
X145204317Y-123948705D01*
X145397821Y-124084200D01*
X145611907Y-124184029D01*
X145611916Y-124184033D01*
X145825400Y-124241234D01*
X145825400Y-123346101D01*
X145933085Y-123395280D01*
X146039637Y-123410600D01*
X146111163Y-123410600D01*
X146217715Y-123395280D01*
X146325400Y-123346101D01*
X146325400Y-124241233D01*
X146538883Y-124184033D01*
X146538892Y-124184029D01*
X146752978Y-124084200D01*
X146946482Y-123948705D01*
X147113505Y-123781682D01*
X147249000Y-123588178D01*
X147348829Y-123374092D01*
X147348832Y-123374086D01*
X147406036Y-123160600D01*
X146509086Y-123160600D01*
X146534893Y-123120444D01*
X146575400Y-122982489D01*
X146575400Y-122838711D01*
X146534893Y-122700756D01*
X146509086Y-122660600D01*
X147406036Y-122660600D01*
X147406035Y-122660599D01*
X147348832Y-122447113D01*
X147348829Y-122447107D01*
X147249000Y-122233022D01*
X147248999Y-122233020D01*
X147113513Y-122039526D01*
X147113508Y-122039520D01*
X146946482Y-121872494D01*
X146752978Y-121736999D01*
X146538892Y-121637170D01*
X146538886Y-121637167D01*
X146343582Y-121584836D01*
X146283922Y-121548471D01*
X146253393Y-121485624D01*
X146261688Y-121416248D01*
X146306173Y-121362370D01*
X146339675Y-121346402D01*
X146463973Y-121308697D01*
X146639520Y-121214865D01*
X146793388Y-121088588D01*
X146919665Y-120934720D01*
X147013497Y-120759173D01*
X147071279Y-120568693D01*
X147090789Y-120370600D01*
X147071279Y-120172507D01*
X147013497Y-119982027D01*
X147000746Y-119958171D01*
X146919668Y-119806485D01*
X146919664Y-119806478D01*
X146793388Y-119652611D01*
X146639521Y-119526335D01*
X146639514Y-119526331D01*
X146463974Y-119432503D01*
X146273495Y-119374721D01*
X146075400Y-119355211D01*
X145877304Y-119374721D01*
X145686825Y-119432503D01*
X145511285Y-119526331D01*
X145511278Y-119526335D01*
X145357411Y-119652611D01*
X145231135Y-119806478D01*
X145231131Y-119806485D01*
X145137303Y-119982025D01*
X145079521Y-120172504D01*
X145060011Y-120370600D01*
X145079521Y-120568695D01*
X145137303Y-120759174D01*
X145231131Y-120934714D01*
X145231135Y-120934721D01*
X145357411Y-121088588D01*
X145511278Y-121214864D01*
X145511285Y-121214868D01*
X145686822Y-121308695D01*
X145686824Y-121308695D01*
X145686827Y-121308697D01*
X145811119Y-121346401D01*
X145869557Y-121384698D01*
X145898013Y-121448510D01*
X145887453Y-121517577D01*
X145841229Y-121569971D01*
X145807217Y-121584836D01*
X145611913Y-121637167D01*
X145611907Y-121637170D01*
X145397822Y-121736999D01*
X145397820Y-121737000D01*
X145204326Y-121872486D01*
X145204320Y-121872491D01*
X145037291Y-122039520D01*
X145037286Y-122039526D01*
X144901800Y-122233020D01*
X144901799Y-122233022D01*
X144801970Y-122447107D01*
X144801967Y-122447113D01*
X144749636Y-122642417D01*
X144713271Y-122702077D01*
X144650424Y-122732606D01*
X144581048Y-122724311D01*
X144527170Y-122679826D01*
X144511201Y-122646321D01*
X144473497Y-122522027D01*
X144473495Y-122522024D01*
X144473495Y-122522022D01*
X144379668Y-122346485D01*
X144379664Y-122346478D01*
X144253388Y-122192611D01*
X144099521Y-122066335D01*
X144099514Y-122066331D01*
X143923974Y-121972503D01*
X143733495Y-121914721D01*
X143535400Y-121895211D01*
X143337304Y-121914721D01*
X143146825Y-121972503D01*
X142971285Y-122066331D01*
X142971278Y-122066335D01*
X142817411Y-122192611D01*
X142691135Y-122346478D01*
X142691131Y-122346485D01*
X142597303Y-122522025D01*
X142539521Y-122712504D01*
X142520011Y-122910600D01*
X130552613Y-122910600D01*
X130629350Y-122808093D01*
X130629354Y-122808086D01*
X130679596Y-122673379D01*
X130679598Y-122673372D01*
X130685999Y-122613844D01*
X130686000Y-122613827D01*
X130686000Y-122277943D01*
X130705685Y-122210904D01*
X130758489Y-122165149D01*
X130827647Y-122155205D01*
X130891203Y-122184230D01*
X130919359Y-122219491D01*
X130939958Y-122258031D01*
X130939960Y-122258034D01*
X131072484Y-122419515D01*
X131233965Y-122552039D01*
X131233972Y-122552043D01*
X131418193Y-122650511D01*
X131418194Y-122650511D01*
X131418201Y-122650515D01*
X131618106Y-122711155D01*
X131618105Y-122711155D01*
X131631802Y-122712504D01*
X131826000Y-122731631D01*
X132033894Y-122711155D01*
X132233799Y-122650515D01*
X132418033Y-122552040D01*
X132579515Y-122419515D01*
X132712040Y-122258033D01*
X132810515Y-122073799D01*
X132871155Y-121873894D01*
X132891631Y-121666000D01*
X132871155Y-121458106D01*
X132810515Y-121258201D01*
X132787353Y-121214868D01*
X132712043Y-121073972D01*
X132712039Y-121073965D01*
X132579515Y-120912484D01*
X132418034Y-120779960D01*
X132418027Y-120779956D01*
X132233806Y-120681488D01*
X132233803Y-120681487D01*
X132233802Y-120681486D01*
X132233799Y-120681485D01*
X132033894Y-120620845D01*
X132033892Y-120620844D01*
X132033894Y-120620844D01*
X131826000Y-120600369D01*
X131618107Y-120620844D01*
X131521994Y-120650000D01*
X131418201Y-120681485D01*
X131418198Y-120681486D01*
X131418196Y-120681487D01*
X131418193Y-120681488D01*
X131233972Y-120779956D01*
X131233965Y-120779960D01*
X131072484Y-120912484D01*
X130939960Y-121073965D01*
X130939956Y-121073972D01*
X130919358Y-121112509D01*
X130870396Y-121162353D01*
X130802258Y-121177814D01*
X130736579Y-121153982D01*
X130694210Y-121098425D01*
X130686000Y-121054056D01*
X130686000Y-120718172D01*
X130685999Y-120718155D01*
X130679598Y-120658627D01*
X130679596Y-120658620D01*
X130629354Y-120523913D01*
X130629350Y-120523906D01*
X130543190Y-120408812D01*
X130543187Y-120408809D01*
X130428093Y-120322649D01*
X130428086Y-120322645D01*
X130293379Y-120272403D01*
X130293372Y-120272401D01*
X130233844Y-120266000D01*
X129536000Y-120266000D01*
X129536000Y-121291810D01*
X129483453Y-121255984D01*
X129353827Y-121216000D01*
X129252276Y-121216000D01*
X129151862Y-121231135D01*
X129036000Y-121286931D01*
X129036000Y-120266000D01*
X128338155Y-120266000D01*
X128278627Y-120272401D01*
X128278620Y-120272403D01*
X128143913Y-120322645D01*
X128143906Y-120322649D01*
X128028812Y-120408809D01*
X128028809Y-120408812D01*
X127942649Y-120523906D01*
X127942645Y-120523913D01*
X127892403Y-120658620D01*
X127892401Y-120658627D01*
X127886000Y-120718155D01*
X127886000Y-121416000D01*
X128910722Y-121416000D01*
X128862375Y-121499740D01*
X128832190Y-121631992D01*
X128842327Y-121767265D01*
X128891887Y-121893541D01*
X128909797Y-121916000D01*
X127886000Y-121916000D01*
X127886000Y-122613844D01*
X126460406Y-122613844D01*
X126576033Y-122552040D01*
X126737515Y-122419515D01*
X126870040Y-122258033D01*
X126968515Y-122073799D01*
X127029155Y-121873894D01*
X127049631Y-121666000D01*
X127029155Y-121458106D01*
X126968515Y-121258201D01*
X126945353Y-121214868D01*
X126870043Y-121073972D01*
X126870039Y-121073965D01*
X126737515Y-120912484D01*
X126576034Y-120779960D01*
X126576027Y-120779956D01*
X126391806Y-120681488D01*
X126391803Y-120681487D01*
X126391802Y-120681486D01*
X126391799Y-120681485D01*
X126191894Y-120620845D01*
X126191892Y-120620844D01*
X126191894Y-120620844D01*
X125984000Y-120600369D01*
X125776107Y-120620844D01*
X125679994Y-120650000D01*
X125576201Y-120681485D01*
X125576198Y-120681486D01*
X125576196Y-120681487D01*
X125576193Y-120681488D01*
X125391972Y-120779956D01*
X125391965Y-120779960D01*
X125230484Y-120912484D01*
X125097960Y-121073965D01*
X125097956Y-121073972D01*
X125077358Y-121112509D01*
X125028396Y-121162353D01*
X124960258Y-121177814D01*
X124894579Y-121153982D01*
X124852210Y-121098425D01*
X124844000Y-121054056D01*
X124844000Y-120718172D01*
X124843999Y-120718155D01*
X124837598Y-120658627D01*
X124837596Y-120658620D01*
X124787354Y-120523913D01*
X124787350Y-120523906D01*
X124701190Y-120408812D01*
X124701187Y-120408809D01*
X124586093Y-120322649D01*
X124586086Y-120322645D01*
X124451379Y-120272403D01*
X124451372Y-120272401D01*
X124391844Y-120266000D01*
X123694000Y-120266000D01*
X123694000Y-121291810D01*
X123641453Y-121255984D01*
X123511827Y-121216000D01*
X123410276Y-121216000D01*
X123309862Y-121231135D01*
X123194000Y-121286931D01*
X123194000Y-120266000D01*
X122496155Y-120266000D01*
X122436627Y-120272401D01*
X122436620Y-120272403D01*
X122301913Y-120322645D01*
X122301906Y-120322649D01*
X122186812Y-120408809D01*
X122186809Y-120408812D01*
X122100649Y-120523906D01*
X122100645Y-120523913D01*
X122050403Y-120658620D01*
X122050401Y-120658627D01*
X122044000Y-120718155D01*
X122044000Y-121416000D01*
X123068722Y-121416000D01*
X123020375Y-121499740D01*
X122990190Y-121631992D01*
X123000327Y-121767265D01*
X123049887Y-121893541D01*
X123067797Y-121916000D01*
X122044000Y-121916000D01*
X122044000Y-122613844D01*
X64256500Y-122613844D01*
X64256500Y-122324194D01*
X64256500Y-122324191D01*
X64247187Y-122277376D01*
X64234263Y-122258034D01*
X64211714Y-122224286D01*
X64164310Y-122192612D01*
X64158623Y-122188812D01*
X64111808Y-122179500D01*
X64111806Y-122179500D01*
X62380194Y-122179500D01*
X62380192Y-122179500D01*
X62333376Y-122188812D01*
X62280286Y-122224286D01*
X62244812Y-122277376D01*
X62235500Y-122324191D01*
X62235500Y-122324194D01*
X62235500Y-124055806D01*
X62235500Y-124055808D01*
X62235499Y-124055808D01*
X61229816Y-124055808D01*
X61270120Y-124034265D01*
X61423988Y-123907988D01*
X61550265Y-123754120D01*
X61644097Y-123578573D01*
X61701879Y-123388093D01*
X61721389Y-123190000D01*
X61701879Y-122991907D01*
X61644097Y-122801427D01*
X61635103Y-122784600D01*
X61550268Y-122625885D01*
X61550264Y-122625878D01*
X61423988Y-122472011D01*
X61270121Y-122345735D01*
X61270114Y-122345731D01*
X61094574Y-122251903D01*
X60904095Y-122194121D01*
X60706000Y-122174611D01*
X60507904Y-122194121D01*
X60317425Y-122251903D01*
X60141885Y-122345731D01*
X60141878Y-122345735D01*
X59988011Y-122472011D01*
X59861735Y-122625878D01*
X59861731Y-122625885D01*
X59767903Y-122801425D01*
X59710121Y-122991904D01*
X59690611Y-123190000D01*
X55372000Y-123190000D01*
X55372000Y-121920001D01*
X101542663Y-121920001D01*
X101561925Y-122066318D01*
X101561926Y-122066320D01*
X101618403Y-122202668D01*
X101618404Y-122202669D01*
X101708246Y-122319754D01*
X101825331Y-122409596D01*
X101961680Y-122466074D01*
X102006777Y-122472011D01*
X102107999Y-122485337D01*
X102108000Y-122485337D01*
X102108001Y-122485337D01*
X102156773Y-122478916D01*
X102254320Y-122466074D01*
X102390669Y-122409596D01*
X102507754Y-122319754D01*
X102597596Y-122202669D01*
X102654074Y-122066320D01*
X102673337Y-121920000D01*
X102672810Y-121916000D01*
X102654074Y-121773681D01*
X102654074Y-121773680D01*
X102609218Y-121665389D01*
X102597596Y-121637331D01*
X102507756Y-121520247D01*
X102390668Y-121430403D01*
X102254320Y-121373926D01*
X102254318Y-121373925D01*
X102108001Y-121354663D01*
X102107999Y-121354663D01*
X101961681Y-121373925D01*
X101961679Y-121373926D01*
X101825332Y-121430403D01*
X101708246Y-121520246D01*
X101618403Y-121637332D01*
X101561926Y-121773679D01*
X101561925Y-121773681D01*
X101542663Y-121919998D01*
X101542663Y-121920001D01*
X55372000Y-121920001D01*
X55372000Y-118360000D01*
X59375364Y-118360000D01*
X59432567Y-118573486D01*
X59432570Y-118573492D01*
X59532399Y-118787578D01*
X59667894Y-118981082D01*
X59834917Y-119148105D01*
X60028421Y-119283600D01*
X60242507Y-119383429D01*
X60242516Y-119383433D01*
X60437816Y-119435763D01*
X60497477Y-119472128D01*
X60528006Y-119534975D01*
X60519711Y-119604350D01*
X60475226Y-119658228D01*
X60441719Y-119674198D01*
X60317425Y-119711903D01*
X60141885Y-119805731D01*
X60141878Y-119805735D01*
X59988011Y-119932011D01*
X59861735Y-120085878D01*
X59861731Y-120085885D01*
X59767903Y-120261425D01*
X59710121Y-120451904D01*
X59690611Y-120650000D01*
X59710121Y-120848095D01*
X59767903Y-121038574D01*
X59861731Y-121214114D01*
X59861735Y-121214121D01*
X59988011Y-121367988D01*
X60141878Y-121494264D01*
X60141885Y-121494268D01*
X60311326Y-121584836D01*
X60317427Y-121588097D01*
X60507907Y-121645879D01*
X60706000Y-121665389D01*
X60904093Y-121645879D01*
X61094573Y-121588097D01*
X61270120Y-121494265D01*
X61423988Y-121367988D01*
X61550265Y-121214120D01*
X61644097Y-121038573D01*
X61701879Y-120848093D01*
X61721389Y-120650000D01*
X62230611Y-120650000D01*
X62250121Y-120848095D01*
X62307903Y-121038574D01*
X62401731Y-121214114D01*
X62401735Y-121214121D01*
X62528011Y-121367988D01*
X62681878Y-121494264D01*
X62681885Y-121494268D01*
X62851326Y-121584836D01*
X62857427Y-121588097D01*
X63047907Y-121645879D01*
X63246000Y-121665389D01*
X63444093Y-121645879D01*
X63634573Y-121588097D01*
X63810120Y-121494265D01*
X63963988Y-121367988D01*
X64090265Y-121214120D01*
X64184097Y-121038573D01*
X64241879Y-120848093D01*
X64261389Y-120650000D01*
X64241879Y-120451907D01*
X64184097Y-120261427D01*
X64100214Y-120104493D01*
X102506410Y-120104493D01*
X102525672Y-120250810D01*
X102525673Y-120250812D01*
X102582150Y-120387160D01*
X102582151Y-120387161D01*
X102671993Y-120504246D01*
X102789078Y-120594088D01*
X102925427Y-120650566D01*
X102986658Y-120658627D01*
X103071746Y-120669829D01*
X103071747Y-120669829D01*
X103071748Y-120669829D01*
X103156836Y-120658627D01*
X103218067Y-120650566D01*
X103354416Y-120594088D01*
X103471501Y-120504246D01*
X103561343Y-120387161D01*
X103617821Y-120250812D01*
X103637084Y-120104492D01*
X103634634Y-120085885D01*
X103624242Y-120006945D01*
X103617821Y-119958172D01*
X103561343Y-119821824D01*
X103561343Y-119821823D01*
X103471503Y-119704739D01*
X103354415Y-119614895D01*
X103218067Y-119558418D01*
X103218065Y-119558417D01*
X103071748Y-119539155D01*
X103071746Y-119539155D01*
X102925428Y-119558417D01*
X102925426Y-119558418D01*
X102789079Y-119614895D01*
X102671993Y-119704738D01*
X102582150Y-119821824D01*
X102525673Y-119958171D01*
X102525672Y-119958173D01*
X102506410Y-120104490D01*
X102506410Y-120104493D01*
X64100214Y-120104493D01*
X64090268Y-120085885D01*
X64090264Y-120085878D01*
X63963988Y-119932011D01*
X63810121Y-119805735D01*
X63810114Y-119805731D01*
X63634574Y-119711903D01*
X63444095Y-119654121D01*
X63246000Y-119634611D01*
X63047904Y-119654121D01*
X62857425Y-119711903D01*
X62681885Y-119805731D01*
X62681878Y-119805735D01*
X62528011Y-119932011D01*
X62401735Y-120085878D01*
X62401731Y-120085885D01*
X62307903Y-120261425D01*
X62250121Y-120451904D01*
X62230611Y-120650000D01*
X61721389Y-120650000D01*
X61701879Y-120451907D01*
X61644097Y-120261427D01*
X61560214Y-120104493D01*
X61550268Y-120085885D01*
X61550264Y-120085878D01*
X61423988Y-119932011D01*
X61270121Y-119805735D01*
X61270114Y-119805731D01*
X61094574Y-119711903D01*
X60970280Y-119674198D01*
X60911842Y-119635901D01*
X60883385Y-119572088D01*
X60893946Y-119503021D01*
X60940171Y-119450628D01*
X60974183Y-119435763D01*
X61169483Y-119383433D01*
X61169492Y-119383429D01*
X61383578Y-119283600D01*
X61577082Y-119148105D01*
X61744105Y-118981082D01*
X61879600Y-118787578D01*
X61979429Y-118573492D01*
X61979433Y-118573483D01*
X62031763Y-118378183D01*
X62068128Y-118318522D01*
X62130975Y-118287993D01*
X62200350Y-118296287D01*
X62254228Y-118340773D01*
X62270198Y-118374280D01*
X62307903Y-118498574D01*
X62401731Y-118674114D01*
X62401735Y-118674121D01*
X62528011Y-118827988D01*
X62681878Y-118954264D01*
X62681885Y-118954268D01*
X62732051Y-118981082D01*
X62857427Y-119048097D01*
X63047907Y-119105879D01*
X63246000Y-119125389D01*
X63444093Y-119105879D01*
X63634573Y-119048097D01*
X63810120Y-118954265D01*
X63963988Y-118827988D01*
X64045682Y-118728444D01*
X142185400Y-118728444D01*
X142191801Y-118787972D01*
X142191803Y-118787979D01*
X142242045Y-118922686D01*
X142242049Y-118922693D01*
X142328209Y-119037787D01*
X142328212Y-119037790D01*
X142443306Y-119123950D01*
X142443313Y-119123954D01*
X142578020Y-119174196D01*
X142578027Y-119174198D01*
X142637555Y-119180599D01*
X142637572Y-119180600D01*
X143141300Y-119180600D01*
X143208339Y-119200285D01*
X143254094Y-119253089D01*
X143264038Y-119322247D01*
X143235013Y-119385803D01*
X143177296Y-119423260D01*
X143146825Y-119432503D01*
X142971285Y-119526331D01*
X142971278Y-119526335D01*
X142817411Y-119652611D01*
X142691135Y-119806478D01*
X142691131Y-119806485D01*
X142597303Y-119982025D01*
X142539521Y-120172504D01*
X142520011Y-120370600D01*
X142539521Y-120568695D01*
X142597303Y-120759174D01*
X142691131Y-120934714D01*
X142691135Y-120934721D01*
X142817411Y-121088588D01*
X142971278Y-121214864D01*
X142971285Y-121214868D01*
X143111834Y-121289993D01*
X143146827Y-121308697D01*
X143337307Y-121366479D01*
X143535400Y-121385989D01*
X143733493Y-121366479D01*
X143923973Y-121308697D01*
X144099520Y-121214865D01*
X144253388Y-121088588D01*
X144379665Y-120934720D01*
X144473497Y-120759173D01*
X144531279Y-120568693D01*
X144550789Y-120370600D01*
X144531279Y-120172507D01*
X144473497Y-119982027D01*
X144460746Y-119958171D01*
X144379668Y-119806485D01*
X144379664Y-119806478D01*
X144253388Y-119652611D01*
X144099521Y-119526335D01*
X144099514Y-119526331D01*
X143923974Y-119432503D01*
X143893504Y-119423260D01*
X143835066Y-119384963D01*
X143806609Y-119321151D01*
X143817170Y-119252084D01*
X143863395Y-119199690D01*
X143929500Y-119180600D01*
X144433228Y-119180600D01*
X144433244Y-119180599D01*
X144492772Y-119174198D01*
X144492779Y-119174196D01*
X144627486Y-119123954D01*
X144627493Y-119123950D01*
X144742587Y-119037790D01*
X144742590Y-119037787D01*
X144828750Y-118922693D01*
X144828754Y-118922686D01*
X144878996Y-118787979D01*
X144878998Y-118787972D01*
X144885399Y-118728444D01*
X144885400Y-118728427D01*
X144885400Y-118224700D01*
X144905085Y-118157661D01*
X144957889Y-118111906D01*
X145027047Y-118101962D01*
X145090603Y-118130987D01*
X145128060Y-118188704D01*
X145137303Y-118219174D01*
X145231131Y-118394714D01*
X145231135Y-118394721D01*
X145357411Y-118548588D01*
X145511278Y-118674864D01*
X145511285Y-118674868D01*
X145611487Y-118728427D01*
X145686827Y-118768697D01*
X145877307Y-118826479D01*
X146075400Y-118845989D01*
X146273493Y-118826479D01*
X146463973Y-118768697D01*
X146639520Y-118674865D01*
X146793388Y-118548588D01*
X146919665Y-118394720D01*
X147013497Y-118219173D01*
X147071279Y-118028693D01*
X147090789Y-117830600D01*
X147071279Y-117632507D01*
X147013497Y-117442027D01*
X146994052Y-117405648D01*
X146919668Y-117266485D01*
X146919664Y-117266478D01*
X146793388Y-117112611D01*
X146639521Y-116986335D01*
X146639514Y-116986331D01*
X146463974Y-116892503D01*
X146273495Y-116834721D01*
X146075400Y-116815211D01*
X145877304Y-116834721D01*
X145686825Y-116892503D01*
X145511285Y-116986331D01*
X145511278Y-116986335D01*
X145357411Y-117112611D01*
X145231135Y-117266478D01*
X145231131Y-117266485D01*
X145137303Y-117442024D01*
X145128060Y-117472496D01*
X145089762Y-117530934D01*
X145025950Y-117559390D01*
X144956883Y-117548829D01*
X144904490Y-117502604D01*
X144885400Y-117436499D01*
X144885400Y-116932772D01*
X144885399Y-116932755D01*
X144878998Y-116873227D01*
X144878996Y-116873220D01*
X144828754Y-116738513D01*
X144828750Y-116738506D01*
X144742590Y-116623412D01*
X144742587Y-116623409D01*
X144627493Y-116537249D01*
X144627486Y-116537245D01*
X144492779Y-116487003D01*
X144492772Y-116487001D01*
X144433244Y-116480600D01*
X143785400Y-116480600D01*
X143785400Y-117395098D01*
X143677715Y-117345920D01*
X143571163Y-117330600D01*
X143499637Y-117330600D01*
X143393085Y-117345920D01*
X143285400Y-117395098D01*
X143285400Y-116480600D01*
X142637555Y-116480600D01*
X142578027Y-116487001D01*
X142578020Y-116487003D01*
X142443313Y-116537245D01*
X142443306Y-116537249D01*
X142328212Y-116623409D01*
X142328209Y-116623412D01*
X142242049Y-116738506D01*
X142242045Y-116738513D01*
X142191803Y-116873220D01*
X142191801Y-116873227D01*
X142185400Y-116932755D01*
X142185400Y-117580600D01*
X143101714Y-117580600D01*
X143075907Y-117620756D01*
X143035400Y-117758711D01*
X143035400Y-117902489D01*
X143075907Y-118040444D01*
X143101714Y-118080600D01*
X142185400Y-118080600D01*
X142185400Y-118728444D01*
X64045682Y-118728444D01*
X64090265Y-118674120D01*
X64184097Y-118498573D01*
X64241879Y-118308093D01*
X64261389Y-118110000D01*
X64241879Y-117911907D01*
X64184097Y-117721427D01*
X64144055Y-117646513D01*
X64090268Y-117545885D01*
X64090264Y-117545878D01*
X63963988Y-117392011D01*
X63810121Y-117265735D01*
X63810114Y-117265731D01*
X63634574Y-117171903D01*
X63444095Y-117114121D01*
X63246000Y-117094611D01*
X63047904Y-117114121D01*
X62857425Y-117171903D01*
X62681885Y-117265731D01*
X62681878Y-117265735D01*
X62528011Y-117392011D01*
X62401735Y-117545878D01*
X62401731Y-117545885D01*
X62307903Y-117721425D01*
X62270198Y-117845719D01*
X62231900Y-117904158D01*
X62168088Y-117932614D01*
X62099021Y-117922053D01*
X62046628Y-117875828D01*
X62031763Y-117841816D01*
X61979433Y-117646516D01*
X61979429Y-117646507D01*
X61879600Y-117432422D01*
X61879599Y-117432420D01*
X61744113Y-117238926D01*
X61744108Y-117238920D01*
X61577082Y-117071894D01*
X61383578Y-116936399D01*
X61169492Y-116836570D01*
X61169486Y-116836567D01*
X60956000Y-116779364D01*
X60956000Y-117674498D01*
X60848315Y-117625320D01*
X60741763Y-117610000D01*
X60670237Y-117610000D01*
X60563685Y-117625320D01*
X60456000Y-117674498D01*
X60456000Y-116779364D01*
X60455999Y-116779364D01*
X60242513Y-116836567D01*
X60242507Y-116836570D01*
X60028422Y-116936399D01*
X60028420Y-116936400D01*
X59834926Y-117071886D01*
X59834920Y-117071891D01*
X59667891Y-117238920D01*
X59667886Y-117238926D01*
X59532400Y-117432420D01*
X59532399Y-117432422D01*
X59432570Y-117646507D01*
X59432567Y-117646513D01*
X59375364Y-117859999D01*
X59375364Y-117860000D01*
X60272314Y-117860000D01*
X60246507Y-117900156D01*
X60206000Y-118038111D01*
X60206000Y-118181889D01*
X60246507Y-118319844D01*
X60272314Y-118360000D01*
X59375364Y-118360000D01*
X55372000Y-118360000D01*
X55372000Y-116276001D01*
X110432663Y-116276001D01*
X110451925Y-116422318D01*
X110451926Y-116422320D01*
X110508403Y-116558668D01*
X110508404Y-116558669D01*
X110598246Y-116675754D01*
X110715331Y-116765596D01*
X110851680Y-116822074D01*
X110924840Y-116831705D01*
X110997999Y-116841337D01*
X110998000Y-116841337D01*
X110998001Y-116841337D01*
X111048255Y-116834721D01*
X111144320Y-116822074D01*
X111280669Y-116765596D01*
X111397754Y-116675754D01*
X111487596Y-116558669D01*
X111544074Y-116422320D01*
X111563337Y-116276000D01*
X111544074Y-116129680D01*
X111487596Y-115993332D01*
X111487596Y-115993331D01*
X111397756Y-115876247D01*
X111280668Y-115786403D01*
X111144320Y-115729926D01*
X111144318Y-115729925D01*
X110998001Y-115710663D01*
X110997999Y-115710663D01*
X110851681Y-115729925D01*
X110851679Y-115729926D01*
X110715332Y-115786403D01*
X110598246Y-115876246D01*
X110508403Y-115993332D01*
X110451926Y-116129679D01*
X110451925Y-116129681D01*
X110432663Y-116275998D01*
X110432663Y-116276001D01*
X55372000Y-116276001D01*
X55372000Y-114554001D01*
X95446663Y-114554001D01*
X95465925Y-114700318D01*
X95465926Y-114700320D01*
X95522403Y-114836668D01*
X95522404Y-114836669D01*
X95612246Y-114953754D01*
X95729331Y-115043596D01*
X95865680Y-115100074D01*
X95938840Y-115109705D01*
X96011999Y-115119337D01*
X96012000Y-115119337D01*
X96012001Y-115119337D01*
X96060773Y-115112916D01*
X96158320Y-115100074D01*
X96294669Y-115043596D01*
X96411754Y-114953754D01*
X96501596Y-114836669D01*
X96558074Y-114700320D01*
X96577337Y-114554000D01*
X96558074Y-114407680D01*
X96524989Y-114327809D01*
X96501596Y-114271331D01*
X96411755Y-114154247D01*
X96411754Y-114154246D01*
X96398891Y-114144376D01*
X96357688Y-114087950D01*
X96353531Y-114018204D01*
X96387743Y-113957283D01*
X96398892Y-113947623D01*
X96411754Y-113937754D01*
X96501596Y-113820669D01*
X96558074Y-113684320D01*
X96577337Y-113538000D01*
X96566188Y-113453317D01*
X96558074Y-113391681D01*
X96558074Y-113391680D01*
X96501596Y-113255332D01*
X96501596Y-113255331D01*
X96409454Y-113135248D01*
X96384260Y-113070078D01*
X96398299Y-113001634D01*
X96412564Y-112982344D01*
X96411898Y-112981833D01*
X96416846Y-112975385D01*
X96506688Y-112858300D01*
X96563166Y-112721951D01*
X96582429Y-112575631D01*
X96578886Y-112548722D01*
X96563166Y-112429312D01*
X96563166Y-112429311D01*
X96529888Y-112348971D01*
X96506688Y-112292962D01*
X96487535Y-112268001D01*
X109924663Y-112268001D01*
X109943925Y-112414318D01*
X109943926Y-112414320D01*
X110000403Y-112550668D01*
X110000404Y-112550669D01*
X110090246Y-112667754D01*
X110207331Y-112757596D01*
X110343680Y-112814074D01*
X110416840Y-112823705D01*
X110489999Y-112833337D01*
X110490000Y-112833337D01*
X110490001Y-112833337D01*
X110538773Y-112826916D01*
X110636320Y-112814074D01*
X110772669Y-112757596D01*
X110889754Y-112667754D01*
X110899623Y-112654891D01*
X110956050Y-112613688D01*
X111025796Y-112609531D01*
X111086717Y-112643743D01*
X111096374Y-112654888D01*
X111106246Y-112667754D01*
X111223331Y-112757596D01*
X111359680Y-112814074D01*
X111432840Y-112823705D01*
X111505999Y-112833337D01*
X111506000Y-112833337D01*
X111572263Y-112824613D01*
X111641296Y-112835378D01*
X111693552Y-112881758D01*
X111712438Y-112949027D01*
X111711386Y-112963736D01*
X111702663Y-113029997D01*
X111702663Y-113030001D01*
X111721925Y-113176318D01*
X111721926Y-113176320D01*
X111778403Y-113312668D01*
X111778404Y-113312669D01*
X111868246Y-113429754D01*
X111985331Y-113519596D01*
X112121680Y-113576074D01*
X112194840Y-113585705D01*
X112267999Y-113595337D01*
X112268000Y-113595337D01*
X112268001Y-113595337D01*
X112316773Y-113588916D01*
X112414320Y-113576074D01*
X112550669Y-113519596D01*
X112667754Y-113429754D01*
X112757596Y-113312669D01*
X112814074Y-113176320D01*
X112829223Y-113061247D01*
X112833337Y-113030001D01*
X112833337Y-113029998D01*
X112819161Y-112922318D01*
X112814074Y-112883680D01*
X112769471Y-112776001D01*
X118052663Y-112776001D01*
X118071925Y-112922318D01*
X118071926Y-112922320D01*
X118128403Y-113058668D01*
X118128404Y-113058669D01*
X118218246Y-113175754D01*
X118335331Y-113265596D01*
X118471680Y-113322074D01*
X118618000Y-113341337D01*
X118674479Y-113333901D01*
X118743512Y-113344666D01*
X118795768Y-113391046D01*
X118813545Y-113452949D01*
X118813602Y-113452942D01*
X118813651Y-113453317D01*
X118814663Y-113456840D01*
X118814663Y-113461001D01*
X118833925Y-113607318D01*
X118833926Y-113607320D01*
X118890403Y-113743668D01*
X118890404Y-113743669D01*
X118980246Y-113860754D01*
X119001448Y-113877022D01*
X119042649Y-113933447D01*
X119046806Y-114003193D01*
X119024338Y-114050882D01*
X118959124Y-114135872D01*
X118902647Y-114272219D01*
X118902646Y-114272221D01*
X118883384Y-114418538D01*
X118883384Y-114418541D01*
X118902646Y-114564858D01*
X118902647Y-114564860D01*
X118959124Y-114701208D01*
X118959125Y-114701209D01*
X119048967Y-114818294D01*
X119166052Y-114908136D01*
X119302401Y-114964614D01*
X119375561Y-114974245D01*
X119448720Y-114983877D01*
X119448721Y-114983877D01*
X119448722Y-114983877D01*
X119497494Y-114977456D01*
X119595041Y-114964614D01*
X119731390Y-114908136D01*
X119848475Y-114818294D01*
X119938317Y-114701209D01*
X119994795Y-114564860D01*
X120014058Y-114418540D01*
X120012628Y-114407681D01*
X119994795Y-114272221D01*
X119994795Y-114272220D01*
X119961710Y-114192349D01*
X119938317Y-114135871D01*
X119848476Y-114018787D01*
X119847716Y-114018204D01*
X119841279Y-114013264D01*
X119827272Y-114002516D01*
X119786069Y-113946088D01*
X119781915Y-113876342D01*
X119804382Y-113828657D01*
X119869596Y-113743669D01*
X119926074Y-113607320D01*
X119945337Y-113461000D01*
X119944789Y-113456840D01*
X119926074Y-113314681D01*
X119926074Y-113314680D01*
X119869596Y-113178332D01*
X119869596Y-113178331D01*
X119779756Y-113061247D01*
X119662668Y-112971403D01*
X119526320Y-112914926D01*
X119526318Y-112914925D01*
X119380001Y-112895663D01*
X119379999Y-112895663D01*
X119323522Y-112903098D01*
X119254486Y-112892332D01*
X119202231Y-112845952D01*
X119184454Y-112784050D01*
X119184398Y-112784058D01*
X119184348Y-112783680D01*
X119183337Y-112780159D01*
X119183337Y-112775998D01*
X119164149Y-112630247D01*
X119164074Y-112629680D01*
X119107596Y-112493332D01*
X119107596Y-112493331D01*
X119017756Y-112376247D01*
X118900668Y-112286403D01*
X118764320Y-112229926D01*
X118764318Y-112229925D01*
X118618001Y-112210663D01*
X118617999Y-112210663D01*
X118471681Y-112229925D01*
X118471679Y-112229926D01*
X118335332Y-112286403D01*
X118218246Y-112376246D01*
X118128403Y-112493332D01*
X118071926Y-112629679D01*
X118071925Y-112629681D01*
X118052663Y-112775998D01*
X118052663Y-112776001D01*
X112769471Y-112776001D01*
X112757596Y-112747332D01*
X112757596Y-112747331D01*
X112667756Y-112630247D01*
X112550668Y-112540403D01*
X112414320Y-112483926D01*
X112414318Y-112483925D01*
X112268001Y-112464663D01*
X112267997Y-112464663D01*
X112201736Y-112473386D01*
X112132701Y-112462620D01*
X112080446Y-112416240D01*
X112061561Y-112348971D01*
X112062612Y-112334273D01*
X112071337Y-112268000D01*
X112066324Y-112229925D01*
X112052074Y-112121681D01*
X112052074Y-112121680D01*
X112008252Y-112015886D01*
X111995596Y-111985331D01*
X111905756Y-111868247D01*
X111788668Y-111778403D01*
X111744241Y-111760001D01*
X128466663Y-111760001D01*
X128485925Y-111906318D01*
X128485926Y-111906320D01*
X128542403Y-112042668D01*
X128559465Y-112064903D01*
X128632246Y-112159754D01*
X128749331Y-112249596D01*
X128885680Y-112306074D01*
X128958840Y-112315705D01*
X129031999Y-112325337D01*
X129032000Y-112325337D01*
X129032001Y-112325337D01*
X129094408Y-112317121D01*
X129178320Y-112306074D01*
X129314669Y-112249596D01*
X129431754Y-112159754D01*
X129521596Y-112042669D01*
X129578074Y-111906320D01*
X129597337Y-111760001D01*
X134054663Y-111760001D01*
X134073925Y-111906318D01*
X134073926Y-111906320D01*
X134130403Y-112042668D01*
X134147465Y-112064903D01*
X134220246Y-112159754D01*
X134337331Y-112249596D01*
X134473680Y-112306074D01*
X134546840Y-112315705D01*
X134619999Y-112325337D01*
X134620000Y-112325337D01*
X134620001Y-112325337D01*
X134682408Y-112317121D01*
X134766320Y-112306074D01*
X134902669Y-112249596D01*
X135019754Y-112159754D01*
X135109596Y-112042669D01*
X135166074Y-111906320D01*
X135185337Y-111760000D01*
X135184682Y-111755027D01*
X135166074Y-111613681D01*
X135166074Y-111613680D01*
X135109596Y-111477332D01*
X135109596Y-111477331D01*
X135019756Y-111360247D01*
X134902668Y-111270403D01*
X134766320Y-111213926D01*
X134766318Y-111213925D01*
X134620001Y-111194663D01*
X134619999Y-111194663D01*
X134473681Y-111213925D01*
X134473679Y-111213926D01*
X134337332Y-111270403D01*
X134220246Y-111360246D01*
X134130403Y-111477332D01*
X134073926Y-111613679D01*
X134073925Y-111613681D01*
X134054663Y-111759998D01*
X134054663Y-111760001D01*
X129597337Y-111760001D01*
X129597337Y-111760000D01*
X129596682Y-111755027D01*
X129578074Y-111613681D01*
X129578074Y-111613680D01*
X129521596Y-111477332D01*
X129521596Y-111477331D01*
X129431756Y-111360247D01*
X129314668Y-111270403D01*
X129178320Y-111213926D01*
X129178318Y-111213925D01*
X129032001Y-111194663D01*
X129031999Y-111194663D01*
X128885681Y-111213925D01*
X128885679Y-111213926D01*
X128749332Y-111270403D01*
X128632246Y-111360246D01*
X128542403Y-111477332D01*
X128485926Y-111613679D01*
X128485925Y-111613681D01*
X128466663Y-111759998D01*
X128466663Y-111760001D01*
X111744241Y-111760001D01*
X111652320Y-111721926D01*
X111652318Y-111721925D01*
X111506001Y-111702663D01*
X111505999Y-111702663D01*
X111359681Y-111721925D01*
X111359679Y-111721926D01*
X111223332Y-111778403D01*
X111106246Y-111868246D01*
X111096374Y-111881111D01*
X111039944Y-111922312D01*
X110970198Y-111926465D01*
X110909279Y-111892251D01*
X110899624Y-111881108D01*
X110889755Y-111868247D01*
X110889754Y-111868246D01*
X110876891Y-111858376D01*
X110835688Y-111801950D01*
X110831531Y-111732204D01*
X110865743Y-111671283D01*
X110876892Y-111661623D01*
X110889754Y-111651754D01*
X110979596Y-111534669D01*
X111036074Y-111398320D01*
X111055337Y-111252000D01*
X111050324Y-111213925D01*
X111036074Y-111105681D01*
X111036074Y-111105680D01*
X110991471Y-110998000D01*
X140863474Y-110998000D01*
X140883547Y-111253064D01*
X140883547Y-111253067D01*
X140883548Y-111253070D01*
X140943278Y-111501860D01*
X140943279Y-111501864D01*
X141041188Y-111738239D01*
X141041190Y-111738242D01*
X141174875Y-111956396D01*
X141174878Y-111956401D01*
X141226531Y-112016878D01*
X141341044Y-112150956D01*
X141456537Y-112249596D01*
X141535598Y-112317121D01*
X141535600Y-112317122D01*
X141535601Y-112317123D01*
X141718674Y-112429310D01*
X141753757Y-112450809D01*
X141753760Y-112450811D01*
X141990135Y-112548720D01*
X141990140Y-112548722D01*
X142238930Y-112608452D01*
X142430137Y-112623500D01*
X142430145Y-112623500D01*
X142557855Y-112623500D01*
X142557863Y-112623500D01*
X142749070Y-112608452D01*
X142997860Y-112548722D01*
X143131586Y-112493331D01*
X143234239Y-112450811D01*
X143234240Y-112450810D01*
X143234243Y-112450809D01*
X143452399Y-112317123D01*
X143646956Y-112150956D01*
X143813123Y-111956399D01*
X143946809Y-111738243D01*
X143949311Y-111732204D01*
X144044720Y-111501864D01*
X144044722Y-111501860D01*
X144104452Y-111253070D01*
X144124526Y-110998000D01*
X144104452Y-110742930D01*
X144044722Y-110494140D01*
X144030814Y-110460563D01*
X143946811Y-110257760D01*
X143946809Y-110257757D01*
X143867143Y-110127754D01*
X143813123Y-110039601D01*
X143813122Y-110039600D01*
X143813121Y-110039598D01*
X143739442Y-109953332D01*
X143646956Y-109845044D01*
X143509915Y-109728000D01*
X143452401Y-109678878D01*
X143452396Y-109678875D01*
X143234242Y-109545190D01*
X143234239Y-109545188D01*
X142997864Y-109447279D01*
X142989750Y-109445331D01*
X142749070Y-109387548D01*
X142749068Y-109387547D01*
X142749065Y-109387547D01*
X142557868Y-109372500D01*
X142557863Y-109372500D01*
X142430137Y-109372500D01*
X142430131Y-109372500D01*
X142238934Y-109387547D01*
X141990135Y-109447279D01*
X141753760Y-109545188D01*
X141753757Y-109545190D01*
X141535603Y-109678875D01*
X141535598Y-109678878D01*
X141341044Y-109845044D01*
X141174878Y-110039598D01*
X141174875Y-110039603D01*
X141041190Y-110257757D01*
X141041188Y-110257760D01*
X140943279Y-110494135D01*
X140943278Y-110494140D01*
X140905850Y-110650039D01*
X140883547Y-110742935D01*
X140863474Y-110998000D01*
X110991471Y-110998000D01*
X110979596Y-110969332D01*
X110979596Y-110969331D01*
X110889756Y-110852247D01*
X110772668Y-110762403D01*
X110636320Y-110705926D01*
X110636318Y-110705925D01*
X110490001Y-110686663D01*
X110489999Y-110686663D01*
X110343681Y-110705925D01*
X110343679Y-110705926D01*
X110207332Y-110762403D01*
X110090246Y-110852246D01*
X110000403Y-110969332D01*
X109943926Y-111105679D01*
X109943925Y-111105681D01*
X109924663Y-111251998D01*
X109924663Y-111252001D01*
X109943925Y-111398318D01*
X109943926Y-111398320D01*
X110000403Y-111534668D01*
X110090246Y-111651754D01*
X110103110Y-111661625D01*
X110144312Y-111718053D01*
X110148467Y-111787799D01*
X110114254Y-111848719D01*
X110103110Y-111858375D01*
X110090246Y-111868245D01*
X110000403Y-111985332D01*
X109943926Y-112121679D01*
X109943925Y-112121681D01*
X109924663Y-112267998D01*
X109924663Y-112268001D01*
X96487535Y-112268001D01*
X96411899Y-112169429D01*
X96414465Y-112167459D01*
X96388241Y-112119433D01*
X96393225Y-112049741D01*
X96414986Y-112015886D01*
X96413712Y-112014909D01*
X96436408Y-111985331D01*
X96508502Y-111891376D01*
X96564980Y-111755027D01*
X96583588Y-111613680D01*
X96584243Y-111608708D01*
X96584243Y-111608705D01*
X96568299Y-111487596D01*
X96564980Y-111462387D01*
X96508502Y-111326039D01*
X96508502Y-111326038D01*
X96443995Y-111241970D01*
X96418801Y-111176800D01*
X96432840Y-111108356D01*
X96466885Y-111068108D01*
X96490754Y-111049793D01*
X96580596Y-110932708D01*
X96637074Y-110796359D01*
X96656337Y-110650039D01*
X96654456Y-110635754D01*
X96637691Y-110508404D01*
X96637074Y-110503719D01*
X96619196Y-110460559D01*
X96611728Y-110391093D01*
X96643002Y-110328614D01*
X96703091Y-110292961D01*
X96749943Y-110290170D01*
X96773999Y-110293337D01*
X96774000Y-110293337D01*
X96774001Y-110293337D01*
X96822773Y-110286916D01*
X96920320Y-110274074D01*
X97056669Y-110217596D01*
X97173754Y-110127754D01*
X97263596Y-110010669D01*
X97320074Y-109874320D01*
X97339337Y-109728000D01*
X97334324Y-109689925D01*
X97320074Y-109581681D01*
X97320074Y-109581680D01*
X97275471Y-109474000D01*
X97263596Y-109445331D01*
X97173756Y-109328247D01*
X97056669Y-109238404D01*
X97050706Y-109235934D01*
X96996303Y-109192092D01*
X96974239Y-109125798D01*
X96991519Y-109058099D01*
X97042656Y-109010489D01*
X97050708Y-109006812D01*
X97057317Y-109004074D01*
X97057320Y-109004074D01*
X97193669Y-108947596D01*
X97310754Y-108857754D01*
X97400596Y-108740669D01*
X97412471Y-108712001D01*
X107384663Y-108712001D01*
X107403925Y-108858318D01*
X107403926Y-108858320D01*
X107460403Y-108994668D01*
X107472543Y-109010489D01*
X107550246Y-109111754D01*
X107667331Y-109201596D01*
X107803680Y-109258074D01*
X107876840Y-109267705D01*
X107949999Y-109277337D01*
X107950000Y-109277337D01*
X108016263Y-109268613D01*
X108085296Y-109279378D01*
X108137552Y-109325758D01*
X108156438Y-109393027D01*
X108155386Y-109407736D01*
X108146663Y-109473997D01*
X108146663Y-109474001D01*
X108165925Y-109620318D01*
X108165926Y-109620320D01*
X108222403Y-109756668D01*
X108222404Y-109756669D01*
X108312246Y-109873754D01*
X108429331Y-109963596D01*
X108565680Y-110020074D01*
X108638840Y-110029705D01*
X108711999Y-110039337D01*
X108712000Y-110039337D01*
X108778263Y-110030613D01*
X108847296Y-110041378D01*
X108899552Y-110087758D01*
X108918438Y-110155027D01*
X108917386Y-110169736D01*
X108908663Y-110235997D01*
X108908663Y-110236001D01*
X108917386Y-110302262D01*
X108906620Y-110371298D01*
X108860240Y-110423553D01*
X108792971Y-110442438D01*
X108778262Y-110441386D01*
X108712001Y-110432663D01*
X108711999Y-110432663D01*
X108565681Y-110451925D01*
X108565679Y-110451926D01*
X108429332Y-110508403D01*
X108312246Y-110598246D01*
X108222403Y-110715332D01*
X108165926Y-110851679D01*
X108165925Y-110851681D01*
X108146663Y-110997998D01*
X108146663Y-110998001D01*
X108165925Y-111144318D01*
X108165926Y-111144320D01*
X108222403Y-111280668D01*
X108222404Y-111280669D01*
X108312246Y-111397754D01*
X108429331Y-111487596D01*
X108565680Y-111544074D01*
X108638840Y-111553705D01*
X108711999Y-111563337D01*
X108712000Y-111563337D01*
X108712001Y-111563337D01*
X108760773Y-111556916D01*
X108858320Y-111544074D01*
X108994669Y-111487596D01*
X109111754Y-111397754D01*
X109201596Y-111280669D01*
X109258074Y-111144320D01*
X109277337Y-110998000D01*
X109268613Y-110931735D01*
X109279378Y-110862703D01*
X109325758Y-110810447D01*
X109393027Y-110791561D01*
X109407727Y-110792612D01*
X109474000Y-110801337D01*
X109474001Y-110801337D01*
X109522773Y-110794916D01*
X109620320Y-110782074D01*
X109756669Y-110725596D01*
X109873754Y-110635754D01*
X109963596Y-110518669D01*
X110020074Y-110382320D01*
X110039337Y-110236000D01*
X110020074Y-110089680D01*
X109963596Y-109953332D01*
X109963596Y-109953331D01*
X109873756Y-109836247D01*
X109756668Y-109746403D01*
X109620320Y-109689926D01*
X109620318Y-109689925D01*
X109474001Y-109670663D01*
X109473997Y-109670663D01*
X109407736Y-109679386D01*
X109338701Y-109668620D01*
X109286446Y-109622240D01*
X109267561Y-109554971D01*
X109268612Y-109540273D01*
X109277337Y-109474000D01*
X109265955Y-109387547D01*
X109258149Y-109328247D01*
X109258074Y-109327680D01*
X109201596Y-109191332D01*
X109201596Y-109191331D01*
X109111756Y-109074247D01*
X108994668Y-108984403D01*
X108858320Y-108927926D01*
X108858318Y-108927925D01*
X108712001Y-108908663D01*
X108711997Y-108908663D01*
X108645736Y-108917386D01*
X108576701Y-108906620D01*
X108524446Y-108860240D01*
X108505561Y-108792971D01*
X108506612Y-108778273D01*
X108515337Y-108712000D01*
X108496074Y-108565680D01*
X108439596Y-108429332D01*
X108439596Y-108429331D01*
X108349756Y-108312247D01*
X108232668Y-108222403D01*
X108096320Y-108165926D01*
X108096318Y-108165925D01*
X107950001Y-108146663D01*
X107949999Y-108146663D01*
X107803681Y-108165925D01*
X107803679Y-108165926D01*
X107667332Y-108222403D01*
X107550246Y-108312246D01*
X107460403Y-108429332D01*
X107403926Y-108565679D01*
X107403925Y-108565681D01*
X107384663Y-108711998D01*
X107384663Y-108712001D01*
X97412471Y-108712001D01*
X97457074Y-108604320D01*
X97476337Y-108458000D01*
X97457074Y-108311680D01*
X97400596Y-108175332D01*
X97400596Y-108175331D01*
X97310756Y-108058247D01*
X97193668Y-107968403D01*
X97057320Y-107911926D01*
X97057318Y-107911925D01*
X96911001Y-107892663D01*
X96910999Y-107892663D01*
X96764681Y-107911925D01*
X96764679Y-107911926D01*
X96628332Y-107968403D01*
X96511246Y-108058246D01*
X96421403Y-108175332D01*
X96364926Y-108311679D01*
X96364925Y-108311681D01*
X96345663Y-108457998D01*
X96345663Y-108458001D01*
X96364925Y-108604318D01*
X96364926Y-108604320D01*
X96421403Y-108740668D01*
X96421404Y-108740669D01*
X96511246Y-108857754D01*
X96602695Y-108927925D01*
X96628332Y-108947597D01*
X96634288Y-108950064D01*
X96688693Y-108993903D01*
X96710760Y-109060197D01*
X96693483Y-109127896D01*
X96642347Y-109175508D01*
X96634292Y-109179187D01*
X96491332Y-109238403D01*
X96374246Y-109328246D01*
X96284403Y-109445332D01*
X96227926Y-109581679D01*
X96227925Y-109581681D01*
X96208663Y-109727998D01*
X96208663Y-109728001D01*
X96227925Y-109874318D01*
X96227927Y-109874323D01*
X96245802Y-109917477D01*
X96253271Y-109986946D01*
X96221996Y-110049425D01*
X96161907Y-110085077D01*
X96115059Y-110087869D01*
X96101117Y-110086033D01*
X96091000Y-110084702D01*
X96090999Y-110084702D01*
X96090998Y-110084702D01*
X95944681Y-110103964D01*
X95944679Y-110103965D01*
X95808332Y-110160442D01*
X95691246Y-110250285D01*
X95601403Y-110367371D01*
X95544926Y-110503718D01*
X95544925Y-110503720D01*
X95525663Y-110650037D01*
X95525663Y-110650040D01*
X95544925Y-110796357D01*
X95544926Y-110796359D01*
X95601402Y-110932705D01*
X95601403Y-110932707D01*
X95601404Y-110932708D01*
X95665912Y-111016777D01*
X95691105Y-111081943D01*
X95677067Y-111150388D01*
X95643023Y-111190635D01*
X95619153Y-111208951D01*
X95529309Y-111326039D01*
X95472832Y-111462386D01*
X95472831Y-111462388D01*
X95453569Y-111608705D01*
X95453569Y-111608708D01*
X95472831Y-111755025D01*
X95472832Y-111755027D01*
X95529309Y-111891375D01*
X95624100Y-112014909D01*
X95621532Y-112016878D01*
X95647756Y-112064903D01*
X95642772Y-112134595D01*
X95621015Y-112168455D01*
X95622285Y-112169429D01*
X95527495Y-112292962D01*
X95471018Y-112429310D01*
X95471017Y-112429312D01*
X95451755Y-112575629D01*
X95451755Y-112575632D01*
X95471017Y-112721949D01*
X95471018Y-112721951D01*
X95527495Y-112858299D01*
X95570946Y-112914925D01*
X95608399Y-112963736D01*
X95619637Y-112978381D01*
X95644831Y-113043550D01*
X95630793Y-113111995D01*
X95616530Y-113131289D01*
X95617193Y-113131798D01*
X95522403Y-113255331D01*
X95465926Y-113391679D01*
X95465925Y-113391681D01*
X95446663Y-113537998D01*
X95446663Y-113538001D01*
X95465925Y-113684318D01*
X95465926Y-113684320D01*
X95522403Y-113820668D01*
X95612246Y-113937754D01*
X95625110Y-113947625D01*
X95666312Y-114004053D01*
X95670467Y-114073799D01*
X95636254Y-114134719D01*
X95625110Y-114144375D01*
X95612246Y-114154245D01*
X95522403Y-114271332D01*
X95465926Y-114407679D01*
X95465925Y-114407681D01*
X95446663Y-114553998D01*
X95446663Y-114554001D01*
X55372000Y-114554001D01*
X55372000Y-110998000D01*
X62885474Y-110998000D01*
X62905547Y-111253064D01*
X62905547Y-111253067D01*
X62905548Y-111253070D01*
X62965278Y-111501860D01*
X62965279Y-111501864D01*
X63063188Y-111738239D01*
X63063190Y-111738242D01*
X63196875Y-111956396D01*
X63196878Y-111956401D01*
X63248531Y-112016878D01*
X63363044Y-112150956D01*
X63478537Y-112249596D01*
X63557598Y-112317121D01*
X63557600Y-112317122D01*
X63557601Y-112317123D01*
X63740674Y-112429310D01*
X63775757Y-112450809D01*
X63775760Y-112450811D01*
X64012135Y-112548720D01*
X64012140Y-112548722D01*
X64260930Y-112608452D01*
X64452137Y-112623500D01*
X64452145Y-112623500D01*
X64579855Y-112623500D01*
X64579863Y-112623500D01*
X64771070Y-112608452D01*
X65019860Y-112548722D01*
X65153586Y-112493331D01*
X65256239Y-112450811D01*
X65256240Y-112450810D01*
X65256243Y-112450809D01*
X65474399Y-112317123D01*
X65668956Y-112150956D01*
X65835123Y-111956399D01*
X65968809Y-111738243D01*
X65971311Y-111732204D01*
X66066720Y-111501864D01*
X66066722Y-111501860D01*
X66126452Y-111253070D01*
X66146526Y-110998000D01*
X66126452Y-110742930D01*
X66066722Y-110494140D01*
X66052814Y-110460563D01*
X65968811Y-110257760D01*
X65968809Y-110257757D01*
X65889143Y-110127754D01*
X65835123Y-110039601D01*
X65835122Y-110039600D01*
X65835121Y-110039598D01*
X65761442Y-109953332D01*
X65668956Y-109845044D01*
X65531915Y-109728000D01*
X65474401Y-109678878D01*
X65474396Y-109678875D01*
X65256242Y-109545190D01*
X65256239Y-109545188D01*
X65019864Y-109447279D01*
X65011750Y-109445331D01*
X64771070Y-109387548D01*
X64771068Y-109387547D01*
X64771065Y-109387547D01*
X64579868Y-109372500D01*
X64579863Y-109372500D01*
X64452137Y-109372500D01*
X64452131Y-109372500D01*
X64260934Y-109387547D01*
X64012135Y-109447279D01*
X63775760Y-109545188D01*
X63775757Y-109545190D01*
X63557603Y-109678875D01*
X63557598Y-109678878D01*
X63363044Y-109845044D01*
X63196878Y-110039598D01*
X63196875Y-110039603D01*
X63063190Y-110257757D01*
X63063188Y-110257760D01*
X62965279Y-110494135D01*
X62965278Y-110494140D01*
X62927850Y-110650039D01*
X62905547Y-110742935D01*
X62885474Y-110998000D01*
X55372000Y-110998000D01*
X55372000Y-107188001D01*
X101034663Y-107188001D01*
X101053925Y-107334318D01*
X101053926Y-107334320D01*
X101110403Y-107470668D01*
X101116636Y-107478791D01*
X101200246Y-107587754D01*
X101317331Y-107677596D01*
X101453680Y-107734074D01*
X101526840Y-107743705D01*
X101599999Y-107753337D01*
X101600000Y-107753337D01*
X101600001Y-107753337D01*
X101648773Y-107746916D01*
X101746320Y-107734074D01*
X101882669Y-107677596D01*
X101999754Y-107587754D01*
X102089596Y-107470669D01*
X102146074Y-107334320D01*
X102165337Y-107188000D01*
X102146074Y-107041680D01*
X102089596Y-106905332D01*
X102089596Y-106905331D01*
X101999756Y-106788247D01*
X101882668Y-106698403D01*
X101746320Y-106641926D01*
X101746318Y-106641925D01*
X101600001Y-106622663D01*
X101599999Y-106622663D01*
X101531682Y-106631657D01*
X101453680Y-106641926D01*
X101453679Y-106641926D01*
X101445622Y-106642987D01*
X101445396Y-106641277D01*
X101385373Y-106639842D01*
X101380698Y-106636677D01*
X101380404Y-106638429D01*
X101333413Y-106690136D01*
X101318702Y-106697611D01*
X101317335Y-106698401D01*
X101200246Y-106788246D01*
X101110403Y-106905332D01*
X101053926Y-107041679D01*
X101053925Y-107041681D01*
X101034663Y-107187998D01*
X101034663Y-107188001D01*
X55372000Y-107188001D01*
X55372000Y-105484003D01*
X69482435Y-105484003D01*
X69502630Y-105663249D01*
X69502631Y-105663254D01*
X69562211Y-105833523D01*
X69651319Y-105975337D01*
X69658184Y-105986262D01*
X69785738Y-106113816D01*
X69876080Y-106170582D01*
X69923963Y-106200669D01*
X69938478Y-106209789D01*
X70108745Y-106269368D01*
X70108750Y-106269369D01*
X70199246Y-106279565D01*
X70243040Y-106284499D01*
X70243043Y-106284500D01*
X70243046Y-106284500D01*
X70332957Y-106284500D01*
X70332958Y-106284499D01*
X70400104Y-106276934D01*
X70467249Y-106269369D01*
X70467252Y-106269368D01*
X70467255Y-106269368D01*
X70637522Y-106209789D01*
X70790262Y-106113816D01*
X70917816Y-105986262D01*
X71013789Y-105833522D01*
X71073368Y-105663255D01*
X71073369Y-105663249D01*
X71093565Y-105484003D01*
X71093565Y-105484000D01*
X90232417Y-105484000D01*
X90252699Y-105689932D01*
X90274301Y-105761145D01*
X90312768Y-105887954D01*
X90410315Y-106070450D01*
X90410317Y-106070452D01*
X90541589Y-106230410D01*
X90601626Y-106279680D01*
X90701550Y-106361685D01*
X90884046Y-106459232D01*
X91082066Y-106519300D01*
X91082065Y-106519300D01*
X91120647Y-106523100D01*
X91236392Y-106534500D01*
X91236395Y-106534500D01*
X91339605Y-106534500D01*
X91339608Y-106534500D01*
X91493934Y-106519300D01*
X91691954Y-106459232D01*
X91874450Y-106361685D01*
X92034410Y-106230410D01*
X92165685Y-106070450D01*
X92247171Y-105918001D01*
X100526663Y-105918001D01*
X100545925Y-106064318D01*
X100545926Y-106064320D01*
X100602403Y-106200668D01*
X100602404Y-106200669D01*
X100692246Y-106317754D01*
X100809331Y-106407596D01*
X100945680Y-106464074D01*
X100985627Y-106469333D01*
X101091999Y-106483337D01*
X101092000Y-106483337D01*
X101092001Y-106483337D01*
X101198373Y-106469333D01*
X101238320Y-106464074D01*
X101238320Y-106464073D01*
X101246378Y-106463013D01*
X101246603Y-106464727D01*
X101306598Y-106466146D01*
X101311309Y-106469333D01*
X101311611Y-106467541D01*
X101358616Y-106415846D01*
X101373290Y-106408392D01*
X101374665Y-106407598D01*
X101374665Y-106407597D01*
X101374669Y-106407596D01*
X101491754Y-106317754D01*
X101581596Y-106200669D01*
X101593471Y-106172001D01*
X103905663Y-106172001D01*
X103924925Y-106318318D01*
X103924926Y-106318320D01*
X103981403Y-106454668D01*
X103990828Y-106466951D01*
X104071246Y-106571754D01*
X104188331Y-106661596D01*
X104324680Y-106718074D01*
X104397840Y-106727705D01*
X104470999Y-106737337D01*
X104471000Y-106737337D01*
X104471001Y-106737337D01*
X104524019Y-106730357D01*
X104617320Y-106718074D01*
X104753669Y-106661596D01*
X104870754Y-106571754D01*
X104960596Y-106454669D01*
X105017074Y-106318320D01*
X105036337Y-106172000D01*
X105017074Y-106025680D01*
X104980094Y-105936403D01*
X104960596Y-105889331D01*
X104870756Y-105772247D01*
X104753668Y-105682403D01*
X104617320Y-105625926D01*
X104617318Y-105625925D01*
X104471001Y-105606663D01*
X104470999Y-105606663D01*
X104324681Y-105625925D01*
X104324679Y-105625926D01*
X104188332Y-105682403D01*
X104071246Y-105772246D01*
X103981403Y-105889332D01*
X103924926Y-106025679D01*
X103924925Y-106025681D01*
X103905663Y-106171998D01*
X103905663Y-106172001D01*
X101593471Y-106172001D01*
X101638074Y-106064320D01*
X101657337Y-105918000D01*
X101653381Y-105887954D01*
X101639766Y-105784530D01*
X101638074Y-105771680D01*
X101581596Y-105635332D01*
X101581596Y-105635331D01*
X101491756Y-105518247D01*
X101374668Y-105428403D01*
X101330241Y-105410001D01*
X110686663Y-105410001D01*
X110705925Y-105556318D01*
X110705926Y-105556320D01*
X110762403Y-105692668D01*
X110763952Y-105694687D01*
X110852246Y-105809754D01*
X110969331Y-105899596D01*
X111105680Y-105956074D01*
X111178840Y-105965705D01*
X111251999Y-105975337D01*
X111252000Y-105975337D01*
X111252001Y-105975337D01*
X111300773Y-105968916D01*
X111398320Y-105956074D01*
X111534669Y-105899596D01*
X111651754Y-105809754D01*
X111741596Y-105692669D01*
X111798074Y-105556320D01*
X111817337Y-105410000D01*
X111808613Y-105343735D01*
X111819378Y-105274703D01*
X111865758Y-105222447D01*
X111933027Y-105203561D01*
X111947727Y-105204612D01*
X112014000Y-105213337D01*
X112022059Y-105214398D01*
X112021875Y-105215794D01*
X112080545Y-105233022D01*
X112126300Y-105285826D01*
X112136445Y-105353522D01*
X112133663Y-105374653D01*
X112133663Y-105374656D01*
X112152925Y-105520973D01*
X112152926Y-105520975D01*
X112209403Y-105657323D01*
X112209404Y-105657324D01*
X112299246Y-105774409D01*
X112416331Y-105864251D01*
X112552680Y-105920729D01*
X112625840Y-105930360D01*
X112698999Y-105939992D01*
X112699000Y-105939992D01*
X112699001Y-105939992D01*
X112747773Y-105933571D01*
X112845320Y-105920729D01*
X112981669Y-105864251D01*
X113098754Y-105774409D01*
X113188596Y-105657324D01*
X113245074Y-105520975D01*
X113264337Y-105374655D01*
X113258773Y-105332390D01*
X113269539Y-105263355D01*
X113315919Y-105211099D01*
X113376017Y-105193840D01*
X113375942Y-105193266D01*
X113379774Y-105192761D01*
X113381712Y-105192205D01*
X113384001Y-105192205D01*
X113420329Y-105187422D01*
X113449362Y-105183600D01*
X113518397Y-105194366D01*
X113570653Y-105240746D01*
X113588486Y-105290353D01*
X113597662Y-105360048D01*
X113597662Y-105360050D01*
X113654139Y-105496398D01*
X113654140Y-105496399D01*
X113743982Y-105613484D01*
X113861067Y-105703326D01*
X113997416Y-105759804D01*
X114000654Y-105761145D01*
X114055057Y-105804986D01*
X114077122Y-105871280D01*
X114067762Y-105923158D01*
X114020210Y-106037959D01*
X114020208Y-106037964D01*
X114000946Y-106184281D01*
X114000946Y-106184284D01*
X114020208Y-106330601D01*
X114020209Y-106330603D01*
X114076686Y-106466951D01*
X114098761Y-106495720D01*
X114123955Y-106560889D01*
X114109916Y-106629334D01*
X114061102Y-106679324D01*
X114047839Y-106685766D01*
X114017334Y-106698402D01*
X113900246Y-106788246D01*
X113810403Y-106905332D01*
X113753926Y-107041679D01*
X113753925Y-107041681D01*
X113734663Y-107187998D01*
X113734663Y-107188001D01*
X113753925Y-107334318D01*
X113753926Y-107334320D01*
X113810403Y-107470669D01*
X113842592Y-107512618D01*
X113867786Y-107577787D01*
X113853747Y-107646232D01*
X113804933Y-107696222D01*
X113791672Y-107702664D01*
X113763332Y-107714403D01*
X113646246Y-107804246D01*
X113556403Y-107921332D01*
X113499926Y-108057679D01*
X113499925Y-108057681D01*
X113480663Y-108203998D01*
X113480663Y-108204001D01*
X113499925Y-108350318D01*
X113499926Y-108350320D01*
X113556403Y-108486668D01*
X113556404Y-108486669D01*
X113646246Y-108603754D01*
X113763331Y-108693596D01*
X113899680Y-108750074D01*
X113972840Y-108759705D01*
X114045999Y-108769337D01*
X114046000Y-108769337D01*
X114046001Y-108769337D01*
X114094773Y-108762916D01*
X114192320Y-108750074D01*
X114328669Y-108693596D01*
X114445754Y-108603754D01*
X114535596Y-108486669D01*
X114592074Y-108350320D01*
X114611337Y-108204000D01*
X114606324Y-108165925D01*
X114594911Y-108079229D01*
X114592074Y-108057680D01*
X114535596Y-107921332D01*
X114534574Y-107920000D01*
X136417649Y-107920000D01*
X136436982Y-108079226D01*
X136436983Y-108079232D01*
X136493861Y-108229204D01*
X136493861Y-108229205D01*
X136550790Y-108311679D01*
X136577460Y-108350318D01*
X136584979Y-108361210D01*
X136705035Y-108467571D01*
X136705036Y-108467571D01*
X136705038Y-108467573D01*
X136847063Y-108542114D01*
X136847065Y-108542114D01*
X136847066Y-108542115D01*
X137002801Y-108580500D01*
X137163199Y-108580500D01*
X137318933Y-108542115D01*
X137318933Y-108542114D01*
X137318937Y-108542114D01*
X137460962Y-108467573D01*
X137581022Y-108361209D01*
X137672139Y-108229204D01*
X137729017Y-108079229D01*
X137748351Y-107920000D01*
X137729017Y-107760771D01*
X137729016Y-107760769D01*
X137729016Y-107760767D01*
X137697473Y-107677596D01*
X137672139Y-107610796D01*
X137656233Y-107587753D01*
X137604371Y-107512618D01*
X137581022Y-107478791D01*
X137571853Y-107470668D01*
X137460964Y-107372428D01*
X137318933Y-107297884D01*
X137163199Y-107259500D01*
X137002801Y-107259500D01*
X136847066Y-107297884D01*
X136705035Y-107372428D01*
X136584979Y-107478789D01*
X136493861Y-107610794D01*
X136493861Y-107610795D01*
X136436983Y-107760767D01*
X136436982Y-107760773D01*
X136417649Y-107919999D01*
X136417649Y-107920000D01*
X114534574Y-107920000D01*
X114503406Y-107879380D01*
X114478213Y-107814211D01*
X114492252Y-107745766D01*
X114541066Y-107695777D01*
X114554322Y-107689337D01*
X114582669Y-107677596D01*
X114699754Y-107587754D01*
X114789596Y-107470669D01*
X114846074Y-107334320D01*
X114865337Y-107188000D01*
X114846074Y-107041680D01*
X114789596Y-106905332D01*
X114767520Y-106876561D01*
X114742327Y-106811392D01*
X114756366Y-106742947D01*
X114805181Y-106692958D01*
X114818437Y-106686518D01*
X114848952Y-106673879D01*
X114966037Y-106584037D01*
X115055879Y-106466952D01*
X115072842Y-106426001D01*
X134562663Y-106426001D01*
X134581925Y-106572318D01*
X134581926Y-106572320D01*
X134638403Y-106708668D01*
X134638404Y-106708669D01*
X134728246Y-106825754D01*
X134845331Y-106915596D01*
X134981680Y-106972074D01*
X135054840Y-106981705D01*
X135127999Y-106991337D01*
X135128000Y-106991337D01*
X135128001Y-106991337D01*
X135176773Y-106984916D01*
X135274320Y-106972074D01*
X135410669Y-106915596D01*
X135527754Y-106825754D01*
X135617596Y-106708669D01*
X135674074Y-106572320D01*
X135693337Y-106426000D01*
X135690914Y-106407598D01*
X135679086Y-106317753D01*
X135674074Y-106279680D01*
X135634558Y-106184281D01*
X135617596Y-106143331D01*
X135527756Y-106026247D01*
X135519615Y-106020000D01*
X136417649Y-106020000D01*
X136436982Y-106179226D01*
X136436983Y-106179232D01*
X136493861Y-106329204D01*
X136493861Y-106329205D01*
X136516279Y-106361682D01*
X136583613Y-106459232D01*
X136584979Y-106461210D01*
X136705035Y-106567571D01*
X136705036Y-106567571D01*
X136705038Y-106567573D01*
X136847063Y-106642114D01*
X136847065Y-106642114D01*
X136847066Y-106642115D01*
X137002801Y-106680500D01*
X137163199Y-106680500D01*
X137318933Y-106642115D01*
X137318933Y-106642114D01*
X137318937Y-106642114D01*
X137460962Y-106567573D01*
X137581022Y-106461209D01*
X137672139Y-106329204D01*
X137729017Y-106179229D01*
X137748351Y-106020000D01*
X137729017Y-105860771D01*
X137729016Y-105860769D01*
X137729016Y-105860767D01*
X137695444Y-105772246D01*
X137672139Y-105710796D01*
X137639319Y-105663249D01*
X137635229Y-105657323D01*
X137581022Y-105578791D01*
X137555658Y-105556320D01*
X137460964Y-105472428D01*
X137318933Y-105397884D01*
X137163199Y-105359500D01*
X137002801Y-105359500D01*
X136847066Y-105397884D01*
X136705035Y-105472428D01*
X136584979Y-105578789D01*
X136493861Y-105710794D01*
X136493861Y-105710795D01*
X136436983Y-105860767D01*
X136436982Y-105860773D01*
X136417649Y-106019999D01*
X136417649Y-106020000D01*
X135519615Y-106020000D01*
X135410668Y-105936403D01*
X135274320Y-105879926D01*
X135274318Y-105879925D01*
X135128001Y-105860663D01*
X135127999Y-105860663D01*
X134981681Y-105879925D01*
X134981679Y-105879926D01*
X134845332Y-105936403D01*
X134728246Y-106026246D01*
X134638403Y-106143332D01*
X134581926Y-106279679D01*
X134581925Y-106279681D01*
X134562663Y-106425998D01*
X134562663Y-106426001D01*
X115072842Y-106426001D01*
X115112357Y-106330603D01*
X115131620Y-106184283D01*
X115112357Y-106037963D01*
X115064803Y-105923158D01*
X115055879Y-105901614D01*
X114966039Y-105784530D01*
X114848951Y-105694686D01*
X114709364Y-105636867D01*
X114654961Y-105593026D01*
X114632896Y-105526732D01*
X114642255Y-105474856D01*
X114689810Y-105360050D01*
X114707150Y-105228335D01*
X114709073Y-105213731D01*
X114709073Y-105213728D01*
X114696231Y-105116183D01*
X114689810Y-105067410D01*
X114633332Y-104931062D01*
X114633332Y-104931061D01*
X114543492Y-104813977D01*
X114426404Y-104724133D01*
X114290056Y-104667656D01*
X114290054Y-104667655D01*
X114143737Y-104648393D01*
X114143733Y-104648393D01*
X114078372Y-104656997D01*
X114009336Y-104646231D01*
X113957081Y-104599850D01*
X113939249Y-104550243D01*
X113930074Y-104480548D01*
X113896989Y-104400677D01*
X113873596Y-104344199D01*
X113783756Y-104227115D01*
X113666668Y-104137271D01*
X113530320Y-104080794D01*
X113530318Y-104080793D01*
X113384001Y-104061531D01*
X113383999Y-104061531D01*
X113237681Y-104080793D01*
X113237679Y-104080794D01*
X113101332Y-104137271D01*
X112984246Y-104227114D01*
X112894403Y-104344200D01*
X112837926Y-104480547D01*
X112837926Y-104480549D01*
X112820547Y-104612550D01*
X112792280Y-104676446D01*
X112733955Y-104714917D01*
X112664091Y-104715748D01*
X112604867Y-104678676D01*
X112575089Y-104615470D01*
X112574677Y-104612610D01*
X112560074Y-104501680D01*
X112503596Y-104365332D01*
X112503596Y-104365331D01*
X112413756Y-104248247D01*
X112296668Y-104158403D01*
X112160320Y-104101926D01*
X112160318Y-104101925D01*
X112014001Y-104082663D01*
X112013999Y-104082663D01*
X111867681Y-104101925D01*
X111867679Y-104101926D01*
X111731332Y-104158403D01*
X111614246Y-104248246D01*
X111524403Y-104365332D01*
X111467926Y-104501679D01*
X111467925Y-104501681D01*
X111448663Y-104647998D01*
X111448663Y-104648001D01*
X111457386Y-104714262D01*
X111446620Y-104783298D01*
X111400240Y-104835553D01*
X111332971Y-104854438D01*
X111318262Y-104853386D01*
X111252001Y-104844663D01*
X111251999Y-104844663D01*
X111105681Y-104863925D01*
X111105679Y-104863926D01*
X110969332Y-104920403D01*
X110852246Y-105010246D01*
X110762403Y-105127332D01*
X110705926Y-105263679D01*
X110705925Y-105263681D01*
X110686663Y-105409998D01*
X110686663Y-105410001D01*
X101330241Y-105410001D01*
X101238320Y-105371926D01*
X101238318Y-105371925D01*
X101092001Y-105352663D01*
X101091999Y-105352663D01*
X100945681Y-105371925D01*
X100945679Y-105371926D01*
X100809332Y-105428403D01*
X100692246Y-105518246D01*
X100602403Y-105635332D01*
X100545926Y-105771679D01*
X100545925Y-105771681D01*
X100526663Y-105917998D01*
X100526663Y-105918001D01*
X92247171Y-105918001D01*
X92263232Y-105887954D01*
X92323300Y-105689934D01*
X92343583Y-105484000D01*
X92323300Y-105278066D01*
X92263232Y-105080046D01*
X92165685Y-104897550D01*
X92097098Y-104813976D01*
X92034410Y-104737589D01*
X91874452Y-104606317D01*
X91874453Y-104606317D01*
X91874450Y-104606315D01*
X91691954Y-104508768D01*
X91493934Y-104448700D01*
X91493932Y-104448699D01*
X91493934Y-104448699D01*
X91374805Y-104436966D01*
X91339608Y-104433500D01*
X91236392Y-104433500D01*
X91198298Y-104437251D01*
X91082067Y-104448699D01*
X90884043Y-104508769D01*
X90806452Y-104550243D01*
X90701550Y-104606315D01*
X90701548Y-104606316D01*
X90701547Y-104606317D01*
X90541589Y-104737589D01*
X90437909Y-104863926D01*
X90410315Y-104897550D01*
X90371643Y-104969898D01*
X90312769Y-105080043D01*
X90252699Y-105278067D01*
X90232417Y-105484000D01*
X71093565Y-105484000D01*
X71093565Y-105483996D01*
X71073369Y-105304750D01*
X71073368Y-105304745D01*
X71034745Y-105194366D01*
X71013789Y-105134478D01*
X70917816Y-104981738D01*
X70790262Y-104854184D01*
X70788992Y-104853386D01*
X70637523Y-104758211D01*
X70467254Y-104698631D01*
X70467249Y-104698630D01*
X70332960Y-104683500D01*
X70332954Y-104683500D01*
X70243046Y-104683500D01*
X70243039Y-104683500D01*
X70108750Y-104698630D01*
X70108745Y-104698631D01*
X69938476Y-104758211D01*
X69785737Y-104854184D01*
X69658184Y-104981737D01*
X69562211Y-105134476D01*
X69502631Y-105304745D01*
X69502630Y-105304750D01*
X69482435Y-105483996D01*
X69482435Y-105484003D01*
X55372000Y-105484003D01*
X55372000Y-102973808D01*
X59695499Y-102973808D01*
X59704812Y-103020623D01*
X59704813Y-103020624D01*
X59740286Y-103073714D01*
X59793376Y-103109187D01*
X59840191Y-103118500D01*
X59840194Y-103118500D01*
X61571808Y-103118500D01*
X61603018Y-103112291D01*
X61618624Y-103109187D01*
X61671714Y-103073714D01*
X61707187Y-103020624D01*
X61716500Y-102973806D01*
X61716500Y-102557703D01*
X61736185Y-102490664D01*
X61788989Y-102444909D01*
X61858147Y-102434965D01*
X61921703Y-102463990D01*
X61959477Y-102522768D01*
X61960275Y-102525610D01*
X61972566Y-102571483D01*
X61972570Y-102571492D01*
X62072399Y-102785578D01*
X62207894Y-102979082D01*
X62374917Y-103146105D01*
X62568421Y-103281600D01*
X62782507Y-103381429D01*
X62782516Y-103381433D01*
X62996000Y-103438634D01*
X62996000Y-102543501D01*
X63103685Y-102592680D01*
X63210237Y-102608000D01*
X63281763Y-102608000D01*
X63388315Y-102592680D01*
X63496000Y-102543501D01*
X63496000Y-103438633D01*
X63709483Y-103381433D01*
X63709492Y-103381429D01*
X63923578Y-103281600D01*
X64117082Y-103146105D01*
X64284105Y-102979082D01*
X64419600Y-102785578D01*
X64519429Y-102571492D01*
X64519432Y-102571486D01*
X64576636Y-102358000D01*
X63679686Y-102358000D01*
X63705493Y-102317844D01*
X63746000Y-102179889D01*
X63746000Y-102036111D01*
X63705493Y-101898156D01*
X63679686Y-101858000D01*
X64576636Y-101858000D01*
X64576635Y-101857999D01*
X64519432Y-101644513D01*
X64519429Y-101644507D01*
X64419600Y-101430422D01*
X64419599Y-101430420D01*
X64284113Y-101236926D01*
X64284108Y-101236920D01*
X64139189Y-101092001D01*
X69030663Y-101092001D01*
X69049925Y-101238318D01*
X69049926Y-101238320D01*
X69106403Y-101374668D01*
X69106404Y-101374669D01*
X69196246Y-101491754D01*
X69313331Y-101581596D01*
X69449680Y-101638074D01*
X69498590Y-101644513D01*
X69595999Y-101657337D01*
X69596000Y-101657337D01*
X69596001Y-101657337D01*
X69644773Y-101650916D01*
X69742320Y-101638074D01*
X69878669Y-101581596D01*
X69995754Y-101491754D01*
X70085596Y-101374669D01*
X70116439Y-101300208D01*
X70160279Y-101245804D01*
X70226574Y-101223739D01*
X70294273Y-101241018D01*
X70341884Y-101292155D01*
X70345561Y-101300208D01*
X70376402Y-101374667D01*
X70376404Y-101374669D01*
X70466246Y-101491754D01*
X70583331Y-101581596D01*
X70719680Y-101638074D01*
X70768590Y-101644513D01*
X70865999Y-101657337D01*
X70866000Y-101657337D01*
X70866001Y-101657337D01*
X70914773Y-101650916D01*
X71012320Y-101638074D01*
X71148669Y-101581596D01*
X71265754Y-101491754D01*
X71355596Y-101374669D01*
X71412074Y-101238320D01*
X71431337Y-101092001D01*
X78174663Y-101092001D01*
X78193925Y-101238318D01*
X78193926Y-101238320D01*
X78250403Y-101374668D01*
X78250404Y-101374669D01*
X78340246Y-101491754D01*
X78457331Y-101581596D01*
X78593680Y-101638074D01*
X78642590Y-101644513D01*
X78739999Y-101657337D01*
X78740000Y-101657337D01*
X78740001Y-101657337D01*
X78788773Y-101650916D01*
X78886320Y-101638074D01*
X78978236Y-101600001D01*
X102812663Y-101600001D01*
X102831925Y-101746318D01*
X102831926Y-101746320D01*
X102888403Y-101882668D01*
X102909307Y-101909911D01*
X102978246Y-101999754D01*
X103095331Y-102089596D01*
X103231680Y-102146074D01*
X103304840Y-102155705D01*
X103377999Y-102165337D01*
X103378000Y-102165337D01*
X103378001Y-102165337D01*
X103426773Y-102158916D01*
X103524320Y-102146074D01*
X103660669Y-102089596D01*
X103777754Y-101999754D01*
X103867596Y-101882669D01*
X103924074Y-101746320D01*
X103943337Y-101600001D01*
X110178663Y-101600001D01*
X110197925Y-101746318D01*
X110197926Y-101746320D01*
X110254403Y-101882668D01*
X110275307Y-101909911D01*
X110344246Y-101999754D01*
X110461331Y-102089596D01*
X110597680Y-102146074D01*
X110670840Y-102155705D01*
X110743999Y-102165337D01*
X110744000Y-102165337D01*
X110744001Y-102165337D01*
X110792773Y-102158916D01*
X110890320Y-102146074D01*
X111026669Y-102089596D01*
X111143754Y-101999754D01*
X111233596Y-101882669D01*
X111290074Y-101746320D01*
X111309337Y-101600000D01*
X111290074Y-101453680D01*
X111233596Y-101317332D01*
X111233596Y-101317331D01*
X111143756Y-101200247D01*
X111026668Y-101110403D01*
X110890320Y-101053926D01*
X110890318Y-101053925D01*
X110744001Y-101034663D01*
X110743999Y-101034663D01*
X110597681Y-101053925D01*
X110597679Y-101053926D01*
X110461332Y-101110403D01*
X110344246Y-101200246D01*
X110254403Y-101317332D01*
X110197926Y-101453679D01*
X110197925Y-101453681D01*
X110178663Y-101599998D01*
X110178663Y-101600001D01*
X103943337Y-101600001D01*
X103943337Y-101600000D01*
X103924074Y-101453680D01*
X103867596Y-101317332D01*
X103867596Y-101317331D01*
X103777756Y-101200247D01*
X103660668Y-101110403D01*
X103524320Y-101053926D01*
X103524318Y-101053925D01*
X103378001Y-101034663D01*
X103377999Y-101034663D01*
X103231681Y-101053925D01*
X103231679Y-101053926D01*
X103095332Y-101110403D01*
X102978246Y-101200246D01*
X102888403Y-101317332D01*
X102831926Y-101453679D01*
X102831925Y-101453681D01*
X102812663Y-101599998D01*
X102812663Y-101600001D01*
X78978236Y-101600001D01*
X79022669Y-101581596D01*
X79139754Y-101491754D01*
X79229596Y-101374669D01*
X79286074Y-101238320D01*
X79305337Y-101092000D01*
X79302426Y-101069891D01*
X79286074Y-100945681D01*
X79286074Y-100945680D01*
X79229596Y-100809332D01*
X79229594Y-100809330D01*
X79227943Y-100806470D01*
X79227281Y-100803742D01*
X79226486Y-100801823D01*
X79226785Y-100801699D01*
X79211467Y-100738571D01*
X79234315Y-100672543D01*
X79289234Y-100629349D01*
X79351512Y-100621525D01*
X79355679Y-100622073D01*
X79355680Y-100622074D01*
X79454288Y-100635055D01*
X79501999Y-100641337D01*
X79502000Y-100641337D01*
X79502001Y-100641337D01*
X79550773Y-100634916D01*
X79648320Y-100622074D01*
X79784669Y-100565596D01*
X79901754Y-100475754D01*
X79991596Y-100358669D01*
X80002102Y-100333305D01*
X84775359Y-100333305D01*
X84794621Y-100479622D01*
X84794622Y-100479624D01*
X84851099Y-100615972D01*
X84855781Y-100622074D01*
X84940942Y-100733058D01*
X85058027Y-100822900D01*
X85194376Y-100879378D01*
X85267536Y-100889009D01*
X85340695Y-100898641D01*
X85340696Y-100898641D01*
X85340697Y-100898641D01*
X85392333Y-100891843D01*
X85487016Y-100879378D01*
X85623365Y-100822900D01*
X85740450Y-100733058D01*
X85830292Y-100615973D01*
X85886770Y-100479624D01*
X85906033Y-100333304D01*
X85886770Y-100186984D01*
X85840798Y-100076000D01*
X85830292Y-100050635D01*
X85740452Y-99933551D01*
X85623364Y-99843707D01*
X85570961Y-99822001D01*
X139134663Y-99822001D01*
X139153925Y-99968318D01*
X139153926Y-99968320D01*
X139210403Y-100104668D01*
X139210404Y-100104669D01*
X139300246Y-100221754D01*
X139417331Y-100311596D01*
X139553680Y-100368074D01*
X139626840Y-100377705D01*
X139699999Y-100387337D01*
X139700000Y-100387337D01*
X139700001Y-100387337D01*
X139748773Y-100380916D01*
X139846320Y-100368074D01*
X139982669Y-100311596D01*
X140099754Y-100221754D01*
X140189596Y-100104669D01*
X140246074Y-99968320D01*
X140265337Y-99822000D01*
X140260759Y-99787229D01*
X140246149Y-99676247D01*
X140246074Y-99675680D01*
X140189596Y-99539332D01*
X140189596Y-99539331D01*
X140099756Y-99422247D01*
X139982668Y-99332403D01*
X139846320Y-99275926D01*
X139846318Y-99275925D01*
X139700001Y-99256663D01*
X139699999Y-99256663D01*
X139553681Y-99275925D01*
X139553679Y-99275926D01*
X139417332Y-99332403D01*
X139300246Y-99422246D01*
X139210403Y-99539332D01*
X139153926Y-99675679D01*
X139153925Y-99675681D01*
X139134663Y-99821998D01*
X139134663Y-99822001D01*
X85570961Y-99822001D01*
X85487016Y-99787230D01*
X85487014Y-99787229D01*
X85340697Y-99767967D01*
X85340695Y-99767967D01*
X85194377Y-99787229D01*
X85194375Y-99787230D01*
X85058028Y-99843707D01*
X84940942Y-99933550D01*
X84851099Y-100050636D01*
X84794622Y-100186983D01*
X84794621Y-100186985D01*
X84775359Y-100333302D01*
X84775359Y-100333305D01*
X80002102Y-100333305D01*
X80048074Y-100222320D01*
X80067337Y-100076000D01*
X80048074Y-99929680D01*
X79991596Y-99793332D01*
X79991596Y-99793331D01*
X79901756Y-99676247D01*
X79784668Y-99586403D01*
X79648320Y-99529926D01*
X79648318Y-99529925D01*
X79502001Y-99510663D01*
X79501999Y-99510663D01*
X79355681Y-99529925D01*
X79355679Y-99529926D01*
X79219332Y-99586403D01*
X79102246Y-99676246D01*
X79012403Y-99793332D01*
X78955926Y-99929679D01*
X78955925Y-99929681D01*
X78936663Y-100075998D01*
X78936663Y-100076001D01*
X78955925Y-100222318D01*
X78955926Y-100222320D01*
X79012403Y-100358668D01*
X79014059Y-100361536D01*
X79014720Y-100364261D01*
X79015514Y-100366178D01*
X79015215Y-100366301D01*
X79030531Y-100429436D01*
X79007678Y-100495463D01*
X78952756Y-100538653D01*
X78890486Y-100546474D01*
X78740001Y-100526663D01*
X78739999Y-100526663D01*
X78593681Y-100545925D01*
X78593679Y-100545926D01*
X78457332Y-100602403D01*
X78340246Y-100692246D01*
X78250403Y-100809332D01*
X78193926Y-100945679D01*
X78193925Y-100945681D01*
X78174663Y-101091998D01*
X78174663Y-101092001D01*
X71431337Y-101092001D01*
X71431337Y-101092000D01*
X71428426Y-101069891D01*
X71412074Y-100945681D01*
X71412074Y-100945680D01*
X71355596Y-100809332D01*
X71355596Y-100809331D01*
X71265756Y-100692247D01*
X71148668Y-100602403D01*
X71012320Y-100545926D01*
X71012318Y-100545925D01*
X70866001Y-100526663D01*
X70865999Y-100526663D01*
X70719681Y-100545925D01*
X70719679Y-100545926D01*
X70583332Y-100602403D01*
X70466246Y-100692246D01*
X70376403Y-100809332D01*
X70345561Y-100883792D01*
X70301720Y-100938195D01*
X70235425Y-100960260D01*
X70167726Y-100942981D01*
X70120116Y-100891843D01*
X70116439Y-100883792D01*
X70085596Y-100809331D01*
X69995756Y-100692247D01*
X69878668Y-100602403D01*
X69742320Y-100545926D01*
X69742318Y-100545925D01*
X69596001Y-100526663D01*
X69595999Y-100526663D01*
X69449681Y-100545925D01*
X69449679Y-100545926D01*
X69313332Y-100602403D01*
X69196246Y-100692246D01*
X69106403Y-100809332D01*
X69049926Y-100945679D01*
X69049925Y-100945681D01*
X69030663Y-101091998D01*
X69030663Y-101092001D01*
X64139189Y-101092001D01*
X64117082Y-101069894D01*
X63923578Y-100934399D01*
X63709492Y-100834570D01*
X63709486Y-100834567D01*
X63496000Y-100777364D01*
X63496000Y-101672498D01*
X63388315Y-101623320D01*
X63281763Y-101608000D01*
X63210237Y-101608000D01*
X63103685Y-101623320D01*
X62996000Y-101672498D01*
X62996000Y-100777364D01*
X62995999Y-100777364D01*
X62782513Y-100834567D01*
X62782507Y-100834570D01*
X62568422Y-100934399D01*
X62568420Y-100934400D01*
X62374926Y-101069886D01*
X62374920Y-101069891D01*
X62207891Y-101236920D01*
X62207886Y-101236926D01*
X62072400Y-101430420D01*
X62072399Y-101430422D01*
X61972570Y-101644507D01*
X61972567Y-101644514D01*
X61960275Y-101690390D01*
X61923910Y-101750050D01*
X61861063Y-101780579D01*
X61791687Y-101772284D01*
X61737809Y-101727799D01*
X61716535Y-101661247D01*
X61716500Y-101658296D01*
X61716500Y-101242191D01*
X61707187Y-101195376D01*
X61671714Y-101142286D01*
X61636240Y-101118583D01*
X61618623Y-101106812D01*
X61571808Y-101097500D01*
X61571806Y-101097500D01*
X59840194Y-101097500D01*
X59840192Y-101097500D01*
X59793376Y-101106812D01*
X59740286Y-101142286D01*
X59704812Y-101195376D01*
X59695500Y-101242191D01*
X59695500Y-101242194D01*
X59695500Y-102973806D01*
X59695500Y-102973808D01*
X59695499Y-102973808D01*
X55372000Y-102973808D01*
X55372000Y-98552001D01*
X74364663Y-98552001D01*
X74383925Y-98698318D01*
X74383926Y-98698320D01*
X74440403Y-98834668D01*
X74440404Y-98834669D01*
X74530246Y-98951754D01*
X74647331Y-99041596D01*
X74783680Y-99098074D01*
X74856840Y-99107705D01*
X74929999Y-99117337D01*
X74930000Y-99117337D01*
X74930001Y-99117337D01*
X74978773Y-99110916D01*
X75076320Y-99098074D01*
X75212669Y-99041596D01*
X75329754Y-98951754D01*
X75419596Y-98834669D01*
X75476074Y-98698320D01*
X75495337Y-98552001D01*
X80714663Y-98552001D01*
X80733925Y-98698318D01*
X80733926Y-98698320D01*
X80790403Y-98834668D01*
X80790404Y-98834669D01*
X80880246Y-98951754D01*
X80997331Y-99041596D01*
X81133680Y-99098074D01*
X81206840Y-99107705D01*
X81279999Y-99117337D01*
X81280000Y-99117337D01*
X81280001Y-99117337D01*
X81328773Y-99110916D01*
X81426320Y-99098074D01*
X81562669Y-99041596D01*
X81679754Y-98951754D01*
X81769596Y-98834669D01*
X81826074Y-98698320D01*
X81845337Y-98552000D01*
X81826074Y-98405680D01*
X81769596Y-98269332D01*
X81769596Y-98269331D01*
X81679756Y-98152247D01*
X81562668Y-98062403D01*
X81426320Y-98005926D01*
X81426318Y-98005925D01*
X81280001Y-97986663D01*
X81279999Y-97986663D01*
X81133681Y-98005925D01*
X81133679Y-98005926D01*
X80997332Y-98062403D01*
X80880246Y-98152246D01*
X80790403Y-98269332D01*
X80733926Y-98405679D01*
X80733925Y-98405681D01*
X80714663Y-98551998D01*
X80714663Y-98552001D01*
X75495337Y-98552001D01*
X75495337Y-98552000D01*
X75476074Y-98405680D01*
X75419596Y-98269332D01*
X75419596Y-98269331D01*
X75329756Y-98152247D01*
X75212668Y-98062403D01*
X75076320Y-98005926D01*
X75076318Y-98005925D01*
X74930001Y-97986663D01*
X74929999Y-97986663D01*
X74783681Y-98005925D01*
X74783679Y-98005926D01*
X74647332Y-98062403D01*
X74530246Y-98152246D01*
X74440403Y-98269332D01*
X74383926Y-98405679D01*
X74383925Y-98405681D01*
X74364663Y-98551998D01*
X74364663Y-98552001D01*
X55372000Y-98552001D01*
X55372000Y-98168000D01*
X55391685Y-98100961D01*
X55444489Y-98055206D01*
X55496000Y-98044000D01*
X62738000Y-98044000D01*
X62738000Y-96774001D01*
X95954663Y-96774001D01*
X95973925Y-96920318D01*
X95973926Y-96920320D01*
X96030403Y-97056668D01*
X96051307Y-97083911D01*
X96120246Y-97173754D01*
X96237331Y-97263596D01*
X96373680Y-97320074D01*
X96446840Y-97329705D01*
X96519999Y-97339337D01*
X96520000Y-97339337D01*
X96520001Y-97339337D01*
X96568773Y-97332916D01*
X96666320Y-97320074D01*
X96758236Y-97282001D01*
X137356663Y-97282001D01*
X137375925Y-97428318D01*
X137375926Y-97428320D01*
X137432403Y-97564668D01*
X137453307Y-97591911D01*
X137522246Y-97681754D01*
X137639331Y-97771596D01*
X137775680Y-97828074D01*
X137848840Y-97837705D01*
X137921999Y-97847337D01*
X137922000Y-97847337D01*
X137922001Y-97847337D01*
X137970773Y-97840916D01*
X138068320Y-97828074D01*
X138204669Y-97771596D01*
X138321754Y-97681754D01*
X138411596Y-97564669D01*
X138468074Y-97428320D01*
X138487337Y-97282000D01*
X138468074Y-97135680D01*
X138411596Y-96999332D01*
X138411596Y-96999331D01*
X138321756Y-96882247D01*
X138204668Y-96792403D01*
X138068320Y-96735926D01*
X138068318Y-96735925D01*
X137922001Y-96716663D01*
X137921999Y-96716663D01*
X137775681Y-96735925D01*
X137775679Y-96735926D01*
X137639332Y-96792403D01*
X137522246Y-96882246D01*
X137432403Y-96999332D01*
X137375926Y-97135679D01*
X137375925Y-97135681D01*
X137356663Y-97281998D01*
X137356663Y-97282001D01*
X96758236Y-97282001D01*
X96802669Y-97263596D01*
X96919754Y-97173754D01*
X97009596Y-97056669D01*
X97066074Y-96920320D01*
X97085337Y-96774000D01*
X97080324Y-96735925D01*
X97066074Y-96627681D01*
X97066074Y-96627680D01*
X97009596Y-96491332D01*
X97009596Y-96491331D01*
X96919755Y-96374247D01*
X96919754Y-96374246D01*
X96906891Y-96364376D01*
X96865688Y-96307950D01*
X96861531Y-96238204D01*
X96895743Y-96177283D01*
X96906892Y-96167623D01*
X96919754Y-96157754D01*
X97009596Y-96040669D01*
X97066074Y-95904320D01*
X97085337Y-95758000D01*
X97066074Y-95611680D01*
X97009596Y-95475332D01*
X97009596Y-95475331D01*
X96919755Y-95358247D01*
X96919754Y-95358246D01*
X96906891Y-95348376D01*
X96865688Y-95291950D01*
X96861531Y-95222204D01*
X96895743Y-95161283D01*
X96906892Y-95151623D01*
X96919754Y-95141754D01*
X97009596Y-95024669D01*
X97066074Y-94888320D01*
X97085337Y-94742000D01*
X97066074Y-94595680D01*
X97009596Y-94459332D01*
X97009596Y-94459331D01*
X96919755Y-94342247D01*
X96919754Y-94342246D01*
X96906891Y-94332376D01*
X96865688Y-94275950D01*
X96861531Y-94206204D01*
X96895743Y-94145283D01*
X96906892Y-94135623D01*
X96919754Y-94125754D01*
X97009596Y-94008669D01*
X97066074Y-93872320D01*
X97085337Y-93726000D01*
X97066074Y-93579680D01*
X97009596Y-93443332D01*
X97009596Y-93443331D01*
X96919756Y-93326247D01*
X96802668Y-93236403D01*
X96758241Y-93218001D01*
X117036663Y-93218001D01*
X117055925Y-93364318D01*
X117055926Y-93364320D01*
X117112403Y-93500668D01*
X117112404Y-93500669D01*
X117202246Y-93617754D01*
X117319331Y-93707596D01*
X117455680Y-93764074D01*
X117528840Y-93773705D01*
X117601999Y-93783337D01*
X117602000Y-93783337D01*
X117602001Y-93783337D01*
X117650773Y-93776916D01*
X117748320Y-93764074D01*
X117884669Y-93707596D01*
X118001754Y-93617754D01*
X118091596Y-93500669D01*
X118148074Y-93364320D01*
X118167337Y-93218000D01*
X118162324Y-93179925D01*
X118148074Y-93071681D01*
X118148074Y-93071680D01*
X118091596Y-92935332D01*
X118091596Y-92935331D01*
X118001756Y-92818247D01*
X117884668Y-92728403D01*
X117748320Y-92671926D01*
X117748318Y-92671925D01*
X117602001Y-92652663D01*
X117601999Y-92652663D01*
X117455681Y-92671925D01*
X117455679Y-92671926D01*
X117319332Y-92728403D01*
X117202246Y-92818246D01*
X117112403Y-92935332D01*
X117055926Y-93071679D01*
X117055925Y-93071681D01*
X117036663Y-93217998D01*
X117036663Y-93218001D01*
X96758241Y-93218001D01*
X96666320Y-93179926D01*
X96666318Y-93179925D01*
X96520001Y-93160663D01*
X96519999Y-93160663D01*
X96373681Y-93179925D01*
X96373679Y-93179926D01*
X96237332Y-93236403D01*
X96120246Y-93326246D01*
X96030403Y-93443332D01*
X95973926Y-93579679D01*
X95973925Y-93579681D01*
X95954663Y-93725998D01*
X95954663Y-93726001D01*
X95973925Y-93872318D01*
X95973926Y-93872320D01*
X96030403Y-94008668D01*
X96120246Y-94125754D01*
X96133110Y-94135625D01*
X96174312Y-94192053D01*
X96178467Y-94261799D01*
X96144254Y-94322719D01*
X96133110Y-94332375D01*
X96120246Y-94342245D01*
X96030403Y-94459332D01*
X95973926Y-94595679D01*
X95973925Y-94595681D01*
X95954663Y-94741998D01*
X95954663Y-94742001D01*
X95973925Y-94888318D01*
X95973926Y-94888320D01*
X96030403Y-95024668D01*
X96120246Y-95141754D01*
X96133110Y-95151625D01*
X96174312Y-95208053D01*
X96178467Y-95277799D01*
X96144254Y-95338719D01*
X96133110Y-95348375D01*
X96120246Y-95358245D01*
X96030403Y-95475332D01*
X95973926Y-95611679D01*
X95973925Y-95611681D01*
X95954663Y-95757998D01*
X95954663Y-95758001D01*
X95973925Y-95904318D01*
X95973926Y-95904320D01*
X96030403Y-96040668D01*
X96120246Y-96157754D01*
X96133110Y-96167625D01*
X96174312Y-96224053D01*
X96178467Y-96293799D01*
X96144254Y-96354719D01*
X96133110Y-96364375D01*
X96120246Y-96374245D01*
X96030403Y-96491332D01*
X95973926Y-96627679D01*
X95973925Y-96627681D01*
X95954663Y-96773998D01*
X95954663Y-96774001D01*
X62738000Y-96774001D01*
X62738000Y-92456001D01*
X74872663Y-92456001D01*
X74891925Y-92602318D01*
X74891926Y-92602320D01*
X74948403Y-92738668D01*
X74948404Y-92738669D01*
X75038246Y-92855754D01*
X75155331Y-92945596D01*
X75291680Y-93002074D01*
X75364840Y-93011705D01*
X75437999Y-93021337D01*
X75438000Y-93021337D01*
X75438001Y-93021337D01*
X75486773Y-93014916D01*
X75584320Y-93002074D01*
X75720669Y-92945596D01*
X75837754Y-92855754D01*
X75927596Y-92738669D01*
X75984074Y-92602320D01*
X76003337Y-92456001D01*
X81730663Y-92456001D01*
X81749925Y-92602318D01*
X81749926Y-92602320D01*
X81806403Y-92738668D01*
X81806404Y-92738669D01*
X81896246Y-92855754D01*
X82013331Y-92945596D01*
X82149680Y-93002074D01*
X82222840Y-93011705D01*
X82295999Y-93021337D01*
X82296000Y-93021337D01*
X82296001Y-93021337D01*
X82344773Y-93014916D01*
X82442320Y-93002074D01*
X82578669Y-92945596D01*
X82695754Y-92855754D01*
X82785596Y-92738669D01*
X82842074Y-92602320D01*
X82861337Y-92456000D01*
X82842074Y-92309680D01*
X82785596Y-92173332D01*
X82785596Y-92173331D01*
X82695756Y-92056247D01*
X82578668Y-91966403D01*
X82442320Y-91909926D01*
X82442318Y-91909925D01*
X82296001Y-91890663D01*
X82295999Y-91890663D01*
X82149681Y-91909925D01*
X82149679Y-91909926D01*
X82013332Y-91966403D01*
X81896246Y-92056246D01*
X81806403Y-92173332D01*
X81749926Y-92309679D01*
X81749925Y-92309681D01*
X81730663Y-92455998D01*
X81730663Y-92456001D01*
X76003337Y-92456001D01*
X76003337Y-92456000D01*
X75984074Y-92309680D01*
X75927596Y-92173332D01*
X75927596Y-92173331D01*
X75837756Y-92056247D01*
X75720668Y-91966403D01*
X75584320Y-91909926D01*
X75584318Y-91909925D01*
X75438001Y-91890663D01*
X75437999Y-91890663D01*
X75291681Y-91909925D01*
X75291679Y-91909926D01*
X75155332Y-91966403D01*
X75038246Y-92056246D01*
X74948403Y-92173332D01*
X74891926Y-92309679D01*
X74891925Y-92309681D01*
X74872663Y-92455998D01*
X74872663Y-92456001D01*
X62738000Y-92456001D01*
X62738000Y-89916000D01*
X55496000Y-89916000D01*
X55428961Y-89896315D01*
X55383206Y-89843511D01*
X55372000Y-89792000D01*
X55372000Y-88900001D01*
X94938663Y-88900001D01*
X94957925Y-89046318D01*
X94957926Y-89046320D01*
X95014403Y-89182668D01*
X95014404Y-89182669D01*
X95104246Y-89299754D01*
X95221331Y-89389596D01*
X95357680Y-89446074D01*
X95430840Y-89455705D01*
X95503999Y-89465337D01*
X95504000Y-89465337D01*
X95504001Y-89465337D01*
X95552773Y-89458916D01*
X95650320Y-89446074D01*
X95786669Y-89389596D01*
X95903754Y-89299754D01*
X95993596Y-89182669D01*
X96050074Y-89046320D01*
X96069337Y-88900000D01*
X96050074Y-88753680D01*
X96005471Y-88646001D01*
X116020663Y-88646001D01*
X116039925Y-88792318D01*
X116039926Y-88792320D01*
X116096403Y-88928668D01*
X116096404Y-88928669D01*
X116186246Y-89045754D01*
X116303331Y-89135596D01*
X116439680Y-89192074D01*
X116512840Y-89201705D01*
X116585999Y-89211337D01*
X116586000Y-89211337D01*
X116586001Y-89211337D01*
X116634773Y-89204916D01*
X116732320Y-89192074D01*
X116868669Y-89135596D01*
X116985754Y-89045754D01*
X117075596Y-88928669D01*
X117132074Y-88792320D01*
X117151337Y-88646001D01*
X117544663Y-88646001D01*
X117563925Y-88792318D01*
X117563926Y-88792320D01*
X117620403Y-88928668D01*
X117620404Y-88928669D01*
X117710246Y-89045754D01*
X117827331Y-89135596D01*
X117963680Y-89192074D01*
X118036840Y-89201705D01*
X118109999Y-89211337D01*
X118110000Y-89211337D01*
X118110001Y-89211337D01*
X118158773Y-89204916D01*
X118256320Y-89192074D01*
X118392669Y-89135596D01*
X118509754Y-89045754D01*
X118599596Y-88928669D01*
X118656074Y-88792320D01*
X118675337Y-88646000D01*
X118656074Y-88499680D01*
X118599596Y-88363332D01*
X118599596Y-88363331D01*
X118509756Y-88246247D01*
X118392668Y-88156403D01*
X118256320Y-88099926D01*
X118256318Y-88099925D01*
X118110001Y-88080663D01*
X118109999Y-88080663D01*
X117963681Y-88099925D01*
X117963679Y-88099926D01*
X117827332Y-88156403D01*
X117710246Y-88246246D01*
X117620403Y-88363332D01*
X117563926Y-88499679D01*
X117563925Y-88499681D01*
X117544663Y-88645998D01*
X117544663Y-88646001D01*
X117151337Y-88646001D01*
X117151337Y-88646000D01*
X117132074Y-88499680D01*
X117075596Y-88363332D01*
X117075596Y-88363331D01*
X116985756Y-88246247D01*
X116868668Y-88156403D01*
X116732320Y-88099926D01*
X116732318Y-88099925D01*
X116586001Y-88080663D01*
X116585999Y-88080663D01*
X116439681Y-88099925D01*
X116439679Y-88099926D01*
X116303332Y-88156403D01*
X116186246Y-88246246D01*
X116096403Y-88363332D01*
X116039926Y-88499679D01*
X116039925Y-88499681D01*
X116020663Y-88645998D01*
X116020663Y-88646001D01*
X96005471Y-88646001D01*
X95993596Y-88617332D01*
X95993596Y-88617331D01*
X95903756Y-88500247D01*
X95786668Y-88410403D01*
X95650320Y-88353926D01*
X95650318Y-88353925D01*
X95504001Y-88334663D01*
X95503999Y-88334663D01*
X95357681Y-88353925D01*
X95357679Y-88353926D01*
X95221332Y-88410403D01*
X95104246Y-88500246D01*
X95014403Y-88617332D01*
X94957926Y-88753679D01*
X94957925Y-88753681D01*
X94938663Y-88899998D01*
X94938663Y-88900001D01*
X55372000Y-88900001D01*
X55372000Y-88138001D01*
X67583663Y-88138001D01*
X67602925Y-88284318D01*
X67602926Y-88284320D01*
X67659403Y-88420668D01*
X67659404Y-88420669D01*
X67749246Y-88537754D01*
X67866331Y-88627596D01*
X68002680Y-88684074D01*
X68075840Y-88693705D01*
X68148999Y-88703337D01*
X68149000Y-88703337D01*
X68149001Y-88703337D01*
X68197773Y-88696916D01*
X68295320Y-88684074D01*
X68431669Y-88627596D01*
X68548754Y-88537754D01*
X68638596Y-88420669D01*
X68695074Y-88284320D01*
X68714337Y-88138000D01*
X68709324Y-88099925D01*
X68695074Y-87991681D01*
X68695074Y-87991680D01*
X68638596Y-87855332D01*
X68638596Y-87855331D01*
X68548756Y-87738247D01*
X68431668Y-87648403D01*
X68387241Y-87630001D01*
X138118663Y-87630001D01*
X138137925Y-87776318D01*
X138137926Y-87776320D01*
X138194403Y-87912668D01*
X138194404Y-87912669D01*
X138284246Y-88029754D01*
X138401331Y-88119596D01*
X138537680Y-88176074D01*
X138610840Y-88185705D01*
X138683999Y-88195337D01*
X138684000Y-88195337D01*
X138684001Y-88195337D01*
X138732773Y-88188916D01*
X138830320Y-88176074D01*
X138966669Y-88119596D01*
X139083754Y-88029754D01*
X139173596Y-87912669D01*
X139230074Y-87776320D01*
X139249337Y-87630000D01*
X139244324Y-87591925D01*
X139230074Y-87483681D01*
X139230074Y-87483680D01*
X139173596Y-87347332D01*
X139173596Y-87347331D01*
X139083756Y-87230247D01*
X138966668Y-87140403D01*
X138830320Y-87083926D01*
X138830318Y-87083925D01*
X138684001Y-87064663D01*
X138683999Y-87064663D01*
X138537681Y-87083925D01*
X138537679Y-87083926D01*
X138401332Y-87140403D01*
X138284246Y-87230246D01*
X138194403Y-87347332D01*
X138137926Y-87483679D01*
X138137925Y-87483681D01*
X138118663Y-87629998D01*
X138118663Y-87630001D01*
X68387241Y-87630001D01*
X68295320Y-87591926D01*
X68295318Y-87591925D01*
X68149001Y-87572663D01*
X68148999Y-87572663D01*
X68002681Y-87591925D01*
X68002679Y-87591926D01*
X67866332Y-87648403D01*
X67749246Y-87738246D01*
X67659403Y-87855332D01*
X67602926Y-87991679D01*
X67602925Y-87991681D01*
X67583663Y-88137998D01*
X67583663Y-88138001D01*
X55372000Y-88138001D01*
X55372000Y-83816000D01*
X57343364Y-83816000D01*
X57400567Y-84029486D01*
X57400570Y-84029492D01*
X57500399Y-84243578D01*
X57635894Y-84437082D01*
X57802917Y-84604105D01*
X57996421Y-84739600D01*
X58210507Y-84839429D01*
X58210516Y-84839433D01*
X58256390Y-84851725D01*
X58316051Y-84888090D01*
X58346580Y-84950937D01*
X58338285Y-85020312D01*
X58293800Y-85074190D01*
X58227248Y-85095465D01*
X58224297Y-85095500D01*
X57808192Y-85095500D01*
X57761376Y-85104812D01*
X57708286Y-85140286D01*
X57672812Y-85193376D01*
X57663500Y-85240191D01*
X57663500Y-85240194D01*
X57663500Y-86971806D01*
X57663500Y-86971808D01*
X57663499Y-86971808D01*
X57672812Y-87018623D01*
X57672813Y-87018624D01*
X57708286Y-87071714D01*
X57753432Y-87101879D01*
X57761376Y-87107187D01*
X57808191Y-87116500D01*
X57808194Y-87116500D01*
X59539808Y-87116500D01*
X59571018Y-87110291D01*
X59586624Y-87107187D01*
X59639714Y-87071714D01*
X59675187Y-87018624D01*
X59684500Y-86971806D01*
X59684500Y-86106000D01*
X60198611Y-86106000D01*
X60218121Y-86304095D01*
X60275903Y-86494574D01*
X60369731Y-86670114D01*
X60369735Y-86670121D01*
X60496011Y-86823988D01*
X60649878Y-86950264D01*
X60649885Y-86950268D01*
X60777770Y-87018624D01*
X60825427Y-87044097D01*
X61015907Y-87101879D01*
X61214000Y-87121389D01*
X61412093Y-87101879D01*
X61602573Y-87044097D01*
X61778120Y-86950265D01*
X61931988Y-86823988D01*
X62058265Y-86670120D01*
X62152097Y-86494573D01*
X62209879Y-86304093D01*
X62229389Y-86106000D01*
X62738611Y-86106000D01*
X62758121Y-86304095D01*
X62815903Y-86494574D01*
X62909731Y-86670114D01*
X62909735Y-86670121D01*
X63036011Y-86823988D01*
X63189878Y-86950264D01*
X63189885Y-86950268D01*
X63317770Y-87018624D01*
X63365427Y-87044097D01*
X63555907Y-87101879D01*
X63754000Y-87121389D01*
X63952093Y-87101879D01*
X64142573Y-87044097D01*
X64318120Y-86950265D01*
X64471988Y-86823988D01*
X64598265Y-86670120D01*
X64692097Y-86494573D01*
X64749879Y-86304093D01*
X64769389Y-86106000D01*
X65278611Y-86106000D01*
X65298121Y-86304095D01*
X65355903Y-86494574D01*
X65449731Y-86670114D01*
X65449735Y-86670121D01*
X65576011Y-86823988D01*
X65729878Y-86950264D01*
X65729885Y-86950268D01*
X65857770Y-87018624D01*
X65905427Y-87044097D01*
X66095907Y-87101879D01*
X66294000Y-87121389D01*
X66492093Y-87101879D01*
X66682573Y-87044097D01*
X66858120Y-86950265D01*
X67011988Y-86823988D01*
X67138265Y-86670120D01*
X67232097Y-86494573D01*
X67289879Y-86304093D01*
X67309389Y-86106000D01*
X67289879Y-85907907D01*
X67232097Y-85717427D01*
X67138265Y-85541880D01*
X67138264Y-85541878D01*
X67011988Y-85388011D01*
X66858121Y-85261735D01*
X66858114Y-85261731D01*
X66682574Y-85167903D01*
X66492095Y-85110121D01*
X66294000Y-85090611D01*
X66095904Y-85110121D01*
X65905425Y-85167903D01*
X65729885Y-85261731D01*
X65729878Y-85261735D01*
X65576011Y-85388011D01*
X65449735Y-85541878D01*
X65449731Y-85541885D01*
X65355903Y-85717425D01*
X65298121Y-85907904D01*
X65278611Y-86106000D01*
X64769389Y-86106000D01*
X64749879Y-85907907D01*
X64692097Y-85717427D01*
X64598265Y-85541880D01*
X64598264Y-85541878D01*
X64471988Y-85388011D01*
X64318121Y-85261735D01*
X64318114Y-85261731D01*
X64142574Y-85167903D01*
X63952095Y-85110121D01*
X63754000Y-85090611D01*
X63555904Y-85110121D01*
X63365425Y-85167903D01*
X63189885Y-85261731D01*
X63189878Y-85261735D01*
X63036011Y-85388011D01*
X62909735Y-85541878D01*
X62909731Y-85541885D01*
X62815903Y-85717425D01*
X62758121Y-85907904D01*
X62738611Y-86106000D01*
X62229389Y-86106000D01*
X62209879Y-85907907D01*
X62152097Y-85717427D01*
X62058265Y-85541880D01*
X62058264Y-85541878D01*
X61931988Y-85388011D01*
X61778121Y-85261735D01*
X61778114Y-85261731D01*
X61602574Y-85167903D01*
X61412095Y-85110121D01*
X61214000Y-85090611D01*
X61015904Y-85110121D01*
X60825425Y-85167903D01*
X60649885Y-85261731D01*
X60649878Y-85261735D01*
X60496011Y-85388011D01*
X60369735Y-85541878D01*
X60369731Y-85541885D01*
X60275903Y-85717425D01*
X60218121Y-85907904D01*
X60198611Y-86106000D01*
X59684500Y-86106000D01*
X59684500Y-85240194D01*
X59684500Y-85240191D01*
X59675187Y-85193376D01*
X59639714Y-85140286D01*
X59586624Y-85104813D01*
X59586623Y-85104812D01*
X59539808Y-85095500D01*
X59539806Y-85095500D01*
X59123703Y-85095500D01*
X59056664Y-85075815D01*
X59010909Y-85023011D01*
X59000965Y-84953853D01*
X59029990Y-84890297D01*
X59088768Y-84852523D01*
X59091610Y-84851725D01*
X59137483Y-84839433D01*
X59137492Y-84839429D01*
X59351578Y-84739600D01*
X59545082Y-84604105D01*
X59712105Y-84437082D01*
X59847600Y-84243578D01*
X59947429Y-84029492D01*
X59947433Y-84029483D01*
X59999763Y-83834183D01*
X60036128Y-83774522D01*
X60098975Y-83743993D01*
X60168350Y-83752287D01*
X60222228Y-83796773D01*
X60238198Y-83830280D01*
X60275903Y-83954574D01*
X60369731Y-84130114D01*
X60369735Y-84130121D01*
X60496011Y-84283988D01*
X60649878Y-84410264D01*
X60649885Y-84410268D01*
X60700051Y-84437082D01*
X60825427Y-84504097D01*
X61015907Y-84561879D01*
X61214000Y-84581389D01*
X61412093Y-84561879D01*
X61602573Y-84504097D01*
X61778120Y-84410265D01*
X61931988Y-84283988D01*
X62058265Y-84130120D01*
X62152097Y-83954573D01*
X62209879Y-83764093D01*
X62229389Y-83566000D01*
X62738611Y-83566000D01*
X62758121Y-83764095D01*
X62815903Y-83954574D01*
X62909731Y-84130114D01*
X62909735Y-84130121D01*
X63036011Y-84283988D01*
X63189878Y-84410264D01*
X63189885Y-84410268D01*
X63240051Y-84437082D01*
X63365427Y-84504097D01*
X63555907Y-84561879D01*
X63754000Y-84581389D01*
X63952093Y-84561879D01*
X64142573Y-84504097D01*
X64318120Y-84410265D01*
X64471988Y-84283988D01*
X64598265Y-84130120D01*
X64692097Y-83954573D01*
X64749879Y-83764093D01*
X64769389Y-83566000D01*
X65278611Y-83566000D01*
X65298121Y-83764095D01*
X65355903Y-83954574D01*
X65449731Y-84130114D01*
X65449735Y-84130121D01*
X65576011Y-84283988D01*
X65729878Y-84410264D01*
X65729885Y-84410268D01*
X65780051Y-84437082D01*
X65905427Y-84504097D01*
X66095907Y-84561879D01*
X66294000Y-84581389D01*
X66492093Y-84561879D01*
X66682573Y-84504097D01*
X66858120Y-84410265D01*
X67011988Y-84283988D01*
X67138265Y-84130120D01*
X67232097Y-83954573D01*
X67269801Y-83830278D01*
X67308098Y-83771842D01*
X67371910Y-83743386D01*
X67440977Y-83753946D01*
X67493371Y-83800170D01*
X67508236Y-83834182D01*
X67560567Y-84029486D01*
X67560570Y-84029492D01*
X67660399Y-84243578D01*
X67795894Y-84437082D01*
X67962917Y-84604105D01*
X68156421Y-84739600D01*
X68370507Y-84839429D01*
X68370516Y-84839433D01*
X68565816Y-84891763D01*
X68625477Y-84928128D01*
X68656006Y-84990975D01*
X68647711Y-85060350D01*
X68603226Y-85114228D01*
X68569719Y-85130198D01*
X68445425Y-85167903D01*
X68269885Y-85261731D01*
X68269878Y-85261735D01*
X68116011Y-85388011D01*
X67989735Y-85541878D01*
X67989731Y-85541885D01*
X67895903Y-85717425D01*
X67838121Y-85907904D01*
X67818611Y-86106000D01*
X67838121Y-86304095D01*
X67895903Y-86494574D01*
X67989731Y-86670114D01*
X67989735Y-86670121D01*
X68116011Y-86823988D01*
X68269878Y-86950264D01*
X68269885Y-86950268D01*
X68397770Y-87018624D01*
X68445427Y-87044097D01*
X68635907Y-87101879D01*
X68834000Y-87121389D01*
X69032093Y-87101879D01*
X69222573Y-87044097D01*
X69398120Y-86950265D01*
X69551988Y-86823988D01*
X69678265Y-86670120D01*
X69708261Y-86614001D01*
X94176663Y-86614001D01*
X94195925Y-86760318D01*
X94195926Y-86760320D01*
X94252403Y-86896668D01*
X94252404Y-86896669D01*
X94342246Y-87013754D01*
X94459331Y-87103596D01*
X94595680Y-87160074D01*
X94668840Y-87169705D01*
X94741999Y-87179337D01*
X94742000Y-87179337D01*
X94742001Y-87179337D01*
X94790773Y-87172916D01*
X94888320Y-87160074D01*
X95024669Y-87103596D01*
X95141754Y-87013754D01*
X95231596Y-86896669D01*
X95288074Y-86760320D01*
X95307337Y-86614000D01*
X95288074Y-86467680D01*
X95231596Y-86331332D01*
X95231596Y-86331331D01*
X95141756Y-86214247D01*
X95024668Y-86124403D01*
X94888320Y-86067926D01*
X94888318Y-86067925D01*
X94742001Y-86048663D01*
X94741999Y-86048663D01*
X94595681Y-86067925D01*
X94595679Y-86067926D01*
X94459332Y-86124403D01*
X94342246Y-86214246D01*
X94252403Y-86331332D01*
X94195926Y-86467679D01*
X94195925Y-86467681D01*
X94176663Y-86613998D01*
X94176663Y-86614001D01*
X69708261Y-86614001D01*
X69772097Y-86494573D01*
X69829879Y-86304093D01*
X69849389Y-86106000D01*
X69829879Y-85907907D01*
X69772097Y-85717427D01*
X69678265Y-85541880D01*
X69678264Y-85541878D01*
X69551988Y-85388011D01*
X69398121Y-85261735D01*
X69398114Y-85261731D01*
X69222574Y-85167903D01*
X69098280Y-85130198D01*
X69039842Y-85091901D01*
X69011385Y-85028088D01*
X69021946Y-84959021D01*
X69068171Y-84906628D01*
X69102183Y-84891763D01*
X69297483Y-84839433D01*
X69297492Y-84839429D01*
X69511578Y-84739600D01*
X69705082Y-84604105D01*
X69872105Y-84437082D01*
X70007600Y-84243578D01*
X70107429Y-84029492D01*
X70107432Y-84029486D01*
X70164636Y-83816000D01*
X69267686Y-83816000D01*
X69293493Y-83775844D01*
X69334000Y-83637889D01*
X69334000Y-83494111D01*
X69293493Y-83356156D01*
X69267686Y-83316000D01*
X70164636Y-83316000D01*
X70164635Y-83315999D01*
X70107432Y-83102513D01*
X70107429Y-83102507D01*
X70007600Y-82888422D01*
X70007599Y-82888420D01*
X69872113Y-82694926D01*
X69872108Y-82694920D01*
X69705082Y-82527894D01*
X69511578Y-82392399D01*
X69297492Y-82292570D01*
X69297486Y-82292567D01*
X69084000Y-82235364D01*
X69084000Y-83130498D01*
X68976315Y-83081320D01*
X68869763Y-83066000D01*
X68798237Y-83066000D01*
X68691685Y-83081320D01*
X68584000Y-83130498D01*
X68584000Y-82235364D01*
X68583999Y-82235364D01*
X68370513Y-82292567D01*
X68370507Y-82292570D01*
X68156422Y-82392399D01*
X68156420Y-82392400D01*
X67962926Y-82527886D01*
X67962920Y-82527891D01*
X67795891Y-82694920D01*
X67795886Y-82694926D01*
X67660400Y-82888420D01*
X67660399Y-82888422D01*
X67560570Y-83102507D01*
X67560567Y-83102513D01*
X67508236Y-83297817D01*
X67471871Y-83357477D01*
X67409024Y-83388006D01*
X67339648Y-83379711D01*
X67285770Y-83335226D01*
X67269801Y-83301721D01*
X67232097Y-83177427D01*
X67232095Y-83177424D01*
X67232095Y-83177422D01*
X67138268Y-83001885D01*
X67138264Y-83001878D01*
X67011988Y-82848011D01*
X66858121Y-82721735D01*
X66858114Y-82721731D01*
X66682574Y-82627903D01*
X66492095Y-82570121D01*
X66294000Y-82550611D01*
X66095904Y-82570121D01*
X65905425Y-82627903D01*
X65729885Y-82721731D01*
X65729878Y-82721735D01*
X65576011Y-82848011D01*
X65449735Y-83001878D01*
X65449731Y-83001885D01*
X65355903Y-83177425D01*
X65298121Y-83367904D01*
X65278611Y-83566000D01*
X64769389Y-83566000D01*
X64749879Y-83367907D01*
X64692097Y-83177427D01*
X64652055Y-83102513D01*
X64598268Y-83001885D01*
X64598264Y-83001878D01*
X64471988Y-82848011D01*
X64318121Y-82721735D01*
X64318114Y-82721731D01*
X64142574Y-82627903D01*
X63952095Y-82570121D01*
X63754000Y-82550611D01*
X63555904Y-82570121D01*
X63365425Y-82627903D01*
X63189885Y-82721731D01*
X63189878Y-82721735D01*
X63036011Y-82848011D01*
X62909735Y-83001878D01*
X62909731Y-83001885D01*
X62815903Y-83177425D01*
X62758121Y-83367904D01*
X62738611Y-83566000D01*
X62229389Y-83566000D01*
X62209879Y-83367907D01*
X62152097Y-83177427D01*
X62112055Y-83102513D01*
X62058268Y-83001885D01*
X62058264Y-83001878D01*
X61931988Y-82848011D01*
X61778121Y-82721735D01*
X61778114Y-82721731D01*
X61602574Y-82627903D01*
X61412095Y-82570121D01*
X61214000Y-82550611D01*
X61015904Y-82570121D01*
X60825425Y-82627903D01*
X60649885Y-82721731D01*
X60649878Y-82721735D01*
X60496011Y-82848011D01*
X60369735Y-83001878D01*
X60369731Y-83001885D01*
X60275903Y-83177425D01*
X60238198Y-83301719D01*
X60199900Y-83360158D01*
X60136088Y-83388614D01*
X60067021Y-83378053D01*
X60014628Y-83331828D01*
X59999763Y-83297816D01*
X59947433Y-83102516D01*
X59947429Y-83102507D01*
X59847600Y-82888422D01*
X59847599Y-82888420D01*
X59712113Y-82694926D01*
X59712108Y-82694920D01*
X59545082Y-82527894D01*
X59351578Y-82392399D01*
X59137492Y-82292570D01*
X59137486Y-82292567D01*
X58924000Y-82235364D01*
X58924000Y-83130498D01*
X58816315Y-83081320D01*
X58709763Y-83066000D01*
X58638237Y-83066000D01*
X58531685Y-83081320D01*
X58424000Y-83130498D01*
X58424000Y-82235364D01*
X58423999Y-82235364D01*
X58210513Y-82292567D01*
X58210507Y-82292570D01*
X57996422Y-82392399D01*
X57996420Y-82392400D01*
X57802926Y-82527886D01*
X57802920Y-82527891D01*
X57635891Y-82694920D01*
X57635886Y-82694926D01*
X57500400Y-82888420D01*
X57500399Y-82888422D01*
X57400570Y-83102507D01*
X57400567Y-83102513D01*
X57343364Y-83315999D01*
X57343364Y-83316000D01*
X58240314Y-83316000D01*
X58214507Y-83356156D01*
X58174000Y-83494111D01*
X58174000Y-83637889D01*
X58214507Y-83775844D01*
X58240314Y-83816000D01*
X57343364Y-83816000D01*
X55372000Y-83816000D01*
X55372000Y-82042001D01*
X77412663Y-82042001D01*
X77431925Y-82188318D01*
X77431926Y-82188320D01*
X77488403Y-82324668D01*
X77488404Y-82324669D01*
X77578246Y-82441754D01*
X77695331Y-82531596D01*
X77831680Y-82588074D01*
X77904840Y-82597705D01*
X77977999Y-82607337D01*
X77978000Y-82607337D01*
X77978001Y-82607337D01*
X78026773Y-82600916D01*
X78124320Y-82588074D01*
X78260669Y-82531596D01*
X78377754Y-82441754D01*
X78467596Y-82324669D01*
X78524074Y-82188320D01*
X78543337Y-82042000D01*
X78524074Y-81895680D01*
X78467596Y-81759332D01*
X78467596Y-81759331D01*
X78377756Y-81642247D01*
X78260668Y-81552403D01*
X78124320Y-81495926D01*
X78124318Y-81495925D01*
X77978001Y-81476663D01*
X77977999Y-81476663D01*
X77831681Y-81495925D01*
X77831679Y-81495926D01*
X77695332Y-81552403D01*
X77578246Y-81642246D01*
X77488403Y-81759332D01*
X77431926Y-81895679D01*
X77431925Y-81895681D01*
X77412663Y-82041998D01*
X77412663Y-82042001D01*
X55372000Y-82042001D01*
X55372000Y-80518001D01*
X74364663Y-80518001D01*
X74383925Y-80664318D01*
X74383926Y-80664320D01*
X74440403Y-80800668D01*
X74440404Y-80800669D01*
X74530246Y-80917754D01*
X74647331Y-81007596D01*
X74783680Y-81064074D01*
X74856840Y-81073705D01*
X74929999Y-81083337D01*
X74930000Y-81083337D01*
X74930001Y-81083337D01*
X74978773Y-81076916D01*
X75076320Y-81064074D01*
X75212669Y-81007596D01*
X75329754Y-80917754D01*
X75339623Y-80904891D01*
X75396050Y-80863688D01*
X75465796Y-80859531D01*
X75526717Y-80893743D01*
X75536374Y-80904888D01*
X75546246Y-80917754D01*
X75663331Y-81007596D01*
X75799680Y-81064074D01*
X75872840Y-81073705D01*
X75945999Y-81083337D01*
X75946000Y-81083337D01*
X75946001Y-81083337D01*
X75994773Y-81076916D01*
X76092320Y-81064074D01*
X76228669Y-81007596D01*
X76345754Y-80917754D01*
X76435596Y-80800669D01*
X76492074Y-80664320D01*
X76511337Y-80518001D01*
X79444663Y-80518001D01*
X79463925Y-80664318D01*
X79463926Y-80664320D01*
X79520403Y-80800668D01*
X79520404Y-80800669D01*
X79610246Y-80917754D01*
X79727331Y-81007596D01*
X79863680Y-81064074D01*
X79936840Y-81073705D01*
X80009999Y-81083337D01*
X80010000Y-81083337D01*
X80010001Y-81083337D01*
X80058773Y-81076916D01*
X80156320Y-81064074D01*
X80292669Y-81007596D01*
X80409754Y-80917754D01*
X80419623Y-80904891D01*
X80476050Y-80863688D01*
X80545796Y-80859531D01*
X80606717Y-80893743D01*
X80616374Y-80904888D01*
X80626246Y-80917754D01*
X80743331Y-81007596D01*
X80879680Y-81064074D01*
X80952840Y-81073705D01*
X81025999Y-81083337D01*
X81026000Y-81083337D01*
X81026001Y-81083337D01*
X81074773Y-81076916D01*
X81172320Y-81064074D01*
X81308669Y-81007596D01*
X81425754Y-80917754D01*
X81515596Y-80800669D01*
X81572074Y-80664320D01*
X81591337Y-80518000D01*
X81572074Y-80371680D01*
X81527471Y-80264001D01*
X83762663Y-80264001D01*
X83781925Y-80410318D01*
X83781926Y-80410320D01*
X83838403Y-80546668D01*
X83838404Y-80546669D01*
X83928246Y-80663754D01*
X84045331Y-80753596D01*
X84181680Y-80810074D01*
X84254840Y-80819705D01*
X84327999Y-80829337D01*
X84328000Y-80829337D01*
X84328001Y-80829337D01*
X84376773Y-80822916D01*
X84474320Y-80810074D01*
X84610669Y-80753596D01*
X84727754Y-80663754D01*
X84817596Y-80546669D01*
X84874074Y-80410320D01*
X84893337Y-80264000D01*
X84874074Y-80117680D01*
X84817596Y-79981332D01*
X84817596Y-79981331D01*
X84727756Y-79864247D01*
X84610668Y-79774403D01*
X84562041Y-79754261D01*
X122346663Y-79754261D01*
X122365925Y-79900578D01*
X122365926Y-79900580D01*
X122422403Y-80036928D01*
X122422404Y-80036929D01*
X122512246Y-80154014D01*
X122629331Y-80243856D01*
X122765680Y-80300334D01*
X122838840Y-80309965D01*
X122911999Y-80319597D01*
X122912000Y-80319597D01*
X122912001Y-80319597D01*
X122960773Y-80313176D01*
X123058320Y-80300334D01*
X123194669Y-80243856D01*
X123311754Y-80154014D01*
X123401596Y-80036929D01*
X123458074Y-79900580D01*
X123477337Y-79754260D01*
X123458074Y-79607940D01*
X123401596Y-79471592D01*
X123401596Y-79471591D01*
X123311756Y-79354507D01*
X123194668Y-79264663D01*
X123058320Y-79208186D01*
X123058318Y-79208185D01*
X122912001Y-79188923D01*
X122911999Y-79188923D01*
X122765681Y-79208185D01*
X122765679Y-79208186D01*
X122629332Y-79264663D01*
X122512246Y-79354506D01*
X122422403Y-79471592D01*
X122365926Y-79607939D01*
X122365925Y-79607941D01*
X122346663Y-79754258D01*
X122346663Y-79754261D01*
X84562041Y-79754261D01*
X84474320Y-79717926D01*
X84474318Y-79717925D01*
X84328001Y-79698663D01*
X84327999Y-79698663D01*
X84181681Y-79717925D01*
X84181679Y-79717926D01*
X84045332Y-79774403D01*
X83928246Y-79864246D01*
X83838403Y-79981332D01*
X83781926Y-80117679D01*
X83781925Y-80117681D01*
X83762663Y-80263998D01*
X83762663Y-80264001D01*
X81527471Y-80264001D01*
X81515596Y-80235332D01*
X81515596Y-80235331D01*
X81425756Y-80118247D01*
X81308668Y-80028403D01*
X81172320Y-79971926D01*
X81172318Y-79971925D01*
X81026001Y-79952663D01*
X81025999Y-79952663D01*
X80879681Y-79971925D01*
X80879679Y-79971926D01*
X80743332Y-80028403D01*
X80626246Y-80118246D01*
X80616374Y-80131111D01*
X80559944Y-80172312D01*
X80490198Y-80176465D01*
X80429279Y-80142251D01*
X80419624Y-80131108D01*
X80409756Y-80118247D01*
X80292668Y-80028403D01*
X80156320Y-79971926D01*
X80156318Y-79971925D01*
X80010001Y-79952663D01*
X80009999Y-79952663D01*
X79863681Y-79971925D01*
X79863679Y-79971926D01*
X79727332Y-80028403D01*
X79610246Y-80118246D01*
X79520403Y-80235332D01*
X79463926Y-80371679D01*
X79463925Y-80371681D01*
X79444663Y-80517998D01*
X79444663Y-80518001D01*
X76511337Y-80518001D01*
X76511337Y-80518000D01*
X76492074Y-80371680D01*
X76435596Y-80235332D01*
X76435596Y-80235331D01*
X76345756Y-80118247D01*
X76228668Y-80028403D01*
X76092320Y-79971926D01*
X76092318Y-79971925D01*
X75946001Y-79952663D01*
X75945999Y-79952663D01*
X75799681Y-79971925D01*
X75799679Y-79971926D01*
X75663332Y-80028403D01*
X75546246Y-80118246D01*
X75536374Y-80131111D01*
X75479944Y-80172312D01*
X75410198Y-80176465D01*
X75349279Y-80142251D01*
X75339624Y-80131108D01*
X75329756Y-80118247D01*
X75212668Y-80028403D01*
X75076320Y-79971926D01*
X75076318Y-79971925D01*
X74930001Y-79952663D01*
X74929999Y-79952663D01*
X74783681Y-79971925D01*
X74783679Y-79971926D01*
X74647332Y-80028403D01*
X74530246Y-80118246D01*
X74440403Y-80235332D01*
X74383926Y-80371679D01*
X74383925Y-80371681D01*
X74364663Y-80517998D01*
X74364663Y-80518001D01*
X55372000Y-80518001D01*
X55372000Y-76962000D01*
X62885474Y-76962000D01*
X62905547Y-77217064D01*
X62965279Y-77465864D01*
X63063188Y-77702239D01*
X63063190Y-77702242D01*
X63196875Y-77920396D01*
X63196878Y-77920401D01*
X63221587Y-77949331D01*
X63363044Y-78114956D01*
X63487579Y-78221319D01*
X63557598Y-78281121D01*
X63557603Y-78281124D01*
X63775757Y-78414809D01*
X63775760Y-78414811D01*
X64012135Y-78512720D01*
X64012140Y-78512722D01*
X64260930Y-78572452D01*
X64452137Y-78587500D01*
X64452145Y-78587500D01*
X64579855Y-78587500D01*
X64579863Y-78587500D01*
X64771070Y-78572452D01*
X65019860Y-78512722D01*
X65138051Y-78463765D01*
X65256239Y-78414811D01*
X65256240Y-78414810D01*
X65256243Y-78414809D01*
X65474399Y-78281123D01*
X65531914Y-78232001D01*
X103828663Y-78232001D01*
X103847925Y-78378318D01*
X103847926Y-78378320D01*
X103904403Y-78514668D01*
X103904404Y-78514669D01*
X103994246Y-78631754D01*
X104111331Y-78721596D01*
X104247680Y-78778074D01*
X104320840Y-78787705D01*
X104393999Y-78797337D01*
X104394000Y-78797337D01*
X104394001Y-78797337D01*
X104442773Y-78790916D01*
X104540320Y-78778074D01*
X104676669Y-78721596D01*
X104793754Y-78631754D01*
X104883596Y-78514669D01*
X104940074Y-78378320D01*
X104959337Y-78232001D01*
X110686663Y-78232001D01*
X110705925Y-78378318D01*
X110705926Y-78378320D01*
X110762403Y-78514668D01*
X110762404Y-78514669D01*
X110852246Y-78631754D01*
X110969331Y-78721596D01*
X111105680Y-78778074D01*
X111178840Y-78787705D01*
X111251999Y-78797337D01*
X111252000Y-78797337D01*
X111252001Y-78797337D01*
X111300773Y-78790916D01*
X111398320Y-78778074D01*
X111534669Y-78721596D01*
X111651754Y-78631754D01*
X111741596Y-78514669D01*
X111798074Y-78378320D01*
X111817337Y-78232000D01*
X111798074Y-78085680D01*
X111741596Y-77949332D01*
X111741596Y-77949331D01*
X111651756Y-77832247D01*
X111534668Y-77742403D01*
X111398320Y-77685926D01*
X111398318Y-77685925D01*
X111252001Y-77666663D01*
X111251999Y-77666663D01*
X111105681Y-77685925D01*
X111105679Y-77685926D01*
X110969332Y-77742403D01*
X110852246Y-77832246D01*
X110762403Y-77949332D01*
X110705926Y-78085679D01*
X110705925Y-78085681D01*
X110686663Y-78231998D01*
X110686663Y-78232001D01*
X104959337Y-78232001D01*
X104959337Y-78232000D01*
X104940074Y-78085680D01*
X104883596Y-77949332D01*
X104883596Y-77949331D01*
X104793756Y-77832247D01*
X104676668Y-77742403D01*
X104540320Y-77685926D01*
X104540318Y-77685925D01*
X104394001Y-77666663D01*
X104393999Y-77666663D01*
X104247681Y-77685925D01*
X104247679Y-77685926D01*
X104111332Y-77742403D01*
X103994246Y-77832246D01*
X103904403Y-77949332D01*
X103847926Y-78085679D01*
X103847925Y-78085681D01*
X103828663Y-78231998D01*
X103828663Y-78232001D01*
X65531914Y-78232001D01*
X65668956Y-78114956D01*
X65835123Y-77920399D01*
X65968809Y-77702243D01*
X66066722Y-77465860D01*
X66126452Y-77217070D01*
X66146526Y-76962000D01*
X140863474Y-76962000D01*
X140883547Y-77217064D01*
X140943279Y-77465864D01*
X141041188Y-77702239D01*
X141041190Y-77702242D01*
X141174875Y-77920396D01*
X141174878Y-77920401D01*
X141199587Y-77949331D01*
X141341044Y-78114956D01*
X141465579Y-78221319D01*
X141535598Y-78281121D01*
X141535603Y-78281124D01*
X141753757Y-78414809D01*
X141753760Y-78414811D01*
X141990135Y-78512720D01*
X141990140Y-78512722D01*
X142238930Y-78572452D01*
X142430137Y-78587500D01*
X142430145Y-78587500D01*
X142557855Y-78587500D01*
X142557863Y-78587500D01*
X142749070Y-78572452D01*
X142997860Y-78512722D01*
X143116051Y-78463765D01*
X143234239Y-78414811D01*
X143234240Y-78414810D01*
X143234243Y-78414809D01*
X143452399Y-78281123D01*
X143646956Y-78114956D01*
X143813123Y-77920399D01*
X143946809Y-77702243D01*
X144044722Y-77465860D01*
X144104452Y-77217070D01*
X144124526Y-76962000D01*
X144104452Y-76706930D01*
X144044722Y-76458140D01*
X144044720Y-76458135D01*
X143946811Y-76221760D01*
X143946809Y-76221757D01*
X143813124Y-76003603D01*
X143813121Y-76003598D01*
X143753319Y-75933579D01*
X143646956Y-75809044D01*
X143540591Y-75718200D01*
X143452401Y-75642878D01*
X143452396Y-75642875D01*
X143234242Y-75509190D01*
X143234239Y-75509188D01*
X142997864Y-75411279D01*
X142997860Y-75411278D01*
X142749070Y-75351548D01*
X142749068Y-75351547D01*
X142749065Y-75351547D01*
X142557868Y-75336500D01*
X142557863Y-75336500D01*
X142430137Y-75336500D01*
X142430131Y-75336500D01*
X142238934Y-75351547D01*
X141990135Y-75411279D01*
X141753760Y-75509188D01*
X141753757Y-75509190D01*
X141535603Y-75642875D01*
X141535598Y-75642878D01*
X141341044Y-75809044D01*
X141174878Y-76003598D01*
X141174875Y-76003603D01*
X141041190Y-76221757D01*
X141041188Y-76221760D01*
X140943279Y-76458135D01*
X140883547Y-76706935D01*
X140863474Y-76962000D01*
X66146526Y-76962000D01*
X66126452Y-76706930D01*
X66066722Y-76458140D01*
X66066720Y-76458135D01*
X65968811Y-76221760D01*
X65968809Y-76221757D01*
X65835124Y-76003603D01*
X65835121Y-76003598D01*
X65775319Y-75933579D01*
X65668956Y-75809044D01*
X65562591Y-75718200D01*
X65474401Y-75642878D01*
X65474396Y-75642875D01*
X65256242Y-75509190D01*
X65256239Y-75509188D01*
X65019864Y-75411279D01*
X65019860Y-75411278D01*
X64771070Y-75351548D01*
X64771068Y-75351547D01*
X64771065Y-75351547D01*
X64579868Y-75336500D01*
X64579863Y-75336500D01*
X64452137Y-75336500D01*
X64452131Y-75336500D01*
X64260934Y-75351547D01*
X64012135Y-75411279D01*
X63775760Y-75509188D01*
X63775757Y-75509190D01*
X63557603Y-75642875D01*
X63557598Y-75642878D01*
X63363044Y-75809044D01*
X63196878Y-76003598D01*
X63196875Y-76003603D01*
X63063190Y-76221757D01*
X63063188Y-76221760D01*
X62965279Y-76458135D01*
X62905547Y-76706935D01*
X62885474Y-76962000D01*
X55372000Y-76962000D01*
X55372000Y-72443808D01*
X145089499Y-72443808D01*
X145098812Y-72490623D01*
X145098813Y-72490624D01*
X145134286Y-72543714D01*
X145187376Y-72579187D01*
X145234191Y-72588500D01*
X145234194Y-72588500D01*
X146865808Y-72588500D01*
X146897018Y-72582291D01*
X146912624Y-72579187D01*
X146965714Y-72543714D01*
X147001187Y-72490624D01*
X147010500Y-72443806D01*
X147010500Y-72365309D01*
X147030185Y-72298270D01*
X147046819Y-72277628D01*
X147652046Y-71672400D01*
X147664835Y-71753148D01*
X147722359Y-71866045D01*
X147811955Y-71955641D01*
X147924852Y-72013165D01*
X148005599Y-72025953D01*
X147324526Y-72707025D01*
X147397513Y-72758132D01*
X147397521Y-72758136D01*
X147603668Y-72854264D01*
X147603682Y-72854269D01*
X147823389Y-72913139D01*
X147823400Y-72913141D01*
X148049998Y-72932966D01*
X148050002Y-72932966D01*
X148276599Y-72913141D01*
X148276610Y-72913139D01*
X148496317Y-72854269D01*
X148496331Y-72854264D01*
X148702478Y-72758136D01*
X148775471Y-72707024D01*
X148094400Y-72025953D01*
X148175148Y-72013165D01*
X148288045Y-71955641D01*
X148377641Y-71866045D01*
X148435165Y-71753148D01*
X148447953Y-71672400D01*
X149129024Y-72353471D01*
X149180136Y-72280478D01*
X149276264Y-72074331D01*
X149276269Y-72074317D01*
X149335139Y-71854610D01*
X149335141Y-71854599D01*
X149354966Y-71628002D01*
X149354966Y-71627997D01*
X149335141Y-71401400D01*
X149335139Y-71401389D01*
X149276269Y-71181682D01*
X149276264Y-71181668D01*
X149180136Y-70975521D01*
X149180132Y-70975513D01*
X149129025Y-70902526D01*
X148447953Y-71583598D01*
X148435165Y-71502852D01*
X148377641Y-71389955D01*
X148288045Y-71300359D01*
X148175148Y-71242835D01*
X148094401Y-71230046D01*
X148775472Y-70548974D01*
X148702478Y-70497863D01*
X148496331Y-70401735D01*
X148496317Y-70401730D01*
X148276610Y-70342860D01*
X148276599Y-70342858D01*
X148050002Y-70323034D01*
X148049998Y-70323034D01*
X147823400Y-70342858D01*
X147823389Y-70342860D01*
X147603682Y-70401730D01*
X147603673Y-70401734D01*
X147397516Y-70497866D01*
X147397512Y-70497868D01*
X147324526Y-70548973D01*
X147324526Y-70548974D01*
X148005599Y-71230046D01*
X147924852Y-71242835D01*
X147811955Y-71300359D01*
X147722359Y-71389955D01*
X147664835Y-71502852D01*
X147652046Y-71583599D01*
X147046819Y-70978372D01*
X147013334Y-70917049D01*
X147010500Y-70890691D01*
X147010500Y-70812191D01*
X147001187Y-70765376D01*
X146996094Y-70757754D01*
X146965714Y-70712286D01*
X146912624Y-70676813D01*
X146912623Y-70676812D01*
X146865808Y-70667500D01*
X146865806Y-70667500D01*
X145234194Y-70667500D01*
X145234192Y-70667500D01*
X145187376Y-70676812D01*
X145134286Y-70712286D01*
X145098812Y-70765376D01*
X145089500Y-70812191D01*
X145089500Y-70812194D01*
X145089500Y-72443806D01*
X145089500Y-72443808D01*
X145089499Y-72443808D01*
X55372000Y-72443808D01*
X55372000Y-72123808D01*
X136011499Y-72123808D01*
X136020812Y-72170623D01*
X136020813Y-72170624D01*
X136056286Y-72223714D01*
X136109376Y-72259187D01*
X136156191Y-72268500D01*
X136156194Y-72268500D01*
X139687808Y-72268500D01*
X139719018Y-72262291D01*
X139734624Y-72259187D01*
X139787714Y-72223714D01*
X139823187Y-72170624D01*
X139832500Y-72123806D01*
X139832500Y-68592194D01*
X139832500Y-68592191D01*
X139823187Y-68545376D01*
X139794269Y-68502097D01*
X139787714Y-68492286D01*
X139734624Y-68456813D01*
X139734623Y-68456812D01*
X139687808Y-68447500D01*
X139687806Y-68447500D01*
X136156194Y-68447500D01*
X136156192Y-68447500D01*
X136109376Y-68456812D01*
X136056286Y-68492286D01*
X136020812Y-68545376D01*
X136011500Y-68592191D01*
X136011500Y-68592194D01*
X136011500Y-72123806D01*
X136011500Y-72123808D01*
X136011499Y-72123808D01*
X55372000Y-72123808D01*
X55372000Y-70866001D01*
X84016663Y-70866001D01*
X84035925Y-71012318D01*
X84035926Y-71012320D01*
X84092403Y-71148668D01*
X84092404Y-71148669D01*
X84182246Y-71265754D01*
X84299331Y-71355596D01*
X84435680Y-71412074D01*
X84508840Y-71421705D01*
X84581999Y-71431337D01*
X84582000Y-71431337D01*
X84582001Y-71431337D01*
X84630773Y-71424916D01*
X84728320Y-71412074D01*
X84864669Y-71355596D01*
X84981754Y-71265754D01*
X85071596Y-71148669D01*
X85128074Y-71012320D01*
X85147337Y-70866000D01*
X85142917Y-70832429D01*
X85128074Y-70719681D01*
X85128074Y-70719680D01*
X85071596Y-70583332D01*
X85071596Y-70583331D01*
X84981756Y-70466247D01*
X84864668Y-70376403D01*
X84820241Y-70358001D01*
X94938663Y-70358001D01*
X94957925Y-70504318D01*
X94957926Y-70504320D01*
X95014403Y-70640668D01*
X95014404Y-70640669D01*
X95104246Y-70757754D01*
X95221331Y-70847596D01*
X95357680Y-70904074D01*
X95430840Y-70913705D01*
X95503999Y-70923337D01*
X95504000Y-70923337D01*
X95504001Y-70923337D01*
X95552773Y-70916916D01*
X95650320Y-70904074D01*
X95786669Y-70847596D01*
X95903754Y-70757754D01*
X95993596Y-70640669D01*
X96050074Y-70504320D01*
X96069337Y-70358000D01*
X96064324Y-70319925D01*
X96050074Y-70211681D01*
X96050074Y-70211680D01*
X95993596Y-70075332D01*
X95993596Y-70075331D01*
X95903756Y-69958247D01*
X95786668Y-69868403D01*
X95650320Y-69811926D01*
X95650318Y-69811925D01*
X95504001Y-69792663D01*
X95503999Y-69792663D01*
X95357681Y-69811925D01*
X95357679Y-69811926D01*
X95221332Y-69868403D01*
X95104246Y-69958246D01*
X95014403Y-70075332D01*
X94957926Y-70211679D01*
X94957925Y-70211681D01*
X94938663Y-70357998D01*
X94938663Y-70358001D01*
X84820241Y-70358001D01*
X84728320Y-70319926D01*
X84728318Y-70319925D01*
X84582001Y-70300663D01*
X84581999Y-70300663D01*
X84435681Y-70319925D01*
X84435679Y-70319926D01*
X84299332Y-70376403D01*
X84182246Y-70466246D01*
X84092403Y-70583332D01*
X84035926Y-70719679D01*
X84035925Y-70719681D01*
X84016663Y-70865998D01*
X84016663Y-70866001D01*
X55372000Y-70866001D01*
X55372000Y-67417933D01*
X72141668Y-67417933D01*
X72167425Y-67563999D01*
X72172135Y-67590711D01*
X72241623Y-67751804D01*
X72241624Y-67751806D01*
X72241626Y-67751809D01*
X72296278Y-67825218D01*
X72346390Y-67892530D01*
X72480786Y-68005302D01*
X72558488Y-68044325D01*
X72637562Y-68084038D01*
X72637563Y-68084038D01*
X72637567Y-68084040D01*
X72808279Y-68124500D01*
X72808282Y-68124500D01*
X72939701Y-68124500D01*
X72939709Y-68124500D01*
X73070255Y-68109241D01*
X73235117Y-68049237D01*
X73381696Y-67952830D01*
X73502092Y-67825218D01*
X73589812Y-67673281D01*
X73640130Y-67505210D01*
X73645213Y-67417933D01*
X80141668Y-67417933D01*
X80167425Y-67563999D01*
X80172135Y-67590711D01*
X80241623Y-67751804D01*
X80241624Y-67751806D01*
X80241626Y-67751809D01*
X80296278Y-67825218D01*
X80346390Y-67892530D01*
X80480786Y-68005302D01*
X80558488Y-68044325D01*
X80637562Y-68084038D01*
X80637563Y-68084038D01*
X80637567Y-68084040D01*
X80808279Y-68124500D01*
X80808282Y-68124500D01*
X80939701Y-68124500D01*
X80939709Y-68124500D01*
X81070255Y-68109241D01*
X81235117Y-68049237D01*
X81381696Y-67952830D01*
X81502092Y-67825218D01*
X81589812Y-67673281D01*
X81622529Y-67564001D01*
X100752843Y-67564001D01*
X100773430Y-67799315D01*
X100773432Y-67799326D01*
X100834566Y-68027483D01*
X100834570Y-68027492D01*
X100934400Y-68241579D01*
X100934402Y-68241583D01*
X100993072Y-68325373D01*
X100993073Y-68325373D01*
X101624923Y-67693523D01*
X101648507Y-67773844D01*
X101726239Y-67894798D01*
X101834900Y-67988952D01*
X101965685Y-68048680D01*
X101975466Y-68050086D01*
X101346625Y-68678925D01*
X101430421Y-68737599D01*
X101644507Y-68837429D01*
X101644518Y-68837434D01*
X101690391Y-68849725D01*
X101750052Y-68886089D01*
X101780582Y-68948936D01*
X101772288Y-69018311D01*
X101727803Y-69072190D01*
X101661251Y-69093465D01*
X101658300Y-69093500D01*
X101475688Y-69093500D01*
X101475688Y-69093501D01*
X101379571Y-69108723D01*
X101379570Y-69108723D01*
X101263704Y-69167760D01*
X101263700Y-69167763D01*
X101171763Y-69259700D01*
X101171760Y-69259704D01*
X101112723Y-69375571D01*
X101097500Y-69471692D01*
X101097500Y-70736311D01*
X101112723Y-70832428D01*
X101112723Y-70832429D01*
X101112724Y-70832432D01*
X101112725Y-70832433D01*
X101171744Y-70948265D01*
X101171760Y-70948295D01*
X101171763Y-70948299D01*
X101263700Y-71040236D01*
X101263704Y-71040239D01*
X101263706Y-71040241D01*
X101379567Y-71099275D01*
X101379569Y-71099275D01*
X101379571Y-71099276D01*
X101408728Y-71103893D01*
X101475693Y-71114500D01*
X102740306Y-71114499D01*
X102740311Y-71114499D01*
X102740311Y-71114498D01*
X102788369Y-71106887D01*
X102836428Y-71099276D01*
X102836429Y-71099276D01*
X102836430Y-71099275D01*
X102836433Y-71099275D01*
X102952294Y-71040241D01*
X103044241Y-70948294D01*
X103103275Y-70832433D01*
X103118500Y-70736307D01*
X103118499Y-70104000D01*
X103632611Y-70104000D01*
X103652121Y-70302095D01*
X103709903Y-70492574D01*
X103803731Y-70668114D01*
X103803735Y-70668121D01*
X103930011Y-70821988D01*
X104083878Y-70948264D01*
X104083885Y-70948268D01*
X104203718Y-71012320D01*
X104259427Y-71042097D01*
X104449907Y-71099879D01*
X104648000Y-71119389D01*
X104846093Y-71099879D01*
X105036573Y-71042097D01*
X105212120Y-70948265D01*
X105365988Y-70821988D01*
X105492265Y-70668120D01*
X105586097Y-70492573D01*
X105643879Y-70302093D01*
X105663389Y-70104000D01*
X105643879Y-69905907D01*
X105586097Y-69715427D01*
X105492265Y-69539880D01*
X105492264Y-69539878D01*
X105365988Y-69386011D01*
X105212121Y-69259735D01*
X105212114Y-69259731D01*
X105036574Y-69165903D01*
X104846095Y-69108121D01*
X104648000Y-69088611D01*
X104449904Y-69108121D01*
X104259425Y-69165903D01*
X104083885Y-69259731D01*
X104083878Y-69259735D01*
X103930011Y-69386011D01*
X103803735Y-69539878D01*
X103803731Y-69539885D01*
X103709903Y-69715425D01*
X103652121Y-69905904D01*
X103632611Y-70104000D01*
X103118499Y-70104000D01*
X103118499Y-69471694D01*
X103118499Y-69471692D01*
X103118499Y-69471688D01*
X103103276Y-69375571D01*
X103103276Y-69375570D01*
X103103275Y-69375568D01*
X103103275Y-69375567D01*
X103044241Y-69259706D01*
X103044239Y-69259704D01*
X103044236Y-69259700D01*
X102952299Y-69167763D01*
X102952295Y-69167760D01*
X102952294Y-69167759D01*
X102836433Y-69108725D01*
X102836431Y-69108724D01*
X102836428Y-69108723D01*
X102740307Y-69093500D01*
X102557702Y-69093500D01*
X102490663Y-69073815D01*
X102444908Y-69021011D01*
X102434964Y-68951853D01*
X102463989Y-68888297D01*
X102522767Y-68850523D01*
X102525609Y-68849725D01*
X102571483Y-68837433D01*
X102571492Y-68837429D01*
X102785578Y-68737600D01*
X102785582Y-68737598D01*
X102869373Y-68678926D01*
X102869373Y-68678925D01*
X102240533Y-68050086D01*
X102250315Y-68048680D01*
X102381100Y-67988952D01*
X102489761Y-67894798D01*
X102567493Y-67773844D01*
X102591076Y-67693523D01*
X103222926Y-68325373D01*
X103281598Y-68241582D01*
X103281600Y-68241578D01*
X103381429Y-68027492D01*
X103381433Y-68027483D01*
X103433763Y-67832183D01*
X103470128Y-67772522D01*
X103532975Y-67741993D01*
X103602350Y-67750287D01*
X103656228Y-67794773D01*
X103672198Y-67828280D01*
X103709903Y-67952574D01*
X103803731Y-68128114D01*
X103803735Y-68128121D01*
X103930011Y-68281988D01*
X104083878Y-68408264D01*
X104083885Y-68408268D01*
X104241072Y-68492286D01*
X104259427Y-68502097D01*
X104449907Y-68559879D01*
X104648000Y-68579389D01*
X104846093Y-68559879D01*
X105036573Y-68502097D01*
X105212120Y-68408265D01*
X105365988Y-68281988D01*
X105492265Y-68128120D01*
X105586097Y-67952573D01*
X105623801Y-67828278D01*
X105662098Y-67769842D01*
X105725910Y-67741386D01*
X105794977Y-67751946D01*
X105847371Y-67798170D01*
X105862236Y-67832182D01*
X105914567Y-68027486D01*
X105914570Y-68027492D01*
X106014400Y-68241579D01*
X106014402Y-68241583D01*
X106073072Y-68325373D01*
X106073073Y-68325373D01*
X106704923Y-67693523D01*
X106728507Y-67773844D01*
X106806239Y-67894798D01*
X106914900Y-67988952D01*
X107045685Y-68048680D01*
X107055466Y-68050086D01*
X106426625Y-68678925D01*
X106510421Y-68737599D01*
X106724507Y-68837429D01*
X106724516Y-68837433D01*
X106919816Y-68889763D01*
X106979477Y-68926128D01*
X107010006Y-68988975D01*
X107001711Y-69058350D01*
X106957226Y-69112228D01*
X106923719Y-69128198D01*
X106799425Y-69165903D01*
X106623885Y-69259731D01*
X106623878Y-69259735D01*
X106470011Y-69386011D01*
X106343735Y-69539878D01*
X106343731Y-69539885D01*
X106249903Y-69715425D01*
X106192121Y-69905904D01*
X106172611Y-70104000D01*
X106192121Y-70302095D01*
X106249903Y-70492574D01*
X106343731Y-70668114D01*
X106343735Y-70668121D01*
X106470011Y-70821988D01*
X106623878Y-70948264D01*
X106623885Y-70948268D01*
X106743718Y-71012320D01*
X106799427Y-71042097D01*
X106989907Y-71099879D01*
X107188000Y-71119389D01*
X107386093Y-71099879D01*
X107576573Y-71042097D01*
X107752120Y-70948265D01*
X107905988Y-70821988D01*
X108032265Y-70668120D01*
X108126097Y-70492573D01*
X108183879Y-70302093D01*
X108203389Y-70104000D01*
X108712611Y-70104000D01*
X108732121Y-70302095D01*
X108789903Y-70492574D01*
X108883731Y-70668114D01*
X108883735Y-70668121D01*
X109010011Y-70821988D01*
X109163878Y-70948264D01*
X109163885Y-70948268D01*
X109283718Y-71012320D01*
X109339427Y-71042097D01*
X109529907Y-71099879D01*
X109728000Y-71119389D01*
X109926093Y-71099879D01*
X110116573Y-71042097D01*
X110292120Y-70948265D01*
X110445988Y-70821988D01*
X110572265Y-70668120D01*
X110666097Y-70492573D01*
X110723879Y-70302093D01*
X110743389Y-70104000D01*
X110723879Y-69905907D01*
X110666097Y-69715427D01*
X110572265Y-69539880D01*
X110572264Y-69539878D01*
X110445988Y-69386011D01*
X110292121Y-69259735D01*
X110292114Y-69259731D01*
X110116574Y-69165903D01*
X109926095Y-69108121D01*
X109728000Y-69088611D01*
X109529904Y-69108121D01*
X109339425Y-69165903D01*
X109163885Y-69259731D01*
X109163878Y-69259735D01*
X109010011Y-69386011D01*
X108883735Y-69539878D01*
X108883731Y-69539885D01*
X108789903Y-69715425D01*
X108732121Y-69905904D01*
X108712611Y-70104000D01*
X108203389Y-70104000D01*
X108183879Y-69905907D01*
X108126097Y-69715427D01*
X108032265Y-69539880D01*
X108032264Y-69539878D01*
X107905988Y-69386011D01*
X107752121Y-69259735D01*
X107752114Y-69259731D01*
X107576574Y-69165903D01*
X107452280Y-69128198D01*
X107393842Y-69089901D01*
X107365385Y-69026088D01*
X107375946Y-68957021D01*
X107422171Y-68904628D01*
X107456183Y-68889763D01*
X107651483Y-68837433D01*
X107651492Y-68837429D01*
X107865578Y-68737600D01*
X107865582Y-68737598D01*
X107949373Y-68678926D01*
X107949373Y-68678925D01*
X107320533Y-68050086D01*
X107330315Y-68048680D01*
X107461100Y-67988952D01*
X107569761Y-67894798D01*
X107647493Y-67773844D01*
X107671076Y-67693524D01*
X108302925Y-68325373D01*
X108302926Y-68325373D01*
X108361598Y-68241582D01*
X108361600Y-68241578D01*
X108461429Y-68027492D01*
X108461433Y-68027483D01*
X108513763Y-67832183D01*
X108550128Y-67772522D01*
X108612975Y-67741993D01*
X108682350Y-67750287D01*
X108736228Y-67794773D01*
X108752198Y-67828280D01*
X108789903Y-67952574D01*
X108883731Y-68128114D01*
X108883735Y-68128121D01*
X109010011Y-68281988D01*
X109163878Y-68408264D01*
X109163885Y-68408268D01*
X109321072Y-68492286D01*
X109339427Y-68502097D01*
X109529907Y-68559879D01*
X109728000Y-68579389D01*
X109926093Y-68559879D01*
X110116573Y-68502097D01*
X110292120Y-68408265D01*
X110445988Y-68281988D01*
X110572265Y-68128120D01*
X110666097Y-67952573D01*
X110703801Y-67828278D01*
X110742098Y-67769842D01*
X110805910Y-67741386D01*
X110874977Y-67751946D01*
X110927371Y-67798170D01*
X110942236Y-67832182D01*
X110994567Y-68027486D01*
X110994570Y-68027492D01*
X111094400Y-68241579D01*
X111094402Y-68241583D01*
X111153072Y-68325373D01*
X111153073Y-68325373D01*
X111784923Y-67693523D01*
X111808507Y-67773844D01*
X111886239Y-67894798D01*
X111994900Y-67988952D01*
X112125685Y-68048680D01*
X112135466Y-68050086D01*
X111506625Y-68678925D01*
X111590421Y-68737599D01*
X111804507Y-68837429D01*
X111804516Y-68837433D01*
X111999816Y-68889763D01*
X112059477Y-68926128D01*
X112090006Y-68988975D01*
X112081711Y-69058350D01*
X112037226Y-69112228D01*
X112003719Y-69128198D01*
X111879425Y-69165903D01*
X111703885Y-69259731D01*
X111703878Y-69259735D01*
X111550011Y-69386011D01*
X111423735Y-69539878D01*
X111423731Y-69539885D01*
X111329903Y-69715425D01*
X111272121Y-69905904D01*
X111252611Y-70104000D01*
X111272121Y-70302095D01*
X111329903Y-70492574D01*
X111423731Y-70668114D01*
X111423735Y-70668121D01*
X111550011Y-70821988D01*
X111703878Y-70948264D01*
X111703885Y-70948268D01*
X111823718Y-71012320D01*
X111879427Y-71042097D01*
X112069907Y-71099879D01*
X112268000Y-71119389D01*
X112466093Y-71099879D01*
X112656573Y-71042097D01*
X112832120Y-70948265D01*
X112985988Y-70821988D01*
X113112265Y-70668120D01*
X113206097Y-70492573D01*
X113263879Y-70302093D01*
X113283389Y-70104000D01*
X113792611Y-70104000D01*
X113812121Y-70302095D01*
X113869903Y-70492574D01*
X113963731Y-70668114D01*
X113963735Y-70668121D01*
X114090011Y-70821988D01*
X114243878Y-70948264D01*
X114243885Y-70948268D01*
X114363718Y-71012320D01*
X114419427Y-71042097D01*
X114609907Y-71099879D01*
X114808000Y-71119389D01*
X115006093Y-71099879D01*
X115196573Y-71042097D01*
X115372120Y-70948265D01*
X115525988Y-70821988D01*
X115652265Y-70668120D01*
X115746097Y-70492573D01*
X115803879Y-70302093D01*
X115823389Y-70104000D01*
X115803879Y-69905907D01*
X115746097Y-69715427D01*
X115652265Y-69539880D01*
X115652264Y-69539878D01*
X115525988Y-69386011D01*
X115372121Y-69259735D01*
X115372114Y-69259731D01*
X115196574Y-69165903D01*
X115006095Y-69108121D01*
X114808000Y-69088611D01*
X114609904Y-69108121D01*
X114419425Y-69165903D01*
X114243885Y-69259731D01*
X114243878Y-69259735D01*
X114090011Y-69386011D01*
X113963735Y-69539878D01*
X113963731Y-69539885D01*
X113869903Y-69715425D01*
X113812121Y-69905904D01*
X113792611Y-70104000D01*
X113283389Y-70104000D01*
X113263879Y-69905907D01*
X113206097Y-69715427D01*
X113112265Y-69539880D01*
X113112264Y-69539878D01*
X112985988Y-69386011D01*
X112832121Y-69259735D01*
X112832114Y-69259731D01*
X112656574Y-69165903D01*
X112532280Y-69128198D01*
X112473842Y-69089901D01*
X112445385Y-69026088D01*
X112455946Y-68957021D01*
X112502171Y-68904628D01*
X112536183Y-68889763D01*
X112731483Y-68837433D01*
X112731492Y-68837429D01*
X112945578Y-68737600D01*
X112945582Y-68737598D01*
X113029373Y-68678926D01*
X113029373Y-68678925D01*
X112400533Y-68050086D01*
X112410315Y-68048680D01*
X112541100Y-67988952D01*
X112649761Y-67894798D01*
X112727493Y-67773844D01*
X112751076Y-67693524D01*
X113382925Y-68325373D01*
X113382926Y-68325373D01*
X113441598Y-68241582D01*
X113441600Y-68241578D01*
X113541429Y-68027492D01*
X113541433Y-68027483D01*
X113593763Y-67832183D01*
X113630128Y-67772522D01*
X113692975Y-67741993D01*
X113762350Y-67750287D01*
X113816228Y-67794773D01*
X113832198Y-67828280D01*
X113869903Y-67952574D01*
X113963731Y-68128114D01*
X113963735Y-68128121D01*
X114090011Y-68281988D01*
X114243878Y-68408264D01*
X114243885Y-68408268D01*
X114401072Y-68492286D01*
X114419427Y-68502097D01*
X114609907Y-68559879D01*
X114808000Y-68579389D01*
X115006093Y-68559879D01*
X115196573Y-68502097D01*
X115372120Y-68408265D01*
X115525988Y-68281988D01*
X115652265Y-68128120D01*
X115746097Y-67952573D01*
X115783801Y-67828278D01*
X115822098Y-67769842D01*
X115885910Y-67741386D01*
X115954977Y-67751946D01*
X116007371Y-67798170D01*
X116022236Y-67832182D01*
X116074567Y-68027486D01*
X116074570Y-68027492D01*
X116174400Y-68241579D01*
X116174402Y-68241583D01*
X116233072Y-68325373D01*
X116233073Y-68325373D01*
X116864923Y-67693523D01*
X116888507Y-67773844D01*
X116966239Y-67894798D01*
X117074900Y-67988952D01*
X117205685Y-68048680D01*
X117215466Y-68050086D01*
X116586625Y-68678925D01*
X116670421Y-68737599D01*
X116884507Y-68837429D01*
X116884516Y-68837433D01*
X117079816Y-68889763D01*
X117139477Y-68926128D01*
X117170006Y-68988975D01*
X117161711Y-69058350D01*
X117117226Y-69112228D01*
X117083719Y-69128198D01*
X116959425Y-69165903D01*
X116783885Y-69259731D01*
X116783878Y-69259735D01*
X116630011Y-69386011D01*
X116503735Y-69539878D01*
X116503731Y-69539885D01*
X116409903Y-69715425D01*
X116352121Y-69905904D01*
X116332611Y-70104000D01*
X116352121Y-70302095D01*
X116409903Y-70492574D01*
X116503731Y-70668114D01*
X116503735Y-70668121D01*
X116630011Y-70821988D01*
X116783878Y-70948264D01*
X116783885Y-70948268D01*
X116903718Y-71012320D01*
X116959427Y-71042097D01*
X117149907Y-71099879D01*
X117348000Y-71119389D01*
X117546093Y-71099879D01*
X117736573Y-71042097D01*
X117912120Y-70948265D01*
X118065988Y-70821988D01*
X118192265Y-70668120D01*
X118286097Y-70492573D01*
X118343879Y-70302093D01*
X118363389Y-70104000D01*
X118872611Y-70104000D01*
X118892121Y-70302095D01*
X118949903Y-70492574D01*
X119043731Y-70668114D01*
X119043735Y-70668121D01*
X119170011Y-70821988D01*
X119323878Y-70948264D01*
X119323885Y-70948268D01*
X119443718Y-71012320D01*
X119499427Y-71042097D01*
X119689907Y-71099879D01*
X119888000Y-71119389D01*
X120086093Y-71099879D01*
X120276573Y-71042097D01*
X120452120Y-70948265D01*
X120605988Y-70821988D01*
X120732265Y-70668120D01*
X120826097Y-70492573D01*
X120883879Y-70302093D01*
X120903389Y-70104000D01*
X121412611Y-70104000D01*
X121432121Y-70302095D01*
X121489903Y-70492574D01*
X121583731Y-70668114D01*
X121583735Y-70668121D01*
X121710011Y-70821988D01*
X121863878Y-70948264D01*
X121863885Y-70948268D01*
X121983718Y-71012320D01*
X122039427Y-71042097D01*
X122229907Y-71099879D01*
X122428000Y-71119389D01*
X122626093Y-71099879D01*
X122816573Y-71042097D01*
X122992120Y-70948265D01*
X123145988Y-70821988D01*
X123272265Y-70668120D01*
X123366097Y-70492573D01*
X123423879Y-70302093D01*
X123443389Y-70104000D01*
X123952611Y-70104000D01*
X123972121Y-70302095D01*
X124029903Y-70492574D01*
X124123731Y-70668114D01*
X124123735Y-70668121D01*
X124250011Y-70821988D01*
X124403878Y-70948264D01*
X124403885Y-70948268D01*
X124523718Y-71012320D01*
X124579427Y-71042097D01*
X124769907Y-71099879D01*
X124968000Y-71119389D01*
X125166093Y-71099879D01*
X125356573Y-71042097D01*
X125532120Y-70948265D01*
X125685988Y-70821988D01*
X125812265Y-70668120D01*
X125906097Y-70492573D01*
X125963879Y-70302093D01*
X125983389Y-70104000D01*
X125963879Y-69905907D01*
X125906097Y-69715427D01*
X125812265Y-69539880D01*
X125812264Y-69539878D01*
X125685988Y-69386011D01*
X125532121Y-69259735D01*
X125532114Y-69259731D01*
X125356574Y-69165903D01*
X125166095Y-69108121D01*
X124968000Y-69088611D01*
X124769904Y-69108121D01*
X124579425Y-69165903D01*
X124403885Y-69259731D01*
X124403878Y-69259735D01*
X124250011Y-69386011D01*
X124123735Y-69539878D01*
X124123731Y-69539885D01*
X124029903Y-69715425D01*
X123972121Y-69905904D01*
X123952611Y-70104000D01*
X123443389Y-70104000D01*
X123423879Y-69905907D01*
X123366097Y-69715427D01*
X123272265Y-69539880D01*
X123272264Y-69539878D01*
X123145988Y-69386011D01*
X122992121Y-69259735D01*
X122992114Y-69259731D01*
X122816574Y-69165903D01*
X122626095Y-69108121D01*
X122428000Y-69088611D01*
X122229904Y-69108121D01*
X122039425Y-69165903D01*
X121863885Y-69259731D01*
X121863878Y-69259735D01*
X121710011Y-69386011D01*
X121583735Y-69539878D01*
X121583731Y-69539885D01*
X121489903Y-69715425D01*
X121432121Y-69905904D01*
X121412611Y-70104000D01*
X120903389Y-70104000D01*
X120883879Y-69905907D01*
X120826097Y-69715427D01*
X120732265Y-69539880D01*
X120732264Y-69539878D01*
X120605988Y-69386011D01*
X120452121Y-69259735D01*
X120452114Y-69259731D01*
X120276574Y-69165903D01*
X120086095Y-69108121D01*
X119888000Y-69088611D01*
X119689904Y-69108121D01*
X119499425Y-69165903D01*
X119323885Y-69259731D01*
X119323878Y-69259735D01*
X119170011Y-69386011D01*
X119043735Y-69539878D01*
X119043731Y-69539885D01*
X118949903Y-69715425D01*
X118892121Y-69905904D01*
X118872611Y-70104000D01*
X118363389Y-70104000D01*
X118343879Y-69905907D01*
X118286097Y-69715427D01*
X118192265Y-69539880D01*
X118192264Y-69539878D01*
X118065988Y-69386011D01*
X117912121Y-69259735D01*
X117912114Y-69259731D01*
X117736574Y-69165903D01*
X117612280Y-69128198D01*
X117553842Y-69089901D01*
X117525385Y-69026088D01*
X117535946Y-68957021D01*
X117582171Y-68904628D01*
X117616183Y-68889763D01*
X117811483Y-68837433D01*
X117811492Y-68837429D01*
X118025578Y-68737600D01*
X118025582Y-68737598D01*
X118109373Y-68678926D01*
X118109373Y-68678925D01*
X117480533Y-68050086D01*
X117490315Y-68048680D01*
X117621100Y-67988952D01*
X117729761Y-67894798D01*
X117807493Y-67773844D01*
X117831076Y-67693524D01*
X118462925Y-68325373D01*
X118462926Y-68325373D01*
X118521598Y-68241582D01*
X118521600Y-68241578D01*
X118621429Y-68027492D01*
X118621433Y-68027483D01*
X118673763Y-67832183D01*
X118710128Y-67772522D01*
X118772975Y-67741993D01*
X118842350Y-67750287D01*
X118896228Y-67794773D01*
X118912198Y-67828280D01*
X118949903Y-67952574D01*
X119043731Y-68128114D01*
X119043735Y-68128121D01*
X119170011Y-68281988D01*
X119323878Y-68408264D01*
X119323885Y-68408268D01*
X119481072Y-68492286D01*
X119499427Y-68502097D01*
X119689907Y-68559879D01*
X119888000Y-68579389D01*
X120086093Y-68559879D01*
X120276573Y-68502097D01*
X120452120Y-68408265D01*
X120605988Y-68281988D01*
X120732265Y-68128120D01*
X120826097Y-67952573D01*
X120883879Y-67762093D01*
X120903389Y-67564000D01*
X121412611Y-67564000D01*
X121432121Y-67762095D01*
X121489903Y-67952574D01*
X121583731Y-68128114D01*
X121583735Y-68128121D01*
X121710011Y-68281988D01*
X121863878Y-68408264D01*
X121863885Y-68408268D01*
X122021072Y-68492286D01*
X122039427Y-68502097D01*
X122229907Y-68559879D01*
X122428000Y-68579389D01*
X122626093Y-68559879D01*
X122816573Y-68502097D01*
X122992120Y-68408265D01*
X123145988Y-68281988D01*
X123272265Y-68128120D01*
X123366097Y-67952573D01*
X123423879Y-67762093D01*
X123443389Y-67564000D01*
X123952611Y-67564000D01*
X123972121Y-67762095D01*
X124029903Y-67952574D01*
X124123731Y-68128114D01*
X124123735Y-68128121D01*
X124250011Y-68281988D01*
X124403878Y-68408264D01*
X124403885Y-68408268D01*
X124561072Y-68492286D01*
X124579427Y-68502097D01*
X124769907Y-68559879D01*
X124968000Y-68579389D01*
X125166093Y-68559879D01*
X125356573Y-68502097D01*
X125532120Y-68408265D01*
X125683702Y-68283864D01*
X131311500Y-68283864D01*
X131326482Y-68435991D01*
X131385695Y-68631190D01*
X131481844Y-68811070D01*
X131481846Y-68811072D01*
X131481848Y-68811076D01*
X131514221Y-68850523D01*
X131611247Y-68968752D01*
X131671636Y-69018311D01*
X131768924Y-69098152D01*
X131768927Y-69098154D01*
X131768929Y-69098155D01*
X131948809Y-69194304D01*
X131948811Y-69194304D01*
X131948814Y-69194306D01*
X132144007Y-69253517D01*
X132296132Y-69268500D01*
X132296135Y-69268500D01*
X134147865Y-69268500D01*
X134147868Y-69268500D01*
X134299993Y-69253517D01*
X134495186Y-69194306D01*
X134675076Y-69098152D01*
X134832752Y-68968752D01*
X134962152Y-68811076D01*
X135058306Y-68631186D01*
X135117517Y-68435993D01*
X135132500Y-68283868D01*
X135132500Y-66432132D01*
X135117517Y-66280007D01*
X135058306Y-66084814D01*
X135058304Y-66084811D01*
X135058304Y-66084809D01*
X134962155Y-65904929D01*
X134962154Y-65904927D01*
X134962152Y-65904924D01*
X134887947Y-65814504D01*
X134832752Y-65747247D01*
X134750797Y-65679990D01*
X134675076Y-65617848D01*
X134675072Y-65617846D01*
X134675070Y-65617844D01*
X134495190Y-65521695D01*
X134299991Y-65462482D01*
X134188784Y-65451529D01*
X134147868Y-65447500D01*
X132296132Y-65447500D01*
X132258582Y-65451198D01*
X132144008Y-65462482D01*
X131948809Y-65521695D01*
X131768929Y-65617844D01*
X131611247Y-65747247D01*
X131481844Y-65904929D01*
X131385695Y-66084809D01*
X131326482Y-66280008D01*
X131311500Y-66432135D01*
X131311500Y-68283864D01*
X125683702Y-68283864D01*
X125685988Y-68281988D01*
X125812265Y-68128120D01*
X125906097Y-67952573D01*
X125963879Y-67762093D01*
X125983389Y-67564000D01*
X125963879Y-67365907D01*
X125906097Y-67175427D01*
X125866055Y-67100513D01*
X125812268Y-66999885D01*
X125812264Y-66999878D01*
X125685988Y-66846011D01*
X125532121Y-66719735D01*
X125532114Y-66719731D01*
X125356574Y-66625903D01*
X125166095Y-66568121D01*
X124968000Y-66548611D01*
X124769904Y-66568121D01*
X124579425Y-66625903D01*
X124403885Y-66719731D01*
X124403878Y-66719735D01*
X124250011Y-66846011D01*
X124123735Y-66999878D01*
X124123731Y-66999885D01*
X124029903Y-67175425D01*
X123972121Y-67365904D01*
X123952611Y-67564000D01*
X123443389Y-67564000D01*
X123423879Y-67365907D01*
X123366097Y-67175427D01*
X123326055Y-67100513D01*
X123272268Y-66999885D01*
X123272264Y-66999878D01*
X123145988Y-66846011D01*
X122992121Y-66719735D01*
X122992114Y-66719731D01*
X122816574Y-66625903D01*
X122626095Y-66568121D01*
X122428000Y-66548611D01*
X122229904Y-66568121D01*
X122039425Y-66625903D01*
X121863885Y-66719731D01*
X121863878Y-66719735D01*
X121710011Y-66846011D01*
X121583735Y-66999878D01*
X121583731Y-66999885D01*
X121489903Y-67175425D01*
X121432121Y-67365904D01*
X121412611Y-67564000D01*
X120903389Y-67564000D01*
X120883879Y-67365907D01*
X120826097Y-67175427D01*
X120786055Y-67100513D01*
X120732268Y-66999885D01*
X120732264Y-66999878D01*
X120605988Y-66846011D01*
X120452121Y-66719735D01*
X120452114Y-66719731D01*
X120276574Y-66625903D01*
X120086095Y-66568121D01*
X119888000Y-66548611D01*
X119689904Y-66568121D01*
X119499425Y-66625903D01*
X119323885Y-66719731D01*
X119323878Y-66719735D01*
X119170011Y-66846011D01*
X119043735Y-66999878D01*
X119043731Y-66999885D01*
X118949903Y-67175425D01*
X118912198Y-67299719D01*
X118873900Y-67358158D01*
X118810088Y-67386614D01*
X118741021Y-67376053D01*
X118688628Y-67329828D01*
X118673763Y-67295816D01*
X118621433Y-67100516D01*
X118621429Y-67100507D01*
X118521600Y-66886423D01*
X118521599Y-66886421D01*
X118462925Y-66802626D01*
X118462925Y-66802625D01*
X117831076Y-67434475D01*
X117807493Y-67354156D01*
X117729761Y-67233202D01*
X117621100Y-67139048D01*
X117490315Y-67079320D01*
X117480533Y-67077913D01*
X118109373Y-66449073D01*
X118109373Y-66449072D01*
X118025583Y-66390402D01*
X118025579Y-66390400D01*
X117811492Y-66290570D01*
X117811483Y-66290566D01*
X117583326Y-66229432D01*
X117583315Y-66229430D01*
X117348002Y-66208843D01*
X117347998Y-66208843D01*
X117112684Y-66229430D01*
X117112673Y-66229432D01*
X116884516Y-66290566D01*
X116884507Y-66290570D01*
X116670419Y-66390401D01*
X116586625Y-66449072D01*
X117215466Y-67077913D01*
X117205685Y-67079320D01*
X117074900Y-67139048D01*
X116966239Y-67233202D01*
X116888507Y-67354156D01*
X116864923Y-67434476D01*
X116233072Y-66802625D01*
X116174401Y-66886419D01*
X116074570Y-67100507D01*
X116074567Y-67100513D01*
X116022236Y-67295817D01*
X115985871Y-67355477D01*
X115923024Y-67386006D01*
X115853648Y-67377711D01*
X115799770Y-67333226D01*
X115783801Y-67299721D01*
X115746097Y-67175427D01*
X115746095Y-67175424D01*
X115746095Y-67175422D01*
X115652268Y-66999885D01*
X115652264Y-66999878D01*
X115525988Y-66846011D01*
X115372121Y-66719735D01*
X115372114Y-66719731D01*
X115196574Y-66625903D01*
X115006095Y-66568121D01*
X114808000Y-66548611D01*
X114609904Y-66568121D01*
X114419425Y-66625903D01*
X114243885Y-66719731D01*
X114243878Y-66719735D01*
X114090011Y-66846011D01*
X113963735Y-66999878D01*
X113963731Y-66999885D01*
X113869903Y-67175425D01*
X113832198Y-67299719D01*
X113793900Y-67358158D01*
X113730088Y-67386614D01*
X113661021Y-67376053D01*
X113608628Y-67329828D01*
X113593763Y-67295816D01*
X113541433Y-67100516D01*
X113541429Y-67100507D01*
X113441600Y-66886423D01*
X113441599Y-66886421D01*
X113382925Y-66802626D01*
X113382925Y-66802625D01*
X112751076Y-67434475D01*
X112727493Y-67354156D01*
X112649761Y-67233202D01*
X112541100Y-67139048D01*
X112410315Y-67079320D01*
X112400533Y-67077913D01*
X113029373Y-66449073D01*
X113029373Y-66449072D01*
X112945583Y-66390402D01*
X112945579Y-66390400D01*
X112731492Y-66290570D01*
X112731483Y-66290566D01*
X112503326Y-66229432D01*
X112503315Y-66229430D01*
X112268002Y-66208843D01*
X112267998Y-66208843D01*
X112032684Y-66229430D01*
X112032673Y-66229432D01*
X111804516Y-66290566D01*
X111804507Y-66290570D01*
X111590419Y-66390401D01*
X111506625Y-66449072D01*
X112135466Y-67077913D01*
X112125685Y-67079320D01*
X111994900Y-67139048D01*
X111886239Y-67233202D01*
X111808507Y-67354156D01*
X111784923Y-67434476D01*
X111153072Y-66802625D01*
X111094401Y-66886419D01*
X110994570Y-67100507D01*
X110994567Y-67100513D01*
X110942236Y-67295817D01*
X110905871Y-67355477D01*
X110843024Y-67386006D01*
X110773648Y-67377711D01*
X110719770Y-67333226D01*
X110703801Y-67299721D01*
X110666097Y-67175427D01*
X110666095Y-67175424D01*
X110666095Y-67175422D01*
X110572268Y-66999885D01*
X110572264Y-66999878D01*
X110445988Y-66846011D01*
X110292121Y-66719735D01*
X110292114Y-66719731D01*
X110116574Y-66625903D01*
X109926095Y-66568121D01*
X109728000Y-66548611D01*
X109529904Y-66568121D01*
X109339425Y-66625903D01*
X109163885Y-66719731D01*
X109163878Y-66719735D01*
X109010011Y-66846011D01*
X108883735Y-66999878D01*
X108883731Y-66999885D01*
X108789903Y-67175425D01*
X108752198Y-67299719D01*
X108713900Y-67358158D01*
X108650088Y-67386614D01*
X108581021Y-67376053D01*
X108528628Y-67329828D01*
X108513763Y-67295816D01*
X108461433Y-67100516D01*
X108461429Y-67100507D01*
X108361600Y-66886423D01*
X108361599Y-66886421D01*
X108302925Y-66802626D01*
X108302925Y-66802625D01*
X107671076Y-67434475D01*
X107647493Y-67354156D01*
X107569761Y-67233202D01*
X107461100Y-67139048D01*
X107330315Y-67079320D01*
X107320533Y-67077913D01*
X107949373Y-66449073D01*
X107949373Y-66449072D01*
X107865583Y-66390402D01*
X107865579Y-66390400D01*
X107651492Y-66290570D01*
X107651483Y-66290566D01*
X107423326Y-66229432D01*
X107423315Y-66229430D01*
X107188002Y-66208843D01*
X107187998Y-66208843D01*
X106952684Y-66229430D01*
X106952673Y-66229432D01*
X106724516Y-66290566D01*
X106724507Y-66290570D01*
X106510419Y-66390401D01*
X106426625Y-66449072D01*
X107055466Y-67077913D01*
X107045685Y-67079320D01*
X106914900Y-67139048D01*
X106806239Y-67233202D01*
X106728507Y-67354156D01*
X106704923Y-67434476D01*
X106073072Y-66802625D01*
X106014401Y-66886419D01*
X105914570Y-67100507D01*
X105914567Y-67100513D01*
X105862236Y-67295817D01*
X105825871Y-67355477D01*
X105763024Y-67386006D01*
X105693648Y-67377711D01*
X105639770Y-67333226D01*
X105623801Y-67299721D01*
X105586097Y-67175427D01*
X105586095Y-67175424D01*
X105586095Y-67175422D01*
X105492268Y-66999885D01*
X105492264Y-66999878D01*
X105365988Y-66846011D01*
X105212121Y-66719735D01*
X105212114Y-66719731D01*
X105036574Y-66625903D01*
X104846095Y-66568121D01*
X104648000Y-66548611D01*
X104449904Y-66568121D01*
X104259425Y-66625903D01*
X104083885Y-66719731D01*
X104083878Y-66719735D01*
X103930011Y-66846011D01*
X103803735Y-66999878D01*
X103803731Y-66999885D01*
X103709903Y-67175425D01*
X103672198Y-67299719D01*
X103633900Y-67358158D01*
X103570088Y-67386614D01*
X103501021Y-67376053D01*
X103448628Y-67329828D01*
X103433763Y-67295816D01*
X103381433Y-67100516D01*
X103381429Y-67100507D01*
X103281600Y-66886423D01*
X103281599Y-66886421D01*
X103222925Y-66802626D01*
X103222925Y-66802625D01*
X102591076Y-67434475D01*
X102567493Y-67354156D01*
X102489761Y-67233202D01*
X102381100Y-67139048D01*
X102250315Y-67079320D01*
X102240533Y-67077913D01*
X102869373Y-66449073D01*
X102869373Y-66449072D01*
X102785583Y-66390402D01*
X102785579Y-66390400D01*
X102571492Y-66290570D01*
X102571483Y-66290566D01*
X102343326Y-66229432D01*
X102343315Y-66229430D01*
X102108002Y-66208843D01*
X102107998Y-66208843D01*
X101872684Y-66229430D01*
X101872673Y-66229432D01*
X101644516Y-66290566D01*
X101644507Y-66290570D01*
X101430419Y-66390401D01*
X101346625Y-66449072D01*
X101975466Y-67077913D01*
X101965685Y-67079320D01*
X101834900Y-67139048D01*
X101726239Y-67233202D01*
X101648507Y-67354156D01*
X101624923Y-67434476D01*
X100993072Y-66802625D01*
X100934401Y-66886419D01*
X100834570Y-67100507D01*
X100834566Y-67100516D01*
X100773432Y-67328673D01*
X100773430Y-67328684D01*
X100752843Y-67563998D01*
X100752843Y-67564001D01*
X81622529Y-67564001D01*
X81640130Y-67505210D01*
X81650331Y-67330065D01*
X81619865Y-67157289D01*
X81550377Y-66996196D01*
X81445610Y-66855470D01*
X81434338Y-66846012D01*
X81311214Y-66742698D01*
X81311212Y-66742697D01*
X81154437Y-66663961D01*
X81154433Y-66663960D01*
X80983721Y-66623500D01*
X80852291Y-66623500D01*
X80747854Y-66635707D01*
X80721743Y-66638759D01*
X80721740Y-66638760D01*
X80556884Y-66698762D01*
X80556880Y-66698764D01*
X80410306Y-66795167D01*
X80410305Y-66795168D01*
X80289910Y-66922778D01*
X80202188Y-67074718D01*
X80151870Y-67242789D01*
X80151869Y-67242794D01*
X80141668Y-67417933D01*
X73645213Y-67417933D01*
X73650331Y-67330065D01*
X73619865Y-67157289D01*
X73550377Y-66996196D01*
X73445610Y-66855470D01*
X73434338Y-66846012D01*
X73311214Y-66742698D01*
X73311212Y-66742697D01*
X73154437Y-66663961D01*
X73154433Y-66663960D01*
X72983721Y-66623500D01*
X72852291Y-66623500D01*
X72747854Y-66635707D01*
X72721743Y-66638759D01*
X72721740Y-66638760D01*
X72556884Y-66698762D01*
X72556880Y-66698764D01*
X72410306Y-66795167D01*
X72410305Y-66795168D01*
X72289910Y-66922778D01*
X72202188Y-67074718D01*
X72151870Y-67242789D01*
X72151869Y-67242794D01*
X72141668Y-67417933D01*
X55372000Y-67417933D01*
X55372000Y-64108000D01*
X135672000Y-64108000D01*
X136488314Y-64108000D01*
X136462507Y-64148156D01*
X136422000Y-64286111D01*
X136422000Y-64429889D01*
X136462507Y-64567844D01*
X136488314Y-64608000D01*
X135672001Y-64608000D01*
X135672001Y-65172197D01*
X135682400Y-65304332D01*
X135737377Y-65522519D01*
X135830428Y-65727374D01*
X135830431Y-65727380D01*
X135958559Y-65912323D01*
X135958569Y-65912335D01*
X136117664Y-66071430D01*
X136117676Y-66071440D01*
X136302619Y-66199568D01*
X136302625Y-66199571D01*
X136507480Y-66292622D01*
X136725667Y-66347599D01*
X136857810Y-66357999D01*
X137671999Y-66357999D01*
X137672000Y-66357998D01*
X137672000Y-64858000D01*
X138172000Y-64858000D01*
X138172000Y-66357999D01*
X138986182Y-66357999D01*
X138986197Y-66357998D01*
X139118332Y-66347599D01*
X139336519Y-66292622D01*
X139541374Y-66199571D01*
X139541380Y-66199568D01*
X139726323Y-66071440D01*
X139726335Y-66071430D01*
X139885430Y-65912335D01*
X139885440Y-65912323D01*
X140013568Y-65727380D01*
X140013571Y-65727374D01*
X140106622Y-65522519D01*
X140161599Y-65304332D01*
X140171999Y-65172196D01*
X140172000Y-65172184D01*
X140172000Y-64608000D01*
X139355686Y-64608000D01*
X139381493Y-64567844D01*
X139422000Y-64429889D01*
X139422000Y-64286111D01*
X139381493Y-64148156D01*
X139355686Y-64108000D01*
X140171999Y-64108000D01*
X140171999Y-63543817D01*
X140171998Y-63543802D01*
X140161599Y-63411667D01*
X140106622Y-63193480D01*
X140013571Y-62988625D01*
X140013568Y-62988619D01*
X139885440Y-62803676D01*
X139885430Y-62803664D01*
X139726335Y-62644569D01*
X139726323Y-62644559D01*
X139541380Y-62516431D01*
X139541374Y-62516428D01*
X139336519Y-62423377D01*
X139118332Y-62368400D01*
X138986196Y-62358000D01*
X138172000Y-62358000D01*
X138172000Y-63858000D01*
X137672000Y-63858000D01*
X137672000Y-62358000D01*
X136857817Y-62358000D01*
X136857802Y-62358001D01*
X136725667Y-62368400D01*
X136507480Y-62423377D01*
X136302625Y-62516428D01*
X136302619Y-62516431D01*
X136117676Y-62644559D01*
X136117664Y-62644569D01*
X135958569Y-62803664D01*
X135958559Y-62803676D01*
X135830431Y-62988619D01*
X135830428Y-62988625D01*
X135737377Y-63193480D01*
X135682400Y-63411667D01*
X135672000Y-63543803D01*
X135672000Y-64108000D01*
X55372000Y-64108000D01*
X55372000Y-61084000D01*
X55391685Y-61016961D01*
X55444489Y-60971206D01*
X55496000Y-60960000D01*
X57150000Y-60960000D01*
X57150000Y-59814000D01*
X57169685Y-59746961D01*
X57222489Y-59701206D01*
X57274000Y-59690000D01*
X149736000Y-59690000D01*
X149803039Y-59709685D01*
G37*
G04 #@! TD.AperFunction*
M02*
