M48
; DRILL file {KiCad 7.0.10-7.0.10~ubuntu22.04.1} date Wed 15 May 2024 19:40:57
; FORMAT={-:-/ absolute / metric / decimal}
; #@! TF.CreationDate,2024-05-15T19:40:57+10:00
; #@! TF.GenerationSoftware,Kicad,Pcbnew,7.0.10-7.0.10~ubuntu22.04.1
; #@! TF.FileFunction,Plated,1,4,PTH
FMAT,2
METRIC
; #@! TA.AperFunction,Plated,PTH,ViaDrill
T1C0.400
; #@! TA.AperFunction,Plated,PTH,ComponentDrill
T2C0.800
; #@! TA.AperFunction,Plated,PTH,ComponentDrill
T3C0.900
; #@! TA.AperFunction,Plated,PTH,ComponentDrill
T4C1.000
%
G90
G05
T1
X68.072Y-67.818
X68.072Y-103.378
X68.072Y-104.394
X68.072Y-105.41
X68.072Y-124.968
X68.072Y-125.984
X68.072Y-127.0
X68.149Y-88.138
X69.088Y-77.216
X69.596Y-101.092
X70.866Y-101.092
X74.93Y-98.552
X76.708Y-101.092
X77.046Y-80.01
X79.248Y-80.01
X81.163Y-101.092
X83.663Y-101.092
X83.82Y-67.818
X83.82Y-76.962
X86.106Y-72.644
X86.868Y-97.282
X87.376Y-81.026
X87.626Y-71.322
X88.392Y-83.82
X89.395Y-87.363
X90.678Y-100.076
X90.678Y-101.092
X90.932Y-87.376
X93.218Y-103.378
X93.218Y-104.394
X93.218Y-105.41
X93.472Y-91.466
X94.996Y-71.882
X95.504Y-124.968
X95.504Y-125.984
X95.504Y-127.0
X95.758Y-69.088
X96.012Y-80.01
X96.266Y-86.36
X96.266Y-87.884
X96.266Y-88.9
X96.266Y-90.46
X96.52Y-83.743
X96.52Y-93.726
X96.52Y-94.742
X96.52Y-95.758
X96.52Y-96.774
X98.298Y-123.444
X99.06Y-115.316
X99.06Y-116.332
X99.822Y-122.428
X99.822Y-124.46
X102.108Y-99.568
X102.616Y-120.65
X102.87Y-79.756
X103.088Y-99.593
X103.886Y-118.618
X103.937Y-126.522
X104.14Y-79.756
X104.14Y-120.396
X104.14Y-124.206
X104.602Y-122.948
X106.172Y-119.634
X107.188Y-125.222
X107.239Y-121.95
X107.239Y-123.19
X109.22Y-99.568
X109.474Y-80.01
X110.49Y-99.568
X110.998Y-80.01
X111.122Y-112.832
X111.122Y-113.792
X111.304Y-116.332
X111.304Y-118.112
X111.76Y-109.982
X112.014Y-100.584
X112.268Y-116.332
X112.268Y-118.112
X112.289Y-79.735
X114.046Y-120.142
X114.085Y-72.998
X115.57Y-88.392
X115.57Y-89.916
X115.57Y-91.694
X115.57Y-92.964
X119.888Y-81.788
X121.158Y-81.788
X128.27Y-80.01
X130.048Y-91.186
X130.81Y-86.868
X132.08Y-60.452
X133.35Y-70.358
X134.874Y-100.838
X135.382Y-113.284
X136.296Y-127.965
X136.398Y-87.63
X136.398Y-91.694
X136.398Y-100.838
X136.652Y-80.01
X137.16Y-73.406
X137.668Y-82.296
X137.922Y-97.282
X138.684Y-87.63
X138.684Y-90.424
X138.684Y-112.522
X139.192Y-95.758
X139.446Y-128.016
X139.7Y-99.822
X139.7Y-117.094
X140.121Y-122.834
X140.208Y-89.154
X140.97Y-107.188
X141.224Y-93.98
X142.24Y-87.376
X143.002Y-97.282
X146.304Y-106.172
X146.558Y-86.36
X147.066Y-79.502
X148.59Y-88.392
X148.59Y-108.204
X149.098Y-60.452
X150.622Y-75.438
X150.622Y-99.06
X150.876Y-86.36
X150.876Y-106.172
T2
X146.05Y-71.628
X148.05Y-71.628
T3
X123.444Y-121.666
X125.984Y-121.666
X129.286Y-121.666
X131.826Y-121.666
T4
X58.674Y-83.566
X58.674Y-86.106
X60.706Y-102.108
X60.711Y-115.311
X60.711Y-117.851
X60.711Y-120.391
X60.711Y-122.931
X60.711Y-125.471
X61.214Y-83.566
X61.214Y-86.106
X63.246Y-102.108
X63.251Y-115.311
X63.251Y-117.851
X63.251Y-120.391
X63.251Y-122.931
X63.251Y-125.471
X63.754Y-83.566
X63.754Y-86.106
X66.294Y-83.566
X66.294Y-86.106
X68.834Y-83.566
X68.834Y-86.106
X102.108Y-67.564
X102.108Y-70.104
X104.648Y-67.564
X104.648Y-70.104
X107.188Y-67.564
X107.188Y-70.104
X109.728Y-67.564
X109.728Y-70.104
X112.268Y-67.564
X112.268Y-70.104
X114.808Y-67.564
X114.808Y-70.104
X117.348Y-67.564
X117.348Y-70.104
X119.888Y-67.564
X119.888Y-70.104
X122.428Y-67.564
X122.428Y-70.104
X124.968Y-67.564
X124.968Y-70.104
X143.535Y-117.831
X143.535Y-120.371
X143.535Y-122.911
X146.075Y-117.831
X146.075Y-120.371
X146.075Y-122.911
T4
X133.222Y-66.358G85X133.222Y-68.358
G05
X138.922Y-64.358G85X136.922Y-64.358
G05
X138.922Y-70.358G85X136.922Y-70.358
G05
M30
