G04 #@! TF.GenerationSoftware,KiCad,Pcbnew,7.0.10-7.0.10~ubuntu22.04.1*
G04 #@! TF.CreationDate,2024-05-15T19:40:14+10:00*
G04 #@! TF.ProjectId,AtariHDisk4,41746172-6948-4446-9973-6b342e6b6963,rev?*
G04 #@! TF.SameCoordinates,Original*
G04 #@! TF.FileFunction,Copper,L1,Top*
G04 #@! TF.FilePolarity,Positive*
%FSLAX46Y46*%
G04 Gerber Fmt 4.6, Leading zero omitted, Abs format (unit mm)*
G04 Created by KiCad (PCBNEW 7.0.10-7.0.10~ubuntu22.04.1) date 2024-05-15 19:40:14*
%MOMM*%
%LPD*%
G01*
G04 APERTURE LIST*
G04 Aperture macros list*
%AMRoundRect*
0 Rectangle with rounded corners*
0 $1 Rounding radius*
0 $2 $3 $4 $5 $6 $7 $8 $9 X,Y pos of 4 corners*
0 Add a 4 corners polygon primitive as box body*
4,1,4,$2,$3,$4,$5,$6,$7,$8,$9,$2,$3,0*
0 Add four circle primitives for the rounded corners*
1,1,$1+$1,$2,$3*
1,1,$1+$1,$4,$5*
1,1,$1+$1,$6,$7*
1,1,$1+$1,$8,$9*
0 Add four rect primitives between the rounded corners*
20,1,$1+$1,$2,$3,$4,$5,0*
20,1,$1+$1,$4,$5,$6,$7,0*
20,1,$1+$1,$6,$7,$8,$9,0*
20,1,$1+$1,$8,$9,$2,$3,0*%
%AMFreePoly0*
4,1,19,0.500000,-0.750000,0.000000,-0.750000,0.000000,-0.744911,-0.071157,-0.744911,-0.207708,-0.704816,-0.327430,-0.627875,-0.420627,-0.520320,-0.479746,-0.390866,-0.500000,-0.250000,-0.500000,0.250000,-0.479746,0.390866,-0.420627,0.520320,-0.327430,0.627875,-0.207708,0.704816,-0.071157,0.744911,0.000000,0.744911,0.000000,0.750000,0.500000,0.750000,0.500000,-0.750000,0.500000,-0.750000,
$1*%
%AMFreePoly1*
4,1,19,0.000000,0.744911,0.071157,0.744911,0.207708,0.704816,0.327430,0.627875,0.420627,0.520320,0.479746,0.390866,0.500000,0.250000,0.500000,-0.250000,0.479746,-0.390866,0.420627,-0.520320,0.327430,-0.627875,0.207708,-0.704816,0.071157,-0.744911,0.000000,-0.744911,0.000000,-0.750000,-0.500000,-0.750000,-0.500000,0.750000,0.000000,0.750000,0.000000,0.744911,0.000000,0.744911,
$1*%
G04 Aperture macros list end*
G04 #@! TA.AperFunction,SMDPad,CuDef*
%ADD10RoundRect,0.250000X0.650000X-0.325000X0.650000X0.325000X-0.650000X0.325000X-0.650000X-0.325000X0*%
G04 #@! TD*
G04 #@! TA.AperFunction,ComponentPad*
%ADD11R,1.600000X1.600000*%
G04 #@! TD*
G04 #@! TA.AperFunction,ComponentPad*
%ADD12C,1.600000*%
G04 #@! TD*
G04 #@! TA.AperFunction,ComponentPad*
%ADD13R,1.700000X1.700000*%
G04 #@! TD*
G04 #@! TA.AperFunction,ComponentPad*
%ADD14O,1.700000X1.700000*%
G04 #@! TD*
G04 #@! TA.AperFunction,SMDPad,CuDef*
%ADD15RoundRect,0.250000X-0.262500X-0.450000X0.262500X-0.450000X0.262500X0.450000X-0.262500X0.450000X0*%
G04 #@! TD*
G04 #@! TA.AperFunction,SMDPad,CuDef*
%ADD16RoundRect,0.225000X0.250000X-0.225000X0.250000X0.225000X-0.250000X0.225000X-0.250000X-0.225000X0*%
G04 #@! TD*
G04 #@! TA.AperFunction,SMDPad,CuDef*
%ADD17RoundRect,0.225000X-0.225000X-0.250000X0.225000X-0.250000X0.225000X0.250000X-0.225000X0.250000X0*%
G04 #@! TD*
G04 #@! TA.AperFunction,SMDPad,CuDef*
%ADD18RoundRect,0.225000X-0.250000X0.225000X-0.250000X-0.225000X0.250000X-0.225000X0.250000X0.225000X0*%
G04 #@! TD*
G04 #@! TA.AperFunction,SMDPad,CuDef*
%ADD19RoundRect,0.375000X0.625000X0.375000X-0.625000X0.375000X-0.625000X-0.375000X0.625000X-0.375000X0*%
G04 #@! TD*
G04 #@! TA.AperFunction,SMDPad,CuDef*
%ADD20RoundRect,0.500000X0.500000X1.400000X-0.500000X1.400000X-0.500000X-1.400000X0.500000X-1.400000X0*%
G04 #@! TD*
G04 #@! TA.AperFunction,SMDPad,CuDef*
%ADD21RoundRect,0.375000X-0.375000X0.625000X-0.375000X-0.625000X0.375000X-0.625000X0.375000X0.625000X0*%
G04 #@! TD*
G04 #@! TA.AperFunction,SMDPad,CuDef*
%ADD22RoundRect,0.500000X-1.400000X0.500000X-1.400000X-0.500000X1.400000X-0.500000X1.400000X0.500000X0*%
G04 #@! TD*
G04 #@! TA.AperFunction,SMDPad,CuDef*
%ADD23RoundRect,0.250000X0.325000X0.650000X-0.325000X0.650000X-0.325000X-0.650000X0.325000X-0.650000X0*%
G04 #@! TD*
G04 #@! TA.AperFunction,SMDPad,CuDef*
%ADD24R,2.000000X1.800000*%
G04 #@! TD*
G04 #@! TA.AperFunction,ComponentPad*
%ADD25R,3.500000X3.500000*%
G04 #@! TD*
G04 #@! TA.AperFunction,ComponentPad*
%ADD26RoundRect,0.750000X-1.000000X0.750000X-1.000000X-0.750000X1.000000X-0.750000X1.000000X0.750000X0*%
G04 #@! TD*
G04 #@! TA.AperFunction,ComponentPad*
%ADD27RoundRect,0.875000X-0.875000X0.875000X-0.875000X-0.875000X0.875000X-0.875000X0.875000X0.875000X0*%
G04 #@! TD*
G04 #@! TA.AperFunction,SMDPad,CuDef*
%ADD28RoundRect,0.075000X-0.662500X-0.075000X0.662500X-0.075000X0.662500X0.075000X-0.662500X0.075000X0*%
G04 #@! TD*
G04 #@! TA.AperFunction,SMDPad,CuDef*
%ADD29RoundRect,0.075000X-0.075000X-0.662500X0.075000X-0.662500X0.075000X0.662500X-0.075000X0.662500X0*%
G04 #@! TD*
G04 #@! TA.AperFunction,SMDPad,CuDef*
%ADD30R,1.400000X0.300000*%
G04 #@! TD*
G04 #@! TA.AperFunction,ComponentPad*
%ADD31R,1.800000X1.800000*%
G04 #@! TD*
G04 #@! TA.AperFunction,ComponentPad*
%ADD32C,1.800000*%
G04 #@! TD*
G04 #@! TA.AperFunction,SMDPad,CuDef*
%ADD33RoundRect,0.250000X0.450000X-0.262500X0.450000X0.262500X-0.450000X0.262500X-0.450000X-0.262500X0*%
G04 #@! TD*
G04 #@! TA.AperFunction,SMDPad,CuDef*
%ADD34RoundRect,0.150000X0.150000X-0.587500X0.150000X0.587500X-0.150000X0.587500X-0.150000X-0.587500X0*%
G04 #@! TD*
G04 #@! TA.AperFunction,SMDPad,CuDef*
%ADD35RoundRect,0.100000X0.100000X-0.637500X0.100000X0.637500X-0.100000X0.637500X-0.100000X-0.637500X0*%
G04 #@! TD*
G04 #@! TA.AperFunction,SMDPad,CuDef*
%ADD36RoundRect,0.075000X0.662500X0.075000X-0.662500X0.075000X-0.662500X-0.075000X0.662500X-0.075000X0*%
G04 #@! TD*
G04 #@! TA.AperFunction,SMDPad,CuDef*
%ADD37RoundRect,0.075000X0.075000X0.662500X-0.075000X0.662500X-0.075000X-0.662500X0.075000X-0.662500X0*%
G04 #@! TD*
G04 #@! TA.AperFunction,SMDPad,CuDef*
%ADD38R,1.900000X1.100000*%
G04 #@! TD*
G04 #@! TA.AperFunction,SMDPad,CuDef*
%ADD39R,0.700000X1.600000*%
G04 #@! TD*
G04 #@! TA.AperFunction,SMDPad,CuDef*
%ADD40R,1.200000X1.800000*%
G04 #@! TD*
G04 #@! TA.AperFunction,SMDPad,CuDef*
%ADD41R,1.200000X2.200000*%
G04 #@! TD*
G04 #@! TA.AperFunction,SMDPad,CuDef*
%ADD42R,1.600000X1.500000*%
G04 #@! TD*
G04 #@! TA.AperFunction,SMDPad,CuDef*
%ADD43RoundRect,0.250000X0.375000X0.625000X-0.375000X0.625000X-0.375000X-0.625000X0.375000X-0.625000X0*%
G04 #@! TD*
G04 #@! TA.AperFunction,SMDPad,CuDef*
%ADD44RoundRect,0.250000X0.262500X0.450000X-0.262500X0.450000X-0.262500X-0.450000X0.262500X-0.450000X0*%
G04 #@! TD*
G04 #@! TA.AperFunction,SMDPad,CuDef*
%ADD45RoundRect,0.225000X0.225000X0.250000X-0.225000X0.250000X-0.225000X-0.250000X0.225000X-0.250000X0*%
G04 #@! TD*
G04 #@! TA.AperFunction,SMDPad,CuDef*
%ADD46R,1.000000X1.500000*%
G04 #@! TD*
G04 #@! TA.AperFunction,SMDPad,CuDef*
%ADD47R,0.700000X1.500000*%
G04 #@! TD*
G04 #@! TA.AperFunction,ConnectorPad*
%ADD48R,1.500000X2.800000*%
G04 #@! TD*
G04 #@! TA.AperFunction,SMDPad,CuDef*
%ADD49RoundRect,0.100000X-0.100000X0.637500X-0.100000X-0.637500X0.100000X-0.637500X0.100000X0.637500X0*%
G04 #@! TD*
G04 #@! TA.AperFunction,SMDPad,CuDef*
%ADD50RoundRect,0.250000X0.650000X-1.000000X0.650000X1.000000X-0.650000X1.000000X-0.650000X-1.000000X0*%
G04 #@! TD*
G04 #@! TA.AperFunction,SMDPad,CuDef*
%ADD51FreePoly0,90.000000*%
G04 #@! TD*
G04 #@! TA.AperFunction,SMDPad,CuDef*
%ADD52FreePoly1,90.000000*%
G04 #@! TD*
G04 #@! TA.AperFunction,ComponentPad*
%ADD53RoundRect,0.250000X0.600000X-0.600000X0.600000X0.600000X-0.600000X0.600000X-0.600000X-0.600000X0*%
G04 #@! TD*
G04 #@! TA.AperFunction,ComponentPad*
%ADD54C,1.700000*%
G04 #@! TD*
G04 #@! TA.AperFunction,ViaPad*
%ADD55C,0.800000*%
G04 #@! TD*
G04 #@! TA.AperFunction,Conductor*
%ADD56C,0.300000*%
G04 #@! TD*
G04 #@! TA.AperFunction,Conductor*
%ADD57C,0.800000*%
G04 #@! TD*
G04 #@! TA.AperFunction,Conductor*
%ADD58C,0.250000*%
G04 #@! TD*
G04 #@! TA.AperFunction,Conductor*
%ADD59C,0.200000*%
G04 #@! TD*
G04 APERTURE END LIST*
D10*
X142240000Y-92153000D03*
X142240000Y-89203000D03*
D11*
X146050000Y-71628000D03*
D12*
X148050000Y-71628000D03*
D13*
X58674000Y-86106000D03*
D14*
X58674000Y-83566000D03*
X61214000Y-86106000D03*
X61214000Y-83566000D03*
X63754000Y-86106000D03*
X63754000Y-83566000D03*
X66294000Y-86106000D03*
X66294000Y-83566000D03*
X68834000Y-86106000D03*
X68834000Y-83566000D03*
D15*
X70104000Y-89408000D03*
X71929000Y-89408000D03*
X66294000Y-89408000D03*
X68119000Y-89408000D03*
X67159500Y-80772000D03*
X68984500Y-80772000D03*
D16*
X117348000Y-93218000D03*
X117348000Y-91668000D03*
D17*
X109474000Y-78232000D03*
X111024000Y-78232000D03*
D18*
X94742000Y-89916000D03*
X94742000Y-91466000D03*
D16*
X117348000Y-89916000D03*
X117348000Y-88366000D03*
X94742000Y-87884000D03*
X94742000Y-86334000D03*
D19*
X148590000Y-106186000D03*
X148590000Y-103886000D03*
D20*
X142290000Y-103886000D03*
D19*
X148590000Y-101586000D03*
D21*
X136412000Y-89662000D03*
X134112000Y-89662000D03*
D22*
X134112000Y-95962000D03*
D21*
X131812000Y-89662000D03*
D10*
X141224000Y-98708000D03*
X141224000Y-95758000D03*
D23*
X137873000Y-99060000D03*
X134923000Y-99060000D03*
D24*
X86868000Y-89154000D03*
X86868000Y-94234000D03*
X91068000Y-94234000D03*
X91068000Y-89154000D03*
D17*
X101587000Y-101092000D03*
X103137000Y-101092000D03*
D25*
X137922000Y-70358000D03*
D26*
X137922000Y-64358000D03*
D27*
X133222000Y-67358000D03*
D17*
X135864000Y-111760000D03*
X137414000Y-111760000D03*
X77470000Y-81280000D03*
X79020000Y-81280000D03*
D28*
X98509500Y-83916000D03*
X98509500Y-84416000D03*
X98509500Y-84916000D03*
X98509500Y-85416000D03*
X98509500Y-85916000D03*
X98509500Y-86416000D03*
X98509500Y-86916000D03*
X98509500Y-87416000D03*
X98509500Y-87916000D03*
X98509500Y-88416000D03*
X98509500Y-88916000D03*
X98509500Y-89416000D03*
X98509500Y-89916000D03*
X98509500Y-90416000D03*
X98509500Y-90916000D03*
X98509500Y-91416000D03*
X98509500Y-91916000D03*
X98509500Y-92416000D03*
X98509500Y-92916000D03*
X98509500Y-93416000D03*
X98509500Y-93916000D03*
X98509500Y-94416000D03*
X98509500Y-94916000D03*
X98509500Y-95416000D03*
X98509500Y-95916000D03*
D29*
X100172000Y-97578500D03*
X100672000Y-97578500D03*
X101172000Y-97578500D03*
X101672000Y-97578500D03*
X102172000Y-97578500D03*
X102672000Y-97578500D03*
X103172000Y-97578500D03*
X103672000Y-97578500D03*
X104172000Y-97578500D03*
X104672000Y-97578500D03*
X105172000Y-97578500D03*
X105672000Y-97578500D03*
X106172000Y-97578500D03*
X106672000Y-97578500D03*
X107172000Y-97578500D03*
X107672000Y-97578500D03*
X108172000Y-97578500D03*
X108672000Y-97578500D03*
X109172000Y-97578500D03*
X109672000Y-97578500D03*
X110172000Y-97578500D03*
X110672000Y-97578500D03*
X111172000Y-97578500D03*
X111672000Y-97578500D03*
X112172000Y-97578500D03*
D28*
X113834500Y-95916000D03*
X113834500Y-95416000D03*
X113834500Y-94916000D03*
X113834500Y-94416000D03*
X113834500Y-93916000D03*
X113834500Y-93416000D03*
X113834500Y-92916000D03*
X113834500Y-92416000D03*
X113834500Y-91916000D03*
X113834500Y-91416000D03*
X113834500Y-90916000D03*
X113834500Y-90416000D03*
X113834500Y-89916000D03*
X113834500Y-89416000D03*
X113834500Y-88916000D03*
X113834500Y-88416000D03*
X113834500Y-87916000D03*
X113834500Y-87416000D03*
X113834500Y-86916000D03*
X113834500Y-86416000D03*
X113834500Y-85916000D03*
X113834500Y-85416000D03*
X113834500Y-84916000D03*
X113834500Y-84416000D03*
X113834500Y-83916000D03*
D29*
X112172000Y-82253500D03*
X111672000Y-82253500D03*
X111172000Y-82253500D03*
X110672000Y-82253500D03*
X110172000Y-82253500D03*
X109672000Y-82253500D03*
X109172000Y-82253500D03*
X108672000Y-82253500D03*
X108172000Y-82253500D03*
X107672000Y-82253500D03*
X107172000Y-82253500D03*
X106672000Y-82253500D03*
X106172000Y-82253500D03*
X105672000Y-82253500D03*
X105172000Y-82253500D03*
X104672000Y-82253500D03*
X104172000Y-82253500D03*
X103672000Y-82253500D03*
X103172000Y-82253500D03*
X102672000Y-82253500D03*
X102172000Y-82253500D03*
X101672000Y-82253500D03*
X101172000Y-82253500D03*
X100672000Y-82253500D03*
X100172000Y-82253500D03*
D30*
X105797000Y-124458000D03*
X105797000Y-123958000D03*
X105797000Y-123458000D03*
X105797000Y-122958000D03*
X105797000Y-122458000D03*
X101397000Y-122458000D03*
X101397000Y-122958000D03*
X101397000Y-123458000D03*
X101397000Y-123958000D03*
X101397000Y-124458000D03*
D19*
X148692000Y-86374000D03*
X148692000Y-84074000D03*
D20*
X142392000Y-84074000D03*
D19*
X148692000Y-81774000D03*
D17*
X86855000Y-82550000D03*
X88405000Y-82550000D03*
D31*
X123444000Y-121666000D03*
D32*
X125984000Y-121666000D03*
D18*
X136296400Y-125196600D03*
X136296400Y-126746600D03*
D13*
X60706000Y-102108000D03*
D14*
X63246000Y-102108000D03*
D17*
X81280000Y-100076000D03*
X82830000Y-100076000D03*
D33*
X91948000Y-68881000D03*
X91948000Y-67056000D03*
D34*
X130114000Y-79677500D03*
X132014000Y-79677500D03*
X131064000Y-77802500D03*
X125034000Y-79677500D03*
X126934000Y-79677500D03*
X125984000Y-77802500D03*
D35*
X135570800Y-121226500D03*
X136220800Y-121226500D03*
X136870800Y-121226500D03*
X137520800Y-121226500D03*
X138170800Y-121226500D03*
X138820800Y-121226500D03*
X139470800Y-121226500D03*
X140120800Y-121226500D03*
X140120800Y-115501500D03*
X139470800Y-115501500D03*
X138820800Y-115501500D03*
X138170800Y-115501500D03*
X137520800Y-115501500D03*
X136870800Y-115501500D03*
X136220800Y-115501500D03*
X135570800Y-115501500D03*
D33*
X91694000Y-65071000D03*
X91694000Y-63246000D03*
D36*
X109287500Y-115482000D03*
X109287500Y-114982000D03*
X109287500Y-114482000D03*
X109287500Y-113982000D03*
X109287500Y-113482000D03*
X109287500Y-112982000D03*
X109287500Y-112482000D03*
X109287500Y-111982000D03*
X109287500Y-111482000D03*
X109287500Y-110982000D03*
X109287500Y-110482000D03*
X109287500Y-109982000D03*
D37*
X107875000Y-108569500D03*
X107375000Y-108569500D03*
X106875000Y-108569500D03*
X106375000Y-108569500D03*
X105875000Y-108569500D03*
X105375000Y-108569500D03*
X104875000Y-108569500D03*
X104375000Y-108569500D03*
X103875000Y-108569500D03*
X103375000Y-108569500D03*
X102875000Y-108569500D03*
X102375000Y-108569500D03*
D36*
X100962500Y-109982000D03*
X100962500Y-110482000D03*
X100962500Y-110982000D03*
X100962500Y-111482000D03*
X100962500Y-111982000D03*
X100962500Y-112482000D03*
X100962500Y-112982000D03*
X100962500Y-113482000D03*
X100962500Y-113982000D03*
X100962500Y-114482000D03*
X100962500Y-114982000D03*
X100962500Y-115482000D03*
D37*
X102375000Y-116894500D03*
X102875000Y-116894500D03*
X103375000Y-116894500D03*
X103875000Y-116894500D03*
X104375000Y-116894500D03*
X104875000Y-116894500D03*
X105375000Y-116894500D03*
X105875000Y-116894500D03*
X106375000Y-116894500D03*
X106875000Y-116894500D03*
X107375000Y-116894500D03*
X107875000Y-116894500D03*
D38*
X108966000Y-122956000D03*
X108966000Y-125456000D03*
D39*
X73746000Y-78374000D03*
X74846000Y-78374000D03*
X75946000Y-78374000D03*
X77046000Y-78374000D03*
X78146000Y-78374000D03*
X79246000Y-78374000D03*
X80346000Y-78374000D03*
X81446000Y-78374000D03*
X82546000Y-78374000D03*
D40*
X83746000Y-77074000D03*
D41*
X83746000Y-67774000D03*
D42*
X69096000Y-77324000D03*
D41*
X68246000Y-67774000D03*
D16*
X84836000Y-72644000D03*
X84836000Y-71094000D03*
D33*
X87630000Y-65071000D03*
X87630000Y-63246000D03*
X87884000Y-68881000D03*
X87884000Y-67056000D03*
X93726000Y-65071000D03*
X93726000Y-63246000D03*
D43*
X132972000Y-75438000D03*
X130172000Y-75438000D03*
D44*
X129944500Y-72898000D03*
X128119500Y-72898000D03*
D43*
X127892000Y-75438000D03*
X125092000Y-75438000D03*
D45*
X90945000Y-86106000D03*
X89395000Y-86106000D03*
D31*
X129286000Y-121666000D03*
D32*
X131826000Y-121666000D03*
D33*
X89916000Y-68881000D03*
X89916000Y-67056000D03*
D44*
X126896500Y-82042000D03*
X125071500Y-82042000D03*
X131976500Y-82042000D03*
X130151500Y-82042000D03*
D15*
X98759000Y-74422000D03*
X100584000Y-74422000D03*
D45*
X121412000Y-83312000D03*
X119862000Y-83312000D03*
D18*
X139496800Y-125196600D03*
X139496800Y-126746600D03*
D46*
X88663000Y-102684000D03*
X86163000Y-102684000D03*
X83663000Y-102684000D03*
X81163000Y-102684000D03*
X78663000Y-102684000D03*
X76163000Y-102684000D03*
X73738000Y-102684000D03*
X72038000Y-102684000D03*
X91163000Y-102684000D03*
D47*
X70738000Y-102684000D03*
X69538000Y-102684000D03*
D48*
X68138000Y-104484000D03*
X93238000Y-104484000D03*
X68138000Y-125984000D03*
X95438000Y-125984000D03*
D49*
X121035000Y-74353500D03*
X120385000Y-74353500D03*
X119735000Y-74353500D03*
X119085000Y-74353500D03*
X118435000Y-74353500D03*
X117785000Y-74353500D03*
X117135000Y-74353500D03*
X116485000Y-74353500D03*
X115835000Y-74353500D03*
X115185000Y-74353500D03*
X115185000Y-80078500D03*
X115835000Y-80078500D03*
X116485000Y-80078500D03*
X117135000Y-80078500D03*
X117785000Y-80078500D03*
X118435000Y-80078500D03*
X119085000Y-80078500D03*
X119735000Y-80078500D03*
X120385000Y-80078500D03*
X121035000Y-80078500D03*
D16*
X112522000Y-114313000D03*
X112522000Y-112763000D03*
D17*
X103124000Y-78232000D03*
X104674000Y-78232000D03*
X101092000Y-126492000D03*
X102642000Y-126492000D03*
D33*
X93980000Y-68881000D03*
X93980000Y-67056000D03*
D17*
X109220000Y-101092000D03*
X110770000Y-101092000D03*
D15*
X123651000Y-126595500D03*
X125476000Y-126595500D03*
D13*
X143535400Y-117830600D03*
D14*
X146075400Y-117830600D03*
X143535400Y-120370600D03*
X146075400Y-120370600D03*
X143535400Y-122910600D03*
X146075400Y-122910600D03*
D18*
X111252000Y-124968000D03*
X111252000Y-126518000D03*
D16*
X111252000Y-123444000D03*
X111252000Y-121894000D03*
D18*
X134696200Y-125197200D03*
X134696200Y-126747200D03*
D15*
X129643500Y-126595500D03*
X131468500Y-126595500D03*
D50*
X146304000Y-66516000D03*
X146304000Y-62516000D03*
D13*
X63251000Y-125471000D03*
D14*
X60711000Y-125471000D03*
X63251000Y-122931000D03*
X60711000Y-122931000D03*
X63251000Y-120391000D03*
X60711000Y-120391000D03*
X63251000Y-117851000D03*
X60711000Y-117851000D03*
X63251000Y-115311000D03*
X60711000Y-115311000D03*
D44*
X125880500Y-72898000D03*
X124055500Y-72898000D03*
D35*
X87510000Y-79248000D03*
X88160000Y-79248000D03*
X88810000Y-79248000D03*
X89460000Y-79248000D03*
X90110000Y-79248000D03*
X90760000Y-79248000D03*
X91410000Y-79248000D03*
X92060000Y-79248000D03*
X92710000Y-79248000D03*
X93360000Y-79248000D03*
X94010000Y-79248000D03*
X94660000Y-79248000D03*
X94660000Y-73523000D03*
X94010000Y-73523000D03*
X93360000Y-73523000D03*
X92710000Y-73523000D03*
X92060000Y-73523000D03*
X91410000Y-73523000D03*
X90760000Y-73523000D03*
X90110000Y-73523000D03*
X89460000Y-73523000D03*
X88810000Y-73523000D03*
X88160000Y-73523000D03*
X87510000Y-73523000D03*
D18*
X137896600Y-125197200D03*
X137896600Y-126747200D03*
D33*
X89662000Y-65071000D03*
X89662000Y-63246000D03*
D51*
X94234000Y-96550000D03*
D52*
X94234000Y-95250000D03*
D53*
X102108000Y-70104000D03*
D54*
X104648000Y-70104000D03*
X107188000Y-70104000D03*
X109728000Y-70104000D03*
X112268000Y-70104000D03*
X114808000Y-70104000D03*
X117348000Y-70104000D03*
X119888000Y-70104000D03*
X122428000Y-70104000D03*
X124968000Y-70104000D03*
X102108000Y-67564000D03*
X104648000Y-67564000D03*
X107188000Y-67564000D03*
X109728000Y-67564000D03*
X112268000Y-67564000D03*
X114808000Y-67564000D03*
X117348000Y-67564000D03*
X119888000Y-67564000D03*
X122428000Y-67564000D03*
X124968000Y-67564000D03*
D55*
X94996000Y-71882000D03*
X141224000Y-93980000D03*
X140208000Y-89154000D03*
X110998000Y-80010000D03*
X93472000Y-91466000D03*
X132080000Y-60452000D03*
X68072000Y-103378000D03*
X143002000Y-97282000D03*
X79248000Y-80010000D03*
X68072000Y-127000000D03*
X150622000Y-99060000D03*
X88392000Y-83820000D03*
X104140000Y-79756000D03*
X133350000Y-70358000D03*
X119888000Y-81788000D03*
X95504000Y-127000000D03*
X93218000Y-104394000D03*
X136296400Y-127965200D03*
X107188000Y-125222000D03*
X114085200Y-72998400D03*
X148590000Y-108204000D03*
X146558000Y-86360000D03*
X93218000Y-105410000D03*
X103937000Y-126522000D03*
X110490000Y-99568000D03*
X149098000Y-60452000D03*
X139192000Y-95758000D03*
X96266000Y-88900000D03*
X147066000Y-79502000D03*
X130048000Y-91186000D03*
X150876000Y-106172000D03*
X130810000Y-86868000D03*
X140970000Y-107188000D03*
X138684000Y-112522000D03*
X136398000Y-91694000D03*
X68072000Y-105410000D03*
X68072000Y-124968000D03*
X93218000Y-103378000D03*
X115570000Y-91694000D03*
X87625631Y-71322369D03*
X104140000Y-124206000D03*
X83820000Y-67818000D03*
X150876000Y-86360000D03*
X139446000Y-128016000D03*
X89395000Y-87363000D03*
X83820000Y-76962000D03*
X96266000Y-86360000D03*
X96520000Y-83743001D03*
X114046000Y-120142000D03*
X136398000Y-100838000D03*
X128270000Y-80010000D03*
X115570000Y-88392000D03*
X111122500Y-112831997D03*
X68072000Y-104394000D03*
X76708000Y-101092000D03*
X139700000Y-117094000D03*
X146304000Y-106172000D03*
X137160000Y-73406000D03*
X137668000Y-82296000D03*
X136652000Y-80010000D03*
X69088000Y-77216000D03*
X150622000Y-75438000D03*
X107239000Y-121950000D03*
X148590000Y-88392000D03*
X103087505Y-99592587D03*
X95504000Y-125984000D03*
X83663000Y-101092000D03*
X96012000Y-80010000D03*
X95504000Y-124968000D03*
X140120800Y-122834400D03*
X68072000Y-125984000D03*
X134874000Y-100838000D03*
X68072000Y-67818000D03*
X142240000Y-87376000D03*
X136398000Y-87630000D03*
X138684000Y-87630000D03*
X86106000Y-72644000D03*
X138684000Y-90424000D03*
X95758000Y-69088000D03*
X81163000Y-101092000D03*
X135382000Y-113284000D03*
X96266000Y-87884000D03*
X109220000Y-99568000D03*
X90932000Y-87376000D03*
X121158000Y-81788000D03*
X77046000Y-80010000D03*
X99822000Y-124460000D03*
X68149000Y-88138000D03*
X115570000Y-92964000D03*
X139700000Y-99822000D03*
X102870000Y-79756000D03*
X87376000Y-81026000D03*
X109474000Y-80010000D03*
X111122500Y-113792000D03*
X102108000Y-99568000D03*
X96266000Y-90460000D03*
X115570000Y-89916000D03*
X137922000Y-97282000D03*
X99060000Y-116332000D03*
X99060000Y-115316000D03*
X112268000Y-118112000D03*
X112268000Y-116332000D03*
X111303630Y-116332000D03*
X111303630Y-118112000D03*
X70866000Y-101092000D03*
X90678000Y-100076000D03*
X103886000Y-118618000D03*
X104602354Y-122947600D03*
X99822000Y-122428000D03*
X106172000Y-119634000D03*
X102616000Y-120650000D03*
X104140000Y-120396000D03*
X98298000Y-123444000D03*
X96520000Y-95758000D03*
X96520000Y-96774000D03*
X96520000Y-93726000D03*
X96520000Y-94742000D03*
X111760000Y-109982000D03*
X112289000Y-79735000D03*
X112014000Y-100584000D03*
X107239000Y-123190000D03*
X69596000Y-101092000D03*
X90678000Y-101092000D03*
X74930000Y-98552000D03*
X86868000Y-97282000D03*
D56*
X128119500Y-71477500D02*
X128119500Y-72898000D01*
X122428000Y-67564000D02*
X122936000Y-67564000D01*
X122936000Y-67564000D02*
X124206000Y-68834000D01*
X124206000Y-68834000D02*
X125476000Y-68834000D01*
X125476000Y-68834000D02*
X128119500Y-71477500D01*
D57*
X146050000Y-75946000D02*
X148692000Y-78588000D01*
X146304000Y-66516000D02*
X146050000Y-66770000D01*
X146050000Y-66770000D02*
X146050000Y-71628000D01*
X148692000Y-78588000D02*
X148692000Y-81774000D01*
X146050000Y-71628000D02*
X146050000Y-75946000D01*
D56*
X125034000Y-75496000D02*
X125034000Y-79677500D01*
X125092000Y-75438000D02*
X125034000Y-75496000D01*
X125071500Y-80367500D02*
X125071500Y-82042000D01*
X125034000Y-80330000D02*
X125071500Y-80367500D01*
X125034000Y-79677500D02*
X125034000Y-80330000D01*
X124055500Y-72898000D02*
X124055500Y-71778500D01*
X124055500Y-71778500D02*
X124968000Y-70866000D01*
X124968000Y-70866000D02*
X124968000Y-70104000D01*
X130114000Y-75496000D02*
X130114000Y-79677500D01*
X130172000Y-75438000D02*
X130114000Y-75496000D01*
X130114000Y-82004500D02*
X130151500Y-82042000D01*
X130114000Y-79677500D02*
X130114000Y-82004500D01*
D58*
X98552000Y-67056000D02*
X93980000Y-67056000D01*
X101600000Y-70104000D02*
X98552000Y-67056000D01*
X102108000Y-70104000D02*
X101600000Y-70104000D01*
X103378000Y-68834000D02*
X101211000Y-68834000D01*
X104648000Y-70104000D02*
X103378000Y-68834000D01*
X95623000Y-63246000D02*
X93726000Y-63246000D01*
X101211000Y-68834000D02*
X95623000Y-63246000D01*
X105918000Y-67056000D02*
X101310500Y-62448500D01*
X105918000Y-68326000D02*
X105918000Y-67056000D01*
X92679000Y-62515000D02*
X92679000Y-66071000D01*
X107188000Y-70104000D02*
X107188000Y-69596000D01*
X92745500Y-62448500D02*
X92679000Y-62515000D01*
X107188000Y-69596000D02*
X105918000Y-68326000D01*
X92679000Y-66071000D02*
X91948000Y-66802000D01*
X91948000Y-66802000D02*
X91948000Y-67056000D01*
X101310500Y-62448500D02*
X92745500Y-62448500D01*
D56*
X79020000Y-81280000D02*
X79246000Y-81054000D01*
X115596000Y-88366000D02*
X117348000Y-88366000D01*
X136296400Y-126746600D02*
X136296400Y-127965200D01*
X115596000Y-91668000D02*
X117348000Y-91668000D01*
X114693600Y-72998400D02*
X114085200Y-72998400D01*
X94742000Y-86334000D02*
X96240000Y-86334000D01*
D58*
X76708000Y-101092000D02*
X76163000Y-101637000D01*
X112453003Y-112831997D02*
X112522000Y-112763000D01*
D56*
X103087505Y-99592587D02*
X103172000Y-99508092D01*
X88405000Y-83807000D02*
X88392000Y-83820000D01*
X110672000Y-80336000D02*
X110672000Y-82253500D01*
X115570000Y-88392000D02*
X115046000Y-88916000D01*
X140120800Y-122834400D02*
X140120800Y-121226500D01*
X115185000Y-74353500D02*
X115185000Y-73489800D01*
X116574400Y-72847200D02*
X115761600Y-72847200D01*
D58*
X94996000Y-71882000D02*
X94996000Y-72009000D01*
D56*
X88810000Y-72471382D02*
X88810000Y-73523000D01*
X96266000Y-88900000D02*
X96250000Y-88916000D01*
X114844800Y-72847200D02*
X114693600Y-72998400D01*
X116485000Y-74353500D02*
X116485000Y-72936600D01*
X87397262Y-71094000D02*
X87625631Y-71322369D01*
X119888000Y-81788000D02*
X120385000Y-81291000D01*
X132346500Y-80010000D02*
X132014000Y-79677500D01*
X115835000Y-72920600D02*
X115761600Y-72847200D01*
X117135000Y-73407800D02*
X116574400Y-72847200D01*
X119888000Y-81788000D02*
X119888000Y-83286000D01*
X110998000Y-80010000D02*
X110672000Y-80336000D01*
D58*
X94010000Y-79248000D02*
X94010000Y-80294000D01*
D56*
X103087505Y-101042505D02*
X103137000Y-101092000D01*
D58*
X139470800Y-115501500D02*
X139470800Y-116864800D01*
X107239000Y-121950000D02*
X106731000Y-122458000D01*
D56*
X87660987Y-71322369D02*
X88810000Y-72471382D01*
X89395000Y-87363000D02*
X89395000Y-86106000D01*
X79246000Y-80008000D02*
X79246000Y-78374000D01*
X103087505Y-99592587D02*
X103087505Y-101042505D01*
D58*
X94234000Y-80518000D02*
X94996000Y-80518000D01*
X102642000Y-126492000D02*
X103907000Y-126492000D01*
D56*
X98509500Y-88416000D02*
X96750000Y-88416000D01*
X84836000Y-71094000D02*
X87397262Y-71094000D01*
X110770000Y-99848000D02*
X110490000Y-99568000D01*
X136220800Y-115501500D02*
X136220800Y-113715200D01*
D58*
X103907000Y-126492000D02*
X103937000Y-126522000D01*
X94660000Y-80182000D02*
X94996000Y-80518000D01*
D56*
X96520000Y-83743001D02*
X96692999Y-83916000D01*
X120385000Y-81291000D02*
X120385000Y-80078500D01*
D58*
X95504000Y-80518000D02*
X96012000Y-80010000D01*
D56*
X139496800Y-126746600D02*
X139496800Y-127965200D01*
X115185000Y-73489800D02*
X114693600Y-72998400D01*
D58*
X94996000Y-72009000D02*
X94660000Y-72345000D01*
D56*
X128270000Y-80010000D02*
X127266500Y-80010000D01*
X110490000Y-99568000D02*
X110172000Y-99250000D01*
D58*
X111122500Y-112831997D02*
X112453003Y-112831997D01*
D56*
X79248000Y-80010000D02*
X79246000Y-80008000D01*
X136220800Y-113715200D02*
X137414000Y-112522000D01*
X110172000Y-99250000D02*
X110172000Y-97578500D01*
X115835000Y-74353500D02*
X115835000Y-72920600D01*
X137414000Y-111760000D02*
X137922000Y-111760000D01*
D58*
X139470800Y-116864800D02*
X139700000Y-117094000D01*
X111122500Y-112831997D02*
X110772503Y-112482000D01*
D56*
X119888000Y-83286000D02*
X119862000Y-83312000D01*
D58*
X110772503Y-112482000D02*
X109287500Y-112482000D01*
D56*
X87625631Y-71322369D02*
X87660987Y-71322369D01*
X136652000Y-80010000D02*
X132346500Y-80010000D01*
X111024000Y-79984000D02*
X110998000Y-80010000D01*
X103672000Y-80224000D02*
X103672000Y-82253500D01*
D58*
X76163000Y-101637000D02*
X76163000Y-102684000D01*
X94996000Y-80518000D02*
X95504000Y-80518000D01*
D56*
X89395000Y-87363000D02*
X89154000Y-87604000D01*
X89154000Y-91948000D02*
X86868000Y-94234000D01*
X115570000Y-88392000D02*
X115596000Y-88366000D01*
X96692999Y-83916000D02*
X98509500Y-83916000D01*
X104140000Y-79756000D02*
X103672000Y-80224000D01*
D58*
X82830000Y-100076000D02*
X83663000Y-100909000D01*
D56*
X96240000Y-86334000D02*
X96266000Y-86360000D01*
X96750000Y-88416000D02*
X96266000Y-88900000D01*
D58*
X94660000Y-72345000D02*
X94660000Y-73523000D01*
X94010000Y-80294000D02*
X94234000Y-80518000D01*
D56*
X79246000Y-81054000D02*
X79246000Y-80012000D01*
X115046000Y-88916000D02*
X113834500Y-88916000D01*
X79246000Y-80012000D02*
X79248000Y-80010000D01*
D58*
X106731000Y-122458000D02*
X105797000Y-122458000D01*
D56*
X111024000Y-78232000D02*
X111024000Y-79984000D01*
X104140000Y-79756000D02*
X104674000Y-79222000D01*
X89154000Y-87604000D02*
X89154000Y-91948000D01*
X103172000Y-99508092D02*
X103172000Y-97578500D01*
D58*
X83663000Y-100909000D02*
X83663000Y-102684000D01*
D56*
X117135000Y-74353500D02*
X117135000Y-73407800D01*
X139496800Y-127965200D02*
X139446000Y-128016000D01*
X68984500Y-83415500D02*
X68834000Y-83566000D01*
X116485000Y-72936600D02*
X116574400Y-72847200D01*
X115570000Y-91694000D02*
X115596000Y-91668000D01*
X68984500Y-80772000D02*
X68984500Y-83415500D01*
X93472000Y-91466000D02*
X94742000Y-91466000D01*
X115761600Y-72847200D02*
X114844800Y-72847200D01*
X96250000Y-88916000D02*
X98509500Y-88916000D01*
X88405000Y-82550000D02*
X88405000Y-83807000D01*
X115292000Y-91416000D02*
X113834500Y-91416000D01*
D58*
X94660000Y-79248000D02*
X94660000Y-80182000D01*
D56*
X137922000Y-111760000D02*
X138684000Y-112522000D01*
X110770000Y-101092000D02*
X110770000Y-99848000D01*
X115570000Y-91694000D02*
X115292000Y-91416000D01*
X127266500Y-80010000D02*
X126934000Y-79677500D01*
X104674000Y-79222000D02*
X104674000Y-78232000D01*
X137414000Y-112522000D02*
X137414000Y-111760000D01*
X97028000Y-71882000D02*
X98759000Y-73613000D01*
X98759000Y-73613000D02*
X98759000Y-74422000D01*
X95758000Y-69088000D02*
X97028000Y-70358000D01*
X88160000Y-72471920D02*
X88160000Y-73523000D01*
X87021000Y-72067500D02*
X87755580Y-72067500D01*
X87755580Y-72067500D02*
X88160000Y-72471920D01*
D57*
X143461000Y-92153000D02*
X143764000Y-92456000D01*
X144780000Y-84074000D02*
X144780000Y-90834000D01*
X143764000Y-92456000D02*
X143764000Y-96012000D01*
X138684000Y-87630000D02*
X137414000Y-86360000D01*
X140413000Y-92153000D02*
X138684000Y-90424000D01*
X143764000Y-96012000D02*
X148590000Y-100838000D01*
X144780000Y-90834000D02*
X143461000Y-92153000D01*
D56*
X86106000Y-72644000D02*
X86682500Y-72067500D01*
X87021000Y-72067500D02*
X87510000Y-72556500D01*
D57*
X131812000Y-88152000D02*
X131812000Y-89662000D01*
X137414000Y-86360000D02*
X133604000Y-86360000D01*
D56*
X87510000Y-72556500D02*
X87510000Y-73523000D01*
X97028000Y-70358000D02*
X97028000Y-71882000D01*
D57*
X148692000Y-84074000D02*
X142392000Y-84074000D01*
X142392000Y-84074000D02*
X144780000Y-84074000D01*
X142240000Y-92153000D02*
X143461000Y-92153000D01*
X133604000Y-86360000D02*
X131812000Y-88152000D01*
X142240000Y-92153000D02*
X140413000Y-92153000D01*
X138684000Y-90424000D02*
X138684000Y-87630000D01*
D56*
X86682500Y-72067500D02*
X87021000Y-72067500D01*
X84836000Y-72644000D02*
X86106000Y-72644000D01*
D57*
X148590000Y-100838000D02*
X148590000Y-101586000D01*
D58*
X99824000Y-124458000D02*
X101397000Y-124458000D01*
D56*
X121412000Y-81788000D02*
X121158000Y-81788000D01*
X135864000Y-111760000D02*
X135864000Y-112802000D01*
D57*
X142290000Y-103886000D02*
X142290000Y-99774000D01*
D56*
X102870000Y-79756000D02*
X103137000Y-79489000D01*
X71929000Y-87423000D02*
X71929000Y-89408000D01*
X57404000Y-87156000D02*
X57624000Y-87376000D01*
X96298000Y-87916000D02*
X98509500Y-87916000D01*
X103137000Y-79489000D02*
X103137000Y-78232000D01*
X68149000Y-88138000D02*
X67564000Y-87553000D01*
X103172000Y-80058000D02*
X103172000Y-82253500D01*
D58*
X110812500Y-113482000D02*
X109287500Y-113482000D01*
X77046000Y-80434000D02*
X77046000Y-78374000D01*
D56*
X102672000Y-97578500D02*
X102672000Y-99004000D01*
X121920000Y-81280000D02*
X121412000Y-81788000D01*
D58*
X110244000Y-112982000D02*
X110744000Y-113482000D01*
D56*
X69342000Y-84836000D02*
X71929000Y-87423000D01*
X101587000Y-100089000D02*
X101587000Y-101092000D01*
X102870000Y-79756000D02*
X103172000Y-80058000D01*
X121035000Y-75569000D02*
X121920000Y-76454000D01*
D58*
X94774000Y-87916000D02*
X94742000Y-87884000D01*
X99822000Y-124460000D02*
X99824000Y-124458000D01*
D57*
X142290000Y-99774000D02*
X141224000Y-98708000D01*
D56*
X57404000Y-82999756D02*
X57404000Y-87156000D01*
X102108000Y-99568000D02*
X101587000Y-100089000D01*
X135570800Y-114085200D02*
X135570800Y-115501500D01*
X61804488Y-87376000D02*
X62484000Y-86696488D01*
X68149000Y-88138000D02*
X68149000Y-89378000D01*
X121158000Y-81788000D02*
X121035000Y-81665000D01*
X66860244Y-84836000D02*
X67564000Y-85539756D01*
X121035000Y-74353500D02*
X121035000Y-75569000D01*
X68267756Y-84836000D02*
X69342000Y-84836000D01*
D58*
X111643500Y-114313000D02*
X112522000Y-114313000D01*
D56*
X102672000Y-99004000D02*
X102108000Y-99568000D01*
X57624000Y-87376000D02*
X61804488Y-87376000D01*
D57*
X148590000Y-103886000D02*
X142290000Y-103886000D01*
D56*
X67564000Y-85539756D02*
X68267756Y-84836000D01*
X135864000Y-112802000D02*
X135382000Y-113284000D01*
X121158000Y-81788000D02*
X121412000Y-82042000D01*
X68149000Y-89378000D02*
X68119000Y-89408000D01*
X67564000Y-87553000D02*
X67564000Y-85539756D01*
X77046000Y-80010000D02*
X77046000Y-80856000D01*
X59944000Y-82296000D02*
X58107756Y-82296000D01*
D58*
X81163000Y-100193000D02*
X81163000Y-102684000D01*
D56*
X114618552Y-91916000D02*
X113834500Y-91916000D01*
X115570000Y-92867448D02*
X114618552Y-91916000D01*
X115824000Y-93218000D02*
X117348000Y-93218000D01*
X109672000Y-97578500D02*
X109672000Y-98362552D01*
X87376000Y-81026000D02*
X87330500Y-81026000D01*
X77046000Y-80856000D02*
X77470000Y-81280000D01*
X87376000Y-81026000D02*
X86855000Y-81547000D01*
X121035000Y-81665000D02*
X121035000Y-80078500D01*
X90945000Y-87363000D02*
X90945000Y-86106000D01*
X90932000Y-87376000D02*
X91068000Y-87512000D01*
X90932000Y-87376000D02*
X90945000Y-87363000D01*
X96266000Y-87884000D02*
X96298000Y-87916000D01*
X62484000Y-86696488D02*
X62484000Y-85539756D01*
D57*
X141224000Y-98708000D02*
X140814000Y-98708000D01*
D58*
X81280000Y-100076000D02*
X81163000Y-100193000D01*
D56*
X109220000Y-98814552D02*
X109220000Y-101193600D01*
D58*
X111122500Y-113792000D02*
X110812500Y-113482000D01*
X101092000Y-126492000D02*
X99822000Y-125222000D01*
D56*
X62484000Y-85539756D02*
X63187756Y-84836000D01*
X115570000Y-92964000D02*
X115570000Y-92867448D01*
X109474000Y-80010000D02*
X110172000Y-80708000D01*
X94742000Y-87884000D02*
X96266000Y-87884000D01*
X63187756Y-84836000D02*
X66860244Y-84836000D01*
X109474000Y-78232000D02*
X109474000Y-80010000D01*
X135382000Y-113284000D02*
X135382000Y-113896400D01*
X87510000Y-80892000D02*
X87376000Y-81026000D01*
X110172000Y-80708000D02*
X110172000Y-82253500D01*
X58107756Y-82296000D02*
X57404000Y-82999756D01*
X91068000Y-87512000D02*
X91068000Y-89154000D01*
X135382000Y-113896400D02*
X135570800Y-114085200D01*
X121920000Y-76454000D02*
X121920000Y-81280000D01*
X115570000Y-92964000D02*
X115824000Y-93218000D01*
X61214000Y-83566000D02*
X59944000Y-82296000D01*
X109672000Y-98362552D02*
X109220000Y-98814552D01*
X87510000Y-79248000D02*
X87510000Y-80892000D01*
D58*
X111122500Y-113792000D02*
X111643500Y-114313000D01*
D56*
X121412000Y-82042000D02*
X121412000Y-83312000D01*
D58*
X99822000Y-125222000D02*
X99822000Y-124460000D01*
D56*
X86855000Y-81547000D02*
X86855000Y-82550000D01*
D58*
X109287500Y-112982000D02*
X110244000Y-112982000D01*
D57*
X140814000Y-98708000D02*
X139700000Y-99822000D01*
D58*
X103440500Y-62038500D02*
X92393500Y-62038500D01*
X108458000Y-67056000D02*
X103440500Y-62038500D01*
X109728000Y-70104000D02*
X108458000Y-68834000D01*
X91694000Y-62738000D02*
X91694000Y-63246000D01*
X92393500Y-62038500D02*
X91694000Y-62738000D01*
X108458000Y-68834000D02*
X108458000Y-67056000D01*
X112268000Y-69596000D02*
X110998000Y-68326000D01*
X110998000Y-68326000D02*
X110998000Y-67056000D01*
X112268000Y-70104000D02*
X112268000Y-69596000D01*
X105570499Y-61628499D02*
X91787500Y-61628500D01*
X110998000Y-67056000D02*
X105570499Y-61628499D01*
X89916000Y-66802000D02*
X89916000Y-67056000D01*
X90647000Y-62769000D02*
X90647000Y-66071000D01*
X91787500Y-61628500D02*
X90647000Y-62769000D01*
X90647000Y-66071000D02*
X89916000Y-66802000D01*
X114808000Y-70104000D02*
X113538000Y-68834000D01*
X113538000Y-67056000D02*
X107700499Y-61218499D01*
X107700499Y-61218499D02*
X91177001Y-61218499D01*
X91177001Y-61218499D02*
X89662000Y-62733500D01*
X89662000Y-62733500D02*
X89662000Y-63246000D01*
X113538000Y-68834000D02*
X113538000Y-67056000D01*
X116078000Y-67056000D02*
X109830499Y-60808499D01*
X88646000Y-62785968D02*
X88646000Y-66040000D01*
X117348000Y-70104000D02*
X117348000Y-69596000D01*
X88646000Y-66040000D02*
X87884000Y-66802000D01*
X116078000Y-68326000D02*
X116078000Y-67056000D01*
X90623469Y-60808499D02*
X88646000Y-62785968D01*
X117348000Y-69596000D02*
X116078000Y-68326000D01*
X109830499Y-60808499D02*
X90623469Y-60808499D01*
X87884000Y-66802000D02*
X87884000Y-67056000D01*
X119888000Y-70104000D02*
X119888000Y-69596000D01*
X119888000Y-69596000D02*
X118618000Y-68326000D01*
X89965002Y-60398498D02*
X87630000Y-62733500D01*
X118618000Y-67056000D02*
X111960499Y-60398499D01*
X118618000Y-68326000D02*
X118618000Y-67056000D01*
X87630000Y-62733500D02*
X87630000Y-63246000D01*
X111960499Y-60398499D02*
X89965002Y-60398498D01*
D56*
X122428000Y-70104000D02*
X122428000Y-70358000D01*
X122428000Y-70358000D02*
X119735000Y-73051000D01*
X119735000Y-73051000D02*
X119735000Y-74353500D01*
X104648000Y-68379591D02*
X104648000Y-67564000D01*
X102362000Y-74422000D02*
X105918000Y-70866000D01*
X100584000Y-74422000D02*
X102362000Y-74422000D01*
X117785000Y-73407262D02*
X116561738Y-72184000D01*
X117785000Y-74353500D02*
X117785000Y-73407262D01*
X105918000Y-70670244D02*
X105918000Y-69649591D01*
X105918000Y-69649591D02*
X104648000Y-68379591D01*
X116561738Y-72184000D02*
X107236000Y-72184000D01*
X107236000Y-72184000D02*
X105918000Y-70866000D01*
X105918000Y-70866000D02*
X105918000Y-70670244D01*
X110998000Y-69596000D02*
X110998000Y-70866000D01*
X116752276Y-71724000D02*
X118435000Y-73406724D01*
X118435000Y-73406724D02*
X118435000Y-74353500D01*
X109728000Y-68326000D02*
X110998000Y-69596000D01*
X109728000Y-67564000D02*
X109728000Y-68326000D01*
X110998000Y-70866000D02*
X111856000Y-71724000D01*
X111856000Y-71724000D02*
X116752276Y-71724000D01*
X116942814Y-71264000D02*
X119085000Y-73406186D01*
X116544756Y-71264000D02*
X116942814Y-71264000D01*
X114808000Y-68326000D02*
X116078000Y-69596000D01*
X116078000Y-69596000D02*
X116078000Y-70797244D01*
X114808000Y-67564000D02*
X114808000Y-68326000D01*
X116078000Y-70797244D02*
X116544756Y-71264000D01*
X119085000Y-73406186D02*
X119085000Y-74353500D01*
X121158000Y-68834000D02*
X122925000Y-68834000D01*
X123687000Y-69596000D02*
X123687000Y-70623000D01*
X122925000Y-68834000D02*
X123687000Y-69596000D01*
X123687000Y-70623000D02*
X122936000Y-71374000D01*
X119888000Y-67564000D02*
X121158000Y-68834000D01*
X122936000Y-71374000D02*
X122174000Y-71374000D01*
X122174000Y-71374000D02*
X120385000Y-73163000D01*
X120385000Y-73163000D02*
X120385000Y-74353500D01*
D58*
X94010000Y-68911000D02*
X94010000Y-73523000D01*
X93980000Y-68881000D02*
X94010000Y-68911000D01*
X92933000Y-66626968D02*
X92933000Y-69677000D01*
X92933000Y-69677000D02*
X93360000Y-70104000D01*
X93360000Y-70104000D02*
X93360000Y-73523000D01*
X93726000Y-65833968D02*
X92933000Y-66626968D01*
X93726000Y-65071000D02*
X93726000Y-65833968D01*
X91948000Y-68881000D02*
X91948000Y-69596000D01*
X91948000Y-69596000D02*
X92710000Y-70358000D01*
X92710000Y-70358000D02*
X92710000Y-73523000D01*
D56*
X95722000Y-89916000D02*
X94742000Y-89916000D01*
D57*
X137873000Y-99060000D02*
X137873000Y-97331000D01*
X137922000Y-97282000D02*
X136602000Y-95962000D01*
X134112000Y-89662000D02*
X134112000Y-95962000D01*
X136602000Y-95962000D02*
X134112000Y-95962000D01*
D56*
X98509500Y-89916000D02*
X96810000Y-89916000D01*
X96266000Y-90460000D02*
X95722000Y-89916000D01*
D57*
X137873000Y-97331000D02*
X137922000Y-97282000D01*
D56*
X115570000Y-89916000D02*
X117348000Y-89916000D01*
X115570000Y-89916000D02*
X113834500Y-89916000D01*
X96810000Y-89916000D02*
X96266000Y-90460000D01*
D58*
X92060000Y-70724000D02*
X92060000Y-73523000D01*
X91694000Y-65833968D02*
X90901000Y-66626968D01*
X91694000Y-65071000D02*
X91694000Y-65833968D01*
X90901000Y-66626968D02*
X90901000Y-69565000D01*
X90901000Y-69565000D02*
X92060000Y-70724000D01*
X89916000Y-68881000D02*
X89916000Y-69596000D01*
X89916000Y-69596000D02*
X91410000Y-71090000D01*
X91410000Y-71090000D02*
X91410000Y-73523000D01*
X89662000Y-65833968D02*
X88900000Y-66595968D01*
X90760000Y-71456000D02*
X90760000Y-73523000D01*
X88900000Y-66595968D02*
X88900000Y-69596000D01*
X88900000Y-69596000D02*
X90760000Y-71456000D01*
X89662000Y-65071000D02*
X89662000Y-65833968D01*
X90110000Y-71822000D02*
X90110000Y-73523000D01*
X87884000Y-68881000D02*
X87884000Y-69596000D01*
X87884000Y-69596000D02*
X90110000Y-71822000D01*
X86899000Y-65802000D02*
X87630000Y-65071000D01*
X89460000Y-72188000D02*
X86899000Y-69627000D01*
X89460000Y-73523000D02*
X89460000Y-72188000D01*
X86899000Y-69627000D02*
X86899000Y-65802000D01*
X84836000Y-98806000D02*
X80010000Y-93980000D01*
X97750000Y-111609656D02*
X97750000Y-104464344D01*
X100962500Y-112982000D02*
X99122344Y-112982000D01*
X92091656Y-98806000D02*
X84836000Y-98806000D01*
X74846000Y-81196000D02*
X74846000Y-78374000D01*
X80010000Y-93980000D02*
X80010000Y-86360000D01*
X97750000Y-104464344D02*
X92091656Y-98806000D01*
X80010000Y-86360000D02*
X74846000Y-81196000D01*
X99122344Y-112982000D02*
X97750000Y-111609656D01*
X94234000Y-93726000D02*
X94234000Y-95250000D01*
X91068000Y-94234000D02*
X92084000Y-95250000D01*
X97544000Y-90416000D02*
X94234000Y-93726000D01*
X92084000Y-95250000D02*
X94234000Y-95250000D01*
X98509500Y-90416000D02*
X97544000Y-90416000D01*
X99060000Y-116332000D02*
X99910000Y-115482000D01*
X99910000Y-115482000D02*
X100962500Y-115482000D01*
X99060000Y-115316000D02*
X99394000Y-114982000D01*
X99394000Y-114982000D02*
X100962500Y-114982000D01*
D56*
X134696200Y-123672600D02*
X134696200Y-125197200D01*
X135570800Y-121226500D02*
X135570800Y-122798000D01*
X135570800Y-122798000D02*
X134696200Y-123672600D01*
X136746838Y-125984000D02*
X135459400Y-125984000D01*
X137081400Y-125649438D02*
X136746838Y-125984000D01*
X136870800Y-121226500D02*
X136870800Y-124533162D01*
X136870800Y-124533162D02*
X137081400Y-124743762D01*
X137081400Y-124743762D02*
X137081400Y-125649438D01*
X135459400Y-125984000D02*
X134696200Y-126747200D01*
X137520800Y-123540400D02*
X137515600Y-123545600D01*
X137520800Y-121226500D02*
X137520800Y-123540400D01*
X137896600Y-124434600D02*
X137896600Y-125197200D01*
X137515600Y-123545600D02*
X137515600Y-124053600D01*
X137515600Y-124053600D02*
X137896600Y-124434600D01*
X138681600Y-124569062D02*
X138681600Y-125962200D01*
X138681600Y-125962200D02*
X137896600Y-126747200D01*
X138170800Y-121226500D02*
X138170800Y-124058262D01*
X138170800Y-124058262D02*
X138681600Y-124569062D01*
X139496800Y-124733724D02*
X139496800Y-125196600D01*
X138820800Y-121226500D02*
X138820800Y-124057724D01*
X138820800Y-124057724D02*
X139496800Y-124733724D01*
X136220800Y-121226500D02*
X136220800Y-125121000D01*
X136220800Y-125121000D02*
X136296400Y-125196600D01*
D58*
X127254000Y-119888000D02*
X127762000Y-120396000D01*
X112270000Y-118110000D02*
X120650000Y-118110000D01*
X120650000Y-118110000D02*
X122428000Y-119888000D01*
X111172000Y-114982000D02*
X109287500Y-114982000D01*
X127762000Y-122936000D02*
X129643500Y-124817500D01*
X112268000Y-116332000D02*
X112268000Y-116078000D01*
X122428000Y-119888000D02*
X127254000Y-119888000D01*
X127762000Y-120396000D02*
X127762000Y-122936000D01*
X129643500Y-124817500D02*
X129643500Y-126595500D01*
X112268000Y-118112000D02*
X112270000Y-118110000D01*
X112268000Y-116078000D02*
X111172000Y-114982000D01*
D56*
X131826000Y-121666000D02*
X131468500Y-122023500D01*
X131468500Y-122023500D02*
X131468500Y-126595500D01*
X125476000Y-122174000D02*
X125476000Y-126595500D01*
X125984000Y-121666000D02*
X125476000Y-122174000D01*
D58*
X112551737Y-118797000D02*
X112730737Y-118618000D01*
X121920000Y-122936000D02*
X123651000Y-124667000D01*
X123651000Y-124667000D02*
X123651000Y-126595500D01*
X111583000Y-118395737D02*
X111984263Y-118797000D01*
X111303630Y-118112000D02*
X111583000Y-118391370D01*
X110656000Y-115482000D02*
X109287500Y-115482000D01*
X111984263Y-118797000D02*
X112551737Y-118797000D01*
X111303630Y-116129630D02*
X110656000Y-115482000D01*
X111303630Y-116332000D02*
X111303630Y-116129630D01*
X121920000Y-120142000D02*
X121920000Y-122936000D01*
X112730737Y-118618000D02*
X120396000Y-118618000D01*
X120396000Y-118618000D02*
X121920000Y-120142000D01*
X111583000Y-118391370D02*
X111583000Y-118395737D01*
X106375000Y-118186000D02*
X107061000Y-118872000D01*
X106375000Y-116894500D02*
X106375000Y-118186000D01*
X138097000Y-117427000D02*
X138820800Y-116703200D01*
X109903000Y-117427000D02*
X138097000Y-117427000D01*
X138820800Y-116703200D02*
X138820800Y-115501500D01*
X108458000Y-118872000D02*
X109903000Y-117427000D01*
X107061000Y-118872000D02*
X108458000Y-118872000D01*
X137766000Y-113948000D02*
X140328086Y-113948000D01*
X137520800Y-115501500D02*
X137520800Y-114193200D01*
X141068000Y-114687914D02*
X141068000Y-120443200D01*
X147320000Y-120904000D02*
X146558000Y-121666000D01*
X140328086Y-113948000D02*
X141068000Y-114687914D01*
X147320000Y-119075200D02*
X147320000Y-120904000D01*
X146558000Y-121666000D02*
X144780000Y-121666000D01*
X144780000Y-121666000D02*
X143535400Y-122910600D01*
X146075400Y-117830600D02*
X147320000Y-119075200D01*
X141068000Y-120443200D02*
X143535400Y-122910600D01*
X137520800Y-114193200D02*
X137766000Y-113948000D01*
X138170800Y-116773372D02*
X137927172Y-117017000D01*
X108204000Y-118364000D02*
X107259828Y-118364000D01*
X107259828Y-118364000D02*
X106875000Y-117979172D01*
X106875000Y-117979172D02*
X106875000Y-116894500D01*
X137927172Y-117017000D02*
X109551000Y-117017000D01*
X138170800Y-115501500D02*
X138170800Y-116773372D01*
X109551000Y-117017000D02*
X108204000Y-118364000D01*
X80772000Y-92710000D02*
X86360000Y-98298000D01*
X98160000Y-104294516D02*
X98159999Y-111439827D01*
X98159999Y-111439827D02*
X99202172Y-112482000D01*
X92163484Y-98298000D02*
X98160000Y-104294516D01*
X82546000Y-78374000D02*
X82546000Y-80014000D01*
X82546000Y-80014000D02*
X80772000Y-81788000D01*
X86360000Y-98298000D02*
X92163484Y-98298000D01*
X80772000Y-81788000D02*
X80772000Y-92710000D01*
X99202172Y-112482000D02*
X100962500Y-112482000D01*
X92202000Y-100076000D02*
X96930000Y-104804000D01*
X70866000Y-101092000D02*
X70738000Y-101220000D01*
X70738000Y-101220000D02*
X70738000Y-102684000D01*
X96930000Y-104804000D02*
X96929999Y-111949311D01*
X98962688Y-113982000D02*
X100962500Y-113982000D01*
X96929999Y-111949311D02*
X98962688Y-113982000D01*
X90678000Y-100076000D02*
X92202000Y-100076000D01*
X104786600Y-122947600D02*
X104797000Y-122958000D01*
X103886000Y-118618000D02*
X103875000Y-118607000D01*
X103875000Y-118607000D02*
X103875000Y-116894500D01*
X104602354Y-122947600D02*
X104786600Y-122947600D01*
X104797000Y-122958000D02*
X105797000Y-122958000D01*
X75511000Y-76708000D02*
X75946000Y-77143000D01*
X95504000Y-118110000D02*
X99822000Y-122428000D01*
X99852000Y-122458000D02*
X101397000Y-122458000D01*
X93218000Y-106680000D02*
X95504000Y-108966000D01*
X106172000Y-119634000D02*
X105875000Y-119337000D01*
X73406000Y-76708000D02*
X75511000Y-76708000D01*
X105875000Y-119337000D02*
X105875000Y-116894500D01*
X72644000Y-77470000D02*
X73406000Y-76708000D01*
X86163000Y-101403000D02*
X79073000Y-94313000D01*
X86163000Y-102684000D02*
X90159000Y-106680000D01*
X99822000Y-122428000D02*
X99852000Y-122458000D01*
X86163000Y-102684000D02*
X86163000Y-101403000D01*
X72644000Y-80264000D02*
X72644000Y-77470000D01*
X79073000Y-86693000D02*
X72644000Y-80264000D01*
X79073000Y-94313000D02*
X79073000Y-86693000D01*
X95504000Y-108966000D02*
X95504000Y-118110000D01*
X75946000Y-77143000D02*
X75946000Y-78374000D01*
X90159000Y-106680000D02*
X93218000Y-106680000D01*
X71882000Y-77216000D02*
X73152000Y-75946000D01*
X78663000Y-102684000D02*
X80414414Y-104435414D01*
X103378000Y-122682000D02*
X103378000Y-120189263D01*
X89564000Y-107344000D02*
X92612000Y-107344000D01*
X94742000Y-109474000D02*
X94742000Y-118618000D01*
X78232000Y-102253000D02*
X78232000Y-87030914D01*
X103378000Y-120189263D02*
X104875000Y-118692263D01*
X73152000Y-75946000D02*
X76962000Y-75946000D01*
X104875000Y-118692263D02*
X104875000Y-116894500D01*
X71882000Y-80680914D02*
X71882000Y-77216000D01*
X86655414Y-104435414D02*
X89564000Y-107344000D01*
X78663000Y-102684000D02*
X78232000Y-102253000D01*
X78146000Y-77130000D02*
X78146000Y-78374000D01*
X78232000Y-87030914D02*
X71882000Y-80680914D01*
X101397000Y-123458000D02*
X102602000Y-123458000D01*
X92612000Y-107344000D02*
X94742000Y-109474000D01*
X94742000Y-118618000D02*
X99582000Y-123458000D01*
X99582000Y-123458000D02*
X101397000Y-123458000D01*
X102602000Y-123458000D02*
X103378000Y-122682000D01*
X80414414Y-104435414D02*
X86655414Y-104435414D01*
X76962000Y-75946000D02*
X78146000Y-77130000D01*
X93980000Y-109873222D02*
X92056778Y-107950000D01*
X77216000Y-87376000D02*
X71120000Y-81280000D01*
X105375000Y-119161000D02*
X105375000Y-116894500D01*
X72644000Y-75184000D02*
X78486000Y-75184000D01*
X88822672Y-107950000D02*
X86282672Y-105410000D01*
X78486000Y-75184000D02*
X80346000Y-77044000D01*
X102616000Y-120650000D02*
X102616000Y-122739000D01*
X80346000Y-77044000D02*
X80346000Y-78374000D01*
X75184000Y-105410000D02*
X73738000Y-103964000D01*
X92056778Y-107950000D02*
X88822672Y-107950000D01*
X73738000Y-103964000D02*
X73738000Y-102684000D01*
X71120000Y-76708000D02*
X72644000Y-75184000D01*
X73738000Y-102684000D02*
X74100000Y-102684000D01*
X74100000Y-102684000D02*
X77216000Y-99568000D01*
X71120000Y-81280000D02*
X71120000Y-76708000D01*
X77216000Y-99568000D02*
X77216000Y-87376000D01*
X93980000Y-119126000D02*
X93980000Y-109873222D01*
X98298000Y-123444000D02*
X93980000Y-119126000D01*
X104140000Y-120396000D02*
X105375000Y-119161000D01*
X86282672Y-105410000D02*
X75184000Y-105410000D01*
X102616000Y-122739000D02*
X102397000Y-122958000D01*
X102397000Y-122958000D02*
X101397000Y-122958000D01*
D56*
X62484000Y-82872756D02*
X64584756Y-80772000D01*
X62484000Y-84074000D02*
X62484000Y-82872756D01*
X64584756Y-80772000D02*
X67159500Y-80772000D01*
D58*
X96520000Y-95758000D02*
X96862000Y-95416000D01*
X96862000Y-95416000D02*
X98509500Y-95416000D01*
D56*
X58674000Y-86106000D02*
X59944000Y-84836000D01*
X61722000Y-84836000D02*
X62484000Y-84074000D01*
X59944000Y-84836000D02*
X61722000Y-84836000D01*
D58*
X97378000Y-95916000D02*
X98509500Y-95916000D01*
X96520000Y-96774000D02*
X97378000Y-95916000D01*
X97210000Y-94416000D02*
X98509500Y-94416000D01*
D59*
X66294000Y-88646000D02*
X63754000Y-86106000D01*
X66294000Y-89408000D02*
X66294000Y-88646000D01*
D58*
X96520000Y-93726000D02*
X97210000Y-94416000D01*
X63754000Y-85598000D02*
X63754000Y-86106000D01*
X96520000Y-94742000D02*
X96694000Y-94916000D01*
D59*
X70104000Y-89408000D02*
X70104000Y-87376000D01*
D58*
X96694000Y-94916000D02*
X98509500Y-94916000D01*
D59*
X70104000Y-87376000D02*
X68834000Y-86106000D01*
D58*
X129110500Y-85416000D02*
X113834500Y-85416000D01*
X131976500Y-82042000D02*
X131976500Y-82550000D01*
X131976500Y-82550000D02*
X129110500Y-85416000D01*
X124022500Y-84916000D02*
X113834500Y-84916000D01*
X126896500Y-82042000D02*
X124022500Y-84916000D01*
X116244000Y-84416000D02*
X113834500Y-84416000D01*
X119735000Y-80078500D02*
X119735000Y-80925000D01*
X119735000Y-80925000D02*
X116244000Y-84416000D01*
X114104000Y-82100000D02*
X117361828Y-82100000D01*
X117361828Y-82100000D02*
X118435000Y-81026828D01*
X112522000Y-80830000D02*
X112834000Y-80830000D01*
X118435000Y-81026828D02*
X118435000Y-80078500D01*
X112172000Y-82253500D02*
X112172000Y-81180000D01*
X112834000Y-80830000D02*
X114104000Y-82100000D01*
X112172000Y-81180000D02*
X112522000Y-80830000D01*
X111672000Y-82253500D02*
X111672000Y-80967184D01*
X113003827Y-80419999D02*
X114273828Y-81690000D01*
X112219184Y-80420000D02*
X113003827Y-80419999D01*
X117192000Y-81690000D02*
X117785000Y-81097000D01*
X114273828Y-81690000D02*
X117192000Y-81690000D01*
X117785000Y-81097000D02*
X117785000Y-80078500D01*
X111672000Y-80967184D02*
X112219184Y-80420000D01*
X114443656Y-81280000D02*
X116840000Y-81280000D01*
X112014000Y-100584000D02*
X112014000Y-109728000D01*
X112289000Y-79735000D02*
X111172000Y-80852000D01*
X112014000Y-109728000D02*
X111760000Y-109982000D01*
X111172000Y-80852000D02*
X111172000Y-82253500D01*
X110760000Y-110982000D02*
X109287500Y-110982000D01*
X116840000Y-81280000D02*
X117135000Y-80985000D01*
X117135000Y-80985000D02*
X117135000Y-80078500D01*
X111760000Y-109982000D02*
X110760000Y-110982000D01*
X112289000Y-79735000D02*
X112898656Y-79735000D01*
X112898656Y-79735000D02*
X114443656Y-81280000D01*
X119085000Y-80078500D02*
X119085000Y-80956656D01*
X119085000Y-80956656D02*
X116125656Y-83916000D01*
X116125656Y-83916000D02*
X113834500Y-83916000D01*
X93239259Y-84838001D02*
X97282000Y-84838001D01*
X88810000Y-79248000D02*
X88810000Y-80408742D01*
X97282000Y-84838001D02*
X97359999Y-84916000D01*
X97359999Y-84916000D02*
X98509500Y-84916000D01*
X88810000Y-80408742D02*
X93239259Y-84838001D01*
X98497499Y-84428001D02*
X98509500Y-84416000D01*
X93409087Y-84428001D02*
X98497499Y-84428001D01*
X89460000Y-79248000D02*
X89460000Y-80478914D01*
X89460000Y-80478914D02*
X93409087Y-84428001D01*
X100172000Y-81376000D02*
X100076000Y-81280000D01*
X90110000Y-80549086D02*
X90110000Y-79248000D01*
X97099827Y-83058001D02*
X92618915Y-83058001D01*
X100076000Y-81280000D02*
X98877828Y-81280000D01*
X92618915Y-83058001D02*
X90110000Y-80549086D01*
X100172000Y-82253500D02*
X100172000Y-81376000D01*
X98877828Y-81280000D02*
X97099827Y-83058001D01*
X98708000Y-80870000D02*
X96930000Y-82648000D01*
X100672000Y-81296172D02*
X100245828Y-80870000D01*
X90760000Y-80619258D02*
X90760000Y-79248000D01*
X96930000Y-82648000D02*
X92788742Y-82648000D01*
X100672000Y-82253500D02*
X100672000Y-81296172D01*
X92788742Y-82648000D02*
X90760000Y-80619258D01*
X100245828Y-80870000D02*
X98708000Y-80870000D01*
X101172000Y-82253500D02*
X101172000Y-81216344D01*
X91410000Y-80689430D02*
X91410000Y-79248000D01*
X98518914Y-80460000D02*
X96740914Y-82238000D01*
X100415656Y-80460000D02*
X98518914Y-80460000D01*
X101172000Y-81216344D02*
X100415656Y-80460000D01*
X92958570Y-82238000D02*
X91410000Y-80689430D01*
X96740914Y-82238000D02*
X92958570Y-82238000D01*
X100585484Y-80050000D02*
X101672000Y-81136516D01*
X93128399Y-81828001D02*
X96571085Y-81828001D01*
X98349086Y-80050000D02*
X100585484Y-80050000D01*
X92060000Y-79248000D02*
X92060000Y-80759602D01*
X92060000Y-80759602D02*
X93128399Y-81828001D01*
X96571085Y-81828001D02*
X98349086Y-80050000D01*
X101672000Y-81136516D02*
X101672000Y-82253500D01*
X102172000Y-81056688D02*
X100755311Y-79639999D01*
X100755311Y-79639999D02*
X98179259Y-79639999D01*
X93298227Y-81418001D02*
X92710000Y-80829774D01*
X102172000Y-82253500D02*
X102172000Y-81056688D01*
X96401257Y-81418001D02*
X93298227Y-81418001D01*
X98179259Y-79639999D02*
X96401257Y-81418001D01*
X92710000Y-80829774D02*
X92710000Y-79248000D01*
X98009431Y-79229999D02*
X100925139Y-79229999D01*
X93360000Y-79248000D02*
X93360000Y-80677957D01*
X100925139Y-79229999D02*
X102672000Y-80976860D01*
X93360000Y-80677957D02*
X93690043Y-81008000D01*
X102672000Y-80976860D02*
X102672000Y-82253500D01*
X96231430Y-81008000D02*
X98009431Y-79229999D01*
X93690043Y-81008000D02*
X96231430Y-81008000D01*
X97112172Y-85248001D02*
X93069431Y-85248001D01*
X93069431Y-85248001D02*
X88160000Y-80338570D01*
X88160000Y-80338570D02*
X88160000Y-79248000D01*
X97280171Y-85416000D02*
X97112172Y-85248001D01*
X98509500Y-85416000D02*
X97280171Y-85416000D01*
X108966000Y-124458000D02*
X108966000Y-125456000D01*
X108456000Y-124458000D02*
X110742000Y-124458000D01*
X110742000Y-124458000D02*
X111252000Y-124968000D01*
X105797000Y-124458000D02*
X108456000Y-124458000D01*
X108452000Y-123958000D02*
X110738000Y-123958000D01*
X110738000Y-123958000D02*
X111252000Y-123444000D01*
X108966000Y-123958000D02*
X108966000Y-122956000D01*
X105797000Y-123958000D02*
X108452000Y-123958000D01*
X107239000Y-123190000D02*
X106971000Y-123458000D01*
X106971000Y-123458000D02*
X105797000Y-123458000D01*
X97339999Y-111779483D02*
X97340000Y-104634172D01*
X88663000Y-100059000D02*
X88663000Y-102684000D01*
X89408000Y-99314000D02*
X88663000Y-100059000D01*
X100962500Y-113482000D02*
X99042516Y-113482000D01*
X97340000Y-104634172D02*
X92019828Y-99314000D01*
X99042516Y-113482000D02*
X97339999Y-111779483D01*
X92019828Y-99314000D02*
X89408000Y-99314000D01*
X141478000Y-114518086D02*
X141478000Y-118313200D01*
X143535400Y-120370600D02*
X146075400Y-120370600D01*
X136870800Y-115501500D02*
X136870800Y-114263372D01*
X141478000Y-118313200D02*
X143535400Y-120370600D01*
X140497914Y-113538000D02*
X141478000Y-114518086D01*
X137596172Y-113538000D02*
X140497914Y-113538000D01*
X136870800Y-114263372D02*
X137596172Y-113538000D01*
X69596000Y-101092000D02*
X69538000Y-101150000D01*
X90678000Y-101092000D02*
X92566000Y-101092000D01*
X96520000Y-105046000D02*
X96519999Y-112119139D01*
X98882860Y-114482000D02*
X100962500Y-114482000D01*
X92566000Y-101092000D02*
X96520000Y-105046000D01*
X69538000Y-101150000D02*
X69538000Y-102684000D01*
X96519999Y-112119139D02*
X98882860Y-114482000D01*
X110998000Y-106454887D02*
X110998000Y-109854328D01*
X108172000Y-97578500D02*
X108172000Y-103628887D01*
X108172000Y-103628887D02*
X110998000Y-106454887D01*
X110370328Y-110482000D02*
X109287500Y-110482000D01*
X110998000Y-109854328D02*
X110370328Y-110482000D01*
X110490000Y-109782500D02*
X110290500Y-109982000D01*
X107672000Y-103737602D02*
X110490000Y-106555602D01*
X110490000Y-106555602D02*
X110490000Y-109782500D01*
X107672000Y-97578500D02*
X107672000Y-103737602D01*
X110290500Y-109982000D02*
X109287500Y-109982000D01*
X107172000Y-97578500D02*
X107172000Y-103817430D01*
X107875000Y-104520430D02*
X107875000Y-108569500D01*
X107172000Y-103817430D02*
X107875000Y-104520430D01*
X107375000Y-104600258D02*
X106672000Y-103897258D01*
X106672000Y-103897258D02*
X106672000Y-97578500D01*
X107375000Y-108569500D02*
X107375000Y-104600258D01*
X106172000Y-103977086D02*
X106875000Y-104680086D01*
X106875000Y-104680086D02*
X106875000Y-108569500D01*
X106172000Y-97578500D02*
X106172000Y-103977086D01*
X106375000Y-108569500D02*
X106375000Y-104759914D01*
X105672000Y-104056914D02*
X105672000Y-97578500D01*
X106375000Y-104759914D02*
X105672000Y-104056914D01*
X105172000Y-104156000D02*
X105875000Y-104859000D01*
X105875000Y-104859000D02*
X105875000Y-108569500D01*
X105172000Y-97578500D02*
X105172000Y-104156000D01*
X105375000Y-108569500D02*
X105375000Y-104938828D01*
X105375000Y-104938828D02*
X104672000Y-104235828D01*
X104672000Y-104235828D02*
X104672000Y-97578500D01*
X102875000Y-106138484D02*
X99353998Y-102617482D01*
X102875000Y-108569500D02*
X102875000Y-106138484D01*
X99353998Y-102617482D02*
X99354000Y-99566516D01*
X100172000Y-98748516D02*
X100172000Y-97578500D01*
X99354000Y-99566516D02*
X100172000Y-98748516D01*
X113109000Y-100130435D02*
X113109000Y-110228828D01*
X111355828Y-111982000D02*
X109287500Y-111982000D01*
X112172000Y-99193435D02*
X113109000Y-100130435D01*
X113109000Y-110228828D02*
X111355828Y-111982000D01*
X112172000Y-97578500D02*
X112172000Y-99193435D01*
X111276000Y-111482000D02*
X109287500Y-111482000D01*
X112699000Y-110059000D02*
X111276000Y-111482000D01*
X111672000Y-99273263D02*
X112699000Y-100300263D01*
X112699000Y-100300263D02*
X112699000Y-110059000D01*
X111672000Y-97578500D02*
X111672000Y-99273263D01*
X103875000Y-108569500D02*
X103875000Y-105978828D01*
X100174000Y-99906172D02*
X101172000Y-98908172D01*
X101172000Y-98908172D02*
X101172000Y-97578500D01*
X103875000Y-105978828D02*
X100174000Y-102277828D01*
X100174000Y-102277828D02*
X100174000Y-99906172D01*
X100584000Y-102108000D02*
X100584000Y-100076000D01*
X100584000Y-100076000D02*
X101672000Y-98988000D01*
X101672000Y-98988000D02*
X101672000Y-97578500D01*
X104375000Y-105899000D02*
X100584000Y-102108000D01*
X104375000Y-108569500D02*
X104375000Y-105899000D01*
X103375000Y-106058656D02*
X99763999Y-102447655D01*
X99764000Y-99736344D02*
X100672000Y-98828344D01*
X100672000Y-98828344D02*
X100672000Y-97578500D01*
X99763999Y-102447655D02*
X99764000Y-99736344D01*
X103375000Y-108569500D02*
X103375000Y-106058656D01*
D56*
X127892000Y-74909500D02*
X127892000Y-75438000D01*
X127892000Y-75438000D02*
X127892000Y-75894500D01*
X125880500Y-72898000D02*
X127892000Y-74909500D01*
X127892000Y-75894500D02*
X125984000Y-77802500D01*
X132972000Y-75894500D02*
X131064000Y-77802500D01*
X130432000Y-72898000D02*
X129944500Y-72898000D01*
X132972000Y-75438000D02*
X130432000Y-72898000D01*
X132972000Y-75438000D02*
X132972000Y-75894500D01*
D57*
X139824000Y-70358000D02*
X143510000Y-66672000D01*
X143510000Y-66672000D02*
X143510000Y-63500000D01*
X143510000Y-63500000D02*
X144494000Y-62516000D01*
X144494000Y-62516000D02*
X146304000Y-62516000D01*
X137922000Y-70358000D02*
X139824000Y-70358000D01*
D58*
X62230000Y-99822000D02*
X73660000Y-99822000D01*
X91727312Y-97282000D02*
X98570000Y-104124688D01*
X60706000Y-102108000D02*
X60706000Y-101346000D01*
X98570000Y-104124688D02*
X98570000Y-111270000D01*
X73660000Y-99822000D02*
X74930000Y-98552000D01*
X99282000Y-111982000D02*
X100962500Y-111982000D01*
X60706000Y-101346000D02*
X62230000Y-99822000D01*
X98570000Y-111270000D02*
X99282000Y-111982000D01*
X86868000Y-97282000D02*
X91727312Y-97282000D01*
X104172000Y-104315656D02*
X104172000Y-97578500D01*
X104875000Y-108569500D02*
X104875000Y-105018656D01*
X104875000Y-105018656D02*
X104172000Y-104315656D01*
X94234000Y-98753430D02*
X99314000Y-103833430D01*
X99314000Y-103833430D02*
X99314000Y-110998000D01*
X99314000Y-110998000D02*
X99798000Y-111482000D01*
X99798000Y-111482000D02*
X100962500Y-111482000D01*
X94234000Y-96550000D02*
X94234000Y-98753430D01*
G04 #@! TA.AperFunction,Conductor*
G36*
X149803039Y-59709685D02*
G01*
X149848794Y-59762489D01*
X149860000Y-59814000D01*
X149860000Y-60960000D01*
X151514000Y-60960000D01*
X151581039Y-60979685D01*
X151626794Y-61032489D01*
X151638000Y-61084000D01*
X151638000Y-89792000D01*
X151618315Y-89859039D01*
X151565511Y-89904794D01*
X151514000Y-89916000D01*
X145464500Y-89916000D01*
X145397461Y-89896315D01*
X145351706Y-89843511D01*
X145340500Y-89792000D01*
X145340500Y-86624000D01*
X147192000Y-86624000D01*
X147192000Y-86825096D01*
X147194897Y-86867824D01*
X147240831Y-87052523D01*
X147325390Y-87223022D01*
X147325392Y-87223025D01*
X147444632Y-87371366D01*
X147444633Y-87371367D01*
X147592974Y-87490607D01*
X147592977Y-87490609D01*
X147763476Y-87575168D01*
X147948175Y-87621102D01*
X147990903Y-87624000D01*
X148442000Y-87624000D01*
X148442000Y-86624000D01*
X148942000Y-86624000D01*
X148942000Y-87624000D01*
X149393097Y-87624000D01*
X149435824Y-87621102D01*
X149620523Y-87575168D01*
X149791022Y-87490609D01*
X149791025Y-87490607D01*
X149939366Y-87371367D01*
X149939367Y-87371366D01*
X150058607Y-87223025D01*
X150058609Y-87223022D01*
X150143168Y-87052523D01*
X150189102Y-86867824D01*
X150192000Y-86825096D01*
X150192000Y-86624000D01*
X148942000Y-86624000D01*
X148442000Y-86624000D01*
X147192000Y-86624000D01*
X145340500Y-86624000D01*
X145340500Y-84758500D01*
X145360185Y-84691461D01*
X145412989Y-84645706D01*
X145464500Y-84634500D01*
X147480123Y-84634500D01*
X147547162Y-84654185D01*
X147592917Y-84706989D01*
X147595478Y-84713011D01*
X147595837Y-84713922D01*
X147595838Y-84713924D01*
X147684783Y-84831216D01*
X147802075Y-84920161D01*
X147802078Y-84920163D01*
X147819571Y-84927061D01*
X147874716Y-84969967D01*
X147897909Y-85035874D01*
X147881789Y-85103859D01*
X147831472Y-85152336D01*
X147804009Y-85162750D01*
X147763484Y-85172828D01*
X147763476Y-85172831D01*
X147592977Y-85257390D01*
X147592974Y-85257392D01*
X147444633Y-85376632D01*
X147444632Y-85376633D01*
X147325392Y-85524974D01*
X147325390Y-85524977D01*
X147240831Y-85695476D01*
X147194897Y-85880175D01*
X147192000Y-85922903D01*
X147192000Y-86124000D01*
X150192000Y-86124000D01*
X150192000Y-85922903D01*
X150189102Y-85880175D01*
X150143168Y-85695476D01*
X150058609Y-85524977D01*
X150058607Y-85524974D01*
X149939367Y-85376633D01*
X149939366Y-85376632D01*
X149791025Y-85257392D01*
X149791022Y-85257390D01*
X149620523Y-85172831D01*
X149620521Y-85172830D01*
X149579991Y-85162751D01*
X149519684Y-85127468D01*
X149488025Y-85065183D01*
X149495066Y-84995669D01*
X149538572Y-84940997D01*
X149564426Y-84927062D01*
X149581922Y-84920163D01*
X149699216Y-84831216D01*
X149788163Y-84713922D01*
X149842166Y-84576979D01*
X149852500Y-84490927D01*
X149852499Y-83657074D01*
X149842166Y-83571021D01*
X149788163Y-83434078D01*
X149788161Y-83434075D01*
X149699216Y-83316783D01*
X149581924Y-83227838D01*
X149581922Y-83227837D01*
X149444979Y-83173834D01*
X149444978Y-83173833D01*
X149358927Y-83163500D01*
X148025080Y-83163500D01*
X147939022Y-83173833D01*
X147802077Y-83227837D01*
X147802075Y-83227838D01*
X147684783Y-83316783D01*
X147595838Y-83434075D01*
X147595837Y-83434077D01*
X147595478Y-83434989D01*
X147594926Y-83435698D01*
X147591681Y-83441470D01*
X147590814Y-83440982D01*
X147552572Y-83490134D01*
X147486665Y-83513327D01*
X147480123Y-83513500D01*
X144824867Y-83513500D01*
X144808682Y-83512439D01*
X144780000Y-83508663D01*
X144751317Y-83512439D01*
X144735133Y-83513500D01*
X143676499Y-83513500D01*
X143609460Y-83493815D01*
X143563705Y-83441011D01*
X143552499Y-83389500D01*
X143552499Y-82620611D01*
X143546453Y-82554073D01*
X143546452Y-82554070D01*
X143546452Y-82554067D01*
X143498733Y-82400931D01*
X143423802Y-82276979D01*
X143415757Y-82263670D01*
X143415753Y-82263665D01*
X143302334Y-82150246D01*
X143302329Y-82150242D01*
X143165070Y-82067267D01*
X143165066Y-82067265D01*
X143011933Y-82019548D01*
X143011935Y-82019548D01*
X142985312Y-82017128D01*
X142945381Y-82013500D01*
X142945378Y-82013500D01*
X141838611Y-82013500D01*
X141772073Y-82019546D01*
X141772066Y-82019548D01*
X141618933Y-82067265D01*
X141618929Y-82067267D01*
X141481670Y-82150242D01*
X141481665Y-82150246D01*
X141368246Y-82263665D01*
X141368242Y-82263670D01*
X141285267Y-82400929D01*
X141285265Y-82400933D01*
X141237548Y-82554065D01*
X141237548Y-82554066D01*
X141237548Y-82554067D01*
X141231542Y-82620163D01*
X141231500Y-82620621D01*
X141231500Y-85527388D01*
X141237546Y-85593926D01*
X141237548Y-85593933D01*
X141285265Y-85747066D01*
X141285267Y-85747070D01*
X141368242Y-85884329D01*
X141368246Y-85884334D01*
X141481665Y-85997753D01*
X141481670Y-85997757D01*
X141618929Y-86080732D01*
X141618933Y-86080734D01*
X141673100Y-86097612D01*
X141772067Y-86128452D01*
X141838619Y-86134500D01*
X142945380Y-86134499D01*
X142945388Y-86134499D01*
X143011926Y-86128453D01*
X143011927Y-86128452D01*
X143011933Y-86128452D01*
X143165069Y-86080733D01*
X143235717Y-86038024D01*
X143302329Y-85997757D01*
X143302330Y-85997755D01*
X143302335Y-85997753D01*
X143415753Y-85884335D01*
X143444175Y-85837320D01*
X143498732Y-85747070D01*
X143498733Y-85747069D01*
X143546452Y-85593933D01*
X143552500Y-85527381D01*
X143552500Y-84758500D01*
X143572185Y-84691461D01*
X143624989Y-84645706D01*
X143676500Y-84634500D01*
X144095500Y-84634500D01*
X144162539Y-84654185D01*
X144208294Y-84706989D01*
X144219500Y-84758500D01*
X144219500Y-90550470D01*
X144199815Y-90617509D01*
X144183181Y-90638151D01*
X143319615Y-91501717D01*
X143258292Y-91535202D01*
X143188600Y-91530218D01*
X143144253Y-91501717D01*
X143134299Y-91491763D01*
X143134295Y-91491760D01*
X143134294Y-91491759D01*
X143018433Y-91432725D01*
X143018431Y-91432724D01*
X143018428Y-91432723D01*
X142922307Y-91417500D01*
X141557688Y-91417500D01*
X141557688Y-91417501D01*
X141461571Y-91432723D01*
X141461570Y-91432723D01*
X141345704Y-91491760D01*
X141313494Y-91523970D01*
X141281282Y-91556182D01*
X141219962Y-91589666D01*
X141193603Y-91592500D01*
X140696529Y-91592500D01*
X140629490Y-91572815D01*
X140608848Y-91556181D01*
X139280819Y-90228152D01*
X139247334Y-90166829D01*
X139244500Y-90140471D01*
X139244500Y-89453000D01*
X140840001Y-89453000D01*
X140840001Y-89577986D01*
X140850494Y-89680697D01*
X140905641Y-89847119D01*
X140905643Y-89847124D01*
X140997684Y-89996345D01*
X141121654Y-90120315D01*
X141270875Y-90212356D01*
X141270880Y-90212358D01*
X141437302Y-90267505D01*
X141437309Y-90267506D01*
X141540019Y-90277999D01*
X141989999Y-90277999D01*
X141990000Y-90277998D01*
X141990000Y-89453000D01*
X142490000Y-89453000D01*
X142490000Y-90277999D01*
X142939972Y-90277999D01*
X142939986Y-90277998D01*
X143042697Y-90267505D01*
X143209119Y-90212358D01*
X143209124Y-90212356D01*
X143358345Y-90120315D01*
X143482315Y-89996345D01*
X143574356Y-89847124D01*
X143574358Y-89847119D01*
X143629505Y-89680697D01*
X143629506Y-89680690D01*
X143639999Y-89577986D01*
X143640000Y-89577973D01*
X143640000Y-89453000D01*
X142490000Y-89453000D01*
X141990000Y-89453000D01*
X140840001Y-89453000D01*
X139244500Y-89453000D01*
X139244500Y-88953000D01*
X140840000Y-88953000D01*
X141990000Y-88953000D01*
X141990000Y-88128000D01*
X142490000Y-88128000D01*
X142490000Y-88953000D01*
X143639999Y-88953000D01*
X143639999Y-88828028D01*
X143639998Y-88828013D01*
X143629505Y-88725302D01*
X143574358Y-88558880D01*
X143574356Y-88558875D01*
X143482315Y-88409654D01*
X143358345Y-88285684D01*
X143209124Y-88193643D01*
X143209119Y-88193641D01*
X143042697Y-88138494D01*
X143042690Y-88138493D01*
X142939986Y-88128000D01*
X142490000Y-88128000D01*
X141990000Y-88128000D01*
X141540028Y-88128000D01*
X141540012Y-88128001D01*
X141437302Y-88138494D01*
X141270880Y-88193641D01*
X141270875Y-88193643D01*
X141121654Y-88285684D01*
X140997684Y-88409654D01*
X140905643Y-88558875D01*
X140905641Y-88558880D01*
X140850494Y-88725302D01*
X140850493Y-88725309D01*
X140840000Y-88828013D01*
X140840000Y-88953000D01*
X139244500Y-88953000D01*
X139244500Y-87674867D01*
X139245561Y-87658681D01*
X139249337Y-87629999D01*
X139249337Y-87629998D01*
X139230074Y-87483681D01*
X139230074Y-87483680D01*
X139175151Y-87351086D01*
X139173874Y-87347693D01*
X139106313Y-87259646D01*
X139106312Y-87259644D01*
X139083755Y-87230246D01*
X139083754Y-87230245D01*
X139060794Y-87212627D01*
X139048600Y-87201933D01*
X137842061Y-85995394D01*
X137831366Y-85983199D01*
X137813751Y-85960242D01*
X137774232Y-85929920D01*
X137774231Y-85929919D01*
X137696669Y-85870404D01*
X137656731Y-85853861D01*
X137560320Y-85813926D01*
X137489723Y-85804631D01*
X137489722Y-85804630D01*
X137414001Y-85794662D01*
X137413999Y-85794662D01*
X137385312Y-85798439D01*
X137369126Y-85799500D01*
X133648874Y-85799500D01*
X133632687Y-85798439D01*
X133604000Y-85794662D01*
X133603999Y-85794662D01*
X133528276Y-85804630D01*
X133528276Y-85804631D01*
X133504744Y-85807729D01*
X133457678Y-85813926D01*
X133401201Y-85837320D01*
X133321330Y-85870402D01*
X133262515Y-85915532D01*
X133262516Y-85915533D01*
X133204246Y-85960246D01*
X133186623Y-85983211D01*
X133175932Y-85995400D01*
X131447395Y-87723936D01*
X131435205Y-87734627D01*
X131412246Y-87752245D01*
X131389687Y-87781646D01*
X131322123Y-87869696D01*
X131320848Y-87873085D01*
X131265927Y-88005676D01*
X131265925Y-88005681D01*
X131262758Y-88029749D01*
X131262757Y-88029753D01*
X131246662Y-88151999D01*
X131250439Y-88180686D01*
X131251500Y-88196873D01*
X131251500Y-88450122D01*
X131231815Y-88517161D01*
X131179011Y-88562916D01*
X131173001Y-88565472D01*
X131172084Y-88565833D01*
X131172075Y-88565838D01*
X131054783Y-88654783D01*
X130965838Y-88772075D01*
X130911833Y-88909022D01*
X130901500Y-88995072D01*
X130901500Y-90328919D01*
X130911833Y-90414977D01*
X130965837Y-90551922D01*
X130965838Y-90551924D01*
X131054783Y-90669216D01*
X131172075Y-90758161D01*
X131172078Y-90758163D01*
X131309021Y-90812166D01*
X131395073Y-90822500D01*
X132228926Y-90822499D01*
X132314979Y-90812166D01*
X132451922Y-90758163D01*
X132569216Y-90669216D01*
X132658163Y-90551922D01*
X132712166Y-90414979D01*
X132722500Y-90328927D01*
X132722499Y-88995074D01*
X132712166Y-88909021D01*
X132658163Y-88772078D01*
X132658161Y-88772075D01*
X132569216Y-88654783D01*
X132451924Y-88565838D01*
X132451915Y-88565833D01*
X132450999Y-88565472D01*
X132450286Y-88564917D01*
X132444530Y-88561681D01*
X132445016Y-88560816D01*
X132395859Y-88522561D01*
X132372672Y-88456651D01*
X132372500Y-88450122D01*
X132372500Y-88435528D01*
X132392185Y-88368489D01*
X132408819Y-88347847D01*
X133799847Y-86956819D01*
X133861170Y-86923334D01*
X133887528Y-86920500D01*
X137130471Y-86920500D01*
X137197510Y-86940185D01*
X137218152Y-86956819D01*
X138087181Y-87825848D01*
X138120666Y-87887171D01*
X138123500Y-87913529D01*
X138123500Y-90379126D01*
X138122439Y-90395312D01*
X138118662Y-90423999D01*
X138118662Y-90424000D01*
X138124806Y-90470662D01*
X138124806Y-90470664D01*
X138137925Y-90570318D01*
X138137926Y-90570320D01*
X138194403Y-90706668D01*
X138194404Y-90706669D01*
X138284246Y-90823754D01*
X138307208Y-90841373D01*
X138319395Y-90852062D01*
X139984937Y-92517604D01*
X139995631Y-92529798D01*
X140013247Y-92552756D01*
X140042644Y-92575312D01*
X140042645Y-92575312D01*
X140042646Y-92575313D01*
X140130331Y-92642596D01*
X140170267Y-92659137D01*
X140266680Y-92699074D01*
X140376259Y-92713500D01*
X140376260Y-92713500D01*
X140380286Y-92714030D01*
X140412999Y-92718337D01*
X140413000Y-92718337D01*
X140441682Y-92714560D01*
X140457867Y-92713500D01*
X141193603Y-92713500D01*
X141260642Y-92733185D01*
X141281279Y-92749814D01*
X141345706Y-92814241D01*
X141461567Y-92873275D01*
X141461569Y-92873275D01*
X141461571Y-92873276D01*
X141490728Y-92877893D01*
X141557693Y-92888500D01*
X142922306Y-92888499D01*
X142922311Y-92888499D01*
X142922311Y-92888498D01*
X142970369Y-92880887D01*
X143018428Y-92873276D01*
X143018429Y-92873275D01*
X143018433Y-92873275D01*
X143023202Y-92870844D01*
X143091869Y-92857945D01*
X143156611Y-92884219D01*
X143196870Y-92941324D01*
X143203500Y-92981327D01*
X143203500Y-95967126D01*
X143202439Y-95983312D01*
X143198662Y-96011999D01*
X143198662Y-96012000D01*
X143204617Y-96057227D01*
X143204617Y-96057228D01*
X143217926Y-96158321D01*
X143257861Y-96254730D01*
X143257861Y-96254731D01*
X143274404Y-96294669D01*
X143285327Y-96308905D01*
X143285332Y-96308910D01*
X143356856Y-96402124D01*
X143364246Y-96411754D01*
X143387208Y-96429373D01*
X143399395Y-96440062D01*
X144235681Y-97276348D01*
X144269166Y-97337670D01*
X144272000Y-97364028D01*
X144272000Y-98044000D01*
X144951971Y-98044000D01*
X145019010Y-98063685D01*
X145039652Y-98080319D01*
X147599004Y-100639670D01*
X147632489Y-100700993D01*
X147627505Y-100770685D01*
X147588767Y-100822772D01*
X147588781Y-100822786D01*
X147588689Y-100822877D01*
X147586258Y-100826147D01*
X147582788Y-100828778D01*
X147582785Y-100828781D01*
X147493838Y-100946075D01*
X147439833Y-101083022D01*
X147429500Y-101169072D01*
X147429500Y-102002919D01*
X147439833Y-102088977D01*
X147493837Y-102225922D01*
X147493838Y-102225924D01*
X147582783Y-102343216D01*
X147612925Y-102366073D01*
X147700078Y-102432163D01*
X147837021Y-102486166D01*
X147923073Y-102496500D01*
X149256926Y-102496499D01*
X149342979Y-102486166D01*
X149479922Y-102432163D01*
X149597216Y-102343216D01*
X149686163Y-102225922D01*
X149740166Y-102088979D01*
X149750500Y-102002927D01*
X149750499Y-101169074D01*
X149740166Y-101083021D01*
X149686163Y-100946078D01*
X149686161Y-100946075D01*
X149597216Y-100828783D01*
X149479924Y-100739838D01*
X149479922Y-100739837D01*
X149342979Y-100685834D01*
X149342978Y-100685833D01*
X149256928Y-100675500D01*
X149256927Y-100675500D01*
X149212226Y-100675500D01*
X149145187Y-100655815D01*
X149099432Y-100603011D01*
X149097665Y-100598952D01*
X149090931Y-100582696D01*
X149079597Y-100555331D01*
X149034465Y-100496515D01*
X148989754Y-100438246D01*
X148966794Y-100420628D01*
X148954600Y-100409934D01*
X146800348Y-98255681D01*
X146766863Y-98194358D01*
X146771847Y-98124666D01*
X146813719Y-98068733D01*
X146879183Y-98044316D01*
X146888029Y-98044000D01*
X151514000Y-98044000D01*
X151581039Y-98063685D01*
X151626794Y-98116489D01*
X151638000Y-98168000D01*
X151638000Y-109858000D01*
X151618315Y-109925039D01*
X151565511Y-109970794D01*
X151514000Y-109982000D01*
X143821092Y-109982000D01*
X143754053Y-109962315D01*
X143726802Y-109938532D01*
X143658021Y-109858000D01*
X143646956Y-109845044D01*
X143540591Y-109754200D01*
X143452401Y-109678878D01*
X143452396Y-109678875D01*
X143234242Y-109545190D01*
X143234239Y-109545188D01*
X142997864Y-109447279D01*
X142997860Y-109447278D01*
X142749070Y-109387548D01*
X142749068Y-109387547D01*
X142749065Y-109387547D01*
X142557868Y-109372500D01*
X142557863Y-109372500D01*
X142430137Y-109372500D01*
X142430131Y-109372500D01*
X142238934Y-109387547D01*
X141990135Y-109447279D01*
X141753760Y-109545188D01*
X141753757Y-109545190D01*
X141535603Y-109678875D01*
X141535591Y-109678883D01*
X141428204Y-109770601D01*
X141364443Y-109799172D01*
X141295357Y-109788735D01*
X141259992Y-109763992D01*
X139482319Y-107986319D01*
X139448834Y-107924996D01*
X139446000Y-107898638D01*
X139446000Y-106436000D01*
X147090000Y-106436000D01*
X147090000Y-106637096D01*
X147092897Y-106679824D01*
X147138831Y-106864523D01*
X147223390Y-107035022D01*
X147223392Y-107035025D01*
X147342632Y-107183366D01*
X147342633Y-107183367D01*
X147490974Y-107302607D01*
X147490977Y-107302609D01*
X147661476Y-107387168D01*
X147846175Y-107433102D01*
X147888903Y-107436000D01*
X148340000Y-107436000D01*
X148340000Y-106436000D01*
X148840000Y-106436000D01*
X148840000Y-107436000D01*
X149291097Y-107436000D01*
X149333824Y-107433102D01*
X149518523Y-107387168D01*
X149689022Y-107302609D01*
X149689025Y-107302607D01*
X149837366Y-107183367D01*
X149837367Y-107183366D01*
X149956607Y-107035025D01*
X149956609Y-107035022D01*
X150041168Y-106864523D01*
X150087102Y-106679824D01*
X150090000Y-106637096D01*
X150090000Y-106436000D01*
X148840000Y-106436000D01*
X148340000Y-106436000D01*
X147090000Y-106436000D01*
X139446000Y-106436000D01*
X139446000Y-103378000D01*
X138176000Y-102108000D01*
X133147362Y-102108000D01*
X133080323Y-102088315D01*
X133059681Y-102071681D01*
X130298000Y-99310000D01*
X133848001Y-99310000D01*
X133848001Y-99759986D01*
X133858494Y-99862697D01*
X133913641Y-100029119D01*
X133913643Y-100029124D01*
X134005684Y-100178345D01*
X134129654Y-100302315D01*
X134278875Y-100394356D01*
X134278880Y-100394358D01*
X134445302Y-100449505D01*
X134445309Y-100449506D01*
X134548019Y-100459999D01*
X134672999Y-100459999D01*
X134673000Y-100459998D01*
X134673000Y-99310000D01*
X135173000Y-99310000D01*
X135173000Y-100459999D01*
X135297972Y-100459999D01*
X135297986Y-100459998D01*
X135400697Y-100449505D01*
X135567119Y-100394358D01*
X135567124Y-100394356D01*
X135716345Y-100302315D01*
X135840315Y-100178345D01*
X135932356Y-100029124D01*
X135932358Y-100029119D01*
X135987505Y-99862697D01*
X135987506Y-99862690D01*
X135997999Y-99759986D01*
X135998000Y-99759973D01*
X135998000Y-99310000D01*
X135173000Y-99310000D01*
X134673000Y-99310000D01*
X133848001Y-99310000D01*
X130298000Y-99310000D01*
X129798000Y-98810000D01*
X133848000Y-98810000D01*
X134673000Y-98810000D01*
X134673000Y-97660000D01*
X135173000Y-97660000D01*
X135173000Y-98810000D01*
X135997999Y-98810000D01*
X135997999Y-98360028D01*
X135997998Y-98360013D01*
X135987505Y-98257302D01*
X135932358Y-98090880D01*
X135932356Y-98090875D01*
X135840315Y-97941654D01*
X135716345Y-97817684D01*
X135567124Y-97725643D01*
X135567119Y-97725641D01*
X135400697Y-97670494D01*
X135400690Y-97670493D01*
X135297986Y-97660000D01*
X135173000Y-97660000D01*
X134673000Y-97660000D01*
X134548027Y-97660000D01*
X134548012Y-97660001D01*
X134445302Y-97670494D01*
X134278880Y-97725641D01*
X134278875Y-97725643D01*
X134129654Y-97817684D01*
X134005684Y-97941654D01*
X133913643Y-98090875D01*
X133913641Y-98090880D01*
X133858494Y-98257302D01*
X133858493Y-98257309D01*
X133848000Y-98360013D01*
X133848000Y-98810000D01*
X129798000Y-98810000D01*
X129322319Y-98334319D01*
X129288834Y-98272996D01*
X129286000Y-98246638D01*
X129286000Y-96515388D01*
X132051500Y-96515388D01*
X132057546Y-96581926D01*
X132057548Y-96581933D01*
X132105265Y-96735066D01*
X132105267Y-96735070D01*
X132188242Y-96872329D01*
X132188246Y-96872334D01*
X132301665Y-96985753D01*
X132301670Y-96985757D01*
X132438929Y-97068732D01*
X132438933Y-97068734D01*
X132493100Y-97085612D01*
X132592067Y-97116452D01*
X132658619Y-97122500D01*
X135565380Y-97122499D01*
X135565388Y-97122499D01*
X135631926Y-97116453D01*
X135631927Y-97116452D01*
X135631933Y-97116452D01*
X135785069Y-97068733D01*
X135899873Y-96999332D01*
X135922329Y-96985757D01*
X135922330Y-96985755D01*
X135922335Y-96985753D01*
X136035753Y-96872335D01*
X136046878Y-96853933D01*
X136082030Y-96795784D01*
X136118733Y-96735069D01*
X136137353Y-96675315D01*
X136157828Y-96609610D01*
X136196565Y-96551462D01*
X136260591Y-96523488D01*
X136276213Y-96522500D01*
X136318471Y-96522500D01*
X136385510Y-96542185D01*
X136406152Y-96558819D01*
X137276181Y-97428847D01*
X137309666Y-97490170D01*
X137312500Y-97516528D01*
X137312500Y-98013602D01*
X137292815Y-98080641D01*
X137276181Y-98101283D01*
X137211763Y-98165700D01*
X137211760Y-98165704D01*
X137152723Y-98281571D01*
X137137500Y-98377692D01*
X137137500Y-99742311D01*
X137152723Y-99838428D01*
X137152723Y-99838429D01*
X137211760Y-99954295D01*
X137211763Y-99954299D01*
X137303700Y-100046236D01*
X137303704Y-100046239D01*
X137303706Y-100046241D01*
X137419567Y-100105275D01*
X137419569Y-100105275D01*
X137419571Y-100105276D01*
X137448728Y-100109893D01*
X137515693Y-100120500D01*
X138230306Y-100120499D01*
X138230311Y-100120499D01*
X138230311Y-100120498D01*
X138278369Y-100112887D01*
X138326428Y-100105276D01*
X138326429Y-100105276D01*
X138326430Y-100105275D01*
X138326433Y-100105275D01*
X138442294Y-100046241D01*
X138534241Y-99954294D01*
X138593275Y-99838433D01*
X138595878Y-99822000D01*
X139134662Y-99822000D01*
X139136826Y-99838434D01*
X139136826Y-99838435D01*
X139140020Y-99862697D01*
X139152079Y-99954294D01*
X139153926Y-99968319D01*
X139153926Y-99968320D01*
X139210403Y-100104668D01*
X139210404Y-100104669D01*
X139300246Y-100221754D01*
X139417331Y-100311596D01*
X139553680Y-100368074D01*
X139626840Y-100377705D01*
X139700000Y-100387338D01*
X139773160Y-100377705D01*
X139846320Y-100368074D01*
X139982669Y-100311596D01*
X140099754Y-100221754D01*
X140117372Y-100198792D01*
X140128053Y-100186612D01*
X140834847Y-99479817D01*
X140896170Y-99446333D01*
X140922528Y-99443499D01*
X141115470Y-99443499D01*
X141182509Y-99463184D01*
X141203151Y-99479818D01*
X141693181Y-99969847D01*
X141726666Y-100031170D01*
X141729500Y-100057528D01*
X141729500Y-101721787D01*
X141709815Y-101788826D01*
X141657011Y-101834581D01*
X141642390Y-101840172D01*
X141516933Y-101879265D01*
X141516929Y-101879267D01*
X141379670Y-101962242D01*
X141379665Y-101962246D01*
X141266246Y-102075665D01*
X141266242Y-102075670D01*
X141183267Y-102212929D01*
X141183265Y-102212933D01*
X141135548Y-102366065D01*
X141135548Y-102366066D01*
X141135548Y-102366067D01*
X141129542Y-102432163D01*
X141129500Y-102432621D01*
X141129500Y-105339388D01*
X141135546Y-105405926D01*
X141135548Y-105405933D01*
X141183265Y-105559066D01*
X141183267Y-105559070D01*
X141266242Y-105696329D01*
X141266246Y-105696334D01*
X141379665Y-105809753D01*
X141379670Y-105809757D01*
X141516929Y-105892732D01*
X141516933Y-105892734D01*
X141571100Y-105909612D01*
X141670067Y-105940452D01*
X141736619Y-105946500D01*
X142843380Y-105946499D01*
X142843388Y-105946499D01*
X142909926Y-105940453D01*
X142909927Y-105940452D01*
X142909933Y-105940452D01*
X143063069Y-105892733D01*
X143133717Y-105850024D01*
X143200329Y-105809757D01*
X143200330Y-105809755D01*
X143200335Y-105809753D01*
X143313753Y-105696335D01*
X143396733Y-105559069D01*
X143444452Y-105405933D01*
X143450500Y-105339381D01*
X143450500Y-104570500D01*
X143470185Y-104503461D01*
X143522989Y-104457706D01*
X143574500Y-104446500D01*
X147378123Y-104446500D01*
X147445162Y-104466185D01*
X147490917Y-104518989D01*
X147493478Y-104525011D01*
X147493837Y-104525922D01*
X147493838Y-104525924D01*
X147582783Y-104643216D01*
X147700075Y-104732161D01*
X147700078Y-104732163D01*
X147717571Y-104739061D01*
X147772716Y-104781967D01*
X147795909Y-104847874D01*
X147779789Y-104915859D01*
X147729472Y-104964336D01*
X147702009Y-104974750D01*
X147661484Y-104984828D01*
X147661476Y-104984831D01*
X147490977Y-105069390D01*
X147490974Y-105069392D01*
X147342633Y-105188632D01*
X147342632Y-105188633D01*
X147223392Y-105336974D01*
X147223390Y-105336977D01*
X147138831Y-105507476D01*
X147092897Y-105692175D01*
X147090000Y-105734903D01*
X147090000Y-105936000D01*
X150090000Y-105936000D01*
X150090000Y-105734903D01*
X150087102Y-105692175D01*
X150041168Y-105507476D01*
X149956609Y-105336977D01*
X149956607Y-105336974D01*
X149837367Y-105188633D01*
X149837366Y-105188632D01*
X149689025Y-105069392D01*
X149689022Y-105069390D01*
X149518523Y-104984831D01*
X149518521Y-104984830D01*
X149477991Y-104974751D01*
X149417684Y-104939468D01*
X149386025Y-104877183D01*
X149393066Y-104807669D01*
X149436572Y-104752997D01*
X149462426Y-104739062D01*
X149479922Y-104732163D01*
X149597216Y-104643216D01*
X149686163Y-104525922D01*
X149740166Y-104388979D01*
X149750500Y-104302927D01*
X149750499Y-103469074D01*
X149740166Y-103383021D01*
X149686163Y-103246078D01*
X149686161Y-103246075D01*
X149597216Y-103128783D01*
X149479924Y-103039838D01*
X149479922Y-103039837D01*
X149342979Y-102985834D01*
X149342978Y-102985833D01*
X149256927Y-102975500D01*
X147923080Y-102975500D01*
X147837022Y-102985833D01*
X147700077Y-103039837D01*
X147700075Y-103039838D01*
X147582783Y-103128783D01*
X147493838Y-103246075D01*
X147493837Y-103246077D01*
X147493478Y-103246989D01*
X147492926Y-103247698D01*
X147489681Y-103253470D01*
X147488814Y-103252982D01*
X147450572Y-103302134D01*
X147384665Y-103325327D01*
X147378123Y-103325500D01*
X143574499Y-103325500D01*
X143507460Y-103305815D01*
X143461705Y-103253011D01*
X143450499Y-103201500D01*
X143450499Y-102432611D01*
X143444453Y-102366073D01*
X143444452Y-102366070D01*
X143444452Y-102366067D01*
X143396733Y-102212931D01*
X143396732Y-102212929D01*
X143313757Y-102075670D01*
X143313753Y-102075665D01*
X143200334Y-101962246D01*
X143200329Y-101962242D01*
X143063070Y-101879267D01*
X143063066Y-101879265D01*
X142937610Y-101840172D01*
X142879462Y-101801435D01*
X142851488Y-101737409D01*
X142850500Y-101721787D01*
X142850500Y-99818873D01*
X142851561Y-99802686D01*
X142855338Y-99773999D01*
X142842393Y-99675680D01*
X142842393Y-99675679D01*
X142836074Y-99627681D01*
X142836072Y-99627676D01*
X142799479Y-99539331D01*
X142779597Y-99491332D01*
X142779596Y-99491329D01*
X142726585Y-99422245D01*
X142726583Y-99422243D01*
X142689754Y-99374245D01*
X142666794Y-99356628D01*
X142654599Y-99345933D01*
X142320818Y-99012152D01*
X142287333Y-98950829D01*
X142284499Y-98924471D01*
X142284499Y-98350688D01*
X142269276Y-98254571D01*
X142269276Y-98254570D01*
X142269275Y-98254568D01*
X142269275Y-98254567D01*
X142210241Y-98138706D01*
X142210239Y-98138704D01*
X142210236Y-98138700D01*
X142118299Y-98046763D01*
X142118295Y-98046760D01*
X142118294Y-98046759D01*
X142002433Y-97987725D01*
X142002431Y-97987724D01*
X142002428Y-97987723D01*
X141906307Y-97972500D01*
X140541688Y-97972500D01*
X140541688Y-97972501D01*
X140445571Y-97987723D01*
X140445570Y-97987723D01*
X140329704Y-98046760D01*
X140329700Y-98046763D01*
X140237763Y-98138700D01*
X140237760Y-98138704D01*
X140178723Y-98254571D01*
X140163500Y-98350692D01*
X140163500Y-98514470D01*
X140143815Y-98581509D01*
X140127181Y-98602151D01*
X139335395Y-99393936D01*
X139323205Y-99404627D01*
X139300248Y-99422243D01*
X139300246Y-99422246D01*
X139269919Y-99461769D01*
X139269918Y-99461769D01*
X139210123Y-99539696D01*
X139208848Y-99543085D01*
X139153927Y-99675676D01*
X139153926Y-99675680D01*
X139145819Y-99737259D01*
X139134662Y-99822000D01*
X138595878Y-99822000D01*
X138608500Y-99742307D01*
X138608499Y-98377694D01*
X138608499Y-98377692D01*
X138608499Y-98377688D01*
X138593276Y-98281571D01*
X138593276Y-98281570D01*
X138593275Y-98281568D01*
X138593275Y-98281567D01*
X138534241Y-98165706D01*
X138534239Y-98165704D01*
X138534236Y-98165700D01*
X138469819Y-98101283D01*
X138436334Y-98039960D01*
X138433500Y-98013602D01*
X138433500Y-97536453D01*
X138442940Y-97488997D01*
X138448966Y-97474450D01*
X138462642Y-97441433D01*
X138468074Y-97428320D01*
X138480886Y-97331000D01*
X138487338Y-97282000D01*
X138471222Y-97159595D01*
X138468074Y-97135680D01*
X138451829Y-97096463D01*
X138440343Y-97068732D01*
X138440343Y-97068731D01*
X138411597Y-96999332D01*
X138411596Y-96999329D01*
X138364560Y-96938032D01*
X138364558Y-96938030D01*
X138321754Y-96882245D01*
X138298794Y-96864628D01*
X138286599Y-96853933D01*
X137440667Y-96008000D01*
X139824001Y-96008000D01*
X139824001Y-96132986D01*
X139834494Y-96235697D01*
X139889641Y-96402119D01*
X139889643Y-96402124D01*
X139981684Y-96551345D01*
X140105654Y-96675315D01*
X140254875Y-96767356D01*
X140254880Y-96767358D01*
X140421302Y-96822505D01*
X140421309Y-96822506D01*
X140524019Y-96832999D01*
X140973999Y-96832999D01*
X140974000Y-96832998D01*
X140974000Y-96008000D01*
X141474000Y-96008000D01*
X141474000Y-96832999D01*
X141923972Y-96832999D01*
X141923986Y-96832998D01*
X142026697Y-96822505D01*
X142193119Y-96767358D01*
X142193124Y-96767356D01*
X142342345Y-96675315D01*
X142466315Y-96551345D01*
X142558356Y-96402124D01*
X142558358Y-96402119D01*
X142613505Y-96235697D01*
X142613506Y-96235690D01*
X142623999Y-96132986D01*
X142624000Y-96132973D01*
X142624000Y-96008000D01*
X141474000Y-96008000D01*
X140974000Y-96008000D01*
X139824001Y-96008000D01*
X137440667Y-96008000D01*
X137030062Y-95597395D01*
X137019366Y-95585198D01*
X137001755Y-95562247D01*
X136949831Y-95522405D01*
X136949829Y-95522402D01*
X136931060Y-95508000D01*
X139824000Y-95508000D01*
X140974000Y-95508000D01*
X140974000Y-94683000D01*
X141474000Y-94683000D01*
X141474000Y-95508000D01*
X142623999Y-95508000D01*
X142623999Y-95383028D01*
X142623998Y-95383013D01*
X142613505Y-95280302D01*
X142558358Y-95113880D01*
X142558356Y-95113875D01*
X142466315Y-94964654D01*
X142342345Y-94840684D01*
X142193124Y-94748643D01*
X142193119Y-94748641D01*
X142026697Y-94693494D01*
X142026690Y-94693493D01*
X141923986Y-94683000D01*
X141474000Y-94683000D01*
X140974000Y-94683000D01*
X140524028Y-94683000D01*
X140524012Y-94683001D01*
X140421302Y-94693494D01*
X140254880Y-94748641D01*
X140254875Y-94748643D01*
X140105654Y-94840684D01*
X139981684Y-94964654D01*
X139889643Y-95113875D01*
X139889641Y-95113880D01*
X139834494Y-95280302D01*
X139834493Y-95280309D01*
X139824000Y-95383013D01*
X139824000Y-95508000D01*
X136931060Y-95508000D01*
X136884669Y-95472404D01*
X136822522Y-95446662D01*
X136748320Y-95415926D01*
X136692837Y-95408621D01*
X136677723Y-95406631D01*
X136677722Y-95406630D01*
X136602001Y-95396662D01*
X136601999Y-95396662D01*
X136573312Y-95400439D01*
X136557126Y-95401500D01*
X136276213Y-95401500D01*
X136209174Y-95381815D01*
X136163419Y-95329011D01*
X136157828Y-95314390D01*
X136118734Y-95188933D01*
X136118732Y-95188929D01*
X136035757Y-95051670D01*
X136035753Y-95051665D01*
X135922334Y-94938246D01*
X135922329Y-94938242D01*
X135785070Y-94855267D01*
X135785066Y-94855265D01*
X135631933Y-94807548D01*
X135631935Y-94807548D01*
X135605312Y-94805128D01*
X135565381Y-94801500D01*
X135565378Y-94801500D01*
X134796500Y-94801500D01*
X134729461Y-94781815D01*
X134683706Y-94729011D01*
X134672500Y-94677500D01*
X134672500Y-90873876D01*
X134692185Y-90806837D01*
X134744989Y-90761082D01*
X134750992Y-90758529D01*
X134751922Y-90758163D01*
X134869216Y-90669216D01*
X134958163Y-90551922D01*
X134965061Y-90534428D01*
X135007965Y-90479284D01*
X135073873Y-90456090D01*
X135141858Y-90472209D01*
X135190335Y-90522525D01*
X135200751Y-90549991D01*
X135210830Y-90590521D01*
X135210831Y-90590523D01*
X135295390Y-90761022D01*
X135295392Y-90761025D01*
X135414632Y-90909366D01*
X135414633Y-90909367D01*
X135562974Y-91028607D01*
X135562977Y-91028609D01*
X135733476Y-91113168D01*
X135918175Y-91159102D01*
X135960903Y-91162000D01*
X136162000Y-91162000D01*
X136162000Y-89912000D01*
X136662000Y-89912000D01*
X136662000Y-91162000D01*
X136863097Y-91162000D01*
X136905824Y-91159102D01*
X137090523Y-91113168D01*
X137261022Y-91028609D01*
X137261025Y-91028607D01*
X137409366Y-90909367D01*
X137409367Y-90909366D01*
X137528607Y-90761025D01*
X137528609Y-90761022D01*
X137613168Y-90590523D01*
X137659102Y-90405824D01*
X137662000Y-90363096D01*
X137662000Y-89912000D01*
X136662000Y-89912000D01*
X136162000Y-89912000D01*
X136162000Y-88162000D01*
X136662000Y-88162000D01*
X136662000Y-89412000D01*
X137662000Y-89412000D01*
X137662000Y-88960903D01*
X137659102Y-88918175D01*
X137613168Y-88733476D01*
X137528609Y-88562977D01*
X137528607Y-88562974D01*
X137409367Y-88414633D01*
X137409366Y-88414632D01*
X137261025Y-88295392D01*
X137261022Y-88295390D01*
X137090523Y-88210831D01*
X136905824Y-88164897D01*
X136863097Y-88162000D01*
X136662000Y-88162000D01*
X136162000Y-88162000D01*
X135960903Y-88162000D01*
X135918175Y-88164897D01*
X135733476Y-88210831D01*
X135562977Y-88295390D01*
X135562974Y-88295392D01*
X135414633Y-88414632D01*
X135414632Y-88414633D01*
X135295392Y-88562974D01*
X135295390Y-88562977D01*
X135210831Y-88733476D01*
X135210828Y-88733484D01*
X135200750Y-88774009D01*
X135165468Y-88834316D01*
X135103182Y-88865974D01*
X135033668Y-88858933D01*
X134978996Y-88815427D01*
X134965061Y-88789571D01*
X134958924Y-88774009D01*
X134958163Y-88772078D01*
X134958161Y-88772075D01*
X134869216Y-88654783D01*
X134751924Y-88565838D01*
X134751922Y-88565837D01*
X134614979Y-88511834D01*
X134614978Y-88511833D01*
X134528927Y-88501500D01*
X133695080Y-88501500D01*
X133609022Y-88511833D01*
X133472077Y-88565837D01*
X133472075Y-88565838D01*
X133354783Y-88654783D01*
X133265838Y-88772075D01*
X133211833Y-88909022D01*
X133201500Y-88995072D01*
X133201500Y-90328919D01*
X133211833Y-90414977D01*
X133265837Y-90551922D01*
X133265838Y-90551924D01*
X133354783Y-90669216D01*
X133472075Y-90758161D01*
X133472078Y-90758163D01*
X133472980Y-90758518D01*
X133473682Y-90759064D01*
X133479470Y-90762319D01*
X133478981Y-90763187D01*
X133528126Y-90801417D01*
X133551327Y-90867322D01*
X133551500Y-90873876D01*
X133551500Y-94677500D01*
X133531815Y-94744539D01*
X133479011Y-94790294D01*
X133427500Y-94801500D01*
X132658611Y-94801500D01*
X132592073Y-94807546D01*
X132592066Y-94807548D01*
X132438933Y-94855265D01*
X132438929Y-94855267D01*
X132301670Y-94938242D01*
X132301665Y-94938246D01*
X132188246Y-95051665D01*
X132188242Y-95051670D01*
X132105267Y-95188929D01*
X132105265Y-95188933D01*
X132057548Y-95342065D01*
X132057548Y-95342067D01*
X132052244Y-95400439D01*
X132051500Y-95408621D01*
X132051500Y-96515388D01*
X129286000Y-96515388D01*
X129286000Y-86411362D01*
X129305685Y-86344323D01*
X129322319Y-86323681D01*
X131281681Y-84364319D01*
X131343004Y-84330834D01*
X131369362Y-84328000D01*
X135128000Y-84328000D01*
X136906000Y-82550000D01*
X136906000Y-76962000D01*
X140863474Y-76962000D01*
X140883547Y-77217064D01*
X140943279Y-77465864D01*
X141041188Y-77702239D01*
X141041190Y-77702242D01*
X141174875Y-77920396D01*
X141174878Y-77920401D01*
X141250200Y-78008591D01*
X141341044Y-78114956D01*
X141461279Y-78217646D01*
X141535598Y-78281121D01*
X141535603Y-78281124D01*
X141753757Y-78414809D01*
X141753760Y-78414811D01*
X141990135Y-78512720D01*
X141990140Y-78512722D01*
X142238930Y-78572452D01*
X142430137Y-78587500D01*
X142430145Y-78587500D01*
X142557855Y-78587500D01*
X142557863Y-78587500D01*
X142749070Y-78572452D01*
X142997860Y-78512722D01*
X143119541Y-78462320D01*
X143234239Y-78414811D01*
X143234240Y-78414810D01*
X143234243Y-78414809D01*
X143452399Y-78281123D01*
X143646956Y-78114956D01*
X143813123Y-77920399D01*
X143946809Y-77702243D01*
X144044722Y-77465860D01*
X144104452Y-77217070D01*
X144124526Y-76962000D01*
X144104452Y-76706930D01*
X144044722Y-76458140D01*
X144005466Y-76363367D01*
X143946811Y-76221760D01*
X143946809Y-76221757D01*
X143813124Y-76003602D01*
X143813121Y-76003598D01*
X143725601Y-75901126D01*
X143646956Y-75809044D01*
X143475341Y-75662471D01*
X143452401Y-75642878D01*
X143452396Y-75642875D01*
X143234242Y-75509190D01*
X143234239Y-75509188D01*
X142997864Y-75411279D01*
X142997860Y-75411278D01*
X142749070Y-75351548D01*
X142749068Y-75351547D01*
X142749065Y-75351547D01*
X142557868Y-75336500D01*
X142557863Y-75336500D01*
X142430137Y-75336500D01*
X142430131Y-75336500D01*
X142238934Y-75351547D01*
X141990135Y-75411279D01*
X141753760Y-75509188D01*
X141753757Y-75509190D01*
X141535603Y-75642875D01*
X141535598Y-75642878D01*
X141341044Y-75809044D01*
X141174878Y-76003598D01*
X141174876Y-76003602D01*
X141041190Y-76221757D01*
X141041188Y-76221760D01*
X140943279Y-76458135D01*
X140883547Y-76706935D01*
X140863474Y-76962000D01*
X136906000Y-76962000D01*
X136906000Y-74676000D01*
X135128000Y-72898000D01*
X131442000Y-72898000D01*
X131374961Y-72878315D01*
X131329206Y-72825511D01*
X131318000Y-72774000D01*
X131318000Y-72443808D01*
X145089499Y-72443808D01*
X145098812Y-72490623D01*
X145098813Y-72490624D01*
X145134286Y-72543714D01*
X145187376Y-72579187D01*
X145234191Y-72588500D01*
X145234194Y-72588500D01*
X145365500Y-72588500D01*
X145432539Y-72608185D01*
X145478294Y-72660989D01*
X145489500Y-72712500D01*
X145489500Y-75901126D01*
X145488439Y-75917312D01*
X145484662Y-75945999D01*
X145492246Y-76003601D01*
X145492246Y-76003602D01*
X145503926Y-76092321D01*
X145526400Y-76146577D01*
X145560402Y-76228666D01*
X145560404Y-76228669D01*
X145619914Y-76306225D01*
X145619919Y-76306230D01*
X145650246Y-76345754D01*
X145673208Y-76363373D01*
X145685395Y-76374062D01*
X148095181Y-78783848D01*
X148128666Y-78845171D01*
X148131500Y-78871529D01*
X148131500Y-80740720D01*
X148111815Y-80807759D01*
X148059011Y-80853514D01*
X148022283Y-80863836D01*
X147939021Y-80873834D01*
X147870549Y-80900835D01*
X147802077Y-80927837D01*
X147802075Y-80927838D01*
X147684783Y-81016783D01*
X147595838Y-81134075D01*
X147541833Y-81271022D01*
X147531500Y-81357072D01*
X147531500Y-82190919D01*
X147541833Y-82276977D01*
X147595837Y-82413922D01*
X147595838Y-82413924D01*
X147684783Y-82531216D01*
X147714925Y-82554073D01*
X147802078Y-82620163D01*
X147939021Y-82674166D01*
X148025073Y-82684500D01*
X149358926Y-82684499D01*
X149444979Y-82674166D01*
X149581922Y-82620163D01*
X149699216Y-82531216D01*
X149788163Y-82413922D01*
X149842166Y-82276979D01*
X149852500Y-82190927D01*
X149852499Y-81357074D01*
X149842166Y-81271021D01*
X149788163Y-81134078D01*
X149788161Y-81134075D01*
X149699216Y-81016783D01*
X149581924Y-80927838D01*
X149581922Y-80927837D01*
X149513450Y-80900835D01*
X149444977Y-80873833D01*
X149361714Y-80863834D01*
X149297500Y-80836296D01*
X149258368Y-80778413D01*
X149252500Y-80740719D01*
X149252500Y-78632866D01*
X149253561Y-78616680D01*
X149257337Y-78588000D01*
X149252500Y-78551260D01*
X149252500Y-78551259D01*
X149238074Y-78441681D01*
X149238074Y-78441680D01*
X149183151Y-78309086D01*
X149181874Y-78305693D01*
X149114313Y-78217646D01*
X149114312Y-78217644D01*
X149091755Y-78188246D01*
X149091754Y-78188245D01*
X149068794Y-78170627D01*
X149056600Y-78159933D01*
X146646819Y-75750152D01*
X146613334Y-75688829D01*
X146610500Y-75662471D01*
X146610500Y-72712500D01*
X146630185Y-72645461D01*
X146682989Y-72599706D01*
X146734500Y-72588500D01*
X146865808Y-72588500D01*
X146897018Y-72582291D01*
X146912624Y-72579187D01*
X146965714Y-72543714D01*
X147001187Y-72490624D01*
X147010500Y-72443806D01*
X147010500Y-72365309D01*
X147030185Y-72298270D01*
X147046819Y-72277628D01*
X147652046Y-71672400D01*
X147664835Y-71753148D01*
X147722359Y-71866045D01*
X147811955Y-71955641D01*
X147924852Y-72013165D01*
X148005599Y-72025953D01*
X147324526Y-72707025D01*
X147397513Y-72758132D01*
X147397521Y-72758136D01*
X147603668Y-72854264D01*
X147603682Y-72854269D01*
X147823389Y-72913139D01*
X147823400Y-72913141D01*
X148049998Y-72932966D01*
X148050002Y-72932966D01*
X148276599Y-72913141D01*
X148276610Y-72913139D01*
X148496317Y-72854269D01*
X148496331Y-72854264D01*
X148702478Y-72758136D01*
X148775471Y-72707024D01*
X148094400Y-72025953D01*
X148175148Y-72013165D01*
X148288045Y-71955641D01*
X148377641Y-71866045D01*
X148435165Y-71753148D01*
X148447953Y-71672400D01*
X149129024Y-72353471D01*
X149180136Y-72280478D01*
X149276264Y-72074331D01*
X149276269Y-72074317D01*
X149335139Y-71854610D01*
X149335141Y-71854599D01*
X149354966Y-71628002D01*
X149354966Y-71627997D01*
X149335141Y-71401400D01*
X149335139Y-71401389D01*
X149276269Y-71181682D01*
X149276264Y-71181668D01*
X149180136Y-70975521D01*
X149180132Y-70975513D01*
X149129025Y-70902526D01*
X148447953Y-71583598D01*
X148435165Y-71502852D01*
X148377641Y-71389955D01*
X148288045Y-71300359D01*
X148175148Y-71242835D01*
X148094401Y-71230046D01*
X148775472Y-70548974D01*
X148702478Y-70497863D01*
X148496331Y-70401735D01*
X148496317Y-70401730D01*
X148276610Y-70342860D01*
X148276599Y-70342858D01*
X148050002Y-70323034D01*
X148049998Y-70323034D01*
X147823400Y-70342858D01*
X147823389Y-70342860D01*
X147603682Y-70401730D01*
X147603673Y-70401734D01*
X147397516Y-70497866D01*
X147397512Y-70497868D01*
X147324526Y-70548973D01*
X147324526Y-70548974D01*
X148005599Y-71230046D01*
X147924852Y-71242835D01*
X147811955Y-71300359D01*
X147722359Y-71389955D01*
X147664835Y-71502852D01*
X147652046Y-71583599D01*
X147046819Y-70978372D01*
X147013334Y-70917049D01*
X147010500Y-70890691D01*
X147010500Y-70812191D01*
X147001187Y-70765376D01*
X146983336Y-70738660D01*
X146965714Y-70712286D01*
X146912624Y-70676813D01*
X146912623Y-70676812D01*
X146865808Y-70667500D01*
X146865806Y-70667500D01*
X146734500Y-70667500D01*
X146667461Y-70647815D01*
X146621706Y-70595011D01*
X146610500Y-70543500D01*
X146610500Y-68050499D01*
X146630185Y-67983460D01*
X146682989Y-67937705D01*
X146734500Y-67926499D01*
X146986311Y-67926499D01*
X146986311Y-67926498D01*
X147034369Y-67918887D01*
X147082428Y-67911276D01*
X147082429Y-67911276D01*
X147082430Y-67911275D01*
X147082433Y-67911275D01*
X147198294Y-67852241D01*
X147290241Y-67760294D01*
X147349275Y-67644433D01*
X147364500Y-67548307D01*
X147364499Y-65483694D01*
X147364499Y-65483692D01*
X147364499Y-65483688D01*
X147349276Y-65387571D01*
X147349276Y-65387570D01*
X147349275Y-65387568D01*
X147349275Y-65387567D01*
X147290241Y-65271706D01*
X147290239Y-65271704D01*
X147290236Y-65271700D01*
X147198299Y-65179763D01*
X147198295Y-65179760D01*
X147198294Y-65179759D01*
X147082433Y-65120725D01*
X147082431Y-65120724D01*
X147082428Y-65120723D01*
X146986307Y-65105500D01*
X145621688Y-65105500D01*
X145621688Y-65105501D01*
X145525571Y-65120723D01*
X145525570Y-65120723D01*
X145409704Y-65179760D01*
X145409700Y-65179763D01*
X145317763Y-65271700D01*
X145317760Y-65271704D01*
X145258723Y-65387571D01*
X145243500Y-65483692D01*
X145243500Y-67548311D01*
X145258723Y-67644428D01*
X145258723Y-67644429D01*
X145258724Y-67644432D01*
X145258725Y-67644433D01*
X145317759Y-67760294D01*
X145409706Y-67852241D01*
X145421794Y-67858400D01*
X145472590Y-67906373D01*
X145489500Y-67968885D01*
X145489500Y-70543500D01*
X145469815Y-70610539D01*
X145417011Y-70656294D01*
X145365500Y-70667500D01*
X145234192Y-70667500D01*
X145187376Y-70676812D01*
X145134286Y-70712286D01*
X145098812Y-70765376D01*
X145089500Y-70812191D01*
X145089500Y-70812194D01*
X145089500Y-72443806D01*
X145089500Y-72443808D01*
X145089499Y-72443808D01*
X131318000Y-72443808D01*
X131318000Y-72123808D01*
X136011499Y-72123808D01*
X136020812Y-72170623D01*
X136020813Y-72170624D01*
X136056286Y-72223714D01*
X136109376Y-72259187D01*
X136156191Y-72268500D01*
X136156194Y-72268500D01*
X139687808Y-72268500D01*
X139719018Y-72262291D01*
X139734624Y-72259187D01*
X139787714Y-72223714D01*
X139823187Y-72170624D01*
X139832500Y-72123806D01*
X139832500Y-71030963D01*
X139852185Y-70963924D01*
X139904989Y-70918169D01*
X139940314Y-70908024D01*
X139970320Y-70904074D01*
X140066728Y-70864138D01*
X140066731Y-70864138D01*
X140083274Y-70857285D01*
X140106669Y-70847596D01*
X140194354Y-70780313D01*
X140194353Y-70780313D01*
X140223754Y-70757754D01*
X140223755Y-70757752D01*
X140232396Y-70751122D01*
X140238402Y-70738662D01*
X140241368Y-70734796D01*
X140252053Y-70722612D01*
X143874610Y-67100055D01*
X143886800Y-67089366D01*
X143909754Y-67071754D01*
X143909756Y-67071752D01*
X143940080Y-67032231D01*
X143940081Y-67032228D01*
X143999596Y-66954669D01*
X144027893Y-66886354D01*
X144056074Y-66818320D01*
X144070500Y-66708741D01*
X144070500Y-66708739D01*
X144075337Y-66672000D01*
X144071561Y-66643317D01*
X144070500Y-66627132D01*
X144070500Y-63783529D01*
X144090185Y-63716490D01*
X144106819Y-63695848D01*
X144689848Y-63112819D01*
X144751171Y-63079334D01*
X144777529Y-63076500D01*
X145119501Y-63076500D01*
X145186540Y-63096185D01*
X145232295Y-63148989D01*
X145243501Y-63200500D01*
X145243501Y-63548311D01*
X145258723Y-63644428D01*
X145258723Y-63644429D01*
X145317760Y-63760295D01*
X145317763Y-63760299D01*
X145409700Y-63852236D01*
X145409704Y-63852239D01*
X145409706Y-63852241D01*
X145525567Y-63911275D01*
X145525569Y-63911275D01*
X145525571Y-63911276D01*
X145554728Y-63915893D01*
X145621693Y-63926500D01*
X146986306Y-63926499D01*
X146986311Y-63926499D01*
X146986311Y-63926498D01*
X147034369Y-63918887D01*
X147082428Y-63911276D01*
X147082429Y-63911276D01*
X147082430Y-63911275D01*
X147082433Y-63911275D01*
X147198294Y-63852241D01*
X147290241Y-63760294D01*
X147349275Y-63644433D01*
X147364500Y-63548307D01*
X147364499Y-61483694D01*
X147364499Y-61483692D01*
X147364499Y-61483688D01*
X147349276Y-61387571D01*
X147349276Y-61387570D01*
X147349275Y-61387568D01*
X147349275Y-61387567D01*
X147290241Y-61271706D01*
X147290239Y-61271704D01*
X147290236Y-61271700D01*
X147198299Y-61179763D01*
X147198295Y-61179760D01*
X147198294Y-61179759D01*
X147082433Y-61120725D01*
X147082431Y-61120724D01*
X147082428Y-61120723D01*
X146986307Y-61105500D01*
X145621688Y-61105500D01*
X145621688Y-61105501D01*
X145525571Y-61120723D01*
X145525570Y-61120723D01*
X145409704Y-61179760D01*
X145409700Y-61179763D01*
X145317763Y-61271700D01*
X145317760Y-61271704D01*
X145258723Y-61387571D01*
X145243500Y-61483692D01*
X145243500Y-61831500D01*
X145223815Y-61898539D01*
X145171011Y-61944294D01*
X145119500Y-61955500D01*
X144538867Y-61955500D01*
X144522681Y-61954439D01*
X144494001Y-61950663D01*
X144493995Y-61950663D01*
X144461310Y-61954965D01*
X144461284Y-61954970D01*
X144347681Y-61969925D01*
X144347679Y-61969926D01*
X144251267Y-62009862D01*
X144211329Y-62026404D01*
X144133769Y-62085919D01*
X144133768Y-62085920D01*
X144094246Y-62116245D01*
X144076631Y-62139201D01*
X144065938Y-62151393D01*
X143145395Y-63071936D01*
X143133205Y-63082627D01*
X143110246Y-63100245D01*
X143087687Y-63129646D01*
X143020123Y-63217696D01*
X143018848Y-63221086D01*
X142963926Y-63353678D01*
X142963926Y-63353679D01*
X142954631Y-63424277D01*
X142944662Y-63499998D01*
X142944662Y-63499999D01*
X142948439Y-63528686D01*
X142949500Y-63544873D01*
X142949500Y-66388471D01*
X142929815Y-66455510D01*
X142913181Y-66476152D01*
X140044181Y-69345152D01*
X139982858Y-69378637D01*
X139913166Y-69373653D01*
X139857233Y-69331781D01*
X139832816Y-69266317D01*
X139832500Y-69257471D01*
X139832500Y-68592191D01*
X139823187Y-68545376D01*
X139787714Y-68492286D01*
X139734624Y-68456813D01*
X139734623Y-68456812D01*
X139687808Y-68447500D01*
X139687806Y-68447500D01*
X136156194Y-68447500D01*
X136156192Y-68447500D01*
X136109376Y-68456812D01*
X136056286Y-68492286D01*
X136020812Y-68545376D01*
X136011500Y-68592191D01*
X136011500Y-68592194D01*
X136011500Y-72123806D01*
X136011500Y-72123808D01*
X136011499Y-72123808D01*
X131318000Y-72123808D01*
X131318000Y-68957984D01*
X131337685Y-68890945D01*
X131390489Y-68845190D01*
X131459647Y-68835246D01*
X131523203Y-68864271D01*
X131537854Y-68879320D01*
X131611247Y-68968752D01*
X131678504Y-69023947D01*
X131768924Y-69098152D01*
X131768927Y-69098154D01*
X131768929Y-69098155D01*
X131948809Y-69194304D01*
X131948811Y-69194304D01*
X131948814Y-69194306D01*
X132144007Y-69253517D01*
X132296132Y-69268500D01*
X132296135Y-69268500D01*
X134147865Y-69268500D01*
X134147868Y-69268500D01*
X134299993Y-69253517D01*
X134495186Y-69194306D01*
X134675076Y-69098152D01*
X134832752Y-68968752D01*
X134962152Y-68811076D01*
X135058306Y-68631186D01*
X135117517Y-68435993D01*
X135132500Y-68283868D01*
X135132500Y-66432132D01*
X135117517Y-66280007D01*
X135058306Y-66084814D01*
X135058304Y-66084811D01*
X135058304Y-66084809D01*
X134962155Y-65904929D01*
X134962154Y-65904927D01*
X134962152Y-65904924D01*
X134887947Y-65814504D01*
X134832752Y-65747247D01*
X134750797Y-65679990D01*
X134675076Y-65617848D01*
X134675072Y-65617846D01*
X134675070Y-65617844D01*
X134495190Y-65521695D01*
X134299991Y-65462482D01*
X134188784Y-65451529D01*
X134147868Y-65447500D01*
X132296132Y-65447500D01*
X132258582Y-65451198D01*
X132144008Y-65462482D01*
X131948809Y-65521695D01*
X131768929Y-65617844D01*
X131611247Y-65747247D01*
X131537854Y-65836679D01*
X131480108Y-65876014D01*
X131410263Y-65877885D01*
X131350495Y-65841698D01*
X131319779Y-65778942D01*
X131318000Y-65758015D01*
X131318000Y-64108000D01*
X135672000Y-64108000D01*
X136488314Y-64108000D01*
X136462507Y-64148156D01*
X136422000Y-64286111D01*
X136422000Y-64429889D01*
X136462507Y-64567844D01*
X136488314Y-64608000D01*
X135672001Y-64608000D01*
X135672001Y-65172197D01*
X135682400Y-65304332D01*
X135737377Y-65522519D01*
X135830428Y-65727374D01*
X135830431Y-65727380D01*
X135958559Y-65912323D01*
X135958569Y-65912335D01*
X136117664Y-66071430D01*
X136117676Y-66071440D01*
X136302619Y-66199568D01*
X136302625Y-66199571D01*
X136507480Y-66292622D01*
X136725667Y-66347599D01*
X136857810Y-66357999D01*
X137671999Y-66357999D01*
X137672000Y-66357998D01*
X137672000Y-64858000D01*
X138172000Y-64858000D01*
X138172000Y-66357999D01*
X138986182Y-66357999D01*
X138986197Y-66357998D01*
X139118332Y-66347599D01*
X139336519Y-66292622D01*
X139541374Y-66199571D01*
X139541380Y-66199568D01*
X139726323Y-66071440D01*
X139726335Y-66071430D01*
X139885430Y-65912335D01*
X139885440Y-65912323D01*
X140013568Y-65727380D01*
X140013571Y-65727374D01*
X140106622Y-65522519D01*
X140161599Y-65304332D01*
X140171999Y-65172196D01*
X140172000Y-65172184D01*
X140172000Y-64608000D01*
X139355686Y-64608000D01*
X139381493Y-64567844D01*
X139422000Y-64429889D01*
X139422000Y-64286111D01*
X139381493Y-64148156D01*
X139355686Y-64108000D01*
X140171999Y-64108000D01*
X140171999Y-63543817D01*
X140171998Y-63543802D01*
X140161599Y-63411667D01*
X140106622Y-63193480D01*
X140013571Y-62988625D01*
X140013568Y-62988619D01*
X139885440Y-62803676D01*
X139885430Y-62803664D01*
X139726335Y-62644569D01*
X139726323Y-62644559D01*
X139541380Y-62516431D01*
X139541374Y-62516428D01*
X139336519Y-62423377D01*
X139118332Y-62368400D01*
X138986196Y-62358000D01*
X138172000Y-62358000D01*
X138172000Y-63858000D01*
X137672000Y-63858000D01*
X137672000Y-62358000D01*
X136857817Y-62358000D01*
X136857802Y-62358001D01*
X136725667Y-62368400D01*
X136507480Y-62423377D01*
X136302625Y-62516428D01*
X136302619Y-62516431D01*
X136117676Y-62644559D01*
X136117664Y-62644569D01*
X135958569Y-62803664D01*
X135958559Y-62803676D01*
X135830431Y-62988619D01*
X135830428Y-62988625D01*
X135737377Y-63193480D01*
X135682400Y-63411667D01*
X135672000Y-63543803D01*
X135672000Y-64108000D01*
X131318000Y-64108000D01*
X131318000Y-59814000D01*
X131337685Y-59746961D01*
X131390489Y-59701206D01*
X131442000Y-59690000D01*
X149736000Y-59690000D01*
X149803039Y-59709685D01*
G37*
G04 #@! TD.AperFunction*
G04 #@! TA.AperFunction,Conductor*
G36*
X106941122Y-119136567D02*
G01*
X106943683Y-119137698D01*
X106955683Y-119140520D01*
X106967966Y-119143408D01*
X106984362Y-119148485D01*
X107007631Y-119157500D01*
X107013495Y-119157500D01*
X107041884Y-119160793D01*
X107047587Y-119162135D01*
X107072292Y-119158689D01*
X107089422Y-119157500D01*
X108393782Y-119157500D01*
X108410912Y-119158689D01*
X108417870Y-119159659D01*
X108417873Y-119159660D01*
X108461734Y-119157631D01*
X108467460Y-119157500D01*
X108484449Y-119157500D01*
X108484454Y-119157500D01*
X108484458Y-119157499D01*
X108490166Y-119156970D01*
X108490166Y-119156975D01*
X108499579Y-119155881D01*
X108524497Y-119154730D01*
X108529851Y-119152365D01*
X108557161Y-119143908D01*
X108562921Y-119142832D01*
X108562925Y-119142829D01*
X108573638Y-119138680D01*
X108574351Y-119140520D01*
X108625387Y-119126000D01*
X114248638Y-119126000D01*
X114315677Y-119145685D01*
X114336319Y-119162319D01*
X115025681Y-119851681D01*
X115059166Y-119913004D01*
X115062000Y-119939362D01*
X115062000Y-127456638D01*
X115042315Y-127523677D01*
X115025681Y-127544319D01*
X114336319Y-128233681D01*
X114274996Y-128267166D01*
X114248638Y-128270000D01*
X104191362Y-128270000D01*
X104124323Y-128250315D01*
X104103681Y-128233681D01*
X103339833Y-127469833D01*
X103306348Y-127408510D01*
X103311332Y-127338818D01*
X103339833Y-127294470D01*
X103439576Y-127194727D01*
X103528542Y-127050492D01*
X103528547Y-127050481D01*
X103581855Y-126889606D01*
X103591999Y-126790322D01*
X103592000Y-126790309D01*
X103592000Y-126768000D01*
X110277001Y-126768000D01*
X110277001Y-126791322D01*
X110287144Y-126890607D01*
X110340452Y-127051481D01*
X110340457Y-127051492D01*
X110429424Y-127195728D01*
X110429427Y-127195732D01*
X110549267Y-127315572D01*
X110549271Y-127315575D01*
X110693507Y-127404542D01*
X110693518Y-127404547D01*
X110854393Y-127457855D01*
X110953683Y-127467999D01*
X111001999Y-127467998D01*
X111002000Y-127467998D01*
X111002000Y-126768000D01*
X111502000Y-126768000D01*
X111502000Y-127467999D01*
X111550308Y-127467999D01*
X111550322Y-127467998D01*
X111649607Y-127457855D01*
X111810481Y-127404547D01*
X111810492Y-127404542D01*
X111954728Y-127315575D01*
X111954732Y-127315572D01*
X112074572Y-127195732D01*
X112074575Y-127195728D01*
X112163542Y-127051492D01*
X112163547Y-127051481D01*
X112216855Y-126890606D01*
X112226999Y-126791322D01*
X112227000Y-126791309D01*
X112227000Y-126768000D01*
X111502000Y-126768000D01*
X111002000Y-126768000D01*
X110277001Y-126768000D01*
X103592000Y-126768000D01*
X103592000Y-126742000D01*
X103124000Y-126742000D01*
X103124000Y-126242000D01*
X103591999Y-126242000D01*
X103591999Y-126193692D01*
X103591998Y-126193677D01*
X103581855Y-126094392D01*
X103528547Y-125933518D01*
X103528542Y-125933507D01*
X103439575Y-125789271D01*
X103439572Y-125789267D01*
X103319731Y-125669426D01*
X103182902Y-125585028D01*
X103136178Y-125533080D01*
X103124000Y-125479490D01*
X103124000Y-123391119D01*
X103143685Y-123324080D01*
X103160319Y-123303438D01*
X103281339Y-123182418D01*
X103516155Y-122947601D01*
X104037017Y-122947601D01*
X104056279Y-123093918D01*
X104056280Y-123093920D01*
X104112757Y-123230268D01*
X104112758Y-123230269D01*
X104202600Y-123347354D01*
X104319685Y-123437196D01*
X104456034Y-123493674D01*
X104529194Y-123503305D01*
X104602353Y-123512937D01*
X104602354Y-123512937D01*
X104748674Y-123493674D01*
X104748678Y-123493672D01*
X104756314Y-123492667D01*
X104825349Y-123503432D01*
X104877605Y-123549812D01*
X104896500Y-123615606D01*
X104896500Y-123627747D01*
X104907651Y-123683810D01*
X104907651Y-123732190D01*
X104896500Y-123788252D01*
X104896500Y-124127747D01*
X104907651Y-124183810D01*
X104907651Y-124232190D01*
X104896500Y-124288252D01*
X104896500Y-124627752D01*
X104908131Y-124686229D01*
X104908132Y-124686230D01*
X104952447Y-124752552D01*
X105018769Y-124796867D01*
X105018770Y-124796868D01*
X105077247Y-124808499D01*
X105077250Y-124808500D01*
X105077252Y-124808500D01*
X106516750Y-124808500D01*
X106516751Y-124808499D01*
X106531568Y-124805552D01*
X106575229Y-124796868D01*
X106575229Y-124796867D01*
X106575231Y-124796867D01*
X106607582Y-124775249D01*
X106623824Y-124764398D01*
X106690501Y-124743520D01*
X106692715Y-124743500D01*
X107733585Y-124743500D01*
X107800624Y-124763185D01*
X107846379Y-124815989D01*
X107856323Y-124885147D01*
X107855555Y-124889627D01*
X107855500Y-124890191D01*
X107855500Y-124890194D01*
X107855500Y-126021806D01*
X107855500Y-126021808D01*
X107855499Y-126021808D01*
X107864812Y-126068623D01*
X107864813Y-126068624D01*
X107900286Y-126121714D01*
X107953376Y-126157187D01*
X108000191Y-126166500D01*
X108000194Y-126166500D01*
X109931808Y-126166500D01*
X109963018Y-126160291D01*
X109978624Y-126157187D01*
X110031714Y-126121714D01*
X110058940Y-126080965D01*
X110088496Y-126056265D01*
X110076500Y-126012650D01*
X110076500Y-124890191D01*
X110075903Y-124884129D01*
X110077491Y-124883972D01*
X110083021Y-124822111D01*
X110125878Y-124766930D01*
X110191766Y-124743678D01*
X110198415Y-124743500D01*
X110492500Y-124743500D01*
X110559539Y-124763185D01*
X110605294Y-124815989D01*
X110616500Y-124867500D01*
X110616500Y-125229582D01*
X110627418Y-125304518D01*
X110627418Y-125304519D01*
X110627419Y-125304521D01*
X110683921Y-125420099D01*
X110683923Y-125420102D01*
X110707412Y-125443591D01*
X110740897Y-125504914D01*
X110735913Y-125574606D01*
X110694041Y-125630539D01*
X110684829Y-125636810D01*
X110549268Y-125720426D01*
X110429427Y-125840267D01*
X110429424Y-125840271D01*
X110340457Y-125984507D01*
X110340452Y-125984518D01*
X110318206Y-126051654D01*
X110278433Y-126109099D01*
X110277063Y-126109668D01*
X110281623Y-126117050D01*
X110285400Y-126162459D01*
X110277000Y-126244675D01*
X110277000Y-126268000D01*
X112226999Y-126268000D01*
X112226999Y-126244692D01*
X112226998Y-126244677D01*
X112216855Y-126145392D01*
X112163547Y-125984518D01*
X112163542Y-125984507D01*
X112074575Y-125840271D01*
X112074572Y-125840267D01*
X111954731Y-125720426D01*
X111819170Y-125636810D01*
X111772446Y-125584862D01*
X111761225Y-125515899D01*
X111789069Y-125451817D01*
X111796577Y-125443600D01*
X111820076Y-125420102D01*
X111820076Y-125420100D01*
X111820078Y-125420099D01*
X111848329Y-125362310D01*
X111876582Y-125304518D01*
X111887500Y-125229582D01*
X111887500Y-124706418D01*
X111876582Y-124631482D01*
X111874222Y-124626656D01*
X111820078Y-124515900D01*
X111820076Y-124515897D01*
X111729102Y-124424923D01*
X111729099Y-124424921D01*
X111613521Y-124368419D01*
X111613519Y-124368418D01*
X111613518Y-124368418D01*
X111538582Y-124357500D01*
X111538577Y-124357500D01*
X111096620Y-124357500D01*
X111029581Y-124337815D01*
X111008939Y-124321181D01*
X110989286Y-124301528D01*
X110978009Y-124288569D01*
X110971257Y-124279627D01*
X110946569Y-124214264D01*
X110961137Y-124145930D01*
X110982535Y-124117222D01*
X111008941Y-124090817D01*
X111070265Y-124057333D01*
X111096621Y-124054500D01*
X111538577Y-124054500D01*
X111538582Y-124054500D01*
X111613518Y-124043582D01*
X111671310Y-124015329D01*
X111729099Y-123987078D01*
X111729102Y-123987076D01*
X111820076Y-123896102D01*
X111820078Y-123896099D01*
X111872801Y-123788252D01*
X111876582Y-123780518D01*
X111887500Y-123705582D01*
X111887500Y-123182418D01*
X111876582Y-123107482D01*
X111845391Y-123043680D01*
X111820078Y-122991900D01*
X111820076Y-122991897D01*
X111796587Y-122968408D01*
X111763102Y-122907085D01*
X111768086Y-122837393D01*
X111809958Y-122781460D01*
X111819171Y-122775189D01*
X111954728Y-122691575D01*
X111954732Y-122691572D01*
X112074572Y-122571732D01*
X112074575Y-122571728D01*
X112163542Y-122427492D01*
X112163547Y-122427481D01*
X112216855Y-122266606D01*
X112226999Y-122167322D01*
X112227000Y-122167309D01*
X112227000Y-122144000D01*
X110277001Y-122144000D01*
X110277001Y-122167325D01*
X110285400Y-122249541D01*
X110275498Y-122302802D01*
X110281703Y-122305636D01*
X110318206Y-122360345D01*
X110340452Y-122427481D01*
X110340457Y-122427492D01*
X110429424Y-122571728D01*
X110429427Y-122571732D01*
X110549268Y-122691573D01*
X110684829Y-122775189D01*
X110731553Y-122827137D01*
X110742774Y-122896100D01*
X110714931Y-122960182D01*
X110707414Y-122968407D01*
X110683921Y-122991899D01*
X110683921Y-122991900D01*
X110627419Y-123107478D01*
X110627418Y-123107480D01*
X110627418Y-123107482D01*
X110616500Y-123182418D01*
X110616500Y-123182423D01*
X110616500Y-123548500D01*
X110596815Y-123615539D01*
X110544011Y-123661294D01*
X110492500Y-123672500D01*
X110197620Y-123672500D01*
X110130581Y-123652815D01*
X110084826Y-123600011D01*
X110074882Y-123530853D01*
X110076002Y-123524311D01*
X110076500Y-123521807D01*
X110076500Y-122399349D01*
X110087866Y-122360637D01*
X110058940Y-122331033D01*
X110054621Y-122324569D01*
X110031714Y-122290286D01*
X109996240Y-122266583D01*
X109978623Y-122254812D01*
X109931808Y-122245500D01*
X109931806Y-122245500D01*
X108000194Y-122245500D01*
X108000192Y-122245500D01*
X107953376Y-122254812D01*
X107900286Y-122290286D01*
X107864812Y-122343376D01*
X107855500Y-122390191D01*
X107855500Y-122707629D01*
X107835815Y-122774668D01*
X107783011Y-122820423D01*
X107713853Y-122830367D01*
X107650297Y-122801342D01*
X107643823Y-122795314D01*
X107638757Y-122790248D01*
X107521668Y-122700403D01*
X107385320Y-122643926D01*
X107385318Y-122643925D01*
X107239001Y-122624663D01*
X107238999Y-122624663D01*
X107100504Y-122642896D01*
X107031469Y-122632130D01*
X106997153Y-122608000D01*
X106527916Y-122608000D01*
X106517738Y-122607500D01*
X106516748Y-122607500D01*
X105771000Y-122607500D01*
X105703961Y-122587815D01*
X105658206Y-122535011D01*
X105647000Y-122483500D01*
X105647000Y-121808000D01*
X105947000Y-121808000D01*
X105947000Y-122308000D01*
X106997000Y-122308000D01*
X106997000Y-122260172D01*
X106996999Y-122260155D01*
X106990598Y-122200627D01*
X106990596Y-122200620D01*
X106940354Y-122065913D01*
X106940350Y-122065906D01*
X106854190Y-121950812D01*
X106854187Y-121950809D01*
X106739093Y-121864649D01*
X106739086Y-121864645D01*
X106604379Y-121814403D01*
X106604372Y-121814401D01*
X106544844Y-121808000D01*
X105947000Y-121808000D01*
X105647000Y-121808000D01*
X105049155Y-121808000D01*
X104989627Y-121814401D01*
X104989620Y-121814403D01*
X104854913Y-121864645D01*
X104854906Y-121864649D01*
X104739812Y-121950809D01*
X104739809Y-121950812D01*
X104653649Y-122065906D01*
X104653645Y-122065913D01*
X104603403Y-122200620D01*
X104603401Y-122200627D01*
X104597000Y-122260155D01*
X104597000Y-122274222D01*
X104577315Y-122341261D01*
X104524511Y-122387016D01*
X104489187Y-122397161D01*
X104456033Y-122401526D01*
X104456032Y-122401526D01*
X104319686Y-122458003D01*
X104202600Y-122547846D01*
X104112757Y-122664932D01*
X104056280Y-122801279D01*
X104056279Y-122801281D01*
X104037017Y-122947598D01*
X104037017Y-122947601D01*
X103516155Y-122947601D01*
X103534474Y-122929282D01*
X103547429Y-122918010D01*
X103553028Y-122913781D01*
X103553032Y-122913780D01*
X103582630Y-122881311D01*
X103586544Y-122877212D01*
X103598585Y-122865173D01*
X103598589Y-122865166D01*
X103602251Y-122860758D01*
X103602254Y-122860760D01*
X103608142Y-122853327D01*
X103611936Y-122849164D01*
X103624941Y-122834900D01*
X103627057Y-122829436D01*
X103640386Y-122804151D01*
X103643698Y-122799317D01*
X103649408Y-122775035D01*
X103654486Y-122758634D01*
X103663500Y-122735369D01*
X103663500Y-122729505D01*
X103666794Y-122701114D01*
X103666961Y-122700403D01*
X103668135Y-122695413D01*
X103664689Y-122670708D01*
X103663500Y-122653578D01*
X103663500Y-121685861D01*
X103675792Y-121644000D01*
X110277000Y-121644000D01*
X111002000Y-121644000D01*
X111002000Y-120944000D01*
X111502000Y-120944000D01*
X111502000Y-121644000D01*
X112226999Y-121644000D01*
X112226999Y-121620692D01*
X112226998Y-121620677D01*
X112216855Y-121521392D01*
X112163547Y-121360518D01*
X112163542Y-121360507D01*
X112074575Y-121216271D01*
X112074572Y-121216267D01*
X111954732Y-121096427D01*
X111954728Y-121096424D01*
X111810492Y-121007457D01*
X111810481Y-121007452D01*
X111649606Y-120954144D01*
X111550322Y-120944000D01*
X111502000Y-120944000D01*
X111002000Y-120944000D01*
X111001999Y-120943999D01*
X110953693Y-120944000D01*
X110953675Y-120944001D01*
X110854392Y-120954144D01*
X110693518Y-121007452D01*
X110693507Y-121007457D01*
X110549271Y-121096424D01*
X110549267Y-121096427D01*
X110429427Y-121216267D01*
X110429424Y-121216271D01*
X110340457Y-121360507D01*
X110340452Y-121360518D01*
X110287144Y-121521393D01*
X110277000Y-121620677D01*
X110277000Y-121644000D01*
X103675792Y-121644000D01*
X103683185Y-121618822D01*
X103699814Y-121598185D01*
X104387708Y-120910291D01*
X104416457Y-120891089D01*
X104415631Y-120889659D01*
X104422663Y-120885598D01*
X104422669Y-120885596D01*
X104539754Y-120795754D01*
X104629596Y-120678669D01*
X104629598Y-120678663D01*
X104633659Y-120671631D01*
X104635089Y-120672457D01*
X104654291Y-120643708D01*
X105463001Y-119834998D01*
X105524320Y-119801516D01*
X105594012Y-119806500D01*
X105649945Y-119848372D01*
X105665239Y-119875230D01*
X105682402Y-119916667D01*
X105716319Y-119960868D01*
X105772246Y-120033754D01*
X105889331Y-120123596D01*
X106025680Y-120180074D01*
X106098840Y-120189705D01*
X106171999Y-120199337D01*
X106172000Y-120199337D01*
X106172001Y-120199337D01*
X106220773Y-120192916D01*
X106318320Y-120180074D01*
X106454669Y-120123596D01*
X106571754Y-120033754D01*
X106661596Y-119916669D01*
X106718074Y-119780320D01*
X106737337Y-119634000D01*
X106718074Y-119487680D01*
X106661596Y-119351332D01*
X106641764Y-119325486D01*
X106616570Y-119260317D01*
X106630608Y-119191872D01*
X106679422Y-119141883D01*
X106740140Y-119126000D01*
X106891033Y-119126000D01*
X106941122Y-119136567D01*
G37*
G04 #@! TD.AperFunction*
M02*
