G04 #@! TF.GenerationSoftware,KiCad,Pcbnew,8.0.7-8.0.7-0~ubuntu24.04.1*
G04 #@! TF.CreationDate,2024-12-17T21:42:42+11:00*
G04 #@! TF.ProjectId,AtariHDisk4,41746172-6948-4446-9973-6b342e6b6963,rev?*
G04 #@! TF.SameCoordinates,Original*
G04 #@! TF.FileFunction,Copper,L2,Inr*
G04 #@! TF.FilePolarity,Positive*
%FSLAX46Y46*%
G04 Gerber Fmt 4.6, Leading zero omitted, Abs format (unit mm)*
G04 Created by KiCad (PCBNEW 8.0.7-8.0.7-0~ubuntu24.04.1) date 2024-12-17 21:42:42*
%MOMM*%
%LPD*%
G01*
G04 APERTURE LIST*
G04 Aperture macros list*
%AMRoundRect*
0 Rectangle with rounded corners*
0 $1 Rounding radius*
0 $2 $3 $4 $5 $6 $7 $8 $9 X,Y pos of 4 corners*
0 Add a 4 corners polygon primitive as box body*
4,1,4,$2,$3,$4,$5,$6,$7,$8,$9,$2,$3,0*
0 Add four circle primitives for the rounded corners*
1,1,$1+$1,$2,$3*
1,1,$1+$1,$4,$5*
1,1,$1+$1,$6,$7*
1,1,$1+$1,$8,$9*
0 Add four rect primitives between the rounded corners*
20,1,$1+$1,$2,$3,$4,$5,0*
20,1,$1+$1,$4,$5,$6,$7,0*
20,1,$1+$1,$6,$7,$8,$9,0*
20,1,$1+$1,$8,$9,$2,$3,0*%
G04 Aperture macros list end*
G04 #@! TA.AperFunction,ComponentPad*
%ADD10R,1.600000X1.600000*%
G04 #@! TD*
G04 #@! TA.AperFunction,ComponentPad*
%ADD11C,1.600000*%
G04 #@! TD*
G04 #@! TA.AperFunction,ComponentPad*
%ADD12R,1.700000X1.700000*%
G04 #@! TD*
G04 #@! TA.AperFunction,ComponentPad*
%ADD13O,1.700000X1.700000*%
G04 #@! TD*
G04 #@! TA.AperFunction,ComponentPad*
%ADD14R,3.500000X3.500000*%
G04 #@! TD*
G04 #@! TA.AperFunction,ComponentPad*
%ADD15RoundRect,0.750000X-1.000000X0.750000X-1.000000X-0.750000X1.000000X-0.750000X1.000000X0.750000X0*%
G04 #@! TD*
G04 #@! TA.AperFunction,ComponentPad*
%ADD16RoundRect,0.875000X-0.875000X0.875000X-0.875000X-0.875000X0.875000X-0.875000X0.875000X0.875000X0*%
G04 #@! TD*
G04 #@! TA.AperFunction,ComponentPad*
%ADD17R,1.800000X1.800000*%
G04 #@! TD*
G04 #@! TA.AperFunction,ComponentPad*
%ADD18C,1.800000*%
G04 #@! TD*
G04 #@! TA.AperFunction,ComponentPad*
%ADD19RoundRect,0.250000X0.600000X-0.600000X0.600000X0.600000X-0.600000X0.600000X-0.600000X-0.600000X0*%
G04 #@! TD*
G04 #@! TA.AperFunction,ComponentPad*
%ADD20C,1.700000*%
G04 #@! TD*
G04 #@! TA.AperFunction,ViaPad*
%ADD21C,0.800000*%
G04 #@! TD*
G04 APERTURE END LIST*
D10*
X146050000Y-71900000D03*
D11*
X148550000Y-71900000D03*
D12*
X58674000Y-86106000D03*
D13*
X58674000Y-83566000D03*
X61214000Y-86106000D03*
X61214000Y-83566000D03*
X63754000Y-86106000D03*
X63754000Y-83566000D03*
X66294000Y-86106000D03*
X66294000Y-83566000D03*
X68834000Y-86106000D03*
X68834000Y-83566000D03*
D14*
X137922000Y-70358000D03*
D15*
X137922000Y-64358000D03*
D16*
X133222000Y-67358000D03*
D17*
X123444000Y-121666000D03*
D18*
X125984000Y-121666000D03*
D12*
X60706000Y-102108000D03*
D13*
X63246000Y-102108000D03*
D10*
X73800000Y-94200000D03*
D11*
X71300000Y-94200000D03*
D17*
X129286000Y-121666000D03*
D18*
X131826000Y-121666000D03*
D12*
X143535400Y-117830600D03*
D13*
X146075400Y-117830600D03*
X143535400Y-120370600D03*
X146075400Y-120370600D03*
X143535400Y-122910600D03*
X146075400Y-122910600D03*
D12*
X63251000Y-125471000D03*
D13*
X60711000Y-125471000D03*
X63251000Y-122931000D03*
X60711000Y-122931000D03*
X63251000Y-120391000D03*
X60711000Y-120391000D03*
X63251000Y-117851000D03*
X60711000Y-117851000D03*
X63251000Y-115311000D03*
X60711000Y-115311000D03*
D19*
X102108000Y-70104000D03*
D20*
X104648000Y-70104000D03*
X107188000Y-70104000D03*
X109728000Y-70104000D03*
X112268000Y-70104000D03*
X114808000Y-70104000D03*
X117348000Y-70104000D03*
X119888000Y-70104000D03*
X122428000Y-70104000D03*
X124968000Y-70104000D03*
X102108000Y-67564000D03*
X104648000Y-67564000D03*
X107188000Y-67564000D03*
X109728000Y-67564000D03*
X112268000Y-67564000D03*
X114808000Y-67564000D03*
X117348000Y-67564000D03*
X119888000Y-67564000D03*
X122428000Y-67564000D03*
X124968000Y-67564000D03*
D21*
X94996000Y-71882000D03*
X141200000Y-94100000D03*
X140208000Y-89154000D03*
X110998000Y-80010000D03*
X93472000Y-91466000D03*
X132080000Y-60452000D03*
X68072000Y-103378000D03*
X143002000Y-97282000D03*
X79248000Y-80010000D03*
X68072000Y-127000000D03*
X150622000Y-99060000D03*
X114046000Y-126500000D03*
X88392000Y-83820000D03*
X104140000Y-79756000D03*
X133350000Y-70358000D03*
X119888000Y-81788000D03*
X95504000Y-127000000D03*
X93218000Y-104394000D03*
X136296400Y-127965200D03*
X107188000Y-125222000D03*
X114046000Y-124200000D03*
X114085200Y-72998400D03*
X148590000Y-108204000D03*
X146558000Y-86360000D03*
X93218000Y-105410000D03*
X103937000Y-126522000D03*
X110490000Y-99568000D03*
X149098000Y-60452000D03*
X135500000Y-100300000D03*
X96266000Y-88900000D03*
X147066000Y-79502000D03*
X150876000Y-106172000D03*
X134500000Y-84300000D03*
X140970000Y-107188000D03*
X138684000Y-112522000D03*
X136300000Y-90600000D03*
X68072000Y-105410000D03*
X68072000Y-124968000D03*
X93218000Y-103378000D03*
X115570000Y-91694000D03*
X87625631Y-71322369D03*
X104140000Y-124206000D03*
X129600000Y-88600000D03*
X83820000Y-67818000D03*
X150876000Y-86360000D03*
X139446000Y-128016000D03*
X89395000Y-87363000D03*
X83820000Y-76962000D03*
X96266000Y-86360000D03*
X96520000Y-83743001D03*
X114046000Y-120142000D03*
X128000000Y-77600000D03*
X115570000Y-88392000D03*
X111122500Y-112831997D03*
X68072000Y-104394000D03*
X77200000Y-101100000D03*
X123400000Y-85900000D03*
X139700000Y-117094000D03*
X146304000Y-106172000D03*
X137160000Y-73406000D03*
X137668000Y-82296000D03*
X134700000Y-77700000D03*
X69088000Y-77216000D03*
X150622000Y-75438000D03*
X107239000Y-121950000D03*
X148590000Y-88392000D03*
X122100000Y-92100000D03*
X103087505Y-99592587D03*
X95504000Y-125984000D03*
X85600000Y-100500000D03*
X96012000Y-80010000D03*
X95504000Y-124968000D03*
X127800000Y-86600000D03*
X140120800Y-122834400D03*
X68072000Y-125984000D03*
X131600000Y-97600000D03*
X68072000Y-67818000D03*
X142240000Y-87376000D03*
X135000000Y-86600000D03*
X138684000Y-87630000D03*
X86106000Y-72644000D03*
X138684000Y-90424000D03*
X95758000Y-69088000D03*
X135382000Y-113284000D03*
X96266000Y-87884000D03*
X109220000Y-99568000D03*
X90932000Y-87376000D03*
X121158000Y-81788000D03*
X99822000Y-125100000D03*
X68149000Y-88138000D03*
X115570000Y-92964000D03*
X139700000Y-99822000D03*
X102870000Y-79756000D03*
X87376000Y-81026000D03*
X109474000Y-80010000D03*
X111122500Y-113792000D03*
X102108000Y-99568000D03*
X96266000Y-90460000D03*
X115570000Y-89916000D03*
X139400000Y-97000000D03*
X99060000Y-116332000D03*
X99060000Y-115316000D03*
X112268000Y-118112000D03*
X112268000Y-116332000D03*
X111303630Y-116332000D03*
X111303630Y-118112000D03*
X70866000Y-101092000D03*
X91900000Y-101200000D03*
X102600000Y-118700000D03*
X99900000Y-121600000D03*
X96520000Y-95758000D03*
X96520000Y-96774000D03*
X96520000Y-93726000D03*
X96520000Y-94742000D03*
X111760000Y-109982000D03*
X112289000Y-79735000D03*
X112014000Y-100584000D03*
X107239000Y-123190000D03*
X69596000Y-101092000D03*
X92500000Y-102200000D03*
X82100000Y-94200000D03*
X80000000Y-94200000D03*
X119700000Y-97600000D03*
X98800000Y-123800000D03*
X101550000Y-118650000D03*
X98800000Y-122800000D03*
X99900000Y-109000000D03*
X98800000Y-124800000D03*
X109000000Y-117400000D03*
X99900000Y-107800000D03*
G04 #@! TA.AperFunction,Conductor*
G36*
X62785075Y-120198007D02*
G01*
X62751000Y-120325174D01*
X62751000Y-120456826D01*
X62785075Y-120583993D01*
X62817988Y-120641000D01*
X61144012Y-120641000D01*
X61176925Y-120583993D01*
X61211000Y-120456826D01*
X61211000Y-120325174D01*
X61176925Y-120198007D01*
X61144012Y-120141000D01*
X62817988Y-120141000D01*
X62785075Y-120198007D01*
G37*
G04 #@! TD.AperFunction*
G04 #@! TA.AperFunction,Conductor*
G36*
X149803039Y-59709685D02*
G01*
X149848794Y-59762489D01*
X149860000Y-59814000D01*
X149860000Y-60960000D01*
X151514000Y-60960000D01*
X151581039Y-60979685D01*
X151626794Y-61032489D01*
X151638000Y-61084000D01*
X151638000Y-89792000D01*
X151618315Y-89859039D01*
X151565511Y-89904794D01*
X151514000Y-89916000D01*
X144272000Y-89916000D01*
X144272000Y-98044000D01*
X151514000Y-98044000D01*
X151581039Y-98063685D01*
X151626794Y-98116489D01*
X151638000Y-98168000D01*
X151638000Y-126876000D01*
X151618315Y-126943039D01*
X151565511Y-126988794D01*
X151514000Y-127000000D01*
X149860000Y-127000000D01*
X149860000Y-128146000D01*
X149840315Y-128213039D01*
X149787511Y-128258794D01*
X149736000Y-128270000D01*
X57274000Y-128270000D01*
X57206961Y-128250315D01*
X57161206Y-128197511D01*
X57150000Y-128146000D01*
X57150000Y-127000000D01*
X55496000Y-127000000D01*
X55428961Y-126980315D01*
X55383206Y-126927511D01*
X55372000Y-126876000D01*
X55372000Y-125471000D01*
X59705659Y-125471000D01*
X59724975Y-125667129D01*
X59782188Y-125855733D01*
X59875086Y-126029532D01*
X59875090Y-126029539D01*
X60000116Y-126181883D01*
X60152460Y-126306909D01*
X60152467Y-126306913D01*
X60326266Y-126399811D01*
X60326269Y-126399811D01*
X60326273Y-126399814D01*
X60514868Y-126457024D01*
X60711000Y-126476341D01*
X60907132Y-126457024D01*
X61095727Y-126399814D01*
X61133317Y-126379722D01*
X61182632Y-126353362D01*
X61215447Y-126335822D01*
X62250499Y-126335822D01*
X62259231Y-126379717D01*
X62259232Y-126379721D01*
X62259233Y-126379722D01*
X62292496Y-126429504D01*
X62342278Y-126462767D01*
X62342281Y-126462767D01*
X62342282Y-126462768D01*
X62386177Y-126471500D01*
X62386180Y-126471500D01*
X64115822Y-126471500D01*
X64159717Y-126462768D01*
X64159717Y-126462767D01*
X64159722Y-126462767D01*
X64209504Y-126429504D01*
X64242767Y-126379722D01*
X64251500Y-126335820D01*
X64251500Y-124606180D01*
X64251500Y-124606177D01*
X64242768Y-124562282D01*
X64242767Y-124562281D01*
X64242767Y-124562278D01*
X64209504Y-124512496D01*
X64209503Y-124512495D01*
X64159724Y-124479234D01*
X64159717Y-124479231D01*
X64115822Y-124470500D01*
X64115820Y-124470500D01*
X62386180Y-124470500D01*
X62386178Y-124470500D01*
X62342282Y-124479231D01*
X62342275Y-124479234D01*
X62292496Y-124512495D01*
X62292495Y-124512496D01*
X62259234Y-124562275D01*
X62259231Y-124562282D01*
X62250500Y-124606177D01*
X62250500Y-124606180D01*
X62250500Y-126335820D01*
X62250500Y-126335822D01*
X62250499Y-126335822D01*
X61215447Y-126335822D01*
X61269538Y-126306910D01*
X61421883Y-126181883D01*
X61546910Y-126029538D01*
X61639814Y-125855727D01*
X61697024Y-125667132D01*
X61716341Y-125471000D01*
X61697024Y-125274868D01*
X61639814Y-125086273D01*
X61639811Y-125086269D01*
X61639811Y-125086266D01*
X61546913Y-124912467D01*
X61546909Y-124912460D01*
X61421883Y-124760116D01*
X61269539Y-124635090D01*
X61269532Y-124635086D01*
X61095733Y-124542188D01*
X61095727Y-124542186D01*
X60907132Y-124484976D01*
X60907129Y-124484975D01*
X60711000Y-124465659D01*
X60514870Y-124484975D01*
X60326266Y-124542188D01*
X60152467Y-124635086D01*
X60152460Y-124635090D01*
X60000116Y-124760116D01*
X59875090Y-124912460D01*
X59875086Y-124912467D01*
X59782188Y-125086266D01*
X59724975Y-125274870D01*
X59705659Y-125471000D01*
X55372000Y-125471000D01*
X55372000Y-120140999D01*
X59380364Y-120140999D01*
X59380364Y-120141000D01*
X60277988Y-120141000D01*
X60245075Y-120198007D01*
X60211000Y-120325174D01*
X60211000Y-120456826D01*
X60245075Y-120583993D01*
X60277988Y-120641000D01*
X59380364Y-120641000D01*
X59437567Y-120854486D01*
X59437570Y-120854492D01*
X59537399Y-121068578D01*
X59672894Y-121262082D01*
X59839917Y-121429105D01*
X60033421Y-121564600D01*
X60247507Y-121664429D01*
X60247516Y-121664433D01*
X60461107Y-121721664D01*
X60520768Y-121758029D01*
X60551297Y-121820876D01*
X60543002Y-121890251D01*
X60498517Y-121944129D01*
X60465010Y-121960099D01*
X60326271Y-122002186D01*
X60152467Y-122095086D01*
X60152460Y-122095090D01*
X60000116Y-122220116D01*
X59875090Y-122372460D01*
X59875086Y-122372467D01*
X59782188Y-122546266D01*
X59724975Y-122734870D01*
X59705659Y-122931000D01*
X59724975Y-123127129D01*
X59724976Y-123127132D01*
X59771609Y-123280861D01*
X59782188Y-123315733D01*
X59875086Y-123489532D01*
X59875090Y-123489539D01*
X60000116Y-123641883D01*
X60152460Y-123766909D01*
X60152467Y-123766913D01*
X60326266Y-123859811D01*
X60326269Y-123859811D01*
X60326273Y-123859814D01*
X60514868Y-123917024D01*
X60711000Y-123936341D01*
X60907132Y-123917024D01*
X61095727Y-123859814D01*
X61133899Y-123839411D01*
X61207633Y-123799999D01*
X61269538Y-123766910D01*
X61421883Y-123641883D01*
X61546910Y-123489538D01*
X61608617Y-123374092D01*
X61639811Y-123315733D01*
X61639811Y-123315732D01*
X61639814Y-123315727D01*
X61697024Y-123127132D01*
X61716341Y-122931000D01*
X61697024Y-122734868D01*
X61639814Y-122546273D01*
X61639811Y-122546269D01*
X61639811Y-122546266D01*
X61546913Y-122372467D01*
X61546909Y-122372460D01*
X61421883Y-122220116D01*
X61269539Y-122095090D01*
X61269532Y-122095086D01*
X61095728Y-122002186D01*
X60956989Y-121960099D01*
X60898551Y-121921801D01*
X60870094Y-121857989D01*
X60880655Y-121788922D01*
X60926880Y-121736529D01*
X60960892Y-121721664D01*
X61174483Y-121664433D01*
X61174492Y-121664429D01*
X61388578Y-121564600D01*
X61582082Y-121429105D01*
X61749105Y-121262082D01*
X61879425Y-121075968D01*
X61934002Y-121032344D01*
X62003501Y-121025151D01*
X62065855Y-121056673D01*
X62082575Y-121075968D01*
X62212894Y-121262082D01*
X62379917Y-121429105D01*
X62573421Y-121564600D01*
X62787507Y-121664429D01*
X62787516Y-121664433D01*
X63001107Y-121721664D01*
X63060768Y-121758029D01*
X63091297Y-121820876D01*
X63083002Y-121890251D01*
X63038517Y-121944129D01*
X63005010Y-121960099D01*
X62866271Y-122002186D01*
X62692467Y-122095086D01*
X62692460Y-122095090D01*
X62540116Y-122220116D01*
X62415090Y-122372460D01*
X62415086Y-122372467D01*
X62322188Y-122546266D01*
X62264975Y-122734870D01*
X62245659Y-122931000D01*
X62264975Y-123127129D01*
X62264976Y-123127132D01*
X62311609Y-123280861D01*
X62322188Y-123315733D01*
X62415086Y-123489532D01*
X62415090Y-123489539D01*
X62540116Y-123641883D01*
X62692460Y-123766909D01*
X62692467Y-123766913D01*
X62866266Y-123859811D01*
X62866269Y-123859811D01*
X62866273Y-123859814D01*
X63054868Y-123917024D01*
X63251000Y-123936341D01*
X63447132Y-123917024D01*
X63635727Y-123859814D01*
X63673899Y-123839411D01*
X63747633Y-123799999D01*
X63809538Y-123766910D01*
X63961883Y-123641883D01*
X64086910Y-123489538D01*
X64148617Y-123374092D01*
X64179811Y-123315733D01*
X64179811Y-123315732D01*
X64179814Y-123315727D01*
X64237024Y-123127132D01*
X64256341Y-122931000D01*
X64243439Y-122799999D01*
X98244750Y-122799999D01*
X98244750Y-122800000D01*
X98263670Y-122943708D01*
X98263671Y-122943712D01*
X98319137Y-123077622D01*
X98319138Y-123077624D01*
X98319139Y-123077625D01*
X98407379Y-123192621D01*
X98416711Y-123199782D01*
X98419113Y-123201625D01*
X98460316Y-123258053D01*
X98464470Y-123327799D01*
X98430257Y-123388719D01*
X98419113Y-123398375D01*
X98407381Y-123407377D01*
X98407380Y-123407378D01*
X98407379Y-123407379D01*
X98363259Y-123464877D01*
X98319137Y-123522377D01*
X98263671Y-123656287D01*
X98263670Y-123656291D01*
X98244750Y-123799999D01*
X98244750Y-123800000D01*
X98263670Y-123943708D01*
X98263671Y-123943712D01*
X98319137Y-124077622D01*
X98319138Y-124077624D01*
X98319139Y-124077625D01*
X98407379Y-124192621D01*
X98416711Y-124199782D01*
X98419113Y-124201625D01*
X98460316Y-124258053D01*
X98464470Y-124327799D01*
X98430257Y-124388719D01*
X98419113Y-124398375D01*
X98407381Y-124407377D01*
X98319137Y-124522377D01*
X98263671Y-124656287D01*
X98263670Y-124656291D01*
X98244750Y-124799999D01*
X98244750Y-124800000D01*
X98263670Y-124943708D01*
X98263671Y-124943712D01*
X98319137Y-125077622D01*
X98319138Y-125077624D01*
X98319139Y-125077625D01*
X98407379Y-125192621D01*
X98522375Y-125280861D01*
X98522376Y-125280861D01*
X98522377Y-125280862D01*
X98567013Y-125299350D01*
X98656291Y-125336330D01*
X98783280Y-125353048D01*
X98799999Y-125355250D01*
X98800000Y-125355250D01*
X98800001Y-125355250D01*
X98814977Y-125353278D01*
X98943709Y-125336330D01*
X99077625Y-125280861D01*
X99118964Y-125249139D01*
X99184133Y-125223945D01*
X99252578Y-125237983D01*
X99302568Y-125286796D01*
X99309012Y-125300063D01*
X99341137Y-125377622D01*
X99341138Y-125377624D01*
X99341139Y-125377625D01*
X99429379Y-125492621D01*
X99544375Y-125580861D01*
X99678291Y-125636330D01*
X99805280Y-125653048D01*
X99821999Y-125655250D01*
X99822000Y-125655250D01*
X99822001Y-125655250D01*
X99836977Y-125653278D01*
X99965709Y-125636330D01*
X100099625Y-125580861D01*
X100214621Y-125492621D01*
X100302861Y-125377625D01*
X100358330Y-125243709D01*
X100377250Y-125100000D01*
X100358330Y-124956291D01*
X100302861Y-124822375D01*
X100214621Y-124707379D01*
X100099625Y-124619139D01*
X100099624Y-124619138D01*
X100099622Y-124619137D01*
X99965712Y-124563671D01*
X99965710Y-124563670D01*
X99965709Y-124563670D01*
X99893854Y-124554210D01*
X99822001Y-124544750D01*
X99821999Y-124544750D01*
X99678291Y-124563670D01*
X99678287Y-124563671D01*
X99544376Y-124619138D01*
X99544375Y-124619138D01*
X99503033Y-124650861D01*
X99437864Y-124676054D01*
X99369419Y-124662015D01*
X99319430Y-124613200D01*
X99312992Y-124599947D01*
X99280861Y-124522375D01*
X99192621Y-124407379D01*
X99180886Y-124398374D01*
X99139685Y-124341950D01*
X99135529Y-124272204D01*
X99169740Y-124211283D01*
X99180876Y-124201632D01*
X99192621Y-124192621D01*
X99280861Y-124077625D01*
X99336330Y-123943709D01*
X99355250Y-123800000D01*
X99336330Y-123656291D01*
X99280861Y-123522375D01*
X99192621Y-123407379D01*
X99180886Y-123398374D01*
X99139685Y-123341950D01*
X99135529Y-123272204D01*
X99169740Y-123211283D01*
X99180876Y-123201632D01*
X99192621Y-123192621D01*
X99194633Y-123189999D01*
X106683750Y-123189999D01*
X106683750Y-123190000D01*
X106702670Y-123333708D01*
X106702671Y-123333712D01*
X106758137Y-123467622D01*
X106758138Y-123467624D01*
X106758139Y-123467625D01*
X106846379Y-123582621D01*
X106961375Y-123670861D01*
X107095291Y-123726330D01*
X107222280Y-123743048D01*
X107238999Y-123745250D01*
X107239000Y-123745250D01*
X107239001Y-123745250D01*
X107253977Y-123743278D01*
X107382709Y-123726330D01*
X107516625Y-123670861D01*
X107631621Y-123582621D01*
X107719861Y-123467625D01*
X107775330Y-123333709D01*
X107794250Y-123190000D01*
X107775330Y-123046291D01*
X107724341Y-122923190D01*
X107719862Y-122912377D01*
X107719861Y-122912376D01*
X107719861Y-122912375D01*
X107631621Y-122797379D01*
X107516625Y-122709139D01*
X107516624Y-122709138D01*
X107516622Y-122709137D01*
X107382712Y-122653671D01*
X107382710Y-122653670D01*
X107382709Y-122653670D01*
X107288220Y-122641230D01*
X107239001Y-122634750D01*
X107238999Y-122634750D01*
X107095291Y-122653670D01*
X107095287Y-122653671D01*
X106961377Y-122709137D01*
X106846379Y-122797379D01*
X106758137Y-122912377D01*
X106702671Y-123046287D01*
X106702670Y-123046291D01*
X106683750Y-123189999D01*
X99194633Y-123189999D01*
X99280861Y-123077625D01*
X99336330Y-122943709D01*
X99355250Y-122800000D01*
X99336330Y-122656291D01*
X99280861Y-122522375D01*
X99192621Y-122407379D01*
X99077625Y-122319139D01*
X99077624Y-122319138D01*
X99077622Y-122319137D01*
X98943712Y-122263671D01*
X98943710Y-122263670D01*
X98943709Y-122263670D01*
X98871854Y-122254210D01*
X98800001Y-122244750D01*
X98799999Y-122244750D01*
X98656291Y-122263670D01*
X98656287Y-122263671D01*
X98522377Y-122319137D01*
X98407379Y-122407379D01*
X98319137Y-122522377D01*
X98263671Y-122656287D01*
X98263670Y-122656291D01*
X98244750Y-122799999D01*
X64243439Y-122799999D01*
X64237024Y-122734868D01*
X64179814Y-122546273D01*
X64179811Y-122546269D01*
X64179811Y-122546266D01*
X64086913Y-122372467D01*
X64086909Y-122372460D01*
X63961883Y-122220116D01*
X63809539Y-122095090D01*
X63809532Y-122095086D01*
X63635728Y-122002186D01*
X63496989Y-121960099D01*
X63438551Y-121921801D01*
X63410094Y-121857989D01*
X63420655Y-121788922D01*
X63466880Y-121736529D01*
X63500892Y-121721664D01*
X63714483Y-121664433D01*
X63714492Y-121664429D01*
X63852664Y-121599999D01*
X99344750Y-121599999D01*
X99344750Y-121600000D01*
X99363670Y-121743708D01*
X99363671Y-121743712D01*
X99419137Y-121877622D01*
X99419138Y-121877624D01*
X99419139Y-121877625D01*
X99507379Y-121992621D01*
X99622375Y-122080861D01*
X99622376Y-122080861D01*
X99622377Y-122080862D01*
X99656718Y-122095086D01*
X99756291Y-122136330D01*
X99883280Y-122153048D01*
X99899999Y-122155250D01*
X99900000Y-122155250D01*
X99900001Y-122155250D01*
X99914977Y-122153278D01*
X100043709Y-122136330D01*
X100177625Y-122080861D01*
X100292621Y-121992621D01*
X100380861Y-121877625D01*
X100436330Y-121743709D01*
X100455250Y-121600000D01*
X100436330Y-121456291D01*
X100380861Y-121322375D01*
X100292621Y-121207379D01*
X100177625Y-121119139D01*
X100177624Y-121119138D01*
X100177622Y-121119137D01*
X100043712Y-121063671D01*
X100043710Y-121063670D01*
X100043709Y-121063670D01*
X99971854Y-121054210D01*
X99900001Y-121044750D01*
X99899999Y-121044750D01*
X99756291Y-121063670D01*
X99756287Y-121063671D01*
X99622377Y-121119137D01*
X99507379Y-121207379D01*
X99419137Y-121322377D01*
X99363671Y-121456287D01*
X99363670Y-121456291D01*
X99344750Y-121599999D01*
X63852664Y-121599999D01*
X63928578Y-121564600D01*
X64122082Y-121429105D01*
X64289105Y-121262082D01*
X64424600Y-121068578D01*
X64524429Y-120854492D01*
X64524432Y-120854486D01*
X64560962Y-120718155D01*
X122044000Y-120718155D01*
X122044000Y-121416000D01*
X123068722Y-121416000D01*
X123024667Y-121492306D01*
X122994000Y-121606756D01*
X122994000Y-121725244D01*
X123024667Y-121839694D01*
X123068722Y-121916000D01*
X122044000Y-121916000D01*
X122044000Y-122613844D01*
X122050401Y-122673372D01*
X122050403Y-122673379D01*
X122100645Y-122808086D01*
X122100649Y-122808093D01*
X122186809Y-122923187D01*
X122186812Y-122923190D01*
X122301906Y-123009350D01*
X122301913Y-123009354D01*
X122436620Y-123059596D01*
X122436627Y-123059598D01*
X122496155Y-123065999D01*
X122496172Y-123066000D01*
X123194000Y-123066000D01*
X123194000Y-122041277D01*
X123270306Y-122085333D01*
X123384756Y-122116000D01*
X123503244Y-122116000D01*
X123617694Y-122085333D01*
X123694000Y-122041277D01*
X123694000Y-123066000D01*
X124391828Y-123066000D01*
X124391844Y-123065999D01*
X124451372Y-123059598D01*
X124451379Y-123059596D01*
X124586086Y-123009354D01*
X124586093Y-123009350D01*
X124701187Y-122923190D01*
X124701190Y-122923187D01*
X124787350Y-122808093D01*
X124787354Y-122808086D01*
X124837596Y-122673379D01*
X124837598Y-122673372D01*
X124843999Y-122613844D01*
X124844000Y-122613827D01*
X124844000Y-122256729D01*
X124863685Y-122189690D01*
X124916489Y-122143935D01*
X124985647Y-122133991D01*
X125049203Y-122163016D01*
X125077356Y-122198273D01*
X125106315Y-122252450D01*
X125106317Y-122252452D01*
X125237589Y-122412410D01*
X125334209Y-122491702D01*
X125397550Y-122543685D01*
X125580046Y-122641232D01*
X125778066Y-122701300D01*
X125778065Y-122701300D01*
X125796529Y-122703118D01*
X125984000Y-122721583D01*
X126189934Y-122701300D01*
X126387954Y-122641232D01*
X126570450Y-122543685D01*
X126730410Y-122412410D01*
X126861685Y-122252450D01*
X126959232Y-122069954D01*
X127019300Y-121871934D01*
X127039583Y-121666000D01*
X127019300Y-121460066D01*
X126959232Y-121262046D01*
X126861685Y-121079550D01*
X126738247Y-120929139D01*
X126730410Y-120919589D01*
X126570452Y-120788317D01*
X126570453Y-120788317D01*
X126570450Y-120788315D01*
X126439191Y-120718155D01*
X127886000Y-120718155D01*
X127886000Y-121416000D01*
X128910722Y-121416000D01*
X128866667Y-121492306D01*
X128836000Y-121606756D01*
X128836000Y-121725244D01*
X128866667Y-121839694D01*
X128910722Y-121916000D01*
X127886000Y-121916000D01*
X127886000Y-122613844D01*
X127892401Y-122673372D01*
X127892403Y-122673379D01*
X127942645Y-122808086D01*
X127942649Y-122808093D01*
X128028809Y-122923187D01*
X128028812Y-122923190D01*
X128143906Y-123009350D01*
X128143913Y-123009354D01*
X128278620Y-123059596D01*
X128278627Y-123059598D01*
X128338155Y-123065999D01*
X128338172Y-123066000D01*
X129036000Y-123066000D01*
X129036000Y-122041277D01*
X129112306Y-122085333D01*
X129226756Y-122116000D01*
X129345244Y-122116000D01*
X129459694Y-122085333D01*
X129536000Y-122041277D01*
X129536000Y-123066000D01*
X130233828Y-123066000D01*
X130233844Y-123065999D01*
X130293372Y-123059598D01*
X130293379Y-123059596D01*
X130428086Y-123009354D01*
X130428093Y-123009350D01*
X130543187Y-122923190D01*
X130543190Y-122923187D01*
X130552613Y-122910600D01*
X142530059Y-122910600D01*
X142549375Y-123106729D01*
X142606588Y-123295333D01*
X142699486Y-123469132D01*
X142699490Y-123469139D01*
X142824516Y-123621483D01*
X142976860Y-123746509D01*
X142976867Y-123746513D01*
X143150666Y-123839411D01*
X143150669Y-123839411D01*
X143150673Y-123839414D01*
X143339268Y-123896624D01*
X143535400Y-123915941D01*
X143731532Y-123896624D01*
X143920127Y-123839414D01*
X144093938Y-123746510D01*
X144246283Y-123621483D01*
X144371310Y-123469138D01*
X144427052Y-123364851D01*
X144464212Y-123295331D01*
X144464212Y-123295330D01*
X144464214Y-123295327D01*
X144506300Y-123156588D01*
X144544597Y-123098151D01*
X144608409Y-123069695D01*
X144677476Y-123080255D01*
X144729870Y-123126479D01*
X144744735Y-123160491D01*
X144801967Y-123374086D01*
X144801970Y-123374092D01*
X144901799Y-123588178D01*
X145037294Y-123781682D01*
X145204317Y-123948705D01*
X145397821Y-124084200D01*
X145611907Y-124184029D01*
X145611916Y-124184033D01*
X145825400Y-124241234D01*
X145825400Y-123343612D01*
X145882407Y-123376525D01*
X146009574Y-123410600D01*
X146141226Y-123410600D01*
X146268393Y-123376525D01*
X146325400Y-123343612D01*
X146325400Y-124241233D01*
X146538883Y-124184033D01*
X146538892Y-124184029D01*
X146752978Y-124084200D01*
X146946482Y-123948705D01*
X147113505Y-123781682D01*
X147249000Y-123588178D01*
X147348829Y-123374092D01*
X147348832Y-123374086D01*
X147406036Y-123160600D01*
X146508412Y-123160600D01*
X146541325Y-123103593D01*
X146575400Y-122976426D01*
X146575400Y-122844774D01*
X146541325Y-122717607D01*
X146508412Y-122660600D01*
X147406036Y-122660600D01*
X147406035Y-122660599D01*
X147348832Y-122447113D01*
X147348829Y-122447107D01*
X147249000Y-122233022D01*
X147248999Y-122233020D01*
X147113513Y-122039526D01*
X147113508Y-122039520D01*
X146946482Y-121872494D01*
X146752978Y-121736999D01*
X146538892Y-121637170D01*
X146538886Y-121637167D01*
X146325291Y-121579935D01*
X146265631Y-121543570D01*
X146235102Y-121480723D01*
X146243397Y-121411347D01*
X146287882Y-121357470D01*
X146321386Y-121341500D01*
X146460127Y-121299414D01*
X146633938Y-121206510D01*
X146786283Y-121081483D01*
X146911310Y-120929138D01*
X146957762Y-120842232D01*
X147004211Y-120755333D01*
X147004211Y-120755332D01*
X147004214Y-120755327D01*
X147061424Y-120566732D01*
X147080741Y-120370600D01*
X147061424Y-120174468D01*
X147004214Y-119985873D01*
X147004211Y-119985869D01*
X147004211Y-119985866D01*
X146911313Y-119812067D01*
X146911309Y-119812060D01*
X146786283Y-119659716D01*
X146633939Y-119534690D01*
X146633932Y-119534686D01*
X146460133Y-119441788D01*
X146460127Y-119441786D01*
X146271532Y-119384576D01*
X146271529Y-119384575D01*
X146075400Y-119365259D01*
X145879270Y-119384575D01*
X145690666Y-119441788D01*
X145516867Y-119534686D01*
X145516860Y-119534690D01*
X145364516Y-119659716D01*
X145239490Y-119812060D01*
X145239486Y-119812067D01*
X145146588Y-119985866D01*
X145089375Y-120174470D01*
X145070059Y-120370600D01*
X145089375Y-120566729D01*
X145089376Y-120566732D01*
X145127002Y-120690769D01*
X145146588Y-120755333D01*
X145239486Y-120929132D01*
X145239490Y-120929139D01*
X145364516Y-121081483D01*
X145516860Y-121206509D01*
X145516867Y-121206513D01*
X145690666Y-121299411D01*
X145690669Y-121299411D01*
X145690673Y-121299414D01*
X145829411Y-121341500D01*
X145887848Y-121379797D01*
X145916305Y-121443609D01*
X145905744Y-121512676D01*
X145859520Y-121565070D01*
X145825508Y-121579935D01*
X145611913Y-121637167D01*
X145611907Y-121637170D01*
X145397822Y-121736999D01*
X145397820Y-121737000D01*
X145204326Y-121872486D01*
X145204320Y-121872491D01*
X145037291Y-122039520D01*
X145037286Y-122039526D01*
X144901800Y-122233020D01*
X144901799Y-122233022D01*
X144801970Y-122447107D01*
X144801967Y-122447113D01*
X144744735Y-122660708D01*
X144708370Y-122720368D01*
X144645523Y-122750897D01*
X144576147Y-122742602D01*
X144522269Y-122698117D01*
X144506300Y-122664613D01*
X144464214Y-122525873D01*
X144464211Y-122525869D01*
X144464211Y-122525866D01*
X144371313Y-122352067D01*
X144371309Y-122352060D01*
X144246283Y-122199716D01*
X144093939Y-122074690D01*
X144093932Y-122074686D01*
X143920133Y-121981788D01*
X143920127Y-121981786D01*
X143731532Y-121924576D01*
X143731529Y-121924575D01*
X143535400Y-121905259D01*
X143339270Y-121924575D01*
X143150666Y-121981788D01*
X142976867Y-122074686D01*
X142976860Y-122074690D01*
X142824516Y-122199716D01*
X142699490Y-122352060D01*
X142699486Y-122352067D01*
X142606588Y-122525866D01*
X142549375Y-122714470D01*
X142530059Y-122910600D01*
X130552613Y-122910600D01*
X130629350Y-122808093D01*
X130629354Y-122808086D01*
X130679596Y-122673379D01*
X130679598Y-122673372D01*
X130685999Y-122613844D01*
X130686000Y-122613827D01*
X130686000Y-122256729D01*
X130705685Y-122189690D01*
X130758489Y-122143935D01*
X130827647Y-122133991D01*
X130891203Y-122163016D01*
X130919356Y-122198273D01*
X130948315Y-122252450D01*
X130948317Y-122252452D01*
X131079589Y-122412410D01*
X131176209Y-122491702D01*
X131239550Y-122543685D01*
X131422046Y-122641232D01*
X131620066Y-122701300D01*
X131620065Y-122701300D01*
X131638529Y-122703118D01*
X131826000Y-122721583D01*
X132031934Y-122701300D01*
X132229954Y-122641232D01*
X132412450Y-122543685D01*
X132572410Y-122412410D01*
X132703685Y-122252450D01*
X132801232Y-122069954D01*
X132861300Y-121871934D01*
X132881583Y-121666000D01*
X132861300Y-121460066D01*
X132801232Y-121262046D01*
X132703685Y-121079550D01*
X132580247Y-120929139D01*
X132572410Y-120919589D01*
X132412452Y-120788317D01*
X132412453Y-120788317D01*
X132412450Y-120788315D01*
X132229954Y-120690768D01*
X132031934Y-120630700D01*
X132031932Y-120630699D01*
X132031934Y-120630699D01*
X131826000Y-120610417D01*
X131620067Y-120630699D01*
X131422043Y-120690769D01*
X131370777Y-120718172D01*
X131239550Y-120788315D01*
X131239548Y-120788316D01*
X131239547Y-120788317D01*
X131079589Y-120919589D01*
X130948315Y-121079548D01*
X130919357Y-121133725D01*
X130870394Y-121183568D01*
X130802257Y-121199028D01*
X130736577Y-121175195D01*
X130694209Y-121119637D01*
X130686000Y-121075270D01*
X130686000Y-120718172D01*
X130685999Y-120718155D01*
X130679598Y-120658627D01*
X130679596Y-120658620D01*
X130629354Y-120523913D01*
X130629350Y-120523906D01*
X130543190Y-120408812D01*
X130543187Y-120408809D01*
X130428093Y-120322649D01*
X130428086Y-120322645D01*
X130293379Y-120272403D01*
X130293372Y-120272401D01*
X130233844Y-120266000D01*
X129536000Y-120266000D01*
X129536000Y-121290722D01*
X129459694Y-121246667D01*
X129345244Y-121216000D01*
X129226756Y-121216000D01*
X129112306Y-121246667D01*
X129036000Y-121290722D01*
X129036000Y-120266000D01*
X128338155Y-120266000D01*
X128278627Y-120272401D01*
X128278620Y-120272403D01*
X128143913Y-120322645D01*
X128143906Y-120322649D01*
X128028812Y-120408809D01*
X128028809Y-120408812D01*
X127942649Y-120523906D01*
X127942645Y-120523913D01*
X127892403Y-120658620D01*
X127892401Y-120658627D01*
X127886000Y-120718155D01*
X126439191Y-120718155D01*
X126387954Y-120690768D01*
X126189934Y-120630700D01*
X126189932Y-120630699D01*
X126189934Y-120630699D01*
X125984000Y-120610417D01*
X125778067Y-120630699D01*
X125580043Y-120690769D01*
X125528777Y-120718172D01*
X125397550Y-120788315D01*
X125397548Y-120788316D01*
X125397547Y-120788317D01*
X125237589Y-120919589D01*
X125106315Y-121079548D01*
X125077357Y-121133725D01*
X125028394Y-121183568D01*
X124960257Y-121199028D01*
X124894577Y-121175195D01*
X124852209Y-121119637D01*
X124844000Y-121075270D01*
X124844000Y-120718172D01*
X124843999Y-120718155D01*
X124837598Y-120658627D01*
X124837596Y-120658620D01*
X124787354Y-120523913D01*
X124787350Y-120523906D01*
X124701190Y-120408812D01*
X124701187Y-120408809D01*
X124586093Y-120322649D01*
X124586086Y-120322645D01*
X124451379Y-120272403D01*
X124451372Y-120272401D01*
X124391844Y-120266000D01*
X123694000Y-120266000D01*
X123694000Y-121290722D01*
X123617694Y-121246667D01*
X123503244Y-121216000D01*
X123384756Y-121216000D01*
X123270306Y-121246667D01*
X123194000Y-121290722D01*
X123194000Y-120266000D01*
X122496155Y-120266000D01*
X122436627Y-120272401D01*
X122436620Y-120272403D01*
X122301913Y-120322645D01*
X122301906Y-120322649D01*
X122186812Y-120408809D01*
X122186809Y-120408812D01*
X122100649Y-120523906D01*
X122100645Y-120523913D01*
X122050403Y-120658620D01*
X122050401Y-120658627D01*
X122044000Y-120718155D01*
X64560962Y-120718155D01*
X64581636Y-120641000D01*
X63684012Y-120641000D01*
X63716925Y-120583993D01*
X63751000Y-120456826D01*
X63751000Y-120325174D01*
X63716925Y-120198007D01*
X63684012Y-120141000D01*
X64581636Y-120141000D01*
X64581635Y-120140999D01*
X64524432Y-119927513D01*
X64524429Y-119927507D01*
X64424600Y-119713422D01*
X64424599Y-119713420D01*
X64289113Y-119519926D01*
X64289108Y-119519920D01*
X64122082Y-119352894D01*
X63928578Y-119217399D01*
X63714492Y-119117570D01*
X63714486Y-119117567D01*
X63500891Y-119060335D01*
X63441231Y-119023970D01*
X63410702Y-118961123D01*
X63418997Y-118891747D01*
X63463482Y-118837870D01*
X63496986Y-118821900D01*
X63635727Y-118779814D01*
X63809538Y-118686910D01*
X63854513Y-118650000D01*
X100994750Y-118650000D01*
X101011840Y-118779812D01*
X101013670Y-118793708D01*
X101013671Y-118793712D01*
X101069137Y-118927622D01*
X101069138Y-118927624D01*
X101069139Y-118927625D01*
X101157379Y-119042621D01*
X101272375Y-119130861D01*
X101406291Y-119186330D01*
X101533280Y-119203048D01*
X101549999Y-119205250D01*
X101550000Y-119205250D01*
X101550001Y-119205250D01*
X101564977Y-119203278D01*
X101693709Y-119186330D01*
X101827625Y-119130861D01*
X101942621Y-119042621D01*
X101957440Y-119023307D01*
X102013866Y-118982105D01*
X102083611Y-118977948D01*
X102144533Y-119012159D01*
X102154191Y-119023306D01*
X102182605Y-119060335D01*
X102207379Y-119092621D01*
X102322375Y-119180861D01*
X102322376Y-119180861D01*
X102322377Y-119180862D01*
X102367013Y-119199350D01*
X102456291Y-119236330D01*
X102583280Y-119253048D01*
X102599999Y-119255250D01*
X102600000Y-119255250D01*
X102600001Y-119255250D01*
X102616414Y-119253089D01*
X102743709Y-119236330D01*
X102877625Y-119180861D01*
X102992621Y-119092621D01*
X103080861Y-118977625D01*
X103136330Y-118843709D01*
X103155250Y-118700000D01*
X103136330Y-118556291D01*
X103080861Y-118422375D01*
X102992621Y-118307379D01*
X102877625Y-118219139D01*
X102877624Y-118219138D01*
X102877622Y-118219137D01*
X102743712Y-118163671D01*
X102743710Y-118163670D01*
X102743709Y-118163670D01*
X102671854Y-118154210D01*
X102600001Y-118144750D01*
X102599999Y-118144750D01*
X102456291Y-118163670D01*
X102456287Y-118163671D01*
X102322377Y-118219137D01*
X102207377Y-118307380D01*
X102192557Y-118326695D01*
X102136128Y-118367896D01*
X102066382Y-118372049D01*
X102005463Y-118337836D01*
X101995808Y-118326693D01*
X101972659Y-118296525D01*
X101942621Y-118257379D01*
X101827625Y-118169139D01*
X101827624Y-118169138D01*
X101827622Y-118169137D01*
X101693712Y-118113671D01*
X101693710Y-118113670D01*
X101693709Y-118113670D01*
X101681017Y-118111999D01*
X110748380Y-118111999D01*
X110748380Y-118112000D01*
X110767300Y-118255708D01*
X110767301Y-118255712D01*
X110822767Y-118389622D01*
X110822768Y-118389624D01*
X110822769Y-118389625D01*
X110911009Y-118504621D01*
X111026005Y-118592861D01*
X111159921Y-118648330D01*
X111286910Y-118665048D01*
X111303629Y-118667250D01*
X111303630Y-118667250D01*
X111303631Y-118667250D01*
X111318607Y-118665278D01*
X111447339Y-118648330D01*
X111581255Y-118592861D01*
X111696251Y-118504621D01*
X111696255Y-118504616D01*
X111698134Y-118502738D01*
X111700109Y-118501659D01*
X111702698Y-118499673D01*
X111703007Y-118500076D01*
X111759457Y-118469253D01*
X111829149Y-118474237D01*
X111868864Y-118499761D01*
X111868932Y-118499673D01*
X111869989Y-118500484D01*
X111873496Y-118502738D01*
X111875374Y-118504616D01*
X111875376Y-118504618D01*
X111875379Y-118504621D01*
X111990375Y-118592861D01*
X112124291Y-118648330D01*
X112251280Y-118665048D01*
X112267999Y-118667250D01*
X112268000Y-118667250D01*
X112268001Y-118667250D01*
X112282977Y-118665278D01*
X112411709Y-118648330D01*
X112545625Y-118592861D01*
X112660621Y-118504621D01*
X112748861Y-118389625D01*
X112804330Y-118255709D01*
X112823250Y-118112000D01*
X112804330Y-117968291D01*
X112748861Y-117834375D01*
X112660621Y-117719379D01*
X112545625Y-117631139D01*
X112545624Y-117631138D01*
X112545622Y-117631137D01*
X112411712Y-117575671D01*
X112411710Y-117575670D01*
X112411709Y-117575670D01*
X112333558Y-117565381D01*
X112268001Y-117556750D01*
X112267999Y-117556750D01*
X112124291Y-117575670D01*
X112124287Y-117575671D01*
X111990377Y-117631137D01*
X111875374Y-117719383D01*
X111873496Y-117721262D01*
X111871520Y-117722340D01*
X111868932Y-117724327D01*
X111868622Y-117723923D01*
X111812173Y-117754747D01*
X111742481Y-117749763D01*
X111702765Y-117724238D01*
X111702698Y-117724327D01*
X111701640Y-117723515D01*
X111698134Y-117721262D01*
X111696255Y-117719383D01*
X111696252Y-117719381D01*
X111696251Y-117719379D01*
X111581255Y-117631139D01*
X111581254Y-117631138D01*
X111581252Y-117631137D01*
X111447342Y-117575671D01*
X111447340Y-117575670D01*
X111447339Y-117575670D01*
X111369188Y-117565381D01*
X111303631Y-117556750D01*
X111303629Y-117556750D01*
X111159921Y-117575670D01*
X111159917Y-117575671D01*
X111026007Y-117631137D01*
X110911009Y-117719379D01*
X110822767Y-117834377D01*
X110767301Y-117968287D01*
X110767300Y-117968291D01*
X110748380Y-118111999D01*
X101681017Y-118111999D01*
X101563589Y-118096539D01*
X101550001Y-118094750D01*
X101549999Y-118094750D01*
X101406291Y-118113670D01*
X101406287Y-118113671D01*
X101272377Y-118169137D01*
X101157379Y-118257379D01*
X101069137Y-118372377D01*
X101013671Y-118506287D01*
X101013670Y-118506291D01*
X101002273Y-118592862D01*
X100994750Y-118650000D01*
X63854513Y-118650000D01*
X63961883Y-118561883D01*
X64086910Y-118409538D01*
X64169132Y-118255712D01*
X64179811Y-118235733D01*
X64179811Y-118235732D01*
X64179814Y-118235727D01*
X64237024Y-118047132D01*
X64256341Y-117851000D01*
X64237024Y-117654868D01*
X64179814Y-117466273D01*
X64179811Y-117466269D01*
X64179811Y-117466266D01*
X64144391Y-117400000D01*
X108444750Y-117400000D01*
X108450788Y-117445866D01*
X108463670Y-117543708D01*
X108463671Y-117543712D01*
X108519137Y-117677622D01*
X108519138Y-117677624D01*
X108519139Y-117677625D01*
X108607379Y-117792621D01*
X108722375Y-117880861D01*
X108856291Y-117936330D01*
X108983280Y-117953048D01*
X108999999Y-117955250D01*
X109000000Y-117955250D01*
X109000001Y-117955250D01*
X109014977Y-117953278D01*
X109143709Y-117936330D01*
X109277625Y-117880861D01*
X109392621Y-117792621D01*
X109480861Y-117677625D01*
X109536330Y-117543709D01*
X109555250Y-117400000D01*
X109536330Y-117256291D01*
X109488210Y-117140117D01*
X109480862Y-117122377D01*
X109480861Y-117122376D01*
X109480861Y-117122375D01*
X109392621Y-117007379D01*
X109295370Y-116932755D01*
X142185400Y-116932755D01*
X142185400Y-117580600D01*
X143102388Y-117580600D01*
X143069475Y-117637607D01*
X143035400Y-117764774D01*
X143035400Y-117896426D01*
X143069475Y-118023593D01*
X143102388Y-118080600D01*
X142185400Y-118080600D01*
X142185400Y-118728444D01*
X142191801Y-118787972D01*
X142191803Y-118787979D01*
X142242045Y-118922686D01*
X142242049Y-118922693D01*
X142328209Y-119037787D01*
X142328212Y-119037790D01*
X142443306Y-119123950D01*
X142443313Y-119123954D01*
X142578020Y-119174196D01*
X142578027Y-119174198D01*
X142637555Y-119180599D01*
X142637572Y-119180600D01*
X143175748Y-119180600D01*
X143242787Y-119200285D01*
X143288542Y-119253089D01*
X143298486Y-119322247D01*
X143269461Y-119385803D01*
X143211744Y-119423260D01*
X143182030Y-119432273D01*
X143150668Y-119441787D01*
X142976867Y-119534686D01*
X142976860Y-119534690D01*
X142824516Y-119659716D01*
X142699490Y-119812060D01*
X142699486Y-119812067D01*
X142606588Y-119985866D01*
X142549375Y-120174470D01*
X142530059Y-120370600D01*
X142549375Y-120566729D01*
X142549376Y-120566732D01*
X142587002Y-120690769D01*
X142606588Y-120755333D01*
X142699486Y-120929132D01*
X142699490Y-120929139D01*
X142824516Y-121081483D01*
X142976860Y-121206509D01*
X142976867Y-121206513D01*
X143150666Y-121299411D01*
X143150669Y-121299411D01*
X143150673Y-121299414D01*
X143339268Y-121356624D01*
X143535400Y-121375941D01*
X143731532Y-121356624D01*
X143920127Y-121299414D01*
X144093938Y-121206510D01*
X144246283Y-121081483D01*
X144371310Y-120929138D01*
X144417762Y-120842232D01*
X144464211Y-120755333D01*
X144464211Y-120755332D01*
X144464214Y-120755327D01*
X144521424Y-120566732D01*
X144540741Y-120370600D01*
X144521424Y-120174468D01*
X144464214Y-119985873D01*
X144464211Y-119985869D01*
X144464211Y-119985866D01*
X144371313Y-119812067D01*
X144371309Y-119812060D01*
X144246283Y-119659716D01*
X144093939Y-119534690D01*
X144093932Y-119534686D01*
X143920131Y-119441787D01*
X143901590Y-119436162D01*
X143859055Y-119423260D01*
X143800618Y-119384963D01*
X143772162Y-119321151D01*
X143782722Y-119252084D01*
X143828946Y-119199690D01*
X143895052Y-119180600D01*
X144433228Y-119180600D01*
X144433244Y-119180599D01*
X144492772Y-119174198D01*
X144492779Y-119174196D01*
X144627486Y-119123954D01*
X144627493Y-119123950D01*
X144742587Y-119037790D01*
X144742590Y-119037787D01*
X144828750Y-118922693D01*
X144828754Y-118922686D01*
X144878996Y-118787979D01*
X144878998Y-118787972D01*
X144885399Y-118728444D01*
X144885400Y-118728427D01*
X144885400Y-118190252D01*
X144905085Y-118123213D01*
X144957889Y-118077458D01*
X145027047Y-118067514D01*
X145090603Y-118096539D01*
X145128060Y-118154255D01*
X145132575Y-118169139D01*
X145146587Y-118215331D01*
X145239486Y-118389132D01*
X145239490Y-118389139D01*
X145364516Y-118541483D01*
X145516860Y-118666509D01*
X145516867Y-118666513D01*
X145690666Y-118759411D01*
X145690669Y-118759411D01*
X145690673Y-118759414D01*
X145879268Y-118816624D01*
X146075400Y-118835941D01*
X146271532Y-118816624D01*
X146460127Y-118759414D01*
X146633938Y-118666510D01*
X146786283Y-118541483D01*
X146911310Y-118389138D01*
X146993310Y-118235727D01*
X147004211Y-118215333D01*
X147004212Y-118215331D01*
X147004214Y-118215327D01*
X147061424Y-118026732D01*
X147080741Y-117830600D01*
X147061424Y-117634468D01*
X147004214Y-117445873D01*
X147004211Y-117445869D01*
X147004211Y-117445866D01*
X146911313Y-117272067D01*
X146911309Y-117272060D01*
X146786283Y-117119716D01*
X146633939Y-116994690D01*
X146633932Y-116994686D01*
X146460133Y-116901788D01*
X146460127Y-116901786D01*
X146271532Y-116844576D01*
X146271529Y-116844575D01*
X146075400Y-116825259D01*
X145879270Y-116844575D01*
X145690666Y-116901788D01*
X145516867Y-116994686D01*
X145516860Y-116994690D01*
X145364516Y-117119716D01*
X145239490Y-117272060D01*
X145239486Y-117272067D01*
X145146586Y-117445871D01*
X145128060Y-117506943D01*
X145089763Y-117565381D01*
X145025950Y-117593838D01*
X144956883Y-117583277D01*
X144904490Y-117537052D01*
X144885400Y-117470947D01*
X144885400Y-116932772D01*
X144885399Y-116932755D01*
X144878998Y-116873227D01*
X144878996Y-116873220D01*
X144828754Y-116738513D01*
X144828750Y-116738506D01*
X144742590Y-116623412D01*
X144742587Y-116623409D01*
X144627493Y-116537249D01*
X144627486Y-116537245D01*
X144492779Y-116487003D01*
X144492772Y-116487001D01*
X144433244Y-116480600D01*
X143785400Y-116480600D01*
X143785400Y-117397588D01*
X143728393Y-117364675D01*
X143601226Y-117330600D01*
X143469574Y-117330600D01*
X143342407Y-117364675D01*
X143285400Y-117397588D01*
X143285400Y-116480600D01*
X142637555Y-116480600D01*
X142578027Y-116487001D01*
X142578020Y-116487003D01*
X142443313Y-116537245D01*
X142443306Y-116537249D01*
X142328212Y-116623409D01*
X142328209Y-116623412D01*
X142242049Y-116738506D01*
X142242045Y-116738513D01*
X142191803Y-116873220D01*
X142191801Y-116873227D01*
X142185400Y-116932755D01*
X109295370Y-116932755D01*
X109277625Y-116919139D01*
X109277624Y-116919138D01*
X109277622Y-116919137D01*
X109143712Y-116863671D01*
X109143710Y-116863670D01*
X109143709Y-116863670D01*
X109071854Y-116854210D01*
X109000001Y-116844750D01*
X108999999Y-116844750D01*
X108856291Y-116863670D01*
X108856287Y-116863671D01*
X108722377Y-116919137D01*
X108607379Y-117007379D01*
X108519137Y-117122377D01*
X108463671Y-117256287D01*
X108463670Y-117256291D01*
X108444750Y-117400000D01*
X64144391Y-117400000D01*
X64086913Y-117292467D01*
X64086909Y-117292460D01*
X63961883Y-117140116D01*
X63809539Y-117015090D01*
X63809532Y-117015086D01*
X63635733Y-116922188D01*
X63635727Y-116922186D01*
X63458189Y-116868330D01*
X63447129Y-116864975D01*
X63251000Y-116845659D01*
X63054870Y-116864975D01*
X62866266Y-116922188D01*
X62692467Y-117015086D01*
X62692460Y-117015090D01*
X62540116Y-117140116D01*
X62415090Y-117292460D01*
X62415086Y-117292467D01*
X62322188Y-117466266D01*
X62264975Y-117654870D01*
X62245659Y-117851000D01*
X62264975Y-118047129D01*
X62264976Y-118047132D01*
X62317153Y-118219137D01*
X62322188Y-118235733D01*
X62415086Y-118409532D01*
X62415090Y-118409539D01*
X62540116Y-118561883D01*
X62692460Y-118686909D01*
X62692467Y-118686913D01*
X62866266Y-118779811D01*
X62866269Y-118779811D01*
X62866273Y-118779814D01*
X63005011Y-118821900D01*
X63063448Y-118860197D01*
X63091905Y-118924009D01*
X63081344Y-118993076D01*
X63035120Y-119045470D01*
X63001108Y-119060335D01*
X62787513Y-119117567D01*
X62787507Y-119117570D01*
X62573422Y-119217399D01*
X62573420Y-119217400D01*
X62379926Y-119352886D01*
X62379920Y-119352891D01*
X62212891Y-119519920D01*
X62212890Y-119519922D01*
X62082575Y-119706031D01*
X62027998Y-119749655D01*
X61958499Y-119756848D01*
X61896145Y-119725326D01*
X61879425Y-119706031D01*
X61749109Y-119519922D01*
X61749108Y-119519920D01*
X61582082Y-119352894D01*
X61388578Y-119217399D01*
X61174492Y-119117570D01*
X61174486Y-119117567D01*
X60960891Y-119060335D01*
X60901231Y-119023970D01*
X60870702Y-118961123D01*
X60878997Y-118891747D01*
X60923482Y-118837870D01*
X60956986Y-118821900D01*
X61095727Y-118779814D01*
X61269538Y-118686910D01*
X61421883Y-118561883D01*
X61546910Y-118409538D01*
X61629132Y-118255712D01*
X61639811Y-118235733D01*
X61639811Y-118235732D01*
X61639814Y-118235727D01*
X61697024Y-118047132D01*
X61716341Y-117851000D01*
X61697024Y-117654868D01*
X61639814Y-117466273D01*
X61639811Y-117466269D01*
X61639811Y-117466266D01*
X61546913Y-117292467D01*
X61546909Y-117292460D01*
X61421883Y-117140116D01*
X61269539Y-117015090D01*
X61269532Y-117015086D01*
X61095733Y-116922188D01*
X61095727Y-116922186D01*
X60918189Y-116868330D01*
X60907129Y-116864975D01*
X60711000Y-116845659D01*
X60514870Y-116864975D01*
X60326266Y-116922188D01*
X60152467Y-117015086D01*
X60152460Y-117015090D01*
X60000116Y-117140116D01*
X59875090Y-117292460D01*
X59875086Y-117292467D01*
X59782188Y-117466266D01*
X59724975Y-117654870D01*
X59705659Y-117851000D01*
X59724975Y-118047129D01*
X59724976Y-118047132D01*
X59777153Y-118219137D01*
X59782188Y-118235733D01*
X59875086Y-118409532D01*
X59875090Y-118409539D01*
X60000116Y-118561883D01*
X60152460Y-118686909D01*
X60152467Y-118686913D01*
X60326266Y-118779811D01*
X60326269Y-118779811D01*
X60326273Y-118779814D01*
X60465011Y-118821900D01*
X60523448Y-118860197D01*
X60551905Y-118924009D01*
X60541344Y-118993076D01*
X60495120Y-119045470D01*
X60461108Y-119060335D01*
X60247513Y-119117567D01*
X60247507Y-119117570D01*
X60033422Y-119217399D01*
X60033420Y-119217400D01*
X59839926Y-119352886D01*
X59839920Y-119352891D01*
X59672891Y-119519920D01*
X59672886Y-119519926D01*
X59537400Y-119713420D01*
X59537399Y-119713422D01*
X59437570Y-119927507D01*
X59437567Y-119927513D01*
X59380364Y-120140999D01*
X55372000Y-120140999D01*
X55372000Y-115311000D01*
X59705659Y-115311000D01*
X59724975Y-115507129D01*
X59782188Y-115695733D01*
X59875086Y-115869532D01*
X59875090Y-115869539D01*
X60000116Y-116021883D01*
X60152460Y-116146909D01*
X60152467Y-116146913D01*
X60326266Y-116239811D01*
X60326269Y-116239811D01*
X60326273Y-116239814D01*
X60514868Y-116297024D01*
X60711000Y-116316341D01*
X60907132Y-116297024D01*
X61095727Y-116239814D01*
X61269538Y-116146910D01*
X61421883Y-116021883D01*
X61546910Y-115869538D01*
X61639814Y-115695727D01*
X61697024Y-115507132D01*
X61716341Y-115311000D01*
X62245659Y-115311000D01*
X62264975Y-115507129D01*
X62322188Y-115695733D01*
X62415086Y-115869532D01*
X62415090Y-115869539D01*
X62540116Y-116021883D01*
X62692460Y-116146909D01*
X62692467Y-116146913D01*
X62866266Y-116239811D01*
X62866269Y-116239811D01*
X62866273Y-116239814D01*
X63054868Y-116297024D01*
X63251000Y-116316341D01*
X63447132Y-116297024D01*
X63635727Y-116239814D01*
X63809538Y-116146910D01*
X63961883Y-116021883D01*
X64086910Y-115869538D01*
X64179814Y-115695727D01*
X64237024Y-115507132D01*
X64255849Y-115315999D01*
X98504750Y-115315999D01*
X98504750Y-115316000D01*
X98523670Y-115459708D01*
X98523671Y-115459712D01*
X98579137Y-115593622D01*
X98579138Y-115593624D01*
X98579139Y-115593625D01*
X98667379Y-115708621D01*
X98667382Y-115708623D01*
X98689539Y-115725626D01*
X98730741Y-115782054D01*
X98734894Y-115851800D01*
X98700681Y-115912720D01*
X98689539Y-115922374D01*
X98667382Y-115939376D01*
X98667380Y-115939377D01*
X98667379Y-115939379D01*
X98640240Y-115974747D01*
X98579137Y-116054377D01*
X98523671Y-116188287D01*
X98523670Y-116188291D01*
X98504750Y-116331999D01*
X98504750Y-116332000D01*
X98523670Y-116475708D01*
X98523671Y-116475712D01*
X98579137Y-116609622D01*
X98579138Y-116609624D01*
X98579139Y-116609625D01*
X98667379Y-116724621D01*
X98782375Y-116812861D01*
X98916291Y-116868330D01*
X99043280Y-116885048D01*
X99059999Y-116887250D01*
X99060000Y-116887250D01*
X99060001Y-116887250D01*
X99074977Y-116885278D01*
X99203709Y-116868330D01*
X99337625Y-116812861D01*
X99452621Y-116724621D01*
X99540861Y-116609625D01*
X99596330Y-116475709D01*
X99615250Y-116332000D01*
X99615250Y-116331999D01*
X110748380Y-116331999D01*
X110748380Y-116332000D01*
X110767300Y-116475708D01*
X110767301Y-116475712D01*
X110822767Y-116609622D01*
X110822768Y-116609624D01*
X110822769Y-116609625D01*
X110911009Y-116724621D01*
X111026005Y-116812861D01*
X111159921Y-116868330D01*
X111286910Y-116885048D01*
X111303629Y-116887250D01*
X111303630Y-116887250D01*
X111303631Y-116887250D01*
X111318607Y-116885278D01*
X111447339Y-116868330D01*
X111581255Y-116812861D01*
X111696251Y-116724621D01*
X111696255Y-116724616D01*
X111698134Y-116722738D01*
X111700109Y-116721659D01*
X111702698Y-116719673D01*
X111703007Y-116720076D01*
X111759457Y-116689253D01*
X111829149Y-116694237D01*
X111868864Y-116719761D01*
X111868932Y-116719673D01*
X111869989Y-116720484D01*
X111873496Y-116722738D01*
X111875374Y-116724616D01*
X111875376Y-116724618D01*
X111875379Y-116724621D01*
X111990375Y-116812861D01*
X112124291Y-116868330D01*
X112251280Y-116885048D01*
X112267999Y-116887250D01*
X112268000Y-116887250D01*
X112268001Y-116887250D01*
X112282977Y-116885278D01*
X112411709Y-116868330D01*
X112545625Y-116812861D01*
X112660621Y-116724621D01*
X112748861Y-116609625D01*
X112804330Y-116475709D01*
X112823250Y-116332000D01*
X112804330Y-116188291D01*
X112748861Y-116054375D01*
X112660621Y-115939379D01*
X112545625Y-115851139D01*
X112545624Y-115851138D01*
X112545622Y-115851137D01*
X112411712Y-115795671D01*
X112411710Y-115795670D01*
X112411709Y-115795670D01*
X112339854Y-115786210D01*
X112268001Y-115776750D01*
X112267999Y-115776750D01*
X112124291Y-115795670D01*
X112124287Y-115795671D01*
X111990377Y-115851137D01*
X111875374Y-115939383D01*
X111873496Y-115941262D01*
X111871520Y-115942340D01*
X111868932Y-115944327D01*
X111868622Y-115943923D01*
X111812173Y-115974747D01*
X111742481Y-115969763D01*
X111702765Y-115944238D01*
X111702698Y-115944327D01*
X111701640Y-115943515D01*
X111698134Y-115941262D01*
X111696255Y-115939383D01*
X111696252Y-115939381D01*
X111696251Y-115939379D01*
X111581255Y-115851139D01*
X111581254Y-115851138D01*
X111581252Y-115851137D01*
X111447342Y-115795671D01*
X111447340Y-115795670D01*
X111447339Y-115795670D01*
X111375484Y-115786210D01*
X111303631Y-115776750D01*
X111303629Y-115776750D01*
X111159921Y-115795670D01*
X111159917Y-115795671D01*
X111026007Y-115851137D01*
X110911009Y-115939379D01*
X110822767Y-116054377D01*
X110767301Y-116188287D01*
X110767300Y-116188291D01*
X110748380Y-116331999D01*
X99615250Y-116331999D01*
X99596330Y-116188291D01*
X99540861Y-116054375D01*
X99452621Y-115939379D01*
X99430459Y-115922373D01*
X99389259Y-115865948D01*
X99385104Y-115796202D01*
X99419316Y-115735281D01*
X99430450Y-115725633D01*
X99452621Y-115708621D01*
X99540861Y-115593625D01*
X99596330Y-115459709D01*
X99615250Y-115316000D01*
X99596330Y-115172291D01*
X99540861Y-115038375D01*
X99452621Y-114923379D01*
X99337625Y-114835139D01*
X99337624Y-114835138D01*
X99337622Y-114835137D01*
X99203712Y-114779671D01*
X99203710Y-114779670D01*
X99203709Y-114779670D01*
X99131854Y-114770210D01*
X99060001Y-114760750D01*
X99059999Y-114760750D01*
X98916291Y-114779670D01*
X98916287Y-114779671D01*
X98782377Y-114835137D01*
X98667379Y-114923379D01*
X98579137Y-115038377D01*
X98523671Y-115172287D01*
X98523670Y-115172291D01*
X98504750Y-115315999D01*
X64255849Y-115315999D01*
X64256341Y-115311000D01*
X64237024Y-115114868D01*
X64179814Y-114926273D01*
X64179811Y-114926269D01*
X64179811Y-114926266D01*
X64086913Y-114752467D01*
X64086909Y-114752460D01*
X63961883Y-114600116D01*
X63809539Y-114475090D01*
X63809532Y-114475086D01*
X63635733Y-114382188D01*
X63635727Y-114382186D01*
X63458189Y-114328330D01*
X63447129Y-114324975D01*
X63251000Y-114305659D01*
X63054870Y-114324975D01*
X62866266Y-114382188D01*
X62692467Y-114475086D01*
X62692460Y-114475090D01*
X62540116Y-114600116D01*
X62415090Y-114752460D01*
X62415086Y-114752467D01*
X62322188Y-114926266D01*
X62264975Y-115114870D01*
X62245659Y-115311000D01*
X61716341Y-115311000D01*
X61697024Y-115114868D01*
X61639814Y-114926273D01*
X61639811Y-114926269D01*
X61639811Y-114926266D01*
X61546913Y-114752467D01*
X61546909Y-114752460D01*
X61421883Y-114600116D01*
X61269539Y-114475090D01*
X61269532Y-114475086D01*
X61095733Y-114382188D01*
X61095727Y-114382186D01*
X60918189Y-114328330D01*
X60907129Y-114324975D01*
X60711000Y-114305659D01*
X60514870Y-114324975D01*
X60326266Y-114382188D01*
X60152467Y-114475086D01*
X60152460Y-114475090D01*
X60000116Y-114600116D01*
X59875090Y-114752460D01*
X59875086Y-114752467D01*
X59782188Y-114926266D01*
X59724975Y-115114870D01*
X59705659Y-115311000D01*
X55372000Y-115311000D01*
X55372000Y-113791999D01*
X110567250Y-113791999D01*
X110567250Y-113792000D01*
X110586170Y-113935708D01*
X110586171Y-113935712D01*
X110641637Y-114069622D01*
X110641638Y-114069624D01*
X110641639Y-114069625D01*
X110729879Y-114184621D01*
X110844875Y-114272861D01*
X110978791Y-114328330D01*
X111105780Y-114345048D01*
X111122499Y-114347250D01*
X111122500Y-114347250D01*
X111122501Y-114347250D01*
X111137477Y-114345278D01*
X111266209Y-114328330D01*
X111400125Y-114272861D01*
X111515121Y-114184621D01*
X111603361Y-114069625D01*
X111658830Y-113935709D01*
X111677750Y-113792000D01*
X111658830Y-113648291D01*
X111603361Y-113514375D01*
X111515121Y-113399379D01*
X111400125Y-113311139D01*
X111400124Y-113311138D01*
X111400122Y-113311137D01*
X111334603Y-113283999D01*
X134826750Y-113283999D01*
X134826750Y-113284000D01*
X134845670Y-113427708D01*
X134845671Y-113427712D01*
X134901137Y-113561622D01*
X134901138Y-113561624D01*
X134901139Y-113561625D01*
X134989379Y-113676621D01*
X135104375Y-113764861D01*
X135238291Y-113820330D01*
X135365280Y-113837048D01*
X135381999Y-113839250D01*
X135382000Y-113839250D01*
X135382001Y-113839250D01*
X135396977Y-113837278D01*
X135525709Y-113820330D01*
X135659625Y-113764861D01*
X135774621Y-113676621D01*
X135862861Y-113561625D01*
X135918330Y-113427709D01*
X135937250Y-113284000D01*
X135918330Y-113140291D01*
X135862861Y-113006375D01*
X135774621Y-112891379D01*
X135659625Y-112803139D01*
X135659624Y-112803138D01*
X135659622Y-112803137D01*
X135525712Y-112747671D01*
X135525710Y-112747670D01*
X135525709Y-112747670D01*
X135453854Y-112738210D01*
X135382001Y-112728750D01*
X135381999Y-112728750D01*
X135238291Y-112747670D01*
X135238287Y-112747671D01*
X135104377Y-112803137D01*
X134989379Y-112891379D01*
X134901137Y-113006377D01*
X134845671Y-113140287D01*
X134845670Y-113140291D01*
X134826750Y-113283999D01*
X111334603Y-113283999D01*
X111266212Y-113255671D01*
X111266210Y-113255670D01*
X111266209Y-113255670D01*
X111194354Y-113246210D01*
X111122501Y-113236750D01*
X111122499Y-113236750D01*
X110978791Y-113255670D01*
X110978787Y-113255671D01*
X110844877Y-113311137D01*
X110729879Y-113399379D01*
X110641637Y-113514377D01*
X110586171Y-113648287D01*
X110586170Y-113648291D01*
X110567250Y-113791999D01*
X55372000Y-113791999D01*
X55372000Y-110870070D01*
X62890500Y-110870070D01*
X62890500Y-111125929D01*
X62930526Y-111378640D01*
X63009588Y-111621972D01*
X63009589Y-111621975D01*
X63125750Y-111849950D01*
X63276132Y-112056935D01*
X63276136Y-112056940D01*
X63457059Y-112237863D01*
X63457064Y-112237867D01*
X63637607Y-112369038D01*
X63664053Y-112388252D01*
X63813080Y-112464185D01*
X63892024Y-112504410D01*
X63892027Y-112504411D01*
X64013693Y-112543942D01*
X64135361Y-112583474D01*
X64388070Y-112623500D01*
X64388071Y-112623500D01*
X64643929Y-112623500D01*
X64643930Y-112623500D01*
X64896639Y-112583474D01*
X65139975Y-112504410D01*
X65367947Y-112388252D01*
X65574942Y-112237862D01*
X65755862Y-112056942D01*
X65906252Y-111849947D01*
X66022410Y-111621975D01*
X66101474Y-111378639D01*
X66141500Y-111125930D01*
X66141500Y-110870070D01*
X140868500Y-110870070D01*
X140868500Y-111125929D01*
X140908526Y-111378640D01*
X140987588Y-111621972D01*
X140987589Y-111621975D01*
X141103750Y-111849950D01*
X141254132Y-112056935D01*
X141254136Y-112056940D01*
X141435059Y-112237863D01*
X141435064Y-112237867D01*
X141615607Y-112369038D01*
X141642053Y-112388252D01*
X141791080Y-112464185D01*
X141870024Y-112504410D01*
X141870027Y-112504411D01*
X141991693Y-112543942D01*
X142113361Y-112583474D01*
X142366070Y-112623500D01*
X142366071Y-112623500D01*
X142621929Y-112623500D01*
X142621930Y-112623500D01*
X142874639Y-112583474D01*
X143117975Y-112504410D01*
X143345947Y-112388252D01*
X143552942Y-112237862D01*
X143733862Y-112056942D01*
X143884252Y-111849947D01*
X144000410Y-111621975D01*
X144079474Y-111378639D01*
X144119500Y-111125930D01*
X144119500Y-110870070D01*
X144079474Y-110617361D01*
X144000604Y-110374621D01*
X144000411Y-110374027D01*
X144000410Y-110374024D01*
X143942120Y-110259625D01*
X143884252Y-110146053D01*
X143865038Y-110119607D01*
X143733867Y-109939064D01*
X143733863Y-109939059D01*
X143552940Y-109758136D01*
X143552935Y-109758132D01*
X143345950Y-109607750D01*
X143345949Y-109607749D01*
X143345947Y-109607748D01*
X143272910Y-109570533D01*
X143117975Y-109491589D01*
X143117972Y-109491588D01*
X142874640Y-109412526D01*
X142748284Y-109392513D01*
X142621930Y-109372500D01*
X142366070Y-109372500D01*
X142281833Y-109385842D01*
X142113359Y-109412526D01*
X141870027Y-109491588D01*
X141870024Y-109491589D01*
X141642049Y-109607750D01*
X141435064Y-109758132D01*
X141435059Y-109758136D01*
X141254136Y-109939059D01*
X141254132Y-109939064D01*
X141103750Y-110146049D01*
X140987589Y-110374024D01*
X140987588Y-110374027D01*
X140908526Y-110617359D01*
X140868500Y-110870070D01*
X66141500Y-110870070D01*
X66101474Y-110617361D01*
X66022604Y-110374621D01*
X66022411Y-110374027D01*
X66022410Y-110374024D01*
X65964120Y-110259625D01*
X65906252Y-110146053D01*
X65887038Y-110119607D01*
X65787061Y-109981999D01*
X111204750Y-109981999D01*
X111204750Y-109982000D01*
X111223670Y-110125708D01*
X111223671Y-110125712D01*
X111279137Y-110259622D01*
X111279138Y-110259624D01*
X111279139Y-110259625D01*
X111367379Y-110374621D01*
X111482375Y-110462861D01*
X111616291Y-110518330D01*
X111743280Y-110535048D01*
X111759999Y-110537250D01*
X111760000Y-110537250D01*
X111760001Y-110537250D01*
X111774977Y-110535278D01*
X111903709Y-110518330D01*
X112037625Y-110462861D01*
X112152621Y-110374621D01*
X112240861Y-110259625D01*
X112296330Y-110125709D01*
X112315250Y-109982000D01*
X112296330Y-109838291D01*
X112240861Y-109704375D01*
X112152621Y-109589379D01*
X112037625Y-109501139D01*
X112037624Y-109501138D01*
X112037622Y-109501137D01*
X111903712Y-109445671D01*
X111903710Y-109445670D01*
X111903709Y-109445670D01*
X111831854Y-109436210D01*
X111760001Y-109426750D01*
X111759999Y-109426750D01*
X111616291Y-109445670D01*
X111616287Y-109445671D01*
X111482377Y-109501137D01*
X111367379Y-109589379D01*
X111279137Y-109704377D01*
X111223671Y-109838287D01*
X111223670Y-109838291D01*
X111204750Y-109981999D01*
X65787061Y-109981999D01*
X65755867Y-109939064D01*
X65755863Y-109939059D01*
X65574940Y-109758136D01*
X65574935Y-109758132D01*
X65367950Y-109607750D01*
X65367949Y-109607749D01*
X65367947Y-109607748D01*
X65294910Y-109570533D01*
X65139975Y-109491589D01*
X65139972Y-109491588D01*
X64896640Y-109412526D01*
X64770284Y-109392513D01*
X64643930Y-109372500D01*
X64388070Y-109372500D01*
X64303833Y-109385842D01*
X64135359Y-109412526D01*
X63892027Y-109491588D01*
X63892024Y-109491589D01*
X63664049Y-109607750D01*
X63457064Y-109758132D01*
X63457059Y-109758136D01*
X63276136Y-109939059D01*
X63276132Y-109939064D01*
X63125750Y-110146049D01*
X63009589Y-110374024D01*
X63009588Y-110374027D01*
X62930526Y-110617359D01*
X62890500Y-110870070D01*
X55372000Y-110870070D01*
X55372000Y-107799999D01*
X99344750Y-107799999D01*
X99344750Y-107800000D01*
X99363670Y-107943708D01*
X99363671Y-107943712D01*
X99419137Y-108077622D01*
X99419138Y-108077624D01*
X99419139Y-108077625D01*
X99507379Y-108192621D01*
X99622375Y-108280861D01*
X99633428Y-108285439D01*
X99687831Y-108329281D01*
X99709895Y-108395575D01*
X99692615Y-108463274D01*
X99641478Y-108510884D01*
X99633433Y-108514558D01*
X99622375Y-108519139D01*
X99507379Y-108607379D01*
X99419137Y-108722377D01*
X99363671Y-108856287D01*
X99363670Y-108856291D01*
X99344750Y-108999999D01*
X99344750Y-109000000D01*
X99363670Y-109143708D01*
X99363671Y-109143712D01*
X99419137Y-109277622D01*
X99419138Y-109277624D01*
X99419139Y-109277625D01*
X99507379Y-109392621D01*
X99622375Y-109480861D01*
X99622376Y-109480861D01*
X99622377Y-109480862D01*
X99648275Y-109491589D01*
X99756291Y-109536330D01*
X99883280Y-109553048D01*
X99899999Y-109555250D01*
X99900000Y-109555250D01*
X99900001Y-109555250D01*
X99914977Y-109553278D01*
X100043709Y-109536330D01*
X100177625Y-109480861D01*
X100292621Y-109392621D01*
X100380861Y-109277625D01*
X100436330Y-109143709D01*
X100455250Y-109000000D01*
X100436330Y-108856291D01*
X100380861Y-108722375D01*
X100292621Y-108607379D01*
X100177625Y-108519139D01*
X100166570Y-108514560D01*
X100112170Y-108470721D01*
X100090104Y-108404427D01*
X100107383Y-108336728D01*
X100158519Y-108289117D01*
X100166553Y-108285446D01*
X100177625Y-108280861D01*
X100292621Y-108192621D01*
X100380861Y-108077625D01*
X100436330Y-107943709D01*
X100455250Y-107800000D01*
X100436330Y-107656291D01*
X100380861Y-107522375D01*
X100292621Y-107407379D01*
X100177625Y-107319139D01*
X100177624Y-107319138D01*
X100177622Y-107319137D01*
X100043712Y-107263671D01*
X100043710Y-107263670D01*
X100043709Y-107263670D01*
X99971854Y-107254210D01*
X99900001Y-107244750D01*
X99899999Y-107244750D01*
X99756291Y-107263670D01*
X99756287Y-107263671D01*
X99622377Y-107319137D01*
X99507379Y-107407379D01*
X99419137Y-107522377D01*
X99363671Y-107656287D01*
X99363670Y-107656291D01*
X99344750Y-107799999D01*
X55372000Y-107799999D01*
X55372000Y-105405153D01*
X69487500Y-105405153D01*
X69487500Y-105562846D01*
X69518261Y-105717489D01*
X69518264Y-105717501D01*
X69578602Y-105863172D01*
X69578609Y-105863185D01*
X69666210Y-105994288D01*
X69666213Y-105994292D01*
X69777707Y-106105786D01*
X69777711Y-106105789D01*
X69908814Y-106193390D01*
X69908827Y-106193397D01*
X70054498Y-106253735D01*
X70054503Y-106253737D01*
X70209153Y-106284499D01*
X70209156Y-106284500D01*
X70209158Y-106284500D01*
X70366844Y-106284500D01*
X70366845Y-106284499D01*
X70521497Y-106253737D01*
X70667179Y-106193394D01*
X70798289Y-106105789D01*
X70909789Y-105994289D01*
X70997394Y-105863179D01*
X71057737Y-105717497D01*
X71088500Y-105562842D01*
X71088500Y-105405158D01*
X71088500Y-105405155D01*
X71088499Y-105405153D01*
X71083601Y-105380530D01*
X90237500Y-105380530D01*
X90237500Y-105587469D01*
X90277868Y-105790412D01*
X90277870Y-105790420D01*
X90357058Y-105981596D01*
X90472024Y-106153657D01*
X90618342Y-106299975D01*
X90618345Y-106299977D01*
X90790402Y-106414941D01*
X90981580Y-106494130D01*
X91184530Y-106534499D01*
X91184534Y-106534500D01*
X91184535Y-106534500D01*
X91391466Y-106534500D01*
X91391467Y-106534499D01*
X91594420Y-106494130D01*
X91785598Y-106414941D01*
X91957655Y-106299977D01*
X92103977Y-106153655D01*
X92218941Y-105981598D01*
X92298130Y-105790420D01*
X92338500Y-105587465D01*
X92338500Y-105380535D01*
X92298130Y-105177580D01*
X92218941Y-104986402D01*
X92103977Y-104814345D01*
X92103975Y-104814342D01*
X91957657Y-104668024D01*
X91871626Y-104610541D01*
X91785598Y-104553059D01*
X91594420Y-104473870D01*
X91594412Y-104473868D01*
X91391469Y-104433500D01*
X91391465Y-104433500D01*
X91184535Y-104433500D01*
X91184530Y-104433500D01*
X90981587Y-104473868D01*
X90981579Y-104473870D01*
X90790403Y-104553058D01*
X90618342Y-104668024D01*
X90472024Y-104814342D01*
X90357058Y-104986403D01*
X90277870Y-105177579D01*
X90277868Y-105177587D01*
X90237500Y-105380530D01*
X71083601Y-105380530D01*
X71057738Y-105250510D01*
X71057737Y-105250503D01*
X71057735Y-105250498D01*
X70997397Y-105104827D01*
X70997390Y-105104814D01*
X70909789Y-104973711D01*
X70909786Y-104973707D01*
X70798292Y-104862213D01*
X70798288Y-104862210D01*
X70667185Y-104774609D01*
X70667172Y-104774602D01*
X70521501Y-104714264D01*
X70521489Y-104714261D01*
X70366845Y-104683500D01*
X70366842Y-104683500D01*
X70209158Y-104683500D01*
X70209155Y-104683500D01*
X70054510Y-104714261D01*
X70054498Y-104714264D01*
X69908827Y-104774602D01*
X69908814Y-104774609D01*
X69777711Y-104862210D01*
X69777707Y-104862213D01*
X69666213Y-104973707D01*
X69666210Y-104973711D01*
X69578609Y-105104814D01*
X69578602Y-105104827D01*
X69518264Y-105250498D01*
X69518261Y-105250510D01*
X69487500Y-105405153D01*
X55372000Y-105405153D01*
X55372000Y-101210155D01*
X59356000Y-101210155D01*
X59356000Y-101858000D01*
X60272988Y-101858000D01*
X60240075Y-101915007D01*
X60206000Y-102042174D01*
X60206000Y-102173826D01*
X60240075Y-102300993D01*
X60272988Y-102358000D01*
X59356000Y-102358000D01*
X59356000Y-103005844D01*
X59362401Y-103065372D01*
X59362403Y-103065379D01*
X59412645Y-103200086D01*
X59412649Y-103200093D01*
X59498809Y-103315187D01*
X59498812Y-103315190D01*
X59613906Y-103401350D01*
X59613913Y-103401354D01*
X59748620Y-103451596D01*
X59748627Y-103451598D01*
X59808155Y-103457999D01*
X59808172Y-103458000D01*
X60456000Y-103458000D01*
X60456000Y-102541012D01*
X60513007Y-102573925D01*
X60640174Y-102608000D01*
X60771826Y-102608000D01*
X60898993Y-102573925D01*
X60956000Y-102541012D01*
X60956000Y-103458000D01*
X61603828Y-103458000D01*
X61603844Y-103457999D01*
X61663372Y-103451598D01*
X61663379Y-103451596D01*
X61798086Y-103401354D01*
X61798093Y-103401350D01*
X61913187Y-103315190D01*
X61913190Y-103315187D01*
X61999350Y-103200093D01*
X61999354Y-103200086D01*
X62049596Y-103065379D01*
X62049598Y-103065372D01*
X62055999Y-103005844D01*
X62056000Y-103005827D01*
X62056000Y-102467652D01*
X62075685Y-102400613D01*
X62128489Y-102354858D01*
X62197647Y-102344914D01*
X62261203Y-102373939D01*
X62298661Y-102431657D01*
X62317187Y-102492731D01*
X62410086Y-102666532D01*
X62410090Y-102666539D01*
X62535116Y-102818883D01*
X62687460Y-102943909D01*
X62687467Y-102943913D01*
X62861266Y-103036811D01*
X62861269Y-103036811D01*
X62861273Y-103036814D01*
X63049868Y-103094024D01*
X63246000Y-103113341D01*
X63442132Y-103094024D01*
X63630727Y-103036814D01*
X63804538Y-102943910D01*
X63956883Y-102818883D01*
X64081910Y-102666538D01*
X64131413Y-102573925D01*
X64174811Y-102492733D01*
X64174812Y-102492731D01*
X64174814Y-102492727D01*
X64232024Y-102304132D01*
X64251341Y-102108000D01*
X64232024Y-101911868D01*
X64174814Y-101723273D01*
X64174811Y-101723269D01*
X64174811Y-101723266D01*
X64081913Y-101549467D01*
X64081909Y-101549460D01*
X63956883Y-101397116D01*
X63804539Y-101272090D01*
X63804532Y-101272086D01*
X63630733Y-101179188D01*
X63630727Y-101179186D01*
X63442132Y-101121976D01*
X63442129Y-101121975D01*
X63246000Y-101102659D01*
X63049870Y-101121975D01*
X62861266Y-101179188D01*
X62687467Y-101272086D01*
X62687460Y-101272090D01*
X62535116Y-101397116D01*
X62410090Y-101549460D01*
X62410086Y-101549467D01*
X62317186Y-101723271D01*
X62298660Y-101784343D01*
X62260363Y-101842781D01*
X62196550Y-101871238D01*
X62127483Y-101860677D01*
X62075090Y-101814452D01*
X62056000Y-101748347D01*
X62056000Y-101210172D01*
X62055999Y-101210155D01*
X62049598Y-101150627D01*
X62049596Y-101150620D01*
X62027732Y-101092000D01*
X69040750Y-101092000D01*
X69057558Y-101219670D01*
X69059670Y-101235708D01*
X69059671Y-101235712D01*
X69115137Y-101369622D01*
X69115138Y-101369624D01*
X69115139Y-101369625D01*
X69203379Y-101484621D01*
X69318375Y-101572861D01*
X69452291Y-101628330D01*
X69571960Y-101644085D01*
X69595999Y-101647250D01*
X69596000Y-101647250D01*
X69596001Y-101647250D01*
X69620040Y-101644085D01*
X69739709Y-101628330D01*
X69873625Y-101572861D01*
X69988621Y-101484621D01*
X70076861Y-101369625D01*
X70116439Y-101274074D01*
X70160279Y-101219670D01*
X70226573Y-101197605D01*
X70294273Y-101214884D01*
X70341884Y-101266021D01*
X70345561Y-101274074D01*
X70385137Y-101369622D01*
X70385138Y-101369624D01*
X70385139Y-101369625D01*
X70473379Y-101484621D01*
X70588375Y-101572861D01*
X70722291Y-101628330D01*
X70841960Y-101644085D01*
X70865999Y-101647250D01*
X70866000Y-101647250D01*
X70866001Y-101647250D01*
X70890040Y-101644085D01*
X71009709Y-101628330D01*
X71143625Y-101572861D01*
X71258621Y-101484621D01*
X71346861Y-101369625D01*
X71402330Y-101235709D01*
X71407031Y-101200000D01*
X91344750Y-101200000D01*
X91354240Y-101272086D01*
X91363670Y-101343708D01*
X91363671Y-101343712D01*
X91419137Y-101477622D01*
X91419138Y-101477624D01*
X91419139Y-101477625D01*
X91507379Y-101592621D01*
X91622375Y-101680861D01*
X91756291Y-101736330D01*
X91883280Y-101753048D01*
X91899999Y-101755250D01*
X91902785Y-101755250D01*
X91905049Y-101755914D01*
X91908058Y-101756311D01*
X91907996Y-101756780D01*
X91969824Y-101774935D01*
X92015579Y-101827739D01*
X92025523Y-101896897D01*
X92017346Y-101926702D01*
X91963671Y-102056287D01*
X91963670Y-102056291D01*
X91944750Y-102200000D01*
X91958459Y-102304132D01*
X91963670Y-102343708D01*
X91963671Y-102343712D01*
X92019137Y-102477622D01*
X92019138Y-102477624D01*
X92019139Y-102477625D01*
X92107379Y-102592621D01*
X92222375Y-102680861D01*
X92356291Y-102736330D01*
X92483280Y-102753048D01*
X92499999Y-102755250D01*
X92500000Y-102755250D01*
X92500001Y-102755250D01*
X92514977Y-102753278D01*
X92643709Y-102736330D01*
X92777625Y-102680861D01*
X92892621Y-102592621D01*
X92980861Y-102477625D01*
X93036330Y-102343709D01*
X93055250Y-102200000D01*
X93036330Y-102056291D01*
X92980861Y-101922375D01*
X92892621Y-101807379D01*
X92777625Y-101719139D01*
X92777624Y-101719138D01*
X92777622Y-101719137D01*
X92643712Y-101663671D01*
X92643710Y-101663670D01*
X92643709Y-101663670D01*
X92571854Y-101654210D01*
X92500001Y-101644750D01*
X92497215Y-101644750D01*
X92494950Y-101644085D01*
X92491942Y-101643689D01*
X92492003Y-101643219D01*
X92430176Y-101625065D01*
X92384421Y-101572261D01*
X92374477Y-101503103D01*
X92382654Y-101473298D01*
X92425595Y-101369625D01*
X92436330Y-101343709D01*
X92455250Y-101200000D01*
X92436330Y-101056291D01*
X92380861Y-100922375D01*
X92292621Y-100807379D01*
X92177625Y-100719139D01*
X92177624Y-100719138D01*
X92177622Y-100719137D01*
X92043712Y-100663671D01*
X92043710Y-100663670D01*
X92043709Y-100663670D01*
X91971854Y-100654210D01*
X91900001Y-100644750D01*
X91899999Y-100644750D01*
X91756291Y-100663670D01*
X91756287Y-100663671D01*
X91622377Y-100719137D01*
X91507379Y-100807379D01*
X91419137Y-100922377D01*
X91363671Y-101056287D01*
X91363670Y-101056291D01*
X91344750Y-101200000D01*
X71407031Y-101200000D01*
X71421250Y-101092000D01*
X71402330Y-100948291D01*
X71365350Y-100859013D01*
X71346862Y-100814377D01*
X71346861Y-100814376D01*
X71346861Y-100814375D01*
X71258621Y-100699379D01*
X71143625Y-100611139D01*
X71143624Y-100611138D01*
X71143622Y-100611137D01*
X71078106Y-100584000D01*
X111458750Y-100584000D01*
X111476541Y-100719137D01*
X111477670Y-100727708D01*
X111477671Y-100727712D01*
X111533137Y-100861622D01*
X111533138Y-100861624D01*
X111533139Y-100861625D01*
X111621379Y-100976621D01*
X111736375Y-101064861D01*
X111870291Y-101120330D01*
X111997280Y-101137048D01*
X112013999Y-101139250D01*
X112014000Y-101139250D01*
X112014001Y-101139250D01*
X112028977Y-101137278D01*
X112157709Y-101120330D01*
X112291625Y-101064861D01*
X112406621Y-100976621D01*
X112494861Y-100861625D01*
X112550330Y-100727709D01*
X112569250Y-100584000D01*
X112550330Y-100440291D01*
X112494861Y-100306375D01*
X112406621Y-100191379D01*
X112291625Y-100103139D01*
X112291624Y-100103138D01*
X112291622Y-100103137D01*
X112157712Y-100047671D01*
X112157710Y-100047670D01*
X112157709Y-100047670D01*
X112085854Y-100038210D01*
X112014001Y-100028750D01*
X112013999Y-100028750D01*
X111870291Y-100047670D01*
X111870287Y-100047671D01*
X111736377Y-100103137D01*
X111621379Y-100191379D01*
X111533137Y-100306377D01*
X111477671Y-100440287D01*
X111477670Y-100440291D01*
X111458750Y-100584000D01*
X71078106Y-100584000D01*
X71009712Y-100555671D01*
X71009710Y-100555670D01*
X71009709Y-100555670D01*
X70937854Y-100546210D01*
X70866001Y-100536750D01*
X70865999Y-100536750D01*
X70722291Y-100555670D01*
X70722287Y-100555671D01*
X70588377Y-100611137D01*
X70519914Y-100663671D01*
X70473379Y-100699379D01*
X70390508Y-100807379D01*
X70385137Y-100814378D01*
X70345561Y-100909925D01*
X70301720Y-100964329D01*
X70235426Y-100986394D01*
X70167727Y-100969115D01*
X70120116Y-100917978D01*
X70116439Y-100909925D01*
X70076862Y-100814378D01*
X70076861Y-100814375D01*
X69988621Y-100699379D01*
X69873625Y-100611139D01*
X69873624Y-100611138D01*
X69873622Y-100611137D01*
X69739712Y-100555671D01*
X69739710Y-100555670D01*
X69739709Y-100555670D01*
X69667854Y-100546210D01*
X69596001Y-100536750D01*
X69595999Y-100536750D01*
X69452291Y-100555670D01*
X69452287Y-100555671D01*
X69318377Y-100611137D01*
X69203379Y-100699379D01*
X69115137Y-100814377D01*
X69059671Y-100948287D01*
X69059670Y-100948291D01*
X69040750Y-101092000D01*
X62027732Y-101092000D01*
X61999354Y-101015913D01*
X61999350Y-101015906D01*
X61913190Y-100900812D01*
X61913187Y-100900809D01*
X61798093Y-100814649D01*
X61798086Y-100814645D01*
X61663379Y-100764403D01*
X61663372Y-100764401D01*
X61603844Y-100758000D01*
X60956000Y-100758000D01*
X60956000Y-101674988D01*
X60898993Y-101642075D01*
X60771826Y-101608000D01*
X60640174Y-101608000D01*
X60513007Y-101642075D01*
X60456000Y-101674988D01*
X60456000Y-100758000D01*
X59808155Y-100758000D01*
X59748627Y-100764401D01*
X59748620Y-100764403D01*
X59613913Y-100814645D01*
X59613906Y-100814649D01*
X59498812Y-100900809D01*
X59498809Y-100900812D01*
X59412649Y-101015906D01*
X59412645Y-101015913D01*
X59362403Y-101150620D01*
X59362401Y-101150627D01*
X59356000Y-101210155D01*
X55372000Y-101210155D01*
X55372000Y-99567999D01*
X101552750Y-99567999D01*
X101552750Y-99568000D01*
X101571670Y-99711708D01*
X101571671Y-99711712D01*
X101627137Y-99845622D01*
X101627138Y-99845624D01*
X101627139Y-99845625D01*
X101715379Y-99960621D01*
X101830375Y-100048861D01*
X101964291Y-100104330D01*
X102091280Y-100121048D01*
X102107999Y-100123250D01*
X102108000Y-100123250D01*
X102108001Y-100123250D01*
X102122977Y-100121278D01*
X102251709Y-100104330D01*
X102385625Y-100048861D01*
X102500621Y-99960621D01*
X102588861Y-99845625D01*
X102644330Y-99711709D01*
X102663250Y-99568000D01*
X102663250Y-99567999D01*
X108664750Y-99567999D01*
X108664750Y-99568000D01*
X108683670Y-99711708D01*
X108683671Y-99711712D01*
X108739137Y-99845622D01*
X108739138Y-99845624D01*
X108739139Y-99845625D01*
X108827379Y-99960621D01*
X108942375Y-100048861D01*
X109076291Y-100104330D01*
X109203280Y-100121048D01*
X109219999Y-100123250D01*
X109220000Y-100123250D01*
X109220001Y-100123250D01*
X109234977Y-100121278D01*
X109363709Y-100104330D01*
X109497625Y-100048861D01*
X109612621Y-99960621D01*
X109700861Y-99845625D01*
X109710647Y-99821999D01*
X139144750Y-99821999D01*
X139144750Y-99822000D01*
X139163670Y-99965708D01*
X139163671Y-99965712D01*
X139219137Y-100099622D01*
X139219138Y-100099624D01*
X139219139Y-100099625D01*
X139307379Y-100214621D01*
X139422375Y-100302861D01*
X139422376Y-100302861D01*
X139422377Y-100302862D01*
X139467013Y-100321350D01*
X139556291Y-100358330D01*
X139683280Y-100375048D01*
X139699999Y-100377250D01*
X139700000Y-100377250D01*
X139700001Y-100377250D01*
X139714977Y-100375278D01*
X139843709Y-100358330D01*
X139977625Y-100302861D01*
X140092621Y-100214621D01*
X140180861Y-100099625D01*
X140236330Y-99965709D01*
X140255250Y-99822000D01*
X140236330Y-99678291D01*
X140180861Y-99544375D01*
X140092621Y-99429379D01*
X139977625Y-99341139D01*
X139977624Y-99341138D01*
X139977622Y-99341137D01*
X139843712Y-99285671D01*
X139843710Y-99285670D01*
X139843709Y-99285670D01*
X139771854Y-99276210D01*
X139700001Y-99266750D01*
X139699999Y-99266750D01*
X139556291Y-99285670D01*
X139556287Y-99285671D01*
X139422377Y-99341137D01*
X139307379Y-99429379D01*
X139219137Y-99544377D01*
X139163671Y-99678287D01*
X139163670Y-99678291D01*
X139144750Y-99821999D01*
X109710647Y-99821999D01*
X109756330Y-99711709D01*
X109775250Y-99568000D01*
X109756330Y-99424291D01*
X109700861Y-99290375D01*
X109612621Y-99175379D01*
X109497625Y-99087139D01*
X109497624Y-99087138D01*
X109497622Y-99087137D01*
X109363712Y-99031671D01*
X109363710Y-99031670D01*
X109363709Y-99031670D01*
X109291854Y-99022210D01*
X109220001Y-99012750D01*
X109219999Y-99012750D01*
X109076291Y-99031670D01*
X109076287Y-99031671D01*
X108942377Y-99087137D01*
X108827379Y-99175379D01*
X108739137Y-99290377D01*
X108683671Y-99424287D01*
X108683670Y-99424291D01*
X108664750Y-99567999D01*
X102663250Y-99567999D01*
X102644330Y-99424291D01*
X102588861Y-99290375D01*
X102500621Y-99175379D01*
X102385625Y-99087139D01*
X102385624Y-99087138D01*
X102385622Y-99087137D01*
X102251712Y-99031671D01*
X102251710Y-99031670D01*
X102251709Y-99031670D01*
X102179854Y-99022210D01*
X102108001Y-99012750D01*
X102107999Y-99012750D01*
X101964291Y-99031670D01*
X101964287Y-99031671D01*
X101830377Y-99087137D01*
X101715379Y-99175379D01*
X101627137Y-99290377D01*
X101571671Y-99424287D01*
X101571670Y-99424291D01*
X101552750Y-99567999D01*
X55372000Y-99567999D01*
X55372000Y-98168000D01*
X55391685Y-98100961D01*
X55444489Y-98055206D01*
X55496000Y-98044000D01*
X62738000Y-98044000D01*
X62738000Y-97599999D01*
X119144750Y-97599999D01*
X119144750Y-97600000D01*
X119163670Y-97743708D01*
X119163671Y-97743712D01*
X119219137Y-97877622D01*
X119219138Y-97877624D01*
X119219139Y-97877625D01*
X119307379Y-97992621D01*
X119422375Y-98080861D01*
X119556291Y-98136330D01*
X119683280Y-98153048D01*
X119699999Y-98155250D01*
X119700000Y-98155250D01*
X119700001Y-98155250D01*
X119714977Y-98153278D01*
X119843709Y-98136330D01*
X119977625Y-98080861D01*
X120092621Y-97992621D01*
X120180861Y-97877625D01*
X120236330Y-97743709D01*
X120255250Y-97600000D01*
X120236330Y-97456291D01*
X120180861Y-97322375D01*
X120092621Y-97207379D01*
X119977625Y-97119139D01*
X119977624Y-97119138D01*
X119977622Y-97119137D01*
X119843712Y-97063671D01*
X119843710Y-97063670D01*
X119843709Y-97063670D01*
X119752197Y-97051622D01*
X119700001Y-97044750D01*
X119699999Y-97044750D01*
X119556291Y-97063670D01*
X119556287Y-97063671D01*
X119422377Y-97119137D01*
X119307379Y-97207379D01*
X119219137Y-97322377D01*
X119163671Y-97456287D01*
X119163670Y-97456291D01*
X119144750Y-97599999D01*
X62738000Y-97599999D01*
X62738000Y-94199997D01*
X69995034Y-94199997D01*
X69995034Y-94200002D01*
X70014858Y-94426599D01*
X70014860Y-94426610D01*
X70073730Y-94646317D01*
X70073735Y-94646331D01*
X70169863Y-94852478D01*
X70220974Y-94925472D01*
X70900000Y-94246446D01*
X70900000Y-94252661D01*
X70927259Y-94354394D01*
X70979920Y-94445606D01*
X71054394Y-94520080D01*
X71145606Y-94572741D01*
X71247339Y-94600000D01*
X71253553Y-94600000D01*
X70574526Y-95279025D01*
X70647513Y-95330132D01*
X70647521Y-95330136D01*
X70853668Y-95426264D01*
X70853682Y-95426269D01*
X71073389Y-95485139D01*
X71073400Y-95485141D01*
X71299998Y-95504966D01*
X71300002Y-95504966D01*
X71526599Y-95485141D01*
X71526610Y-95485139D01*
X71746317Y-95426269D01*
X71746331Y-95426264D01*
X71952478Y-95330136D01*
X72025471Y-95279024D01*
X71346447Y-94600000D01*
X71352661Y-94600000D01*
X71454394Y-94572741D01*
X71545606Y-94520080D01*
X71620080Y-94445606D01*
X71672741Y-94354394D01*
X71700000Y-94252661D01*
X71700000Y-94246447D01*
X72379024Y-94925471D01*
X72430136Y-94852478D01*
X72526264Y-94646331D01*
X72526269Y-94646317D01*
X72585139Y-94426610D01*
X72585141Y-94426599D01*
X72601972Y-94234223D01*
X72614470Y-94202270D01*
X72613038Y-94200042D01*
X72836264Y-94200042D01*
X72847069Y-94220598D01*
X72849500Y-94245030D01*
X72849500Y-95014820D01*
X72849500Y-95014822D01*
X72849499Y-95014822D01*
X72858231Y-95058717D01*
X72858232Y-95058721D01*
X72858233Y-95058722D01*
X72891496Y-95108504D01*
X72941278Y-95141767D01*
X72941281Y-95141767D01*
X72941282Y-95141768D01*
X72985177Y-95150500D01*
X72985180Y-95150500D01*
X74614822Y-95150500D01*
X74658717Y-95141768D01*
X74658717Y-95141767D01*
X74658722Y-95141767D01*
X74708504Y-95108504D01*
X74741767Y-95058722D01*
X74742401Y-95055534D01*
X74750500Y-95014822D01*
X74750500Y-94199999D01*
X79444750Y-94199999D01*
X79444750Y-94200000D01*
X79463670Y-94343708D01*
X79463671Y-94343712D01*
X79519137Y-94477622D01*
X79519138Y-94477624D01*
X79519139Y-94477625D01*
X79607379Y-94592621D01*
X79722375Y-94680861D01*
X79856291Y-94736330D01*
X79983280Y-94753048D01*
X79999999Y-94755250D01*
X80000000Y-94755250D01*
X80000001Y-94755250D01*
X80014977Y-94753278D01*
X80143709Y-94736330D01*
X80277625Y-94680861D01*
X80392621Y-94592621D01*
X80480861Y-94477625D01*
X80536330Y-94343709D01*
X80555250Y-94200000D01*
X80555250Y-94199999D01*
X81544750Y-94199999D01*
X81544750Y-94200000D01*
X81563670Y-94343708D01*
X81563671Y-94343712D01*
X81619137Y-94477622D01*
X81619138Y-94477624D01*
X81619139Y-94477625D01*
X81707379Y-94592621D01*
X81822375Y-94680861D01*
X81956291Y-94736330D01*
X82083280Y-94753048D01*
X82099999Y-94755250D01*
X82100000Y-94755250D01*
X82100001Y-94755250D01*
X82114977Y-94753278D01*
X82243709Y-94736330D01*
X82377625Y-94680861D01*
X82492621Y-94592621D01*
X82580861Y-94477625D01*
X82636330Y-94343709D01*
X82655250Y-94200000D01*
X82636330Y-94056291D01*
X82580861Y-93922375D01*
X82492621Y-93807379D01*
X82386566Y-93726000D01*
X95964750Y-93726000D01*
X95974492Y-93800000D01*
X95983670Y-93869708D01*
X95983671Y-93869712D01*
X96039137Y-94003622D01*
X96039138Y-94003624D01*
X96039139Y-94003625D01*
X96127379Y-94118621D01*
X96127382Y-94118623D01*
X96149539Y-94135626D01*
X96190741Y-94192054D01*
X96194894Y-94261800D01*
X96160681Y-94322720D01*
X96149539Y-94332374D01*
X96127382Y-94349376D01*
X96127380Y-94349377D01*
X96127379Y-94349379D01*
X96123531Y-94354394D01*
X96039137Y-94464377D01*
X95983671Y-94598287D01*
X95983670Y-94598291D01*
X95964750Y-94741999D01*
X95964750Y-94742000D01*
X95983670Y-94885708D01*
X95983671Y-94885712D01*
X96039137Y-95019622D01*
X96039138Y-95019624D01*
X96039139Y-95019625D01*
X96127379Y-95134621D01*
X96127382Y-95134623D01*
X96149539Y-95151626D01*
X96190741Y-95208054D01*
X96194894Y-95277800D01*
X96160681Y-95338720D01*
X96149539Y-95348374D01*
X96127382Y-95365376D01*
X96127380Y-95365377D01*
X96127379Y-95365379D01*
X96090114Y-95413944D01*
X96039137Y-95480377D01*
X95983671Y-95614287D01*
X95983670Y-95614291D01*
X95964750Y-95757999D01*
X95964750Y-95758000D01*
X95983670Y-95901708D01*
X95983671Y-95901712D01*
X96039137Y-96035622D01*
X96039138Y-96035624D01*
X96039139Y-96035625D01*
X96127379Y-96150621D01*
X96127382Y-96150623D01*
X96149539Y-96167626D01*
X96190741Y-96224054D01*
X96194894Y-96293800D01*
X96160681Y-96354720D01*
X96149539Y-96364374D01*
X96127382Y-96381376D01*
X96127380Y-96381377D01*
X96127379Y-96381379D01*
X96074435Y-96450376D01*
X96039137Y-96496377D01*
X95983671Y-96630287D01*
X95983670Y-96630291D01*
X95964750Y-96774000D01*
X95975583Y-96856287D01*
X95983670Y-96917708D01*
X95983671Y-96917712D01*
X96039137Y-97051622D01*
X96039138Y-97051624D01*
X96039139Y-97051625D01*
X96127379Y-97166621D01*
X96242375Y-97254861D01*
X96376291Y-97310330D01*
X96503280Y-97327048D01*
X96519999Y-97329250D01*
X96520000Y-97329250D01*
X96520001Y-97329250D01*
X96534977Y-97327278D01*
X96663709Y-97310330D01*
X96797625Y-97254861D01*
X96912621Y-97166621D01*
X97000861Y-97051625D01*
X97022244Y-97000000D01*
X138844750Y-97000000D01*
X138853414Y-97065812D01*
X138863670Y-97143708D01*
X138863671Y-97143712D01*
X138919137Y-97277622D01*
X138919138Y-97277624D01*
X138919139Y-97277625D01*
X139007379Y-97392621D01*
X139122375Y-97480861D01*
X139256291Y-97536330D01*
X139383280Y-97553048D01*
X139399999Y-97555250D01*
X139400000Y-97555250D01*
X139400001Y-97555250D01*
X139414977Y-97553278D01*
X139543709Y-97536330D01*
X139677625Y-97480861D01*
X139792621Y-97392621D01*
X139880861Y-97277625D01*
X139936330Y-97143709D01*
X139955250Y-97000000D01*
X139936330Y-96856291D01*
X139880861Y-96722375D01*
X139792621Y-96607379D01*
X139677625Y-96519139D01*
X139677624Y-96519138D01*
X139677622Y-96519137D01*
X139543712Y-96463671D01*
X139543710Y-96463670D01*
X139543709Y-96463670D01*
X139471854Y-96454210D01*
X139400001Y-96444750D01*
X139399999Y-96444750D01*
X139256291Y-96463670D01*
X139256287Y-96463671D01*
X139122377Y-96519137D01*
X139007379Y-96607379D01*
X138919137Y-96722377D01*
X138863671Y-96856287D01*
X138863670Y-96856291D01*
X138844750Y-97000000D01*
X97022244Y-97000000D01*
X97056330Y-96917709D01*
X97075250Y-96774000D01*
X97056330Y-96630291D01*
X97000861Y-96496375D01*
X96912621Y-96381379D01*
X96890459Y-96364373D01*
X96849259Y-96307948D01*
X96845104Y-96238202D01*
X96879316Y-96177281D01*
X96890450Y-96167633D01*
X96912621Y-96150621D01*
X97000861Y-96035625D01*
X97056330Y-95901709D01*
X97075250Y-95758000D01*
X97056330Y-95614291D01*
X97000861Y-95480375D01*
X96912621Y-95365379D01*
X96890459Y-95348373D01*
X96849259Y-95291948D01*
X96845104Y-95222202D01*
X96879316Y-95161281D01*
X96890450Y-95151633D01*
X96912621Y-95134621D01*
X97000861Y-95019625D01*
X97056330Y-94885709D01*
X97075250Y-94742000D01*
X97056330Y-94598291D01*
X97000861Y-94464375D01*
X96912621Y-94349379D01*
X96890459Y-94332373D01*
X96849259Y-94275948D01*
X96845104Y-94206202D01*
X96879316Y-94145281D01*
X96890450Y-94135633D01*
X96912621Y-94118621D01*
X97000861Y-94003625D01*
X97056330Y-93869709D01*
X97075250Y-93726000D01*
X97074346Y-93719137D01*
X97064553Y-93644750D01*
X97056330Y-93582291D01*
X97000861Y-93448375D01*
X96912621Y-93333379D01*
X96797625Y-93245139D01*
X96797624Y-93245138D01*
X96797622Y-93245137D01*
X96663712Y-93189671D01*
X96663710Y-93189670D01*
X96663709Y-93189670D01*
X96591854Y-93180210D01*
X96520001Y-93170750D01*
X96519999Y-93170750D01*
X96376291Y-93189670D01*
X96376287Y-93189671D01*
X96242377Y-93245137D01*
X96127379Y-93333379D01*
X96039137Y-93448377D01*
X95983671Y-93582287D01*
X95983670Y-93582291D01*
X95965654Y-93719137D01*
X95964750Y-93726000D01*
X82386566Y-93726000D01*
X82377625Y-93719139D01*
X82377624Y-93719138D01*
X82377622Y-93719137D01*
X82243712Y-93663671D01*
X82243710Y-93663670D01*
X82243709Y-93663670D01*
X82171854Y-93654210D01*
X82100001Y-93644750D01*
X82099999Y-93644750D01*
X81956291Y-93663670D01*
X81956287Y-93663671D01*
X81822377Y-93719137D01*
X81707379Y-93807379D01*
X81619137Y-93922377D01*
X81563671Y-94056287D01*
X81563670Y-94056291D01*
X81544750Y-94199999D01*
X80555250Y-94199999D01*
X80536330Y-94056291D01*
X80480861Y-93922375D01*
X80392621Y-93807379D01*
X80277625Y-93719139D01*
X80277624Y-93719138D01*
X80277622Y-93719137D01*
X80143712Y-93663671D01*
X80143710Y-93663670D01*
X80143709Y-93663670D01*
X80071854Y-93654210D01*
X80000001Y-93644750D01*
X79999999Y-93644750D01*
X79856291Y-93663670D01*
X79856287Y-93663671D01*
X79722377Y-93719137D01*
X79607379Y-93807379D01*
X79519137Y-93922377D01*
X79463671Y-94056287D01*
X79463670Y-94056291D01*
X79444750Y-94199999D01*
X74750500Y-94199999D01*
X74750500Y-93385177D01*
X74741768Y-93341282D01*
X74741767Y-93341281D01*
X74741767Y-93341278D01*
X74708504Y-93291496D01*
X74708503Y-93291495D01*
X74658724Y-93258234D01*
X74658717Y-93258231D01*
X74614822Y-93249500D01*
X74614820Y-93249500D01*
X72985180Y-93249500D01*
X72985178Y-93249500D01*
X72941282Y-93258231D01*
X72941275Y-93258234D01*
X72891496Y-93291495D01*
X72891495Y-93291496D01*
X72858234Y-93341275D01*
X72858231Y-93341282D01*
X72849500Y-93385177D01*
X72849500Y-94154969D01*
X72836264Y-94200042D01*
X72613038Y-94200042D01*
X72606523Y-94189904D01*
X72601972Y-94165776D01*
X72585141Y-93973400D01*
X72585139Y-93973389D01*
X72526269Y-93753682D01*
X72526264Y-93753668D01*
X72430136Y-93547521D01*
X72430132Y-93547513D01*
X72379025Y-93474526D01*
X71700000Y-94153551D01*
X71700000Y-94147339D01*
X71672741Y-94045606D01*
X71620080Y-93954394D01*
X71545606Y-93879920D01*
X71454394Y-93827259D01*
X71352661Y-93800000D01*
X71346445Y-93800000D01*
X72025472Y-93120974D01*
X71952478Y-93069863D01*
X71746331Y-92973735D01*
X71746317Y-92973730D01*
X71710000Y-92963999D01*
X115014750Y-92963999D01*
X115014750Y-92964000D01*
X115033670Y-93107708D01*
X115033671Y-93107712D01*
X115089137Y-93241622D01*
X115089138Y-93241624D01*
X115089139Y-93241625D01*
X115177379Y-93356621D01*
X115292375Y-93444861D01*
X115292376Y-93444861D01*
X115292377Y-93444862D01*
X115337013Y-93463350D01*
X115426291Y-93500330D01*
X115553280Y-93517048D01*
X115569999Y-93519250D01*
X115570000Y-93519250D01*
X115570001Y-93519250D01*
X115584977Y-93517278D01*
X115713709Y-93500330D01*
X115847625Y-93444861D01*
X115962621Y-93356621D01*
X116050861Y-93241625D01*
X116106330Y-93107709D01*
X116125250Y-92964000D01*
X116106330Y-92820291D01*
X116050861Y-92686375D01*
X115962621Y-92571379D01*
X115847625Y-92483139D01*
X115847624Y-92483138D01*
X115847622Y-92483137D01*
X115713712Y-92427671D01*
X115713710Y-92427670D01*
X115713709Y-92427670D01*
X115641854Y-92418210D01*
X115570001Y-92408750D01*
X115569999Y-92408750D01*
X115426291Y-92427670D01*
X115426287Y-92427671D01*
X115292377Y-92483137D01*
X115177379Y-92571379D01*
X115089137Y-92686377D01*
X115033671Y-92820287D01*
X115033670Y-92820291D01*
X115014750Y-92963999D01*
X71710000Y-92963999D01*
X71526610Y-92914860D01*
X71526599Y-92914858D01*
X71300002Y-92895034D01*
X71299998Y-92895034D01*
X71073400Y-92914858D01*
X71073389Y-92914860D01*
X70853682Y-92973730D01*
X70853673Y-92973734D01*
X70647516Y-93069866D01*
X70647512Y-93069868D01*
X70574526Y-93120973D01*
X70574526Y-93120974D01*
X71253553Y-93800000D01*
X71247339Y-93800000D01*
X71145606Y-93827259D01*
X71054394Y-93879920D01*
X70979920Y-93954394D01*
X70927259Y-94045606D01*
X70900000Y-94147339D01*
X70900000Y-94153552D01*
X70220974Y-93474526D01*
X70220973Y-93474526D01*
X70169868Y-93547512D01*
X70169866Y-93547516D01*
X70073734Y-93753673D01*
X70073730Y-93753682D01*
X70014860Y-93973389D01*
X70014858Y-93973400D01*
X69995034Y-94199997D01*
X62738000Y-94199997D01*
X62738000Y-90460000D01*
X95710750Y-90460000D01*
X95724930Y-90567709D01*
X95729670Y-90603708D01*
X95729671Y-90603712D01*
X95785137Y-90737622D01*
X95785138Y-90737624D01*
X95785139Y-90737625D01*
X95873379Y-90852621D01*
X95988375Y-90940861D01*
X96122291Y-90996330D01*
X96249280Y-91013048D01*
X96265999Y-91015250D01*
X96266000Y-91015250D01*
X96266001Y-91015250D01*
X96280977Y-91013278D01*
X96409709Y-90996330D01*
X96543625Y-90940861D01*
X96658621Y-90852621D01*
X96746861Y-90737625D01*
X96802330Y-90603709D01*
X96821250Y-90460000D01*
X96802330Y-90316291D01*
X96746861Y-90182375D01*
X96658621Y-90067379D01*
X96543625Y-89979139D01*
X96543624Y-89979138D01*
X96543622Y-89979137D01*
X96409712Y-89923671D01*
X96409710Y-89923670D01*
X96409709Y-89923670D01*
X96351443Y-89915999D01*
X115014750Y-89915999D01*
X115014750Y-89916000D01*
X115033670Y-90059708D01*
X115033671Y-90059712D01*
X115089137Y-90193622D01*
X115089138Y-90193624D01*
X115089139Y-90193625D01*
X115177379Y-90308621D01*
X115292375Y-90396861D01*
X115426291Y-90452330D01*
X115553280Y-90469048D01*
X115569999Y-90471250D01*
X115570000Y-90471250D01*
X115570001Y-90471250D01*
X115584977Y-90469278D01*
X115713709Y-90452330D01*
X115782105Y-90424000D01*
X138128750Y-90424000D01*
X138134380Y-90466767D01*
X138147670Y-90567708D01*
X138147671Y-90567712D01*
X138203137Y-90701622D01*
X138203138Y-90701624D01*
X138203139Y-90701625D01*
X138291379Y-90816621D01*
X138406375Y-90904861D01*
X138540291Y-90960330D01*
X138667280Y-90977048D01*
X138683999Y-90979250D01*
X138684000Y-90979250D01*
X138684001Y-90979250D01*
X138698977Y-90977278D01*
X138827709Y-90960330D01*
X138961625Y-90904861D01*
X139076621Y-90816621D01*
X139164861Y-90701625D01*
X139220330Y-90567709D01*
X139239250Y-90424000D01*
X139220330Y-90280291D01*
X139179773Y-90182377D01*
X139164862Y-90146377D01*
X139164861Y-90146376D01*
X139164861Y-90146375D01*
X139076621Y-90031379D01*
X138961625Y-89943139D01*
X138961624Y-89943138D01*
X138961622Y-89943137D01*
X138827712Y-89887671D01*
X138827710Y-89887670D01*
X138827709Y-89887670D01*
X138755854Y-89878210D01*
X138684001Y-89868750D01*
X138683999Y-89868750D01*
X138540291Y-89887670D01*
X138540287Y-89887671D01*
X138406377Y-89943137D01*
X138291379Y-90031379D01*
X138203137Y-90146377D01*
X138147671Y-90280287D01*
X138147670Y-90280291D01*
X138128750Y-90424000D01*
X115782105Y-90424000D01*
X115847625Y-90396861D01*
X115962621Y-90308621D01*
X116050861Y-90193625D01*
X116106330Y-90059709D01*
X116125250Y-89916000D01*
X116106330Y-89772291D01*
X116050861Y-89638375D01*
X115962621Y-89523379D01*
X115847625Y-89435139D01*
X115847624Y-89435138D01*
X115847622Y-89435137D01*
X115713712Y-89379671D01*
X115713710Y-89379670D01*
X115713709Y-89379670D01*
X115641854Y-89370210D01*
X115570001Y-89360750D01*
X115569999Y-89360750D01*
X115426291Y-89379670D01*
X115426287Y-89379671D01*
X115292377Y-89435137D01*
X115177379Y-89523379D01*
X115089137Y-89638377D01*
X115033671Y-89772287D01*
X115033670Y-89772291D01*
X115014750Y-89915999D01*
X96351443Y-89915999D01*
X96337854Y-89914210D01*
X96266001Y-89904750D01*
X96265999Y-89904750D01*
X96122291Y-89923670D01*
X96122287Y-89923671D01*
X95988377Y-89979137D01*
X95873379Y-90067379D01*
X95785137Y-90182377D01*
X95729671Y-90316287D01*
X95729670Y-90316291D01*
X95715490Y-90424000D01*
X95710750Y-90460000D01*
X62738000Y-90460000D01*
X62738000Y-89916000D01*
X55496000Y-89916000D01*
X55428961Y-89896315D01*
X55383206Y-89843511D01*
X55372000Y-89792000D01*
X55372000Y-88137999D01*
X67593750Y-88137999D01*
X67593750Y-88138000D01*
X67612670Y-88281708D01*
X67612671Y-88281712D01*
X67668137Y-88415622D01*
X67668138Y-88415624D01*
X67668139Y-88415625D01*
X67756379Y-88530621D01*
X67871375Y-88618861D01*
X68005291Y-88674330D01*
X68132280Y-88691048D01*
X68148999Y-88693250D01*
X68149000Y-88693250D01*
X68149001Y-88693250D01*
X68163977Y-88691278D01*
X68292709Y-88674330D01*
X68426625Y-88618861D01*
X68541621Y-88530621D01*
X68629861Y-88415625D01*
X68685330Y-88281709D01*
X68704250Y-88138000D01*
X68685330Y-87994291D01*
X68629861Y-87860375D01*
X68541621Y-87745379D01*
X68426625Y-87657139D01*
X68426624Y-87657138D01*
X68426622Y-87657137D01*
X68292712Y-87601671D01*
X68292710Y-87601670D01*
X68292709Y-87601670D01*
X68220854Y-87592210D01*
X68149001Y-87582750D01*
X68148999Y-87582750D01*
X68005291Y-87601670D01*
X68005287Y-87601671D01*
X67871377Y-87657137D01*
X67756379Y-87745379D01*
X67668137Y-87860377D01*
X67612671Y-87994287D01*
X67612670Y-87994291D01*
X67593750Y-88137999D01*
X55372000Y-88137999D01*
X55372000Y-87375999D01*
X90376750Y-87375999D01*
X90376750Y-87376000D01*
X90395670Y-87519708D01*
X90395671Y-87519712D01*
X90451137Y-87653622D01*
X90451138Y-87653624D01*
X90451139Y-87653625D01*
X90539379Y-87768621D01*
X90654375Y-87856861D01*
X90654376Y-87856861D01*
X90654377Y-87856862D01*
X90699013Y-87875350D01*
X90788291Y-87912330D01*
X90915280Y-87929048D01*
X90931999Y-87931250D01*
X90932000Y-87931250D01*
X90932001Y-87931250D01*
X90946977Y-87929278D01*
X91075709Y-87912330D01*
X91144107Y-87883999D01*
X95710750Y-87883999D01*
X95710750Y-87884000D01*
X95729670Y-88027708D01*
X95729671Y-88027712D01*
X95785137Y-88161622D01*
X95785138Y-88161624D01*
X95785139Y-88161625D01*
X95873379Y-88276621D01*
X95988375Y-88364861D01*
X96122291Y-88420330D01*
X96249280Y-88437048D01*
X96265999Y-88439250D01*
X96266000Y-88439250D01*
X96266001Y-88439250D01*
X96280977Y-88437278D01*
X96409709Y-88420330D01*
X96543625Y-88364861D01*
X96658621Y-88276621D01*
X96746861Y-88161625D01*
X96802330Y-88027709D01*
X96821250Y-87884000D01*
X96802330Y-87740291D01*
X96756646Y-87629999D01*
X138128750Y-87629999D01*
X138128750Y-87630000D01*
X138147670Y-87773708D01*
X138147671Y-87773712D01*
X138203137Y-87907622D01*
X138203138Y-87907624D01*
X138203139Y-87907625D01*
X138291379Y-88022621D01*
X138406375Y-88110861D01*
X138540291Y-88166330D01*
X138667280Y-88183048D01*
X138683999Y-88185250D01*
X138684000Y-88185250D01*
X138684001Y-88185250D01*
X138698977Y-88183278D01*
X138827709Y-88166330D01*
X138961625Y-88110861D01*
X139076621Y-88022621D01*
X139164861Y-87907625D01*
X139220330Y-87773709D01*
X139239250Y-87630000D01*
X139220330Y-87486291D01*
X139164861Y-87352375D01*
X139076621Y-87237379D01*
X138961625Y-87149139D01*
X138961624Y-87149138D01*
X138961622Y-87149137D01*
X138827712Y-87093671D01*
X138827710Y-87093670D01*
X138827709Y-87093670D01*
X138755854Y-87084210D01*
X138684001Y-87074750D01*
X138683999Y-87074750D01*
X138540291Y-87093670D01*
X138540287Y-87093671D01*
X138406377Y-87149137D01*
X138291379Y-87237379D01*
X138203137Y-87352377D01*
X138147671Y-87486287D01*
X138147670Y-87486291D01*
X138128750Y-87629999D01*
X96756646Y-87629999D01*
X96746861Y-87606375D01*
X96658621Y-87491379D01*
X96543625Y-87403139D01*
X96543624Y-87403138D01*
X96543622Y-87403137D01*
X96409712Y-87347671D01*
X96409710Y-87347670D01*
X96409709Y-87347670D01*
X96337854Y-87338210D01*
X96266001Y-87328750D01*
X96265999Y-87328750D01*
X96122291Y-87347670D01*
X96122287Y-87347671D01*
X95988377Y-87403137D01*
X95873379Y-87491379D01*
X95785137Y-87606377D01*
X95729671Y-87740287D01*
X95729670Y-87740291D01*
X95710750Y-87883999D01*
X91144107Y-87883999D01*
X91209625Y-87856861D01*
X91324621Y-87768621D01*
X91412861Y-87653625D01*
X91468330Y-87519709D01*
X91487250Y-87376000D01*
X91468330Y-87232291D01*
X91418231Y-87111340D01*
X91412862Y-87098377D01*
X91412861Y-87098376D01*
X91412861Y-87098375D01*
X91324621Y-86983379D01*
X91209625Y-86895139D01*
X91209624Y-86895138D01*
X91209622Y-86895137D01*
X91075712Y-86839671D01*
X91075710Y-86839670D01*
X91075709Y-86839670D01*
X91003854Y-86830210D01*
X90932001Y-86820750D01*
X90931999Y-86820750D01*
X90788291Y-86839670D01*
X90788287Y-86839671D01*
X90654377Y-86895137D01*
X90539379Y-86983379D01*
X90451137Y-87098377D01*
X90395671Y-87232287D01*
X90395670Y-87232291D01*
X90376750Y-87375999D01*
X55372000Y-87375999D01*
X55372000Y-83315999D01*
X57343364Y-83315999D01*
X57343364Y-83316000D01*
X58240988Y-83316000D01*
X58208075Y-83373007D01*
X58174000Y-83500174D01*
X58174000Y-83631826D01*
X58208075Y-83758993D01*
X58240988Y-83816000D01*
X57343364Y-83816000D01*
X57400567Y-84029486D01*
X57400570Y-84029492D01*
X57500399Y-84243578D01*
X57635894Y-84437082D01*
X57802917Y-84604105D01*
X57996421Y-84739600D01*
X58210507Y-84839429D01*
X58210516Y-84839433D01*
X58293711Y-84861725D01*
X58353372Y-84898090D01*
X58383901Y-84960937D01*
X58375606Y-85030312D01*
X58331121Y-85084190D01*
X58264569Y-85105465D01*
X58261618Y-85105500D01*
X57809178Y-85105500D01*
X57765282Y-85114231D01*
X57765275Y-85114234D01*
X57715496Y-85147495D01*
X57715495Y-85147496D01*
X57682234Y-85197275D01*
X57682231Y-85197282D01*
X57673500Y-85241177D01*
X57673500Y-85241180D01*
X57673500Y-86970820D01*
X57673500Y-86970822D01*
X57673499Y-86970822D01*
X57682231Y-87014717D01*
X57682232Y-87014721D01*
X57682233Y-87014722D01*
X57715496Y-87064504D01*
X57765278Y-87097767D01*
X57765281Y-87097767D01*
X57765282Y-87097768D01*
X57809177Y-87106500D01*
X57809180Y-87106500D01*
X59538822Y-87106500D01*
X59582717Y-87097768D01*
X59582717Y-87097767D01*
X59582722Y-87097767D01*
X59632504Y-87064504D01*
X59665767Y-87014722D01*
X59674500Y-86970820D01*
X59674500Y-86106000D01*
X60208659Y-86106000D01*
X60227975Y-86302129D01*
X60285188Y-86490733D01*
X60378086Y-86664532D01*
X60378090Y-86664539D01*
X60503116Y-86816883D01*
X60655460Y-86941909D01*
X60655467Y-86941913D01*
X60829266Y-87034811D01*
X60829269Y-87034811D01*
X60829273Y-87034814D01*
X61017868Y-87092024D01*
X61214000Y-87111341D01*
X61410132Y-87092024D01*
X61598727Y-87034814D01*
X61636317Y-87014722D01*
X61694955Y-86983379D01*
X61772538Y-86941910D01*
X61924883Y-86816883D01*
X62049910Y-86664538D01*
X62142814Y-86490727D01*
X62200024Y-86302132D01*
X62219341Y-86106000D01*
X62748659Y-86106000D01*
X62767975Y-86302129D01*
X62825188Y-86490733D01*
X62918086Y-86664532D01*
X62918090Y-86664539D01*
X63043116Y-86816883D01*
X63195460Y-86941909D01*
X63195467Y-86941913D01*
X63369266Y-87034811D01*
X63369269Y-87034811D01*
X63369273Y-87034814D01*
X63557868Y-87092024D01*
X63754000Y-87111341D01*
X63950132Y-87092024D01*
X64138727Y-87034814D01*
X64176317Y-87014722D01*
X64234955Y-86983379D01*
X64312538Y-86941910D01*
X64464883Y-86816883D01*
X64589910Y-86664538D01*
X64682814Y-86490727D01*
X64740024Y-86302132D01*
X64759341Y-86106000D01*
X65288659Y-86106000D01*
X65307975Y-86302129D01*
X65365188Y-86490733D01*
X65458086Y-86664532D01*
X65458090Y-86664539D01*
X65583116Y-86816883D01*
X65735460Y-86941909D01*
X65735467Y-86941913D01*
X65909266Y-87034811D01*
X65909269Y-87034811D01*
X65909273Y-87034814D01*
X66097868Y-87092024D01*
X66294000Y-87111341D01*
X66490132Y-87092024D01*
X66678727Y-87034814D01*
X66716317Y-87014722D01*
X66774955Y-86983379D01*
X66852538Y-86941910D01*
X67004883Y-86816883D01*
X67129910Y-86664538D01*
X67222814Y-86490727D01*
X67280024Y-86302132D01*
X67299341Y-86106000D01*
X67280024Y-85909868D01*
X67222814Y-85721273D01*
X67222811Y-85721269D01*
X67222811Y-85721266D01*
X67129913Y-85547467D01*
X67129909Y-85547460D01*
X67004883Y-85395116D01*
X66852539Y-85270090D01*
X66852532Y-85270086D01*
X66678733Y-85177188D01*
X66678727Y-85177186D01*
X66490132Y-85119976D01*
X66490129Y-85119975D01*
X66294000Y-85100659D01*
X66097870Y-85119975D01*
X65909266Y-85177188D01*
X65735467Y-85270086D01*
X65735460Y-85270090D01*
X65583116Y-85395116D01*
X65458090Y-85547460D01*
X65458086Y-85547467D01*
X65365188Y-85721266D01*
X65307975Y-85909870D01*
X65288659Y-86106000D01*
X64759341Y-86106000D01*
X64740024Y-85909868D01*
X64682814Y-85721273D01*
X64682811Y-85721269D01*
X64682811Y-85721266D01*
X64589913Y-85547467D01*
X64589909Y-85547460D01*
X64464883Y-85395116D01*
X64312539Y-85270090D01*
X64312532Y-85270086D01*
X64138733Y-85177188D01*
X64138727Y-85177186D01*
X63950132Y-85119976D01*
X63950129Y-85119975D01*
X63754000Y-85100659D01*
X63557870Y-85119975D01*
X63369266Y-85177188D01*
X63195467Y-85270086D01*
X63195460Y-85270090D01*
X63043116Y-85395116D01*
X62918090Y-85547460D01*
X62918086Y-85547467D01*
X62825188Y-85721266D01*
X62767975Y-85909870D01*
X62748659Y-86106000D01*
X62219341Y-86106000D01*
X62200024Y-85909868D01*
X62142814Y-85721273D01*
X62142811Y-85721269D01*
X62142811Y-85721266D01*
X62049913Y-85547467D01*
X62049909Y-85547460D01*
X61924883Y-85395116D01*
X61772539Y-85270090D01*
X61772532Y-85270086D01*
X61598733Y-85177188D01*
X61598727Y-85177186D01*
X61410132Y-85119976D01*
X61410129Y-85119975D01*
X61214000Y-85100659D01*
X61017870Y-85119975D01*
X60829266Y-85177188D01*
X60655467Y-85270086D01*
X60655460Y-85270090D01*
X60503116Y-85395116D01*
X60378090Y-85547460D01*
X60378086Y-85547467D01*
X60285188Y-85721266D01*
X60227975Y-85909870D01*
X60208659Y-86106000D01*
X59674500Y-86106000D01*
X59674500Y-85241180D01*
X59674500Y-85241177D01*
X59665768Y-85197282D01*
X59665767Y-85197281D01*
X59665767Y-85197278D01*
X59632504Y-85147496D01*
X59632503Y-85147495D01*
X59582724Y-85114234D01*
X59582717Y-85114231D01*
X59538822Y-85105500D01*
X59538820Y-85105500D01*
X59086382Y-85105500D01*
X59019343Y-85085815D01*
X58973588Y-85033011D01*
X58963644Y-84963853D01*
X58992669Y-84900297D01*
X59051447Y-84862523D01*
X59054289Y-84861725D01*
X59137483Y-84839433D01*
X59137492Y-84839429D01*
X59351578Y-84739600D01*
X59545082Y-84604105D01*
X59712105Y-84437082D01*
X59847600Y-84243578D01*
X59947429Y-84029492D01*
X59947433Y-84029483D01*
X60004664Y-83815892D01*
X60041029Y-83756231D01*
X60103876Y-83725702D01*
X60173251Y-83733997D01*
X60227129Y-83778482D01*
X60243099Y-83811989D01*
X60285186Y-83950728D01*
X60378086Y-84124532D01*
X60378090Y-84124539D01*
X60503116Y-84276883D01*
X60655460Y-84401909D01*
X60655467Y-84401913D01*
X60829266Y-84494811D01*
X60829269Y-84494811D01*
X60829273Y-84494814D01*
X61017868Y-84552024D01*
X61214000Y-84571341D01*
X61410132Y-84552024D01*
X61598727Y-84494814D01*
X61772538Y-84401910D01*
X61924883Y-84276883D01*
X62049910Y-84124538D01*
X62100718Y-84029483D01*
X62142811Y-83950733D01*
X62142813Y-83950728D01*
X62142814Y-83950727D01*
X62200024Y-83762132D01*
X62219341Y-83566000D01*
X62748659Y-83566000D01*
X62767975Y-83762129D01*
X62825188Y-83950733D01*
X62918086Y-84124532D01*
X62918090Y-84124539D01*
X63043116Y-84276883D01*
X63195460Y-84401909D01*
X63195467Y-84401913D01*
X63369266Y-84494811D01*
X63369269Y-84494811D01*
X63369273Y-84494814D01*
X63557868Y-84552024D01*
X63754000Y-84571341D01*
X63950132Y-84552024D01*
X64138727Y-84494814D01*
X64312538Y-84401910D01*
X64464883Y-84276883D01*
X64589910Y-84124538D01*
X64640718Y-84029483D01*
X64682811Y-83950733D01*
X64682813Y-83950728D01*
X64682814Y-83950727D01*
X64740024Y-83762132D01*
X64759341Y-83566000D01*
X65288659Y-83566000D01*
X65307975Y-83762129D01*
X65365188Y-83950733D01*
X65458086Y-84124532D01*
X65458090Y-84124539D01*
X65583116Y-84276883D01*
X65735460Y-84401909D01*
X65735467Y-84401913D01*
X65909266Y-84494811D01*
X65909269Y-84494811D01*
X65909273Y-84494814D01*
X66097868Y-84552024D01*
X66294000Y-84571341D01*
X66490132Y-84552024D01*
X66678727Y-84494814D01*
X66852538Y-84401910D01*
X67004883Y-84276883D01*
X67129910Y-84124538D01*
X67185652Y-84020251D01*
X67222812Y-83950731D01*
X67222813Y-83950728D01*
X67222814Y-83950727D01*
X67264900Y-83811988D01*
X67303197Y-83753551D01*
X67367009Y-83725095D01*
X67436076Y-83735655D01*
X67488470Y-83781879D01*
X67503335Y-83815891D01*
X67560567Y-84029486D01*
X67560570Y-84029492D01*
X67660399Y-84243578D01*
X67795894Y-84437082D01*
X67962917Y-84604105D01*
X68156421Y-84739600D01*
X68370507Y-84839429D01*
X68370516Y-84839433D01*
X68584107Y-84896664D01*
X68643768Y-84933029D01*
X68674297Y-84995876D01*
X68666002Y-85065251D01*
X68621517Y-85119129D01*
X68588010Y-85135099D01*
X68449271Y-85177186D01*
X68275467Y-85270086D01*
X68275460Y-85270090D01*
X68123116Y-85395116D01*
X67998090Y-85547460D01*
X67998086Y-85547467D01*
X67905188Y-85721266D01*
X67847975Y-85909870D01*
X67828659Y-86106000D01*
X67847975Y-86302129D01*
X67905188Y-86490733D01*
X67998086Y-86664532D01*
X67998090Y-86664539D01*
X68123116Y-86816883D01*
X68275460Y-86941909D01*
X68275467Y-86941913D01*
X68449266Y-87034811D01*
X68449269Y-87034811D01*
X68449273Y-87034814D01*
X68637868Y-87092024D01*
X68834000Y-87111341D01*
X69030132Y-87092024D01*
X69218727Y-87034814D01*
X69256317Y-87014722D01*
X69314955Y-86983379D01*
X69392538Y-86941910D01*
X69544883Y-86816883D01*
X69669910Y-86664538D01*
X69762814Y-86490727D01*
X69820024Y-86302132D01*
X69839341Y-86106000D01*
X69820024Y-85909868D01*
X69762814Y-85721273D01*
X69762811Y-85721269D01*
X69762811Y-85721266D01*
X69669913Y-85547467D01*
X69669909Y-85547460D01*
X69544883Y-85395116D01*
X69392539Y-85270090D01*
X69392532Y-85270086D01*
X69218728Y-85177186D01*
X69079989Y-85135099D01*
X69021551Y-85096801D01*
X68993094Y-85032989D01*
X69003655Y-84963922D01*
X69049880Y-84911529D01*
X69083892Y-84896664D01*
X69297483Y-84839433D01*
X69297492Y-84839429D01*
X69511578Y-84739600D01*
X69705082Y-84604105D01*
X69872105Y-84437082D01*
X70007600Y-84243578D01*
X70107429Y-84029492D01*
X70107432Y-84029486D01*
X70164636Y-83816000D01*
X69267012Y-83816000D01*
X69299925Y-83758993D01*
X69334000Y-83631826D01*
X69334000Y-83500174D01*
X69299925Y-83373007D01*
X69267012Y-83316000D01*
X70164636Y-83316000D01*
X70164635Y-83315999D01*
X70107432Y-83102513D01*
X70107429Y-83102507D01*
X70007600Y-82888422D01*
X70007599Y-82888420D01*
X69872113Y-82694926D01*
X69872108Y-82694920D01*
X69705082Y-82527894D01*
X69511578Y-82392399D01*
X69297492Y-82292570D01*
X69297486Y-82292567D01*
X69084000Y-82235364D01*
X69084000Y-83132988D01*
X69026993Y-83100075D01*
X68899826Y-83066000D01*
X68768174Y-83066000D01*
X68641007Y-83100075D01*
X68584000Y-83132988D01*
X68584000Y-82235364D01*
X68583999Y-82235364D01*
X68370513Y-82292567D01*
X68370507Y-82292570D01*
X68156422Y-82392399D01*
X68156420Y-82392400D01*
X67962926Y-82527886D01*
X67962920Y-82527891D01*
X67795891Y-82694920D01*
X67795886Y-82694926D01*
X67660400Y-82888420D01*
X67660399Y-82888422D01*
X67560570Y-83102507D01*
X67560567Y-83102513D01*
X67503335Y-83316108D01*
X67466970Y-83375768D01*
X67404123Y-83406297D01*
X67334747Y-83398002D01*
X67280869Y-83353517D01*
X67264900Y-83320013D01*
X67222814Y-83181273D01*
X67222811Y-83181269D01*
X67222811Y-83181266D01*
X67129913Y-83007467D01*
X67129909Y-83007460D01*
X67004883Y-82855116D01*
X66852539Y-82730090D01*
X66852532Y-82730086D01*
X66678733Y-82637188D01*
X66678727Y-82637186D01*
X66490132Y-82579976D01*
X66490129Y-82579975D01*
X66294000Y-82560659D01*
X66097870Y-82579975D01*
X65909266Y-82637188D01*
X65735467Y-82730086D01*
X65735460Y-82730090D01*
X65583116Y-82855116D01*
X65458090Y-83007460D01*
X65458086Y-83007467D01*
X65365188Y-83181266D01*
X65307975Y-83369870D01*
X65288659Y-83566000D01*
X64759341Y-83566000D01*
X64740024Y-83369868D01*
X64682814Y-83181273D01*
X64682811Y-83181269D01*
X64682811Y-83181266D01*
X64589913Y-83007467D01*
X64589909Y-83007460D01*
X64464883Y-82855116D01*
X64312539Y-82730090D01*
X64312532Y-82730086D01*
X64138733Y-82637188D01*
X64138727Y-82637186D01*
X63950132Y-82579976D01*
X63950129Y-82579975D01*
X63754000Y-82560659D01*
X63557870Y-82579975D01*
X63369266Y-82637188D01*
X63195467Y-82730086D01*
X63195460Y-82730090D01*
X63043116Y-82855116D01*
X62918090Y-83007460D01*
X62918086Y-83007467D01*
X62825188Y-83181266D01*
X62767975Y-83369870D01*
X62748659Y-83566000D01*
X62219341Y-83566000D01*
X62200024Y-83369868D01*
X62142814Y-83181273D01*
X62142811Y-83181269D01*
X62142811Y-83181266D01*
X62049913Y-83007467D01*
X62049909Y-83007460D01*
X61924883Y-82855116D01*
X61772539Y-82730090D01*
X61772532Y-82730086D01*
X61598733Y-82637188D01*
X61598727Y-82637186D01*
X61410132Y-82579976D01*
X61410129Y-82579975D01*
X61214000Y-82560659D01*
X61017870Y-82579975D01*
X60829266Y-82637188D01*
X60655467Y-82730086D01*
X60655460Y-82730090D01*
X60503116Y-82855116D01*
X60378090Y-83007460D01*
X60378086Y-83007467D01*
X60285186Y-83181271D01*
X60243099Y-83320010D01*
X60204801Y-83378449D01*
X60140989Y-83406905D01*
X60071922Y-83396344D01*
X60019529Y-83350119D01*
X60004664Y-83316107D01*
X59947433Y-83102516D01*
X59947429Y-83102507D01*
X59847600Y-82888422D01*
X59847599Y-82888420D01*
X59712113Y-82694926D01*
X59712108Y-82694920D01*
X59545082Y-82527894D01*
X59351578Y-82392399D01*
X59137492Y-82292570D01*
X59137486Y-82292567D01*
X58924000Y-82235364D01*
X58924000Y-83132988D01*
X58866993Y-83100075D01*
X58739826Y-83066000D01*
X58608174Y-83066000D01*
X58481007Y-83100075D01*
X58424000Y-83132988D01*
X58424000Y-82235364D01*
X58423999Y-82235364D01*
X58210513Y-82292567D01*
X58210507Y-82292570D01*
X57996422Y-82392399D01*
X57996420Y-82392400D01*
X57802926Y-82527886D01*
X57802920Y-82527891D01*
X57635891Y-82694920D01*
X57635886Y-82694926D01*
X57500400Y-82888420D01*
X57500399Y-82888422D01*
X57400570Y-83102507D01*
X57400567Y-83102513D01*
X57343364Y-83315999D01*
X55372000Y-83315999D01*
X55372000Y-81787999D01*
X120602750Y-81787999D01*
X120602750Y-81788000D01*
X120621670Y-81931708D01*
X120621671Y-81931712D01*
X120677137Y-82065622D01*
X120677138Y-82065624D01*
X120677139Y-82065625D01*
X120765379Y-82180621D01*
X120880375Y-82268861D01*
X121014291Y-82324330D01*
X121141280Y-82341048D01*
X121157999Y-82343250D01*
X121158000Y-82343250D01*
X121158001Y-82343250D01*
X121172977Y-82341278D01*
X121301709Y-82324330D01*
X121435625Y-82268861D01*
X121550621Y-82180621D01*
X121638861Y-82065625D01*
X121694330Y-81931709D01*
X121713250Y-81788000D01*
X121694330Y-81644291D01*
X121638861Y-81510375D01*
X121550621Y-81395379D01*
X121435625Y-81307139D01*
X121435624Y-81307138D01*
X121435622Y-81307137D01*
X121301712Y-81251671D01*
X121301710Y-81251670D01*
X121301709Y-81251670D01*
X121229854Y-81242210D01*
X121158001Y-81232750D01*
X121157999Y-81232750D01*
X121014291Y-81251670D01*
X121014287Y-81251671D01*
X120880377Y-81307137D01*
X120765379Y-81395379D01*
X120677137Y-81510377D01*
X120621671Y-81644287D01*
X120621670Y-81644291D01*
X120602750Y-81787999D01*
X55372000Y-81787999D01*
X55372000Y-81025999D01*
X86820750Y-81025999D01*
X86820750Y-81026000D01*
X86839670Y-81169708D01*
X86839671Y-81169712D01*
X86895137Y-81303622D01*
X86895138Y-81303624D01*
X86895139Y-81303625D01*
X86983379Y-81418621D01*
X87098375Y-81506861D01*
X87098376Y-81506861D01*
X87098377Y-81506862D01*
X87143013Y-81525350D01*
X87232291Y-81562330D01*
X87359280Y-81579048D01*
X87375999Y-81581250D01*
X87376000Y-81581250D01*
X87376001Y-81581250D01*
X87390977Y-81579278D01*
X87519709Y-81562330D01*
X87653625Y-81506861D01*
X87768621Y-81418621D01*
X87856861Y-81303625D01*
X87912330Y-81169709D01*
X87931250Y-81026000D01*
X87912330Y-80882291D01*
X87856861Y-80748375D01*
X87768621Y-80633379D01*
X87653625Y-80545139D01*
X87653624Y-80545138D01*
X87653622Y-80545137D01*
X87519712Y-80489671D01*
X87519710Y-80489670D01*
X87519709Y-80489670D01*
X87447854Y-80480210D01*
X87376001Y-80470750D01*
X87375999Y-80470750D01*
X87232291Y-80489670D01*
X87232287Y-80489671D01*
X87098377Y-80545137D01*
X86983379Y-80633379D01*
X86895137Y-80748377D01*
X86839671Y-80882287D01*
X86839670Y-80882291D01*
X86820750Y-81025999D01*
X55372000Y-81025999D01*
X55372000Y-79755999D01*
X102314750Y-79755999D01*
X102314750Y-79756000D01*
X102333670Y-79899708D01*
X102333671Y-79899712D01*
X102389137Y-80033622D01*
X102389138Y-80033624D01*
X102389139Y-80033625D01*
X102477379Y-80148621D01*
X102592375Y-80236861D01*
X102726291Y-80292330D01*
X102853280Y-80309048D01*
X102869999Y-80311250D01*
X102870000Y-80311250D01*
X102870001Y-80311250D01*
X102884977Y-80309278D01*
X103013709Y-80292330D01*
X103147625Y-80236861D01*
X103262621Y-80148621D01*
X103350861Y-80033625D01*
X103360647Y-80009999D01*
X108918750Y-80009999D01*
X108918750Y-80010000D01*
X108937670Y-80153708D01*
X108937671Y-80153712D01*
X108993137Y-80287622D01*
X108993138Y-80287624D01*
X108993139Y-80287625D01*
X109081379Y-80402621D01*
X109196375Y-80490861D01*
X109330291Y-80546330D01*
X109457280Y-80563048D01*
X109473999Y-80565250D01*
X109474000Y-80565250D01*
X109474001Y-80565250D01*
X109488977Y-80563278D01*
X109617709Y-80546330D01*
X109751625Y-80490861D01*
X109866621Y-80402621D01*
X109954861Y-80287625D01*
X110010330Y-80153709D01*
X110029250Y-80010000D01*
X110010330Y-79866291D01*
X109955948Y-79734999D01*
X111733750Y-79734999D01*
X111733750Y-79735000D01*
X111752670Y-79878708D01*
X111752671Y-79878712D01*
X111808137Y-80012622D01*
X111808138Y-80012624D01*
X111808139Y-80012625D01*
X111896379Y-80127621D01*
X112011375Y-80215861D01*
X112145291Y-80271330D01*
X112269039Y-80287622D01*
X112288999Y-80290250D01*
X112289000Y-80290250D01*
X112289001Y-80290250D01*
X112308961Y-80287622D01*
X112432709Y-80271330D01*
X112566625Y-80215861D01*
X112681621Y-80127621D01*
X112769861Y-80012625D01*
X112825330Y-79878709D01*
X112844250Y-79735000D01*
X112843904Y-79732375D01*
X112842048Y-79718280D01*
X112825330Y-79591291D01*
X112769861Y-79457375D01*
X112681621Y-79342379D01*
X112566625Y-79254139D01*
X112566624Y-79254138D01*
X112566622Y-79254137D01*
X112432712Y-79198671D01*
X112432710Y-79198670D01*
X112432709Y-79198670D01*
X112360854Y-79189210D01*
X112289001Y-79179750D01*
X112288999Y-79179750D01*
X112145291Y-79198670D01*
X112145287Y-79198671D01*
X112011377Y-79254137D01*
X111896379Y-79342379D01*
X111808137Y-79457377D01*
X111752671Y-79591287D01*
X111752670Y-79591291D01*
X111733750Y-79734999D01*
X109955948Y-79734999D01*
X109954861Y-79732375D01*
X109866621Y-79617379D01*
X109751625Y-79529139D01*
X109751624Y-79529138D01*
X109751622Y-79529137D01*
X109617712Y-79473671D01*
X109617710Y-79473670D01*
X109617709Y-79473670D01*
X109493954Y-79457377D01*
X109474001Y-79454750D01*
X109473999Y-79454750D01*
X109330291Y-79473670D01*
X109330287Y-79473671D01*
X109196377Y-79529137D01*
X109081379Y-79617379D01*
X108993137Y-79732377D01*
X108937671Y-79866287D01*
X108937670Y-79866291D01*
X108918750Y-80009999D01*
X103360647Y-80009999D01*
X103406330Y-79899709D01*
X103425250Y-79756000D01*
X103406330Y-79612291D01*
X103350861Y-79478375D01*
X103262621Y-79363379D01*
X103147625Y-79275139D01*
X103147624Y-79275138D01*
X103147622Y-79275137D01*
X103013712Y-79219671D01*
X103013710Y-79219670D01*
X103013709Y-79219670D01*
X102941854Y-79210210D01*
X102870001Y-79200750D01*
X102869999Y-79200750D01*
X102726291Y-79219670D01*
X102726287Y-79219671D01*
X102592377Y-79275137D01*
X102477379Y-79363379D01*
X102389137Y-79478377D01*
X102333671Y-79612287D01*
X102333670Y-79612291D01*
X102314750Y-79755999D01*
X55372000Y-79755999D01*
X55372000Y-76834070D01*
X62890500Y-76834070D01*
X62890500Y-77089929D01*
X62930526Y-77342640D01*
X63009588Y-77585972D01*
X63009589Y-77585975D01*
X63125750Y-77813950D01*
X63276132Y-78020935D01*
X63276136Y-78020940D01*
X63457059Y-78201863D01*
X63457064Y-78201867D01*
X63637607Y-78333038D01*
X63664053Y-78352252D01*
X63813080Y-78428185D01*
X63892024Y-78468410D01*
X63892027Y-78468411D01*
X64013693Y-78507942D01*
X64135361Y-78547474D01*
X64388070Y-78587500D01*
X64388071Y-78587500D01*
X64643929Y-78587500D01*
X64643930Y-78587500D01*
X64896639Y-78547474D01*
X65139975Y-78468410D01*
X65367947Y-78352252D01*
X65574942Y-78201862D01*
X65755862Y-78020942D01*
X65906252Y-77813947D01*
X66022410Y-77585975D01*
X66101474Y-77342639D01*
X66141500Y-77089930D01*
X66141500Y-76834070D01*
X140868500Y-76834070D01*
X140868500Y-77089929D01*
X140908526Y-77342640D01*
X140987588Y-77585972D01*
X140987589Y-77585975D01*
X141103750Y-77813950D01*
X141254132Y-78020935D01*
X141254136Y-78020940D01*
X141435059Y-78201863D01*
X141435064Y-78201867D01*
X141615607Y-78333038D01*
X141642053Y-78352252D01*
X141791080Y-78428185D01*
X141870024Y-78468410D01*
X141870027Y-78468411D01*
X141991693Y-78507942D01*
X142113361Y-78547474D01*
X142366070Y-78587500D01*
X142366071Y-78587500D01*
X142621929Y-78587500D01*
X142621930Y-78587500D01*
X142874639Y-78547474D01*
X143117975Y-78468410D01*
X143345947Y-78352252D01*
X143552942Y-78201862D01*
X143733862Y-78020942D01*
X143884252Y-77813947D01*
X144000410Y-77585975D01*
X144079474Y-77342639D01*
X144119500Y-77089930D01*
X144119500Y-76834070D01*
X144079474Y-76581361D01*
X144000410Y-76338025D01*
X144000410Y-76338024D01*
X143960185Y-76259080D01*
X143884252Y-76110053D01*
X143865038Y-76083607D01*
X143733867Y-75903064D01*
X143733863Y-75903059D01*
X143552940Y-75722136D01*
X143552935Y-75722132D01*
X143345950Y-75571750D01*
X143345949Y-75571749D01*
X143345947Y-75571748D01*
X143272910Y-75534533D01*
X143117975Y-75455589D01*
X143117972Y-75455588D01*
X142874640Y-75376526D01*
X142748284Y-75356513D01*
X142621930Y-75336500D01*
X142366070Y-75336500D01*
X142281833Y-75349842D01*
X142113359Y-75376526D01*
X141870027Y-75455588D01*
X141870024Y-75455589D01*
X141642049Y-75571750D01*
X141435064Y-75722132D01*
X141435059Y-75722136D01*
X141254136Y-75903059D01*
X141254132Y-75903064D01*
X141103750Y-76110049D01*
X140987589Y-76338024D01*
X140987588Y-76338027D01*
X140908526Y-76581359D01*
X140868500Y-76834070D01*
X66141500Y-76834070D01*
X66101474Y-76581361D01*
X66022410Y-76338025D01*
X66022410Y-76338024D01*
X65982185Y-76259080D01*
X65906252Y-76110053D01*
X65887038Y-76083607D01*
X65755867Y-75903064D01*
X65755863Y-75903059D01*
X65574940Y-75722136D01*
X65574935Y-75722132D01*
X65367950Y-75571750D01*
X65367949Y-75571749D01*
X65367947Y-75571748D01*
X65294910Y-75534533D01*
X65139975Y-75455589D01*
X65139972Y-75455588D01*
X64896640Y-75376526D01*
X64770284Y-75356513D01*
X64643930Y-75336500D01*
X64388070Y-75336500D01*
X64303833Y-75349842D01*
X64135359Y-75376526D01*
X63892027Y-75455588D01*
X63892024Y-75455589D01*
X63664049Y-75571750D01*
X63457064Y-75722132D01*
X63457059Y-75722136D01*
X63276136Y-75903059D01*
X63276132Y-75903064D01*
X63125750Y-76110049D01*
X63009589Y-76338024D01*
X63009588Y-76338027D01*
X62930526Y-76581359D01*
X62890500Y-76834070D01*
X55372000Y-76834070D01*
X55372000Y-72643999D01*
X85550750Y-72643999D01*
X85550750Y-72644000D01*
X85569670Y-72787708D01*
X85569671Y-72787712D01*
X85625137Y-72921622D01*
X85625138Y-72921624D01*
X85625139Y-72921625D01*
X85713379Y-73036621D01*
X85828375Y-73124861D01*
X85962291Y-73180330D01*
X86089280Y-73197048D01*
X86105999Y-73199250D01*
X86106000Y-73199250D01*
X86106001Y-73199250D01*
X86120977Y-73197278D01*
X86249709Y-73180330D01*
X86383625Y-73124861D01*
X86498621Y-73036621D01*
X86586861Y-72921625D01*
X86642330Y-72787709D01*
X86651926Y-72714822D01*
X145099499Y-72714822D01*
X145108231Y-72758717D01*
X145108234Y-72758724D01*
X145127601Y-72787709D01*
X145141496Y-72808504D01*
X145191278Y-72841767D01*
X145191281Y-72841767D01*
X145191282Y-72841768D01*
X145235177Y-72850500D01*
X145235180Y-72850500D01*
X146864822Y-72850500D01*
X146908717Y-72841768D01*
X146908717Y-72841767D01*
X146908722Y-72841767D01*
X146958504Y-72808504D01*
X146991767Y-72758722D01*
X147000500Y-72714820D01*
X147000500Y-71945030D01*
X147013735Y-71899956D01*
X147012564Y-71897728D01*
X147235529Y-71897728D01*
X147243477Y-71910095D01*
X147248028Y-71934223D01*
X147264858Y-72126599D01*
X147264860Y-72126610D01*
X147323730Y-72346317D01*
X147323735Y-72346331D01*
X147419863Y-72552478D01*
X147470974Y-72625472D01*
X148150000Y-71946446D01*
X148150000Y-71952661D01*
X148177259Y-72054394D01*
X148229920Y-72145606D01*
X148304394Y-72220080D01*
X148395606Y-72272741D01*
X148497339Y-72300000D01*
X148503553Y-72300000D01*
X147824526Y-72979025D01*
X147897513Y-73030132D01*
X147897521Y-73030136D01*
X148103668Y-73126264D01*
X148103682Y-73126269D01*
X148323389Y-73185139D01*
X148323400Y-73185141D01*
X148549998Y-73204966D01*
X148550002Y-73204966D01*
X148776599Y-73185141D01*
X148776610Y-73185139D01*
X148996317Y-73126269D01*
X148996331Y-73126264D01*
X149202478Y-73030136D01*
X149275471Y-72979024D01*
X148596447Y-72300000D01*
X148602661Y-72300000D01*
X148704394Y-72272741D01*
X148795606Y-72220080D01*
X148870080Y-72145606D01*
X148922741Y-72054394D01*
X148950000Y-71952661D01*
X148950000Y-71946447D01*
X149629024Y-72625471D01*
X149680136Y-72552478D01*
X149776264Y-72346331D01*
X149776269Y-72346317D01*
X149835139Y-72126610D01*
X149835141Y-72126599D01*
X149854966Y-71900002D01*
X149854966Y-71899997D01*
X149835141Y-71673400D01*
X149835139Y-71673389D01*
X149776269Y-71453682D01*
X149776264Y-71453668D01*
X149680136Y-71247521D01*
X149680132Y-71247513D01*
X149629025Y-71174526D01*
X148950000Y-71853551D01*
X148950000Y-71847339D01*
X148922741Y-71745606D01*
X148870080Y-71654394D01*
X148795606Y-71579920D01*
X148704394Y-71527259D01*
X148602661Y-71500000D01*
X148596445Y-71500000D01*
X149275472Y-70820974D01*
X149202478Y-70769863D01*
X148996331Y-70673735D01*
X148996317Y-70673730D01*
X148776610Y-70614860D01*
X148776599Y-70614858D01*
X148550002Y-70595034D01*
X148549998Y-70595034D01*
X148323400Y-70614858D01*
X148323389Y-70614860D01*
X148103682Y-70673730D01*
X148103673Y-70673734D01*
X147897516Y-70769866D01*
X147897512Y-70769868D01*
X147824526Y-70820973D01*
X147824526Y-70820974D01*
X148503553Y-71500000D01*
X148497339Y-71500000D01*
X148395606Y-71527259D01*
X148304394Y-71579920D01*
X148229920Y-71654394D01*
X148177259Y-71745606D01*
X148150000Y-71847339D01*
X148150000Y-71853552D01*
X147470974Y-71174526D01*
X147470973Y-71174526D01*
X147419868Y-71247512D01*
X147419866Y-71247516D01*
X147323734Y-71453673D01*
X147323730Y-71453682D01*
X147264860Y-71673389D01*
X147264858Y-71673400D01*
X147248028Y-71865776D01*
X147235529Y-71897728D01*
X147012564Y-71897728D01*
X147002931Y-71879401D01*
X147000500Y-71854969D01*
X147000500Y-71085177D01*
X146991768Y-71041282D01*
X146991767Y-71041281D01*
X146991767Y-71041278D01*
X146958504Y-70991496D01*
X146958503Y-70991495D01*
X146908724Y-70958234D01*
X146908717Y-70958231D01*
X146864822Y-70949500D01*
X146864820Y-70949500D01*
X145235180Y-70949500D01*
X145235178Y-70949500D01*
X145191282Y-70958231D01*
X145191275Y-70958234D01*
X145141496Y-70991495D01*
X145141495Y-70991496D01*
X145108234Y-71041275D01*
X145108231Y-71041282D01*
X145099500Y-71085177D01*
X145099500Y-71085180D01*
X145099500Y-72714820D01*
X145099500Y-72714822D01*
X145099499Y-72714822D01*
X86651926Y-72714822D01*
X86661250Y-72644000D01*
X86642330Y-72500291D01*
X86586861Y-72366375D01*
X86498621Y-72251379D01*
X86383625Y-72163139D01*
X86383624Y-72163138D01*
X86383622Y-72163137D01*
X86286291Y-72122822D01*
X136021499Y-72122822D01*
X136030231Y-72166717D01*
X136030232Y-72166721D01*
X136030233Y-72166722D01*
X136063496Y-72216504D01*
X136113278Y-72249767D01*
X136113281Y-72249767D01*
X136113282Y-72249768D01*
X136157177Y-72258500D01*
X136157180Y-72258500D01*
X139686822Y-72258500D01*
X139730717Y-72249768D01*
X139730717Y-72249767D01*
X139730722Y-72249767D01*
X139780504Y-72216504D01*
X139813767Y-72166722D01*
X139814480Y-72163137D01*
X139822500Y-72122822D01*
X139822500Y-68593177D01*
X139813768Y-68549282D01*
X139813767Y-68549281D01*
X139813767Y-68549278D01*
X139780504Y-68499496D01*
X139770504Y-68492814D01*
X139730724Y-68466234D01*
X139730717Y-68466231D01*
X139686822Y-68457500D01*
X139686820Y-68457500D01*
X136157180Y-68457500D01*
X136157178Y-68457500D01*
X136113282Y-68466231D01*
X136113275Y-68466234D01*
X136063496Y-68499495D01*
X136063495Y-68499496D01*
X136030234Y-68549275D01*
X136030231Y-68549282D01*
X136021500Y-68593177D01*
X136021500Y-68593180D01*
X136021500Y-72122820D01*
X136021500Y-72122822D01*
X136021499Y-72122822D01*
X86286291Y-72122822D01*
X86249712Y-72107671D01*
X86249710Y-72107670D01*
X86249709Y-72107670D01*
X86177854Y-72098210D01*
X86106001Y-72088750D01*
X86105999Y-72088750D01*
X85962291Y-72107670D01*
X85962287Y-72107671D01*
X85828377Y-72163137D01*
X85713379Y-72251379D01*
X85625137Y-72366377D01*
X85569671Y-72500287D01*
X85569670Y-72500291D01*
X85550750Y-72643999D01*
X55372000Y-72643999D01*
X55372000Y-69088000D01*
X95202750Y-69088000D01*
X95214228Y-69175186D01*
X95221670Y-69231708D01*
X95221671Y-69231712D01*
X95277137Y-69365622D01*
X95277138Y-69365624D01*
X95277139Y-69365625D01*
X95365379Y-69480621D01*
X95480375Y-69568861D01*
X95614291Y-69624330D01*
X95741280Y-69641048D01*
X95757999Y-69643250D01*
X95758000Y-69643250D01*
X95758001Y-69643250D01*
X95772977Y-69641278D01*
X95901709Y-69624330D01*
X96035625Y-69568861D01*
X96150621Y-69480621D01*
X96238861Y-69365625D01*
X96294330Y-69231709D01*
X96313250Y-69088000D01*
X96294330Y-68944291D01*
X96238861Y-68810375D01*
X96150621Y-68695379D01*
X96035625Y-68607139D01*
X96035624Y-68607138D01*
X96035622Y-68607137D01*
X95901712Y-68551671D01*
X95901710Y-68551670D01*
X95901709Y-68551670D01*
X95829854Y-68542210D01*
X95758001Y-68532750D01*
X95757999Y-68532750D01*
X95614291Y-68551670D01*
X95614287Y-68551671D01*
X95480377Y-68607137D01*
X95365379Y-68695379D01*
X95277137Y-68810377D01*
X95221671Y-68944287D01*
X95221670Y-68944291D01*
X95202750Y-69088000D01*
X55372000Y-69088000D01*
X55372000Y-67447920D01*
X72145499Y-67447920D01*
X72174340Y-67592907D01*
X72174343Y-67592917D01*
X72230912Y-67729488D01*
X72230919Y-67729501D01*
X72313048Y-67852415D01*
X72313051Y-67852419D01*
X72417580Y-67956948D01*
X72417584Y-67956951D01*
X72540498Y-68039080D01*
X72540511Y-68039087D01*
X72677082Y-68095656D01*
X72677087Y-68095658D01*
X72677091Y-68095658D01*
X72677092Y-68095659D01*
X72822079Y-68124500D01*
X72822082Y-68124500D01*
X72969920Y-68124500D01*
X73067462Y-68105096D01*
X73114913Y-68095658D01*
X73251495Y-68039084D01*
X73374416Y-67956951D01*
X73478951Y-67852416D01*
X73561084Y-67729495D01*
X73617658Y-67592913D01*
X73646500Y-67447920D01*
X80145499Y-67447920D01*
X80174340Y-67592907D01*
X80174343Y-67592917D01*
X80230912Y-67729488D01*
X80230919Y-67729501D01*
X80313048Y-67852415D01*
X80313051Y-67852419D01*
X80417580Y-67956948D01*
X80417584Y-67956951D01*
X80540498Y-68039080D01*
X80540511Y-68039087D01*
X80677082Y-68095656D01*
X80677087Y-68095658D01*
X80677091Y-68095658D01*
X80677092Y-68095659D01*
X80822079Y-68124500D01*
X80822082Y-68124500D01*
X80969920Y-68124500D01*
X81067462Y-68105096D01*
X81114913Y-68095658D01*
X81251495Y-68039084D01*
X81374416Y-67956951D01*
X81478951Y-67852416D01*
X81561084Y-67729495D01*
X81617658Y-67592913D01*
X81623410Y-67563998D01*
X100752843Y-67563998D01*
X100752843Y-67564001D01*
X100773430Y-67799315D01*
X100773432Y-67799326D01*
X100834566Y-68027483D01*
X100834570Y-68027492D01*
X100934398Y-68241576D01*
X100993073Y-68325372D01*
X101625037Y-67693408D01*
X101642075Y-67756993D01*
X101707901Y-67871007D01*
X101800993Y-67964099D01*
X101915007Y-68029925D01*
X101978591Y-68046962D01*
X101346626Y-68678926D01*
X101430417Y-68737598D01*
X101430421Y-68737600D01*
X101644507Y-68837429D01*
X101644516Y-68837433D01*
X101727713Y-68859725D01*
X101787373Y-68896089D01*
X101817903Y-68958936D01*
X101809609Y-69028312D01*
X101765124Y-69082190D01*
X101698572Y-69103465D01*
X101695621Y-69103500D01*
X101476482Y-69103500D01*
X101395519Y-69116323D01*
X101382696Y-69118354D01*
X101269658Y-69175950D01*
X101269657Y-69175951D01*
X101269652Y-69175954D01*
X101179954Y-69265652D01*
X101179951Y-69265657D01*
X101122352Y-69378698D01*
X101107500Y-69472475D01*
X101107500Y-70735517D01*
X101112941Y-70769868D01*
X101122354Y-70829304D01*
X101179950Y-70942342D01*
X101179952Y-70942344D01*
X101179954Y-70942347D01*
X101269652Y-71032045D01*
X101269654Y-71032046D01*
X101269658Y-71032050D01*
X101373925Y-71085177D01*
X101382698Y-71089647D01*
X101476475Y-71104499D01*
X101476481Y-71104500D01*
X102739518Y-71104499D01*
X102833304Y-71089646D01*
X102946342Y-71032050D01*
X103036050Y-70942342D01*
X103093646Y-70829304D01*
X103093646Y-70829302D01*
X103093647Y-70829301D01*
X103108499Y-70735524D01*
X103108500Y-70735519D01*
X103108499Y-70104000D01*
X103642659Y-70104000D01*
X103661975Y-70300129D01*
X103719188Y-70488733D01*
X103812086Y-70662532D01*
X103812090Y-70662539D01*
X103937116Y-70814883D01*
X104089460Y-70939909D01*
X104089467Y-70939913D01*
X104263266Y-71032811D01*
X104263269Y-71032811D01*
X104263273Y-71032814D01*
X104451868Y-71090024D01*
X104648000Y-71109341D01*
X104844132Y-71090024D01*
X105032727Y-71032814D01*
X105034157Y-71032050D01*
X105188596Y-70949500D01*
X105206538Y-70939910D01*
X105358883Y-70814883D01*
X105483910Y-70662538D01*
X105576814Y-70488727D01*
X105634024Y-70300132D01*
X105653341Y-70104000D01*
X105634024Y-69907868D01*
X105576814Y-69719273D01*
X105576811Y-69719269D01*
X105576811Y-69719266D01*
X105483913Y-69545467D01*
X105483909Y-69545460D01*
X105358883Y-69393116D01*
X105206539Y-69268090D01*
X105206532Y-69268086D01*
X105032733Y-69175188D01*
X105032727Y-69175186D01*
X104845378Y-69118354D01*
X104844129Y-69117975D01*
X104648000Y-69098659D01*
X104451870Y-69117975D01*
X104263266Y-69175188D01*
X104089467Y-69268086D01*
X104089460Y-69268090D01*
X103937116Y-69393116D01*
X103812090Y-69545460D01*
X103812086Y-69545467D01*
X103719188Y-69719266D01*
X103661975Y-69907870D01*
X103642659Y-70104000D01*
X103108499Y-70104000D01*
X103108499Y-69472482D01*
X103093646Y-69378696D01*
X103036050Y-69265658D01*
X103036046Y-69265654D01*
X103036045Y-69265652D01*
X102946347Y-69175954D01*
X102946344Y-69175952D01*
X102946342Y-69175950D01*
X102862243Y-69133099D01*
X102833301Y-69118352D01*
X102739524Y-69103500D01*
X102520381Y-69103500D01*
X102453342Y-69083815D01*
X102407587Y-69031011D01*
X102397643Y-68961853D01*
X102426668Y-68898297D01*
X102485446Y-68860523D01*
X102488288Y-68859725D01*
X102571483Y-68837433D01*
X102571492Y-68837429D01*
X102785580Y-68737599D01*
X102869371Y-68678925D01*
X102237408Y-68046962D01*
X102300993Y-68029925D01*
X102415007Y-67964099D01*
X102508099Y-67871007D01*
X102573925Y-67756993D01*
X102590962Y-67693408D01*
X103222925Y-68325371D01*
X103281599Y-68241580D01*
X103381429Y-68027492D01*
X103381433Y-68027483D01*
X103438664Y-67813892D01*
X103475029Y-67754231D01*
X103537876Y-67723702D01*
X103607251Y-67731997D01*
X103661129Y-67776482D01*
X103677099Y-67809989D01*
X103719186Y-67948728D01*
X103812086Y-68122532D01*
X103812090Y-68122539D01*
X103937116Y-68274883D01*
X104089460Y-68399909D01*
X104089467Y-68399913D01*
X104263266Y-68492811D01*
X104263269Y-68492811D01*
X104263273Y-68492814D01*
X104451868Y-68550024D01*
X104648000Y-68569341D01*
X104844132Y-68550024D01*
X105032727Y-68492814D01*
X105206538Y-68399910D01*
X105358883Y-68274883D01*
X105483910Y-68122538D01*
X105539652Y-68018251D01*
X105576812Y-67948731D01*
X105576813Y-67948728D01*
X105576814Y-67948727D01*
X105618900Y-67809988D01*
X105657197Y-67751551D01*
X105721009Y-67723095D01*
X105790076Y-67733655D01*
X105842470Y-67779879D01*
X105857335Y-67813891D01*
X105914567Y-68027486D01*
X105914570Y-68027492D01*
X106014398Y-68241576D01*
X106073073Y-68325372D01*
X106705037Y-67693408D01*
X106722075Y-67756993D01*
X106787901Y-67871007D01*
X106880993Y-67964099D01*
X106995007Y-68029925D01*
X107058591Y-68046962D01*
X106426626Y-68678926D01*
X106510417Y-68737598D01*
X106510421Y-68737600D01*
X106724507Y-68837429D01*
X106724516Y-68837433D01*
X106938107Y-68894664D01*
X106997768Y-68931029D01*
X107028297Y-68993876D01*
X107020002Y-69063251D01*
X106975517Y-69117129D01*
X106942010Y-69133099D01*
X106803271Y-69175186D01*
X106629467Y-69268086D01*
X106629460Y-69268090D01*
X106477116Y-69393116D01*
X106352090Y-69545460D01*
X106352086Y-69545467D01*
X106259188Y-69719266D01*
X106201975Y-69907870D01*
X106182659Y-70104000D01*
X106201975Y-70300129D01*
X106259188Y-70488733D01*
X106352086Y-70662532D01*
X106352090Y-70662539D01*
X106477116Y-70814883D01*
X106629460Y-70939909D01*
X106629467Y-70939913D01*
X106803266Y-71032811D01*
X106803269Y-71032811D01*
X106803273Y-71032814D01*
X106991868Y-71090024D01*
X107188000Y-71109341D01*
X107384132Y-71090024D01*
X107572727Y-71032814D01*
X107574157Y-71032050D01*
X107728596Y-70949500D01*
X107746538Y-70939910D01*
X107898883Y-70814883D01*
X108023910Y-70662538D01*
X108116814Y-70488727D01*
X108174024Y-70300132D01*
X108193341Y-70104000D01*
X108722659Y-70104000D01*
X108741975Y-70300129D01*
X108799188Y-70488733D01*
X108892086Y-70662532D01*
X108892090Y-70662539D01*
X109017116Y-70814883D01*
X109169460Y-70939909D01*
X109169467Y-70939913D01*
X109343266Y-71032811D01*
X109343269Y-71032811D01*
X109343273Y-71032814D01*
X109531868Y-71090024D01*
X109728000Y-71109341D01*
X109924132Y-71090024D01*
X110112727Y-71032814D01*
X110114157Y-71032050D01*
X110268596Y-70949500D01*
X110286538Y-70939910D01*
X110438883Y-70814883D01*
X110563910Y-70662538D01*
X110656814Y-70488727D01*
X110714024Y-70300132D01*
X110733341Y-70104000D01*
X110714024Y-69907868D01*
X110656814Y-69719273D01*
X110656811Y-69719269D01*
X110656811Y-69719266D01*
X110563913Y-69545467D01*
X110563909Y-69545460D01*
X110438883Y-69393116D01*
X110286539Y-69268090D01*
X110286532Y-69268086D01*
X110112733Y-69175188D01*
X110112727Y-69175186D01*
X109925378Y-69118354D01*
X109924129Y-69117975D01*
X109728000Y-69098659D01*
X109531870Y-69117975D01*
X109343266Y-69175188D01*
X109169467Y-69268086D01*
X109169460Y-69268090D01*
X109017116Y-69393116D01*
X108892090Y-69545460D01*
X108892086Y-69545467D01*
X108799188Y-69719266D01*
X108741975Y-69907870D01*
X108722659Y-70104000D01*
X108193341Y-70104000D01*
X108174024Y-69907868D01*
X108116814Y-69719273D01*
X108116811Y-69719269D01*
X108116811Y-69719266D01*
X108023913Y-69545467D01*
X108023909Y-69545460D01*
X107898883Y-69393116D01*
X107746539Y-69268090D01*
X107746532Y-69268086D01*
X107572728Y-69175186D01*
X107433989Y-69133099D01*
X107375551Y-69094801D01*
X107347094Y-69030989D01*
X107357655Y-68961922D01*
X107403880Y-68909529D01*
X107437892Y-68894664D01*
X107651483Y-68837433D01*
X107651492Y-68837429D01*
X107865580Y-68737599D01*
X107949371Y-68678925D01*
X107317408Y-68046962D01*
X107380993Y-68029925D01*
X107495007Y-67964099D01*
X107588099Y-67871007D01*
X107653925Y-67756993D01*
X107670962Y-67693408D01*
X108302925Y-68325371D01*
X108361599Y-68241580D01*
X108461429Y-68027492D01*
X108461433Y-68027483D01*
X108518664Y-67813892D01*
X108555029Y-67754231D01*
X108617876Y-67723702D01*
X108687251Y-67731997D01*
X108741129Y-67776482D01*
X108757099Y-67809989D01*
X108799186Y-67948728D01*
X108892086Y-68122532D01*
X108892090Y-68122539D01*
X109017116Y-68274883D01*
X109169460Y-68399909D01*
X109169467Y-68399913D01*
X109343266Y-68492811D01*
X109343269Y-68492811D01*
X109343273Y-68492814D01*
X109531868Y-68550024D01*
X109728000Y-68569341D01*
X109924132Y-68550024D01*
X110112727Y-68492814D01*
X110286538Y-68399910D01*
X110438883Y-68274883D01*
X110563910Y-68122538D01*
X110619652Y-68018251D01*
X110656812Y-67948731D01*
X110656813Y-67948728D01*
X110656814Y-67948727D01*
X110698900Y-67809988D01*
X110737197Y-67751551D01*
X110801009Y-67723095D01*
X110870076Y-67733655D01*
X110922470Y-67779879D01*
X110937335Y-67813891D01*
X110994567Y-68027486D01*
X110994570Y-68027492D01*
X111094398Y-68241576D01*
X111153073Y-68325372D01*
X111785037Y-67693408D01*
X111802075Y-67756993D01*
X111867901Y-67871007D01*
X111960993Y-67964099D01*
X112075007Y-68029925D01*
X112138591Y-68046962D01*
X111506626Y-68678926D01*
X111590417Y-68737598D01*
X111590421Y-68737600D01*
X111804507Y-68837429D01*
X111804516Y-68837433D01*
X112018107Y-68894664D01*
X112077768Y-68931029D01*
X112108297Y-68993876D01*
X112100002Y-69063251D01*
X112055517Y-69117129D01*
X112022010Y-69133099D01*
X111883271Y-69175186D01*
X111709467Y-69268086D01*
X111709460Y-69268090D01*
X111557116Y-69393116D01*
X111432090Y-69545460D01*
X111432086Y-69545467D01*
X111339188Y-69719266D01*
X111281975Y-69907870D01*
X111262659Y-70104000D01*
X111281975Y-70300129D01*
X111339188Y-70488733D01*
X111432086Y-70662532D01*
X111432090Y-70662539D01*
X111557116Y-70814883D01*
X111709460Y-70939909D01*
X111709467Y-70939913D01*
X111883266Y-71032811D01*
X111883269Y-71032811D01*
X111883273Y-71032814D01*
X112071868Y-71090024D01*
X112268000Y-71109341D01*
X112464132Y-71090024D01*
X112652727Y-71032814D01*
X112654157Y-71032050D01*
X112808596Y-70949500D01*
X112826538Y-70939910D01*
X112978883Y-70814883D01*
X113103910Y-70662538D01*
X113196814Y-70488727D01*
X113254024Y-70300132D01*
X113273341Y-70104000D01*
X113802659Y-70104000D01*
X113821975Y-70300129D01*
X113879188Y-70488733D01*
X113972086Y-70662532D01*
X113972090Y-70662539D01*
X114097116Y-70814883D01*
X114249460Y-70939909D01*
X114249467Y-70939913D01*
X114423266Y-71032811D01*
X114423269Y-71032811D01*
X114423273Y-71032814D01*
X114611868Y-71090024D01*
X114808000Y-71109341D01*
X115004132Y-71090024D01*
X115192727Y-71032814D01*
X115194157Y-71032050D01*
X115348596Y-70949500D01*
X115366538Y-70939910D01*
X115518883Y-70814883D01*
X115643910Y-70662538D01*
X115736814Y-70488727D01*
X115794024Y-70300132D01*
X115813341Y-70104000D01*
X115794024Y-69907868D01*
X115736814Y-69719273D01*
X115736811Y-69719269D01*
X115736811Y-69719266D01*
X115643913Y-69545467D01*
X115643909Y-69545460D01*
X115518883Y-69393116D01*
X115366539Y-69268090D01*
X115366532Y-69268086D01*
X115192733Y-69175188D01*
X115192727Y-69175186D01*
X115005378Y-69118354D01*
X115004129Y-69117975D01*
X114808000Y-69098659D01*
X114611870Y-69117975D01*
X114423266Y-69175188D01*
X114249467Y-69268086D01*
X114249460Y-69268090D01*
X114097116Y-69393116D01*
X113972090Y-69545460D01*
X113972086Y-69545467D01*
X113879188Y-69719266D01*
X113821975Y-69907870D01*
X113802659Y-70104000D01*
X113273341Y-70104000D01*
X113254024Y-69907868D01*
X113196814Y-69719273D01*
X113196811Y-69719269D01*
X113196811Y-69719266D01*
X113103913Y-69545467D01*
X113103909Y-69545460D01*
X112978883Y-69393116D01*
X112826539Y-69268090D01*
X112826532Y-69268086D01*
X112652728Y-69175186D01*
X112513989Y-69133099D01*
X112455551Y-69094801D01*
X112427094Y-69030989D01*
X112437655Y-68961922D01*
X112483880Y-68909529D01*
X112517892Y-68894664D01*
X112731483Y-68837433D01*
X112731492Y-68837429D01*
X112945580Y-68737599D01*
X113029371Y-68678925D01*
X112397408Y-68046962D01*
X112460993Y-68029925D01*
X112575007Y-67964099D01*
X112668099Y-67871007D01*
X112733925Y-67756993D01*
X112750962Y-67693408D01*
X113382925Y-68325371D01*
X113441599Y-68241580D01*
X113541429Y-68027492D01*
X113541433Y-68027483D01*
X113598664Y-67813892D01*
X113635029Y-67754231D01*
X113697876Y-67723702D01*
X113767251Y-67731997D01*
X113821129Y-67776482D01*
X113837099Y-67809989D01*
X113879186Y-67948728D01*
X113972086Y-68122532D01*
X113972090Y-68122539D01*
X114097116Y-68274883D01*
X114249460Y-68399909D01*
X114249467Y-68399913D01*
X114423266Y-68492811D01*
X114423269Y-68492811D01*
X114423273Y-68492814D01*
X114611868Y-68550024D01*
X114808000Y-68569341D01*
X115004132Y-68550024D01*
X115192727Y-68492814D01*
X115366538Y-68399910D01*
X115518883Y-68274883D01*
X115643910Y-68122538D01*
X115699652Y-68018251D01*
X115736812Y-67948731D01*
X115736813Y-67948728D01*
X115736814Y-67948727D01*
X115778900Y-67809988D01*
X115817197Y-67751551D01*
X115881009Y-67723095D01*
X115950076Y-67733655D01*
X116002470Y-67779879D01*
X116017335Y-67813891D01*
X116074567Y-68027486D01*
X116074570Y-68027492D01*
X116174398Y-68241576D01*
X116233073Y-68325372D01*
X116865037Y-67693408D01*
X116882075Y-67756993D01*
X116947901Y-67871007D01*
X117040993Y-67964099D01*
X117155007Y-68029925D01*
X117218591Y-68046962D01*
X116586626Y-68678926D01*
X116670417Y-68737598D01*
X116670421Y-68737600D01*
X116884507Y-68837429D01*
X116884516Y-68837433D01*
X117098107Y-68894664D01*
X117157768Y-68931029D01*
X117188297Y-68993876D01*
X117180002Y-69063251D01*
X117135517Y-69117129D01*
X117102010Y-69133099D01*
X116963271Y-69175186D01*
X116789467Y-69268086D01*
X116789460Y-69268090D01*
X116637116Y-69393116D01*
X116512090Y-69545460D01*
X116512086Y-69545467D01*
X116419188Y-69719266D01*
X116361975Y-69907870D01*
X116342659Y-70104000D01*
X116361975Y-70300129D01*
X116419188Y-70488733D01*
X116512086Y-70662532D01*
X116512090Y-70662539D01*
X116637116Y-70814883D01*
X116789460Y-70939909D01*
X116789467Y-70939913D01*
X116963266Y-71032811D01*
X116963269Y-71032811D01*
X116963273Y-71032814D01*
X117151868Y-71090024D01*
X117348000Y-71109341D01*
X117544132Y-71090024D01*
X117732727Y-71032814D01*
X117734157Y-71032050D01*
X117888596Y-70949500D01*
X117906538Y-70939910D01*
X118058883Y-70814883D01*
X118183910Y-70662538D01*
X118276814Y-70488727D01*
X118334024Y-70300132D01*
X118353341Y-70104000D01*
X118882659Y-70104000D01*
X118901975Y-70300129D01*
X118959188Y-70488733D01*
X119052086Y-70662532D01*
X119052090Y-70662539D01*
X119177116Y-70814883D01*
X119329460Y-70939909D01*
X119329467Y-70939913D01*
X119503266Y-71032811D01*
X119503269Y-71032811D01*
X119503273Y-71032814D01*
X119691868Y-71090024D01*
X119888000Y-71109341D01*
X120084132Y-71090024D01*
X120272727Y-71032814D01*
X120274157Y-71032050D01*
X120428596Y-70949500D01*
X120446538Y-70939910D01*
X120598883Y-70814883D01*
X120723910Y-70662538D01*
X120816814Y-70488727D01*
X120874024Y-70300132D01*
X120893341Y-70104000D01*
X121422659Y-70104000D01*
X121441975Y-70300129D01*
X121499188Y-70488733D01*
X121592086Y-70662532D01*
X121592090Y-70662539D01*
X121717116Y-70814883D01*
X121869460Y-70939909D01*
X121869467Y-70939913D01*
X122043266Y-71032811D01*
X122043269Y-71032811D01*
X122043273Y-71032814D01*
X122231868Y-71090024D01*
X122428000Y-71109341D01*
X122624132Y-71090024D01*
X122812727Y-71032814D01*
X122814157Y-71032050D01*
X122968596Y-70949500D01*
X122986538Y-70939910D01*
X123138883Y-70814883D01*
X123263910Y-70662538D01*
X123356814Y-70488727D01*
X123414024Y-70300132D01*
X123433341Y-70104000D01*
X123962659Y-70104000D01*
X123981975Y-70300129D01*
X124039188Y-70488733D01*
X124132086Y-70662532D01*
X124132090Y-70662539D01*
X124257116Y-70814883D01*
X124409460Y-70939909D01*
X124409467Y-70939913D01*
X124583266Y-71032811D01*
X124583269Y-71032811D01*
X124583273Y-71032814D01*
X124771868Y-71090024D01*
X124968000Y-71109341D01*
X125164132Y-71090024D01*
X125352727Y-71032814D01*
X125354157Y-71032050D01*
X125508596Y-70949500D01*
X125526538Y-70939910D01*
X125678883Y-70814883D01*
X125803910Y-70662538D01*
X125896814Y-70488727D01*
X125954024Y-70300132D01*
X125973341Y-70104000D01*
X125954024Y-69907868D01*
X125896814Y-69719273D01*
X125896811Y-69719269D01*
X125896811Y-69719266D01*
X125803913Y-69545467D01*
X125803909Y-69545460D01*
X125678883Y-69393116D01*
X125526539Y-69268090D01*
X125526532Y-69268086D01*
X125352733Y-69175188D01*
X125352727Y-69175186D01*
X125165378Y-69118354D01*
X125164129Y-69117975D01*
X124968000Y-69098659D01*
X124771870Y-69117975D01*
X124583266Y-69175188D01*
X124409467Y-69268086D01*
X124409460Y-69268090D01*
X124257116Y-69393116D01*
X124132090Y-69545460D01*
X124132086Y-69545467D01*
X124039188Y-69719266D01*
X123981975Y-69907870D01*
X123962659Y-70104000D01*
X123433341Y-70104000D01*
X123414024Y-69907868D01*
X123356814Y-69719273D01*
X123356811Y-69719269D01*
X123356811Y-69719266D01*
X123263913Y-69545467D01*
X123263909Y-69545460D01*
X123138883Y-69393116D01*
X122986539Y-69268090D01*
X122986532Y-69268086D01*
X122812733Y-69175188D01*
X122812727Y-69175186D01*
X122625378Y-69118354D01*
X122624129Y-69117975D01*
X122428000Y-69098659D01*
X122231870Y-69117975D01*
X122043266Y-69175188D01*
X121869467Y-69268086D01*
X121869460Y-69268090D01*
X121717116Y-69393116D01*
X121592090Y-69545460D01*
X121592086Y-69545467D01*
X121499188Y-69719266D01*
X121441975Y-69907870D01*
X121422659Y-70104000D01*
X120893341Y-70104000D01*
X120874024Y-69907868D01*
X120816814Y-69719273D01*
X120816811Y-69719269D01*
X120816811Y-69719266D01*
X120723913Y-69545467D01*
X120723909Y-69545460D01*
X120598883Y-69393116D01*
X120446539Y-69268090D01*
X120446532Y-69268086D01*
X120272733Y-69175188D01*
X120272727Y-69175186D01*
X120085378Y-69118354D01*
X120084129Y-69117975D01*
X119888000Y-69098659D01*
X119691870Y-69117975D01*
X119503266Y-69175188D01*
X119329467Y-69268086D01*
X119329460Y-69268090D01*
X119177116Y-69393116D01*
X119052090Y-69545460D01*
X119052086Y-69545467D01*
X118959188Y-69719266D01*
X118901975Y-69907870D01*
X118882659Y-70104000D01*
X118353341Y-70104000D01*
X118334024Y-69907868D01*
X118276814Y-69719273D01*
X118276811Y-69719269D01*
X118276811Y-69719266D01*
X118183913Y-69545467D01*
X118183909Y-69545460D01*
X118058883Y-69393116D01*
X117906539Y-69268090D01*
X117906532Y-69268086D01*
X117732728Y-69175186D01*
X117593989Y-69133099D01*
X117535551Y-69094801D01*
X117507094Y-69030989D01*
X117517655Y-68961922D01*
X117563880Y-68909529D01*
X117597892Y-68894664D01*
X117811483Y-68837433D01*
X117811492Y-68837429D01*
X118025580Y-68737599D01*
X118109371Y-68678925D01*
X117477408Y-68046962D01*
X117540993Y-68029925D01*
X117655007Y-67964099D01*
X117748099Y-67871007D01*
X117813925Y-67756993D01*
X117830962Y-67693408D01*
X118462925Y-68325371D01*
X118521599Y-68241580D01*
X118621429Y-68027492D01*
X118621433Y-68027483D01*
X118678664Y-67813892D01*
X118715029Y-67754231D01*
X118777876Y-67723702D01*
X118847251Y-67731997D01*
X118901129Y-67776482D01*
X118917099Y-67809989D01*
X118959186Y-67948728D01*
X119052086Y-68122532D01*
X119052090Y-68122539D01*
X119177116Y-68274883D01*
X119329460Y-68399909D01*
X119329467Y-68399913D01*
X119503266Y-68492811D01*
X119503269Y-68492811D01*
X119503273Y-68492814D01*
X119691868Y-68550024D01*
X119888000Y-68569341D01*
X120084132Y-68550024D01*
X120272727Y-68492814D01*
X120446538Y-68399910D01*
X120598883Y-68274883D01*
X120723910Y-68122538D01*
X120774718Y-68027483D01*
X120816811Y-67948733D01*
X120816813Y-67948728D01*
X120816814Y-67948727D01*
X120874024Y-67760132D01*
X120893341Y-67564000D01*
X121422659Y-67564000D01*
X121441975Y-67760129D01*
X121499188Y-67948733D01*
X121592086Y-68122532D01*
X121592090Y-68122539D01*
X121717116Y-68274883D01*
X121869460Y-68399909D01*
X121869467Y-68399913D01*
X122043266Y-68492811D01*
X122043269Y-68492811D01*
X122043273Y-68492814D01*
X122231868Y-68550024D01*
X122428000Y-68569341D01*
X122624132Y-68550024D01*
X122812727Y-68492814D01*
X122986538Y-68399910D01*
X123138883Y-68274883D01*
X123263910Y-68122538D01*
X123314718Y-68027483D01*
X123356811Y-67948733D01*
X123356813Y-67948728D01*
X123356814Y-67948727D01*
X123414024Y-67760132D01*
X123433341Y-67564000D01*
X123962659Y-67564000D01*
X123981975Y-67760129D01*
X124039188Y-67948733D01*
X124132086Y-68122532D01*
X124132090Y-68122539D01*
X124257116Y-68274883D01*
X124409460Y-68399909D01*
X124409467Y-68399913D01*
X124583266Y-68492811D01*
X124583269Y-68492811D01*
X124583273Y-68492814D01*
X124771868Y-68550024D01*
X124968000Y-68569341D01*
X125164132Y-68550024D01*
X125352727Y-68492814D01*
X125526538Y-68399910D01*
X125678883Y-68274883D01*
X125803910Y-68122538D01*
X125854718Y-68027483D01*
X125896811Y-67948733D01*
X125896813Y-67948728D01*
X125896814Y-67948727D01*
X125954024Y-67760132D01*
X125973341Y-67564000D01*
X125954024Y-67367868D01*
X125896814Y-67179273D01*
X125896811Y-67179269D01*
X125896811Y-67179266D01*
X125803913Y-67005467D01*
X125803909Y-67005460D01*
X125678883Y-66853116D01*
X125526539Y-66728090D01*
X125526532Y-66728086D01*
X125352733Y-66635188D01*
X125352727Y-66635186D01*
X125164132Y-66577976D01*
X125164129Y-66577975D01*
X124968000Y-66558659D01*
X124771870Y-66577975D01*
X124583266Y-66635188D01*
X124409467Y-66728086D01*
X124409460Y-66728090D01*
X124257116Y-66853116D01*
X124132090Y-67005460D01*
X124132086Y-67005467D01*
X124039188Y-67179266D01*
X123981975Y-67367870D01*
X123962659Y-67564000D01*
X123433341Y-67564000D01*
X123414024Y-67367868D01*
X123356814Y-67179273D01*
X123356811Y-67179269D01*
X123356811Y-67179266D01*
X123263913Y-67005467D01*
X123263909Y-67005460D01*
X123138883Y-66853116D01*
X122986539Y-66728090D01*
X122986532Y-66728086D01*
X122812733Y-66635188D01*
X122812727Y-66635186D01*
X122624132Y-66577976D01*
X122624129Y-66577975D01*
X122428000Y-66558659D01*
X122231870Y-66577975D01*
X122043266Y-66635188D01*
X121869467Y-66728086D01*
X121869460Y-66728090D01*
X121717116Y-66853116D01*
X121592090Y-67005460D01*
X121592086Y-67005467D01*
X121499188Y-67179266D01*
X121441975Y-67367870D01*
X121422659Y-67564000D01*
X120893341Y-67564000D01*
X120874024Y-67367868D01*
X120816814Y-67179273D01*
X120816811Y-67179269D01*
X120816811Y-67179266D01*
X120723913Y-67005467D01*
X120723909Y-67005460D01*
X120598883Y-66853116D01*
X120446539Y-66728090D01*
X120446532Y-66728086D01*
X120272733Y-66635188D01*
X120272727Y-66635186D01*
X120084132Y-66577976D01*
X120084129Y-66577975D01*
X119888000Y-66558659D01*
X119691870Y-66577975D01*
X119503266Y-66635188D01*
X119329467Y-66728086D01*
X119329460Y-66728090D01*
X119177116Y-66853116D01*
X119052090Y-67005460D01*
X119052086Y-67005467D01*
X118959186Y-67179271D01*
X118917099Y-67318010D01*
X118878801Y-67376449D01*
X118814989Y-67404905D01*
X118745922Y-67394344D01*
X118693529Y-67348119D01*
X118678664Y-67314107D01*
X118621433Y-67100516D01*
X118621429Y-67100507D01*
X118521601Y-66886424D01*
X118462925Y-66802626D01*
X117830962Y-67434590D01*
X117813925Y-67371007D01*
X117748099Y-67256993D01*
X117655007Y-67163901D01*
X117540993Y-67098075D01*
X117477409Y-67081037D01*
X118109372Y-66449073D01*
X118085879Y-66432623D01*
X131321500Y-66432623D01*
X131321500Y-68283376D01*
X131336337Y-68434031D01*
X131394978Y-68627345D01*
X131490198Y-68805488D01*
X131490201Y-68805492D01*
X131490202Y-68805494D01*
X131509688Y-68829238D01*
X131618352Y-68961647D01*
X131727016Y-69050824D01*
X131774506Y-69089798D01*
X131774509Y-69089799D01*
X131774511Y-69089801D01*
X131952654Y-69185021D01*
X131952656Y-69185021D01*
X131952659Y-69185023D01*
X132145967Y-69243662D01*
X132296620Y-69258500D01*
X132296623Y-69258500D01*
X134147377Y-69258500D01*
X134147380Y-69258500D01*
X134298033Y-69243662D01*
X134491341Y-69185023D01*
X134508314Y-69175951D01*
X134588484Y-69133099D01*
X134669494Y-69089798D01*
X134825647Y-68961647D01*
X134953798Y-68805494D01*
X135049023Y-68627341D01*
X135107662Y-68434033D01*
X135122500Y-68283380D01*
X135122500Y-66432620D01*
X135107662Y-66281967D01*
X135049023Y-66088659D01*
X135049021Y-66088656D01*
X135049021Y-66088654D01*
X134953801Y-65910511D01*
X134953799Y-65910509D01*
X134953798Y-65910506D01*
X134914824Y-65863016D01*
X134825647Y-65754352D01*
X134669495Y-65626203D01*
X134669488Y-65626198D01*
X134491345Y-65530978D01*
X134298031Y-65472337D01*
X134187900Y-65461490D01*
X134147380Y-65457500D01*
X132296620Y-65457500D01*
X132259433Y-65461162D01*
X132145968Y-65472337D01*
X131952654Y-65530978D01*
X131774511Y-65626198D01*
X131774504Y-65626203D01*
X131618352Y-65754352D01*
X131490203Y-65910504D01*
X131490198Y-65910511D01*
X131394978Y-66088654D01*
X131336337Y-66281968D01*
X131321500Y-66432623D01*
X118085879Y-66432623D01*
X118025576Y-66390398D01*
X117811492Y-66290570D01*
X117811483Y-66290566D01*
X117583326Y-66229432D01*
X117583315Y-66229430D01*
X117348002Y-66208843D01*
X117347998Y-66208843D01*
X117112684Y-66229430D01*
X117112673Y-66229432D01*
X116884516Y-66290566D01*
X116884507Y-66290570D01*
X116670423Y-66390399D01*
X116670421Y-66390400D01*
X116586627Y-66449073D01*
X116586626Y-66449073D01*
X117218591Y-67081037D01*
X117155007Y-67098075D01*
X117040993Y-67163901D01*
X116947901Y-67256993D01*
X116882075Y-67371007D01*
X116865037Y-67434590D01*
X116233073Y-66802626D01*
X116233073Y-66802627D01*
X116174400Y-66886421D01*
X116174399Y-66886423D01*
X116074570Y-67100507D01*
X116074567Y-67100513D01*
X116017335Y-67314108D01*
X115980970Y-67373768D01*
X115918123Y-67404297D01*
X115848747Y-67396002D01*
X115794869Y-67351517D01*
X115778900Y-67318013D01*
X115736814Y-67179273D01*
X115736811Y-67179269D01*
X115736811Y-67179266D01*
X115643913Y-67005467D01*
X115643909Y-67005460D01*
X115518883Y-66853116D01*
X115366539Y-66728090D01*
X115366532Y-66728086D01*
X115192733Y-66635188D01*
X115192727Y-66635186D01*
X115004132Y-66577976D01*
X115004129Y-66577975D01*
X114808000Y-66558659D01*
X114611870Y-66577975D01*
X114423266Y-66635188D01*
X114249467Y-66728086D01*
X114249460Y-66728090D01*
X114097116Y-66853116D01*
X113972090Y-67005460D01*
X113972086Y-67005467D01*
X113879186Y-67179271D01*
X113837099Y-67318010D01*
X113798801Y-67376449D01*
X113734989Y-67404905D01*
X113665922Y-67394344D01*
X113613529Y-67348119D01*
X113598664Y-67314107D01*
X113541433Y-67100516D01*
X113541429Y-67100507D01*
X113441601Y-66886424D01*
X113382925Y-66802626D01*
X112750962Y-67434590D01*
X112733925Y-67371007D01*
X112668099Y-67256993D01*
X112575007Y-67163901D01*
X112460993Y-67098075D01*
X112397409Y-67081037D01*
X113029372Y-66449073D01*
X112945576Y-66390398D01*
X112731492Y-66290570D01*
X112731483Y-66290566D01*
X112503326Y-66229432D01*
X112503315Y-66229430D01*
X112268002Y-66208843D01*
X112267998Y-66208843D01*
X112032684Y-66229430D01*
X112032673Y-66229432D01*
X111804516Y-66290566D01*
X111804507Y-66290570D01*
X111590423Y-66390399D01*
X111590421Y-66390400D01*
X111506627Y-66449073D01*
X111506626Y-66449073D01*
X112138591Y-67081037D01*
X112075007Y-67098075D01*
X111960993Y-67163901D01*
X111867901Y-67256993D01*
X111802075Y-67371007D01*
X111785037Y-67434590D01*
X111153073Y-66802626D01*
X111153073Y-66802627D01*
X111094400Y-66886421D01*
X111094399Y-66886423D01*
X110994570Y-67100507D01*
X110994567Y-67100513D01*
X110937335Y-67314108D01*
X110900970Y-67373768D01*
X110838123Y-67404297D01*
X110768747Y-67396002D01*
X110714869Y-67351517D01*
X110698900Y-67318013D01*
X110656814Y-67179273D01*
X110656811Y-67179269D01*
X110656811Y-67179266D01*
X110563913Y-67005467D01*
X110563909Y-67005460D01*
X110438883Y-66853116D01*
X110286539Y-66728090D01*
X110286532Y-66728086D01*
X110112733Y-66635188D01*
X110112727Y-66635186D01*
X109924132Y-66577976D01*
X109924129Y-66577975D01*
X109728000Y-66558659D01*
X109531870Y-66577975D01*
X109343266Y-66635188D01*
X109169467Y-66728086D01*
X109169460Y-66728090D01*
X109017116Y-66853116D01*
X108892090Y-67005460D01*
X108892086Y-67005467D01*
X108799186Y-67179271D01*
X108757099Y-67318010D01*
X108718801Y-67376449D01*
X108654989Y-67404905D01*
X108585922Y-67394344D01*
X108533529Y-67348119D01*
X108518664Y-67314107D01*
X108461433Y-67100516D01*
X108461429Y-67100507D01*
X108361601Y-66886424D01*
X108302925Y-66802626D01*
X107670962Y-67434590D01*
X107653925Y-67371007D01*
X107588099Y-67256993D01*
X107495007Y-67163901D01*
X107380993Y-67098075D01*
X107317409Y-67081037D01*
X107949372Y-66449073D01*
X107865576Y-66390398D01*
X107651492Y-66290570D01*
X107651483Y-66290566D01*
X107423326Y-66229432D01*
X107423315Y-66229430D01*
X107188002Y-66208843D01*
X107187998Y-66208843D01*
X106952684Y-66229430D01*
X106952673Y-66229432D01*
X106724516Y-66290566D01*
X106724507Y-66290570D01*
X106510423Y-66390399D01*
X106510421Y-66390400D01*
X106426627Y-66449073D01*
X106426626Y-66449073D01*
X107058591Y-67081037D01*
X106995007Y-67098075D01*
X106880993Y-67163901D01*
X106787901Y-67256993D01*
X106722075Y-67371007D01*
X106705037Y-67434590D01*
X106073073Y-66802626D01*
X106073073Y-66802627D01*
X106014400Y-66886421D01*
X106014399Y-66886423D01*
X105914570Y-67100507D01*
X105914567Y-67100513D01*
X105857335Y-67314108D01*
X105820970Y-67373768D01*
X105758123Y-67404297D01*
X105688747Y-67396002D01*
X105634869Y-67351517D01*
X105618900Y-67318013D01*
X105576814Y-67179273D01*
X105576811Y-67179269D01*
X105576811Y-67179266D01*
X105483913Y-67005467D01*
X105483909Y-67005460D01*
X105358883Y-66853116D01*
X105206539Y-66728090D01*
X105206532Y-66728086D01*
X105032733Y-66635188D01*
X105032727Y-66635186D01*
X104844132Y-66577976D01*
X104844129Y-66577975D01*
X104648000Y-66558659D01*
X104451870Y-66577975D01*
X104263266Y-66635188D01*
X104089467Y-66728086D01*
X104089460Y-66728090D01*
X103937116Y-66853116D01*
X103812090Y-67005460D01*
X103812086Y-67005467D01*
X103719186Y-67179271D01*
X103677099Y-67318010D01*
X103638801Y-67376449D01*
X103574989Y-67404905D01*
X103505922Y-67394344D01*
X103453529Y-67348119D01*
X103438664Y-67314107D01*
X103381433Y-67100516D01*
X103381429Y-67100507D01*
X103281601Y-66886424D01*
X103222925Y-66802626D01*
X102590962Y-67434590D01*
X102573925Y-67371007D01*
X102508099Y-67256993D01*
X102415007Y-67163901D01*
X102300993Y-67098075D01*
X102237409Y-67081037D01*
X102869372Y-66449073D01*
X102785576Y-66390398D01*
X102571492Y-66290570D01*
X102571483Y-66290566D01*
X102343326Y-66229432D01*
X102343315Y-66229430D01*
X102108002Y-66208843D01*
X102107998Y-66208843D01*
X101872684Y-66229430D01*
X101872673Y-66229432D01*
X101644516Y-66290566D01*
X101644507Y-66290570D01*
X101430423Y-66390399D01*
X101430421Y-66390400D01*
X101346627Y-66449073D01*
X101346626Y-66449073D01*
X101978591Y-67081037D01*
X101915007Y-67098075D01*
X101800993Y-67163901D01*
X101707901Y-67256993D01*
X101642075Y-67371007D01*
X101625037Y-67434590D01*
X100993073Y-66802626D01*
X100993073Y-66802627D01*
X100934400Y-66886421D01*
X100934399Y-66886423D01*
X100834570Y-67100507D01*
X100834566Y-67100516D01*
X100773432Y-67328673D01*
X100773430Y-67328684D01*
X100752843Y-67563998D01*
X81623410Y-67563998D01*
X81646500Y-67447918D01*
X81646500Y-67300082D01*
X81646500Y-67300079D01*
X81617659Y-67155092D01*
X81617658Y-67155091D01*
X81617658Y-67155087D01*
X81595053Y-67100513D01*
X81561087Y-67018511D01*
X81561080Y-67018498D01*
X81478951Y-66895584D01*
X81478948Y-66895580D01*
X81374419Y-66791051D01*
X81374415Y-66791048D01*
X81251501Y-66708919D01*
X81251488Y-66708912D01*
X81114917Y-66652343D01*
X81114907Y-66652340D01*
X80969920Y-66623500D01*
X80969918Y-66623500D01*
X80822082Y-66623500D01*
X80822080Y-66623500D01*
X80677092Y-66652340D01*
X80677082Y-66652343D01*
X80540511Y-66708912D01*
X80540498Y-66708919D01*
X80417584Y-66791048D01*
X80417580Y-66791051D01*
X80313051Y-66895580D01*
X80313048Y-66895584D01*
X80230919Y-67018498D01*
X80230912Y-67018511D01*
X80174343Y-67155082D01*
X80174340Y-67155092D01*
X80145500Y-67300079D01*
X80145500Y-67300082D01*
X80145500Y-67447918D01*
X80145500Y-67447920D01*
X80145499Y-67447920D01*
X73646500Y-67447920D01*
X73646500Y-67447918D01*
X73646500Y-67300082D01*
X73646500Y-67300079D01*
X73617659Y-67155092D01*
X73617658Y-67155091D01*
X73617658Y-67155087D01*
X73595053Y-67100513D01*
X73561087Y-67018511D01*
X73561080Y-67018498D01*
X73478951Y-66895584D01*
X73478948Y-66895580D01*
X73374419Y-66791051D01*
X73374415Y-66791048D01*
X73251501Y-66708919D01*
X73251488Y-66708912D01*
X73114917Y-66652343D01*
X73114907Y-66652340D01*
X72969920Y-66623500D01*
X72969918Y-66623500D01*
X72822082Y-66623500D01*
X72822080Y-66623500D01*
X72677092Y-66652340D01*
X72677082Y-66652343D01*
X72540511Y-66708912D01*
X72540498Y-66708919D01*
X72417584Y-66791048D01*
X72417580Y-66791051D01*
X72313051Y-66895580D01*
X72313048Y-66895584D01*
X72230919Y-67018498D01*
X72230912Y-67018511D01*
X72174343Y-67155082D01*
X72174340Y-67155092D01*
X72145500Y-67300079D01*
X72145500Y-67300082D01*
X72145500Y-67447918D01*
X72145500Y-67447920D01*
X72145499Y-67447920D01*
X55372000Y-67447920D01*
X55372000Y-63543803D01*
X135672000Y-63543803D01*
X135672000Y-64108000D01*
X136488988Y-64108000D01*
X136456075Y-64165007D01*
X136422000Y-64292174D01*
X136422000Y-64423826D01*
X136456075Y-64550993D01*
X136488988Y-64608000D01*
X135672001Y-64608000D01*
X135672001Y-65172197D01*
X135682400Y-65304332D01*
X135737377Y-65522519D01*
X135830428Y-65727374D01*
X135830431Y-65727380D01*
X135958559Y-65912323D01*
X135958569Y-65912335D01*
X136117664Y-66071430D01*
X136117676Y-66071440D01*
X136302619Y-66199568D01*
X136302625Y-66199571D01*
X136507480Y-66292622D01*
X136725667Y-66347599D01*
X136857810Y-66357999D01*
X137671999Y-66357999D01*
X137672000Y-66357998D01*
X137672000Y-64858000D01*
X138172000Y-64858000D01*
X138172000Y-66357999D01*
X138986182Y-66357999D01*
X138986197Y-66357998D01*
X139118332Y-66347599D01*
X139336519Y-66292622D01*
X139541374Y-66199571D01*
X139541380Y-66199568D01*
X139726323Y-66071440D01*
X139726335Y-66071430D01*
X139885430Y-65912335D01*
X139885440Y-65912323D01*
X140013568Y-65727380D01*
X140013571Y-65727374D01*
X140106622Y-65522519D01*
X140161599Y-65304332D01*
X140171999Y-65172196D01*
X140172000Y-65172184D01*
X140172000Y-64608000D01*
X139355012Y-64608000D01*
X139387925Y-64550993D01*
X139422000Y-64423826D01*
X139422000Y-64292174D01*
X139387925Y-64165007D01*
X139355012Y-64108000D01*
X140171999Y-64108000D01*
X140171999Y-63543817D01*
X140171998Y-63543802D01*
X140161599Y-63411667D01*
X140106622Y-63193480D01*
X140013571Y-62988625D01*
X140013568Y-62988619D01*
X139885440Y-62803676D01*
X139885430Y-62803664D01*
X139726335Y-62644569D01*
X139726323Y-62644559D01*
X139541380Y-62516431D01*
X139541374Y-62516428D01*
X139336519Y-62423377D01*
X139118332Y-62368400D01*
X138986196Y-62358000D01*
X138172000Y-62358000D01*
X138172000Y-63858000D01*
X137672000Y-63858000D01*
X137672000Y-62358000D01*
X136857817Y-62358000D01*
X136857802Y-62358001D01*
X136725667Y-62368400D01*
X136507480Y-62423377D01*
X136302625Y-62516428D01*
X136302619Y-62516431D01*
X136117676Y-62644559D01*
X136117664Y-62644569D01*
X135958569Y-62803664D01*
X135958559Y-62803676D01*
X135830431Y-62988619D01*
X135830428Y-62988625D01*
X135737377Y-63193480D01*
X135682400Y-63411667D01*
X135672000Y-63543803D01*
X55372000Y-63543803D01*
X55372000Y-61084000D01*
X55391685Y-61016961D01*
X55444489Y-60971206D01*
X55496000Y-60960000D01*
X57150000Y-60960000D01*
X57150000Y-59814000D01*
X57169685Y-59746961D01*
X57222489Y-59701206D01*
X57274000Y-59690000D01*
X149736000Y-59690000D01*
X149803039Y-59709685D01*
G37*
G04 #@! TD.AperFunction*
M02*
