G04 #@! TF.GenerationSoftware,KiCad,Pcbnew,7.0.10-7.0.10~ubuntu22.04.1*
G04 #@! TF.CreationDate,2024-05-15T19:40:14+10:00*
G04 #@! TF.ProjectId,AtariHDisk4,41746172-6948-4446-9973-6b342e6b6963,rev?*
G04 #@! TF.SameCoordinates,Original*
G04 #@! TF.FileFunction,Copper,L2,Inr*
G04 #@! TF.FilePolarity,Positive*
%FSLAX46Y46*%
G04 Gerber Fmt 4.6, Leading zero omitted, Abs format (unit mm)*
G04 Created by KiCad (PCBNEW 7.0.10-7.0.10~ubuntu22.04.1) date 2024-05-15 19:40:14*
%MOMM*%
%LPD*%
G01*
G04 APERTURE LIST*
G04 Aperture macros list*
%AMRoundRect*
0 Rectangle with rounded corners*
0 $1 Rounding radius*
0 $2 $3 $4 $5 $6 $7 $8 $9 X,Y pos of 4 corners*
0 Add a 4 corners polygon primitive as box body*
4,1,4,$2,$3,$4,$5,$6,$7,$8,$9,$2,$3,0*
0 Add four circle primitives for the rounded corners*
1,1,$1+$1,$2,$3*
1,1,$1+$1,$4,$5*
1,1,$1+$1,$6,$7*
1,1,$1+$1,$8,$9*
0 Add four rect primitives between the rounded corners*
20,1,$1+$1,$2,$3,$4,$5,0*
20,1,$1+$1,$4,$5,$6,$7,0*
20,1,$1+$1,$6,$7,$8,$9,0*
20,1,$1+$1,$8,$9,$2,$3,0*%
G04 Aperture macros list end*
G04 #@! TA.AperFunction,ComponentPad*
%ADD10R,1.600000X1.600000*%
G04 #@! TD*
G04 #@! TA.AperFunction,ComponentPad*
%ADD11C,1.600000*%
G04 #@! TD*
G04 #@! TA.AperFunction,ComponentPad*
%ADD12R,1.700000X1.700000*%
G04 #@! TD*
G04 #@! TA.AperFunction,ComponentPad*
%ADD13O,1.700000X1.700000*%
G04 #@! TD*
G04 #@! TA.AperFunction,ComponentPad*
%ADD14R,3.500000X3.500000*%
G04 #@! TD*
G04 #@! TA.AperFunction,ComponentPad*
%ADD15RoundRect,0.750000X-1.000000X0.750000X-1.000000X-0.750000X1.000000X-0.750000X1.000000X0.750000X0*%
G04 #@! TD*
G04 #@! TA.AperFunction,ComponentPad*
%ADD16RoundRect,0.875000X-0.875000X0.875000X-0.875000X-0.875000X0.875000X-0.875000X0.875000X0.875000X0*%
G04 #@! TD*
G04 #@! TA.AperFunction,ComponentPad*
%ADD17R,1.800000X1.800000*%
G04 #@! TD*
G04 #@! TA.AperFunction,ComponentPad*
%ADD18C,1.800000*%
G04 #@! TD*
G04 #@! TA.AperFunction,ComponentPad*
%ADD19RoundRect,0.250000X0.600000X-0.600000X0.600000X0.600000X-0.600000X0.600000X-0.600000X-0.600000X0*%
G04 #@! TD*
G04 #@! TA.AperFunction,ComponentPad*
%ADD20C,1.700000*%
G04 #@! TD*
G04 #@! TA.AperFunction,ViaPad*
%ADD21C,0.800000*%
G04 #@! TD*
G04 APERTURE END LIST*
D10*
X146050000Y-71628000D03*
D11*
X148050000Y-71628000D03*
D12*
X58674000Y-86106000D03*
D13*
X58674000Y-83566000D03*
X61214000Y-86106000D03*
X61214000Y-83566000D03*
X63754000Y-86106000D03*
X63754000Y-83566000D03*
X66294000Y-86106000D03*
X66294000Y-83566000D03*
X68834000Y-86106000D03*
X68834000Y-83566000D03*
D14*
X137922000Y-70358000D03*
D15*
X137922000Y-64358000D03*
D16*
X133222000Y-67358000D03*
D17*
X123444000Y-121666000D03*
D18*
X125984000Y-121666000D03*
D12*
X60706000Y-102108000D03*
D13*
X63246000Y-102108000D03*
D17*
X129286000Y-121666000D03*
D18*
X131826000Y-121666000D03*
D12*
X143535400Y-117830600D03*
D13*
X146075400Y-117830600D03*
X143535400Y-120370600D03*
X146075400Y-120370600D03*
X143535400Y-122910600D03*
X146075400Y-122910600D03*
D12*
X63251000Y-125471000D03*
D13*
X60711000Y-125471000D03*
X63251000Y-122931000D03*
X60711000Y-122931000D03*
X63251000Y-120391000D03*
X60711000Y-120391000D03*
X63251000Y-117851000D03*
X60711000Y-117851000D03*
X63251000Y-115311000D03*
X60711000Y-115311000D03*
D19*
X102108000Y-70104000D03*
D20*
X104648000Y-70104000D03*
X107188000Y-70104000D03*
X109728000Y-70104000D03*
X112268000Y-70104000D03*
X114808000Y-70104000D03*
X117348000Y-70104000D03*
X119888000Y-70104000D03*
X122428000Y-70104000D03*
X124968000Y-70104000D03*
X102108000Y-67564000D03*
X104648000Y-67564000D03*
X107188000Y-67564000D03*
X109728000Y-67564000D03*
X112268000Y-67564000D03*
X114808000Y-67564000D03*
X117348000Y-67564000D03*
X119888000Y-67564000D03*
X122428000Y-67564000D03*
X124968000Y-67564000D03*
D21*
X94996000Y-71882000D03*
X141224000Y-93980000D03*
X140208000Y-89154000D03*
X110998000Y-80010000D03*
X93472000Y-91466000D03*
X132080000Y-60452000D03*
X68072000Y-103378000D03*
X143002000Y-97282000D03*
X79248000Y-80010000D03*
X68072000Y-127000000D03*
X150622000Y-99060000D03*
X88392000Y-83820000D03*
X104140000Y-79756000D03*
X133350000Y-70358000D03*
X119888000Y-81788000D03*
X95504000Y-127000000D03*
X93218000Y-104394000D03*
X136296400Y-127965200D03*
X107188000Y-125222000D03*
X114085200Y-72998400D03*
X148590000Y-108204000D03*
X146558000Y-86360000D03*
X93218000Y-105410000D03*
X103937000Y-126522000D03*
X110490000Y-99568000D03*
X149098000Y-60452000D03*
X139192000Y-95758000D03*
X96266000Y-88900000D03*
X147066000Y-79502000D03*
X130048000Y-91186000D03*
X150876000Y-106172000D03*
X130810000Y-86868000D03*
X140970000Y-107188000D03*
X138684000Y-112522000D03*
X136398000Y-91694000D03*
X68072000Y-105410000D03*
X68072000Y-124968000D03*
X93218000Y-103378000D03*
X115570000Y-91694000D03*
X87625631Y-71322369D03*
X104140000Y-124206000D03*
X83820000Y-67818000D03*
X150876000Y-86360000D03*
X139446000Y-128016000D03*
X89395000Y-87363000D03*
X83820000Y-76962000D03*
X96266000Y-86360000D03*
X96520000Y-83743001D03*
X114046000Y-120142000D03*
X136398000Y-100838000D03*
X128270000Y-80010000D03*
X115570000Y-88392000D03*
X111122500Y-112831997D03*
X68072000Y-104394000D03*
X76708000Y-101092000D03*
X139700000Y-117094000D03*
X146304000Y-106172000D03*
X137160000Y-73406000D03*
X137668000Y-82296000D03*
X136652000Y-80010000D03*
X69088000Y-77216000D03*
X150622000Y-75438000D03*
X107239000Y-121950000D03*
X148590000Y-88392000D03*
X103087505Y-99592587D03*
X95504000Y-125984000D03*
X83663000Y-101092000D03*
X96012000Y-80010000D03*
X95504000Y-124968000D03*
X140120800Y-122834400D03*
X68072000Y-125984000D03*
X134874000Y-100838000D03*
X68072000Y-67818000D03*
X142240000Y-87376000D03*
X136398000Y-87630000D03*
X138684000Y-87630000D03*
X86106000Y-72644000D03*
X138684000Y-90424000D03*
X95758000Y-69088000D03*
X81163000Y-101092000D03*
X135382000Y-113284000D03*
X96266000Y-87884000D03*
X109220000Y-99568000D03*
X90932000Y-87376000D03*
X121158000Y-81788000D03*
X77046000Y-80010000D03*
X99822000Y-124460000D03*
X68149000Y-88138000D03*
X115570000Y-92964000D03*
X139700000Y-99822000D03*
X102870000Y-79756000D03*
X87376000Y-81026000D03*
X109474000Y-80010000D03*
X111122500Y-113792000D03*
X102108000Y-99568000D03*
X96266000Y-90460000D03*
X115570000Y-89916000D03*
X137922000Y-97282000D03*
X99060000Y-116332000D03*
X99060000Y-115316000D03*
X112268000Y-118112000D03*
X112268000Y-116332000D03*
X111303630Y-116332000D03*
X111303630Y-118112000D03*
X70866000Y-101092000D03*
X90678000Y-100076000D03*
X103886000Y-118618000D03*
X104602354Y-122947600D03*
X99822000Y-122428000D03*
X106172000Y-119634000D03*
X102616000Y-120650000D03*
X104140000Y-120396000D03*
X98298000Y-123444000D03*
X96520000Y-95758000D03*
X96520000Y-96774000D03*
X96520000Y-93726000D03*
X96520000Y-94742000D03*
X111760000Y-109982000D03*
X112289000Y-79735000D03*
X112014000Y-100584000D03*
X107239000Y-123190000D03*
X69596000Y-101092000D03*
X90678000Y-101092000D03*
X74930000Y-98552000D03*
X86868000Y-97282000D03*
G04 #@! TA.AperFunction,Conductor*
G36*
X62791507Y-120181156D02*
G01*
X62751000Y-120319111D01*
X62751000Y-120462889D01*
X62791507Y-120600844D01*
X62817314Y-120641000D01*
X61144686Y-120641000D01*
X61170493Y-120600844D01*
X61211000Y-120462889D01*
X61211000Y-120319111D01*
X61170493Y-120181156D01*
X61144686Y-120141000D01*
X62817314Y-120141000D01*
X62791507Y-120181156D01*
G37*
G04 #@! TD.AperFunction*
G04 #@! TA.AperFunction,Conductor*
G36*
X149803039Y-59709685D02*
G01*
X149848794Y-59762489D01*
X149860000Y-59814000D01*
X149860000Y-60960000D01*
X151514000Y-60960000D01*
X151581039Y-60979685D01*
X151626794Y-61032489D01*
X151638000Y-61084000D01*
X151638000Y-89792000D01*
X151618315Y-89859039D01*
X151565511Y-89904794D01*
X151514000Y-89916000D01*
X144272000Y-89916000D01*
X144272000Y-98044000D01*
X151514000Y-98044000D01*
X151581039Y-98063685D01*
X151626794Y-98116489D01*
X151638000Y-98168000D01*
X151638000Y-126876000D01*
X151618315Y-126943039D01*
X151565511Y-126988794D01*
X151514000Y-127000000D01*
X149860000Y-127000000D01*
X149860000Y-128146000D01*
X149840315Y-128213039D01*
X149787511Y-128258794D01*
X149736000Y-128270000D01*
X57274000Y-128270000D01*
X57206961Y-128250315D01*
X57161206Y-128197511D01*
X57150000Y-128146000D01*
X57150000Y-127000000D01*
X55496000Y-127000000D01*
X55428961Y-126980315D01*
X55383206Y-126927511D01*
X55372000Y-126876000D01*
X55372000Y-125471000D01*
X59695611Y-125471000D01*
X59715121Y-125669095D01*
X59772903Y-125859574D01*
X59866731Y-126035114D01*
X59866735Y-126035121D01*
X59993011Y-126188988D01*
X60146878Y-126315264D01*
X60146885Y-126315268D01*
X60274770Y-126383624D01*
X60322427Y-126409097D01*
X60512907Y-126466879D01*
X60711000Y-126486389D01*
X60909093Y-126466879D01*
X61099573Y-126409097D01*
X61234816Y-126336808D01*
X62240499Y-126336808D01*
X62249812Y-126383623D01*
X62249813Y-126383624D01*
X62285286Y-126436714D01*
X62330432Y-126466879D01*
X62338376Y-126472187D01*
X62385191Y-126481500D01*
X62385194Y-126481500D01*
X64116808Y-126481500D01*
X64148018Y-126475291D01*
X64163624Y-126472187D01*
X64216714Y-126436714D01*
X64252187Y-126383624D01*
X64261500Y-126336806D01*
X64261500Y-124605194D01*
X64261500Y-124605191D01*
X64252187Y-124558376D01*
X64216714Y-124505286D01*
X64163624Y-124469813D01*
X64163623Y-124469812D01*
X64116808Y-124460500D01*
X64116806Y-124460500D01*
X62385194Y-124460500D01*
X62385192Y-124460500D01*
X62338376Y-124469812D01*
X62285286Y-124505286D01*
X62249812Y-124558376D01*
X62240500Y-124605191D01*
X62240500Y-124605194D01*
X62240500Y-126336806D01*
X62240500Y-126336808D01*
X62240499Y-126336808D01*
X61234816Y-126336808D01*
X61275120Y-126315265D01*
X61428988Y-126188988D01*
X61555265Y-126035120D01*
X61649097Y-125859573D01*
X61706879Y-125669093D01*
X61726389Y-125471000D01*
X61706879Y-125272907D01*
X61649097Y-125082427D01*
X61618582Y-125025337D01*
X61555268Y-124906885D01*
X61555264Y-124906878D01*
X61428988Y-124753011D01*
X61275121Y-124626735D01*
X61275114Y-124626731D01*
X61099574Y-124532903D01*
X60909095Y-124475121D01*
X60755574Y-124460001D01*
X99256663Y-124460001D01*
X99275925Y-124606318D01*
X99275926Y-124606320D01*
X99332403Y-124742668D01*
X99332404Y-124742669D01*
X99422246Y-124859754D01*
X99539331Y-124949596D01*
X99675680Y-125006074D01*
X99748840Y-125015705D01*
X99821999Y-125025337D01*
X99822000Y-125025337D01*
X99822001Y-125025337D01*
X99870773Y-125018916D01*
X99968320Y-125006074D01*
X100104669Y-124949596D01*
X100221754Y-124859754D01*
X100311596Y-124742669D01*
X100368074Y-124606320D01*
X100387337Y-124460000D01*
X100368074Y-124313680D01*
X100311596Y-124177332D01*
X100311596Y-124177331D01*
X100221756Y-124060247D01*
X100104668Y-123970403D01*
X99968320Y-123913926D01*
X99968318Y-123913925D01*
X99822001Y-123894663D01*
X99821999Y-123894663D01*
X99675681Y-123913925D01*
X99675679Y-123913926D01*
X99539332Y-123970403D01*
X99422246Y-124060246D01*
X99332403Y-124177332D01*
X99275926Y-124313679D01*
X99275925Y-124313681D01*
X99256663Y-124459998D01*
X99256663Y-124460001D01*
X60755574Y-124460001D01*
X60711000Y-124455611D01*
X60512904Y-124475121D01*
X60322425Y-124532903D01*
X60146885Y-124626731D01*
X60146878Y-124626735D01*
X59993011Y-124753011D01*
X59866735Y-124906878D01*
X59866731Y-124906885D01*
X59772903Y-125082425D01*
X59715121Y-125272904D01*
X59695611Y-125471000D01*
X55372000Y-125471000D01*
X55372000Y-120641000D01*
X59380364Y-120641000D01*
X59437567Y-120854486D01*
X59437570Y-120854492D01*
X59537399Y-121068578D01*
X59672894Y-121262082D01*
X59839917Y-121429105D01*
X60033421Y-121564600D01*
X60247507Y-121664429D01*
X60247516Y-121664433D01*
X60442816Y-121716763D01*
X60502477Y-121753128D01*
X60533006Y-121815975D01*
X60524711Y-121885350D01*
X60480226Y-121939228D01*
X60446719Y-121955198D01*
X60322425Y-121992903D01*
X60146885Y-122086731D01*
X60146878Y-122086735D01*
X59993011Y-122213011D01*
X59866735Y-122366878D01*
X59866731Y-122366885D01*
X59772903Y-122542425D01*
X59715121Y-122732904D01*
X59695611Y-122931000D01*
X59715121Y-123129095D01*
X59772903Y-123319574D01*
X59866731Y-123495114D01*
X59866735Y-123495121D01*
X59993011Y-123648988D01*
X60146878Y-123775264D01*
X60146885Y-123775268D01*
X60284259Y-123848696D01*
X60322427Y-123869097D01*
X60512907Y-123926879D01*
X60711000Y-123946389D01*
X60909093Y-123926879D01*
X61099573Y-123869097D01*
X61275120Y-123775265D01*
X61428988Y-123648988D01*
X61555265Y-123495120D01*
X61649097Y-123319573D01*
X61706879Y-123129093D01*
X61726389Y-122931000D01*
X61706879Y-122732907D01*
X61649097Y-122542427D01*
X61603972Y-122458004D01*
X61555268Y-122366885D01*
X61555264Y-122366878D01*
X61428988Y-122213011D01*
X61275121Y-122086735D01*
X61275114Y-122086731D01*
X61099574Y-121992903D01*
X60975280Y-121955198D01*
X60916842Y-121916901D01*
X60888385Y-121853088D01*
X60898946Y-121784021D01*
X60945171Y-121731628D01*
X60979183Y-121716763D01*
X61174483Y-121664433D01*
X61174492Y-121664429D01*
X61388578Y-121564600D01*
X61582082Y-121429105D01*
X61749105Y-121262082D01*
X61879425Y-121075968D01*
X61934002Y-121032344D01*
X62003501Y-121025151D01*
X62065855Y-121056673D01*
X62082575Y-121075968D01*
X62212894Y-121262082D01*
X62379917Y-121429105D01*
X62573421Y-121564600D01*
X62787507Y-121664429D01*
X62787516Y-121664433D01*
X62982816Y-121716763D01*
X63042477Y-121753128D01*
X63073006Y-121815975D01*
X63064711Y-121885350D01*
X63020226Y-121939228D01*
X62986719Y-121955198D01*
X62862425Y-121992903D01*
X62686885Y-122086731D01*
X62686878Y-122086735D01*
X62533011Y-122213011D01*
X62406735Y-122366878D01*
X62406731Y-122366885D01*
X62312903Y-122542425D01*
X62255121Y-122732904D01*
X62235611Y-122931000D01*
X62255121Y-123129095D01*
X62312903Y-123319574D01*
X62406731Y-123495114D01*
X62406735Y-123495121D01*
X62533011Y-123648988D01*
X62686878Y-123775264D01*
X62686885Y-123775268D01*
X62824259Y-123848696D01*
X62862427Y-123869097D01*
X63052907Y-123926879D01*
X63251000Y-123946389D01*
X63449093Y-123926879D01*
X63639573Y-123869097D01*
X63815120Y-123775265D01*
X63968988Y-123648988D01*
X64095265Y-123495120D01*
X64122589Y-123444001D01*
X97732663Y-123444001D01*
X97751925Y-123590318D01*
X97751926Y-123590320D01*
X97808403Y-123726668D01*
X97808404Y-123726669D01*
X97898246Y-123843754D01*
X98015331Y-123933596D01*
X98151680Y-123990074D01*
X98224840Y-123999705D01*
X98297999Y-124009337D01*
X98298000Y-124009337D01*
X98298001Y-124009337D01*
X98346773Y-124002916D01*
X98444320Y-123990074D01*
X98580669Y-123933596D01*
X98697754Y-123843754D01*
X98787596Y-123726669D01*
X98844074Y-123590320D01*
X98863337Y-123444000D01*
X98844074Y-123297680D01*
X98794824Y-123178782D01*
X98787596Y-123161331D01*
X98697756Y-123044247D01*
X98580668Y-122954403D01*
X98444320Y-122897926D01*
X98444318Y-122897925D01*
X98298001Y-122878663D01*
X98297999Y-122878663D01*
X98151681Y-122897925D01*
X98151679Y-122897926D01*
X98015332Y-122954403D01*
X97898246Y-123044246D01*
X97808403Y-123161332D01*
X97751926Y-123297679D01*
X97751925Y-123297681D01*
X97732663Y-123443998D01*
X97732663Y-123444001D01*
X64122589Y-123444001D01*
X64189097Y-123319573D01*
X64246879Y-123129093D01*
X64266389Y-122931000D01*
X64246879Y-122732907D01*
X64189097Y-122542427D01*
X64143972Y-122458004D01*
X64127935Y-122428001D01*
X99256663Y-122428001D01*
X99275925Y-122574318D01*
X99275926Y-122574320D01*
X99332403Y-122710668D01*
X99332404Y-122710669D01*
X99422246Y-122827754D01*
X99539331Y-122917596D01*
X99675680Y-122974074D01*
X99739600Y-122982489D01*
X99821999Y-122993337D01*
X99822000Y-122993337D01*
X99822001Y-122993337D01*
X99904400Y-122982489D01*
X99968320Y-122974074D01*
X100032231Y-122947601D01*
X104037017Y-122947601D01*
X104056279Y-123093918D01*
X104056280Y-123093920D01*
X104112757Y-123230268D01*
X104133661Y-123257511D01*
X104202600Y-123347354D01*
X104319685Y-123437196D01*
X104456034Y-123493674D01*
X104529194Y-123503305D01*
X104602353Y-123512937D01*
X104602354Y-123512937D01*
X104602355Y-123512937D01*
X104651127Y-123506516D01*
X104748674Y-123493674D01*
X104885023Y-123437196D01*
X105002108Y-123347354D01*
X105091950Y-123230269D01*
X105108630Y-123190000D01*
X106673663Y-123190000D01*
X106692925Y-123336318D01*
X106692926Y-123336320D01*
X106749403Y-123472668D01*
X106765521Y-123493673D01*
X106839246Y-123589754D01*
X106956331Y-123679596D01*
X107092680Y-123736074D01*
X107165840Y-123745705D01*
X107238999Y-123755337D01*
X107239000Y-123755337D01*
X107239001Y-123755337D01*
X107287773Y-123748916D01*
X107385320Y-123736074D01*
X107521669Y-123679596D01*
X107638754Y-123589754D01*
X107728596Y-123472669D01*
X107785074Y-123336320D01*
X107804337Y-123190000D01*
X107800466Y-123160600D01*
X107785149Y-123044247D01*
X107785074Y-123043680D01*
X107735165Y-122923190D01*
X107728596Y-122907331D01*
X107638756Y-122790247D01*
X107521668Y-122700403D01*
X107385320Y-122643926D01*
X107385318Y-122643925D01*
X107239001Y-122624663D01*
X107238999Y-122624663D01*
X107092681Y-122643925D01*
X107092679Y-122643926D01*
X106956332Y-122700403D01*
X106839246Y-122790246D01*
X106749403Y-122907332D01*
X106692926Y-123043679D01*
X106692925Y-123043681D01*
X106673663Y-123189998D01*
X106673663Y-123190000D01*
X105108630Y-123190000D01*
X105148428Y-123093920D01*
X105167691Y-122947600D01*
X105164477Y-122923190D01*
X105148428Y-122801281D01*
X105148428Y-122801280D01*
X105113750Y-122717561D01*
X105091950Y-122664931D01*
X105052750Y-122613844D01*
X122044000Y-122613844D01*
X122050401Y-122673372D01*
X122050403Y-122673379D01*
X122100645Y-122808086D01*
X122100649Y-122808093D01*
X122186809Y-122923187D01*
X122186812Y-122923190D01*
X122301906Y-123009350D01*
X122301913Y-123009354D01*
X122436620Y-123059596D01*
X122436627Y-123059598D01*
X122496155Y-123065999D01*
X122496172Y-123066000D01*
X123194000Y-123066000D01*
X123194000Y-122040189D01*
X123246547Y-122076016D01*
X123376173Y-122116000D01*
X123477724Y-122116000D01*
X123578138Y-122100865D01*
X123694000Y-122045068D01*
X123694000Y-123066000D01*
X124391828Y-123066000D01*
X124391844Y-123065999D01*
X124451372Y-123059598D01*
X124451379Y-123059596D01*
X124586086Y-123009354D01*
X124586093Y-123009350D01*
X124701187Y-122923190D01*
X124701190Y-122923187D01*
X124787350Y-122808093D01*
X124787354Y-122808086D01*
X124837596Y-122673379D01*
X124837598Y-122673372D01*
X124843999Y-122613844D01*
X124844000Y-122613827D01*
X124844000Y-122277943D01*
X124863685Y-122210904D01*
X124916489Y-122165149D01*
X124985647Y-122155205D01*
X125049203Y-122184230D01*
X125077359Y-122219491D01*
X125097958Y-122258031D01*
X125097960Y-122258034D01*
X125230484Y-122419515D01*
X125391965Y-122552039D01*
X125391972Y-122552043D01*
X125576193Y-122650511D01*
X125576194Y-122650511D01*
X125576201Y-122650515D01*
X125776106Y-122711155D01*
X125776105Y-122711155D01*
X125789802Y-122712504D01*
X125984000Y-122731631D01*
X126191894Y-122711155D01*
X126391799Y-122650515D01*
X126460406Y-122613844D01*
X127886000Y-122613844D01*
X127892401Y-122673372D01*
X127892403Y-122673379D01*
X127942645Y-122808086D01*
X127942649Y-122808093D01*
X128028809Y-122923187D01*
X128028812Y-122923190D01*
X128143906Y-123009350D01*
X128143913Y-123009354D01*
X128278620Y-123059596D01*
X128278627Y-123059598D01*
X128338155Y-123065999D01*
X128338172Y-123066000D01*
X129036000Y-123066000D01*
X129036000Y-122040189D01*
X129088547Y-122076016D01*
X129218173Y-122116000D01*
X129319724Y-122116000D01*
X129420138Y-122100865D01*
X129536000Y-122045068D01*
X129536000Y-123066000D01*
X130233828Y-123066000D01*
X130233844Y-123065999D01*
X130293372Y-123059598D01*
X130293379Y-123059596D01*
X130428086Y-123009354D01*
X130428093Y-123009350D01*
X130543187Y-122923190D01*
X130543190Y-122923187D01*
X130552613Y-122910600D01*
X142520011Y-122910600D01*
X142539521Y-123108695D01*
X142597303Y-123299174D01*
X142691131Y-123474714D01*
X142691135Y-123474721D01*
X142817411Y-123628588D01*
X142971278Y-123754864D01*
X142971285Y-123754868D01*
X143009451Y-123775268D01*
X143146827Y-123848697D01*
X143337307Y-123906479D01*
X143535400Y-123925989D01*
X143733493Y-123906479D01*
X143923973Y-123848697D01*
X144099520Y-123754865D01*
X144253388Y-123628588D01*
X144379665Y-123474720D01*
X144447744Y-123347353D01*
X144473495Y-123299177D01*
X144473496Y-123299174D01*
X144473497Y-123299173D01*
X144511201Y-123174878D01*
X144549498Y-123116442D01*
X144613310Y-123087986D01*
X144682377Y-123098546D01*
X144734771Y-123144770D01*
X144749636Y-123178782D01*
X144801967Y-123374086D01*
X144801970Y-123374092D01*
X144901799Y-123588178D01*
X145037294Y-123781682D01*
X145204317Y-123948705D01*
X145397821Y-124084200D01*
X145611907Y-124184029D01*
X145611916Y-124184033D01*
X145825400Y-124241234D01*
X145825400Y-123346101D01*
X145933085Y-123395280D01*
X146039637Y-123410600D01*
X146111163Y-123410600D01*
X146217715Y-123395280D01*
X146325400Y-123346101D01*
X146325400Y-124241233D01*
X146538883Y-124184033D01*
X146538892Y-124184029D01*
X146752978Y-124084200D01*
X146946482Y-123948705D01*
X147113505Y-123781682D01*
X147249000Y-123588178D01*
X147348829Y-123374092D01*
X147348832Y-123374086D01*
X147406036Y-123160600D01*
X146509086Y-123160600D01*
X146534893Y-123120444D01*
X146575400Y-122982489D01*
X146575400Y-122838711D01*
X146534893Y-122700756D01*
X146509086Y-122660600D01*
X147406036Y-122660600D01*
X147406035Y-122660599D01*
X147348832Y-122447113D01*
X147348829Y-122447107D01*
X147249000Y-122233022D01*
X147248999Y-122233020D01*
X147113513Y-122039526D01*
X147113508Y-122039520D01*
X146946482Y-121872494D01*
X146752978Y-121736999D01*
X146538892Y-121637170D01*
X146538886Y-121637167D01*
X146343582Y-121584836D01*
X146283922Y-121548471D01*
X146253393Y-121485624D01*
X146261688Y-121416248D01*
X146306173Y-121362370D01*
X146339675Y-121346402D01*
X146463973Y-121308697D01*
X146639520Y-121214865D01*
X146793388Y-121088588D01*
X146919665Y-120934720D01*
X147013497Y-120759173D01*
X147071279Y-120568693D01*
X147090789Y-120370600D01*
X147071279Y-120172507D01*
X147013497Y-119982027D01*
X146984359Y-119927513D01*
X146919668Y-119806485D01*
X146919664Y-119806478D01*
X146793388Y-119652611D01*
X146639521Y-119526335D01*
X146639514Y-119526331D01*
X146463974Y-119432503D01*
X146273495Y-119374721D01*
X146075400Y-119355211D01*
X145877304Y-119374721D01*
X145686825Y-119432503D01*
X145511285Y-119526331D01*
X145511278Y-119526335D01*
X145357411Y-119652611D01*
X145231135Y-119806478D01*
X145231131Y-119806485D01*
X145137303Y-119982025D01*
X145079521Y-120172504D01*
X145060011Y-120370600D01*
X145079521Y-120568695D01*
X145137303Y-120759174D01*
X145231131Y-120934714D01*
X145231135Y-120934721D01*
X145357411Y-121088588D01*
X145511278Y-121214864D01*
X145511285Y-121214868D01*
X145686822Y-121308695D01*
X145686824Y-121308695D01*
X145686827Y-121308697D01*
X145811119Y-121346401D01*
X145869557Y-121384698D01*
X145898013Y-121448510D01*
X145887453Y-121517577D01*
X145841229Y-121569971D01*
X145807217Y-121584836D01*
X145611913Y-121637167D01*
X145611907Y-121637170D01*
X145397822Y-121736999D01*
X145397820Y-121737000D01*
X145204326Y-121872486D01*
X145204320Y-121872491D01*
X145037291Y-122039520D01*
X145037286Y-122039526D01*
X144901800Y-122233020D01*
X144901799Y-122233022D01*
X144801970Y-122447107D01*
X144801967Y-122447113D01*
X144749636Y-122642417D01*
X144713271Y-122702077D01*
X144650424Y-122732606D01*
X144581048Y-122724311D01*
X144527170Y-122679826D01*
X144511201Y-122646321D01*
X144473497Y-122522027D01*
X144473495Y-122522024D01*
X144473495Y-122522022D01*
X144379668Y-122346485D01*
X144379664Y-122346478D01*
X144253388Y-122192611D01*
X144099521Y-122066335D01*
X144099514Y-122066331D01*
X143923974Y-121972503D01*
X143733495Y-121914721D01*
X143535400Y-121895211D01*
X143337304Y-121914721D01*
X143146825Y-121972503D01*
X142971285Y-122066331D01*
X142971278Y-122066335D01*
X142817411Y-122192611D01*
X142691135Y-122346478D01*
X142691131Y-122346485D01*
X142597303Y-122522025D01*
X142539521Y-122712504D01*
X142520011Y-122910600D01*
X130552613Y-122910600D01*
X130629350Y-122808093D01*
X130629354Y-122808086D01*
X130679596Y-122673379D01*
X130679598Y-122673372D01*
X130685999Y-122613844D01*
X130686000Y-122613827D01*
X130686000Y-122277943D01*
X130705685Y-122210904D01*
X130758489Y-122165149D01*
X130827647Y-122155205D01*
X130891203Y-122184230D01*
X130919359Y-122219491D01*
X130939958Y-122258031D01*
X130939960Y-122258034D01*
X131072484Y-122419515D01*
X131233965Y-122552039D01*
X131233972Y-122552043D01*
X131418193Y-122650511D01*
X131418194Y-122650511D01*
X131418201Y-122650515D01*
X131618106Y-122711155D01*
X131618105Y-122711155D01*
X131631802Y-122712504D01*
X131826000Y-122731631D01*
X132033894Y-122711155D01*
X132233799Y-122650515D01*
X132418033Y-122552040D01*
X132579515Y-122419515D01*
X132712040Y-122258033D01*
X132810515Y-122073799D01*
X132871155Y-121873894D01*
X132891631Y-121666000D01*
X132871155Y-121458106D01*
X132810515Y-121258201D01*
X132787353Y-121214868D01*
X132712043Y-121073972D01*
X132712039Y-121073965D01*
X132579515Y-120912484D01*
X132418034Y-120779960D01*
X132418027Y-120779956D01*
X132233806Y-120681488D01*
X132233803Y-120681487D01*
X132233802Y-120681486D01*
X132233799Y-120681485D01*
X132033894Y-120620845D01*
X132033892Y-120620844D01*
X132033894Y-120620844D01*
X131826000Y-120600369D01*
X131618107Y-120620844D01*
X131500075Y-120656648D01*
X131418201Y-120681485D01*
X131418198Y-120681486D01*
X131418196Y-120681487D01*
X131418193Y-120681488D01*
X131233972Y-120779956D01*
X131233965Y-120779960D01*
X131072484Y-120912484D01*
X130939960Y-121073965D01*
X130939956Y-121073972D01*
X130919358Y-121112509D01*
X130870396Y-121162353D01*
X130802258Y-121177814D01*
X130736579Y-121153982D01*
X130694210Y-121098425D01*
X130686000Y-121054056D01*
X130686000Y-120718172D01*
X130685999Y-120718155D01*
X130679598Y-120658627D01*
X130679596Y-120658620D01*
X130629354Y-120523913D01*
X130629350Y-120523906D01*
X130543190Y-120408812D01*
X130543187Y-120408809D01*
X130428093Y-120322649D01*
X130428086Y-120322645D01*
X130293379Y-120272403D01*
X130293372Y-120272401D01*
X130233844Y-120266000D01*
X129536000Y-120266000D01*
X129536000Y-121291810D01*
X129483453Y-121255984D01*
X129353827Y-121216000D01*
X129252276Y-121216000D01*
X129151862Y-121231135D01*
X129036000Y-121286931D01*
X129036000Y-120266000D01*
X128338155Y-120266000D01*
X128278627Y-120272401D01*
X128278620Y-120272403D01*
X128143913Y-120322645D01*
X128143906Y-120322649D01*
X128028812Y-120408809D01*
X128028809Y-120408812D01*
X127942649Y-120523906D01*
X127942645Y-120523913D01*
X127892403Y-120658620D01*
X127892401Y-120658627D01*
X127886000Y-120718155D01*
X127886000Y-121416000D01*
X128910722Y-121416000D01*
X128862375Y-121499740D01*
X128832190Y-121631992D01*
X128842327Y-121767265D01*
X128891887Y-121893541D01*
X128909797Y-121916000D01*
X127886000Y-121916000D01*
X127886000Y-122613844D01*
X126460406Y-122613844D01*
X126576033Y-122552040D01*
X126737515Y-122419515D01*
X126870040Y-122258033D01*
X126968515Y-122073799D01*
X127029155Y-121873894D01*
X127049631Y-121666000D01*
X127029155Y-121458106D01*
X126968515Y-121258201D01*
X126945353Y-121214868D01*
X126870043Y-121073972D01*
X126870039Y-121073965D01*
X126737515Y-120912484D01*
X126576034Y-120779960D01*
X126576027Y-120779956D01*
X126391806Y-120681488D01*
X126391803Y-120681487D01*
X126391802Y-120681486D01*
X126391799Y-120681485D01*
X126191894Y-120620845D01*
X126191892Y-120620844D01*
X126191894Y-120620844D01*
X125984000Y-120600369D01*
X125776107Y-120620844D01*
X125658075Y-120656648D01*
X125576201Y-120681485D01*
X125576198Y-120681486D01*
X125576196Y-120681487D01*
X125576193Y-120681488D01*
X125391972Y-120779956D01*
X125391965Y-120779960D01*
X125230484Y-120912484D01*
X125097960Y-121073965D01*
X125097956Y-121073972D01*
X125077358Y-121112509D01*
X125028396Y-121162353D01*
X124960258Y-121177814D01*
X124894579Y-121153982D01*
X124852210Y-121098425D01*
X124844000Y-121054056D01*
X124844000Y-120718172D01*
X124843999Y-120718155D01*
X124837598Y-120658627D01*
X124837596Y-120658620D01*
X124787354Y-120523913D01*
X124787350Y-120523906D01*
X124701190Y-120408812D01*
X124701187Y-120408809D01*
X124586093Y-120322649D01*
X124586086Y-120322645D01*
X124451379Y-120272403D01*
X124451372Y-120272401D01*
X124391844Y-120266000D01*
X123694000Y-120266000D01*
X123694000Y-121291810D01*
X123641453Y-121255984D01*
X123511827Y-121216000D01*
X123410276Y-121216000D01*
X123309862Y-121231135D01*
X123194000Y-121286931D01*
X123194000Y-120266000D01*
X122496155Y-120266000D01*
X122436627Y-120272401D01*
X122436620Y-120272403D01*
X122301913Y-120322645D01*
X122301906Y-120322649D01*
X122186812Y-120408809D01*
X122186809Y-120408812D01*
X122100649Y-120523906D01*
X122100645Y-120523913D01*
X122050403Y-120658620D01*
X122050401Y-120658627D01*
X122044000Y-120718155D01*
X122044000Y-121416000D01*
X123068722Y-121416000D01*
X123020375Y-121499740D01*
X122990190Y-121631992D01*
X123000327Y-121767265D01*
X123049887Y-121893541D01*
X123067797Y-121916000D01*
X122044000Y-121916000D01*
X122044000Y-122613844D01*
X105052750Y-122613844D01*
X105002110Y-122547847D01*
X104885022Y-122458003D01*
X104748674Y-122401526D01*
X104748672Y-122401525D01*
X104602355Y-122382263D01*
X104602353Y-122382263D01*
X104456035Y-122401525D01*
X104456033Y-122401526D01*
X104319686Y-122458003D01*
X104202600Y-122547846D01*
X104112757Y-122664932D01*
X104056280Y-122801279D01*
X104056279Y-122801281D01*
X104037017Y-122947598D01*
X104037017Y-122947601D01*
X100032231Y-122947601D01*
X100104669Y-122917596D01*
X100221754Y-122827754D01*
X100311596Y-122710669D01*
X100368074Y-122574320D01*
X100387337Y-122428000D01*
X100385046Y-122410600D01*
X100368074Y-122281681D01*
X100368074Y-122281680D01*
X100311596Y-122145332D01*
X100311596Y-122145331D01*
X100221756Y-122028247D01*
X100104668Y-121938403D01*
X99968320Y-121881926D01*
X99968318Y-121881925D01*
X99822001Y-121862663D01*
X99821999Y-121862663D01*
X99675681Y-121881925D01*
X99675679Y-121881926D01*
X99539332Y-121938403D01*
X99422246Y-122028246D01*
X99332403Y-122145332D01*
X99275926Y-122281679D01*
X99275925Y-122281681D01*
X99256663Y-122427998D01*
X99256663Y-122428001D01*
X64127935Y-122428001D01*
X64095268Y-122366885D01*
X64095264Y-122366878D01*
X63968988Y-122213011D01*
X63815121Y-122086735D01*
X63815114Y-122086731D01*
X63639574Y-121992903D01*
X63515280Y-121955198D01*
X63456842Y-121916901D01*
X63428385Y-121853088D01*
X63438946Y-121784021D01*
X63485171Y-121731628D01*
X63519183Y-121716763D01*
X63714483Y-121664433D01*
X63714492Y-121664429D01*
X63928578Y-121564600D01*
X64122082Y-121429105D01*
X64289105Y-121262082D01*
X64424600Y-121068578D01*
X64524429Y-120854492D01*
X64524432Y-120854486D01*
X64579224Y-120650001D01*
X102050663Y-120650001D01*
X102069925Y-120796318D01*
X102069926Y-120796320D01*
X102126403Y-120932668D01*
X102133620Y-120942073D01*
X102216246Y-121049754D01*
X102333331Y-121139596D01*
X102469680Y-121196074D01*
X102542840Y-121205705D01*
X102615999Y-121215337D01*
X102616000Y-121215337D01*
X102616001Y-121215337D01*
X102664773Y-121208916D01*
X102762320Y-121196074D01*
X102898669Y-121139596D01*
X103015754Y-121049754D01*
X103105596Y-120932669D01*
X103162074Y-120796320D01*
X103181337Y-120650000D01*
X103162074Y-120503680D01*
X103117471Y-120396001D01*
X103574663Y-120396001D01*
X103593925Y-120542318D01*
X103593926Y-120542320D01*
X103650403Y-120678668D01*
X103650404Y-120678669D01*
X103740246Y-120795754D01*
X103857331Y-120885596D01*
X103993680Y-120942074D01*
X104066840Y-120951705D01*
X104139999Y-120961337D01*
X104140000Y-120961337D01*
X104140001Y-120961337D01*
X104188773Y-120954916D01*
X104286320Y-120942074D01*
X104422669Y-120885596D01*
X104539754Y-120795754D01*
X104629596Y-120678669D01*
X104686074Y-120542320D01*
X104705337Y-120396000D01*
X104686074Y-120249680D01*
X104629596Y-120113332D01*
X104629596Y-120113331D01*
X104539756Y-119996247D01*
X104422668Y-119906403D01*
X104286320Y-119849926D01*
X104286318Y-119849925D01*
X104140001Y-119830663D01*
X104139999Y-119830663D01*
X103993681Y-119849925D01*
X103993679Y-119849926D01*
X103857332Y-119906403D01*
X103740246Y-119996246D01*
X103650403Y-120113332D01*
X103593926Y-120249679D01*
X103593925Y-120249681D01*
X103574663Y-120395998D01*
X103574663Y-120396001D01*
X103117471Y-120396001D01*
X103105596Y-120367332D01*
X103105596Y-120367331D01*
X103015756Y-120250247D01*
X102898668Y-120160403D01*
X102762320Y-120103926D01*
X102762318Y-120103925D01*
X102616001Y-120084663D01*
X102615999Y-120084663D01*
X102469681Y-120103925D01*
X102469679Y-120103926D01*
X102333332Y-120160403D01*
X102216246Y-120250246D01*
X102126403Y-120367332D01*
X102069926Y-120503679D01*
X102069925Y-120503681D01*
X102050663Y-120649998D01*
X102050663Y-120650001D01*
X64579224Y-120650001D01*
X64581636Y-120641000D01*
X63684686Y-120641000D01*
X63710493Y-120600844D01*
X63751000Y-120462889D01*
X63751000Y-120319111D01*
X63710493Y-120181156D01*
X63684686Y-120141000D01*
X64581636Y-120141000D01*
X64581635Y-120140999D01*
X64524432Y-119927513D01*
X64524429Y-119927507D01*
X64424600Y-119713422D01*
X64424599Y-119713420D01*
X64368989Y-119634001D01*
X105606663Y-119634001D01*
X105625925Y-119780318D01*
X105625926Y-119780320D01*
X105682403Y-119916668D01*
X105682404Y-119916669D01*
X105772246Y-120033754D01*
X105889331Y-120123596D01*
X106025680Y-120180074D01*
X106098840Y-120189705D01*
X106171999Y-120199337D01*
X106172000Y-120199337D01*
X106172001Y-120199337D01*
X106220773Y-120192916D01*
X106318320Y-120180074D01*
X106454669Y-120123596D01*
X106571754Y-120033754D01*
X106661596Y-119916669D01*
X106718074Y-119780320D01*
X106737337Y-119634000D01*
X106718074Y-119487680D01*
X106661596Y-119351332D01*
X106661596Y-119351331D01*
X106571756Y-119234247D01*
X106454668Y-119144403D01*
X106318320Y-119087926D01*
X106318318Y-119087925D01*
X106172001Y-119068663D01*
X106171999Y-119068663D01*
X106025681Y-119087925D01*
X106025679Y-119087926D01*
X105889332Y-119144403D01*
X105772246Y-119234246D01*
X105682403Y-119351332D01*
X105625926Y-119487679D01*
X105625925Y-119487681D01*
X105606663Y-119633998D01*
X105606663Y-119634001D01*
X64368989Y-119634001D01*
X64289113Y-119519926D01*
X64289108Y-119519920D01*
X64122082Y-119352894D01*
X63928578Y-119217399D01*
X63714492Y-119117570D01*
X63714486Y-119117567D01*
X63519182Y-119065236D01*
X63459522Y-119028871D01*
X63428993Y-118966024D01*
X63437288Y-118896648D01*
X63481773Y-118842770D01*
X63515275Y-118826802D01*
X63639573Y-118789097D01*
X63685928Y-118764320D01*
X63709791Y-118751564D01*
X63815120Y-118695265D01*
X63909266Y-118618001D01*
X103320663Y-118618001D01*
X103339925Y-118764318D01*
X103339926Y-118764320D01*
X103396403Y-118900668D01*
X103417307Y-118927911D01*
X103486246Y-119017754D01*
X103603331Y-119107596D01*
X103739680Y-119164074D01*
X103812840Y-119173705D01*
X103885999Y-119183337D01*
X103886000Y-119183337D01*
X103886001Y-119183337D01*
X103955434Y-119174196D01*
X104032320Y-119164074D01*
X104168669Y-119107596D01*
X104285754Y-119017754D01*
X104375596Y-118900669D01*
X104432074Y-118764320D01*
X104436797Y-118728444D01*
X142185400Y-118728444D01*
X142191801Y-118787972D01*
X142191803Y-118787979D01*
X142242045Y-118922686D01*
X142242049Y-118922693D01*
X142328209Y-119037787D01*
X142328212Y-119037790D01*
X142443306Y-119123950D01*
X142443313Y-119123954D01*
X142578020Y-119174196D01*
X142578027Y-119174198D01*
X142637555Y-119180599D01*
X142637572Y-119180600D01*
X143141300Y-119180600D01*
X143208339Y-119200285D01*
X143254094Y-119253089D01*
X143264038Y-119322247D01*
X143235013Y-119385803D01*
X143177296Y-119423260D01*
X143146825Y-119432503D01*
X142971285Y-119526331D01*
X142971278Y-119526335D01*
X142817411Y-119652611D01*
X142691135Y-119806478D01*
X142691131Y-119806485D01*
X142597303Y-119982025D01*
X142539521Y-120172504D01*
X142520011Y-120370600D01*
X142539521Y-120568695D01*
X142597303Y-120759174D01*
X142691131Y-120934714D01*
X142691135Y-120934721D01*
X142817411Y-121088588D01*
X142971278Y-121214864D01*
X142971285Y-121214868D01*
X143111834Y-121289993D01*
X143146827Y-121308697D01*
X143337307Y-121366479D01*
X143535400Y-121385989D01*
X143733493Y-121366479D01*
X143923973Y-121308697D01*
X144099520Y-121214865D01*
X144253388Y-121088588D01*
X144379665Y-120934720D01*
X144473497Y-120759173D01*
X144531279Y-120568693D01*
X144550789Y-120370600D01*
X144531279Y-120172507D01*
X144473497Y-119982027D01*
X144444359Y-119927513D01*
X144379668Y-119806485D01*
X144379664Y-119806478D01*
X144253388Y-119652611D01*
X144099521Y-119526335D01*
X144099514Y-119526331D01*
X143923974Y-119432503D01*
X143893504Y-119423260D01*
X143835066Y-119384963D01*
X143806609Y-119321151D01*
X143817170Y-119252084D01*
X143863395Y-119199690D01*
X143929500Y-119180600D01*
X144433228Y-119180600D01*
X144433244Y-119180599D01*
X144492772Y-119174198D01*
X144492779Y-119174196D01*
X144627486Y-119123954D01*
X144627493Y-119123950D01*
X144742587Y-119037790D01*
X144742590Y-119037787D01*
X144828750Y-118922693D01*
X144828754Y-118922686D01*
X144878996Y-118787979D01*
X144878998Y-118787972D01*
X144885399Y-118728444D01*
X144885400Y-118728427D01*
X144885400Y-118224700D01*
X144905085Y-118157661D01*
X144957889Y-118111906D01*
X145027047Y-118101962D01*
X145090603Y-118130987D01*
X145128060Y-118188704D01*
X145137303Y-118219174D01*
X145231131Y-118394714D01*
X145231135Y-118394721D01*
X145357411Y-118548588D01*
X145511278Y-118674864D01*
X145511285Y-118674868D01*
X145549451Y-118695268D01*
X145686827Y-118768697D01*
X145877307Y-118826479D01*
X146075400Y-118845989D01*
X146273493Y-118826479D01*
X146463973Y-118768697D01*
X146639520Y-118674865D01*
X146793388Y-118548588D01*
X146919665Y-118394720D01*
X147013497Y-118219173D01*
X147071279Y-118028693D01*
X147090789Y-117830600D01*
X147071279Y-117632507D01*
X147013497Y-117442027D01*
X146919665Y-117266480D01*
X146919664Y-117266478D01*
X146793388Y-117112611D01*
X146639521Y-116986335D01*
X146639514Y-116986331D01*
X146463974Y-116892503D01*
X146273495Y-116834721D01*
X146075400Y-116815211D01*
X145877304Y-116834721D01*
X145686825Y-116892503D01*
X145511285Y-116986331D01*
X145511278Y-116986335D01*
X145357411Y-117112611D01*
X145231135Y-117266478D01*
X145231131Y-117266485D01*
X145137303Y-117442024D01*
X145128060Y-117472496D01*
X145089762Y-117530934D01*
X145025950Y-117559390D01*
X144956883Y-117548829D01*
X144904490Y-117502604D01*
X144885400Y-117436499D01*
X144885400Y-116932772D01*
X144885399Y-116932755D01*
X144878998Y-116873227D01*
X144878996Y-116873220D01*
X144828754Y-116738513D01*
X144828750Y-116738506D01*
X144742590Y-116623412D01*
X144742587Y-116623409D01*
X144627493Y-116537249D01*
X144627486Y-116537245D01*
X144492779Y-116487003D01*
X144492772Y-116487001D01*
X144433244Y-116480600D01*
X143785400Y-116480600D01*
X143785400Y-117395098D01*
X143677715Y-117345920D01*
X143571163Y-117330600D01*
X143499637Y-117330600D01*
X143393085Y-117345920D01*
X143285400Y-117395098D01*
X143285400Y-116480600D01*
X142637555Y-116480600D01*
X142578027Y-116487001D01*
X142578020Y-116487003D01*
X142443313Y-116537245D01*
X142443306Y-116537249D01*
X142328212Y-116623409D01*
X142328209Y-116623412D01*
X142242049Y-116738506D01*
X142242045Y-116738513D01*
X142191803Y-116873220D01*
X142191801Y-116873227D01*
X142185400Y-116932755D01*
X142185400Y-117580600D01*
X143101714Y-117580600D01*
X143075907Y-117620756D01*
X143035400Y-117758711D01*
X143035400Y-117902489D01*
X143075907Y-118040444D01*
X143101714Y-118080600D01*
X142185400Y-118080600D01*
X142185400Y-118728444D01*
X104436797Y-118728444D01*
X104451337Y-118618000D01*
X104449177Y-118601596D01*
X104437052Y-118509491D01*
X104432074Y-118471680D01*
X104375596Y-118335332D01*
X104375596Y-118335331D01*
X104285756Y-118218247D01*
X104168668Y-118128403D01*
X104129070Y-118112001D01*
X110738293Y-118112001D01*
X110757555Y-118258318D01*
X110757556Y-118258320D01*
X110814033Y-118394668D01*
X110829727Y-118415121D01*
X110903876Y-118511754D01*
X111020961Y-118601596D01*
X111157310Y-118658074D01*
X111230470Y-118667705D01*
X111303629Y-118677337D01*
X111303630Y-118677337D01*
X111303631Y-118677337D01*
X111352403Y-118670916D01*
X111449950Y-118658074D01*
X111586299Y-118601596D01*
X111703384Y-118511754D01*
X111703384Y-118511753D01*
X111709832Y-118506806D01*
X111711892Y-118509491D01*
X111759457Y-118483519D01*
X111829149Y-118488503D01*
X111860420Y-118508600D01*
X111861798Y-118506806D01*
X111868245Y-118511753D01*
X111868246Y-118511754D01*
X111985331Y-118601596D01*
X112121680Y-118658074D01*
X112194840Y-118667705D01*
X112267999Y-118677337D01*
X112268000Y-118677337D01*
X112268001Y-118677337D01*
X112316773Y-118670916D01*
X112414320Y-118658074D01*
X112550669Y-118601596D01*
X112667754Y-118511754D01*
X112757596Y-118394669D01*
X112814074Y-118258320D01*
X112830837Y-118130987D01*
X112833337Y-118112001D01*
X112833337Y-118111998D01*
X112814074Y-117965681D01*
X112814074Y-117965680D01*
X112780989Y-117885809D01*
X112757596Y-117829331D01*
X112667756Y-117712247D01*
X112550668Y-117622403D01*
X112414320Y-117565926D01*
X112414318Y-117565925D01*
X112268001Y-117546663D01*
X112267999Y-117546663D01*
X112121681Y-117565925D01*
X112121679Y-117565926D01*
X111985331Y-117622403D01*
X111861798Y-117717193D01*
X111859749Y-117714523D01*
X111812050Y-117740507D01*
X111742364Y-117735452D01*
X111711204Y-117715404D01*
X111709832Y-117717194D01*
X111586298Y-117622403D01*
X111449950Y-117565926D01*
X111449948Y-117565925D01*
X111303631Y-117546663D01*
X111303629Y-117546663D01*
X111157311Y-117565925D01*
X111157309Y-117565926D01*
X111020962Y-117622403D01*
X110903876Y-117712246D01*
X110814033Y-117829332D01*
X110757556Y-117965679D01*
X110757555Y-117965681D01*
X110738293Y-118111998D01*
X110738293Y-118112001D01*
X104129070Y-118112001D01*
X104032320Y-118071926D01*
X104032318Y-118071925D01*
X103886001Y-118052663D01*
X103885999Y-118052663D01*
X103739681Y-118071925D01*
X103739679Y-118071926D01*
X103603332Y-118128403D01*
X103486246Y-118218246D01*
X103396403Y-118335332D01*
X103339926Y-118471679D01*
X103339925Y-118471681D01*
X103320663Y-118617998D01*
X103320663Y-118618001D01*
X63909266Y-118618001D01*
X63968988Y-118568988D01*
X64095265Y-118415120D01*
X64189097Y-118239573D01*
X64246879Y-118049093D01*
X64266389Y-117851000D01*
X64246879Y-117652907D01*
X64189097Y-117462427D01*
X64095265Y-117286880D01*
X64095264Y-117286878D01*
X63968988Y-117133011D01*
X63815121Y-117006735D01*
X63815114Y-117006731D01*
X63639574Y-116912903D01*
X63449095Y-116855121D01*
X63251000Y-116835611D01*
X63052904Y-116855121D01*
X62862425Y-116912903D01*
X62686885Y-117006731D01*
X62686878Y-117006735D01*
X62533011Y-117133011D01*
X62406735Y-117286878D01*
X62406731Y-117286885D01*
X62312903Y-117462425D01*
X62255121Y-117652904D01*
X62235611Y-117851000D01*
X62255121Y-118049095D01*
X62312903Y-118239574D01*
X62406731Y-118415114D01*
X62406735Y-118415121D01*
X62533011Y-118568988D01*
X62686878Y-118695264D01*
X62686885Y-118695268D01*
X62862422Y-118789095D01*
X62862424Y-118789095D01*
X62862427Y-118789097D01*
X62986719Y-118826801D01*
X63045157Y-118865098D01*
X63073613Y-118928910D01*
X63063053Y-118997977D01*
X63016829Y-119050371D01*
X62982817Y-119065236D01*
X62787513Y-119117567D01*
X62787507Y-119117570D01*
X62573422Y-119217399D01*
X62573420Y-119217400D01*
X62379926Y-119352886D01*
X62379920Y-119352891D01*
X62212891Y-119519920D01*
X62212890Y-119519922D01*
X62082575Y-119706031D01*
X62027998Y-119749655D01*
X61958499Y-119756848D01*
X61896145Y-119725326D01*
X61879425Y-119706031D01*
X61749109Y-119519922D01*
X61749108Y-119519920D01*
X61582082Y-119352894D01*
X61388578Y-119217399D01*
X61174492Y-119117570D01*
X61174486Y-119117567D01*
X60979182Y-119065236D01*
X60919522Y-119028871D01*
X60888993Y-118966024D01*
X60897288Y-118896648D01*
X60941773Y-118842770D01*
X60975275Y-118826802D01*
X61099573Y-118789097D01*
X61145928Y-118764320D01*
X61169791Y-118751564D01*
X61275120Y-118695265D01*
X61428988Y-118568988D01*
X61555265Y-118415120D01*
X61649097Y-118239573D01*
X61706879Y-118049093D01*
X61726389Y-117851000D01*
X61706879Y-117652907D01*
X61649097Y-117462427D01*
X61555265Y-117286880D01*
X61555264Y-117286878D01*
X61428988Y-117133011D01*
X61275121Y-117006735D01*
X61275114Y-117006731D01*
X61099574Y-116912903D01*
X60909095Y-116855121D01*
X60711000Y-116835611D01*
X60512904Y-116855121D01*
X60322425Y-116912903D01*
X60146885Y-117006731D01*
X60146878Y-117006735D01*
X59993011Y-117133011D01*
X59866735Y-117286878D01*
X59866731Y-117286885D01*
X59772903Y-117462425D01*
X59715121Y-117652904D01*
X59695611Y-117851000D01*
X59715121Y-118049095D01*
X59772903Y-118239574D01*
X59866731Y-118415114D01*
X59866735Y-118415121D01*
X59993011Y-118568988D01*
X60146878Y-118695264D01*
X60146885Y-118695268D01*
X60322422Y-118789095D01*
X60322424Y-118789095D01*
X60322427Y-118789097D01*
X60446719Y-118826801D01*
X60505157Y-118865098D01*
X60533613Y-118928910D01*
X60523053Y-118997977D01*
X60476829Y-119050371D01*
X60442817Y-119065236D01*
X60247513Y-119117567D01*
X60247507Y-119117570D01*
X60033422Y-119217399D01*
X60033420Y-119217400D01*
X59839926Y-119352886D01*
X59839920Y-119352891D01*
X59672891Y-119519920D01*
X59672886Y-119519926D01*
X59537400Y-119713420D01*
X59537399Y-119713422D01*
X59437570Y-119927507D01*
X59437567Y-119927513D01*
X59380364Y-120140999D01*
X59380364Y-120141000D01*
X60277314Y-120141000D01*
X60251507Y-120181156D01*
X60211000Y-120319111D01*
X60211000Y-120462889D01*
X60251507Y-120600844D01*
X60277314Y-120641000D01*
X59380364Y-120641000D01*
X55372000Y-120641000D01*
X55372000Y-116332001D01*
X98494663Y-116332001D01*
X98513925Y-116478318D01*
X98513926Y-116478320D01*
X98570403Y-116614668D01*
X98570404Y-116614669D01*
X98660246Y-116731754D01*
X98777331Y-116821596D01*
X98913680Y-116878074D01*
X98986840Y-116887705D01*
X99059999Y-116897337D01*
X99060000Y-116897337D01*
X99060001Y-116897337D01*
X99108773Y-116890916D01*
X99206320Y-116878074D01*
X99342669Y-116821596D01*
X99459754Y-116731754D01*
X99549596Y-116614669D01*
X99606074Y-116478320D01*
X99625337Y-116332001D01*
X110738293Y-116332001D01*
X110757555Y-116478318D01*
X110757556Y-116478320D01*
X110814033Y-116614668D01*
X110814034Y-116614669D01*
X110903876Y-116731754D01*
X111020961Y-116821596D01*
X111157310Y-116878074D01*
X111230470Y-116887705D01*
X111303629Y-116897337D01*
X111303630Y-116897337D01*
X111303631Y-116897337D01*
X111352403Y-116890916D01*
X111449950Y-116878074D01*
X111586299Y-116821596D01*
X111703384Y-116731754D01*
X111703384Y-116731753D01*
X111709832Y-116726806D01*
X111711892Y-116729491D01*
X111759457Y-116703519D01*
X111829149Y-116708503D01*
X111860420Y-116728600D01*
X111861798Y-116726806D01*
X111868245Y-116731753D01*
X111868246Y-116731754D01*
X111985331Y-116821596D01*
X112121680Y-116878074D01*
X112194840Y-116887705D01*
X112267999Y-116897337D01*
X112268000Y-116897337D01*
X112268001Y-116897337D01*
X112316773Y-116890916D01*
X112414320Y-116878074D01*
X112550669Y-116821596D01*
X112667754Y-116731754D01*
X112757596Y-116614669D01*
X112814074Y-116478320D01*
X112833337Y-116332000D01*
X112832598Y-116326389D01*
X112814074Y-116185681D01*
X112814074Y-116185680D01*
X112757596Y-116049332D01*
X112757596Y-116049331D01*
X112667756Y-115932247D01*
X112550668Y-115842403D01*
X112414320Y-115785926D01*
X112414318Y-115785925D01*
X112268001Y-115766663D01*
X112267999Y-115766663D01*
X112121681Y-115785925D01*
X112121679Y-115785926D01*
X111985331Y-115842403D01*
X111861798Y-115937193D01*
X111859749Y-115934523D01*
X111812050Y-115960507D01*
X111742364Y-115955452D01*
X111711204Y-115935404D01*
X111709832Y-115937194D01*
X111703382Y-115932245D01*
X111586299Y-115842404D01*
X111586298Y-115842403D01*
X111449950Y-115785926D01*
X111449948Y-115785925D01*
X111303631Y-115766663D01*
X111303629Y-115766663D01*
X111157311Y-115785925D01*
X111157309Y-115785926D01*
X111020962Y-115842403D01*
X110903876Y-115932246D01*
X110814033Y-116049332D01*
X110757556Y-116185679D01*
X110757555Y-116185681D01*
X110738293Y-116331998D01*
X110738293Y-116332001D01*
X99625337Y-116332001D01*
X99625337Y-116332000D01*
X99624598Y-116326389D01*
X99606074Y-116185681D01*
X99606074Y-116185680D01*
X99549596Y-116049332D01*
X99549596Y-116049331D01*
X99459755Y-115932247D01*
X99459754Y-115932246D01*
X99446891Y-115922376D01*
X99405688Y-115865950D01*
X99401531Y-115796204D01*
X99435743Y-115735283D01*
X99446892Y-115725623D01*
X99459754Y-115715754D01*
X99549596Y-115598669D01*
X99606074Y-115462320D01*
X99625337Y-115316000D01*
X99606074Y-115169680D01*
X99549596Y-115033332D01*
X99549596Y-115033331D01*
X99459756Y-114916247D01*
X99342668Y-114826403D01*
X99206320Y-114769926D01*
X99206318Y-114769925D01*
X99060001Y-114750663D01*
X99059999Y-114750663D01*
X98913681Y-114769925D01*
X98913679Y-114769926D01*
X98777332Y-114826403D01*
X98660246Y-114916246D01*
X98570403Y-115033332D01*
X98513926Y-115169679D01*
X98513925Y-115169681D01*
X98494663Y-115315998D01*
X98494663Y-115316001D01*
X98513925Y-115462318D01*
X98513926Y-115462320D01*
X98570403Y-115598668D01*
X98660246Y-115715754D01*
X98673110Y-115725625D01*
X98714312Y-115782053D01*
X98718467Y-115851799D01*
X98684254Y-115912719D01*
X98673110Y-115922375D01*
X98660246Y-115932245D01*
X98570403Y-116049332D01*
X98513926Y-116185679D01*
X98513925Y-116185681D01*
X98494663Y-116331998D01*
X98494663Y-116332001D01*
X55372000Y-116332001D01*
X55372000Y-115311000D01*
X59695611Y-115311000D01*
X59715121Y-115509095D01*
X59772903Y-115699574D01*
X59866731Y-115875114D01*
X59866735Y-115875121D01*
X59993011Y-116028988D01*
X60146878Y-116155264D01*
X60146885Y-116155268D01*
X60203780Y-116185679D01*
X60322427Y-116249097D01*
X60512907Y-116306879D01*
X60711000Y-116326389D01*
X60909093Y-116306879D01*
X61099573Y-116249097D01*
X61275120Y-116155265D01*
X61428988Y-116028988D01*
X61555265Y-115875120D01*
X61649097Y-115699573D01*
X61706879Y-115509093D01*
X61726389Y-115311000D01*
X62235611Y-115311000D01*
X62255121Y-115509095D01*
X62312903Y-115699574D01*
X62406731Y-115875114D01*
X62406735Y-115875121D01*
X62533011Y-116028988D01*
X62686878Y-116155264D01*
X62686885Y-116155268D01*
X62743780Y-116185679D01*
X62862427Y-116249097D01*
X63052907Y-116306879D01*
X63251000Y-116326389D01*
X63449093Y-116306879D01*
X63639573Y-116249097D01*
X63815120Y-116155265D01*
X63968988Y-116028988D01*
X64095265Y-115875120D01*
X64189097Y-115699573D01*
X64246879Y-115509093D01*
X64266389Y-115311000D01*
X64246879Y-115112907D01*
X64189097Y-114922427D01*
X64137771Y-114826403D01*
X64095268Y-114746885D01*
X64095264Y-114746878D01*
X63968988Y-114593011D01*
X63815121Y-114466735D01*
X63815114Y-114466731D01*
X63639574Y-114372903D01*
X63449095Y-114315121D01*
X63251000Y-114295611D01*
X63052904Y-114315121D01*
X62862425Y-114372903D01*
X62686885Y-114466731D01*
X62686878Y-114466735D01*
X62533011Y-114593011D01*
X62406735Y-114746878D01*
X62406731Y-114746885D01*
X62312903Y-114922425D01*
X62255121Y-115112904D01*
X62235611Y-115311000D01*
X61726389Y-115311000D01*
X61706879Y-115112907D01*
X61649097Y-114922427D01*
X61597771Y-114826403D01*
X61555268Y-114746885D01*
X61555264Y-114746878D01*
X61428988Y-114593011D01*
X61275121Y-114466735D01*
X61275114Y-114466731D01*
X61099574Y-114372903D01*
X60909095Y-114315121D01*
X60711000Y-114295611D01*
X60512904Y-114315121D01*
X60322425Y-114372903D01*
X60146885Y-114466731D01*
X60146878Y-114466735D01*
X59993011Y-114593011D01*
X59866735Y-114746878D01*
X59866731Y-114746885D01*
X59772903Y-114922425D01*
X59715121Y-115112904D01*
X59695611Y-115311000D01*
X55372000Y-115311000D01*
X55372000Y-113792001D01*
X110557163Y-113792001D01*
X110576425Y-113938318D01*
X110576426Y-113938320D01*
X110632903Y-114074668D01*
X110632904Y-114074669D01*
X110722746Y-114191754D01*
X110839831Y-114281596D01*
X110976180Y-114338074D01*
X111049340Y-114347705D01*
X111122499Y-114357337D01*
X111122500Y-114357337D01*
X111122501Y-114357337D01*
X111171273Y-114350916D01*
X111268820Y-114338074D01*
X111405169Y-114281596D01*
X111522254Y-114191754D01*
X111612096Y-114074669D01*
X111668574Y-113938320D01*
X111687837Y-113792000D01*
X111668574Y-113645680D01*
X111612096Y-113509332D01*
X111612096Y-113509331D01*
X111522256Y-113392247D01*
X111405168Y-113302403D01*
X111360741Y-113284001D01*
X134816663Y-113284001D01*
X134835925Y-113430318D01*
X134835926Y-113430320D01*
X134892403Y-113566668D01*
X134892404Y-113566669D01*
X134982246Y-113683754D01*
X135099331Y-113773596D01*
X135235680Y-113830074D01*
X135308840Y-113839705D01*
X135381999Y-113849337D01*
X135382000Y-113849337D01*
X135382001Y-113849337D01*
X135430773Y-113842916D01*
X135528320Y-113830074D01*
X135664669Y-113773596D01*
X135781754Y-113683754D01*
X135871596Y-113566669D01*
X135928074Y-113430320D01*
X135947337Y-113284000D01*
X135942324Y-113245925D01*
X135928074Y-113137681D01*
X135928074Y-113137680D01*
X135871596Y-113001332D01*
X135871596Y-113001331D01*
X135781756Y-112884247D01*
X135664668Y-112794403D01*
X135528320Y-112737926D01*
X135528318Y-112737925D01*
X135382001Y-112718663D01*
X135381999Y-112718663D01*
X135235681Y-112737925D01*
X135235679Y-112737926D01*
X135099332Y-112794403D01*
X134982246Y-112884246D01*
X134892403Y-113001332D01*
X134835926Y-113137679D01*
X134835925Y-113137681D01*
X134816663Y-113283998D01*
X134816663Y-113284001D01*
X111360741Y-113284001D01*
X111268820Y-113245926D01*
X111268818Y-113245925D01*
X111122501Y-113226663D01*
X111122499Y-113226663D01*
X110976181Y-113245925D01*
X110976179Y-113245926D01*
X110839832Y-113302403D01*
X110722746Y-113392246D01*
X110632903Y-113509332D01*
X110576426Y-113645679D01*
X110576425Y-113645681D01*
X110557163Y-113791998D01*
X110557163Y-113792001D01*
X55372000Y-113792001D01*
X55372000Y-110998000D01*
X62885474Y-110998000D01*
X62905547Y-111253064D01*
X62965279Y-111501864D01*
X63063188Y-111738239D01*
X63063190Y-111738242D01*
X63196875Y-111956396D01*
X63196878Y-111956401D01*
X63272200Y-112044591D01*
X63363044Y-112150956D01*
X63487579Y-112257319D01*
X63557598Y-112317121D01*
X63557603Y-112317124D01*
X63775757Y-112450809D01*
X63775760Y-112450811D01*
X64012135Y-112548720D01*
X64012140Y-112548722D01*
X64260930Y-112608452D01*
X64452137Y-112623500D01*
X64452145Y-112623500D01*
X64579855Y-112623500D01*
X64579863Y-112623500D01*
X64771070Y-112608452D01*
X65019860Y-112548722D01*
X65138051Y-112499765D01*
X65256239Y-112450811D01*
X65256240Y-112450810D01*
X65256243Y-112450809D01*
X65474399Y-112317123D01*
X65668956Y-112150956D01*
X65835123Y-111956399D01*
X65968809Y-111738243D01*
X66066722Y-111501860D01*
X66126452Y-111253070D01*
X66146526Y-110998000D01*
X140863474Y-110998000D01*
X140883547Y-111253064D01*
X140943279Y-111501864D01*
X141041188Y-111738239D01*
X141041190Y-111738242D01*
X141174875Y-111956396D01*
X141174878Y-111956401D01*
X141250200Y-112044591D01*
X141341044Y-112150956D01*
X141465579Y-112257319D01*
X141535598Y-112317121D01*
X141535603Y-112317124D01*
X141753757Y-112450809D01*
X141753760Y-112450811D01*
X141990135Y-112548720D01*
X141990140Y-112548722D01*
X142238930Y-112608452D01*
X142430137Y-112623500D01*
X142430145Y-112623500D01*
X142557855Y-112623500D01*
X142557863Y-112623500D01*
X142749070Y-112608452D01*
X142997860Y-112548722D01*
X143116051Y-112499765D01*
X143234239Y-112450811D01*
X143234240Y-112450810D01*
X143234243Y-112450809D01*
X143452399Y-112317123D01*
X143646956Y-112150956D01*
X143813123Y-111956399D01*
X143946809Y-111738243D01*
X144044722Y-111501860D01*
X144104452Y-111253070D01*
X144124526Y-110998000D01*
X144104452Y-110742930D01*
X144044722Y-110494140D01*
X144035384Y-110471596D01*
X143946811Y-110257760D01*
X143946809Y-110257757D01*
X143813124Y-110039603D01*
X143813121Y-110039598D01*
X143753319Y-109969579D01*
X143646956Y-109845044D01*
X143476348Y-109699331D01*
X143452401Y-109678878D01*
X143452396Y-109678875D01*
X143234242Y-109545190D01*
X143234239Y-109545188D01*
X142997864Y-109447279D01*
X142870341Y-109416663D01*
X142749070Y-109387548D01*
X142749068Y-109387547D01*
X142749065Y-109387547D01*
X142557868Y-109372500D01*
X142557863Y-109372500D01*
X142430137Y-109372500D01*
X142430131Y-109372500D01*
X142238934Y-109387547D01*
X141990135Y-109447279D01*
X141753760Y-109545188D01*
X141753757Y-109545190D01*
X141535603Y-109678875D01*
X141535598Y-109678878D01*
X141341044Y-109845044D01*
X141174878Y-110039598D01*
X141174875Y-110039603D01*
X141041190Y-110257757D01*
X141041188Y-110257760D01*
X140943279Y-110494135D01*
X140883547Y-110742935D01*
X140863474Y-110998000D01*
X66146526Y-110998000D01*
X66126452Y-110742930D01*
X66066722Y-110494140D01*
X66057384Y-110471596D01*
X65968811Y-110257760D01*
X65968809Y-110257757D01*
X65835124Y-110039603D01*
X65835121Y-110039598D01*
X65785928Y-109982001D01*
X111194663Y-109982001D01*
X111213925Y-110128318D01*
X111213926Y-110128320D01*
X111270403Y-110264668D01*
X111270404Y-110264669D01*
X111360246Y-110381754D01*
X111477331Y-110471596D01*
X111613680Y-110528074D01*
X111686840Y-110537705D01*
X111759999Y-110547337D01*
X111760000Y-110547337D01*
X111760001Y-110547337D01*
X111808773Y-110540916D01*
X111906320Y-110528074D01*
X112042669Y-110471596D01*
X112159754Y-110381754D01*
X112249596Y-110264669D01*
X112306074Y-110128320D01*
X112325337Y-109982000D01*
X112306074Y-109835680D01*
X112249596Y-109699332D01*
X112249596Y-109699331D01*
X112159756Y-109582247D01*
X112042668Y-109492403D01*
X111906320Y-109435926D01*
X111906318Y-109435925D01*
X111760001Y-109416663D01*
X111759999Y-109416663D01*
X111613681Y-109435925D01*
X111613679Y-109435926D01*
X111477332Y-109492403D01*
X111360246Y-109582246D01*
X111270403Y-109699332D01*
X111213926Y-109835679D01*
X111213925Y-109835681D01*
X111194663Y-109981998D01*
X111194663Y-109982001D01*
X65785928Y-109982001D01*
X65775319Y-109969579D01*
X65668956Y-109845044D01*
X65498348Y-109699331D01*
X65474401Y-109678878D01*
X65474396Y-109678875D01*
X65256242Y-109545190D01*
X65256239Y-109545188D01*
X65019864Y-109447279D01*
X64892341Y-109416663D01*
X64771070Y-109387548D01*
X64771068Y-109387547D01*
X64771065Y-109387547D01*
X64579868Y-109372500D01*
X64579863Y-109372500D01*
X64452137Y-109372500D01*
X64452131Y-109372500D01*
X64260934Y-109387547D01*
X64012135Y-109447279D01*
X63775760Y-109545188D01*
X63775757Y-109545190D01*
X63557603Y-109678875D01*
X63557598Y-109678878D01*
X63363044Y-109845044D01*
X63196878Y-110039598D01*
X63196875Y-110039603D01*
X63063190Y-110257757D01*
X63063188Y-110257760D01*
X62965279Y-110494135D01*
X62905547Y-110742935D01*
X62885474Y-110998000D01*
X55372000Y-110998000D01*
X55372000Y-105484003D01*
X69482435Y-105484003D01*
X69502630Y-105663249D01*
X69502631Y-105663254D01*
X69562211Y-105833523D01*
X69596413Y-105887954D01*
X69658184Y-105986262D01*
X69785738Y-106113816D01*
X69938478Y-106209789D01*
X70108745Y-106269368D01*
X70108750Y-106269369D01*
X70199246Y-106279565D01*
X70243040Y-106284499D01*
X70243043Y-106284500D01*
X70243046Y-106284500D01*
X70332957Y-106284500D01*
X70332958Y-106284499D01*
X70400104Y-106276934D01*
X70467249Y-106269369D01*
X70467252Y-106269368D01*
X70467255Y-106269368D01*
X70637522Y-106209789D01*
X70790262Y-106113816D01*
X70917816Y-105986262D01*
X71013789Y-105833522D01*
X71073368Y-105663255D01*
X71093565Y-105484000D01*
X90232417Y-105484000D01*
X90252699Y-105689932D01*
X90252700Y-105689934D01*
X90312768Y-105887954D01*
X90410315Y-106070450D01*
X90410317Y-106070452D01*
X90541589Y-106230410D01*
X90607498Y-106284499D01*
X90701550Y-106361685D01*
X90884046Y-106459232D01*
X91082066Y-106519300D01*
X91082065Y-106519300D01*
X91120647Y-106523100D01*
X91236392Y-106534500D01*
X91236395Y-106534500D01*
X91339605Y-106534500D01*
X91339608Y-106534500D01*
X91493934Y-106519300D01*
X91691954Y-106459232D01*
X91874450Y-106361685D01*
X92034410Y-106230410D01*
X92165685Y-106070450D01*
X92263232Y-105887954D01*
X92323300Y-105689934D01*
X92343583Y-105484000D01*
X92323300Y-105278066D01*
X92263232Y-105080046D01*
X92165685Y-104897550D01*
X92113702Y-104834209D01*
X92034410Y-104737589D01*
X91874452Y-104606317D01*
X91874453Y-104606317D01*
X91874450Y-104606315D01*
X91691954Y-104508768D01*
X91493934Y-104448700D01*
X91493932Y-104448699D01*
X91493934Y-104448699D01*
X91374805Y-104436966D01*
X91339608Y-104433500D01*
X91236392Y-104433500D01*
X91198298Y-104437251D01*
X91082067Y-104448699D01*
X90884043Y-104508769D01*
X90773898Y-104567643D01*
X90701550Y-104606315D01*
X90701548Y-104606316D01*
X90701547Y-104606317D01*
X90541589Y-104737589D01*
X90410317Y-104897547D01*
X90312769Y-105080043D01*
X90252699Y-105278067D01*
X90232417Y-105484000D01*
X71093565Y-105484000D01*
X71073368Y-105304745D01*
X71013789Y-105134478D01*
X70917816Y-104981738D01*
X70790262Y-104854184D01*
X70637523Y-104758211D01*
X70467254Y-104698631D01*
X70467249Y-104698630D01*
X70332960Y-104683500D01*
X70332954Y-104683500D01*
X70243046Y-104683500D01*
X70243039Y-104683500D01*
X70108750Y-104698630D01*
X70108745Y-104698631D01*
X69938476Y-104758211D01*
X69785737Y-104854184D01*
X69658184Y-104981737D01*
X69562211Y-105134476D01*
X69502631Y-105304745D01*
X69502630Y-105304750D01*
X69482435Y-105483996D01*
X69482435Y-105484003D01*
X55372000Y-105484003D01*
X55372000Y-102973808D01*
X59695499Y-102973808D01*
X59704812Y-103020623D01*
X59704813Y-103020624D01*
X59740286Y-103073714D01*
X59793376Y-103109187D01*
X59840191Y-103118500D01*
X59840194Y-103118500D01*
X61571808Y-103118500D01*
X61603018Y-103112291D01*
X61618624Y-103109187D01*
X61671714Y-103073714D01*
X61707187Y-103020624D01*
X61716500Y-102973806D01*
X61716500Y-102557703D01*
X61736185Y-102490664D01*
X61788989Y-102444909D01*
X61858147Y-102434965D01*
X61921703Y-102463990D01*
X61959477Y-102522768D01*
X61960275Y-102525610D01*
X61972566Y-102571483D01*
X61972570Y-102571492D01*
X62072399Y-102785578D01*
X62207894Y-102979082D01*
X62374917Y-103146105D01*
X62568421Y-103281600D01*
X62782507Y-103381429D01*
X62782516Y-103381433D01*
X62996000Y-103438634D01*
X62996000Y-102543501D01*
X63103685Y-102592680D01*
X63210237Y-102608000D01*
X63281763Y-102608000D01*
X63388315Y-102592680D01*
X63496000Y-102543501D01*
X63496000Y-103438633D01*
X63709483Y-103381433D01*
X63709492Y-103381429D01*
X63923578Y-103281600D01*
X64117082Y-103146105D01*
X64284105Y-102979082D01*
X64419600Y-102785578D01*
X64519429Y-102571492D01*
X64519432Y-102571486D01*
X64576636Y-102358000D01*
X63679686Y-102358000D01*
X63705493Y-102317844D01*
X63746000Y-102179889D01*
X63746000Y-102036111D01*
X63705493Y-101898156D01*
X63679686Y-101858000D01*
X64576636Y-101858000D01*
X64576635Y-101857999D01*
X64519432Y-101644513D01*
X64519429Y-101644507D01*
X64419600Y-101430422D01*
X64419599Y-101430420D01*
X64284113Y-101236926D01*
X64284108Y-101236920D01*
X64139189Y-101092001D01*
X69030663Y-101092001D01*
X69049925Y-101238318D01*
X69049926Y-101238320D01*
X69106403Y-101374668D01*
X69106404Y-101374669D01*
X69196246Y-101491754D01*
X69313331Y-101581596D01*
X69449680Y-101638074D01*
X69498590Y-101644513D01*
X69595999Y-101657337D01*
X69596000Y-101657337D01*
X69596001Y-101657337D01*
X69644773Y-101650916D01*
X69742320Y-101638074D01*
X69878669Y-101581596D01*
X69995754Y-101491754D01*
X70085596Y-101374669D01*
X70116439Y-101300208D01*
X70160279Y-101245804D01*
X70226574Y-101223739D01*
X70294273Y-101241018D01*
X70341884Y-101292155D01*
X70345561Y-101300208D01*
X70376402Y-101374667D01*
X70376404Y-101374669D01*
X70466246Y-101491754D01*
X70583331Y-101581596D01*
X70719680Y-101638074D01*
X70768590Y-101644513D01*
X70865999Y-101657337D01*
X70866000Y-101657337D01*
X70866001Y-101657337D01*
X70914773Y-101650916D01*
X71012320Y-101638074D01*
X71148669Y-101581596D01*
X71265754Y-101491754D01*
X71355596Y-101374669D01*
X71412074Y-101238320D01*
X71431337Y-101092001D01*
X80597663Y-101092001D01*
X80616925Y-101238318D01*
X80616926Y-101238320D01*
X80673403Y-101374668D01*
X80673404Y-101374669D01*
X80763246Y-101491754D01*
X80880331Y-101581596D01*
X81016680Y-101638074D01*
X81065590Y-101644513D01*
X81162999Y-101657337D01*
X81163000Y-101657337D01*
X81163001Y-101657337D01*
X81211773Y-101650916D01*
X81309320Y-101638074D01*
X81445669Y-101581596D01*
X81562754Y-101491754D01*
X81652596Y-101374669D01*
X81709074Y-101238320D01*
X81728337Y-101092001D01*
X90112663Y-101092001D01*
X90131925Y-101238318D01*
X90131926Y-101238320D01*
X90188403Y-101374668D01*
X90188404Y-101374669D01*
X90278246Y-101491754D01*
X90395331Y-101581596D01*
X90531680Y-101638074D01*
X90580590Y-101644513D01*
X90677999Y-101657337D01*
X90678000Y-101657337D01*
X90678001Y-101657337D01*
X90726773Y-101650916D01*
X90824320Y-101638074D01*
X90960669Y-101581596D01*
X91077754Y-101491754D01*
X91167596Y-101374669D01*
X91224074Y-101238320D01*
X91243337Y-101092000D01*
X91240426Y-101069891D01*
X91224074Y-100945681D01*
X91224074Y-100945680D01*
X91167596Y-100809332D01*
X91167596Y-100809331D01*
X91077755Y-100692247D01*
X91077754Y-100692246D01*
X91064891Y-100682376D01*
X91023688Y-100625950D01*
X91021188Y-100584001D01*
X111448663Y-100584001D01*
X111467925Y-100730318D01*
X111467926Y-100730320D01*
X111524403Y-100866668D01*
X111524404Y-100866669D01*
X111614246Y-100983754D01*
X111731331Y-101073596D01*
X111867680Y-101130074D01*
X111940840Y-101139705D01*
X112013999Y-101149337D01*
X112014000Y-101149337D01*
X112014001Y-101149337D01*
X112067559Y-101142286D01*
X112160320Y-101130074D01*
X112296669Y-101073596D01*
X112413754Y-100983754D01*
X112503596Y-100866669D01*
X112560074Y-100730320D01*
X112579337Y-100584000D01*
X112574324Y-100545925D01*
X112560074Y-100437681D01*
X112560074Y-100437680D01*
X112503596Y-100301332D01*
X112503596Y-100301331D01*
X112413756Y-100184247D01*
X112296668Y-100094403D01*
X112160320Y-100037926D01*
X112160318Y-100037925D01*
X112014001Y-100018663D01*
X112013999Y-100018663D01*
X111867681Y-100037925D01*
X111867679Y-100037926D01*
X111731332Y-100094403D01*
X111614246Y-100184246D01*
X111524403Y-100301332D01*
X111467926Y-100437679D01*
X111467925Y-100437681D01*
X111448663Y-100583998D01*
X111448663Y-100584001D01*
X91021188Y-100584001D01*
X91019531Y-100556204D01*
X91053743Y-100495283D01*
X91064892Y-100485623D01*
X91077754Y-100475754D01*
X91167596Y-100358669D01*
X91224074Y-100222320D01*
X91243337Y-100076000D01*
X91238324Y-100037925D01*
X91224074Y-99929681D01*
X91224074Y-99929680D01*
X91167596Y-99793332D01*
X91167596Y-99793331D01*
X91077756Y-99676247D01*
X90960668Y-99586403D01*
X90916241Y-99568001D01*
X101542663Y-99568001D01*
X101561925Y-99714318D01*
X101561926Y-99714320D01*
X101618403Y-99850668D01*
X101618404Y-99850669D01*
X101708246Y-99967754D01*
X101825331Y-100057596D01*
X101961680Y-100114074D01*
X102034840Y-100123705D01*
X102107999Y-100133337D01*
X102108000Y-100133337D01*
X102108001Y-100133337D01*
X102156773Y-100126916D01*
X102254320Y-100114074D01*
X102390669Y-100057596D01*
X102507754Y-99967754D01*
X102597596Y-99850669D01*
X102654074Y-99714320D01*
X102673337Y-99568001D01*
X108654663Y-99568001D01*
X108673925Y-99714318D01*
X108673926Y-99714320D01*
X108730403Y-99850668D01*
X108730404Y-99850669D01*
X108820246Y-99967754D01*
X108937331Y-100057596D01*
X109073680Y-100114074D01*
X109146840Y-100123705D01*
X109219999Y-100133337D01*
X109220000Y-100133337D01*
X109220001Y-100133337D01*
X109268773Y-100126916D01*
X109366320Y-100114074D01*
X109502669Y-100057596D01*
X109619754Y-99967754D01*
X109709596Y-99850669D01*
X109721471Y-99822001D01*
X139134663Y-99822001D01*
X139153925Y-99968318D01*
X139153926Y-99968320D01*
X139210403Y-100104668D01*
X139210404Y-100104669D01*
X139300246Y-100221754D01*
X139417331Y-100311596D01*
X139553680Y-100368074D01*
X139626840Y-100377705D01*
X139699999Y-100387337D01*
X139700000Y-100387337D01*
X139700001Y-100387337D01*
X139748773Y-100380916D01*
X139846320Y-100368074D01*
X139982669Y-100311596D01*
X140099754Y-100221754D01*
X140189596Y-100104669D01*
X140246074Y-99968320D01*
X140265337Y-99822000D01*
X140246074Y-99675680D01*
X140189596Y-99539332D01*
X140189596Y-99539331D01*
X140099756Y-99422247D01*
X139982668Y-99332403D01*
X139846320Y-99275926D01*
X139846318Y-99275925D01*
X139700001Y-99256663D01*
X139699999Y-99256663D01*
X139553681Y-99275925D01*
X139553679Y-99275926D01*
X139417332Y-99332403D01*
X139300246Y-99422246D01*
X139210403Y-99539332D01*
X139153926Y-99675679D01*
X139153925Y-99675681D01*
X139134663Y-99821998D01*
X139134663Y-99822001D01*
X109721471Y-99822001D01*
X109766074Y-99714320D01*
X109785337Y-99568000D01*
X109780324Y-99529925D01*
X109766149Y-99422247D01*
X109766074Y-99421680D01*
X109709596Y-99285332D01*
X109709596Y-99285331D01*
X109619756Y-99168247D01*
X109502668Y-99078403D01*
X109366320Y-99021926D01*
X109366318Y-99021925D01*
X109220001Y-99002663D01*
X109219999Y-99002663D01*
X109073681Y-99021925D01*
X109073679Y-99021926D01*
X108937332Y-99078403D01*
X108820246Y-99168246D01*
X108730403Y-99285332D01*
X108673926Y-99421679D01*
X108673925Y-99421681D01*
X108654663Y-99567998D01*
X108654663Y-99568001D01*
X102673337Y-99568001D01*
X102673337Y-99568000D01*
X102668324Y-99529925D01*
X102654149Y-99422247D01*
X102654074Y-99421680D01*
X102597596Y-99285332D01*
X102597596Y-99285331D01*
X102507756Y-99168247D01*
X102390668Y-99078403D01*
X102254320Y-99021926D01*
X102254318Y-99021925D01*
X102108001Y-99002663D01*
X102107999Y-99002663D01*
X101961681Y-99021925D01*
X101961679Y-99021926D01*
X101825332Y-99078403D01*
X101708246Y-99168246D01*
X101618403Y-99285332D01*
X101561926Y-99421679D01*
X101561925Y-99421681D01*
X101542663Y-99567998D01*
X101542663Y-99568001D01*
X90916241Y-99568001D01*
X90824320Y-99529926D01*
X90824318Y-99529925D01*
X90678001Y-99510663D01*
X90677999Y-99510663D01*
X90531681Y-99529925D01*
X90531679Y-99529926D01*
X90395332Y-99586403D01*
X90278246Y-99676246D01*
X90188403Y-99793332D01*
X90131926Y-99929679D01*
X90131925Y-99929681D01*
X90112663Y-100075998D01*
X90112663Y-100076001D01*
X90131925Y-100222318D01*
X90131926Y-100222320D01*
X90188403Y-100358668D01*
X90278246Y-100475754D01*
X90291110Y-100485625D01*
X90332312Y-100542053D01*
X90336467Y-100611799D01*
X90302254Y-100672719D01*
X90291110Y-100682375D01*
X90278246Y-100692245D01*
X90188403Y-100809332D01*
X90131926Y-100945679D01*
X90131925Y-100945681D01*
X90112663Y-101091998D01*
X90112663Y-101092001D01*
X81728337Y-101092001D01*
X81728337Y-101092000D01*
X81725426Y-101069891D01*
X81709074Y-100945681D01*
X81709074Y-100945680D01*
X81652596Y-100809332D01*
X81652596Y-100809331D01*
X81562756Y-100692247D01*
X81445668Y-100602403D01*
X81309320Y-100545926D01*
X81309318Y-100545925D01*
X81163001Y-100526663D01*
X81162999Y-100526663D01*
X81016681Y-100545925D01*
X81016679Y-100545926D01*
X80880332Y-100602403D01*
X80763246Y-100692246D01*
X80673403Y-100809332D01*
X80616926Y-100945679D01*
X80616925Y-100945681D01*
X80597663Y-101091998D01*
X80597663Y-101092001D01*
X71431337Y-101092001D01*
X71431337Y-101092000D01*
X71428426Y-101069891D01*
X71412074Y-100945681D01*
X71412074Y-100945680D01*
X71355596Y-100809332D01*
X71355596Y-100809331D01*
X71265756Y-100692247D01*
X71148668Y-100602403D01*
X71012320Y-100545926D01*
X71012318Y-100545925D01*
X70866001Y-100526663D01*
X70865999Y-100526663D01*
X70719681Y-100545925D01*
X70719679Y-100545926D01*
X70583332Y-100602403D01*
X70466246Y-100692246D01*
X70376403Y-100809332D01*
X70345561Y-100883792D01*
X70301720Y-100938195D01*
X70235425Y-100960260D01*
X70167726Y-100942981D01*
X70120116Y-100891843D01*
X70116439Y-100883792D01*
X70085596Y-100809331D01*
X69995756Y-100692247D01*
X69878668Y-100602403D01*
X69742320Y-100545926D01*
X69742318Y-100545925D01*
X69596001Y-100526663D01*
X69595999Y-100526663D01*
X69449681Y-100545925D01*
X69449679Y-100545926D01*
X69313332Y-100602403D01*
X69196246Y-100692246D01*
X69106403Y-100809332D01*
X69049926Y-100945679D01*
X69049925Y-100945681D01*
X69030663Y-101091998D01*
X69030663Y-101092001D01*
X64139189Y-101092001D01*
X64117082Y-101069894D01*
X63923578Y-100934399D01*
X63709492Y-100834570D01*
X63709486Y-100834567D01*
X63496000Y-100777364D01*
X63496000Y-101672498D01*
X63388315Y-101623320D01*
X63281763Y-101608000D01*
X63210237Y-101608000D01*
X63103685Y-101623320D01*
X62996000Y-101672498D01*
X62996000Y-100777364D01*
X62995999Y-100777364D01*
X62782513Y-100834567D01*
X62782507Y-100834570D01*
X62568422Y-100934399D01*
X62568420Y-100934400D01*
X62374926Y-101069886D01*
X62374920Y-101069891D01*
X62207891Y-101236920D01*
X62207886Y-101236926D01*
X62072400Y-101430420D01*
X62072399Y-101430422D01*
X61972570Y-101644507D01*
X61972567Y-101644514D01*
X61960275Y-101690390D01*
X61923910Y-101750050D01*
X61861063Y-101780579D01*
X61791687Y-101772284D01*
X61737809Y-101727799D01*
X61716535Y-101661247D01*
X61716500Y-101658296D01*
X61716500Y-101242191D01*
X61707187Y-101195376D01*
X61671714Y-101142286D01*
X61618624Y-101106813D01*
X61618623Y-101106812D01*
X61571808Y-101097500D01*
X61571806Y-101097500D01*
X59840194Y-101097500D01*
X59840192Y-101097500D01*
X59793376Y-101106812D01*
X59740286Y-101142286D01*
X59704812Y-101195376D01*
X59695500Y-101242191D01*
X59695500Y-101242194D01*
X59695500Y-102973806D01*
X59695500Y-102973808D01*
X59695499Y-102973808D01*
X55372000Y-102973808D01*
X55372000Y-98552001D01*
X74364663Y-98552001D01*
X74383925Y-98698318D01*
X74383926Y-98698320D01*
X74440403Y-98834668D01*
X74440404Y-98834669D01*
X74530246Y-98951754D01*
X74647331Y-99041596D01*
X74783680Y-99098074D01*
X74856840Y-99107705D01*
X74929999Y-99117337D01*
X74930000Y-99117337D01*
X74930001Y-99117337D01*
X74978773Y-99110916D01*
X75076320Y-99098074D01*
X75212669Y-99041596D01*
X75329754Y-98951754D01*
X75419596Y-98834669D01*
X75476074Y-98698320D01*
X75495337Y-98552000D01*
X75476074Y-98405680D01*
X75419596Y-98269332D01*
X75419596Y-98269331D01*
X75329756Y-98152247D01*
X75212668Y-98062403D01*
X75076320Y-98005926D01*
X75076318Y-98005925D01*
X74930001Y-97986663D01*
X74929999Y-97986663D01*
X74783681Y-98005925D01*
X74783679Y-98005926D01*
X74647332Y-98062403D01*
X74530246Y-98152246D01*
X74440403Y-98269332D01*
X74383926Y-98405679D01*
X74383925Y-98405681D01*
X74364663Y-98551998D01*
X74364663Y-98552001D01*
X55372000Y-98552001D01*
X55372000Y-98168000D01*
X55391685Y-98100961D01*
X55444489Y-98055206D01*
X55496000Y-98044000D01*
X62738000Y-98044000D01*
X62738000Y-97282001D01*
X86302663Y-97282001D01*
X86321925Y-97428318D01*
X86321926Y-97428320D01*
X86378403Y-97564668D01*
X86399307Y-97591911D01*
X86468246Y-97681754D01*
X86585331Y-97771596D01*
X86721680Y-97828074D01*
X86794840Y-97837705D01*
X86867999Y-97847337D01*
X86868000Y-97847337D01*
X86868001Y-97847337D01*
X86916773Y-97840916D01*
X87014320Y-97828074D01*
X87150669Y-97771596D01*
X87267754Y-97681754D01*
X87357596Y-97564669D01*
X87414074Y-97428320D01*
X87433337Y-97282000D01*
X87414074Y-97135680D01*
X87357596Y-96999332D01*
X87357596Y-96999331D01*
X87267756Y-96882247D01*
X87150668Y-96792403D01*
X87106241Y-96774001D01*
X95954663Y-96774001D01*
X95973925Y-96920318D01*
X95973926Y-96920320D01*
X96030403Y-97056668D01*
X96051307Y-97083911D01*
X96120246Y-97173754D01*
X96237331Y-97263596D01*
X96373680Y-97320074D01*
X96446840Y-97329705D01*
X96519999Y-97339337D01*
X96520000Y-97339337D01*
X96520001Y-97339337D01*
X96568773Y-97332916D01*
X96666320Y-97320074D01*
X96758236Y-97282001D01*
X137356663Y-97282001D01*
X137375925Y-97428318D01*
X137375926Y-97428320D01*
X137432403Y-97564668D01*
X137453307Y-97591911D01*
X137522246Y-97681754D01*
X137639331Y-97771596D01*
X137775680Y-97828074D01*
X137848840Y-97837705D01*
X137921999Y-97847337D01*
X137922000Y-97847337D01*
X137922001Y-97847337D01*
X137970773Y-97840916D01*
X138068320Y-97828074D01*
X138204669Y-97771596D01*
X138321754Y-97681754D01*
X138411596Y-97564669D01*
X138468074Y-97428320D01*
X138487337Y-97282000D01*
X138468074Y-97135680D01*
X138411596Y-96999332D01*
X138411596Y-96999331D01*
X138321756Y-96882247D01*
X138204668Y-96792403D01*
X138068320Y-96735926D01*
X138068318Y-96735925D01*
X137922001Y-96716663D01*
X137921999Y-96716663D01*
X137775681Y-96735925D01*
X137775679Y-96735926D01*
X137639332Y-96792403D01*
X137522246Y-96882246D01*
X137432403Y-96999332D01*
X137375926Y-97135679D01*
X137375925Y-97135681D01*
X137356663Y-97281998D01*
X137356663Y-97282001D01*
X96758236Y-97282001D01*
X96802669Y-97263596D01*
X96919754Y-97173754D01*
X97009596Y-97056669D01*
X97066074Y-96920320D01*
X97085337Y-96774000D01*
X97080324Y-96735925D01*
X97066074Y-96627681D01*
X97066074Y-96627680D01*
X97009596Y-96491332D01*
X97009596Y-96491331D01*
X96919755Y-96374247D01*
X96919754Y-96374246D01*
X96906891Y-96364376D01*
X96865688Y-96307950D01*
X96861531Y-96238204D01*
X96895743Y-96177283D01*
X96906892Y-96167623D01*
X96919754Y-96157754D01*
X97009596Y-96040669D01*
X97066074Y-95904320D01*
X97085337Y-95758000D01*
X97066074Y-95611680D01*
X97009596Y-95475332D01*
X97009596Y-95475331D01*
X96919755Y-95358247D01*
X96919754Y-95358246D01*
X96906891Y-95348376D01*
X96865688Y-95291950D01*
X96861531Y-95222204D01*
X96895743Y-95161283D01*
X96906892Y-95151623D01*
X96919754Y-95141754D01*
X97009596Y-95024669D01*
X97066074Y-94888320D01*
X97085337Y-94742000D01*
X97066074Y-94595680D01*
X97009596Y-94459332D01*
X97009596Y-94459331D01*
X96919755Y-94342247D01*
X96919754Y-94342246D01*
X96906891Y-94332376D01*
X96865688Y-94275950D01*
X96861531Y-94206204D01*
X96895743Y-94145283D01*
X96906892Y-94135623D01*
X96919754Y-94125754D01*
X97009596Y-94008669D01*
X97066074Y-93872320D01*
X97085337Y-93726000D01*
X97066074Y-93579680D01*
X97009596Y-93443332D01*
X97009596Y-93443331D01*
X96919756Y-93326247D01*
X96802668Y-93236403D01*
X96666320Y-93179926D01*
X96666318Y-93179925D01*
X96520001Y-93160663D01*
X96519999Y-93160663D01*
X96373681Y-93179925D01*
X96373679Y-93179926D01*
X96237332Y-93236403D01*
X96120246Y-93326246D01*
X96030403Y-93443332D01*
X95973926Y-93579679D01*
X95973925Y-93579681D01*
X95954663Y-93725998D01*
X95954663Y-93726001D01*
X95973925Y-93872318D01*
X95973926Y-93872320D01*
X96030403Y-94008668D01*
X96120246Y-94125754D01*
X96133110Y-94135625D01*
X96174312Y-94192053D01*
X96178467Y-94261799D01*
X96144254Y-94322719D01*
X96133110Y-94332375D01*
X96120246Y-94342245D01*
X96030403Y-94459332D01*
X95973926Y-94595679D01*
X95973925Y-94595681D01*
X95954663Y-94741998D01*
X95954663Y-94742001D01*
X95973925Y-94888318D01*
X95973926Y-94888320D01*
X96030403Y-95024668D01*
X96120246Y-95141754D01*
X96133110Y-95151625D01*
X96174312Y-95208053D01*
X96178467Y-95277799D01*
X96144254Y-95338719D01*
X96133110Y-95348375D01*
X96120246Y-95358245D01*
X96030403Y-95475332D01*
X95973926Y-95611679D01*
X95973925Y-95611681D01*
X95954663Y-95757998D01*
X95954663Y-95758001D01*
X95973925Y-95904318D01*
X95973926Y-95904320D01*
X96030403Y-96040668D01*
X96120246Y-96157754D01*
X96133110Y-96167625D01*
X96174312Y-96224053D01*
X96178467Y-96293799D01*
X96144254Y-96354719D01*
X96133110Y-96364375D01*
X96120246Y-96374245D01*
X96030403Y-96491332D01*
X95973926Y-96627679D01*
X95973925Y-96627681D01*
X95954663Y-96773998D01*
X95954663Y-96774001D01*
X87106241Y-96774001D01*
X87014320Y-96735926D01*
X87014318Y-96735925D01*
X86868001Y-96716663D01*
X86867999Y-96716663D01*
X86721681Y-96735925D01*
X86721679Y-96735926D01*
X86585332Y-96792403D01*
X86468246Y-96882246D01*
X86378403Y-96999332D01*
X86321926Y-97135679D01*
X86321925Y-97135681D01*
X86302663Y-97281998D01*
X86302663Y-97282001D01*
X62738000Y-97282001D01*
X62738000Y-92964001D01*
X115004663Y-92964001D01*
X115023925Y-93110318D01*
X115023926Y-93110320D01*
X115080403Y-93246668D01*
X115080404Y-93246669D01*
X115170246Y-93363754D01*
X115287331Y-93453596D01*
X115423680Y-93510074D01*
X115496840Y-93519705D01*
X115569999Y-93529337D01*
X115570000Y-93529337D01*
X115570001Y-93529337D01*
X115618773Y-93522916D01*
X115716320Y-93510074D01*
X115852669Y-93453596D01*
X115969754Y-93363754D01*
X116059596Y-93246669D01*
X116116074Y-93110320D01*
X116135337Y-92964000D01*
X116116074Y-92817680D01*
X116059596Y-92681332D01*
X116059596Y-92681331D01*
X115969756Y-92564247D01*
X115852668Y-92474403D01*
X115716320Y-92417926D01*
X115716318Y-92417925D01*
X115570001Y-92398663D01*
X115569999Y-92398663D01*
X115423681Y-92417925D01*
X115423679Y-92417926D01*
X115287332Y-92474403D01*
X115170246Y-92564246D01*
X115080403Y-92681332D01*
X115023926Y-92817679D01*
X115023925Y-92817681D01*
X115004663Y-92963998D01*
X115004663Y-92964001D01*
X62738000Y-92964001D01*
X62738000Y-90460001D01*
X95700663Y-90460001D01*
X95719925Y-90606318D01*
X95719926Y-90606320D01*
X95776403Y-90742668D01*
X95776404Y-90742669D01*
X95866246Y-90859754D01*
X95983331Y-90949596D01*
X96119680Y-91006074D01*
X96192840Y-91015705D01*
X96265999Y-91025337D01*
X96266000Y-91025337D01*
X96266001Y-91025337D01*
X96314773Y-91018916D01*
X96412320Y-91006074D01*
X96548669Y-90949596D01*
X96665754Y-90859754D01*
X96755596Y-90742669D01*
X96812074Y-90606320D01*
X96831337Y-90460000D01*
X96828434Y-90437952D01*
X96812074Y-90313681D01*
X96812074Y-90313680D01*
X96755596Y-90177332D01*
X96755596Y-90177331D01*
X96665756Y-90060247D01*
X96548668Y-89970403D01*
X96417327Y-89916000D01*
X115004663Y-89916000D01*
X115023925Y-90062318D01*
X115023926Y-90062320D01*
X115080403Y-90198668D01*
X115080404Y-90198669D01*
X115170246Y-90315754D01*
X115287331Y-90405596D01*
X115423680Y-90462074D01*
X115496840Y-90471705D01*
X115569999Y-90481337D01*
X115570000Y-90481337D01*
X115570001Y-90481337D01*
X115618773Y-90474916D01*
X115716320Y-90462074D01*
X115808236Y-90424001D01*
X138118663Y-90424001D01*
X138137925Y-90570318D01*
X138137926Y-90570320D01*
X138194403Y-90706668D01*
X138194404Y-90706669D01*
X138284246Y-90823754D01*
X138401331Y-90913596D01*
X138537680Y-90970074D01*
X138610840Y-90979705D01*
X138683999Y-90989337D01*
X138684000Y-90989337D01*
X138684001Y-90989337D01*
X138732773Y-90982916D01*
X138830320Y-90970074D01*
X138966669Y-90913596D01*
X139083754Y-90823754D01*
X139173596Y-90706669D01*
X139230074Y-90570320D01*
X139244325Y-90462073D01*
X139249337Y-90424001D01*
X139249337Y-90423998D01*
X139235086Y-90315753D01*
X139230074Y-90277680D01*
X139188508Y-90177332D01*
X139173596Y-90141331D01*
X139083756Y-90024247D01*
X138966668Y-89934403D01*
X138830320Y-89877926D01*
X138830318Y-89877925D01*
X138684001Y-89858663D01*
X138683999Y-89858663D01*
X138537681Y-89877925D01*
X138537679Y-89877926D01*
X138401332Y-89934403D01*
X138284246Y-90024246D01*
X138194403Y-90141332D01*
X138137926Y-90277679D01*
X138137925Y-90277681D01*
X138118663Y-90423998D01*
X138118663Y-90424001D01*
X115808236Y-90424001D01*
X115852669Y-90405596D01*
X115969754Y-90315754D01*
X116059596Y-90198669D01*
X116116074Y-90062320D01*
X116135337Y-89916000D01*
X116132745Y-89896315D01*
X116116074Y-89769681D01*
X116116074Y-89769680D01*
X116059596Y-89633332D01*
X116059596Y-89633331D01*
X115969756Y-89516247D01*
X115852668Y-89426403D01*
X115716320Y-89369926D01*
X115716318Y-89369925D01*
X115570001Y-89350663D01*
X115569999Y-89350663D01*
X115423681Y-89369925D01*
X115423679Y-89369926D01*
X115287332Y-89426403D01*
X115170246Y-89516246D01*
X115080403Y-89633332D01*
X115023926Y-89769679D01*
X115023925Y-89769681D01*
X115004663Y-89915998D01*
X115004663Y-89916000D01*
X96417327Y-89916000D01*
X96412320Y-89913926D01*
X96412318Y-89913925D01*
X96266001Y-89894663D01*
X96265999Y-89894663D01*
X96119681Y-89913925D01*
X96119679Y-89913926D01*
X95983332Y-89970403D01*
X95866246Y-90060246D01*
X95776403Y-90177332D01*
X95719926Y-90313679D01*
X95719925Y-90313681D01*
X95700663Y-90459998D01*
X95700663Y-90460001D01*
X62738000Y-90460001D01*
X62738000Y-89916000D01*
X55496000Y-89916000D01*
X55428961Y-89896315D01*
X55383206Y-89843511D01*
X55372000Y-89792000D01*
X55372000Y-88138001D01*
X67583663Y-88138001D01*
X67602925Y-88284318D01*
X67602926Y-88284320D01*
X67659403Y-88420668D01*
X67659404Y-88420669D01*
X67749246Y-88537754D01*
X67866331Y-88627596D01*
X68002680Y-88684074D01*
X68075840Y-88693705D01*
X68148999Y-88703337D01*
X68149000Y-88703337D01*
X68149001Y-88703337D01*
X68197773Y-88696916D01*
X68295320Y-88684074D01*
X68431669Y-88627596D01*
X68548754Y-88537754D01*
X68638596Y-88420669D01*
X68695074Y-88284320D01*
X68714337Y-88138000D01*
X68695074Y-87991680D01*
X68638596Y-87855332D01*
X68638596Y-87855331D01*
X68548756Y-87738247D01*
X68431668Y-87648403D01*
X68295320Y-87591926D01*
X68295318Y-87591925D01*
X68149001Y-87572663D01*
X68148999Y-87572663D01*
X68002681Y-87591925D01*
X68002679Y-87591926D01*
X67866332Y-87648403D01*
X67749246Y-87738246D01*
X67659403Y-87855332D01*
X67602926Y-87991679D01*
X67602925Y-87991681D01*
X67583663Y-88137998D01*
X67583663Y-88138001D01*
X55372000Y-88138001D01*
X55372000Y-87376001D01*
X90366663Y-87376001D01*
X90385925Y-87522318D01*
X90385926Y-87522320D01*
X90442403Y-87658668D01*
X90442404Y-87658669D01*
X90532246Y-87775754D01*
X90649331Y-87865596D01*
X90785680Y-87922074D01*
X90858840Y-87931705D01*
X90931999Y-87941337D01*
X90932000Y-87941337D01*
X90932001Y-87941337D01*
X90980773Y-87934916D01*
X91078320Y-87922074D01*
X91170236Y-87884001D01*
X95700663Y-87884001D01*
X95719925Y-88030318D01*
X95719926Y-88030320D01*
X95776403Y-88166668D01*
X95776404Y-88166669D01*
X95866246Y-88283754D01*
X95983331Y-88373596D01*
X96119680Y-88430074D01*
X96192840Y-88439705D01*
X96265999Y-88449337D01*
X96266000Y-88449337D01*
X96266001Y-88449337D01*
X96314773Y-88442916D01*
X96412320Y-88430074D01*
X96548669Y-88373596D01*
X96665754Y-88283754D01*
X96755596Y-88166669D01*
X96812074Y-88030320D01*
X96831337Y-87884000D01*
X96812074Y-87737680D01*
X96767471Y-87630001D01*
X138118663Y-87630001D01*
X138137925Y-87776318D01*
X138137926Y-87776320D01*
X138194403Y-87912668D01*
X138194404Y-87912669D01*
X138284246Y-88029754D01*
X138401331Y-88119596D01*
X138537680Y-88176074D01*
X138610840Y-88185705D01*
X138683999Y-88195337D01*
X138684000Y-88195337D01*
X138684001Y-88195337D01*
X138732773Y-88188916D01*
X138830320Y-88176074D01*
X138966669Y-88119596D01*
X139083754Y-88029754D01*
X139173596Y-87912669D01*
X139230074Y-87776320D01*
X139249337Y-87630000D01*
X139244324Y-87591925D01*
X139230149Y-87484247D01*
X139230074Y-87483680D01*
X139173596Y-87347332D01*
X139173596Y-87347331D01*
X139083756Y-87230247D01*
X138966668Y-87140403D01*
X138830320Y-87083926D01*
X138830318Y-87083925D01*
X138684001Y-87064663D01*
X138683999Y-87064663D01*
X138537681Y-87083925D01*
X138537679Y-87083926D01*
X138401332Y-87140403D01*
X138284246Y-87230246D01*
X138194403Y-87347332D01*
X138137926Y-87483679D01*
X138137925Y-87483681D01*
X138118663Y-87629998D01*
X138118663Y-87630001D01*
X96767471Y-87630001D01*
X96755596Y-87601332D01*
X96755596Y-87601331D01*
X96665756Y-87484247D01*
X96548668Y-87394403D01*
X96412320Y-87337926D01*
X96412318Y-87337925D01*
X96266001Y-87318663D01*
X96265999Y-87318663D01*
X96119681Y-87337925D01*
X96119679Y-87337926D01*
X95983332Y-87394403D01*
X95866246Y-87484246D01*
X95776403Y-87601332D01*
X95719926Y-87737679D01*
X95719925Y-87737681D01*
X95700663Y-87883998D01*
X95700663Y-87884001D01*
X91170236Y-87884001D01*
X91214669Y-87865596D01*
X91331754Y-87775754D01*
X91421596Y-87658669D01*
X91478074Y-87522320D01*
X91497337Y-87376000D01*
X91492324Y-87337925D01*
X91478149Y-87230247D01*
X91478074Y-87229680D01*
X91433218Y-87121389D01*
X91421596Y-87093331D01*
X91331756Y-86976247D01*
X91214668Y-86886403D01*
X91078320Y-86829926D01*
X91078318Y-86829925D01*
X90932001Y-86810663D01*
X90931999Y-86810663D01*
X90785681Y-86829925D01*
X90785679Y-86829926D01*
X90649332Y-86886403D01*
X90532246Y-86976246D01*
X90442403Y-87093332D01*
X90385926Y-87229679D01*
X90385925Y-87229681D01*
X90366663Y-87375998D01*
X90366663Y-87376001D01*
X55372000Y-87376001D01*
X55372000Y-83816000D01*
X57343364Y-83816000D01*
X57400567Y-84029486D01*
X57400570Y-84029492D01*
X57500399Y-84243578D01*
X57635894Y-84437082D01*
X57802917Y-84604105D01*
X57996421Y-84739600D01*
X58210507Y-84839429D01*
X58210516Y-84839433D01*
X58256390Y-84851725D01*
X58316051Y-84888090D01*
X58346580Y-84950937D01*
X58338285Y-85020312D01*
X58293800Y-85074190D01*
X58227248Y-85095465D01*
X58224297Y-85095500D01*
X57808192Y-85095500D01*
X57761376Y-85104812D01*
X57708286Y-85140286D01*
X57672812Y-85193376D01*
X57663500Y-85240191D01*
X57663500Y-85240194D01*
X57663500Y-86971806D01*
X57663500Y-86971808D01*
X57663499Y-86971808D01*
X57672812Y-87018623D01*
X57672813Y-87018624D01*
X57708286Y-87071714D01*
X57753432Y-87101879D01*
X57761376Y-87107187D01*
X57808191Y-87116500D01*
X57808194Y-87116500D01*
X59539808Y-87116500D01*
X59571018Y-87110291D01*
X59586624Y-87107187D01*
X59639714Y-87071714D01*
X59675187Y-87018624D01*
X59684500Y-86971806D01*
X59684500Y-86106000D01*
X60198611Y-86106000D01*
X60218121Y-86304095D01*
X60275903Y-86494574D01*
X60369731Y-86670114D01*
X60369735Y-86670121D01*
X60496011Y-86823988D01*
X60649878Y-86950264D01*
X60649885Y-86950268D01*
X60777770Y-87018624D01*
X60825427Y-87044097D01*
X61015907Y-87101879D01*
X61214000Y-87121389D01*
X61412093Y-87101879D01*
X61602573Y-87044097D01*
X61778120Y-86950265D01*
X61931988Y-86823988D01*
X62058265Y-86670120D01*
X62152097Y-86494573D01*
X62209879Y-86304093D01*
X62229389Y-86106000D01*
X62738611Y-86106000D01*
X62758121Y-86304095D01*
X62815903Y-86494574D01*
X62909731Y-86670114D01*
X62909735Y-86670121D01*
X63036011Y-86823988D01*
X63189878Y-86950264D01*
X63189885Y-86950268D01*
X63317770Y-87018624D01*
X63365427Y-87044097D01*
X63555907Y-87101879D01*
X63754000Y-87121389D01*
X63952093Y-87101879D01*
X64142573Y-87044097D01*
X64318120Y-86950265D01*
X64471988Y-86823988D01*
X64598265Y-86670120D01*
X64692097Y-86494573D01*
X64749879Y-86304093D01*
X64769389Y-86106000D01*
X65278611Y-86106000D01*
X65298121Y-86304095D01*
X65355903Y-86494574D01*
X65449731Y-86670114D01*
X65449735Y-86670121D01*
X65576011Y-86823988D01*
X65729878Y-86950264D01*
X65729885Y-86950268D01*
X65857770Y-87018624D01*
X65905427Y-87044097D01*
X66095907Y-87101879D01*
X66294000Y-87121389D01*
X66492093Y-87101879D01*
X66682573Y-87044097D01*
X66858120Y-86950265D01*
X67011988Y-86823988D01*
X67138265Y-86670120D01*
X67232097Y-86494573D01*
X67289879Y-86304093D01*
X67309389Y-86106000D01*
X67289879Y-85907907D01*
X67232097Y-85717427D01*
X67138265Y-85541880D01*
X67138264Y-85541878D01*
X67011988Y-85388011D01*
X66858121Y-85261735D01*
X66858114Y-85261731D01*
X66682574Y-85167903D01*
X66492095Y-85110121D01*
X66294000Y-85090611D01*
X66095904Y-85110121D01*
X65905425Y-85167903D01*
X65729885Y-85261731D01*
X65729878Y-85261735D01*
X65576011Y-85388011D01*
X65449735Y-85541878D01*
X65449731Y-85541885D01*
X65355903Y-85717425D01*
X65298121Y-85907904D01*
X65278611Y-86106000D01*
X64769389Y-86106000D01*
X64749879Y-85907907D01*
X64692097Y-85717427D01*
X64598265Y-85541880D01*
X64598264Y-85541878D01*
X64471988Y-85388011D01*
X64318121Y-85261735D01*
X64318114Y-85261731D01*
X64142574Y-85167903D01*
X63952095Y-85110121D01*
X63754000Y-85090611D01*
X63555904Y-85110121D01*
X63365425Y-85167903D01*
X63189885Y-85261731D01*
X63189878Y-85261735D01*
X63036011Y-85388011D01*
X62909735Y-85541878D01*
X62909731Y-85541885D01*
X62815903Y-85717425D01*
X62758121Y-85907904D01*
X62738611Y-86106000D01*
X62229389Y-86106000D01*
X62209879Y-85907907D01*
X62152097Y-85717427D01*
X62058265Y-85541880D01*
X62058264Y-85541878D01*
X61931988Y-85388011D01*
X61778121Y-85261735D01*
X61778114Y-85261731D01*
X61602574Y-85167903D01*
X61412095Y-85110121D01*
X61214000Y-85090611D01*
X61015904Y-85110121D01*
X60825425Y-85167903D01*
X60649885Y-85261731D01*
X60649878Y-85261735D01*
X60496011Y-85388011D01*
X60369735Y-85541878D01*
X60369731Y-85541885D01*
X60275903Y-85717425D01*
X60218121Y-85907904D01*
X60198611Y-86106000D01*
X59684500Y-86106000D01*
X59684500Y-85240194D01*
X59684500Y-85240191D01*
X59675187Y-85193376D01*
X59639714Y-85140286D01*
X59586624Y-85104813D01*
X59586623Y-85104812D01*
X59539808Y-85095500D01*
X59539806Y-85095500D01*
X59123703Y-85095500D01*
X59056664Y-85075815D01*
X59010909Y-85023011D01*
X59000965Y-84953853D01*
X59029990Y-84890297D01*
X59088768Y-84852523D01*
X59091610Y-84851725D01*
X59137483Y-84839433D01*
X59137492Y-84839429D01*
X59351578Y-84739600D01*
X59545082Y-84604105D01*
X59712105Y-84437082D01*
X59847600Y-84243578D01*
X59947429Y-84029492D01*
X59947433Y-84029483D01*
X59999763Y-83834183D01*
X60036128Y-83774522D01*
X60098975Y-83743993D01*
X60168350Y-83752287D01*
X60222228Y-83796773D01*
X60238198Y-83830280D01*
X60275903Y-83954574D01*
X60369731Y-84130114D01*
X60369735Y-84130121D01*
X60496011Y-84283988D01*
X60649878Y-84410264D01*
X60649885Y-84410268D01*
X60700051Y-84437082D01*
X60825427Y-84504097D01*
X61015907Y-84561879D01*
X61214000Y-84581389D01*
X61412093Y-84561879D01*
X61602573Y-84504097D01*
X61778120Y-84410265D01*
X61931988Y-84283988D01*
X62058265Y-84130120D01*
X62152097Y-83954573D01*
X62209879Y-83764093D01*
X62229389Y-83566000D01*
X62738611Y-83566000D01*
X62758121Y-83764095D01*
X62815903Y-83954574D01*
X62909731Y-84130114D01*
X62909735Y-84130121D01*
X63036011Y-84283988D01*
X63189878Y-84410264D01*
X63189885Y-84410268D01*
X63240051Y-84437082D01*
X63365427Y-84504097D01*
X63555907Y-84561879D01*
X63754000Y-84581389D01*
X63952093Y-84561879D01*
X64142573Y-84504097D01*
X64318120Y-84410265D01*
X64471988Y-84283988D01*
X64598265Y-84130120D01*
X64692097Y-83954573D01*
X64749879Y-83764093D01*
X64769389Y-83566000D01*
X65278611Y-83566000D01*
X65298121Y-83764095D01*
X65355903Y-83954574D01*
X65449731Y-84130114D01*
X65449735Y-84130121D01*
X65576011Y-84283988D01*
X65729878Y-84410264D01*
X65729885Y-84410268D01*
X65780051Y-84437082D01*
X65905427Y-84504097D01*
X66095907Y-84561879D01*
X66294000Y-84581389D01*
X66492093Y-84561879D01*
X66682573Y-84504097D01*
X66858120Y-84410265D01*
X67011988Y-84283988D01*
X67138265Y-84130120D01*
X67232097Y-83954573D01*
X67269801Y-83830278D01*
X67308098Y-83771842D01*
X67371910Y-83743386D01*
X67440977Y-83753946D01*
X67493371Y-83800170D01*
X67508236Y-83834182D01*
X67560567Y-84029486D01*
X67560570Y-84029492D01*
X67660399Y-84243578D01*
X67795894Y-84437082D01*
X67962917Y-84604105D01*
X68156421Y-84739600D01*
X68370507Y-84839429D01*
X68370516Y-84839433D01*
X68565816Y-84891763D01*
X68625477Y-84928128D01*
X68656006Y-84990975D01*
X68647711Y-85060350D01*
X68603226Y-85114228D01*
X68569719Y-85130198D01*
X68445425Y-85167903D01*
X68269885Y-85261731D01*
X68269878Y-85261735D01*
X68116011Y-85388011D01*
X67989735Y-85541878D01*
X67989731Y-85541885D01*
X67895903Y-85717425D01*
X67838121Y-85907904D01*
X67818611Y-86106000D01*
X67838121Y-86304095D01*
X67895903Y-86494574D01*
X67989731Y-86670114D01*
X67989735Y-86670121D01*
X68116011Y-86823988D01*
X68269878Y-86950264D01*
X68269885Y-86950268D01*
X68397770Y-87018624D01*
X68445427Y-87044097D01*
X68635907Y-87101879D01*
X68834000Y-87121389D01*
X69032093Y-87101879D01*
X69222573Y-87044097D01*
X69398120Y-86950265D01*
X69551988Y-86823988D01*
X69678265Y-86670120D01*
X69772097Y-86494573D01*
X69829879Y-86304093D01*
X69849389Y-86106000D01*
X69829879Y-85907907D01*
X69772097Y-85717427D01*
X69678265Y-85541880D01*
X69678264Y-85541878D01*
X69551988Y-85388011D01*
X69398121Y-85261735D01*
X69398114Y-85261731D01*
X69222574Y-85167903D01*
X69098280Y-85130198D01*
X69039842Y-85091901D01*
X69011385Y-85028088D01*
X69021946Y-84959021D01*
X69068171Y-84906628D01*
X69102183Y-84891763D01*
X69297483Y-84839433D01*
X69297492Y-84839429D01*
X69511578Y-84739600D01*
X69705082Y-84604105D01*
X69872105Y-84437082D01*
X70007600Y-84243578D01*
X70107429Y-84029492D01*
X70107432Y-84029486D01*
X70164636Y-83816000D01*
X69267686Y-83816000D01*
X69293493Y-83775844D01*
X69334000Y-83637889D01*
X69334000Y-83494111D01*
X69293493Y-83356156D01*
X69267686Y-83316000D01*
X70164636Y-83316000D01*
X70164635Y-83315999D01*
X70107432Y-83102513D01*
X70107429Y-83102507D01*
X70007600Y-82888422D01*
X70007599Y-82888420D01*
X69872113Y-82694926D01*
X69872108Y-82694920D01*
X69705082Y-82527894D01*
X69511578Y-82392399D01*
X69297492Y-82292570D01*
X69297486Y-82292567D01*
X69084000Y-82235364D01*
X69084000Y-83130498D01*
X68976315Y-83081320D01*
X68869763Y-83066000D01*
X68798237Y-83066000D01*
X68691685Y-83081320D01*
X68584000Y-83130498D01*
X68584000Y-82235364D01*
X68583999Y-82235364D01*
X68370513Y-82292567D01*
X68370507Y-82292570D01*
X68156422Y-82392399D01*
X68156420Y-82392400D01*
X67962926Y-82527886D01*
X67962920Y-82527891D01*
X67795891Y-82694920D01*
X67795886Y-82694926D01*
X67660400Y-82888420D01*
X67660399Y-82888422D01*
X67560570Y-83102507D01*
X67560567Y-83102513D01*
X67508236Y-83297817D01*
X67471871Y-83357477D01*
X67409024Y-83388006D01*
X67339648Y-83379711D01*
X67285770Y-83335226D01*
X67269801Y-83301721D01*
X67232097Y-83177427D01*
X67232095Y-83177424D01*
X67232095Y-83177422D01*
X67138268Y-83001885D01*
X67138264Y-83001878D01*
X67011988Y-82848011D01*
X66858121Y-82721735D01*
X66858114Y-82721731D01*
X66682574Y-82627903D01*
X66492095Y-82570121D01*
X66294000Y-82550611D01*
X66095904Y-82570121D01*
X65905425Y-82627903D01*
X65729885Y-82721731D01*
X65729878Y-82721735D01*
X65576011Y-82848011D01*
X65449735Y-83001878D01*
X65449731Y-83001885D01*
X65355903Y-83177425D01*
X65298121Y-83367904D01*
X65278611Y-83566000D01*
X64769389Y-83566000D01*
X64749879Y-83367907D01*
X64692097Y-83177427D01*
X64652055Y-83102513D01*
X64598268Y-83001885D01*
X64598264Y-83001878D01*
X64471988Y-82848011D01*
X64318121Y-82721735D01*
X64318114Y-82721731D01*
X64142574Y-82627903D01*
X63952095Y-82570121D01*
X63754000Y-82550611D01*
X63555904Y-82570121D01*
X63365425Y-82627903D01*
X63189885Y-82721731D01*
X63189878Y-82721735D01*
X63036011Y-82848011D01*
X62909735Y-83001878D01*
X62909731Y-83001885D01*
X62815903Y-83177425D01*
X62758121Y-83367904D01*
X62738611Y-83566000D01*
X62229389Y-83566000D01*
X62209879Y-83367907D01*
X62152097Y-83177427D01*
X62112055Y-83102513D01*
X62058268Y-83001885D01*
X62058264Y-83001878D01*
X61931988Y-82848011D01*
X61778121Y-82721735D01*
X61778114Y-82721731D01*
X61602574Y-82627903D01*
X61412095Y-82570121D01*
X61214000Y-82550611D01*
X61015904Y-82570121D01*
X60825425Y-82627903D01*
X60649885Y-82721731D01*
X60649878Y-82721735D01*
X60496011Y-82848011D01*
X60369735Y-83001878D01*
X60369731Y-83001885D01*
X60275903Y-83177425D01*
X60238198Y-83301719D01*
X60199900Y-83360158D01*
X60136088Y-83388614D01*
X60067021Y-83378053D01*
X60014628Y-83331828D01*
X59999763Y-83297816D01*
X59947433Y-83102516D01*
X59947429Y-83102507D01*
X59847600Y-82888422D01*
X59847599Y-82888420D01*
X59712113Y-82694926D01*
X59712108Y-82694920D01*
X59545082Y-82527894D01*
X59351578Y-82392399D01*
X59137492Y-82292570D01*
X59137486Y-82292567D01*
X58924000Y-82235364D01*
X58924000Y-83130498D01*
X58816315Y-83081320D01*
X58709763Y-83066000D01*
X58638237Y-83066000D01*
X58531685Y-83081320D01*
X58424000Y-83130498D01*
X58424000Y-82235364D01*
X58423999Y-82235364D01*
X58210513Y-82292567D01*
X58210507Y-82292570D01*
X57996422Y-82392399D01*
X57996420Y-82392400D01*
X57802926Y-82527886D01*
X57802920Y-82527891D01*
X57635891Y-82694920D01*
X57635886Y-82694926D01*
X57500400Y-82888420D01*
X57500399Y-82888422D01*
X57400570Y-83102507D01*
X57400567Y-83102513D01*
X57343364Y-83315999D01*
X57343364Y-83316000D01*
X58240314Y-83316000D01*
X58214507Y-83356156D01*
X58174000Y-83494111D01*
X58174000Y-83637889D01*
X58214507Y-83775844D01*
X58240314Y-83816000D01*
X57343364Y-83816000D01*
X55372000Y-83816000D01*
X55372000Y-81788001D01*
X120592663Y-81788001D01*
X120611925Y-81934318D01*
X120611926Y-81934320D01*
X120668403Y-82070668D01*
X120668404Y-82070669D01*
X120758246Y-82187754D01*
X120875331Y-82277596D01*
X121011680Y-82334074D01*
X121084840Y-82343705D01*
X121157999Y-82353337D01*
X121158000Y-82353337D01*
X121158001Y-82353337D01*
X121206773Y-82346916D01*
X121304320Y-82334074D01*
X121440669Y-82277596D01*
X121557754Y-82187754D01*
X121647596Y-82070669D01*
X121704074Y-81934320D01*
X121723337Y-81788000D01*
X121704074Y-81641680D01*
X121647596Y-81505332D01*
X121647596Y-81505331D01*
X121557756Y-81388247D01*
X121440668Y-81298403D01*
X121304320Y-81241926D01*
X121304318Y-81241925D01*
X121158001Y-81222663D01*
X121157999Y-81222663D01*
X121011681Y-81241925D01*
X121011679Y-81241926D01*
X120875332Y-81298403D01*
X120758246Y-81388246D01*
X120668403Y-81505332D01*
X120611926Y-81641679D01*
X120611925Y-81641681D01*
X120592663Y-81787998D01*
X120592663Y-81788001D01*
X55372000Y-81788001D01*
X55372000Y-81026001D01*
X86810663Y-81026001D01*
X86829925Y-81172318D01*
X86829926Y-81172320D01*
X86886403Y-81308668D01*
X86886404Y-81308669D01*
X86976246Y-81425754D01*
X87093331Y-81515596D01*
X87229680Y-81572074D01*
X87302840Y-81581705D01*
X87375999Y-81591337D01*
X87376000Y-81591337D01*
X87376001Y-81591337D01*
X87424773Y-81584916D01*
X87522320Y-81572074D01*
X87658669Y-81515596D01*
X87775754Y-81425754D01*
X87865596Y-81308669D01*
X87922074Y-81172320D01*
X87941337Y-81026000D01*
X87922074Y-80879680D01*
X87865596Y-80743332D01*
X87865596Y-80743331D01*
X87775756Y-80626247D01*
X87658668Y-80536403D01*
X87522320Y-80479926D01*
X87522318Y-80479925D01*
X87376001Y-80460663D01*
X87375999Y-80460663D01*
X87229681Y-80479925D01*
X87229679Y-80479926D01*
X87093332Y-80536403D01*
X86976246Y-80626246D01*
X86886403Y-80743332D01*
X86829926Y-80879679D01*
X86829925Y-80879681D01*
X86810663Y-81025998D01*
X86810663Y-81026001D01*
X55372000Y-81026001D01*
X55372000Y-80010001D01*
X76480663Y-80010001D01*
X76499925Y-80156318D01*
X76499926Y-80156320D01*
X76556403Y-80292668D01*
X76556404Y-80292669D01*
X76646246Y-80409754D01*
X76763331Y-80499596D01*
X76899680Y-80556074D01*
X76972840Y-80565705D01*
X77045999Y-80575337D01*
X77046000Y-80575337D01*
X77046001Y-80575337D01*
X77094773Y-80568916D01*
X77192320Y-80556074D01*
X77328669Y-80499596D01*
X77445754Y-80409754D01*
X77535596Y-80292669D01*
X77592074Y-80156320D01*
X77611337Y-80010000D01*
X77592074Y-79863680D01*
X77547472Y-79756001D01*
X102304663Y-79756001D01*
X102323925Y-79902318D01*
X102323926Y-79902320D01*
X102380403Y-80038668D01*
X102380404Y-80038669D01*
X102470246Y-80155754D01*
X102587331Y-80245596D01*
X102723680Y-80302074D01*
X102796840Y-80311705D01*
X102869999Y-80321337D01*
X102870000Y-80321337D01*
X102870001Y-80321337D01*
X102918773Y-80314916D01*
X103016320Y-80302074D01*
X103152669Y-80245596D01*
X103269754Y-80155754D01*
X103359596Y-80038669D01*
X103371471Y-80010001D01*
X108908663Y-80010001D01*
X108927925Y-80156318D01*
X108927926Y-80156320D01*
X108984403Y-80292668D01*
X108984404Y-80292669D01*
X109074246Y-80409754D01*
X109191331Y-80499596D01*
X109327680Y-80556074D01*
X109400840Y-80565705D01*
X109473999Y-80575337D01*
X109474000Y-80575337D01*
X109474001Y-80575337D01*
X109522773Y-80568916D01*
X109620320Y-80556074D01*
X109756669Y-80499596D01*
X109873754Y-80409754D01*
X109963596Y-80292669D01*
X110020074Y-80156320D01*
X110039337Y-80010000D01*
X110020074Y-79863680D01*
X109966773Y-79735001D01*
X111723663Y-79735001D01*
X111742925Y-79881318D01*
X111742926Y-79881320D01*
X111799403Y-80017668D01*
X111799404Y-80017669D01*
X111889246Y-80134754D01*
X112006331Y-80224596D01*
X112142680Y-80281074D01*
X112215840Y-80290705D01*
X112288999Y-80300337D01*
X112289000Y-80300337D01*
X112289001Y-80300337D01*
X112347253Y-80292668D01*
X112435320Y-80281074D01*
X112571669Y-80224596D01*
X112688754Y-80134754D01*
X112778596Y-80017669D01*
X112835074Y-79881320D01*
X112854337Y-79735000D01*
X112853327Y-79727331D01*
X112837839Y-79609680D01*
X112835074Y-79588680D01*
X112787294Y-79473331D01*
X112778596Y-79452331D01*
X112688756Y-79335247D01*
X112571668Y-79245403D01*
X112435320Y-79188926D01*
X112435318Y-79188925D01*
X112289001Y-79169663D01*
X112288999Y-79169663D01*
X112142681Y-79188925D01*
X112142679Y-79188926D01*
X112006332Y-79245403D01*
X111889246Y-79335246D01*
X111799403Y-79452332D01*
X111742926Y-79588679D01*
X111742925Y-79588681D01*
X111723663Y-79734998D01*
X111723663Y-79735001D01*
X109966773Y-79735001D01*
X109963596Y-79727331D01*
X109873756Y-79610247D01*
X109756668Y-79520403D01*
X109620320Y-79463926D01*
X109620318Y-79463925D01*
X109474001Y-79444663D01*
X109473999Y-79444663D01*
X109327681Y-79463925D01*
X109327679Y-79463926D01*
X109191332Y-79520403D01*
X109074246Y-79610246D01*
X108984403Y-79727332D01*
X108927926Y-79863679D01*
X108927925Y-79863681D01*
X108908663Y-80009998D01*
X108908663Y-80010001D01*
X103371471Y-80010001D01*
X103416074Y-79902320D01*
X103435337Y-79756000D01*
X103432572Y-79735001D01*
X103416149Y-79610247D01*
X103416074Y-79609680D01*
X103359596Y-79473332D01*
X103359596Y-79473331D01*
X103269756Y-79356247D01*
X103152668Y-79266403D01*
X103016320Y-79209926D01*
X103016318Y-79209925D01*
X102870001Y-79190663D01*
X102869999Y-79190663D01*
X102723681Y-79209925D01*
X102723679Y-79209926D01*
X102587332Y-79266403D01*
X102470246Y-79356246D01*
X102380403Y-79473332D01*
X102323926Y-79609679D01*
X102323925Y-79609681D01*
X102304663Y-79755998D01*
X102304663Y-79756001D01*
X77547472Y-79756001D01*
X77538773Y-79735001D01*
X77535596Y-79727331D01*
X77445756Y-79610247D01*
X77328668Y-79520403D01*
X77192320Y-79463926D01*
X77192318Y-79463925D01*
X77046001Y-79444663D01*
X77045999Y-79444663D01*
X76899681Y-79463925D01*
X76899679Y-79463926D01*
X76763332Y-79520403D01*
X76646246Y-79610246D01*
X76556403Y-79727332D01*
X76499926Y-79863679D01*
X76499925Y-79863681D01*
X76480663Y-80009998D01*
X76480663Y-80010001D01*
X55372000Y-80010001D01*
X55372000Y-76962000D01*
X62885474Y-76962000D01*
X62905547Y-77217064D01*
X62965279Y-77465864D01*
X63063188Y-77702239D01*
X63063190Y-77702242D01*
X63196875Y-77920396D01*
X63196878Y-77920401D01*
X63272200Y-78008591D01*
X63363044Y-78114956D01*
X63487579Y-78221319D01*
X63557598Y-78281121D01*
X63557603Y-78281124D01*
X63775757Y-78414809D01*
X63775760Y-78414811D01*
X64012135Y-78512720D01*
X64012140Y-78512722D01*
X64260930Y-78572452D01*
X64452137Y-78587500D01*
X64452145Y-78587500D01*
X64579855Y-78587500D01*
X64579863Y-78587500D01*
X64771070Y-78572452D01*
X65019860Y-78512722D01*
X65138051Y-78463765D01*
X65256239Y-78414811D01*
X65256240Y-78414810D01*
X65256243Y-78414809D01*
X65474399Y-78281123D01*
X65668956Y-78114956D01*
X65835123Y-77920399D01*
X65968809Y-77702243D01*
X66066722Y-77465860D01*
X66126452Y-77217070D01*
X66146526Y-76962000D01*
X140863474Y-76962000D01*
X140883547Y-77217064D01*
X140943279Y-77465864D01*
X141041188Y-77702239D01*
X141041190Y-77702242D01*
X141174875Y-77920396D01*
X141174878Y-77920401D01*
X141250200Y-78008591D01*
X141341044Y-78114956D01*
X141465579Y-78221319D01*
X141535598Y-78281121D01*
X141535603Y-78281124D01*
X141753757Y-78414809D01*
X141753760Y-78414811D01*
X141990135Y-78512720D01*
X141990140Y-78512722D01*
X142238930Y-78572452D01*
X142430137Y-78587500D01*
X142430145Y-78587500D01*
X142557855Y-78587500D01*
X142557863Y-78587500D01*
X142749070Y-78572452D01*
X142997860Y-78512722D01*
X143116051Y-78463765D01*
X143234239Y-78414811D01*
X143234240Y-78414810D01*
X143234243Y-78414809D01*
X143452399Y-78281123D01*
X143646956Y-78114956D01*
X143813123Y-77920399D01*
X143946809Y-77702243D01*
X144044722Y-77465860D01*
X144104452Y-77217070D01*
X144124526Y-76962000D01*
X144104452Y-76706930D01*
X144044722Y-76458140D01*
X144044720Y-76458135D01*
X143946811Y-76221760D01*
X143946809Y-76221757D01*
X143813124Y-76003603D01*
X143813121Y-76003598D01*
X143753319Y-75933579D01*
X143646956Y-75809044D01*
X143540591Y-75718200D01*
X143452401Y-75642878D01*
X143452396Y-75642875D01*
X143234242Y-75509190D01*
X143234239Y-75509188D01*
X142997864Y-75411279D01*
X142997860Y-75411278D01*
X142749070Y-75351548D01*
X142749068Y-75351547D01*
X142749065Y-75351547D01*
X142557868Y-75336500D01*
X142557863Y-75336500D01*
X142430137Y-75336500D01*
X142430131Y-75336500D01*
X142238934Y-75351547D01*
X141990135Y-75411279D01*
X141753760Y-75509188D01*
X141753757Y-75509190D01*
X141535603Y-75642875D01*
X141535598Y-75642878D01*
X141341044Y-75809044D01*
X141174878Y-76003598D01*
X141174875Y-76003603D01*
X141041190Y-76221757D01*
X141041188Y-76221760D01*
X140943279Y-76458135D01*
X140883547Y-76706935D01*
X140863474Y-76962000D01*
X66146526Y-76962000D01*
X66126452Y-76706930D01*
X66066722Y-76458140D01*
X66066720Y-76458135D01*
X65968811Y-76221760D01*
X65968809Y-76221757D01*
X65835124Y-76003603D01*
X65835121Y-76003598D01*
X65775319Y-75933579D01*
X65668956Y-75809044D01*
X65562591Y-75718200D01*
X65474401Y-75642878D01*
X65474396Y-75642875D01*
X65256242Y-75509190D01*
X65256239Y-75509188D01*
X65019864Y-75411279D01*
X65019860Y-75411278D01*
X64771070Y-75351548D01*
X64771068Y-75351547D01*
X64771065Y-75351547D01*
X64579868Y-75336500D01*
X64579863Y-75336500D01*
X64452137Y-75336500D01*
X64452131Y-75336500D01*
X64260934Y-75351547D01*
X64012135Y-75411279D01*
X63775760Y-75509188D01*
X63775757Y-75509190D01*
X63557603Y-75642875D01*
X63557598Y-75642878D01*
X63363044Y-75809044D01*
X63196878Y-76003598D01*
X63196875Y-76003603D01*
X63063190Y-76221757D01*
X63063188Y-76221760D01*
X62965279Y-76458135D01*
X62905547Y-76706935D01*
X62885474Y-76962000D01*
X55372000Y-76962000D01*
X55372000Y-72644001D01*
X85540663Y-72644001D01*
X85559925Y-72790318D01*
X85559926Y-72790320D01*
X85616403Y-72926668D01*
X85616404Y-72926669D01*
X85706246Y-73043754D01*
X85823331Y-73133596D01*
X85959680Y-73190074D01*
X86032840Y-73199705D01*
X86105999Y-73209337D01*
X86106000Y-73209337D01*
X86106001Y-73209337D01*
X86154773Y-73202916D01*
X86252320Y-73190074D01*
X86388669Y-73133596D01*
X86505754Y-73043754D01*
X86595596Y-72926669D01*
X86652074Y-72790320D01*
X86671337Y-72644000D01*
X86664030Y-72588500D01*
X86652074Y-72497681D01*
X86652074Y-72497680D01*
X86629759Y-72443808D01*
X145089499Y-72443808D01*
X145098812Y-72490623D01*
X145103528Y-72497681D01*
X145134286Y-72543714D01*
X145187376Y-72579187D01*
X145234191Y-72588500D01*
X145234194Y-72588500D01*
X146865808Y-72588500D01*
X146897018Y-72582291D01*
X146912624Y-72579187D01*
X146965714Y-72543714D01*
X147001187Y-72490624D01*
X147010500Y-72443806D01*
X147010500Y-72365309D01*
X147030185Y-72298270D01*
X147046819Y-72277628D01*
X147652046Y-71672400D01*
X147664835Y-71753148D01*
X147722359Y-71866045D01*
X147811955Y-71955641D01*
X147924852Y-72013165D01*
X148005599Y-72025953D01*
X147324526Y-72707025D01*
X147397513Y-72758132D01*
X147397521Y-72758136D01*
X147603668Y-72854264D01*
X147603682Y-72854269D01*
X147823389Y-72913139D01*
X147823400Y-72913141D01*
X148049998Y-72932966D01*
X148050002Y-72932966D01*
X148276599Y-72913141D01*
X148276610Y-72913139D01*
X148496317Y-72854269D01*
X148496331Y-72854264D01*
X148702478Y-72758136D01*
X148775471Y-72707024D01*
X148094400Y-72025953D01*
X148175148Y-72013165D01*
X148288045Y-71955641D01*
X148377641Y-71866045D01*
X148435165Y-71753148D01*
X148447953Y-71672400D01*
X149129024Y-72353471D01*
X149180136Y-72280478D01*
X149276264Y-72074331D01*
X149276269Y-72074317D01*
X149335139Y-71854610D01*
X149335141Y-71854599D01*
X149354966Y-71628002D01*
X149354966Y-71627997D01*
X149335141Y-71401400D01*
X149335139Y-71401389D01*
X149276269Y-71181682D01*
X149276264Y-71181668D01*
X149180136Y-70975521D01*
X149180132Y-70975513D01*
X149129025Y-70902526D01*
X148447953Y-71583598D01*
X148435165Y-71502852D01*
X148377641Y-71389955D01*
X148288045Y-71300359D01*
X148175148Y-71242835D01*
X148094401Y-71230046D01*
X148775472Y-70548974D01*
X148702478Y-70497863D01*
X148496331Y-70401735D01*
X148496317Y-70401730D01*
X148276610Y-70342860D01*
X148276599Y-70342858D01*
X148050002Y-70323034D01*
X148049998Y-70323034D01*
X147823400Y-70342858D01*
X147823389Y-70342860D01*
X147603682Y-70401730D01*
X147603673Y-70401734D01*
X147397516Y-70497866D01*
X147397512Y-70497868D01*
X147324526Y-70548973D01*
X147324526Y-70548974D01*
X148005599Y-71230046D01*
X147924852Y-71242835D01*
X147811955Y-71300359D01*
X147722359Y-71389955D01*
X147664835Y-71502852D01*
X147652046Y-71583599D01*
X147046819Y-70978372D01*
X147013334Y-70917049D01*
X147010500Y-70890691D01*
X147010500Y-70812191D01*
X147001187Y-70765376D01*
X146965714Y-70712286D01*
X146912624Y-70676813D01*
X146912623Y-70676812D01*
X146865808Y-70667500D01*
X146865806Y-70667500D01*
X145234194Y-70667500D01*
X145234192Y-70667500D01*
X145187376Y-70676812D01*
X145134286Y-70712286D01*
X145098812Y-70765376D01*
X145089500Y-70812191D01*
X145089500Y-70812194D01*
X145089500Y-72443806D01*
X145089500Y-72443808D01*
X145089499Y-72443808D01*
X86629759Y-72443808D01*
X86618989Y-72417809D01*
X86595596Y-72361331D01*
X86505756Y-72244247D01*
X86388668Y-72154403D01*
X86314805Y-72123808D01*
X136011499Y-72123808D01*
X136020812Y-72170623D01*
X136020813Y-72170624D01*
X136056286Y-72223714D01*
X136109376Y-72259187D01*
X136156191Y-72268500D01*
X136156194Y-72268500D01*
X139687808Y-72268500D01*
X139719018Y-72262291D01*
X139734624Y-72259187D01*
X139787714Y-72223714D01*
X139823187Y-72170624D01*
X139832500Y-72123806D01*
X139832500Y-68592194D01*
X139832500Y-68592191D01*
X139823187Y-68545376D01*
X139820881Y-68541925D01*
X139787714Y-68492286D01*
X139734624Y-68456813D01*
X139734623Y-68456812D01*
X139687808Y-68447500D01*
X139687806Y-68447500D01*
X136156194Y-68447500D01*
X136156192Y-68447500D01*
X136109376Y-68456812D01*
X136056286Y-68492286D01*
X136020812Y-68545376D01*
X136011500Y-68592191D01*
X136011500Y-68592194D01*
X136011500Y-72123806D01*
X136011500Y-72123808D01*
X136011499Y-72123808D01*
X86314805Y-72123808D01*
X86252320Y-72097926D01*
X86252318Y-72097925D01*
X86106001Y-72078663D01*
X86105999Y-72078663D01*
X85959681Y-72097925D01*
X85959679Y-72097926D01*
X85823332Y-72154403D01*
X85706246Y-72244246D01*
X85616403Y-72361332D01*
X85559926Y-72497679D01*
X85559925Y-72497681D01*
X85540663Y-72643998D01*
X85540663Y-72644001D01*
X55372000Y-72644001D01*
X55372000Y-69088001D01*
X95192663Y-69088001D01*
X95211925Y-69234318D01*
X95211926Y-69234320D01*
X95268403Y-69370668D01*
X95272165Y-69375571D01*
X95358246Y-69487754D01*
X95475331Y-69577596D01*
X95611680Y-69634074D01*
X95684840Y-69643705D01*
X95757999Y-69653337D01*
X95758000Y-69653337D01*
X95758001Y-69653337D01*
X95806773Y-69646916D01*
X95904320Y-69634074D01*
X96040669Y-69577596D01*
X96157754Y-69487754D01*
X96247596Y-69370669D01*
X96304074Y-69234320D01*
X96322000Y-69098155D01*
X96323337Y-69088001D01*
X96323337Y-69087998D01*
X96304074Y-68941681D01*
X96304074Y-68941680D01*
X96266315Y-68850523D01*
X96247596Y-68805331D01*
X96157756Y-68688247D01*
X96040668Y-68598403D01*
X95904320Y-68541926D01*
X95904318Y-68541925D01*
X95758001Y-68522663D01*
X95757999Y-68522663D01*
X95611681Y-68541925D01*
X95611679Y-68541926D01*
X95475332Y-68598403D01*
X95358246Y-68688246D01*
X95268403Y-68805332D01*
X95211926Y-68941679D01*
X95211925Y-68941681D01*
X95192663Y-69087998D01*
X95192663Y-69088001D01*
X55372000Y-69088001D01*
X55372000Y-67417933D01*
X72141668Y-67417933D01*
X72167425Y-67563999D01*
X72172135Y-67590711D01*
X72241623Y-67751804D01*
X72241624Y-67751806D01*
X72241626Y-67751809D01*
X72296278Y-67825218D01*
X72346390Y-67892530D01*
X72480786Y-68005302D01*
X72558488Y-68044325D01*
X72637562Y-68084038D01*
X72637563Y-68084038D01*
X72637567Y-68084040D01*
X72808279Y-68124500D01*
X72808282Y-68124500D01*
X72939701Y-68124500D01*
X72939709Y-68124500D01*
X73070255Y-68109241D01*
X73235117Y-68049237D01*
X73381696Y-67952830D01*
X73502092Y-67825218D01*
X73589812Y-67673281D01*
X73640130Y-67505210D01*
X73645213Y-67417933D01*
X80141668Y-67417933D01*
X80167425Y-67563999D01*
X80172135Y-67590711D01*
X80241623Y-67751804D01*
X80241624Y-67751806D01*
X80241626Y-67751809D01*
X80296278Y-67825218D01*
X80346390Y-67892530D01*
X80480786Y-68005302D01*
X80558488Y-68044325D01*
X80637562Y-68084038D01*
X80637563Y-68084038D01*
X80637567Y-68084040D01*
X80808279Y-68124500D01*
X80808282Y-68124500D01*
X80939701Y-68124500D01*
X80939709Y-68124500D01*
X81070255Y-68109241D01*
X81235117Y-68049237D01*
X81381696Y-67952830D01*
X81502092Y-67825218D01*
X81589812Y-67673281D01*
X81622529Y-67564001D01*
X100752843Y-67564001D01*
X100773430Y-67799315D01*
X100773432Y-67799326D01*
X100834566Y-68027483D01*
X100834570Y-68027492D01*
X100934400Y-68241579D01*
X100934402Y-68241583D01*
X100993072Y-68325373D01*
X100993073Y-68325373D01*
X101624923Y-67693523D01*
X101648507Y-67773844D01*
X101726239Y-67894798D01*
X101834900Y-67988952D01*
X101965685Y-68048680D01*
X101975466Y-68050086D01*
X101346625Y-68678925D01*
X101430421Y-68737599D01*
X101644507Y-68837429D01*
X101644518Y-68837434D01*
X101690391Y-68849725D01*
X101750052Y-68886089D01*
X101780582Y-68948936D01*
X101772288Y-69018311D01*
X101727803Y-69072190D01*
X101661251Y-69093465D01*
X101658300Y-69093500D01*
X101475688Y-69093500D01*
X101475688Y-69093501D01*
X101379571Y-69108723D01*
X101379570Y-69108723D01*
X101263704Y-69167760D01*
X101263700Y-69167763D01*
X101171763Y-69259700D01*
X101171760Y-69259704D01*
X101112723Y-69375571D01*
X101097500Y-69471692D01*
X101097500Y-70736311D01*
X101112723Y-70832428D01*
X101112723Y-70832429D01*
X101112724Y-70832432D01*
X101112725Y-70832433D01*
X101171744Y-70948265D01*
X101171760Y-70948295D01*
X101171763Y-70948299D01*
X101263700Y-71040236D01*
X101263704Y-71040239D01*
X101263706Y-71040241D01*
X101379567Y-71099275D01*
X101379569Y-71099275D01*
X101379571Y-71099276D01*
X101408728Y-71103893D01*
X101475693Y-71114500D01*
X102740306Y-71114499D01*
X102740311Y-71114499D01*
X102740311Y-71114498D01*
X102788369Y-71106887D01*
X102836428Y-71099276D01*
X102836429Y-71099276D01*
X102836430Y-71099275D01*
X102836433Y-71099275D01*
X102952294Y-71040241D01*
X103044241Y-70948294D01*
X103103275Y-70832433D01*
X103118500Y-70736307D01*
X103118499Y-70104000D01*
X103632611Y-70104000D01*
X103652121Y-70302095D01*
X103709903Y-70492574D01*
X103803731Y-70668114D01*
X103803735Y-70668121D01*
X103930011Y-70821988D01*
X104083878Y-70948264D01*
X104083885Y-70948268D01*
X104134857Y-70975513D01*
X104259427Y-71042097D01*
X104449907Y-71099879D01*
X104648000Y-71119389D01*
X104846093Y-71099879D01*
X105036573Y-71042097D01*
X105212120Y-70948265D01*
X105365988Y-70821988D01*
X105492265Y-70668120D01*
X105586097Y-70492573D01*
X105643879Y-70302093D01*
X105663389Y-70104000D01*
X105643879Y-69905907D01*
X105586097Y-69715427D01*
X105492265Y-69539880D01*
X105492264Y-69539878D01*
X105365988Y-69386011D01*
X105212121Y-69259735D01*
X105212114Y-69259731D01*
X105036574Y-69165903D01*
X104846095Y-69108121D01*
X104648000Y-69088611D01*
X104449904Y-69108121D01*
X104259425Y-69165903D01*
X104083885Y-69259731D01*
X104083878Y-69259735D01*
X103930011Y-69386011D01*
X103803735Y-69539878D01*
X103803731Y-69539885D01*
X103709903Y-69715425D01*
X103652121Y-69905904D01*
X103632611Y-70104000D01*
X103118499Y-70104000D01*
X103118499Y-69471694D01*
X103118499Y-69471692D01*
X103118499Y-69471688D01*
X103103276Y-69375571D01*
X103103276Y-69375570D01*
X103103275Y-69375568D01*
X103103275Y-69375567D01*
X103044241Y-69259706D01*
X103044239Y-69259704D01*
X103044236Y-69259700D01*
X102952299Y-69167763D01*
X102952295Y-69167760D01*
X102952294Y-69167759D01*
X102836433Y-69108725D01*
X102836431Y-69108724D01*
X102836428Y-69108723D01*
X102740307Y-69093500D01*
X102557702Y-69093500D01*
X102490663Y-69073815D01*
X102444908Y-69021011D01*
X102434964Y-68951853D01*
X102463989Y-68888297D01*
X102522767Y-68850523D01*
X102525609Y-68849725D01*
X102571483Y-68837433D01*
X102571492Y-68837429D01*
X102785578Y-68737600D01*
X102785582Y-68737598D01*
X102869373Y-68678926D01*
X102869373Y-68678925D01*
X102240533Y-68050086D01*
X102250315Y-68048680D01*
X102381100Y-67988952D01*
X102489761Y-67894798D01*
X102567493Y-67773844D01*
X102591076Y-67693523D01*
X103222926Y-68325373D01*
X103281598Y-68241582D01*
X103281600Y-68241578D01*
X103381429Y-68027492D01*
X103381433Y-68027483D01*
X103433763Y-67832183D01*
X103470128Y-67772522D01*
X103532975Y-67741993D01*
X103602350Y-67750287D01*
X103656228Y-67794773D01*
X103672198Y-67828280D01*
X103709903Y-67952574D01*
X103803731Y-68128114D01*
X103803735Y-68128121D01*
X103930011Y-68281988D01*
X104083878Y-68408264D01*
X104083885Y-68408268D01*
X104241072Y-68492286D01*
X104259427Y-68502097D01*
X104449907Y-68559879D01*
X104648000Y-68579389D01*
X104846093Y-68559879D01*
X105036573Y-68502097D01*
X105212120Y-68408265D01*
X105365988Y-68281988D01*
X105492265Y-68128120D01*
X105586097Y-67952573D01*
X105623801Y-67828278D01*
X105662098Y-67769842D01*
X105725910Y-67741386D01*
X105794977Y-67751946D01*
X105847371Y-67798170D01*
X105862236Y-67832182D01*
X105914567Y-68027486D01*
X105914570Y-68027492D01*
X106014400Y-68241579D01*
X106014402Y-68241583D01*
X106073072Y-68325373D01*
X106073073Y-68325373D01*
X106704923Y-67693523D01*
X106728507Y-67773844D01*
X106806239Y-67894798D01*
X106914900Y-67988952D01*
X107045685Y-68048680D01*
X107055466Y-68050086D01*
X106426625Y-68678925D01*
X106510421Y-68737599D01*
X106724507Y-68837429D01*
X106724516Y-68837433D01*
X106919816Y-68889763D01*
X106979477Y-68926128D01*
X107010006Y-68988975D01*
X107001711Y-69058350D01*
X106957226Y-69112228D01*
X106923719Y-69128198D01*
X106799425Y-69165903D01*
X106623885Y-69259731D01*
X106623878Y-69259735D01*
X106470011Y-69386011D01*
X106343735Y-69539878D01*
X106343731Y-69539885D01*
X106249903Y-69715425D01*
X106192121Y-69905904D01*
X106172611Y-70104000D01*
X106192121Y-70302095D01*
X106249903Y-70492574D01*
X106343731Y-70668114D01*
X106343735Y-70668121D01*
X106470011Y-70821988D01*
X106623878Y-70948264D01*
X106623885Y-70948268D01*
X106674857Y-70975513D01*
X106799427Y-71042097D01*
X106989907Y-71099879D01*
X107188000Y-71119389D01*
X107386093Y-71099879D01*
X107576573Y-71042097D01*
X107752120Y-70948265D01*
X107905988Y-70821988D01*
X108032265Y-70668120D01*
X108126097Y-70492573D01*
X108183879Y-70302093D01*
X108203389Y-70104000D01*
X108712611Y-70104000D01*
X108732121Y-70302095D01*
X108789903Y-70492574D01*
X108883731Y-70668114D01*
X108883735Y-70668121D01*
X109010011Y-70821988D01*
X109163878Y-70948264D01*
X109163885Y-70948268D01*
X109214857Y-70975513D01*
X109339427Y-71042097D01*
X109529907Y-71099879D01*
X109728000Y-71119389D01*
X109926093Y-71099879D01*
X110116573Y-71042097D01*
X110292120Y-70948265D01*
X110445988Y-70821988D01*
X110572265Y-70668120D01*
X110666097Y-70492573D01*
X110723879Y-70302093D01*
X110743389Y-70104000D01*
X110723879Y-69905907D01*
X110666097Y-69715427D01*
X110572265Y-69539880D01*
X110572264Y-69539878D01*
X110445988Y-69386011D01*
X110292121Y-69259735D01*
X110292114Y-69259731D01*
X110116574Y-69165903D01*
X109926095Y-69108121D01*
X109728000Y-69088611D01*
X109529904Y-69108121D01*
X109339425Y-69165903D01*
X109163885Y-69259731D01*
X109163878Y-69259735D01*
X109010011Y-69386011D01*
X108883735Y-69539878D01*
X108883731Y-69539885D01*
X108789903Y-69715425D01*
X108732121Y-69905904D01*
X108712611Y-70104000D01*
X108203389Y-70104000D01*
X108183879Y-69905907D01*
X108126097Y-69715427D01*
X108032265Y-69539880D01*
X108032264Y-69539878D01*
X107905988Y-69386011D01*
X107752121Y-69259735D01*
X107752114Y-69259731D01*
X107576574Y-69165903D01*
X107452280Y-69128198D01*
X107393842Y-69089901D01*
X107365385Y-69026088D01*
X107375946Y-68957021D01*
X107422171Y-68904628D01*
X107456183Y-68889763D01*
X107651483Y-68837433D01*
X107651492Y-68837429D01*
X107865578Y-68737600D01*
X107865582Y-68737598D01*
X107949373Y-68678926D01*
X107949373Y-68678925D01*
X107320533Y-68050086D01*
X107330315Y-68048680D01*
X107461100Y-67988952D01*
X107569761Y-67894798D01*
X107647493Y-67773844D01*
X107671076Y-67693524D01*
X108302925Y-68325373D01*
X108302926Y-68325373D01*
X108361598Y-68241582D01*
X108361600Y-68241578D01*
X108461429Y-68027492D01*
X108461433Y-68027483D01*
X108513763Y-67832183D01*
X108550128Y-67772522D01*
X108612975Y-67741993D01*
X108682350Y-67750287D01*
X108736228Y-67794773D01*
X108752198Y-67828280D01*
X108789903Y-67952574D01*
X108883731Y-68128114D01*
X108883735Y-68128121D01*
X109010011Y-68281988D01*
X109163878Y-68408264D01*
X109163885Y-68408268D01*
X109321072Y-68492286D01*
X109339427Y-68502097D01*
X109529907Y-68559879D01*
X109728000Y-68579389D01*
X109926093Y-68559879D01*
X110116573Y-68502097D01*
X110292120Y-68408265D01*
X110445988Y-68281988D01*
X110572265Y-68128120D01*
X110666097Y-67952573D01*
X110703801Y-67828278D01*
X110742098Y-67769842D01*
X110805910Y-67741386D01*
X110874977Y-67751946D01*
X110927371Y-67798170D01*
X110942236Y-67832182D01*
X110994567Y-68027486D01*
X110994570Y-68027492D01*
X111094400Y-68241579D01*
X111094402Y-68241583D01*
X111153072Y-68325373D01*
X111153073Y-68325373D01*
X111784923Y-67693523D01*
X111808507Y-67773844D01*
X111886239Y-67894798D01*
X111994900Y-67988952D01*
X112125685Y-68048680D01*
X112135466Y-68050086D01*
X111506625Y-68678925D01*
X111590421Y-68737599D01*
X111804507Y-68837429D01*
X111804516Y-68837433D01*
X111999816Y-68889763D01*
X112059477Y-68926128D01*
X112090006Y-68988975D01*
X112081711Y-69058350D01*
X112037226Y-69112228D01*
X112003719Y-69128198D01*
X111879425Y-69165903D01*
X111703885Y-69259731D01*
X111703878Y-69259735D01*
X111550011Y-69386011D01*
X111423735Y-69539878D01*
X111423731Y-69539885D01*
X111329903Y-69715425D01*
X111272121Y-69905904D01*
X111252611Y-70104000D01*
X111272121Y-70302095D01*
X111329903Y-70492574D01*
X111423731Y-70668114D01*
X111423735Y-70668121D01*
X111550011Y-70821988D01*
X111703878Y-70948264D01*
X111703885Y-70948268D01*
X111754857Y-70975513D01*
X111879427Y-71042097D01*
X112069907Y-71099879D01*
X112268000Y-71119389D01*
X112466093Y-71099879D01*
X112656573Y-71042097D01*
X112832120Y-70948265D01*
X112985988Y-70821988D01*
X113112265Y-70668120D01*
X113206097Y-70492573D01*
X113263879Y-70302093D01*
X113283389Y-70104000D01*
X113792611Y-70104000D01*
X113812121Y-70302095D01*
X113869903Y-70492574D01*
X113963731Y-70668114D01*
X113963735Y-70668121D01*
X114090011Y-70821988D01*
X114243878Y-70948264D01*
X114243885Y-70948268D01*
X114294857Y-70975513D01*
X114419427Y-71042097D01*
X114609907Y-71099879D01*
X114808000Y-71119389D01*
X115006093Y-71099879D01*
X115196573Y-71042097D01*
X115372120Y-70948265D01*
X115525988Y-70821988D01*
X115652265Y-70668120D01*
X115746097Y-70492573D01*
X115803879Y-70302093D01*
X115823389Y-70104000D01*
X115803879Y-69905907D01*
X115746097Y-69715427D01*
X115652265Y-69539880D01*
X115652264Y-69539878D01*
X115525988Y-69386011D01*
X115372121Y-69259735D01*
X115372114Y-69259731D01*
X115196574Y-69165903D01*
X115006095Y-69108121D01*
X114808000Y-69088611D01*
X114609904Y-69108121D01*
X114419425Y-69165903D01*
X114243885Y-69259731D01*
X114243878Y-69259735D01*
X114090011Y-69386011D01*
X113963735Y-69539878D01*
X113963731Y-69539885D01*
X113869903Y-69715425D01*
X113812121Y-69905904D01*
X113792611Y-70104000D01*
X113283389Y-70104000D01*
X113263879Y-69905907D01*
X113206097Y-69715427D01*
X113112265Y-69539880D01*
X113112264Y-69539878D01*
X112985988Y-69386011D01*
X112832121Y-69259735D01*
X112832114Y-69259731D01*
X112656574Y-69165903D01*
X112532280Y-69128198D01*
X112473842Y-69089901D01*
X112445385Y-69026088D01*
X112455946Y-68957021D01*
X112502171Y-68904628D01*
X112536183Y-68889763D01*
X112731483Y-68837433D01*
X112731492Y-68837429D01*
X112945578Y-68737600D01*
X112945582Y-68737598D01*
X113029373Y-68678926D01*
X113029373Y-68678925D01*
X112400533Y-68050086D01*
X112410315Y-68048680D01*
X112541100Y-67988952D01*
X112649761Y-67894798D01*
X112727493Y-67773844D01*
X112751076Y-67693524D01*
X113382925Y-68325373D01*
X113382926Y-68325373D01*
X113441598Y-68241582D01*
X113441600Y-68241578D01*
X113541429Y-68027492D01*
X113541433Y-68027483D01*
X113593763Y-67832183D01*
X113630128Y-67772522D01*
X113692975Y-67741993D01*
X113762350Y-67750287D01*
X113816228Y-67794773D01*
X113832198Y-67828280D01*
X113869903Y-67952574D01*
X113963731Y-68128114D01*
X113963735Y-68128121D01*
X114090011Y-68281988D01*
X114243878Y-68408264D01*
X114243885Y-68408268D01*
X114401072Y-68492286D01*
X114419427Y-68502097D01*
X114609907Y-68559879D01*
X114808000Y-68579389D01*
X115006093Y-68559879D01*
X115196573Y-68502097D01*
X115372120Y-68408265D01*
X115525988Y-68281988D01*
X115652265Y-68128120D01*
X115746097Y-67952573D01*
X115783801Y-67828278D01*
X115822098Y-67769842D01*
X115885910Y-67741386D01*
X115954977Y-67751946D01*
X116007371Y-67798170D01*
X116022236Y-67832182D01*
X116074567Y-68027486D01*
X116074570Y-68027492D01*
X116174400Y-68241579D01*
X116174402Y-68241583D01*
X116233072Y-68325373D01*
X116233073Y-68325373D01*
X116864923Y-67693523D01*
X116888507Y-67773844D01*
X116966239Y-67894798D01*
X117074900Y-67988952D01*
X117205685Y-68048680D01*
X117215466Y-68050086D01*
X116586625Y-68678925D01*
X116670421Y-68737599D01*
X116884507Y-68837429D01*
X116884516Y-68837433D01*
X117079816Y-68889763D01*
X117139477Y-68926128D01*
X117170006Y-68988975D01*
X117161711Y-69058350D01*
X117117226Y-69112228D01*
X117083719Y-69128198D01*
X116959425Y-69165903D01*
X116783885Y-69259731D01*
X116783878Y-69259735D01*
X116630011Y-69386011D01*
X116503735Y-69539878D01*
X116503731Y-69539885D01*
X116409903Y-69715425D01*
X116352121Y-69905904D01*
X116332611Y-70104000D01*
X116352121Y-70302095D01*
X116409903Y-70492574D01*
X116503731Y-70668114D01*
X116503735Y-70668121D01*
X116630011Y-70821988D01*
X116783878Y-70948264D01*
X116783885Y-70948268D01*
X116834857Y-70975513D01*
X116959427Y-71042097D01*
X117149907Y-71099879D01*
X117348000Y-71119389D01*
X117546093Y-71099879D01*
X117736573Y-71042097D01*
X117912120Y-70948265D01*
X118065988Y-70821988D01*
X118192265Y-70668120D01*
X118286097Y-70492573D01*
X118343879Y-70302093D01*
X118363389Y-70104000D01*
X118872611Y-70104000D01*
X118892121Y-70302095D01*
X118949903Y-70492574D01*
X119043731Y-70668114D01*
X119043735Y-70668121D01*
X119170011Y-70821988D01*
X119323878Y-70948264D01*
X119323885Y-70948268D01*
X119374857Y-70975513D01*
X119499427Y-71042097D01*
X119689907Y-71099879D01*
X119888000Y-71119389D01*
X120086093Y-71099879D01*
X120276573Y-71042097D01*
X120452120Y-70948265D01*
X120605988Y-70821988D01*
X120732265Y-70668120D01*
X120826097Y-70492573D01*
X120883879Y-70302093D01*
X120903389Y-70104000D01*
X121412611Y-70104000D01*
X121432121Y-70302095D01*
X121489903Y-70492574D01*
X121583731Y-70668114D01*
X121583735Y-70668121D01*
X121710011Y-70821988D01*
X121863878Y-70948264D01*
X121863885Y-70948268D01*
X121914857Y-70975513D01*
X122039427Y-71042097D01*
X122229907Y-71099879D01*
X122428000Y-71119389D01*
X122626093Y-71099879D01*
X122816573Y-71042097D01*
X122992120Y-70948265D01*
X123145988Y-70821988D01*
X123272265Y-70668120D01*
X123366097Y-70492573D01*
X123423879Y-70302093D01*
X123443389Y-70104000D01*
X123952611Y-70104000D01*
X123972121Y-70302095D01*
X124029903Y-70492574D01*
X124123731Y-70668114D01*
X124123735Y-70668121D01*
X124250011Y-70821988D01*
X124403878Y-70948264D01*
X124403885Y-70948268D01*
X124454857Y-70975513D01*
X124579427Y-71042097D01*
X124769907Y-71099879D01*
X124968000Y-71119389D01*
X125166093Y-71099879D01*
X125356573Y-71042097D01*
X125532120Y-70948265D01*
X125685988Y-70821988D01*
X125812265Y-70668120D01*
X125906097Y-70492573D01*
X125963879Y-70302093D01*
X125983389Y-70104000D01*
X125963879Y-69905907D01*
X125906097Y-69715427D01*
X125812265Y-69539880D01*
X125812264Y-69539878D01*
X125685988Y-69386011D01*
X125532121Y-69259735D01*
X125532114Y-69259731D01*
X125356574Y-69165903D01*
X125166095Y-69108121D01*
X124968000Y-69088611D01*
X124769904Y-69108121D01*
X124579425Y-69165903D01*
X124403885Y-69259731D01*
X124403878Y-69259735D01*
X124250011Y-69386011D01*
X124123735Y-69539878D01*
X124123731Y-69539885D01*
X124029903Y-69715425D01*
X123972121Y-69905904D01*
X123952611Y-70104000D01*
X123443389Y-70104000D01*
X123423879Y-69905907D01*
X123366097Y-69715427D01*
X123272265Y-69539880D01*
X123272264Y-69539878D01*
X123145988Y-69386011D01*
X122992121Y-69259735D01*
X122992114Y-69259731D01*
X122816574Y-69165903D01*
X122626095Y-69108121D01*
X122428000Y-69088611D01*
X122229904Y-69108121D01*
X122039425Y-69165903D01*
X121863885Y-69259731D01*
X121863878Y-69259735D01*
X121710011Y-69386011D01*
X121583735Y-69539878D01*
X121583731Y-69539885D01*
X121489903Y-69715425D01*
X121432121Y-69905904D01*
X121412611Y-70104000D01*
X120903389Y-70104000D01*
X120883879Y-69905907D01*
X120826097Y-69715427D01*
X120732265Y-69539880D01*
X120732264Y-69539878D01*
X120605988Y-69386011D01*
X120452121Y-69259735D01*
X120452114Y-69259731D01*
X120276574Y-69165903D01*
X120086095Y-69108121D01*
X119888000Y-69088611D01*
X119689904Y-69108121D01*
X119499425Y-69165903D01*
X119323885Y-69259731D01*
X119323878Y-69259735D01*
X119170011Y-69386011D01*
X119043735Y-69539878D01*
X119043731Y-69539885D01*
X118949903Y-69715425D01*
X118892121Y-69905904D01*
X118872611Y-70104000D01*
X118363389Y-70104000D01*
X118343879Y-69905907D01*
X118286097Y-69715427D01*
X118192265Y-69539880D01*
X118192264Y-69539878D01*
X118065988Y-69386011D01*
X117912121Y-69259735D01*
X117912114Y-69259731D01*
X117736574Y-69165903D01*
X117612280Y-69128198D01*
X117553842Y-69089901D01*
X117525385Y-69026088D01*
X117535946Y-68957021D01*
X117582171Y-68904628D01*
X117616183Y-68889763D01*
X117811483Y-68837433D01*
X117811492Y-68837429D01*
X118025578Y-68737600D01*
X118025582Y-68737598D01*
X118109373Y-68678926D01*
X118109373Y-68678925D01*
X117480533Y-68050086D01*
X117490315Y-68048680D01*
X117621100Y-67988952D01*
X117729761Y-67894798D01*
X117807493Y-67773844D01*
X117831076Y-67693524D01*
X118462925Y-68325373D01*
X118462926Y-68325373D01*
X118521598Y-68241582D01*
X118521600Y-68241578D01*
X118621429Y-68027492D01*
X118621433Y-68027483D01*
X118673763Y-67832183D01*
X118710128Y-67772522D01*
X118772975Y-67741993D01*
X118842350Y-67750287D01*
X118896228Y-67794773D01*
X118912198Y-67828280D01*
X118949903Y-67952574D01*
X119043731Y-68128114D01*
X119043735Y-68128121D01*
X119170011Y-68281988D01*
X119323878Y-68408264D01*
X119323885Y-68408268D01*
X119481072Y-68492286D01*
X119499427Y-68502097D01*
X119689907Y-68559879D01*
X119888000Y-68579389D01*
X120086093Y-68559879D01*
X120276573Y-68502097D01*
X120452120Y-68408265D01*
X120605988Y-68281988D01*
X120732265Y-68128120D01*
X120826097Y-67952573D01*
X120883879Y-67762093D01*
X120903389Y-67564000D01*
X121412611Y-67564000D01*
X121432121Y-67762095D01*
X121489903Y-67952574D01*
X121583731Y-68128114D01*
X121583735Y-68128121D01*
X121710011Y-68281988D01*
X121863878Y-68408264D01*
X121863885Y-68408268D01*
X122021072Y-68492286D01*
X122039427Y-68502097D01*
X122229907Y-68559879D01*
X122428000Y-68579389D01*
X122626093Y-68559879D01*
X122816573Y-68502097D01*
X122992120Y-68408265D01*
X123145988Y-68281988D01*
X123272265Y-68128120D01*
X123366097Y-67952573D01*
X123423879Y-67762093D01*
X123443389Y-67564000D01*
X123952611Y-67564000D01*
X123972121Y-67762095D01*
X124029903Y-67952574D01*
X124123731Y-68128114D01*
X124123735Y-68128121D01*
X124250011Y-68281988D01*
X124403878Y-68408264D01*
X124403885Y-68408268D01*
X124561072Y-68492286D01*
X124579427Y-68502097D01*
X124769907Y-68559879D01*
X124968000Y-68579389D01*
X125166093Y-68559879D01*
X125356573Y-68502097D01*
X125532120Y-68408265D01*
X125683702Y-68283864D01*
X131311500Y-68283864D01*
X131326482Y-68435991D01*
X131385695Y-68631190D01*
X131481844Y-68811070D01*
X131481846Y-68811072D01*
X131481848Y-68811076D01*
X131514221Y-68850523D01*
X131611247Y-68968752D01*
X131671636Y-69018311D01*
X131768924Y-69098152D01*
X131768927Y-69098154D01*
X131768929Y-69098155D01*
X131948809Y-69194304D01*
X131948811Y-69194304D01*
X131948814Y-69194306D01*
X132144007Y-69253517D01*
X132296132Y-69268500D01*
X132296135Y-69268500D01*
X134147865Y-69268500D01*
X134147868Y-69268500D01*
X134299993Y-69253517D01*
X134495186Y-69194306D01*
X134675076Y-69098152D01*
X134832752Y-68968752D01*
X134962152Y-68811076D01*
X135058306Y-68631186D01*
X135117517Y-68435993D01*
X135132500Y-68283868D01*
X135132500Y-66432132D01*
X135117517Y-66280007D01*
X135058306Y-66084814D01*
X135058304Y-66084811D01*
X135058304Y-66084809D01*
X134962155Y-65904929D01*
X134962154Y-65904927D01*
X134962152Y-65904924D01*
X134887947Y-65814504D01*
X134832752Y-65747247D01*
X134750797Y-65679990D01*
X134675076Y-65617848D01*
X134675072Y-65617846D01*
X134675070Y-65617844D01*
X134495190Y-65521695D01*
X134299991Y-65462482D01*
X134188784Y-65451529D01*
X134147868Y-65447500D01*
X132296132Y-65447500D01*
X132258582Y-65451198D01*
X132144008Y-65462482D01*
X131948809Y-65521695D01*
X131768929Y-65617844D01*
X131611247Y-65747247D01*
X131481844Y-65904929D01*
X131385695Y-66084809D01*
X131326482Y-66280008D01*
X131311500Y-66432135D01*
X131311500Y-68283864D01*
X125683702Y-68283864D01*
X125685988Y-68281988D01*
X125812265Y-68128120D01*
X125906097Y-67952573D01*
X125963879Y-67762093D01*
X125983389Y-67564000D01*
X125963879Y-67365907D01*
X125906097Y-67175427D01*
X125866055Y-67100513D01*
X125812268Y-66999885D01*
X125812264Y-66999878D01*
X125685988Y-66846011D01*
X125532121Y-66719735D01*
X125532114Y-66719731D01*
X125356574Y-66625903D01*
X125166095Y-66568121D01*
X124968000Y-66548611D01*
X124769904Y-66568121D01*
X124579425Y-66625903D01*
X124403885Y-66719731D01*
X124403878Y-66719735D01*
X124250011Y-66846011D01*
X124123735Y-66999878D01*
X124123731Y-66999885D01*
X124029903Y-67175425D01*
X123972121Y-67365904D01*
X123952611Y-67564000D01*
X123443389Y-67564000D01*
X123423879Y-67365907D01*
X123366097Y-67175427D01*
X123326055Y-67100513D01*
X123272268Y-66999885D01*
X123272264Y-66999878D01*
X123145988Y-66846011D01*
X122992121Y-66719735D01*
X122992114Y-66719731D01*
X122816574Y-66625903D01*
X122626095Y-66568121D01*
X122428000Y-66548611D01*
X122229904Y-66568121D01*
X122039425Y-66625903D01*
X121863885Y-66719731D01*
X121863878Y-66719735D01*
X121710011Y-66846011D01*
X121583735Y-66999878D01*
X121583731Y-66999885D01*
X121489903Y-67175425D01*
X121432121Y-67365904D01*
X121412611Y-67564000D01*
X120903389Y-67564000D01*
X120883879Y-67365907D01*
X120826097Y-67175427D01*
X120786055Y-67100513D01*
X120732268Y-66999885D01*
X120732264Y-66999878D01*
X120605988Y-66846011D01*
X120452121Y-66719735D01*
X120452114Y-66719731D01*
X120276574Y-66625903D01*
X120086095Y-66568121D01*
X119888000Y-66548611D01*
X119689904Y-66568121D01*
X119499425Y-66625903D01*
X119323885Y-66719731D01*
X119323878Y-66719735D01*
X119170011Y-66846011D01*
X119043735Y-66999878D01*
X119043731Y-66999885D01*
X118949903Y-67175425D01*
X118912198Y-67299719D01*
X118873900Y-67358158D01*
X118810088Y-67386614D01*
X118741021Y-67376053D01*
X118688628Y-67329828D01*
X118673763Y-67295816D01*
X118621433Y-67100516D01*
X118621429Y-67100507D01*
X118521600Y-66886423D01*
X118521599Y-66886421D01*
X118462925Y-66802626D01*
X118462925Y-66802625D01*
X117831076Y-67434475D01*
X117807493Y-67354156D01*
X117729761Y-67233202D01*
X117621100Y-67139048D01*
X117490315Y-67079320D01*
X117480533Y-67077913D01*
X118109373Y-66449073D01*
X118109373Y-66449072D01*
X118025583Y-66390402D01*
X118025579Y-66390400D01*
X117811492Y-66290570D01*
X117811483Y-66290566D01*
X117583326Y-66229432D01*
X117583315Y-66229430D01*
X117348002Y-66208843D01*
X117347998Y-66208843D01*
X117112684Y-66229430D01*
X117112673Y-66229432D01*
X116884516Y-66290566D01*
X116884507Y-66290570D01*
X116670419Y-66390401D01*
X116586625Y-66449072D01*
X117215466Y-67077913D01*
X117205685Y-67079320D01*
X117074900Y-67139048D01*
X116966239Y-67233202D01*
X116888507Y-67354156D01*
X116864923Y-67434476D01*
X116233072Y-66802625D01*
X116174401Y-66886419D01*
X116074570Y-67100507D01*
X116074567Y-67100513D01*
X116022236Y-67295817D01*
X115985871Y-67355477D01*
X115923024Y-67386006D01*
X115853648Y-67377711D01*
X115799770Y-67333226D01*
X115783801Y-67299721D01*
X115746097Y-67175427D01*
X115746095Y-67175424D01*
X115746095Y-67175422D01*
X115652268Y-66999885D01*
X115652264Y-66999878D01*
X115525988Y-66846011D01*
X115372121Y-66719735D01*
X115372114Y-66719731D01*
X115196574Y-66625903D01*
X115006095Y-66568121D01*
X114808000Y-66548611D01*
X114609904Y-66568121D01*
X114419425Y-66625903D01*
X114243885Y-66719731D01*
X114243878Y-66719735D01*
X114090011Y-66846011D01*
X113963735Y-66999878D01*
X113963731Y-66999885D01*
X113869903Y-67175425D01*
X113832198Y-67299719D01*
X113793900Y-67358158D01*
X113730088Y-67386614D01*
X113661021Y-67376053D01*
X113608628Y-67329828D01*
X113593763Y-67295816D01*
X113541433Y-67100516D01*
X113541429Y-67100507D01*
X113441600Y-66886423D01*
X113441599Y-66886421D01*
X113382925Y-66802626D01*
X113382925Y-66802625D01*
X112751076Y-67434475D01*
X112727493Y-67354156D01*
X112649761Y-67233202D01*
X112541100Y-67139048D01*
X112410315Y-67079320D01*
X112400533Y-67077913D01*
X113029373Y-66449073D01*
X113029373Y-66449072D01*
X112945583Y-66390402D01*
X112945579Y-66390400D01*
X112731492Y-66290570D01*
X112731483Y-66290566D01*
X112503326Y-66229432D01*
X112503315Y-66229430D01*
X112268002Y-66208843D01*
X112267998Y-66208843D01*
X112032684Y-66229430D01*
X112032673Y-66229432D01*
X111804516Y-66290566D01*
X111804507Y-66290570D01*
X111590419Y-66390401D01*
X111506625Y-66449072D01*
X112135466Y-67077913D01*
X112125685Y-67079320D01*
X111994900Y-67139048D01*
X111886239Y-67233202D01*
X111808507Y-67354156D01*
X111784923Y-67434476D01*
X111153072Y-66802625D01*
X111094401Y-66886419D01*
X110994570Y-67100507D01*
X110994567Y-67100513D01*
X110942236Y-67295817D01*
X110905871Y-67355477D01*
X110843024Y-67386006D01*
X110773648Y-67377711D01*
X110719770Y-67333226D01*
X110703801Y-67299721D01*
X110666097Y-67175427D01*
X110666095Y-67175424D01*
X110666095Y-67175422D01*
X110572268Y-66999885D01*
X110572264Y-66999878D01*
X110445988Y-66846011D01*
X110292121Y-66719735D01*
X110292114Y-66719731D01*
X110116574Y-66625903D01*
X109926095Y-66568121D01*
X109728000Y-66548611D01*
X109529904Y-66568121D01*
X109339425Y-66625903D01*
X109163885Y-66719731D01*
X109163878Y-66719735D01*
X109010011Y-66846011D01*
X108883735Y-66999878D01*
X108883731Y-66999885D01*
X108789903Y-67175425D01*
X108752198Y-67299719D01*
X108713900Y-67358158D01*
X108650088Y-67386614D01*
X108581021Y-67376053D01*
X108528628Y-67329828D01*
X108513763Y-67295816D01*
X108461433Y-67100516D01*
X108461429Y-67100507D01*
X108361600Y-66886423D01*
X108361599Y-66886421D01*
X108302925Y-66802626D01*
X108302925Y-66802625D01*
X107671076Y-67434475D01*
X107647493Y-67354156D01*
X107569761Y-67233202D01*
X107461100Y-67139048D01*
X107330315Y-67079320D01*
X107320533Y-67077913D01*
X107949373Y-66449073D01*
X107949373Y-66449072D01*
X107865583Y-66390402D01*
X107865579Y-66390400D01*
X107651492Y-66290570D01*
X107651483Y-66290566D01*
X107423326Y-66229432D01*
X107423315Y-66229430D01*
X107188002Y-66208843D01*
X107187998Y-66208843D01*
X106952684Y-66229430D01*
X106952673Y-66229432D01*
X106724516Y-66290566D01*
X106724507Y-66290570D01*
X106510419Y-66390401D01*
X106426625Y-66449072D01*
X107055466Y-67077913D01*
X107045685Y-67079320D01*
X106914900Y-67139048D01*
X106806239Y-67233202D01*
X106728507Y-67354156D01*
X106704923Y-67434476D01*
X106073072Y-66802625D01*
X106014401Y-66886419D01*
X105914570Y-67100507D01*
X105914567Y-67100513D01*
X105862236Y-67295817D01*
X105825871Y-67355477D01*
X105763024Y-67386006D01*
X105693648Y-67377711D01*
X105639770Y-67333226D01*
X105623801Y-67299721D01*
X105586097Y-67175427D01*
X105586095Y-67175424D01*
X105586095Y-67175422D01*
X105492268Y-66999885D01*
X105492264Y-66999878D01*
X105365988Y-66846011D01*
X105212121Y-66719735D01*
X105212114Y-66719731D01*
X105036574Y-66625903D01*
X104846095Y-66568121D01*
X104648000Y-66548611D01*
X104449904Y-66568121D01*
X104259425Y-66625903D01*
X104083885Y-66719731D01*
X104083878Y-66719735D01*
X103930011Y-66846011D01*
X103803735Y-66999878D01*
X103803731Y-66999885D01*
X103709903Y-67175425D01*
X103672198Y-67299719D01*
X103633900Y-67358158D01*
X103570088Y-67386614D01*
X103501021Y-67376053D01*
X103448628Y-67329828D01*
X103433763Y-67295816D01*
X103381433Y-67100516D01*
X103381429Y-67100507D01*
X103281600Y-66886423D01*
X103281599Y-66886421D01*
X103222925Y-66802626D01*
X103222925Y-66802625D01*
X102591076Y-67434475D01*
X102567493Y-67354156D01*
X102489761Y-67233202D01*
X102381100Y-67139048D01*
X102250315Y-67079320D01*
X102240533Y-67077913D01*
X102869373Y-66449073D01*
X102869373Y-66449072D01*
X102785583Y-66390402D01*
X102785579Y-66390400D01*
X102571492Y-66290570D01*
X102571483Y-66290566D01*
X102343326Y-66229432D01*
X102343315Y-66229430D01*
X102108002Y-66208843D01*
X102107998Y-66208843D01*
X101872684Y-66229430D01*
X101872673Y-66229432D01*
X101644516Y-66290566D01*
X101644507Y-66290570D01*
X101430419Y-66390401D01*
X101346625Y-66449072D01*
X101975466Y-67077913D01*
X101965685Y-67079320D01*
X101834900Y-67139048D01*
X101726239Y-67233202D01*
X101648507Y-67354156D01*
X101624923Y-67434476D01*
X100993072Y-66802625D01*
X100934401Y-66886419D01*
X100834570Y-67100507D01*
X100834566Y-67100516D01*
X100773432Y-67328673D01*
X100773430Y-67328684D01*
X100752843Y-67563998D01*
X100752843Y-67564001D01*
X81622529Y-67564001D01*
X81640130Y-67505210D01*
X81650331Y-67330065D01*
X81619865Y-67157289D01*
X81550377Y-66996196D01*
X81445610Y-66855470D01*
X81434338Y-66846012D01*
X81311214Y-66742698D01*
X81311212Y-66742697D01*
X81154437Y-66663961D01*
X81154433Y-66663960D01*
X80983721Y-66623500D01*
X80852291Y-66623500D01*
X80747854Y-66635707D01*
X80721743Y-66638759D01*
X80721740Y-66638760D01*
X80556884Y-66698762D01*
X80556880Y-66698764D01*
X80410306Y-66795167D01*
X80410305Y-66795168D01*
X80289910Y-66922778D01*
X80202188Y-67074718D01*
X80151870Y-67242789D01*
X80151869Y-67242794D01*
X80141668Y-67417933D01*
X73645213Y-67417933D01*
X73650331Y-67330065D01*
X73619865Y-67157289D01*
X73550377Y-66996196D01*
X73445610Y-66855470D01*
X73434338Y-66846012D01*
X73311214Y-66742698D01*
X73311212Y-66742697D01*
X73154437Y-66663961D01*
X73154433Y-66663960D01*
X72983721Y-66623500D01*
X72852291Y-66623500D01*
X72747854Y-66635707D01*
X72721743Y-66638759D01*
X72721740Y-66638760D01*
X72556884Y-66698762D01*
X72556880Y-66698764D01*
X72410306Y-66795167D01*
X72410305Y-66795168D01*
X72289910Y-66922778D01*
X72202188Y-67074718D01*
X72151870Y-67242789D01*
X72151869Y-67242794D01*
X72141668Y-67417933D01*
X55372000Y-67417933D01*
X55372000Y-64108000D01*
X135672000Y-64108000D01*
X136488314Y-64108000D01*
X136462507Y-64148156D01*
X136422000Y-64286111D01*
X136422000Y-64429889D01*
X136462507Y-64567844D01*
X136488314Y-64608000D01*
X135672001Y-64608000D01*
X135672001Y-65172197D01*
X135682400Y-65304332D01*
X135737377Y-65522519D01*
X135830428Y-65727374D01*
X135830431Y-65727380D01*
X135958559Y-65912323D01*
X135958569Y-65912335D01*
X136117664Y-66071430D01*
X136117676Y-66071440D01*
X136302619Y-66199568D01*
X136302625Y-66199571D01*
X136507480Y-66292622D01*
X136725667Y-66347599D01*
X136857810Y-66357999D01*
X137671999Y-66357999D01*
X137672000Y-66357998D01*
X137672000Y-64858000D01*
X138172000Y-64858000D01*
X138172000Y-66357999D01*
X138986182Y-66357999D01*
X138986197Y-66357998D01*
X139118332Y-66347599D01*
X139336519Y-66292622D01*
X139541374Y-66199571D01*
X139541380Y-66199568D01*
X139726323Y-66071440D01*
X139726335Y-66071430D01*
X139885430Y-65912335D01*
X139885440Y-65912323D01*
X140013568Y-65727380D01*
X140013571Y-65727374D01*
X140106622Y-65522519D01*
X140161599Y-65304332D01*
X140171999Y-65172196D01*
X140172000Y-65172184D01*
X140172000Y-64608000D01*
X139355686Y-64608000D01*
X139381493Y-64567844D01*
X139422000Y-64429889D01*
X139422000Y-64286111D01*
X139381493Y-64148156D01*
X139355686Y-64108000D01*
X140171999Y-64108000D01*
X140171999Y-63543817D01*
X140171998Y-63543802D01*
X140161599Y-63411667D01*
X140106622Y-63193480D01*
X140013571Y-62988625D01*
X140013568Y-62988619D01*
X139885440Y-62803676D01*
X139885430Y-62803664D01*
X139726335Y-62644569D01*
X139726323Y-62644559D01*
X139541380Y-62516431D01*
X139541374Y-62516428D01*
X139336519Y-62423377D01*
X139118332Y-62368400D01*
X138986196Y-62358000D01*
X138172000Y-62358000D01*
X138172000Y-63858000D01*
X137672000Y-63858000D01*
X137672000Y-62358000D01*
X136857817Y-62358000D01*
X136857802Y-62358001D01*
X136725667Y-62368400D01*
X136507480Y-62423377D01*
X136302625Y-62516428D01*
X136302619Y-62516431D01*
X136117676Y-62644559D01*
X136117664Y-62644569D01*
X135958569Y-62803664D01*
X135958559Y-62803676D01*
X135830431Y-62988619D01*
X135830428Y-62988625D01*
X135737377Y-63193480D01*
X135682400Y-63411667D01*
X135672000Y-63543803D01*
X135672000Y-64108000D01*
X55372000Y-64108000D01*
X55372000Y-61084000D01*
X55391685Y-61016961D01*
X55444489Y-60971206D01*
X55496000Y-60960000D01*
X57150000Y-60960000D01*
X57150000Y-59814000D01*
X57169685Y-59746961D01*
X57222489Y-59701206D01*
X57274000Y-59690000D01*
X149736000Y-59690000D01*
X149803039Y-59709685D01*
G37*
G04 #@! TD.AperFunction*
M02*
