G04 #@! TF.GenerationSoftware,KiCad,Pcbnew,7.0.10-7.0.10~ubuntu22.04.1*
G04 #@! TF.CreationDate,2024-05-15T19:40:14+10:00*
G04 #@! TF.ProjectId,AtariHDisk4,41746172-6948-4446-9973-6b342e6b6963,rev?*
G04 #@! TF.SameCoordinates,Original*
G04 #@! TF.FileFunction,Profile,NP*
%FSLAX46Y46*%
G04 Gerber Fmt 4.6, Leading zero omitted, Abs format (unit mm)*
G04 Created by KiCad (PCBNEW 7.0.10-7.0.10~ubuntu22.04.1) date 2024-05-15 19:40:14*
%MOMM*%
%LPD*%
G01*
G04 APERTURE LIST*
G04 #@! TA.AperFunction,Profile*
%ADD10C,0.150000*%
G04 #@! TD*
G04 APERTURE END LIST*
D10*
X148336000Y-90424000D02*
G75*
G03*
X148336000Y-97536000I0J-3556000D01*
G01*
X58674000Y-97536000D02*
G75*
G03*
X58674000Y-90424000I0J3556000D01*
G01*
X150368000Y-60452000D02*
X150368000Y-59182000D01*
X58674000Y-90424000D02*
X54864000Y-90424000D01*
X150368000Y-128778000D02*
X56642000Y-128778000D01*
X54864000Y-127508000D02*
X56642000Y-127508000D01*
X152146000Y-90424000D02*
X152146000Y-60452000D01*
X54864000Y-60452000D02*
X56642000Y-60452000D01*
X150368000Y-128778000D02*
X150368000Y-127508000D01*
X152146000Y-60452000D02*
X150368000Y-60452000D01*
X152146000Y-97536000D02*
X152146000Y-127508000D01*
X58674000Y-97536000D02*
X54864000Y-97536000D01*
X54864000Y-90424000D02*
X54864000Y-60452000D01*
X152146000Y-127508000D02*
X150368000Y-127508000D01*
X54864000Y-97536000D02*
X54864000Y-127508000D01*
X56642000Y-127508000D02*
X56642000Y-128778000D01*
X152146000Y-90424000D02*
X148336000Y-90424000D01*
X152146000Y-97536000D02*
X148336000Y-97536000D01*
X56642000Y-60452000D02*
X56642000Y-59182000D01*
X56642000Y-59182000D02*
X150368000Y-59182000D01*
M02*
