G04 #@! TF.GenerationSoftware,KiCad,Pcbnew,7.0.10-7.0.10~ubuntu22.04.1*
G04 #@! TF.CreationDate,2024-03-30T20:23:11+11:00*
G04 #@! TF.ProjectId,AtariHDisk4,41746172-6948-4446-9973-6b342e6b6963,rev?*
G04 #@! TF.SameCoordinates,Original*
G04 #@! TF.FileFunction,Legend,Bot*
G04 #@! TF.FilePolarity,Positive*
%FSLAX46Y46*%
G04 Gerber Fmt 4.6, Leading zero omitted, Abs format (unit mm)*
G04 Created by KiCad (PCBNEW 7.0.10-7.0.10~ubuntu22.04.1) date 2024-03-30 20:23:11*
%MOMM*%
%LPD*%
G01*
G04 APERTURE LIST*
G04 Aperture macros list*
%AMRoundRect*
0 Rectangle with rounded corners*
0 $1 Rounding radius*
0 $2 $3 $4 $5 $6 $7 $8 $9 X,Y pos of 4 corners*
0 Add a 4 corners polygon primitive as box body*
4,1,4,$2,$3,$4,$5,$6,$7,$8,$9,$2,$3,0*
0 Add four circle primitives for the rounded corners*
1,1,$1+$1,$2,$3*
1,1,$1+$1,$4,$5*
1,1,$1+$1,$6,$7*
1,1,$1+$1,$8,$9*
0 Add four rect primitives between the rounded corners*
20,1,$1+$1,$2,$3,$4,$5,0*
20,1,$1+$1,$4,$5,$6,$7,0*
20,1,$1+$1,$6,$7,$8,$9,0*
20,1,$1+$1,$8,$9,$2,$3,0*%
G04 Aperture macros list end*
%ADD10C,0.100000*%
%ADD11C,0.200000*%
%ADD12R,1.700000X1.700000*%
%ADD13O,1.700000X1.700000*%
%ADD14R,1.600000X1.600000*%
%ADD15C,1.600000*%
%ADD16C,2.750000*%
%ADD17R,3.500000X3.500000*%
%ADD18RoundRect,0.750000X-1.000000X0.750000X-1.000000X-0.750000X1.000000X-0.750000X1.000000X0.750000X0*%
%ADD19RoundRect,0.875000X-0.875000X0.875000X-0.875000X-0.875000X0.875000X-0.875000X0.875000X0.875000X0*%
%ADD20R,1.800000X1.800000*%
%ADD21C,1.800000*%
%ADD22C,1.000000*%
%ADD23C,1.100000*%
%ADD24RoundRect,0.250000X0.600000X-0.600000X0.600000X0.600000X-0.600000X0.600000X-0.600000X-0.600000X0*%
%ADD25C,1.700000*%
%ADD26R,2.100000X1.000000*%
%ADD27C,15.000000*%
G04 APERTURE END LIST*
D10*
X116519609Y-105386285D02*
X116567228Y-105529142D01*
X116567228Y-105529142D02*
X116614847Y-105576761D01*
X116614847Y-105576761D02*
X116710085Y-105624380D01*
X116710085Y-105624380D02*
X116852942Y-105624380D01*
X116852942Y-105624380D02*
X116948180Y-105576761D01*
X116948180Y-105576761D02*
X116995800Y-105529142D01*
X116995800Y-105529142D02*
X117043419Y-105433904D01*
X117043419Y-105433904D02*
X117043419Y-105052952D01*
X117043419Y-105052952D02*
X116043419Y-105052952D01*
X116043419Y-105052952D02*
X116043419Y-105386285D01*
X116043419Y-105386285D02*
X116091038Y-105481523D01*
X116091038Y-105481523D02*
X116138657Y-105529142D01*
X116138657Y-105529142D02*
X116233895Y-105576761D01*
X116233895Y-105576761D02*
X116329133Y-105576761D01*
X116329133Y-105576761D02*
X116424371Y-105529142D01*
X116424371Y-105529142D02*
X116471990Y-105481523D01*
X116471990Y-105481523D02*
X116519609Y-105386285D01*
X116519609Y-105386285D02*
X116519609Y-105052952D01*
X116043419Y-105910095D02*
X116043419Y-106481523D01*
X117043419Y-106195809D02*
X116043419Y-106195809D01*
X117043419Y-107338666D02*
X117043419Y-106767238D01*
X117043419Y-107052952D02*
X116043419Y-107052952D01*
X116043419Y-107052952D02*
X116186276Y-106957714D01*
X116186276Y-106957714D02*
X116281514Y-106862476D01*
X116281514Y-106862476D02*
X116329133Y-106767238D01*
D11*
X129510000Y-91304000D02*
X132210000Y-94004000D01*
X127254000Y-91304000D02*
X129510000Y-91304000D01*
X121666000Y-91304000D02*
X120310000Y-91304000D01*
X117610000Y-94404000D02*
X120310000Y-91304000D01*
D10*
X117610000Y-94404000D02*
X117610000Y-94404000D01*
X117610000Y-94804000D02*
X117610000Y-94804000D01*
X117610000Y-95204000D02*
X117610000Y-95204000D01*
X117610000Y-95604000D02*
X117610000Y-95604000D01*
X117610000Y-96004000D02*
X117610000Y-96004000D01*
X117610000Y-96404000D02*
X117610000Y-96404000D01*
X117610000Y-96804000D02*
X117610000Y-96804000D01*
X117610000Y-97204000D02*
X117610000Y-97204000D01*
X117610000Y-97604000D02*
X117610000Y-97604000D01*
X117610000Y-98004000D02*
X117610000Y-98004000D01*
X117610000Y-98404000D02*
X117610000Y-98404000D01*
X117610000Y-98804000D02*
X117610000Y-98804000D01*
X117610000Y-99204000D02*
X117610000Y-99204000D01*
X117610000Y-99604000D02*
X117610000Y-99604000D01*
X117610000Y-100004000D02*
X117610000Y-100004000D01*
X117610000Y-100404000D02*
X117610000Y-100404000D01*
X117610000Y-100804000D02*
X117610000Y-100804000D01*
X117610000Y-101204000D02*
X117610000Y-101204000D01*
X117610000Y-101604000D02*
X117610000Y-101604000D01*
X117610000Y-102004000D02*
X117610000Y-102004000D01*
X117610000Y-102404000D02*
X117610000Y-102404000D01*
X117610000Y-102804000D02*
X117610000Y-102804000D01*
X117610000Y-103204000D02*
X117610000Y-103204000D01*
X117610000Y-103604000D02*
X117610000Y-103604000D01*
X117610000Y-104004000D02*
X117610000Y-104004000D01*
X117610000Y-104404000D02*
X117610000Y-104404000D01*
X117610000Y-104804000D02*
X117610000Y-104804000D01*
X117610000Y-105204000D02*
X117610000Y-105204000D01*
X117610000Y-105604000D02*
X117610000Y-105604000D01*
X117610000Y-106004000D02*
X117610000Y-106004000D01*
X117610000Y-106404000D02*
X117610000Y-106404000D01*
X117610000Y-106804000D02*
X117610000Y-106804000D01*
X117610000Y-107204000D02*
X117610000Y-107204000D01*
X117610000Y-107604000D02*
X117610000Y-107604000D01*
X117610000Y-108004000D02*
X117610000Y-108004000D01*
X117610000Y-108404000D02*
X117610000Y-108404000D01*
X117610000Y-108804000D02*
X117610000Y-108804000D01*
X117610000Y-109204000D02*
X117610000Y-109204000D01*
D11*
X129510000Y-112404000D02*
X132210000Y-109704000D01*
X127254000Y-112404000D02*
X129510000Y-112404000D01*
X121666000Y-112404000D02*
X120310000Y-112404000D01*
X120310000Y-112404000D02*
X117610000Y-109304000D01*
%LPC*%
D12*
X63246000Y-123190000D03*
D13*
X60706000Y-123190000D03*
X63246000Y-120650000D03*
X60706000Y-120650000D03*
X63246000Y-118110000D03*
X60706000Y-118110000D03*
D14*
X146050000Y-71628000D03*
D15*
X148050000Y-71628000D03*
D12*
X58674000Y-86106000D03*
D13*
X58674000Y-83566000D03*
X61214000Y-86106000D03*
X61214000Y-83566000D03*
X63754000Y-86106000D03*
X63754000Y-83566000D03*
X66294000Y-86106000D03*
X66294000Y-83566000D03*
X68834000Y-86106000D03*
X68834000Y-83566000D03*
D16*
X142494000Y-110998000D03*
X142494000Y-76962000D03*
X64516000Y-76962000D03*
X64516000Y-110998000D03*
D17*
X137922000Y-70358000D03*
D18*
X137922000Y-64358000D03*
D19*
X133222000Y-67358000D03*
D20*
X123444000Y-121666000D03*
D21*
X125984000Y-121666000D03*
D12*
X60706000Y-102108000D03*
D13*
X63246000Y-102108000D03*
D22*
X137083000Y-106020000D03*
X137083000Y-107920000D03*
X80896000Y-67374000D03*
X72896000Y-67374000D03*
D20*
X129286000Y-121666000D03*
D21*
X131826000Y-121666000D03*
D23*
X70288000Y-105484000D03*
D15*
X91288000Y-105484000D03*
D12*
X143535400Y-117830600D03*
D13*
X146075400Y-117830600D03*
X143535400Y-120370600D03*
X146075400Y-120370600D03*
X143535400Y-122910600D03*
X146075400Y-122910600D03*
D24*
X102108000Y-70104000D03*
D25*
X104648000Y-70104000D03*
X107188000Y-70104000D03*
X109728000Y-70104000D03*
X112268000Y-70104000D03*
X114808000Y-70104000D03*
X117348000Y-70104000D03*
X119888000Y-70104000D03*
X122428000Y-70104000D03*
X124968000Y-70104000D03*
X102108000Y-67564000D03*
X104648000Y-67564000D03*
X107188000Y-67564000D03*
X109728000Y-67564000D03*
X112268000Y-67564000D03*
X114808000Y-67564000D03*
X117348000Y-67564000D03*
X119888000Y-67564000D03*
X122428000Y-67564000D03*
X124968000Y-67564000D03*
D26*
X126010000Y-90854000D03*
X122910000Y-90854000D03*
X126010000Y-112854000D03*
X122910000Y-112854000D03*
D27*
X124460000Y-101854000D03*
%LPD*%
M02*
