M48
; DRILL file {KiCad 7.0.10-7.0.10~ubuntu22.04.1} date Sat 30 Mar 2024 20:23:17
; FORMAT={-:-/ absolute / metric / decimal}
; #@! TF.CreationDate,2024-03-30T20:23:17+11:00
; #@! TF.GenerationSoftware,Kicad,Pcbnew,7.0.10-7.0.10~ubuntu22.04.1
; #@! TF.FileFunction,Plated,1,4,PTH
FMAT,2
METRIC
; #@! TA.AperFunction,Plated,PTH,ViaDrill
T1C0.400
; #@! TA.AperFunction,Plated,PTH,ComponentDrill
T2C0.500
; #@! TA.AperFunction,Plated,PTH,ComponentDrill
T3C0.800
; #@! TA.AperFunction,Plated,PTH,ComponentDrill
T4C0.900
; #@! TA.AperFunction,Plated,PTH,ComponentDrill
T5C1.000
%
G90
G05
T1
X65.532Y-95.25
X68.072Y-67.818
X68.072Y-103.378
X68.072Y-104.394
X68.072Y-105.41
X68.072Y-124.968
X68.072Y-125.984
X68.072Y-127.0
X68.149Y-88.138
X69.088Y-77.216
X69.596Y-101.092
X70.866Y-101.092
X71.374Y-80.518
X73.406Y-98.552
X74.93Y-80.518
X74.93Y-98.552
X75.438Y-92.456
X75.946Y-80.518
X76.2Y-100.838
X76.708Y-84.836
X77.978Y-82.042
X78.74Y-101.092
X79.248Y-76.708
X79.502Y-100.076
X80.01Y-80.518
X81.026Y-80.518
X81.28Y-98.552
X82.296Y-92.456
X83.82Y-67.818
X83.82Y-76.962
X84.074Y-100.076
X84.328Y-80.264
X84.582Y-70.866
X85.341Y-100.333
X85.751Y-76.132
X87.626Y-71.322
X91.948Y-87.884
X91.948Y-89.916
X93.218Y-103.378
X93.218Y-104.394
X93.218Y-105.41
X94.742Y-86.614
X94.996Y-71.882
X95.504Y-70.358
X95.504Y-88.9
X95.504Y-124.968
X95.504Y-125.984
X95.504Y-127.0
X96.012Y-80.01
X96.012Y-113.538
X96.012Y-114.554
X96.017Y-112.576
X96.019Y-111.609
X96.091Y-110.65
X96.52Y-83.743
X96.52Y-93.726
X96.52Y-94.742
X96.52Y-95.758
X96.52Y-96.774
X96.774Y-89.154
X96.774Y-109.728
X96.911Y-108.458
X97.028Y-114.046
X100.584Y-124.714
X101.092Y-105.918
X101.6Y-76.962
X101.6Y-107.188
X102.108Y-121.92
X102.399Y-107.721
X103.072Y-120.104
X103.378Y-99.568
X103.378Y-101.6
X103.378Y-103.124
X103.886Y-80.772
X104.394Y-78.232
X104.471Y-106.172
X107.95Y-108.712
X108.712Y-76.962
X108.712Y-109.474
X108.712Y-110.998
X108.712Y-114.554
X109.474Y-110.236
X110.49Y-99.06
X110.49Y-111.252
X110.49Y-112.268
X110.744Y-101.6
X110.744Y-103.124
X110.998Y-80.01
X110.998Y-116.276
X111.252Y-78.232
X111.252Y-105.41
X111.506Y-112.268
X112.014Y-104.648
X112.268Y-113.03
X112.699Y-105.375
X113.384Y-104.627
X113.792Y-115.316
X114.046Y-108.204
X114.085Y-72.998
X114.144Y-105.214
X114.3Y-107.188
X114.566Y-106.184
X115.316Y-88.646
X115.316Y-91.186
X116.586Y-88.646
X117.602Y-93.218
X118.11Y-88.646
X118.618Y-112.776
X119.38Y-113.461
X119.449Y-114.419
X120.396Y-81.534
X120.396Y-89.916
X120.396Y-91.948
X122.912Y-79.754
X122.936Y-75.946
X128.27Y-80.01
X129.032Y-111.76
X130.048Y-91.186
X130.81Y-86.868
X131.826Y-109.982
X132.08Y-60.452
X132.334Y-70.612
X133.096Y-109.22
X134.62Y-103.886
X134.62Y-109.728
X134.62Y-111.76
X134.874Y-100.838
X135.128Y-105.41
X135.128Y-106.426
X136.296Y-127.965
X136.398Y-87.63
X136.398Y-91.694
X136.398Y-100.838
X136.652Y-80.01
X137.16Y-73.406
X137.668Y-82.296
X137.922Y-97.282
X138.684Y-87.63
X138.684Y-112.522
X139.192Y-95.758
X139.446Y-128.016
X139.7Y-99.822
X139.7Y-117.094
X140.121Y-122.834
X140.208Y-89.154
X140.97Y-107.188
X141.224Y-93.98
X142.24Y-87.376
X143.002Y-97.282
X146.304Y-106.172
X146.558Y-86.36
X147.066Y-79.502
X148.59Y-88.392
X148.59Y-108.204
X149.098Y-60.452
X150.622Y-75.438
X150.622Y-99.06
X150.876Y-86.36
X150.876Y-106.172
T2
X137.083Y-106.02
X137.083Y-107.92
T3
X146.05Y-71.628
X148.05Y-71.628
T4
X123.444Y-121.666
X125.984Y-121.666
X129.286Y-121.666
X131.826Y-121.666
T5
X58.674Y-83.566
X58.674Y-86.106
X60.706Y-102.108
X60.706Y-118.11
X60.706Y-120.65
X60.706Y-123.19
X61.214Y-83.566
X61.214Y-86.106
X63.246Y-102.108
X63.246Y-118.11
X63.246Y-120.65
X63.246Y-123.19
X63.754Y-83.566
X63.754Y-86.106
X66.294Y-83.566
X66.294Y-86.106
X68.834Y-83.566
X68.834Y-86.106
X102.108Y-67.564
X102.108Y-70.104
X104.648Y-67.564
X104.648Y-70.104
X107.188Y-67.564
X107.188Y-70.104
X109.728Y-67.564
X109.728Y-70.104
X112.268Y-67.564
X112.268Y-70.104
X114.808Y-67.564
X114.808Y-70.104
X117.348Y-67.564
X117.348Y-70.104
X119.888Y-67.564
X119.888Y-70.104
X122.428Y-67.564
X122.428Y-70.104
X124.968Y-67.564
X124.968Y-70.104
X143.535Y-117.831
X143.535Y-120.371
X143.535Y-122.911
X146.075Y-117.831
X146.075Y-120.371
X146.075Y-122.911
T5
X133.222Y-66.358G85X133.222Y-68.358
G05
X138.922Y-64.358G85X136.922Y-64.358
G05
X138.922Y-70.358G85X136.922Y-70.358
G05
M30
