G04 #@! TF.GenerationSoftware,KiCad,Pcbnew,7.0.10-7.0.10~ubuntu22.04.1*
G04 #@! TF.CreationDate,2024-05-15T19:40:14+10:00*
G04 #@! TF.ProjectId,AtariHDisk4,41746172-6948-4446-9973-6b342e6b6963,rev?*
G04 #@! TF.SameCoordinates,Original*
G04 #@! TF.FileFunction,Copper,L4,Bot*
G04 #@! TF.FilePolarity,Positive*
%FSLAX46Y46*%
G04 Gerber Fmt 4.6, Leading zero omitted, Abs format (unit mm)*
G04 Created by KiCad (PCBNEW 7.0.10-7.0.10~ubuntu22.04.1) date 2024-05-15 19:40:14*
%MOMM*%
%LPD*%
G01*
G04 APERTURE LIST*
G04 Aperture macros list*
%AMRoundRect*
0 Rectangle with rounded corners*
0 $1 Rounding radius*
0 $2 $3 $4 $5 $6 $7 $8 $9 X,Y pos of 4 corners*
0 Add a 4 corners polygon primitive as box body*
4,1,4,$2,$3,$4,$5,$6,$7,$8,$9,$2,$3,0*
0 Add four circle primitives for the rounded corners*
1,1,$1+$1,$2,$3*
1,1,$1+$1,$4,$5*
1,1,$1+$1,$6,$7*
1,1,$1+$1,$8,$9*
0 Add four rect primitives between the rounded corners*
20,1,$1+$1,$2,$3,$4,$5,0*
20,1,$1+$1,$4,$5,$6,$7,0*
20,1,$1+$1,$6,$7,$8,$9,0*
20,1,$1+$1,$8,$9,$2,$3,0*%
G04 Aperture macros list end*
G04 #@! TA.AperFunction,ComponentPad*
%ADD10R,1.600000X1.600000*%
G04 #@! TD*
G04 #@! TA.AperFunction,ComponentPad*
%ADD11C,1.600000*%
G04 #@! TD*
G04 #@! TA.AperFunction,ComponentPad*
%ADD12R,1.700000X1.700000*%
G04 #@! TD*
G04 #@! TA.AperFunction,ComponentPad*
%ADD13O,1.700000X1.700000*%
G04 #@! TD*
G04 #@! TA.AperFunction,ComponentPad*
%ADD14R,3.500000X3.500000*%
G04 #@! TD*
G04 #@! TA.AperFunction,ComponentPad*
%ADD15RoundRect,0.750000X-1.000000X0.750000X-1.000000X-0.750000X1.000000X-0.750000X1.000000X0.750000X0*%
G04 #@! TD*
G04 #@! TA.AperFunction,ComponentPad*
%ADD16RoundRect,0.875000X-0.875000X0.875000X-0.875000X-0.875000X0.875000X-0.875000X0.875000X0.875000X0*%
G04 #@! TD*
G04 #@! TA.AperFunction,ComponentPad*
%ADD17R,1.800000X1.800000*%
G04 #@! TD*
G04 #@! TA.AperFunction,ComponentPad*
%ADD18C,1.800000*%
G04 #@! TD*
G04 #@! TA.AperFunction,ComponentPad*
%ADD19RoundRect,0.250000X0.600000X-0.600000X0.600000X0.600000X-0.600000X0.600000X-0.600000X-0.600000X0*%
G04 #@! TD*
G04 #@! TA.AperFunction,ComponentPad*
%ADD20C,1.700000*%
G04 #@! TD*
G04 #@! TA.AperFunction,SMDPad,CuDef*
%ADD21R,2.100000X1.000000*%
G04 #@! TD*
G04 #@! TA.AperFunction,SMDPad,CuDef*
%ADD22C,15.000000*%
G04 #@! TD*
G04 #@! TA.AperFunction,ViaPad*
%ADD23C,0.800000*%
G04 #@! TD*
G04 #@! TA.AperFunction,Conductor*
%ADD24C,0.250000*%
G04 #@! TD*
G04 APERTURE END LIST*
D10*
X146050000Y-71628000D03*
D11*
X148050000Y-71628000D03*
D12*
X58674000Y-86106000D03*
D13*
X58674000Y-83566000D03*
X61214000Y-86106000D03*
X61214000Y-83566000D03*
X63754000Y-86106000D03*
X63754000Y-83566000D03*
X66294000Y-86106000D03*
X66294000Y-83566000D03*
X68834000Y-86106000D03*
X68834000Y-83566000D03*
D14*
X137922000Y-70358000D03*
D15*
X137922000Y-64358000D03*
D16*
X133222000Y-67358000D03*
D17*
X123444000Y-121666000D03*
D18*
X125984000Y-121666000D03*
D12*
X60706000Y-102108000D03*
D13*
X63246000Y-102108000D03*
D17*
X129286000Y-121666000D03*
D18*
X131826000Y-121666000D03*
D12*
X143535400Y-117830600D03*
D13*
X146075400Y-117830600D03*
X143535400Y-120370600D03*
X146075400Y-120370600D03*
X143535400Y-122910600D03*
X146075400Y-122910600D03*
D12*
X63251000Y-125471000D03*
D13*
X60711000Y-125471000D03*
X63251000Y-122931000D03*
X60711000Y-122931000D03*
X63251000Y-120391000D03*
X60711000Y-120391000D03*
X63251000Y-117851000D03*
X60711000Y-117851000D03*
X63251000Y-115311000D03*
X60711000Y-115311000D03*
D19*
X102108000Y-70104000D03*
D20*
X104648000Y-70104000D03*
X107188000Y-70104000D03*
X109728000Y-70104000D03*
X112268000Y-70104000D03*
X114808000Y-70104000D03*
X117348000Y-70104000D03*
X119888000Y-70104000D03*
X122428000Y-70104000D03*
X124968000Y-70104000D03*
X102108000Y-67564000D03*
X104648000Y-67564000D03*
X107188000Y-67564000D03*
X109728000Y-67564000D03*
X112268000Y-67564000D03*
X114808000Y-67564000D03*
X117348000Y-67564000D03*
X119888000Y-67564000D03*
X122428000Y-67564000D03*
X124968000Y-67564000D03*
D21*
X126746000Y-96520000D03*
X123646000Y-96520000D03*
X126746000Y-118520000D03*
X123646000Y-118520000D03*
D22*
X125196000Y-107520000D03*
D23*
X94996000Y-71882000D03*
X141224000Y-93980000D03*
X140208000Y-89154000D03*
X110998000Y-80010000D03*
X93472000Y-91466000D03*
X132080000Y-60452000D03*
X68072000Y-103378000D03*
X143002000Y-97282000D03*
X79248000Y-80010000D03*
X68072000Y-127000000D03*
X150622000Y-99060000D03*
X88392000Y-83820000D03*
X104140000Y-79756000D03*
X133350000Y-70358000D03*
X119888000Y-81788000D03*
X95504000Y-127000000D03*
X93218000Y-104394000D03*
X136296400Y-127965200D03*
X107188000Y-125222000D03*
X114085200Y-72998400D03*
X148590000Y-108204000D03*
X146558000Y-86360000D03*
X93218000Y-105410000D03*
X103937000Y-126522000D03*
X110490000Y-99568000D03*
X149098000Y-60452000D03*
X139192000Y-95758000D03*
X96266000Y-88900000D03*
X147066000Y-79502000D03*
X130048000Y-91186000D03*
X150876000Y-106172000D03*
X130810000Y-86868000D03*
X140970000Y-107188000D03*
X138684000Y-112522000D03*
X136398000Y-91694000D03*
X68072000Y-105410000D03*
X68072000Y-124968000D03*
X93218000Y-103378000D03*
X115570000Y-91694000D03*
X87625631Y-71322369D03*
X104140000Y-124206000D03*
X83820000Y-67818000D03*
X150876000Y-86360000D03*
X139446000Y-128016000D03*
X89395000Y-87363000D03*
X83820000Y-76962000D03*
X96266000Y-86360000D03*
X96520000Y-83743001D03*
X114046000Y-120142000D03*
X136398000Y-100838000D03*
X128270000Y-80010000D03*
X115570000Y-88392000D03*
X111122500Y-112831997D03*
X68072000Y-104394000D03*
X76708000Y-101092000D03*
X139700000Y-117094000D03*
X146304000Y-106172000D03*
X137160000Y-73406000D03*
X137668000Y-82296000D03*
X136652000Y-80010000D03*
X69088000Y-77216000D03*
X150622000Y-75438000D03*
X107239000Y-121950000D03*
X148590000Y-88392000D03*
X103087505Y-99592587D03*
X95504000Y-125984000D03*
X83663000Y-101092000D03*
X96012000Y-80010000D03*
X95504000Y-124968000D03*
X140120800Y-122834400D03*
X68072000Y-125984000D03*
X134874000Y-100838000D03*
X68072000Y-67818000D03*
X142240000Y-87376000D03*
X136398000Y-87630000D03*
X138684000Y-87630000D03*
X86106000Y-72644000D03*
X138684000Y-90424000D03*
X95758000Y-69088000D03*
X81163000Y-101092000D03*
X135382000Y-113284000D03*
X96266000Y-87884000D03*
X109220000Y-99568000D03*
X90932000Y-87376000D03*
X121158000Y-81788000D03*
X77046000Y-80010000D03*
X99822000Y-124460000D03*
X68149000Y-88138000D03*
X115570000Y-92964000D03*
X139700000Y-99822000D03*
X102870000Y-79756000D03*
X87376000Y-81026000D03*
X109474000Y-80010000D03*
X111122500Y-113792000D03*
X102108000Y-99568000D03*
X96266000Y-90460000D03*
X115570000Y-89916000D03*
X137922000Y-97282000D03*
X99060000Y-116332000D03*
X99060000Y-115316000D03*
X112268000Y-118112000D03*
X112268000Y-116332000D03*
X111303630Y-116332000D03*
X111303630Y-118112000D03*
X70866000Y-101092000D03*
X90678000Y-100076000D03*
X103886000Y-118618000D03*
X104602354Y-122947600D03*
X99822000Y-122428000D03*
X106172000Y-119634000D03*
X102616000Y-120650000D03*
X104140000Y-120396000D03*
X98298000Y-123444000D03*
X96520000Y-95758000D03*
X96520000Y-96774000D03*
X96520000Y-93726000D03*
X96520000Y-94742000D03*
X111760000Y-109982000D03*
X112289000Y-79735000D03*
X112014000Y-100584000D03*
X107239000Y-123190000D03*
X69596000Y-101092000D03*
X90678000Y-101092000D03*
X74930000Y-98552000D03*
X86868000Y-97282000D03*
D24*
X114046000Y-118670000D02*
X114046000Y-120142000D01*
X125196000Y-107520000D02*
X114046000Y-118670000D01*
X95080172Y-123034000D02*
X65108172Y-123034000D01*
X61976000Y-124206000D02*
X60711000Y-125471000D01*
X99060000Y-116332000D02*
X98708000Y-116684000D01*
X65108172Y-123034000D02*
X63936172Y-124206000D01*
X98708000Y-119406172D02*
X95080172Y-123034000D01*
X98708000Y-116684000D02*
X98708000Y-119406172D01*
X63936172Y-124206000D02*
X61976000Y-124206000D01*
X60711000Y-122931000D02*
X61976000Y-121666000D01*
X61976000Y-121666000D02*
X64262000Y-121666000D01*
X94910345Y-122623999D02*
X98298000Y-119236344D01*
X98298000Y-116078000D02*
X99060000Y-115316000D01*
X64262000Y-121666000D02*
X65219999Y-122623999D01*
X65219999Y-122623999D02*
X94910345Y-122623999D01*
X98298000Y-119236344D02*
X98298000Y-116078000D01*
X112268000Y-118112000D02*
X112268000Y-116332000D01*
X111303630Y-118112000D02*
X111303630Y-116332000D01*
X88138000Y-101854000D02*
X71628000Y-101854000D01*
X89916000Y-100076000D02*
X88138000Y-101854000D01*
X71628000Y-101854000D02*
X70866000Y-101092000D01*
X90678000Y-100076000D02*
X89916000Y-100076000D01*
X101600000Y-118618000D02*
X103886000Y-118618000D01*
X98625631Y-125145000D02*
X97536000Y-124055369D01*
X97536000Y-124055369D02*
X97536000Y-122682000D01*
X104602354Y-122947600D02*
X103874400Y-122947600D01*
X97536000Y-122682000D02*
X101600000Y-118618000D01*
X101677000Y-125145000D02*
X98625631Y-125145000D01*
X103874400Y-122947600D02*
X101677000Y-125145000D01*
X106172000Y-119634000D02*
X102616000Y-119634000D01*
X102616000Y-119634000D02*
X99822000Y-122428000D01*
X102870000Y-120396000D02*
X99822000Y-123444000D01*
X104140000Y-120396000D02*
X102870000Y-120396000D01*
X99822000Y-123444000D02*
X98298000Y-123444000D01*
X71191828Y-95758000D02*
X62484000Y-87050172D01*
X62484000Y-85598000D02*
X61722000Y-84836000D01*
X61722000Y-84836000D02*
X59944000Y-84836000D01*
X59944000Y-84836000D02*
X58674000Y-86106000D01*
X62484000Y-87050172D02*
X62484000Y-85598000D01*
X96520000Y-95758000D02*
X71191828Y-95758000D01*
X71120000Y-96266000D02*
X61214000Y-86360000D01*
X96520000Y-96774000D02*
X96012000Y-96266000D01*
X96012000Y-96266000D02*
X71120000Y-96266000D01*
X61214000Y-86360000D02*
X61214000Y-86106000D01*
X95504000Y-94742000D02*
X71374000Y-94742000D01*
X96520000Y-93726000D02*
X95504000Y-94742000D01*
X65024000Y-84836000D02*
X63754000Y-86106000D01*
X71374000Y-94742000D02*
X70104000Y-93472000D01*
X70104000Y-93472000D02*
X70104000Y-85557433D01*
X69382567Y-84836000D02*
X65024000Y-84836000D01*
X70104000Y-85557433D02*
X69382567Y-84836000D01*
X71263656Y-95250000D02*
X68834000Y-92820344D01*
X96012000Y-95250000D02*
X71263656Y-95250000D01*
X96520000Y-94742000D02*
X96012000Y-95250000D01*
X68834000Y-92820344D02*
X68834000Y-86106000D01*
X63251000Y-125471000D02*
X65278000Y-123444000D01*
X65278000Y-123444000D02*
X95250000Y-123444000D01*
X108712000Y-109982000D02*
X111760000Y-109982000D01*
X111506000Y-100076000D02*
X111506000Y-80518000D01*
X111506000Y-80518000D02*
X112289000Y-79735000D01*
X95250000Y-123444000D02*
X108712000Y-109982000D01*
X112014000Y-100584000D02*
X111506000Y-100076000D01*
X126746000Y-118520000D02*
X123646000Y-118520000D01*
X118976000Y-123190000D02*
X107239000Y-123190000D01*
X123646000Y-96520000D02*
X126746000Y-96520000D01*
X123646000Y-118520000D02*
X118976000Y-123190000D01*
X70768000Y-102264000D02*
X69596000Y-101092000D01*
X90678000Y-101092000D02*
X89506000Y-102264000D01*
X89506000Y-102264000D02*
X70768000Y-102264000D01*
X86868000Y-97282000D02*
X76200000Y-97282000D01*
X76200000Y-97282000D02*
X74930000Y-98552000D01*
M02*
