G04 #@! TF.GenerationSoftware,KiCad,Pcbnew,7.0.10-7.0.10~ubuntu22.04.1*
G04 #@! TF.CreationDate,2024-05-15T19:40:14+10:00*
G04 #@! TF.ProjectId,AtariHDisk4,41746172-6948-4446-9973-6b342e6b6963,rev?*
G04 #@! TF.SameCoordinates,Original*
G04 #@! TF.FileFunction,Paste,Top*
G04 #@! TF.FilePolarity,Positive*
%FSLAX46Y46*%
G04 Gerber Fmt 4.6, Leading zero omitted, Abs format (unit mm)*
G04 Created by KiCad (PCBNEW 7.0.10-7.0.10~ubuntu22.04.1) date 2024-05-15 19:40:14*
%MOMM*%
%LPD*%
G01*
G04 APERTURE LIST*
G04 Aperture macros list*
%AMRoundRect*
0 Rectangle with rounded corners*
0 $1 Rounding radius*
0 $2 $3 $4 $5 $6 $7 $8 $9 X,Y pos of 4 corners*
0 Add a 4 corners polygon primitive as box body*
4,1,4,$2,$3,$4,$5,$6,$7,$8,$9,$2,$3,0*
0 Add four circle primitives for the rounded corners*
1,1,$1+$1,$2,$3*
1,1,$1+$1,$4,$5*
1,1,$1+$1,$6,$7*
1,1,$1+$1,$8,$9*
0 Add four rect primitives between the rounded corners*
20,1,$1+$1,$2,$3,$4,$5,0*
20,1,$1+$1,$4,$5,$6,$7,0*
20,1,$1+$1,$6,$7,$8,$9,0*
20,1,$1+$1,$8,$9,$2,$3,0*%
G04 Aperture macros list end*
%ADD10RoundRect,0.250000X0.650000X-0.325000X0.650000X0.325000X-0.650000X0.325000X-0.650000X-0.325000X0*%
%ADD11RoundRect,0.250000X-0.262500X-0.450000X0.262500X-0.450000X0.262500X0.450000X-0.262500X0.450000X0*%
%ADD12RoundRect,0.225000X0.250000X-0.225000X0.250000X0.225000X-0.250000X0.225000X-0.250000X-0.225000X0*%
%ADD13RoundRect,0.225000X-0.225000X-0.250000X0.225000X-0.250000X0.225000X0.250000X-0.225000X0.250000X0*%
%ADD14RoundRect,0.225000X-0.250000X0.225000X-0.250000X-0.225000X0.250000X-0.225000X0.250000X0.225000X0*%
%ADD15RoundRect,0.375000X0.625000X0.375000X-0.625000X0.375000X-0.625000X-0.375000X0.625000X-0.375000X0*%
%ADD16RoundRect,0.500000X0.500000X1.400000X-0.500000X1.400000X-0.500000X-1.400000X0.500000X-1.400000X0*%
%ADD17RoundRect,0.375000X-0.375000X0.625000X-0.375000X-0.625000X0.375000X-0.625000X0.375000X0.625000X0*%
%ADD18RoundRect,0.500000X-1.400000X0.500000X-1.400000X-0.500000X1.400000X-0.500000X1.400000X0.500000X0*%
%ADD19RoundRect,0.250000X0.325000X0.650000X-0.325000X0.650000X-0.325000X-0.650000X0.325000X-0.650000X0*%
%ADD20R,2.000000X1.800000*%
%ADD21RoundRect,0.075000X-0.662500X-0.075000X0.662500X-0.075000X0.662500X0.075000X-0.662500X0.075000X0*%
%ADD22RoundRect,0.075000X-0.075000X-0.662500X0.075000X-0.662500X0.075000X0.662500X-0.075000X0.662500X0*%
%ADD23R,1.400000X0.300000*%
%ADD24RoundRect,0.250000X0.450000X-0.262500X0.450000X0.262500X-0.450000X0.262500X-0.450000X-0.262500X0*%
%ADD25RoundRect,0.150000X0.150000X-0.587500X0.150000X0.587500X-0.150000X0.587500X-0.150000X-0.587500X0*%
%ADD26RoundRect,0.100000X0.100000X-0.637500X0.100000X0.637500X-0.100000X0.637500X-0.100000X-0.637500X0*%
%ADD27RoundRect,0.075000X0.662500X0.075000X-0.662500X0.075000X-0.662500X-0.075000X0.662500X-0.075000X0*%
%ADD28RoundRect,0.075000X0.075000X0.662500X-0.075000X0.662500X-0.075000X-0.662500X0.075000X-0.662500X0*%
%ADD29R,1.900000X1.100000*%
%ADD30R,0.700000X1.600000*%
%ADD31R,1.200000X1.800000*%
%ADD32R,1.200000X2.200000*%
%ADD33R,1.600000X1.500000*%
%ADD34RoundRect,0.250000X0.375000X0.625000X-0.375000X0.625000X-0.375000X-0.625000X0.375000X-0.625000X0*%
%ADD35RoundRect,0.250000X0.262500X0.450000X-0.262500X0.450000X-0.262500X-0.450000X0.262500X-0.450000X0*%
%ADD36RoundRect,0.225000X0.225000X0.250000X-0.225000X0.250000X-0.225000X-0.250000X0.225000X-0.250000X0*%
%ADD37R,1.000000X1.500000*%
%ADD38R,0.700000X1.500000*%
%ADD39RoundRect,0.100000X-0.100000X0.637500X-0.100000X-0.637500X0.100000X-0.637500X0.100000X0.637500X0*%
%ADD40RoundRect,0.250000X0.650000X-1.000000X0.650000X1.000000X-0.650000X1.000000X-0.650000X-1.000000X0*%
G04 APERTURE END LIST*
D10*
X142240000Y-92153000D03*
X142240000Y-89203000D03*
D11*
X70104000Y-89408000D03*
X71929000Y-89408000D03*
X66294000Y-89408000D03*
X68119000Y-89408000D03*
X67159500Y-80772000D03*
X68984500Y-80772000D03*
D12*
X117348000Y-93218000D03*
X117348000Y-91668000D03*
D13*
X109474000Y-78232000D03*
X111024000Y-78232000D03*
D14*
X94742000Y-89916000D03*
X94742000Y-91466000D03*
D12*
X117348000Y-89916000D03*
X117348000Y-88366000D03*
X94742000Y-87884000D03*
X94742000Y-86334000D03*
D15*
X148590000Y-106186000D03*
X148590000Y-103886000D03*
D16*
X142290000Y-103886000D03*
D15*
X148590000Y-101586000D03*
D17*
X136412000Y-89662000D03*
X134112000Y-89662000D03*
D18*
X134112000Y-95962000D03*
D17*
X131812000Y-89662000D03*
D10*
X141224000Y-98708000D03*
X141224000Y-95758000D03*
D19*
X137873000Y-99060000D03*
X134923000Y-99060000D03*
D20*
X86868000Y-89154000D03*
X86868000Y-94234000D03*
X91068000Y-94234000D03*
X91068000Y-89154000D03*
D13*
X101587000Y-101092000D03*
X103137000Y-101092000D03*
X135864000Y-111760000D03*
X137414000Y-111760000D03*
X77470000Y-81280000D03*
X79020000Y-81280000D03*
D21*
X98509500Y-83916000D03*
X98509500Y-84416000D03*
X98509500Y-84916000D03*
X98509500Y-85416000D03*
X98509500Y-85916000D03*
X98509500Y-86416000D03*
X98509500Y-86916000D03*
X98509500Y-87416000D03*
X98509500Y-87916000D03*
X98509500Y-88416000D03*
X98509500Y-88916000D03*
X98509500Y-89416000D03*
X98509500Y-89916000D03*
X98509500Y-90416000D03*
X98509500Y-90916000D03*
X98509500Y-91416000D03*
X98509500Y-91916000D03*
X98509500Y-92416000D03*
X98509500Y-92916000D03*
X98509500Y-93416000D03*
X98509500Y-93916000D03*
X98509500Y-94416000D03*
X98509500Y-94916000D03*
X98509500Y-95416000D03*
X98509500Y-95916000D03*
D22*
X100172000Y-97578500D03*
X100672000Y-97578500D03*
X101172000Y-97578500D03*
X101672000Y-97578500D03*
X102172000Y-97578500D03*
X102672000Y-97578500D03*
X103172000Y-97578500D03*
X103672000Y-97578500D03*
X104172000Y-97578500D03*
X104672000Y-97578500D03*
X105172000Y-97578500D03*
X105672000Y-97578500D03*
X106172000Y-97578500D03*
X106672000Y-97578500D03*
X107172000Y-97578500D03*
X107672000Y-97578500D03*
X108172000Y-97578500D03*
X108672000Y-97578500D03*
X109172000Y-97578500D03*
X109672000Y-97578500D03*
X110172000Y-97578500D03*
X110672000Y-97578500D03*
X111172000Y-97578500D03*
X111672000Y-97578500D03*
X112172000Y-97578500D03*
D21*
X113834500Y-95916000D03*
X113834500Y-95416000D03*
X113834500Y-94916000D03*
X113834500Y-94416000D03*
X113834500Y-93916000D03*
X113834500Y-93416000D03*
X113834500Y-92916000D03*
X113834500Y-92416000D03*
X113834500Y-91916000D03*
X113834500Y-91416000D03*
X113834500Y-90916000D03*
X113834500Y-90416000D03*
X113834500Y-89916000D03*
X113834500Y-89416000D03*
X113834500Y-88916000D03*
X113834500Y-88416000D03*
X113834500Y-87916000D03*
X113834500Y-87416000D03*
X113834500Y-86916000D03*
X113834500Y-86416000D03*
X113834500Y-85916000D03*
X113834500Y-85416000D03*
X113834500Y-84916000D03*
X113834500Y-84416000D03*
X113834500Y-83916000D03*
D22*
X112172000Y-82253500D03*
X111672000Y-82253500D03*
X111172000Y-82253500D03*
X110672000Y-82253500D03*
X110172000Y-82253500D03*
X109672000Y-82253500D03*
X109172000Y-82253500D03*
X108672000Y-82253500D03*
X108172000Y-82253500D03*
X107672000Y-82253500D03*
X107172000Y-82253500D03*
X106672000Y-82253500D03*
X106172000Y-82253500D03*
X105672000Y-82253500D03*
X105172000Y-82253500D03*
X104672000Y-82253500D03*
X104172000Y-82253500D03*
X103672000Y-82253500D03*
X103172000Y-82253500D03*
X102672000Y-82253500D03*
X102172000Y-82253500D03*
X101672000Y-82253500D03*
X101172000Y-82253500D03*
X100672000Y-82253500D03*
X100172000Y-82253500D03*
D23*
X105797000Y-124458000D03*
X105797000Y-123958000D03*
X105797000Y-123458000D03*
X105797000Y-122958000D03*
X105797000Y-122458000D03*
X101397000Y-122458000D03*
X101397000Y-122958000D03*
X101397000Y-123458000D03*
X101397000Y-123958000D03*
X101397000Y-124458000D03*
D15*
X148692000Y-86374000D03*
X148692000Y-84074000D03*
D16*
X142392000Y-84074000D03*
D15*
X148692000Y-81774000D03*
D13*
X86855000Y-82550000D03*
X88405000Y-82550000D03*
D14*
X136296400Y-125196600D03*
X136296400Y-126746600D03*
D13*
X81280000Y-100076000D03*
X82830000Y-100076000D03*
D24*
X91948000Y-68881000D03*
X91948000Y-67056000D03*
D25*
X130114000Y-79677500D03*
X132014000Y-79677500D03*
X131064000Y-77802500D03*
X125034000Y-79677500D03*
X126934000Y-79677500D03*
X125984000Y-77802500D03*
D26*
X135570800Y-121226500D03*
X136220800Y-121226500D03*
X136870800Y-121226500D03*
X137520800Y-121226500D03*
X138170800Y-121226500D03*
X138820800Y-121226500D03*
X139470800Y-121226500D03*
X140120800Y-121226500D03*
X140120800Y-115501500D03*
X139470800Y-115501500D03*
X138820800Y-115501500D03*
X138170800Y-115501500D03*
X137520800Y-115501500D03*
X136870800Y-115501500D03*
X136220800Y-115501500D03*
X135570800Y-115501500D03*
D24*
X91694000Y-65071000D03*
X91694000Y-63246000D03*
D27*
X109287500Y-115482000D03*
X109287500Y-114982000D03*
X109287500Y-114482000D03*
X109287500Y-113982000D03*
X109287500Y-113482000D03*
X109287500Y-112982000D03*
X109287500Y-112482000D03*
X109287500Y-111982000D03*
X109287500Y-111482000D03*
X109287500Y-110982000D03*
X109287500Y-110482000D03*
X109287500Y-109982000D03*
D28*
X107875000Y-108569500D03*
X107375000Y-108569500D03*
X106875000Y-108569500D03*
X106375000Y-108569500D03*
X105875000Y-108569500D03*
X105375000Y-108569500D03*
X104875000Y-108569500D03*
X104375000Y-108569500D03*
X103875000Y-108569500D03*
X103375000Y-108569500D03*
X102875000Y-108569500D03*
X102375000Y-108569500D03*
D27*
X100962500Y-109982000D03*
X100962500Y-110482000D03*
X100962500Y-110982000D03*
X100962500Y-111482000D03*
X100962500Y-111982000D03*
X100962500Y-112482000D03*
X100962500Y-112982000D03*
X100962500Y-113482000D03*
X100962500Y-113982000D03*
X100962500Y-114482000D03*
X100962500Y-114982000D03*
X100962500Y-115482000D03*
D28*
X102375000Y-116894500D03*
X102875000Y-116894500D03*
X103375000Y-116894500D03*
X103875000Y-116894500D03*
X104375000Y-116894500D03*
X104875000Y-116894500D03*
X105375000Y-116894500D03*
X105875000Y-116894500D03*
X106375000Y-116894500D03*
X106875000Y-116894500D03*
X107375000Y-116894500D03*
X107875000Y-116894500D03*
D29*
X108966000Y-122956000D03*
X108966000Y-125456000D03*
D30*
X73746000Y-78374000D03*
X74846000Y-78374000D03*
X75946000Y-78374000D03*
X77046000Y-78374000D03*
X78146000Y-78374000D03*
X79246000Y-78374000D03*
X80346000Y-78374000D03*
X81446000Y-78374000D03*
X82546000Y-78374000D03*
D31*
X83746000Y-77074000D03*
D32*
X83746000Y-67774000D03*
D33*
X69096000Y-77324000D03*
D32*
X68246000Y-67774000D03*
D12*
X84836000Y-72644000D03*
X84836000Y-71094000D03*
D24*
X87630000Y-65071000D03*
X87630000Y-63246000D03*
X87884000Y-68881000D03*
X87884000Y-67056000D03*
X93726000Y-65071000D03*
X93726000Y-63246000D03*
D34*
X132972000Y-75438000D03*
X130172000Y-75438000D03*
D35*
X129944500Y-72898000D03*
X128119500Y-72898000D03*
D34*
X127892000Y-75438000D03*
X125092000Y-75438000D03*
D36*
X90945000Y-86106000D03*
X89395000Y-86106000D03*
D24*
X89916000Y-68881000D03*
X89916000Y-67056000D03*
D35*
X126896500Y-82042000D03*
X125071500Y-82042000D03*
X131976500Y-82042000D03*
X130151500Y-82042000D03*
D11*
X98759000Y-74422000D03*
X100584000Y-74422000D03*
D36*
X121412000Y-83312000D03*
X119862000Y-83312000D03*
D14*
X139496800Y-125196600D03*
X139496800Y-126746600D03*
D37*
X88663000Y-102684000D03*
X86163000Y-102684000D03*
X83663000Y-102684000D03*
X81163000Y-102684000D03*
X78663000Y-102684000D03*
X76163000Y-102684000D03*
X73738000Y-102684000D03*
X72038000Y-102684000D03*
X91163000Y-102684000D03*
D38*
X70738000Y-102684000D03*
X69538000Y-102684000D03*
D39*
X121035000Y-74353500D03*
X120385000Y-74353500D03*
X119735000Y-74353500D03*
X119085000Y-74353500D03*
X118435000Y-74353500D03*
X117785000Y-74353500D03*
X117135000Y-74353500D03*
X116485000Y-74353500D03*
X115835000Y-74353500D03*
X115185000Y-74353500D03*
X115185000Y-80078500D03*
X115835000Y-80078500D03*
X116485000Y-80078500D03*
X117135000Y-80078500D03*
X117785000Y-80078500D03*
X118435000Y-80078500D03*
X119085000Y-80078500D03*
X119735000Y-80078500D03*
X120385000Y-80078500D03*
X121035000Y-80078500D03*
D12*
X112522000Y-114313000D03*
X112522000Y-112763000D03*
D13*
X103124000Y-78232000D03*
X104674000Y-78232000D03*
X101092000Y-126492000D03*
X102642000Y-126492000D03*
D24*
X93980000Y-68881000D03*
X93980000Y-67056000D03*
D13*
X109220000Y-101092000D03*
X110770000Y-101092000D03*
D11*
X123651000Y-126595500D03*
X125476000Y-126595500D03*
D14*
X111252000Y-124968000D03*
X111252000Y-126518000D03*
D12*
X111252000Y-123444000D03*
X111252000Y-121894000D03*
D14*
X134696200Y-125197200D03*
X134696200Y-126747200D03*
D11*
X129643500Y-126595500D03*
X131468500Y-126595500D03*
D40*
X146304000Y-66516000D03*
X146304000Y-62516000D03*
D35*
X125880500Y-72898000D03*
X124055500Y-72898000D03*
D26*
X87510000Y-79248000D03*
X88160000Y-79248000D03*
X88810000Y-79248000D03*
X89460000Y-79248000D03*
X90110000Y-79248000D03*
X90760000Y-79248000D03*
X91410000Y-79248000D03*
X92060000Y-79248000D03*
X92710000Y-79248000D03*
X93360000Y-79248000D03*
X94010000Y-79248000D03*
X94660000Y-79248000D03*
X94660000Y-73523000D03*
X94010000Y-73523000D03*
X93360000Y-73523000D03*
X92710000Y-73523000D03*
X92060000Y-73523000D03*
X91410000Y-73523000D03*
X90760000Y-73523000D03*
X90110000Y-73523000D03*
X89460000Y-73523000D03*
X88810000Y-73523000D03*
X88160000Y-73523000D03*
X87510000Y-73523000D03*
D14*
X137896600Y-125197200D03*
X137896600Y-126747200D03*
D24*
X89662000Y-65071000D03*
X89662000Y-63246000D03*
M02*
